<svg xmlns="http://www.w3.org/2000/svg" viewBox="0 0 300 300"><defs><style>.cls-1{fill:none;}.cls-2{fill:currentColor;}</style></defs><title>logo</title><g id="westminster"><g id="westminster-logo"><path class="cls-1" d="M106.23,173.89l0,.18c0,.1,0,.19-.06.29l-.08.29c-.11.39-.24.77-.39,1.14-.27.74-.56,1.46-.82,2.18a9.35,9.35,0,0,0-.32,1.09c-.08.37-.14.74-.21,1.14,0,.19-.06.4-.11.61a3.9,3.9,0,0,1-.21.61,4.91,4.91,0,0,1-.69,1c-.47.61-.92,1.24-1.36,1.88s-.9,1.28-1.38,1.91a5.24,5.24,0,0,1-.37.47,3,3,0,0,1-.45.48,1.73,1.73,0,0,1-.64.32,3.18,3.18,0,0,1-.64.11c-.42,0-.82,0-1.19,0a2.7,2.7,0,0,0-.53,0,.92.92,0,0,0-.22.06.84.84,0,0,0-.19.11,7,7,0,0,0-.85.72c-.27.26-.55.53-.8.82s-.51.58-.74.87a6.75,6.75,0,0,0-.63.93c0,.08-.08.16-.11.21s0,0,0,.06.26.19.31.24a4.82,4.82,0,0,0,.51.18,5.94,5.94,0,0,1,1.22-1.41,4.08,4.08,0,0,1,.56-.74c.1-.1.19-.19.31-.29a2.25,2.25,0,0,1,.39-.24,2,2,0,0,1,.84-.14,4.84,4.84,0,0,0,.69,0,5.13,5.13,0,0,0,.67-.16.1.1,0,0,1,.11,0,.07.07,0,0,1,0,.08,1.93,1.93,0,0,1-.66.45,2.86,2.86,0,0,1-.77.19,1.53,1.53,0,0,0-.59.16,1.24,1.24,0,0,0-.31.22,5.59,5.59,0,0,1-.47.51c-.19.24-.37.5-.55.75a9,9,0,0,1-.58.77,17,17,0,0,0,1.85.22l.83,0a1.52,1.52,0,0,1-.09-.25,1.92,1.92,0,0,1-.06-.61,1.51,1.51,0,0,1,.15-.64c.1-.18.24-.59.42-.64a1.44,1.44,0,0,0,0-.25H98s0,.24,0,.25a4,4,0,0,0,0,.42v0a3.5,3.5,0,0,1,0,.49c0,.14.09.28.07.44l-.1.26-.07.08H99c.26,0,.51.19.75.16-.1-.08-.19-.09-.26-.2a1.12,1.12,0,0,1-.17-.26.58.58,0,0,1,0-.44.61.61,0,0,1,.21-.27,1.22,1.22,0,0,1,.34-.12c.06,0,.14,0,.14.09v.29a.77.77,0,0,0,.08.16h0a.25.25,0,0,1,.09.08,1.12,1.12,0,0,1,.28.43.51.51,0,0,1,0,.22,15.89,15.89,0,0,0,1.77-1.19c0-.08,0-.16.06-.24a6.87,6.87,0,0,1,.37-1.16,4.18,4.18,0,0,1,.37-.64c-.22.24-.35.34-.31.26a5.47,5.47,0,0,0,.8-3.31c0-2.25,1.17-.67,1.88-2.54s1.57-2,2.28-3.85-.39-2.15-.55-4.21C107.14,174.2,106.66,174,106.23,173.89Z"/><path class="cls-1" d="M70.8,121l-.11,0-.22-.06c-.61-.13-1.24-.24-1.86-.34l-.47-.08-.24-.06h-.16a1.13,1.13,0,0,1,.14.35l0,.17-.1.19,0-.1,0,0h2.87s.08.06.13.06.06-.06.09-.07V121s0,0,0,0S70.82,121,70.8,121Z"/><path class="cls-1" d="M70.69,121l.11,0,0,0s0,0,0,0-.06-.11-.42-.19Z"/><path class="cls-1" d="M107.54,154h0l0,0Z"/><path class="cls-1" d="M109,182.5a1.58,1.58,0,0,0,.61-.77,10.28,10.28,0,0,0,.37-1.06v0a7,7,0,0,1-.43.95,6.15,6.15,0,0,1-.66,1Z"/><path class="cls-1" d="M111.88,175.28l-.1-.13c-.1.19-.24.59-.55,1.35a13.38,13.38,0,0,0-.55,1.89l.39-1.09C111.33,176.61,111.6,175.93,111.88,175.28Z"/><path class="cls-1" d="M135.93,156.15l-1.48,1A2.64,2.64,0,0,0,135.93,156.15Z"/><path class="cls-1" d="M50.41,118.09a.42.42,0,0,1,.06-.16.28.28,0,0,0-.13,0,.52.52,0,0,0-.18.19c-.1.24-.16.5-.06.58s.48-.1.48-.1C50.87,118.29,50.36,118.35,50.41,118.09Z"/><path class="cls-1" d="M177.14,195.9a7,7,0,0,1,1.43-2c.4-.24,2.52-.95,2.52-.95-.64.31-2.34,1.41-2.34,1.41l-.5,2.07.32.05h1l.75-1.34-.18,1,1.48-.16.59-1.36-.18,1.22,1.2-.48.11-.95.08.87,1.08-.42.37-.16a5.43,5.43,0,0,0,.56-1.7,7.78,7.78,0,0,1,.79-2.84c.63-1.32,1.78-2.86,2.28-4.18a15.29,15.29,0,0,1,2.44-3.21l.4-.71c.27-.47.56-.95.87-1.41a2.85,2.85,0,0,1,.82-2.46,1.5,1.5,0,0,1,1.36-.79s0-.08.05-.13a8.6,8.6,0,0,0,.37-.79,3.76,3.76,0,0,0,.2-.77,1.11,1.11,0,0,0,0-.32s-.09-.08-.09-.13v0l.05,0,.07-.13a3.1,3.1,0,0,1-.17-.55,3.66,3.66,0,0,0-.08-.4.09.09,0,0,0,0,0,.44.44,0,0,0-.08-.1l-.29-.27-.35-.29c-.13-.1-.26-.21-.39-.32a28.18,28.18,0,0,1-2.76-2.78,29.89,29.89,0,0,1-2.38-3.1c-.35-.55-.69-1.12-1-1.69s-.61-1.14-.9-1.73a32.1,32.1,0,0,1-1.51-3.6,18.72,18.72,0,0,1-.56-1.91,3.06,3.06,0,0,1-.08-.37,3.6,3.6,0,0,1-.14.42,14.86,14.86,0,0,0-1.25,3.9,5.12,5.12,0,0,1,.08-3c.34-.66.75-1.61,1.19-2.6a3.39,3.39,0,0,1,.06-.53,8.64,8.64,0,0,1,.79-1.93,11.67,11.67,0,0,1,1.08-1.72c.71-1.09,1.45-2.15,2.2-3.18l2.26-3.08,0,0,0,0c.87-.92,1.72-1.86,2.52-2.83q.6-.72,1.16-1.49c.37-.51.72-1,1-1.54a8,8,0,0,0,.72-1.65,10.73,10.73,0,0,0,.33-1.8c.16-1.24.29-2.52.34-3.79,0-.64.05-1.27.05-1.91v-.95c0-.29-.05-.61-.09-.92-.08-.63-.14-1.25-.2-1.91a10,10,0,0,1-.09-1,3.5,3.5,0,0,1,.13-1.06,8.15,8.15,0,0,0,.19-.92,1.35,1.35,0,0,1,.24-.58,1.47,1.47,0,0,1,.46-.43,3.77,3.77,0,0,1,1-.37,9.59,9.59,0,0,1,1-.19c1.27-.19,2.55-.35,3.82-.5,2.55-.29,5.11-.55,7.68-.66.64,0,1.28,0,1.93,0s1.28,0,1.91-.06c1.28,0,2.55-.1,3.84-.16s2.55-.13,3.84-.21c.64,0,1.27-.08,1.91-.13s1.27-.1,1.91-.18c1.27-.16,2.52-.4,3.77-.64s2.51-.51,3.76-.77l3.76-.79a29.79,29.79,0,0,0,3.66-1.08l1.8-.66.22-.08a.31.31,0,0,0,.13-.06.26.26,0,0,0-.1-.1,1.94,1.94,0,0,0-.79-.32,5,5,0,0,0-1.83,0l-.93.18-.95.18c-1.25.24-2.51.48-3.77.71s-2.52.45-3.81.63q-3.83.48-7.66.77c-1.28.1-2.57.18-3.85.21L216,119c-2.55,0-5.12.08-7.68.21-.64,0-1.27.08-1.91.13s-1.3.06-1.94.08c-1.28,0-2.59,0-3.85-.06l-1.91,0a18.19,18.19,0,0,0-1.88.06c-1.2.13-2.42.29-3.61.45a5.9,5.9,0,0,1,1.81,1.48l-2.7-1.65c-1.3-.5-2.59-1-3.87-1.45l-2.2-.79c-.74-.26-1.48-.51-2.18-.71a19.28,19.28,0,0,0-2.25-.39c-.77-.1-1.54-.18-2.3-.24-1.54-.13-3.08-.19-4.62-.21a39.63,39.63,0,0,0-4.59.22c-1.53.18-3.08.4-4.62.63-3.08.47-6.17,1-9.25,1.46-1.54.24-3.08.48-4.64.71-.77.11-1.57.22-2.38.29l-2.34.22a84.5,84.5,0,0,1-9.47.34,37.56,37.56,0,0,1-4.8-.43l-1.16-.21-1.14-.19c-.77-.13-1.53-.24-2.3-.34s-1.53-.18-2.31-.26a12.51,12.51,0,0,1-1.25-.19,1.87,1.87,0,0,1-.32-.08l-.18,0-.18,0c-.22-.08-.42-.13-.63-.21-.77-.35-1.45-.88-2.1-1.16a4.73,4.73,0,0,0-1.93-.64h-.24c-.09,0-.17.11-.26.12s-.34,0-.51.06a8.53,8.53,0,0,0-1.06.28c-.61.14-1.24.37-1.89.53-2.34,1.73-3.26,3.85-2.1,1.4.16-.35-.19-.62-.82-.84-.74.06-1.49.13-2.26.15a20.37,20.37,0,0,1-2.42-.06,20.07,20.07,0,0,1-2.39-.38l-1.14-.27-1.14-.26c-.75-.16-1.53-.32-2.3-.47-1.53-.31-3.07-.59-4.61-.87l-2.3-.4-.42-.06a59.39,59.39,0,0,1-2.33,12.93,58.22,58.22,0,0,0,6.17,2.78s-3.18-.63-6.55-1.51c-.13.4-.26.8-.39,1.17,1,.45,1.75.8,1.93.92.66.39,1.64,3.07,3.92,3.73,3.28.95-.8-.08-4-1.11a24.92,24.92,0,0,1-2.79-1.08,12.3,12.3,0,0,1-.95,1.75l.35.16,1.08.48c.35.16.71.32,1.06.5.71.34,1.4.69,2.09,1a30.61,30.61,0,0,1,3.23,1.86c.34.11.72.24,1.08.39.77.31,2.62,1,3.61,1.53a6,6,0,0,1,1.59.93c.26-.79.5-1.56.75-2.28a9.17,9.17,0,0,1,.48-1.08c.19-.35.39-.71.56-1.08a7.74,7.74,0,0,0,.43-1.16c.13-.4.26-.79.42-1.17s.32-.77.48-1.14l.51-1.12c.32-.74.69-1.49,1.06-2.22s.74-1.45,1.06-2.2l.14.06c-.34.74-.67,1.48-1,2.22-.18.37-.34.74-.5,1.11s-.31.75-.45,1.12c-.29.75-.58,1.51-.82,2.3a23,23,0,0,0-.56,2.36,23.42,23.42,0,0,1-.61,2.38c-.24.77-.51,1.54-.74,2.33a13.16,13.16,0,0,0-.51,2.36,4.59,4.59,0,0,0,.29,2.33,2.42,2.42,0,0,0,.18.35,0,0,0,0,0,0,0s1.59,2,2.92,3.4a13.31,13.31,0,0,0,1.85,1.45,9.6,9.6,0,0,0,1,.61,5.55,5.55,0,0,0,.55.23l.58.2c.77.29,1.51.67,2.23,1a22.76,22.76,0,0,0,2.2,1c.19.06.39.16.56.21s.4.14.59.19c.4.1.8.31,1.19.41.79.21,1.57-.06,2.34.93l1-.17A2.25,2.25,0,0,0,121,156v.41l.31-.14-.27,0c1.32.18,4.71.82,4.71.82l-1.81-.27a9.09,9.09,0,0,0-4.47.53l-1.24.84c-1.59,1.67-3.21,3.34-4.85,5-.84.82-1.65,1.64-2.55,2.39a3,3,0,0,1-.35.27l-.19.13-.16.11a2.34,2.34,0,0,0-.55.58,3,3,0,0,0-.34.72,2.48,2.48,0,0,0-.13.75l.48,3.47,2.84,3.44.1.11,0,.13a.23.23,0,0,1,0,.1l1.94,1.22,2.15,1.38,0,0,0,0,1.72,3.23,3.52,2.12c.39-.06.79-.16,1.17-.26a5.12,5.12,0,0,0,.59-.21,2.15,2.15,0,0,0,.39-.19c-.08-.22-.16-.51-.26-.79s-.45-.42-.69-.61a1.09,1.09,0,0,1-.37.51l-.34.14-.37.13a3.34,3.34,0,0,1-.9.16,1.89,1.89,0,0,1-.58-.1,1.68,1.68,0,0,1-.5-.29,2.11,2.11,0,0,1-.32-.35l-.12-.18-.08-.16c-.06-.1-.09-.21-.16-.32a1.8,1.8,0,0,1-.12-.37,4.15,4.15,0,0,1-.37-1.3l-.16-.18s.15,0,.12,0,.21,0,.21.08v0s-.08.06-.08.08.17.24.28.37.3.37.44.56a1.72,1.72,0,0,0,.2.26l.24.26.13.13.11.11a1.75,1.75,0,0,0,.22.18.7.7,0,0,0,.47.11,2.28,2.28,0,0,0,.59-.14l.32-.11.34-.13a1.66,1.66,0,0,1,.42,0l-.11-.56a2.66,2.66,0,0,1-.48-1.3,6.34,6.34,0,0,0-1.61-3.32,7.11,7.11,0,0,0-2.55-1.78,7.41,7.41,0,0,0-.82,0c-1.14,0-2.15-1.73-3-1.88s-1-2.25-1-2.25-.18-.64.79-1,1,.31,2.57-1,3-2.84,4.14-3.36,2.42-.56,4.51-1.75a16.42,16.42,0,0,0,4.88-3.87c.79-1.16-2.18-2.87-1.53-2.55,1.32.61,2.86,1.56,3.16.9a1.1,1.1,0,0,0-.27-1.14c.5.29,2,.18,2,.93a1.34,1.34,0,0,1,0,.35l.08-.06,0,0,0,0,2.71-1.77a1.74,1.74,0,0,0,0-.29,3.51,3.51,0,0,0-.06-.43,1.52,1.52,0,0,0-.16-.37.64.64,0,0,0-.24-.22l0,0,0,0-1-.79,0,0-1.78-1.8,0,0c-.69-.87-1.38-1.72-2.07-2.57-.56-.53-1.14-1-1.51-1.38l-.22-.16c-.21-.16-.43-.31-.64-.45s-.43-.29-.66-.42a7.24,7.24,0,0,1,.71.35l.53.32c1.43.11,2.31,1,3.4,2.7s4.11,3.79,5,4.53a6.58,6.58,0,0,0,3.2,1.35l1.06-.48,1-.45c1.09-.72,5.75-3.36,6.73-4a31.29,31.29,0,0,1,6-2.31,6,6,0,0,0,3.44-1.65l-.48,0a51.1,51.1,0,0,0-9.19,2,7.76,7.76,0,0,1,2.59-1.8c3.58-.8,4.53-1,7.43-1.72a18,18,0,0,0,3-1l1.17-.62a5.66,5.66,0,0,1-.54.32c.82-.4,1.5-.8,2.06-1.14l-1.51.8a12.43,12.43,0,0,0,3.52-4.21c.61-1.17-.92,2.3-1.45,3.26l2.71,1.52,0-.06,0,.11-.06,0h0l-2.7-1.52,0,.06,2.71,1.54s0,0,0-.06l.1,0,.06,0,0,.06-.19,1c-.06.34-.14.67-.21,1l-.11.5-.13.5c-.08.32-.16.66-.26,1l0,0c0,.13,0,.29,0,.43s0,.31,0,.45c0,.31,0,.61,0,.92a16.94,16.94,0,0,0,.08,1.81,15.43,15.43,0,0,0,.75,3.52,13.18,13.18,0,0,0,4,5.86l1.46,1.22,1.46,1.25c1,.84,1.91,1.72,2.84,2.6a64.85,64.85,0,0,1,5.28,5.62l0,0,0,0,.72,1.43.72,1.43.08.16.09.18.18.35.35.71c.26.47.46.93.7,1.4l-.05,0,.1.31,1,2.73v0l-.34.09c-.27.77-.84,1.53-1.16,2.29s-.7,1.49-1,2.23-.7,1.44-1.07,2.17-.74,1.15-1.15,1.87l0-.36h0l-1.81,2.4,0,.31,0,.07c-.45.1-.9.22-1.33.33-.22,0-.43.13-.66.19a2.21,2.21,0,0,0-.59.25,3,3,0,0,0-.47.44c-.14.18-.27.36-.4.55l-.14.24.32-.24,1.28-.93,1.12-.27-2.76,1.48c-.16.27-.32.58-.48.87s0,.64-.06,1l0,.44c.29,0,.75-.19.51,0-.07.05-.13-.06-.18-.06h.13C176.77,196,177,196.22,177.14,195.9ZM130.6,142.58c.16.11.06.13,0,0Zm6.92-3.77.31-.06A1.28,1.28,0,0,1,137.52,138.81Zm27.36-4.09c-1.08.13-.42.11-.4,1a5,5,0,0,0,.26,1.51l-1-.4c-1-.4-.75.13-.75.13l-1.08.56a.78.78,0,0,0-.26,1.32c-.18-.18-.64-.66-1.48-1.38-1.11-.95-1.09-.19-.85.67s1.77,1,.9,1.06-1.53-.63-3.15-.47-1.53-.29-2.51-.69a4.63,4.63,0,0,1-1.65-1.25l2.26-.71s-.56-.74-2.62-.47-1.64-.16-3.15-.13-1.2-.72-1.78-1.91-1.77-1.14-3.18-1.33-2.17-.48-2.36.71,1.17.06,2,.59-.42.56-.5,1.43,3.26.67,3,1.11-.64,0-2,.48-1.11-.4-2.49.39.47.85,0,2.06-1.08,0-1.86-.93-.8-1.72-2.68-2.86-.87.24-1,2.2c-.11,1.4.69,1.49,1.14,1.43-.26.06-.66.16-1.09.31-.74.22-1.32-.31-3.05-.9s-.87,0-.82,1.54-.53.45-1.57,1.78c-.47.58-.45.9-.39,1a1.51,1.51,0,0,0-.35-.16c-1.11-.4-1.2,0-2.26.71a2.15,2.15,0,0,1-2.71-.26c-.85-.61,0-.87-.59-1.72s-1.17.47-2.83-.58-1.35-1.7-2.33-2.22,1,.51,2.09.82.08-.64-.69-1.49-.69-1.62-.74-3.56a8.37,8.37,0,0,0-.39-2.59,17.27,17.27,0,0,1-.16-2.26c-.13-1.08.77.53,2.18.59s-.13-.75-.69-1.72-1.22-.85-2.42-1.46-.77-.74-.69-1.49-.79-1.17-1.35-1.59,1.3.4,2,.5.9.95,1.57,1.91.79.85,2.31,1.35,1.64.29,2.15-.71,0,0,1.19,0,.85-.22,1.48-1.45-.26-1.85-1.14-2.36a19.33,19.33,0,0,0-2.2-1l.75-.34-1.65-1.36s3.16,1.12,4.14,1a10.26,10.26,0,0,1,2.6-.29c1,.08,1.11.5,1.75.71a6.53,6.53,0,0,0,2.26-.16s.66.31.35,1.3,0,0,.14,1.19,0,0,.58,1.4,1.32,1.06,3.73,1.75,1.09.29,2.38-.39,2,.71,3.63,1.75.79,1.06,1.35,2.14,1.08.08,2.83.58,0,0,.51-1.2.72-1.11,1.8-1.46.19-.64.29-1.53.43-.13,1.3-.26.42-.66.72-1.32.66.19,1.64.39,1.28-.26,2.38-.39.88.42.24.75-.31.88.35,1,2.07.71,1.65.82-.64-.1-1.06.67.45.64.26,1.62-.84.67-.18,1.3,1.2.72,1,1.7-.63,1-.63,1l1.2.63c1.22.61,1.4-.48,3.89-.87S166,134.58,164.89,134.71Zm14.28,20a11.24,11.24,0,0,1,1.11-3.28c.92-1.86,3-4.72,3.6-7.32.8-3.36,1-9.23,1.3-6.29.19,1.78-.32,5.48,1.09,4.29a9.53,9.53,0,0,0,2.06-2c2.14-2.44,5.3-8.37,6.65-10.79.59-1.08.42,2.92.13,4.88s-2,5.36-4.35,7.92-3.5,2.47-5.41,4.16a16.88,16.88,0,0,0-5.22,6.62S179,155.48,179.16,154.67Z"/><path class="cls-1" d="M65.36,128.5a4.1,4.1,0,0,0,.21-.47,2.71,2.71,0,0,1,.27-.47c.19-.31.43-.56.64-.84l.16-.19.16-.19.1-.11.08-.1.19-.21a1.21,1.21,0,0,1,.53-.24,3,3,0,0,1,.53-.08c.35,0,.71,0,1.06,0h.43s0-.28,0-.29a2.55,2.55,0,0,1,0-.27h0l-.26.21c-.18,0-.35.08-.53,0a14.73,14.73,0,0,0-2.06,0c-.18,0-.35,0-.53,0a1.82,1.82,0,0,1-.56-.1.91.91,0,0,1-.29-.17.49.49,0,0,1-.11-.14l-.06-.11c-.08-.14-.16-.3-.24-.46a7.58,7.58,0,0,1-.4-1l-.14-.5a2.7,2.7,0,0,0-.18-.43,3.07,3.07,0,0,0-.61-.77,8.11,8.11,0,0,1-.72-.75c-.13-.14-.21-.29-.32-.43a3.43,3.43,0,0,1-.27-.48.94.94,0,0,1-.06-.29.55.55,0,0,1,.08-.29,1.12,1.12,0,0,1,.4-.34,1.59,1.59,0,0,1,.37-.21c1.12-.51,1.22-.9,3-2.73a14,14,0,0,1,5.33-3.48s0,0,0,0,.06-.22.1-.24A5.13,5.13,0,0,1,73,112h.13l-.1.29-.07.2v0l0,0,.09,0-.05,0-.08.08-.15.14-.15.14-.07.06,0,0,0,0a3.91,3.91,0,0,0-.22,1,2.92,2.92,0,0,0,0,.53c0,.16,0,.35.06.53a.23.23,0,0,0,0,.1c.06.08.13.18.19.24a1.94,1.94,0,0,0,.56.39c.21.11.43.19.66.29a9.45,9.45,0,0,1,1.36.63,2.38,2.38,0,0,1,.61.53,1.09,1.09,0,0,1,.19.39l0,.21c0,.06,0,.13,0,.19a8.08,8.08,0,0,1,0,1.53c-.08,1-.26,2-.39,3s-.32,1.94-.39,2.9c0,.24,0,.48,0,.7a2,2,0,0,0,.08.64,3.06,3.06,0,0,0,.13.31l.14.31c.1.22.19.39.29.6.19.43.43.48.72.84s.64.11,1,.11h.14c.06,0,.11.45.16.43s.22.3.32.25a2.83,2.83,0,0,0,.61-.23,5.47,5.47,0,0,0,1.06-.87q.48-.53.92-1.11c.29-.39.56-.78.82-1.2a12.08,12.08,0,0,1,.84-1.25l.48-.58.26-.27a1.75,1.75,0,0,0,.21-.27,3.07,3.07,0,0,0,.45-1.3,12.19,12.19,0,0,1,.22-1.48,4,4,0,0,1,.24-.74,4.46,4.46,0,0,1,.35-.67c.13-.21.29-.42.43-.61a3.41,3.41,0,0,0,.39-.59,1.31,1.31,0,0,0,.13-.66,2.74,2.74,0,0,0-.13-.69,2.89,2.89,0,0,0-.63-1.25,5.11,5.11,0,0,0-1.17-.82,2,2,0,0,0-.64-.24.71.71,0,0,0-.32,0c-.11,0-.21.08-.34.13a.72.72,0,0,1-.42.06.91.91,0,0,1-.37-.19c-.21-.14-.39-.31-.58-.47a3.46,3.46,0,0,0-1.29-.63l-.27,0c-.87.08-1.85.48-2.5.16l-.09,0v0l0,0c-.72-.53-1.92-1.57-1.92-1.57a4.5,4.5,0,0,1,3.13-.08s1.95.39.73-.67a6.6,6.6,0,0,0-1.48-.82l-1.22-.08c-.39,0-.77,0-1.14,0l-1.17,0c-.79,0-1.56,0-2.33.1-.39,0-.77.06-1.14.11l-.16,0-.16.14a4.78,4.78,0,0,0-.53.71,9.35,9.35,0,0,1-1.09,1.43,7.8,7.8,0,0,1-.66.61c-.22.19-.43.4-.64.61A11.63,11.63,0,0,0,66,115.7c-.35.48-.67,1-1,1.48a1.62,1.62,0,0,1-.75.55,2.53,2.53,0,0,1-.92.13,16.58,16.58,0,0,0-1.78,0l-.43.06-.45,0c-.31,0-.59,0-.9,0-.69,0-1.35,0-2-.11l-.53,0-.27,0-.29,0a4.86,4.86,0,0,1-.67,0l.16.16a.91.91,0,0,1,.18.32,1.77,1.77,0,0,1,0,.71,5.06,5.06,0,0,1-.14.67.08.08,0,1,1-.14,0l0-.06-.79-1.8c-.24,0-.48,0-.71-.06a1.39,1.39,0,0,1,.16.26,2.18,2.18,0,0,1,.34,1.06,1.75,1.75,0,0,1,0,.29s0,.1,0,.14l0,.14a1.19,1.19,0,0,1-.27.53,2.48,2.48,0,0,1-.43.32.83.83,0,0,0-.3.4.84.84,0,0,1,.26-.48,2.47,2.47,0,0,0,.46-.37c.08-.14.27-.29.27-.45v-.13s-.17-.08-.17-.11-.16-.14-.17-.22-.13-.31-.18-.47l-.14-.48-.13-.47c-.26,0-.52,0-.77,0,.32.72.66,1.35.5,1.78a.6.6,0,0,0-.06.21,2.69,2.69,0,0,0-.47.47c-.74.84-.23,1.85-1.49,1.12-.55-.31-.75-.24-.72-.79s-.18-.59-.35-.92a.25.25,0,0,0-.43,0c-.35.39-.64.95.21,2s1.48-.19,1.54.72-.1,1,0,1.51a1.44,1.44,0,0,1,0,.74,2.11,2.11,0,0,0,.53,1.2L51.55,125c.11.19.21.4.32.61s.18.35.27.51.19.32.31.48l.34.46.32.48a3.25,3.25,0,0,0,.37.43c.14.13.27.25.43.38a5.23,5.23,0,0,0,2.07,1,8.63,8.63,0,0,0,1.16.17,3.65,3.65,0,0,1,.58.08c.09,0,.19-.26.27-.21s.06-.35.1-.35H59a6.9,6.9,0,0,1,1,0,1,1,0,0,0,.22,0h.21c.14,0,.29.46.45.46s.36.39.51.47.27.22.42.3l.06.08,0,.06a.4.4,0,0,1-.06.17l-.08.13-.1.12-.1.08a.88.88,0,0,0-.14.18,1,1,0,0,1-.13.15.41.41,0,0,1-.18.11.78.78,0,0,1-.31.09l-.07.06a3.38,3.38,0,0,0,.67-.13c.39-.08.69-.72,1.06-.85.19-.07.39-.47.59-.47h.27c.51,0,1-.5,1.48-1C65,128.81,65.18,128.78,65.36,128.5Zm10.13-13.59a1.05,1.05,0,0,0,.26.18.35.35,0,0,0,.26,0c.1,0,.19-.1.32-.14a1.4,1.4,0,0,1,.35-.08,2.57,2.57,0,0,1,.71,0,2.72,2.72,0,0,1,.67.21.58.58,0,0,1,.16.11.39.39,0,0,1,.13.21,1.05,1.05,0,0,1,0,.37,0,0,0,0,0,0,0l.1.06a1.67,1.67,0,0,0,.3.08c.43.08.88.1,1.34.18l.35.08a.92.92,0,0,1,.43.24.82.82,0,0,1,.15.4v.35a5.66,5.66,0,0,0,.07,1.3,2.34,2.34,0,0,0,.2.59.91.91,0,0,0,.38.4,1.66,1.66,0,0,0,.6.11,1.24,1.24,0,0,1,.38.08.55.55,0,0,1,.32.34,1.75,1.75,0,0,1,0,.75l-.08.67c0,.22,0,.45-.08.67a2.27,2.27,0,0,1-.21.69,5.59,5.59,0,0,1-.37.61l-.19.29a1.24,1.24,0,0,1-.29.29,1.4,1.4,0,0,1-.74.21c-.24,0-.47,0-.69,0a1.68,1.68,0,0,0-1.17.22,1.19,1.19,0,0,0-.37.47,1.51,1.51,0,0,0-.18.58,2.42,2.42,0,0,0,.32,1.2,3.53,3.53,0,0,1,.27.66.79.79,0,0,1,0,.43.68.68,0,0,1-.27.35l-.31.18-.29.18-.1,0a.15.15,0,0,1-.1,0l-.13,0a.22.22,0,0,1-.13-.1.28.28,0,0,1-.06-.08l-.21-.26-.22-.24-.11-.11-.13-.13a1.7,1.7,0,0,1-.35-.67,1.91,1.91,0,0,1,0-.74c0-.24.08-.47.13-.67a4.47,4.47,0,0,0,.13-1.3,15.54,15.54,0,0,1,.11-2.73,5.11,5.11,0,0,1,.37-1.35,3.37,3.37,0,0,1,.34-.63l.1-.14.08-.13a1.22,1.22,0,0,0,.1-.29,2.07,2.07,0,0,0-.24-1.22,4.11,4.11,0,0,0-.75-1.06,4.57,4.57,0,0,0-1-.79c-.19-.1-.4-.18-.61-.26s-.42-.16-.63-.26a4.45,4.45,0,0,1-1.2-.67,1.49,1.49,0,0,1-.42-.58,2.12,2.12,0,0,1-.14-.69l0-.16.14.1C74,113.89,74.77,114.37,75.49,114.91ZM53.22,126.39a2.76,2.76,0,0,1-.55-.5C53.12,126.27,53.46,126.55,53.22,126.39Z"/><path class="cls-1" d="M222.12,189.25c0,.06.06.11.1.16l0,.16c0,.13.08.24.13.37,0-.31-.08-.59-.13-.88l-.14-.79a6.71,6.71,0,0,1-.11-.82,2,2,0,0,1,0-.43.9.9,0,0,1,.16-.43.84.84,0,0,1,.16-.18l.18-.13.35-.21a3.89,3.89,0,0,0,.67-.39c.21-.16.4-.34.61-.51a4.73,4.73,0,0,1-.5.66,2.73,2.73,0,0,1-.66.5,2.3,2.3,0,0,0-.32.22l-.14.11-.11.11a1.3,1.3,0,0,0-.13.67c0,.51.13,1.06.16,1.59a4.06,4.06,0,0,1,0,1.25,4.3,4.3,0,0,1,.11.43,5.53,5.53,0,0,1,.51-.32,3.51,3.51,0,0,1,.79-.43l.14-.08c-.08-.48-.39-2-.55-2.62s.32-.42.87-1a9.34,9.34,0,0,0,1.09-1.57l-.14.82c-.14.82-1,1-1.25,1.65s.79,2.34.79,2.34l0,0,.34-.13a1.37,1.37,0,0,1,.5-.34c.4-.16.55-.56.95-1a15.5,15.5,0,0,1,1.59-1.35,1.18,1.18,0,0,1,.42-.16c.1-.19.17-.4.25-.59l.24-.58.14-.27a1.54,1.54,0,0,1,.17-.27,4.35,4.35,0,0,1,.37-.53.64.64,0,0,1,.18-.13s0,0,0,0v-.1a5.2,5.2,0,0,0-.13-.61,1.85,1.85,0,0,0,0-.32l-.1-.31a5,5,0,0,0-.33-.8l-.17-.22a2.88,2.88,0,0,1-2-2.22,32.79,32.79,0,0,0-4.32-9.47c-2.28-3.23-.69-3.63-3.07-5.12-5.46-3.44-3.65-2.34-3.65-2.34l2.15.93a13.56,13.56,0,0,0,3.59.88,1.61,1.61,0,0,1,1.09.74l0-.13,0-.35c-.13,0,0,0,0,0v0l0-.16,0-.08h0s0,0-.05,0l.05,0v-.07c0-.35-.29-.69-.42-1a2.43,2.43,0,0,0-.32-.48.19.19,0,0,0-.09,0l-.12,0-.31-.08a18.75,18.75,0,0,1-2.44-.77l-1.19-.45L216.9,161c-.8-.29-1.59-.59-2.38-.92l-1.17-.48-1.19-.51a13.51,13.51,0,0,1-2.34-1.3,8.19,8.19,0,0,1-1.08-.9,9.55,9.55,0,0,1-.92-1.08c-.27-.35-.5-.71-.74-1a6,6,0,0,0-.72-.82,16.15,16.15,0,0,1-1.73-2.09c-.51-.72-1-1.46-1.41-2.2s-.84-1.51-1.24-2.26l-.58-1.16a7.14,7.14,0,0,1-.48-1.43,22.55,22.55,0,0,1-.37-2.63c-.08-.87-.11-1.72-.14-2.57l0-1.27,0-.63c0-.21,0-.42,0-.59a4.38,4.38,0,0,0-.1-.55c0-.19-.1-.39-.14-.59-.11-.4-.22-.79-.35-1.19-.24-.8-.51-1.61-.79-2.39s-.55-1.59-.84-2.38q-.29-.82-.63-1.64c0,.21,0,.42.08.61s.08.64.1,1,0,.64,0,1c0,.64,0,1.28,0,1.93,0,1.14-.1,2.26-.21,3.4,0,1.69.11,5,.21,8.48.13,5-2.44,6.46,1.35,10.26s5,5.4,6.79,6.87l3.36,2.86.14.06c1,.5,1.93,1,2.89,1.51l1.45.75.72.39.35.19a2.83,2.83,0,0,1,.37.22,10.47,10.47,0,0,1,1.3,1c.42.37.8.75,1.19,1.14.77.79,1.49,1.59,2.2,2.44.35.42.69.85,1,1.28l.46.67c.16.24.29.48.42.71.53.95,1.06,1.91,1.54,2.89.24.48.47,1,.68,1.49.1.26.19.51.27.77a3.3,3.3,0,0,1,.14.84c0,.55-.1,1.09-.15,1.64a4.94,4.94,0,0,1-.18.83c0,.23,0,.47-.07.7l0,0s.08,0,.08.05v.08l-2,1.59a1.8,1.8,0,0,0-.39,1.16,11.74,11.74,0,0,0,.05,1.3,2.36,2.36,0,0,1,0,.34.06.06,0,0,0,0,0l0,0s.15,0,.18.08.1.06.1.1v.13h-.08s0,0,0,0,0,0,.06,0,0,0,0,.06h0S222.09,189.21,222.12,189.25Z"/><path class="cls-1" d="M66.83,119.67a2.18,2.18,0,0,0-.34-.59.69.69,0,0,0-.14-.16,2.59,2.59,0,0,0-.53-.26l0,0-.19.32c0,.06-.08.13-.11.19a.75.75,0,0,0-.06.2l-.06.31a1.27,1.27,0,0,0,.29.76,1.07,1.07,0,0,0,.82.35s.07-.11.1-.12a.67.67,0,0,0,0-.18,1,1,0,0,1-.85-.52.88.88,0,0,1,.14-.87s.24,0,.56.32a1.13,1.13,0,0,1,.22,1.06h0l0,.15c.08,0,.16.13.24.1l.21-.1c0-.11,0-.22-.08-.35S66.9,119.87,66.83,119.67Z"/><path class="cls-1" d="M65.79,118.65l0,0,0,0Z"/><path class="cls-1" d="M66.48,118.32l.14,0,.43.14a.89.89,0,0,0,.75-.26l.13-.16.16-.16a2.13,2.13,0,0,1,.79-.34l.26,0a6.68,6.68,0,0,0-1.49-.19,2.29,2.29,0,0,0-1.4.43l0,0-.16.31a1.38,1.38,0,0,1,.32.21Z"/><path class="cls-1" d="M183.22,195.67a15.55,15.55,0,0,0,2.54-1,7.33,7.33,0,0,1-.88.39Z"/><path class="cls-1" d="M249,187.59a.4.4,0,0,0-.16,0v.48H249c.19,0,.35-.06.35-.24S249.26,187.59,249,187.59Z"/><path class="cls-1" d="M248.93,187a1.07,1.07,0,0,0-1.08,1.09c0,.61.48.68,1.08.65.3,0,.52.27.67-.73h-.18c-.05,0-.08.21-.1.09s0,.06,0,.05-.16-.14-.3-.14h0v-.55s.08,0,.22,0a.47.47,0,0,1,.35.11.34.34,0,0,1,.08.31.42.42,0,0,1-.31.37c.13,0,.2.14.23.35s.12.19.16.28a1.35,1.35,0,0,0,.27-.68V188h0C249.92,187,249.53,187,248.93,187Z"/><path class="cls-1" d="M224.7,189.68l-.18.14a1,1,0,0,0,.55-.29l-.34.13Z"/><path class="cls-1" d="M101.65,147.62a7.14,7.14,0,0,0,.43,1,10.13,10.13,0,0,0,.63.9l.16.19c.48,0,.95,0,1.32-.08l-.32-.34c-.29-.32-.56-.66-.84-1a6.77,6.77,0,0,1-.39-.58c-.06-.1-.13-.21-.19-.32a.59.59,0,0,1-.08-.18l-.1-.19a5.29,5.29,0,0,1-.37-1.35l-.84-.34a.06.06,0,0,1,0,0A16.66,16.66,0,0,0,101.65,147.62Z"/><path class="cls-1" d="M222.63,190.77a0,0,0,0,0,0,0l.19-.16-.21.13Z"/><path class="cls-1" d="M286.64,124.18c-7.42-8-18.07-15.21-31.63-21.41s-29.48-11.1-47.16-14.52A306.45,306.45,0,0,0,150,82.92a306.45,306.45,0,0,0-57.84,5.33C74.48,91.68,58.61,96.56,45,102.77s-24.22,13.39-31.63,21.41C5.76,132.37,1.91,141.07,1.91,150s3.85,17.63,11.45,25.82c7.42,8,18.07,15.21,31.63,21.41s29.48,11.1,47.16,14.52A306.33,306.33,0,0,0,150,217.08a306.33,306.33,0,0,0,57.84-5.33c17.68-3.4,33.55-8.3,47.16-14.52s24.22-13.39,31.63-21.41c7.6-8.21,11.45-16.89,11.45-25.82S294.24,132.37,286.64,124.18Zm-64.07,66.69v0h0Zm17-2c-4.87.29-4.83,2.39-16.93,2l0,0,0,0,0,0-.06,0,0-.08a7,7,0,0,0-.37-1.25l-.06-.14s0-.28,0-.3-.07-.09-.11-.09H222v.26h-.16s-.11-.07-.11-.11,0,0,0-.06l0,0a.38.38,0,0,1-.1-.08.3.3,0,0,1,0-.11c0-.11,0-.21,0-.32a12,12,0,0,1-.06-1.32,3,3,0,0,1,.1-.66,1.35,1.35,0,0,1,.34-.61l2-1.56a3.27,3.27,0,0,1,.13-.74c0-.29.07-.57.09-.88,0-.55.08-1.08.06-1.62a3.41,3.41,0,0,0-.18-.75c-.08-.26-.19-.5-.29-.75-.21-.5-.45-1-.71-1.46-.5-1-1-1.91-1.57-2.84-.14-.24-.27-.47-.42-.69s-.31-.43-.47-.66c-.32-.43-.67-.85-1-1.25-.71-.82-1.45-1.61-2.2-2.38a15.19,15.19,0,0,0-1.19-1.09,10,10,0,0,0-1.25-1l-.34-.19-.37-.18-.72-.37-1.46-.74L209,165.37c-1-.48-1.94-.95-2.94-1.38a5.87,5.87,0,0,0-.74-.29c-.26-.08-.51-.18-.77-.27l-1.53-.58c-1-.39-2-.79-3-1.22L198.5,161a14,14,0,0,1-1.45-.82c-1.85-1.17-3.61-2.47-5.4-3.66-.22-.14-.45-.31-.67-.43l-.34-.19-.37-.21a8.62,8.62,0,0,1-1.33-1c-.42-.37-.8-.75-1.19-1.12-.22-.21-.43-.42-.66-.61-.31.48-.59,1-.87,1.51a7.13,7.13,0,0,0-.69,1.72,2.7,2.7,0,0,0,0,.88,9.13,9.13,0,0,0,.16.92,18.11,18.11,0,0,0,.55,1.81,31.83,31.83,0,0,0,1.49,3.5,26.88,26.88,0,0,0,4.14,6.33,28.2,28.2,0,0,0,2.67,2.7l.74.61a3.66,3.66,0,0,1,.35.35,1.21,1.21,0,0,1,.29.48,3.19,3.19,0,0,1,.08.5,4.3,4.3,0,0,0,.11.43l0,.11,0,.13,0,.27a2,2,0,0,1,0,.53,5.93,5.93,0,0,1-.74,1.83,17.73,17.73,0,0,1-1.08,1.62l-.29.39-.29.37c-.19.26-.37.51-.55.77-.35.53-.69,1.08-1,1.61-.66,1.09-1.3,2.2-2,3.28l-2,3.24c-.34.55-.67,1.08-1,1.64a8.23,8.23,0,0,0-.43.84,2.75,2.75,0,0,0-.16.42,1.89,1.89,0,0,0,0,.43,3.63,3.63,0,0,0,.1.92,2.48,2.48,0,0,1,.06.5,1.1,1.1,0,0,1,0,.39c.51-.72-.16-.35,1.54-.45s11.35-.31,12.36.66-8.74,1.38-12.46,2a45.11,45.11,0,0,1-10.34.62c-.16.35-.26.73-.37.49a1.41,1.41,0,0,1-.13-.51l-.93-.24a4,4,0,0,1,.08-.43h-.11c-.18,0-.29.94-.41.73s0-.25,0-.47c0,0,.07.08.07.07v-.13s0-.08,0-.11a1,1,0,0,0,0-.24v-1.49l0,0a11.56,11.56,0,0,1,.74-1.2c.13-.19.25-.39.4-.56a3.07,3.07,0,0,1,.52-.5,1.56,1.56,0,0,1,.33-.16l.33-.11c.22-.06.45-.13.67-.18l1.3-.29,1.77-1.94,3.89-8.93,0-2.51v-.29l0,0,0-.08-.87-1.32-.44-.67-.23-.34-.12-.16a1,1,0,0,1-.1-.18l-1.57-2.78,0,0c-.84-.95-1.73-1.86-2.63-2.76s-1.83-1.78-2.76-2.65c-1.88-1.73-3.81-3.39-5.78-5a15.5,15.5,0,0,1-2.6-2.83,14,14,0,0,1-1.73-3.42,14.42,14.42,0,0,1-.74-3.77,12.85,12.85,0,0,1,0-1.93,13.42,13.42,0,0,1,.19-1.59c-1.41.18-2.83.35-4.22.63-.71.13-1.43.26-2.14.43l-2.14.51-4.27,1-1.06.26-.27.06-.24.06-.48.14a11.59,11.59,0,0,0-1.88.87c-1.24.71-2.52,1.48-3.84,2.15s-2.68,1.28-4,1.83a24.74,24.74,0,0,1-4.27,1.3,11.6,11.6,0,0,1-2.25.22,5.89,5.89,0,0,1-1.06-.08l-.53,0-.11.08-1.67,1.88,0,0,0,0-3.47,2.89,0,0,0,0c-1.73,1.19-3.5,2.34-5.25,3.53l0,0,0,0L119,168.13l-2.78,2.41.47,1.28,1.75.95,1.89,1.06.1,0,.06.08.82,1.17,0,0,1.41,1.75.06.08,0,.1.34,1.88.08.47.08.48.13.8a7.46,7.46,0,0,1,.9.85,2.52,2.52,0,0,1,.45.64.73.73,0,0,1,.08.22c.72.26,1.46.16-.32.82l-.1,0a2,2,0,0,1-.59.29c-.22.08-.45.14-.67.21a13.28,13.28,0,0,1-1.35.26l-.11,0-.1-.06L118,181.57l-.06,0,0,0-1.59-3.34-2.06-1.46-1.85-1.32c-.29.69-.55,1.38-.8,2.07s-.51,1.46-.72,2.22l-.31,1.12a9.51,9.51,0,0,1-.39,1.14,2.19,2.19,0,0,1-.84,1l-.08,0-.06,0-.14.06-.26.11a4.42,4.42,0,0,0-.47.27,4.48,4.48,0,0,0-.77.79l-.72.92L105.37,187c-.5.61-1,1.22-1.48,1.81a4.05,4.05,0,0,0-.59.92,3.82,3.82,0,0,0-.31.91c1.24,0,5.62-.08,7.15-.16,13-.66,6.36.72.39,2.1a42.67,42.67,0,0,1-12.77.38l-1.11-.07c-.61,0-1.22-.13-1.83-.23-.27.22-.53.36-.59.1s0-.77.08-.77h0a2.93,2.93,0,0,1-1.19,0s-.11.15-.16.11c-.22.39-.42.92-.48.52a2,2,0,0,1,.1-.89.18.18,0,0,1,0-.1.45.45,0,0,1,0-.15s0-.06,0-.09a.77.77,0,0,1,.06-.17c0-.11.1-.21.14-.3a9.22,9.22,0,0,1,.67-1,10.55,10.55,0,0,1,.77-.92c.27-.29.55-.58.84-.87a9.31,9.31,0,0,1,.93-.8,1.51,1.51,0,0,1,.32-.18,1.33,1.33,0,0,1,.34-.1,4.61,4.61,0,0,1,.63-.06c.4,0,.79,0,1.16,0a1.78,1.78,0,0,0,.93-.29,4.57,4.57,0,0,0,.35-.39l.35-.45c.47-.61.92-1.25,1.36-1.89s.9-1.28,1.38-1.91a4.45,4.45,0,0,0,.59-.92,4,4,0,0,0,.27-1c.06-.39.13-.79.21-1.17a8.76,8.76,0,0,1,.34-1.16c.26-.75.55-1.48.82-2.22.13-.37.26-.72.35-1.09l.08-.27c0-.08,0-.18.06-.27s0-.08,0-.11a.26.26,0,0,1,0-.22c.19-.77,1.06-3.42,1.67-5.27s1.62-5.88,2.41-8.69c.5-1.78.56-2.67.19-3.31l-.37-.21-1-.56a10.8,10.8,0,0,1-1-.64,26.68,26.68,0,0,1-3.63-3.08c-.56-.56-1.09-1.14-1.61-1.77a6.67,6.67,0,0,1-.71-1,7.07,7.07,0,0,1-.48-1.16c-.24-.77-.43-1.53-.64-2.26-.08-.27-.16-.55-.26-.82a1,1,0,0,1-.14-.24c0-.16-.11-.37-.18-.63s-.13-.29-.21-.43a4.16,4.16,0,0,0-.59-.9,9.08,9.08,0,0,0-.79-.79,19.41,19.41,0,0,0-1.81-1.4,43.31,43.31,0,0,0-4-2.39c-1.4-.74-2.75-1.53-4.11-2.28s-2.73-1.53-4.11-2.22c-.34-.16-.67-.34-1-.47s-.72-.24-1.09-.35c-.74-.22-1.49-.42-2.25-.63-.39-.1-.75-.21-1.14-.32a5.74,5.74,0,0,1-.56-.18l-.55-.18a5.26,5.26,0,0,0-2.18,0,11.74,11.74,0,0,1-2.39.21c-.21,0-.4,0-.59,0l-.58,0-1.17,0c-.39,0-.8,0-1.2-.07s-.8-.13-1.19-.21l-.58-.17c-.19,0-.37-.15-.55-.19-.36-.08-.74-.47-1.11-.49-.74,0-1.49-.32-2.3-.32h-.47s0,.26-.06.28l-.08.08c-.16,0-.32.32-.48.37s-.34.39-.5.48a2.15,2.15,0,0,1-.61.27,2.38,2.38,0,0,1-.67,0,4.39,4.39,0,0,1-.63-.14,2.31,2.31,0,0,1-.35-.14l0,0a3.86,3.86,0,0,1-.53-.24l-.26-.14-.06,0-.06,0-.11-.08c-.27-.24-.53-.5-.8-.74l-.08-.06a.48.48,0,0,0-.16-.06,4.66,4.66,0,0,0-.55-.11,9.91,9.91,0,0,1-1.17-.19,6,6,0,0,1-1.14-.39,6.05,6.05,0,0,1-1-.63c-.16-.11-.32-.24-.48-.37s-.32-.26-.48-.37a3.62,3.62,0,0,1-.48-.39,2.82,2.82,0,0,1-.39-.48,5.67,5.67,0,0,1-.34-.51c-.11-.19-.19-.35-.29-.53-.37-.69-.75-1.38-1.11-2.09-.18-.35-.35-.71-.51-1.08a11.76,11.76,0,0,1-.47-1.12,4.84,4.84,0,0,1,.22-3.77,1.28,1.28,0,0,1,.21-.34,1,1,0,0,1,.37-.32.84.84,0,0,1,.5-.11,1.41,1.41,0,0,1,.39,0l.56.11a2.43,2.43,0,0,0,.48,0,1.49,1.49,0,0,0,.47-.08l.14,0,.16,0,.32-.06a10.44,10.44,0,0,1,2.46,0,5.65,5.65,0,0,0,1,0l.29,0,.31,0,.61,0c.8,0,1.57-.08,2.33-.14.37,0,.75-.08,1.09-.14a1.77,1.77,0,0,0,.39-.13,1.2,1.2,0,0,0,.27-.29,5.22,5.22,0,0,0,.51-.95c.18-.35.34-.72.56-1.09a3.17,3.17,0,0,1,.42-.56l.14-.13a.84.84,0,0,1,.18-.13l.26-.16,1-.63c.66-.42,1.33-.84,2-1.24a23.76,23.76,0,0,1,2.1-1.16l.29-.13.16-.06.19-.06.34-.08.31-.05c.4,0,.8-.1,1.2-.12q1.18-.1,2.36-.12l1.17,0c.42,0,.82,0,1.22,0,.8,0,1.59-.18,2.36-.13.39,0,.77-.29,1.14-.29h.63c.33,0,.64.5.88.71a3.54,3.54,0,0,1,.47.87,5.37,5.37,0,0,0,.26.49,1.28,1.28,0,0,0,.67.48,9.25,9.25,0,0,0,1.06.32c.37.1.74.18,1.12.26.75.16,1.53.31,2.28.44l2.31.4,2.31.4,1.14.21,1.16.18,2.33.39q2.31.39,4.62.82l2.31.43,1.16.24,1.14.24a17.73,17.73,0,0,0,4.51.35c.75,0,1.53-.11,2.3-.19.4,0,.75-.08,1.12-.14s.74-.14,1.09-.24c.74-.19,1.48-.43,2.25-.63a8.88,8.88,0,0,1,2.49-.37,6.93,6.93,0,0,1,2.47.63c.75.32,1.45.69,2.14,1a3.93,3.93,0,0,0,.5.19,1.05,1.05,0,0,0,.24.06l.26.06c.35.08.72.11,1.11.16.77.08,1.56.16,2.34.26,1.56.21,3.12.47,4.66.74a33.69,33.69,0,0,0,4.59.43,82.12,82.12,0,0,0,9.31-.27l2.33-.19c.77-.06,1.53-.16,2.31-.27,1.54-.21,3.08-.43,4.64-.67,3.08-.47,6.18-.93,9.28-1.36,1.56-.21,3.1-.42,4.67-.58a38.93,38.93,0,0,1,4.74-.16q2.36,0,4.72.29c.79.08,1.57.18,2.34.29a21.12,21.12,0,0,1,2.36.47c.79.22,1.51.5,2.25.77l2.2.84c1.43.56,2.83,1.12,4.24,1.7,1.25-.18,2.47-.34,3.73-.48a16.17,16.17,0,0,1,2-.06c.64,0,1.28,0,1.93,0,1.28,0,2.55.08,3.82.08.64,0,1.25,0,1.89-.06s1.28-.08,1.93-.11c2.57-.11,5.14-.14,7.69-.16l3.84,0c1.27,0,2.55-.08,3.82-.16,2.55-.18,5.11-.4,7.64-.69,1.27-.16,2.52-.37,3.79-.58s2.52-.43,3.79-.67l.95-.18c.32,0,.63-.13.95-.18a5.83,5.83,0,0,1,2,.06,2.26,2.26,0,0,1,.95.42.54.54,0,0,1,.19.26.44.44,0,0,1,0,.21.37.37,0,0,1-.1.19.66.66,0,0,1-.27.18l-.22.08-1.81.64a33.52,33.52,0,0,1-3.71,1c-.63.13-1.25.24-1.88.39l-1.88.39-3.77.75c-1.25.24-2.51.5-3.79.64s-2.55.21-3.84.29-2.55.16-3.84.22-2.55.13-3.84.18l-1.93.06c-.64,0-1.28,0-1.91.06-2.55.14-5.11.4-7.64.72-1.27.16-2.54.34-3.81.55-.31,0-.63.11-.93.19a3.14,3.14,0,0,0-.87.34,1.12,1.12,0,0,0-.32.29.86.86,0,0,0-.14.4,6.62,6.62,0,0,1-.19.95,3.49,3.49,0,0,0-.11.92,9.39,9.39,0,0,0,.06.95c0,.29.08.58.13.88.34.61.64,1.24.93,1.85.35.77.71,1.54,1,2.33s.64,1.57.93,2.36c.14.4.29.8.42,1.2a9.5,9.5,0,0,1,.34,1.25c.11.85.16,1.7.24,2.54s.16,1.67.27,2.51a20.73,20.73,0,0,0,.47,2.46,6.41,6.41,0,0,0,.42,1.14l.61,1.11a46.42,46.42,0,0,0,2.63,4.29,15.08,15.08,0,0,0,1.57,1.91,8.2,8.2,0,0,1,.84,1c.26.35.48.72.71,1.06a7.16,7.16,0,0,0,1.62,1.78,13,13,0,0,0,2.07,1.33c.72.39,1.49.77,2.25,1.14s1.53.71,2.25,1.14l1.11.61a9.29,9.29,0,0,0,1.16.5,18,18,0,0,0,2.41.71l.31.07a.87.87,0,0,1,.21.05.61.61,0,0,1,.19.14,2.64,2.64,0,0,1,.4.6,9.56,9.56,0,0,1,.57,1.24s.64,0,.64,0v.27l-.36,0-.12.29.35,1.22c.22.82.45,1.62.7,2.42.06.19.11.4.17.59s.14.39.22.58c.16.39.32.77.5,1.16.34.77.67,1.56,1,2.36a7.5,7.5,0,0,1,.35,1.28,5.06,5.06,0,0,0,.32,1.14c.29.77.69,1.53,1,2.34.06.21.14.42.19.63l0,.18c.22.55.43,1,.56,1.4l0,.13a18,18,0,0,1,1.11,2.31c.08.21.14.42.21.61s.14.39.21.61a.69.69,0,0,1,0,.19.63.63,0,0,1,0,.24,1.28,1.28,0,0,1-.18.34c-.13.18-.24.34-.35.51a11,11,0,0,1-.72,1l-.24.31a39.25,39.25,0,0,1,8,.16c-.48,0,5.54.37,7.66.45C249.55,187.34,241.84,188.75,239.52,188.88Zm11.48-.7-.31-.22c0,.7-.89,1-1.59,1h0l.09.22a1,1,0,0,1-1.17-1.08v0l-.09-.42c0-.7.49-1.68,1.19-1.68h0l.31.42a2,2,0,0,1,1.58,1.72Z"/><path class="cls-1" d="M84.37,132.75l0,0c.37.14.74.31,1.09.47.22-.42.47-.92.72-1.45a11.42,11.42,0,0,0-2.17-.35C84.18,131.87,84.29,132.3,84.37,132.75Z"/><path class="cls-1" d="M83.65,127l0,.08h0c.35.26,2,1.06,3.81,1.89l.26-.69a18.66,18.66,0,0,1-4-1.65C83.68,126.73,83.66,126.86,83.65,127Z"/><path class="cls-1" d="M191.54,146.53l-.56.77.87-1.11c-.11.11-.21.24-.32.35Z"/><path class="cls-1" d="M84.58,113.31c-.39-.08-.77-.16-1.16-.26-.14,0-.31-.05-.45-.1.18.56.32.73.18,1.13a.66.66,0,0,1,0-.08h.08c.16,0,.33.16.48.21l.21.08.19.14c.22.1.47.24.71.37a3.06,3.06,0,0,1,.72.53,3.51,3.51,0,0,1,.56.75,5.7,5.7,0,0,1,.35.79,5.16,5.16,0,0,1,.19.64,1.51,1.51,0,0,1,.08.39,2.05,2.05,0,0,1-.11.63,1,1,0,0,1-.08.34,4.36,4.36,0,0,1-.43.8c-.13.21-.21.39-.31.56s0,.36-.06.55c0,0,.26,0,.26,0v0c0,.34-.38.68-.45,1s-.28.53-.31.85a5.4,5.4,0,0,1-.22.9,3.22,3.22,0,0,1-.2.5A35.18,35.18,0,0,1,88,126c.14.11.3.21.45.31.29-.87.53-1.69.71-2.39a73.77,73.77,0,0,0,1.62-9.44c-1.28-.24-2.55-.46-3.84-.69C86.12,113.62,85.35,113.48,84.58,113.31Z"/><path class="cls-1" d="M187.42,152.38l.19.16c-.06-.1-.1-.18-.14-.24Z"/><path class="cls-2" d="M288,122.86c-7.6-8.21-18.43-15.56-32.24-21.86S226,89.8,208.2,86.36A307.42,307.42,0,0,0,150,81a307.42,307.42,0,0,0-58.2,5.36C74,89.8,58,94.73,44.21,101S19.56,114.67,12,122.86C4,131.44,0,140.56,0,150s4,18.56,12,27.14c7.6,8.21,18.43,15.56,32.24,21.86S74,210.2,91.8,213.64A307.42,307.42,0,0,0,150,219a307.42,307.42,0,0,0,58.2-5.36C226,210.2,242,205.27,255.79,199s24.65-13.67,32.24-21.86c7.93-8.58,12-17.7,12-27.14S296,131.44,288,122.86Zm-1.4,53c-7.42,8-18.07,15.21-31.63,21.41s-29.48,11.11-47.16,14.52A306.33,306.33,0,0,1,150,217.08a306.33,306.33,0,0,1-57.84-5.33c-17.68-3.42-33.55-8.3-47.16-14.52s-24.22-13.39-31.63-21.41C5.76,167.63,1.91,158.93,1.91,150s3.85-17.63,11.45-25.82c7.42-8,18.07-15.21,31.63-21.41s29.48-11.1,47.16-14.52A306.45,306.45,0,0,1,150,82.92a306.45,306.45,0,0,1,57.84,5.33c17.68,3.42,33.55,8.3,47.16,14.52s24.22,13.39,31.63,21.41c7.6,8.19,11.45,16.89,11.45,25.82S294.24,167.62,286.64,175.82Z"/><path class="cls-2" d="M63.09,130.47l.08,0,.06,0h-.14Z"/><path class="cls-2" d="M224,183.63a3.27,3.27,0,0,0-.13.74l.06,0C223.91,184.1,223.93,183.87,224,183.63Z"/><path class="cls-2" d="M221.9,189a.54.54,0,0,0-.13-.08l0,0a.07.07,0,0,1,0,0,2.37,2.37,0,0,0,0-.34,11.75,11.75,0,0,1-.07-1.3,1.78,1.78,0,0,1,.37-1.16l2-1.59v-.08s-.08,0-.08-.05l-2,1.56a1.4,1.4,0,0,0-.36.61,3,3,0,0,0-.11.66,12,12,0,0,0,.06,1.32c0,.11,0,.21,0,.32a.3.3,0,0,0,0,.11l.1.08,0,0a.12.12,0,0,0,0,.06s.12.09.15.11H222v-.13S221.92,189.06,221.9,189Z"/><polygon class="cls-2" points="185.82 177.65 185.82 177.7 185.9 177.94 185.89 177.62 185.82 177.65"/><path class="cls-2" d="M176.61,196.06c.24-.16-.22-.07-.51-.08,0-.14,0-.24,0-.39,0-.32,0-.61.06-.93s.32-.58.48-.85l2.76-1.47-1.12.28-1.28.93-.32.24.14-.24c.13-.19.26-.37.4-.55a2.93,2.93,0,0,1,.47-.43,2.19,2.19,0,0,1,.59-.24c.22-.06.43-.13.66-.18.43-.11.88-.21,1.33-.31l0,0,0-.43,1.81-2.4h0l0,.36c.4-.72.77-1.25,1.14-2s.72-1.38,1.06-2.12.69-1.44,1-2.2.93-1.5,1.21-2.27l.34-.07v0l-1-2.73,0,2.51-3.91,8.93-1.78,1.94-1.31.29c-.22,0-.45.11-.68.18l-.34.11a1.61,1.61,0,0,0-.34.16,3.14,3.14,0,0,0-.53.5c-.14.18-.29.37-.42.56a11.18,11.18,0,0,0-.7,1.2l0,0v1.49a1,1,0,0,1,0,.24s0,.08,0,.11v.13s-.07,0-.07,0c0,.22,0,.16.07.36s.18-.73.36-.73h.06S176.54,196.11,176.61,196.06Z"/><path class="cls-2" d="M118.82,179.07s-.14-.05-.12-.08-.06,0,0,0l.16.18s0-.06,0-.08Z"/><path class="cls-2" d="M244.66,187.13c-2.12-.08-8.14-.43-7.66-.45a39.25,39.25,0,0,0-8-.16l.24-.31a11,11,0,0,0,.72-1c.11-.18.22-.34.35-.51a1.28,1.28,0,0,0,.18-.34.63.63,0,0,0,0-.24.69.69,0,0,0,0-.19c-.06-.22-.14-.42-.21-.61s-.13-.4-.21-.61a18,18,0,0,0-1.11-2.31l0-.13c-.13-.35-.34-.85-.56-1.4l0-.18c0-.21-.13-.42-.19-.63-.29-.82-.69-1.57-1-2.34a5.06,5.06,0,0,1-.32-1.14,7.5,7.5,0,0,0-.35-1.28c-.29-.8-.63-1.59-1-2.36-.18-.39-.34-.77-.5-1.16-.08-.19-.16-.39-.22-.58s-.11-.4-.18-.59c-.24-.8-.48-1.61-.71-2.42l-.37-1.22.16-.29.36,0v-.27s-.59,0-.64,0a9.3,9.3,0,0,0-.52-1.24,2.73,2.73,0,0,0-.42-.6.65.65,0,0,0-.2-.14.91.91,0,0,0-.21-.05l-.31-.07a18,18,0,0,1-2.41-.71,9.3,9.3,0,0,1-1.16-.5l-1.11-.61c-.72-.43-1.49-.77-2.25-1.14s-1.53-.75-2.25-1.14a13.05,13.05,0,0,1-2.07-1.33,7.16,7.16,0,0,1-1.62-1.78c-.22-.34-.45-.71-.71-1.06a8.2,8.2,0,0,0-.84-1,15.08,15.08,0,0,1-1.57-1.91,46.42,46.42,0,0,1-2.63-4.29l-.61-1.11a6.41,6.41,0,0,1-.42-1.14,20.73,20.73,0,0,1-.47-2.46c-.11-.84-.19-1.67-.27-2.51s-.13-1.69-.24-2.54a9.5,9.5,0,0,0-.34-1.25c-.13-.4-.27-.8-.42-1.2-.29-.79-.61-1.57-.93-2.36s-.67-1.56-1-2.33c-.29-.61-.59-1.24-.93-1.85,0-.31-.1-.59-.13-.88a9.39,9.39,0,0,1-.06-.95,3.49,3.49,0,0,1,.11-.92,6.62,6.62,0,0,0,.19-.95.86.86,0,0,1,.14-.4,1.12,1.12,0,0,1,.32-.29,3.14,3.14,0,0,1,.87-.34c.31-.08.63-.14.93-.19,1.27-.21,2.54-.39,3.81-.55,2.54-.32,5.09-.58,7.64-.72.63,0,1.27,0,1.91-.06l1.93-.06c1.28,0,2.55-.11,3.84-.18s2.55-.14,3.84-.22,2.55-.14,3.84-.29,2.54-.4,3.79-.64l3.77-.75,1.88-.39c.63-.14,1.25-.26,1.88-.39a33.52,33.52,0,0,0,3.71-1l1.81-.64.22-.08a.66.66,0,0,0,.27-.18.37.37,0,0,0,.1-.19.44.44,0,0,0,0-.21.54.54,0,0,0-.19-.26,2.26,2.26,0,0,0-.95-.42,5.83,5.83,0,0,0-2-.06c-.32,0-.63.13-.95.18l-.95.18c-1.27.24-2.52.47-3.79.67s-2.52.42-3.79.58c-2.54.29-5.09.51-7.64.69-1.27.08-2.55.14-3.82.16l-3.84,0c-2.55,0-5.12,0-7.69.16-.64,0-1.28.06-1.93.11s-1.25.06-1.89.06c-1.27,0-2.54,0-3.82-.08-.64,0-1.28,0-1.93,0a16.17,16.17,0,0,0-2,.06c-1.25.14-2.47.31-3.73.48-1.41-.58-2.81-1.14-4.24-1.7l-2.2-.84c-.74-.27-1.46-.55-2.25-.77a21.12,21.12,0,0,0-2.36-.47c-.77-.11-1.56-.21-2.34-.29q-2.36-.24-4.72-.29a38.93,38.93,0,0,0-4.74.16c-1.57.16-3.12.37-4.67.58-3.1.43-6.2.9-9.28,1.36-1.56.24-3.1.47-4.64.67-.79.11-1.54.21-2.31.27l-2.33.19a82.12,82.12,0,0,1-9.31.27,33.69,33.69,0,0,1-4.59-.43c-1.54-.27-3.1-.53-4.66-.74-.79-.1-1.57-.18-2.34-.26-.39,0-.75-.08-1.11-.16l-.26-.06a1.05,1.05,0,0,1-.24-.06,3.93,3.93,0,0,1-.5-.19c-.69-.31-1.38-.67-2.14-1a6.93,6.93,0,0,0-2.47-.63A8.88,8.88,0,0,0,117,115c-.77.19-1.51.43-2.25.63-.35.1-.72.18-1.09.24s-.72.1-1.12.14c-.77.08-1.54.16-2.3.19a17.73,17.73,0,0,1-4.51-.35l-1.14-.24-1.16-.24-2.31-.43q-2.31-.43-4.62-.82l-2.33-.39L93,113.58l-1.14-.21-2.31-.4-2.31-.4c-.75-.13-1.53-.27-2.28-.43-.39-.08-.75-.16-1.12-.26a9.18,9.18,0,0,1-1.06-.31,1.23,1.23,0,0,1-.67-.45,4.43,4.43,0,0,1-.26-.43,4.36,4.36,0,0,0-.47-1c-.25-.21-.56-.71-.88-.71h-.63c-.37,0-.75.32-1.14.29-.77,0-1.56,0-2.36,0-.4,0-.8.06-1.22.07l-1.17.08c-.79,0-1.57.07-2.36.13-.4,0-.8.08-1.2.12l-.31.05-.34.08-.19.07-.16.06-.29.13a23.76,23.76,0,0,0-2.1,1.16c-.67.4-1.35.82-2,1.24l-1,.63-.26.16a.84.84,0,0,0-.18.13l-.14.13a3.17,3.17,0,0,0-.42.56c-.22.37-.39.74-.56,1.09a5.22,5.22,0,0,1-.51.95,1.2,1.2,0,0,1-.27.29,1.77,1.77,0,0,1-.39.13c-.34.06-.72.11-1.09.14-.75.06-1.53.1-2.33.14l-.61,0-.31,0-.29,0a5.65,5.65,0,0,1-1,0,10.44,10.44,0,0,0-2.46,0l-.32.06-.16,0-.14,0a1.49,1.49,0,0,1-.47.08,2.43,2.43,0,0,1-.48,0L51,117a1.41,1.41,0,0,0-.39,0,.84.84,0,0,0-.5.11,1,1,0,0,0-.37.32,1.28,1.28,0,0,0-.21.34,4.84,4.84,0,0,0-.22,3.77,11.76,11.76,0,0,0,.47,1.12c.16.37.34.72.51,1.08.35.71.74,1.4,1.11,2.09.1.18.18.34.29.53a5.67,5.67,0,0,0,.34.51,2.82,2.82,0,0,0,.39.48,3.62,3.62,0,0,0,.48.39c.16.11.32.24.48.37s.32.26.48.37a6.05,6.05,0,0,0,1,.63,6,6,0,0,0,1.14.39,9.91,9.91,0,0,0,1.17.19,4.66,4.66,0,0,1,.55.11.48.48,0,0,1,.16.06l.08.06c.27.24.53.5.8.74l.11.08.06,0,.06,0,.26.14a3.86,3.86,0,0,0,.53.24l0,0a2.32,2.32,0,0,0,.35.14,4.41,4.41,0,0,0,.63.14,2.38,2.38,0,0,0,.67,0,2.12,2.12,0,0,0,.61-.26c.16-.09.32-.4.5-.46s.32-.51.48-.55l0-.24H63c-.2,0-.41.39-.59.47-.37.13-.67.66-1.06.74a3.56,3.56,0,0,1-.67.19l.07,0a.76.76,0,0,0,.31-.08.39.39,0,0,0,.18-.1.94.94,0,0,0,.13-.15.86.86,0,0,1,.14-.18l.1-.08.1-.11.08-.13a.37.37,0,0,0,.06-.16l0,0-.06,0-.42-.24c-.16-.08-.34-.59-.51-.58s-.31-.46-.45-.46h-.21a1,1,0,0,1-.22,0,6.9,6.9,0,0,0-1,0h-.92s-.06.37-.1.35-.18.12-.27.1a3.62,3.62,0,0,0-.58,0,8.58,8.58,0,0,1-1.16-.14,5.21,5.21,0,0,1-2.07-.94l-.43-.37a3.22,3.22,0,0,1-.37-.43l-.32-.48-.34-.46c-.11-.16-.21-.32-.31-.48s-.18-.34-.27-.51-.21-.42-.32-.61l1.12.92a2.11,2.11,0,0,1-.53-1.2,1.44,1.44,0,0,0,0-.74c-.13-.48,0-.59,0-1.51s-.69.34-1.54-.72-.56-1.62-.21-2a.25.25,0,0,1,.43,0c.18.32.39.37.35.92s.18.48.72.79c1.27.72.75-.29,1.49-1.12a2.69,2.69,0,0,1,.47-.47.6.6,0,0,1,.06-.21c.16-.43-.18-1.06-.5-1.78.26,0,.51,0,.77,0,0,.16.08.31.13.47l.13.48c0,.16.11.32.16.47s.2.14.22.22.17.08.17.11v.13c0,.16-.19.31-.27.45a2.18,2.18,0,0,1-.41.37.87.87,0,0,0-.28.48.81.81,0,0,1,.29-.4,2.44,2.44,0,0,0,.42-.32,1.19,1.19,0,0,0,.27-.53l0-.14s0-.1,0-.14a1.75,1.75,0,0,0,0-.29,2.18,2.18,0,0,0-.34-1.06,1.39,1.39,0,0,0-.16-.26c.22,0,.47,0,.71.06l.79,1.8,0,.06a.08.08,0,1,0,.14,0,5.06,5.06,0,0,0,.14-.67,1.77,1.77,0,0,0,0-.71.91.91,0,0,0-.18-.32L56,118a4.86,4.86,0,0,0,.67,0l.29,0,.27,0,.53,0c.66.06,1.32.1,2,.11.31,0,.59,0,.9,0l.45,0,.43-.06a16.58,16.58,0,0,1,1.78,0,2.53,2.53,0,0,0,.92-.13,1.62,1.62,0,0,0,.75-.55c.34-.5.66-1,1-1.48a11.63,11.63,0,0,1,1.16-1.35c.21-.21.42-.42.64-.61a7.8,7.8,0,0,0,.66-.61,9.35,9.35,0,0,0,1.09-1.43,4.78,4.78,0,0,1,.53-.71l.16-.14.16,0c.37,0,.75-.08,1.14-.11.77,0,1.54-.08,2.33-.1l1.17,0c.37,0,.75,0,1.14,0l1.22.08a6.55,6.55,0,0,1,1.48.82c1.22,1.06-.74.67-.74.67a4.57,4.57,0,0,0-3.15.08s1.24,1,2,1.57l0,0v0l.09,0c.64.32,1.67-.08,2.54-.16l.25,0a3.41,3.41,0,0,1,1.28.63c.19.16.37.32.58.47a.9.9,0,0,0,.37.19.72.72,0,0,0,.42-.06c.13,0,.22-.1.34-.13a.71.71,0,0,1,.32,0,2,2,0,0,1,.64.24,5.11,5.11,0,0,1,1.17.82,2.89,2.89,0,0,1,.63,1.25,2.74,2.74,0,0,1,.13.69,1.31,1.31,0,0,1-.13.66,3.41,3.41,0,0,1-.39.59c-.14.19-.31.4-.43.61a4.46,4.46,0,0,0-.35.67,4,4,0,0,0-.24.74A12.19,12.19,0,0,0,84,122.6a3.07,3.07,0,0,1-.45,1.3,1.75,1.75,0,0,1-.21.27l-.26.27-.48.58a12.12,12.12,0,0,0-.84,1.25q-.39.63-.82,1.2c-.29.39-.59.77-.92,1.12a5.62,5.62,0,0,1-1.06.9,3,3,0,0,1-.61.29c-.1,0-.21-.38-.32-.37s-.1-.43-.16-.43h-.14c-.37,0-.72.22-1-.11a4.08,4.08,0,0,1-.72-1c-.1-.21-.19-.32-.29-.54l-.14-.28a2.82,2.82,0,0,1-.13-.29,1.93,1.93,0,0,1-.08-.63c0-.22,0-.46,0-.7.06-1,.26-1.92.39-2.9s.31-2,.39-3a8.08,8.08,0,0,0,0-1.52c0-.06,0-.13,0-.19l0-.21a1.09,1.09,0,0,0-.19-.39,2.38,2.38,0,0,0-.61-.53,9.45,9.45,0,0,0-1.36-.63c-.22-.1-.45-.18-.66-.29a1.94,1.94,0,0,1-.56-.39c-.06-.06-.13-.16-.19-.24a.23.23,0,0,1,0-.1c0-.18,0-.37-.06-.53a2.92,2.92,0,0,1,0-.53,3.91,3.91,0,0,1,.22-1l0,0,0,0,.06-.06.14-.14.14-.14.06-.08,0,0,0,0,0,0v0l.07-.2.1-.29H73a5.13,5.13,0,0,0-1.45.37s-.06.11-.1.12a.06.06,0,0,0,0,.06,14.09,14.09,0,0,0-5.33,3.51c-1.8,1.83-1.89,2.23-3,2.74a1.62,1.62,0,0,0-.37.21,1.13,1.13,0,0,0-.4.34.56.56,0,0,0-.08.29.94.94,0,0,0,.06.29,3.44,3.44,0,0,0,.27.48c.11.14.19.29.32.43a8.11,8.11,0,0,0,.72.75,3.07,3.07,0,0,1,.61.77,2.7,2.7,0,0,1,.18.43l.14.5a7.59,7.59,0,0,0,.4,1c.08.16.16.32.24.47l.06.11a.5.5,0,0,0,.11.14.93.93,0,0,0,.29.18,1.84,1.84,0,0,0,.56.11c.18,0,.35,0,.53,0a14.53,14.53,0,0,1,2.06,0c.18,0,.35-.18.53-.16l.26-.21h0a2.55,2.55,0,0,0,0,.27s0,.16,0,.18a3.91,3.91,0,0,1-.43.07c-.35,0-.71,0-1.06.06a3.05,3.05,0,0,0-.53.09,1.23,1.23,0,0,0-.53.25,2.14,2.14,0,0,0-.19.21l-.08.1-.1.11-.16.19-.16.19c-.21.27-.45.53-.64.84a2.71,2.71,0,0,0-.27.47,4.1,4.1,0,0,1-.21.47c-.18.29-.39.31-.64.54-.46.46-1,1-1.48,1h.47c.8,0,1.56.28,2.3.32a7.32,7.32,0,0,1,1.11.38c.18,0,.35.2.55.24l.58.2c.39.08.79.17,1.19.22s.82.06,1.2.08l1.17,0,.58,0c.19,0,.39,0,.59,0a11.74,11.74,0,0,0,2.39-.21,5.26,5.26,0,0,1,2.18,0l.55.18a5.74,5.74,0,0,0,.56.18c.39.11.75.22,1.14.32.75.21,1.51.4,2.25.63.37.11.74.22,1.09.35s.69.31,1,.47c1.38.69,2.75,1.46,4.11,2.22S91,137.22,92.38,138a43.31,43.31,0,0,1,4,2.39,19.41,19.41,0,0,1,1.81,1.4,9.08,9.08,0,0,1,.79.79,4.16,4.16,0,0,1,.59.9c.08.14.14.29.21.43s.13.47.18.63a1,1,0,0,0,.14.24c.1.27.18.55.26.82.21.74.4,1.49.64,2.26a7.07,7.07,0,0,0,.48,1.16,6.67,6.67,0,0,0,.71,1c.51.63,1,1.2,1.61,1.77a26.68,26.68,0,0,0,3.63,3.08,10.8,10.8,0,0,0,1,.64l1,.56.37.21c.37.64.31,1.53-.19,3.31-.79,2.81-1.8,6.84-2.41,8.69s-1.48,4.5-1.67,5.27a.26.26,0,0,0,0,.22s0,.08,0,.11,0,.19-.06.27l-.08.27c-.1.37-.22.72-.35,1.09-.27.74-.56,1.46-.82,2.22a8.76,8.76,0,0,0-.34,1.16c-.08.39-.14.79-.21,1.17a4,4,0,0,1-.27,1,4.45,4.45,0,0,1-.59.92c-.48.63-.93,1.27-1.38,1.91s-.9,1.28-1.36,1.89l-.35.45a4.57,4.57,0,0,1-.35.39,1.78,1.78,0,0,1-.93.29c-.37,0-.75,0-1.16,0a4.61,4.61,0,0,0-.63.06,1.33,1.33,0,0,0-.34.1,1.51,1.51,0,0,0-.32.18,9.31,9.31,0,0,0-.93.8c-.29.29-.56.58-.84.87a10.55,10.55,0,0,0-.77.92,9.22,9.22,0,0,0-.67,1c0,.1-.1.19-.14.31a.78.78,0,0,0-.06.18s0,.06,0,.1a.49.49,0,0,0,0,.16.23.23,0,0,0,0,.11,2.12,2.12,0,0,0-.1.92c.06.4.26-.08.48-.47,0,0,.11-.26.16-.23a2.93,2.93,0,0,0,1.19,0h0c-.07,0-.1.62-.08.77s.32,0,.59-.21c.61.1,1.22.24,1.83.29.37,0,.74.09,1.11.1a42.64,42.64,0,0,0,12.77-.37c6-1.38,12.61-2.75-.39-2.09-1.53.08-5.91.15-7.15.17a3.81,3.81,0,0,1,.31-.91,4,4,0,0,1,.59-.91c.5-.59,1-1.2,1.48-1.81l1.46-1.85.72-.92a4.48,4.48,0,0,1,.77-.79,4.42,4.42,0,0,1,.47-.27l.26-.11.14-.06.06,0,.08,0a2.19,2.19,0,0,0,.84-1,9.51,9.51,0,0,0,.39-1.14l.31-1.12c.21-.75.45-1.48.72-2.22s.51-1.38.8-2.07l1.85,1.32,2.06,1.46,1.59,3.34,0,0,.06,0,3.58,2.34.1.06.11,0a13.28,13.28,0,0,0,1.35-.26c.22-.06.45-.13.67-.21a2,2,0,0,0,.59-.29l.1,0c1.78-.66,1-.56.32-.82a.73.73,0,0,0-.08-.22,2.52,2.52,0,0,0-.45-.64,7.46,7.46,0,0,0-.9-.85l-.13-.8-.08-.48-.08-.47-.34-1.88,0-.1-.06-.08-1.41-1.75,0,0-.82-1.17-.06-.08-.1,0-1.89-1.06-1.75-.95-.47-1.28,2.78-2.41,4.26-2.07,0,0,0,0c1.75-1.19,3.52-2.34,5.25-3.53l0,0,0,0,3.47-2.89,0,0,0,0,1.67-1.88.11-.08.53,0a5.89,5.89,0,0,0,1.06.08,11.6,11.6,0,0,0,2.25-.22,24.74,24.74,0,0,0,4.27-1.3c1.36-.55,2.73-1.16,4-1.83s2.6-1.45,3.84-2.15a11.59,11.59,0,0,1,1.88-.87l.48-.14.24-.06.27-.06,1.06-.26,4.27-1,2.14-.51c.71-.18,1.43-.31,2.14-.43,1.4-.27,2.81-.45,4.22-.63a13.42,13.42,0,0,0-.19,1.59,12.85,12.85,0,0,0,0,1.93,14.42,14.42,0,0,0,.74,3.77,14,14,0,0,0,1.73,3.42,15.5,15.5,0,0,0,2.6,2.83c2,1.62,3.9,3.28,5.78,5,.93.87,1.86,1.75,2.76,2.65s1.8,1.81,2.63,2.76l0,0,1.57,2.78a1,1,0,0,0,.1.18l.11.16.22.34.43.67.85,1.32v.08l.05,0c-.24-.47-.44-.93-.7-1.4l-.35-.71-.18-.35-.09-.18-.08-.16-.72-1.43-.72-1.43,0,0,0,0a64.85,64.85,0,0,0-5.28-5.62c-.93-.88-1.88-1.77-2.84-2.6l-1.46-1.25L172,161.18a13.18,13.18,0,0,1-4-5.86,15.43,15.43,0,0,1-.75-3.52,16.94,16.94,0,0,1-.08-1.81c0-.31,0-.61,0-.92,0-.14,0-.31,0-.45s0-.31,0-.43l0,0c.1-.32.18-.66.26-1l.13-.5.11-.5c.06-.32.14-.66.21-1l.19-1,0-.06-.06,0-.1,0s0,0,0,.06l-2.71-1.54,0-.06,2.7,1.52h0l.06,0,0-.11,0,.06-2.71-1.52c.53-1,2.06-4.43,1.45-3.26a12.43,12.43,0,0,1-3.52,4.21l1.51-.8c-.56.34-1.24.75-2.06,1.14a5.66,5.66,0,0,0,.54-.32l-1.17.62a18,18,0,0,1-3,1c-2.91.72-3.85.92-7.43,1.72a7.76,7.76,0,0,0-2.59,1.8,51.1,51.1,0,0,1,9.19-2l.48,0a6,6,0,0,1-3.44,1.65,31.29,31.29,0,0,0-6,2.31c-1,.63-5.64,3.26-6.73,4l-1,.45-1.06.48a6.58,6.58,0,0,1-3.2-1.35c-.88-.74-3.87-2.83-5-4.53s-2-2.59-3.4-2.7l-.53-.32a7.24,7.24,0,0,0-.71-.35c.22.13.45.27.66.42s.43.29.64.45l.22.16c.37.34.95.85,1.51,1.38.69.85,1.38,1.7,2.07,2.57l0,0,1.78,1.8,0,0,1,.79,0,0,0,0a.64.64,0,0,1,.24.22,1.52,1.52,0,0,1,.16.37,3.51,3.51,0,0,1,.06.43,1.74,1.74,0,0,1,0,.29L133.41,157l0,0,0,0-.08.06a1.34,1.34,0,0,0,0-.35c0-.75-1.49-.64-2-.93a1.1,1.1,0,0,1,.27,1.14c-.31.66-1.85-.29-3.16-.9-.66-.32,2.31,1.4,1.53,2.55a16.42,16.42,0,0,1-4.88,3.87c-2.09,1.19-3.39,1.24-4.51,1.75s-2.55,2-4.14,3.36-1.61.69-2.57,1-.79,1-.79,1,.21,2.1,1,2.25,1.83,1.91,3,1.88a7.41,7.41,0,0,1,.82,0,7.11,7.11,0,0,1,2.55,1.78,6.34,6.34,0,0,1,1.61,3.32,2.66,2.66,0,0,0,.48,1.3l.11.56a1.66,1.66,0,0,0-.42,0l-.34.13-.32.11a2.28,2.28,0,0,1-.59.14.7.7,0,0,1-.47-.11l-.22-.18-.11-.11-.13-.13-.24-.26a1.8,1.8,0,0,1-.21-.26c-.14-.19-.31-.37-.47-.56l-.32-.37a4.15,4.15,0,0,0,.37,1.3,1.8,1.8,0,0,0,.12.37c.06.11.09.22.16.32l.08.16.12.18a2.11,2.11,0,0,0,.32.35,1.68,1.68,0,0,0,.5.29,1.89,1.89,0,0,0,.58.1,3.34,3.34,0,0,0,.9-.16l.37-.13.34-.14a1.09,1.09,0,0,0,.37-.51c.24.19.47.4.69.61s.18.56.26.79a2.15,2.15,0,0,1-.39.19,5.12,5.12,0,0,1-.59.21c-.39.1-.79.19-1.17.26l-3.52-2.12L116.6,178l0,0,0,0-2.15-1.38-1.94-1.22a.23.23,0,0,0,0-.1l0-.13-.1-.11-2.84-3.44-.48-3.47a2.48,2.48,0,0,1,.13-.75,3,3,0,0,1,.34-.72,2.34,2.34,0,0,1,.55-.58l.16-.11.19-.13a3,3,0,0,0,.35-.27c.9-.75,1.72-1.57,2.55-2.39,1.64-1.64,3.26-3.31,4.85-5l1.24-.84a9.07,9.07,0,0,1,4.46-.53l1.8.27s-3.42-.64-4.74-.82l.31,0-.31.14V156a2.25,2.25,0,0,1-.24.26l-1,.17c-.77-1-1.58-.72-2.36-.93-.39-.1-.8-.31-1.2-.41-.19,0-.42-.14-.6-.19s-.37-.14-.56-.21a22.79,22.79,0,0,1-2.2-1c-.72-.35-1.46-.73-2.23-1l-.58-.2a5.56,5.56,0,0,1-.55-.23,9.6,9.6,0,0,1-1-.61,13.31,13.31,0,0,1-1.85-1.45c-1.33-1.4-2.92-3.4-2.92-3.4a0,0,0,0,1,0,0,2.42,2.42,0,0,1-.18-.35,4.59,4.59,0,0,1-.29-2.33,13.16,13.16,0,0,1,.51-2.36c.22-.79.5-1.56.74-2.33a23.42,23.42,0,0,0,.61-2.38,23,23,0,0,1,.56-2.36c.24-.79.53-1.54.82-2.3.14-.37.29-.75.45-1.12s.32-.74.5-1.11c.35-.74.69-1.48,1-2.22l-.14-.06c-.32.75-.69,1.48-1.06,2.2s-.74,1.48-1.06,2.22l-.51,1.12c-.16.37-.32.75-.48,1.14s-.29.77-.42,1.17a7.74,7.74,0,0,1-.43,1.16c-.18.37-.37.72-.56,1.08a9.17,9.17,0,0,0-.48,1.08c-.26.72-.5,1.49-.75,2.28a6,6,0,0,0-1.59-.93c-1-.51-2.84-1.22-3.61-1.53-.35-.14-.74-.27-1.08-.39A30.61,30.61,0,0,0,93,136.64c-.69-.32-1.38-.67-2.09-1-.35-.18-.71-.34-1.06-.5l-1.08-.48-.35-.16a12.3,12.3,0,0,0,.95-1.75,24.92,24.92,0,0,0,2.79,1.08c3.21,1,7.29,2.06,4,1.11-2.28-.66-3.26-3.34-3.92-3.73-.18-.11-.93-.47-1.93-.92.13-.37.26-.77.39-1.17,3.37.88,6.55,1.51,6.55,1.51a58.22,58.22,0,0,1-6.17-2.78,59.39,59.39,0,0,0,2.33-12.93l.42.06,2.3.4c1.54.27,3.08.56,4.61.87.77.14,1.54.31,2.3.47l1.14.26,1.14.27a20.07,20.07,0,0,0,2.39.39,20.37,20.37,0,0,0,2.42.06c.77,0,1.53-.08,2.26-.14.63.22,1,.5.82.85-1.16,2.46-.24.35,2.1-1.38.66-.16,1.28-.35,1.89-.5a8.31,8.31,0,0,1,1.06-.22c.18,0,.34-.15.51-.17s.17-.12.26-.12h.24a4.73,4.73,0,0,1,1.93.64c.66.29,1.33.7,2.1,1,.21.08.4.19.63.27l.18.06.18.05a1.89,1.89,0,0,0,.32.08,12.52,12.52,0,0,0,1.25.19c.79.08,1.54.16,2.31.26s1.53.21,2.3.34l1.14.19,1.16.21a37.56,37.56,0,0,0,4.8.43,84.5,84.5,0,0,0,9.47-.34l2.34-.22c.8-.06,1.61-.18,2.38-.29,1.56-.22,3.1-.47,4.64-.71,3.08-.48,6.17-1,9.25-1.46,1.54-.22,3.1-.45,4.62-.63a39.63,39.63,0,0,1,4.59-.22c1.54,0,3.08.08,4.62.21.75.06,1.53.14,2.3.24a19.28,19.28,0,0,1,2.25.39c.71.19,1.45.45,2.18.71l2.2.79c1.28.48,2.57.95,3.87,1.45l2.7,1.65a5.9,5.9,0,0,0-1.81-1.48c1.19-.16,2.41-.32,3.61-.45a18.19,18.19,0,0,1,1.88-.06l1.91,0c1.27,0,2.57.08,3.85.06.64,0,1.3,0,1.94-.08s1.27-.1,1.91-.13c2.55-.13,5.12-.16,7.68-.21l3.84-.06c1.28,0,2.57-.11,3.85-.21q3.83-.29,7.66-.77c1.28-.18,2.54-.4,3.81-.63s2.52-.47,3.77-.71l.95-.18.93-.18a5,5,0,0,1,1.83,0,1.94,1.94,0,0,1,.79.32.26.26,0,0,1,.1.1.31.31,0,0,1-.13.06l-.22.08-1.8.66a29.79,29.79,0,0,1-3.66,1.08l-3.76.79c-1.25.26-2.51.53-3.76.77s-2.51.48-3.77.64c-.64.08-1.27.13-1.91.18s-1.27.1-1.91.13c-1.28.08-2.55.14-3.84.21s-2.55.11-3.84.16c-.63,0-1.27,0-1.91.06s-1.28,0-1.93,0c-2.57.11-5.12.37-7.68.66-1.27.14-2.55.31-3.82.5a9.59,9.59,0,0,0-1,.19,3.78,3.78,0,0,0-1,.37,1.47,1.47,0,0,0-.47.43,1.35,1.35,0,0,0-.24.58,8.17,8.17,0,0,1-.19.92,3.51,3.51,0,0,0-.14,1.06c0,.34,0,.67.06,1,.06.66.17,1.28.25,1.91,0,.31.09.63.09.92v.95c0,.64,0,1.27-.05,1.91,0,1.27-.13,2.55-.29,3.79a10.78,10.78,0,0,1-.35,1.8,8,8,0,0,1-.73,1.65c-.31.51-.66,1-1,1.54s-.76,1-1.16,1.49c-.8,1-1.66,1.91-2.52,2.83l0,0,0,0-2.26,3.08c-.75,1-1.49,2.09-2.2,3.18a11.67,11.67,0,0,0-1.08,1.72,8.64,8.64,0,0,0-.79,1.93,3.39,3.39,0,0,0-.06.53c-.43,1-.85,1.94-1.19,2.6a5.12,5.12,0,0,0-.08,3,14.86,14.86,0,0,1,1.25-3.9,3.6,3.6,0,0,0,.14-.42,3.06,3.06,0,0,0,.08.37,18.72,18.72,0,0,0,.56,1.91,32.1,32.1,0,0,0,1.51,3.6c.29.59.58,1.17.9,1.73s.66,1.14,1,1.69a29.89,29.89,0,0,0,2.38,3.1,28.18,28.18,0,0,0,2.76,2.78c.13.11.26.22.39.32l.35.29.29.27.08.1a.08.08,0,0,1,0,0s0,.21.06.4a3,3,0,0,0,.14.55l0,.13-.05,0v0s.09.08.09.13a1.11,1.11,0,0,1,0,.32,3.81,3.81,0,0,1-.22.77c-.11.26-.23.53-.38.79,0,0,0,.08-.06.13a1.51,1.51,0,0,0-1.36.79,2.85,2.85,0,0,0-.82,2.46c-.31.47-.59.95-.87,1.41l-.4.71a15.29,15.29,0,0,0-2.44,3.21c-.5,1.32-1.65,2.86-2.28,4.18a7.78,7.78,0,0,0-.79,2.84,5.43,5.43,0,0,1-.56,1.7l-.37.16-1.08.42-.08-.87-.11.95-1.2.48.18-1.22-.59,1.36-1.48.16.18-1-.75,1.34h-1l-.32,0,.5-2.05s1.7-1.08,2.34-1.38c0,0-2.12.76-2.52,1a6.42,6.42,0,0,0-1.43,1.93c-.14.32-.37.1-.58.1h-.08a4,4,0,0,0-.08.43l.93.13a1.73,1.73,0,0,0,.13.57c.11.24.21-.11.37-.46a45.09,45.09,0,0,0,10.34-.61c3.73-.58,13.47-1,12.46-2s-10.6-.75-12.36-.65-1-.27-1.54.45a1.1,1.1,0,0,0,0-.38,2.48,2.48,0,0,0-.06-.5,3.63,3.63,0,0,1-.1-.91,1.89,1.89,0,0,1,0-.43,2.75,2.75,0,0,1,.16-.42,8.23,8.23,0,0,1,.43-.83c.31-.56.64-1.09,1-1.64l2-3.24c.67-1.08,1.32-2.18,2-3.28.32-.53.66-1.08,1-1.61.18-.26.35-.51.55-.77l.29-.37.29-.39a17.73,17.73,0,0,0,1.08-1.62,5.93,5.93,0,0,0,.74-1.83,2,2,0,0,0,0-.53l0-.27,0-.13,0-.11a4.3,4.3,0,0,1-.11-.43,3.19,3.19,0,0,0-.08-.5,1.21,1.21,0,0,0-.29-.48,3.66,3.66,0,0,0-.35-.35l-.74-.61a28.2,28.2,0,0,1-2.67-2.7,26.88,26.88,0,0,1-4.14-6.33,31.83,31.83,0,0,1-1.49-3.5,18.11,18.11,0,0,1-.55-1.81,9.13,9.13,0,0,1-.16-.92,2.7,2.7,0,0,1,0-.88,7.13,7.13,0,0,1,.69-1.72c.27-.51.56-1,.87-1.51.22.19.43.4.66.61.39.37.77.75,1.19,1.12a8.62,8.62,0,0,0,1.33,1l.37.21.34.19c.22.13.45.29.67.43,1.78,1.19,3.55,2.49,5.4,3.66a14,14,0,0,0,1.45.82l1.51.66c1,.43,2,.84,3,1.22l1.53.58c.26.1.51.19.77.27a5.87,5.87,0,0,1,.74.29c1,.43,2,.9,2.94,1.38l2.92,1.45,1.46.74.72.37.37.18.34.19a10,10,0,0,1,1.25,1,15.19,15.19,0,0,1,1.19,1.09c.75.77,1.49,1.56,2.2,2.38.34.4.69.82,1,1.25.16.22.32.43.47.66s.27.45.42.69c.55.93,1.08,1.88,1.57,2.84.26.48.5,1,.71,1.46.1.26.21.5.29.75a3.41,3.41,0,0,1,.18.75c0,.55,0,1.08-.06,1.62,0,.3-.06.59-.09.88a4.94,4.94,0,0,0,.18-.83c0-.55.15-1.09.15-1.64a3.3,3.3,0,0,0-.14-.84c-.08-.26-.18-.51-.27-.77-.21-.51-.44-1-.68-1.49-.48-1-1-1.94-1.54-2.89-.13-.22-.25-.47-.42-.71l-.46-.67c-.32-.43-.66-.87-1-1.28-.71-.85-1.43-1.65-2.2-2.44-.39-.39-.77-.77-1.19-1.14a10.47,10.47,0,0,0-1.3-1,2.83,2.83,0,0,0-.37-.22l-.35-.19-.72-.39-1.45-.75c-1-.51-1.93-1-2.89-1.51l-.14-.06-3.36-2.86c-1.78-1.48-3-3.07-6.79-6.87s-1.22-5.28-1.35-10.26c-.1-3.47-.18-6.79-.21-8.48.11-1.14.18-2.26.21-3.4,0-.64,0-1.28,0-1.93,0-.32,0-.64,0-1s0-.64-.1-1,0-.4-.08-.61q.34.82.63,1.64c.29.79.56,1.59.84,2.38s.55,1.59.79,2.39c.13.4.24.79.35,1.19,0,.21.1.4.14.59a4.38,4.38,0,0,1,.1.55c0,.18,0,.39,0,.59l0,.63,0,1.27c0,.85.06,1.7.14,2.57a22.55,22.55,0,0,0,.37,2.63,7.14,7.14,0,0,0,.48,1.43l.58,1.16c.4.75.79,1.53,1.24,2.26s.9,1.48,1.41,2.2a16.15,16.15,0,0,0,1.73,2.09,6,6,0,0,1,.72.82c.24.31.47.66.74,1a9.55,9.55,0,0,0,.92,1.08,8.19,8.19,0,0,0,1.08.9,13.51,13.51,0,0,0,2.34,1.3l1.19.51,1.17.48c.79.32,1.57.63,2.38.92l1.2.42,1.19.45a18.71,18.71,0,0,0,2.44.77l.31.08.11,0a.12.12,0,0,1,.06,0,2.67,2.67,0,0,1,.36.48c.14.33.42.67.42,1v.07l-.05,0s.05,0,.05,0h0l0,.08,0,.16v0s-.17,0,0,0l.06.35,0,.13a1.63,1.63,0,0,0-1.1-.74,13.59,13.59,0,0,1-3.6-.88l-2.15-.93s-1.82-1.09,3.64,2.34c2.38,1.49.79,1.89,3.07,5.12a32.78,32.78,0,0,1,4.32,9.47,2.88,2.88,0,0,0,2,2.22l.16.22a4.92,4.92,0,0,1,.32.8c0,.1,0,.21.08.31a1.93,1.93,0,0,1,.08.32,5.2,5.2,0,0,1,.13.61v.1s0,0,0,0a.45.45,0,0,0-.14.13,4.53,4.53,0,0,0-.39.53,1.6,1.6,0,0,0-.18.27l-.15.27-.24.58c-.08.19-.16.4-.26.59a1.19,1.19,0,0,0-.42.16,15.51,15.51,0,0,0-1.59,1.35c-.4.43-.55.84-.95,1a1.37,1.37,0,0,0-.5.34l-.34.13,0,0s-1-1.69-.79-2.34,1.11-.84,1.25-1.65l.14-.82a9.34,9.34,0,0,1-1.09,1.57c-.55.58-1,.27-.87,1s.47,2.14.55,2.62l-.14.08a3.51,3.51,0,0,0-.79.43,5.53,5.53,0,0,0-.51.32,4.3,4.3,0,0,0-.11-.43,4.06,4.06,0,0,0,0-1.25c0-.53-.13-1.08-.16-1.59a1.3,1.3,0,0,1,.13-.67l.11-.11.14-.11a2.3,2.3,0,0,1,.32-.22,2.73,2.73,0,0,0,.66-.5,4.73,4.73,0,0,0,.5-.66c-.21.18-.4.35-.61.51a3.89,3.89,0,0,1-.67.39l-.35.21-.18.13a.84.84,0,0,0-.16.18.9.9,0,0,0-.16.43,2,2,0,0,0,0,.43,6.71,6.71,0,0,0,.11.82l.14.79c0,.29.1.58.13.88,0-.13-.08-.24-.13-.37l0-.16s0-.1-.1-.16-.07.09-.11.07h0l0,.07.06.14a7,7,0,0,1,.37,1.25l0,.08.06,0,0,0,0,0,0,0c12.09.43,12.06-1.67,16.93-2C241.84,188.75,249.55,187.34,244.66,187.13ZM50.58,118.62s-.34.21-.48.1,0-.34.06-.58a.52.52,0,0,1,.18-.19.28.28,0,0,1,.13,0,.42.42,0,0,0-.06.16C50.36,118.35,50.87,118.29,50.58,118.62Zm15.69-.87,0,0a2.29,2.29,0,0,1,1.4-.43,6.68,6.68,0,0,1,1.49.19l-.26,0a2.13,2.13,0,0,0-.79.34l-.16.16-.13.16a.89.89,0,0,1-.75.26l-.43-.14-.14,0,0,0a1.38,1.38,0,0,0-.32-.21Zm-.48.9h0l0,0Zm1.09,2.1c-.08,0-.16-.13-.24-.1l0-.15h0a1.13,1.13,0,0,0-.22-1.06c-.32-.35-.56-.32-.56-.32a.88.88,0,0,0-.14.87,1,1,0,0,0,.85.52.67.67,0,0,1,0,.18s-.06.12-.1.12a1.07,1.07,0,0,1-.82-.35,1.27,1.27,0,0,1-.29-.76l.06-.31a.75.75,0,0,1,.06-.2c0-.06.08-.13.11-.19l.19-.32,0,0a2.59,2.59,0,0,1,.53.26.69.69,0,0,1,.14.16,2.18,2.18,0,0,1,.34.59c.06.21.13.42.18.64s0,.24.08.35Zm4,.34s-.06,0-.09,0-.1-.06-.13-.06H67.78l0,0,0,0,.1-.13,0-.14a1,1,0,0,0-.14-.33l.16,0,.24.07.47.08c.63.1,1.25.21,1.86.34l.22.06.11,0,0,0a0,0,0,0,1,0,0Zm0,0s0,0,0,0l0,0-.11,0-.22-.06C70.82,121,71,121,70.88,121.09Zm36.89,58.37c-.71,1.86-1.57,2-2.28,3.85s-1.86.29-1.88,2.54a5.47,5.47,0,0,1-.8,3.31c0,.08.08,0,.31-.26a4.18,4.18,0,0,0-.37.64,6.87,6.87,0,0,0-.37,1.16c0,.08,0,.16-.06.24a15.91,15.91,0,0,1-1.77,1.19.51.51,0,0,0,0-.22,1.14,1.14,0,0,0-.29-.43.29.29,0,0,0-.1-.08H100a.63.63,0,0,1,0-.16v-.29c0-.06-.08-.09-.14-.08a1,1,0,0,0-.29.13.71.71,0,0,0-.23.29.66.66,0,0,0,0,.47,1.48,1.48,0,0,0,.16.32c.07.11.16,0,.26.08-.24,0-.5-.16-.76-.16H97.91l0-.08.08-.38c0-.16,0-.24,0-.38a2.72,2.72,0,0,0,0-.43v0a.84.84,0,0,1,0-.19.87.87,0,0,0-.46.41,1.53,1.53,0,0,0-.17.64,1.91,1.91,0,0,0,0,.61,1.49,1.49,0,0,0,.08.25l-.83,0a17,17,0,0,1-1.85-.22,9,9,0,0,0,.58-.77c.18-.26.35-.51.55-.75a5.59,5.59,0,0,0,.47-.51,1.24,1.24,0,0,1,.31-.22,1.53,1.53,0,0,1,.59-.16,2.86,2.86,0,0,0,.77-.19,1.93,1.93,0,0,0,.66-.45.07.07,0,0,0,0-.08.1.1,0,0,0-.11,0,5.13,5.13,0,0,1-.67.16,4.84,4.84,0,0,1-.69,0,2,2,0,0,0-.84.14,2.25,2.25,0,0,0-.39.24c-.11.1-.21.19-.31.29a4.08,4.08,0,0,0-.56.74A5.94,5.94,0,0,0,94,191.93a4.82,4.82,0,0,1-.51-.18s-.18-.14-.31-.24,0,0,0-.06.06-.13.11-.21a6.75,6.75,0,0,1,.63-.93c.22-.29.48-.58.74-.87s.53-.56.8-.82a7,7,0,0,1,.85-.72.84.84,0,0,1,.19-.11.92.92,0,0,1,.22-.06,2.7,2.7,0,0,1,.53,0c.37,0,.77,0,1.19,0a3.18,3.18,0,0,0,.64-.11,1.73,1.73,0,0,0,.64-.32,3,3,0,0,0,.45-.48,5.24,5.24,0,0,0,.37-.47c.48-.63.93-1.27,1.38-1.91s.9-1.27,1.36-1.88a4.91,4.91,0,0,0,.69-1,3.9,3.9,0,0,0,.21-.61c0-.21.08-.42.11-.61.06-.4.13-.77.21-1.14a9.35,9.35,0,0,1,.32-1.09c.26-.72.55-1.45.82-2.18.14-.37.27-.75.39-1.14l.08-.29c0-.1,0-.19.06-.29l0-.18c.43.08.92.31,1,1.36C107.38,177.32,108.47,177.6,107.77,179.47Zm28.17-23.32a2.64,2.64,0,0,1-1.48,1Zm-24.7,20.35c.31-.75.45-1.16.55-1.35l.1.13c-.27.66-.55,1.33-.8,2l-.39,1.09A13.38,13.38,0,0,1,111.24,176.5Zm-1.67,5.09a7,7,0,0,0,.43-.95v0a10.28,10.28,0,0,1-.37,1.06,1.58,1.58,0,0,1-.61.77l-.11.06A6.15,6.15,0,0,0,109.57,181.59Zm-2-27.54,0,0,0,0Zm-5.64-8.4a5.29,5.29,0,0,0,.37,1.35l.1.19a.59.59,0,0,0,.08.18c.06.11.13.22.19.32a6.77,6.77,0,0,0,.39.58c.27.37.55.71.84,1l.32.34c-.37,0-.84.08-1.32.08l-.16-.19a10.13,10.13,0,0,1-.63-.9,7.14,7.14,0,0,1-.43-1,16.66,16.66,0,0,1-.56-2.26.06.06,0,0,0,0,0Zm-16.4-12.41c-.35-.16-.72-.32-1.09-.47l0,0c-.08-.45-.19-.88-.31-1.32a11.42,11.42,0,0,1,2.17.35C86,132.32,85.73,132.82,85.51,133.24ZM87.44,129c-1.78-.84-3.45-1.64-3.81-1.89h0l0-.08c0-.13,0-.26,0-.37a18.66,18.66,0,0,0,4,1.65Zm1.67-5.07c-.18.71-.42,1.52-.71,2.39-.14-.1-.31-.19-.45-.31a34.91,34.91,0,0,0-3.15-1.89,3.17,3.17,0,0,0,.19-.5,5.34,5.34,0,0,0,.19-.9c0-.32.33-.59.36-.85s.45-.67.45-1v0s-.26,0-.26,0c.07-.19,0-.37.1-.55s.16-.35.28-.56a4.31,4.31,0,0,0,.41-.8,1,1,0,0,0,.08-.34,2,2,0,0,0,.1-.63,1.5,1.5,0,0,0-.08-.39,5.14,5.14,0,0,0-.19-.64,5.66,5.66,0,0,0-.35-.79,3.46,3.46,0,0,0-.56-.74,3,3,0,0,0-.72-.51c-.24-.13-.48-.24-.71-.34l-.19-.08c-.06,0-.13-.16-.21-.19s-.32-.21-.48-.21h-.08a.66.66,0,0,0,0,.08c.14-.4,0-.68-.18-1.25l.45.16c.39.1.77.21,1.16.29.77.18,1.54.33,2.31.47l3.84.69A73.87,73.87,0,0,1,89.11,123.89Zm94.12,71.78,1.65-.59a7.33,7.33,0,0,0,.88-.39A15.55,15.55,0,0,1,183.22,195.67Zm4.19-43.29,0-.08c0,.06.08.14.14.24ZM191,147.3l.56-.77,0,0c.11-.11.21-.24.32-.35Zm31.67,43.5a0,0,0,0,1,0,0h0l.21-.13Zm1.88-1,.18-.14,0,0,.34-.13A1,1,0,0,1,224.53,189.82Z"/><path class="cls-2" d="M97.93,190.46s0,0,0,0l.09,0Z"/><path class="cls-2" d="M221.88,189.25l0,0h0v.2h.06s.07-.11.11-.14l0-.06S221.92,189.23,221.88,189.25Z"/><polygon class="cls-2" points="222.57 190.87 222.58 190.85 222.57 190.85 222.57 190.87"/><path class="cls-2" d="M164.21,133.86c-2.49.39-2.67,1.48-3.89.87l-1.2-.63s.43,0,.63-1-.35-1.08-1-1.7,0-.32.18-1.3-.67-.85-.26-1.62.64-.56,1.06-.67-1-.74-1.65-.82-1-.63-.35-1,.85-.88-.24-.75-1.4.58-2.38.39-1.33-1-1.64-.39.14,1.19-.72,1.32-1.2-.63-1.3.26.79,1.17-.29,1.53-1.3.26-1.8,1.46,1.24,1.7-.51,1.2-2.26.5-2.83-.58.29-1.09-1.35-2.14-2.34-2.42-3.63-1.75,0,1.08-2.38.39-3.15-.35-3.73-1.75-.43-.21-.58-1.4-.34-.21-.14-1.19-.35-1.3-.35-1.3a6.53,6.53,0,0,1-2.26.16c-.64-.21-.77-.63-1.75-.71a10.26,10.26,0,0,0-2.6.29c-1,.14-4.14-1-4.14-1l1.65,1.36-.75.34a19.33,19.33,0,0,1,2.2,1c.88.51,1.77,1.14,1.14,2.36s-.29,1.41-1.48,1.45-.67-1-1.19,0-.63,1.2-2.15.71-1.64-.39-2.31-1.35-.92-1.81-1.57-1.91-2.52-.92-2-.5,1.43.84,1.35,1.59-.51.88.69,1.49,1.86.5,2.42,1.46,2.1,1.78.69,1.72-2.31-1.67-2.18-.59a17.27,17.27,0,0,0,.16,2.26,8.37,8.37,0,0,1,.39,2.59c0,1.94,0,2.71.74,3.56s1.78,1.8.69,1.49-3.07-1.33-2.09-.82.67,1.17,2.33,2.22,2.26-.27,2.83.58-.26,1.11.59,1.72a2.15,2.15,0,0,0,2.71.26c1.06-.67,1.16-1.11,2.26-.71a1.51,1.51,0,0,1,.35.16c-.06-.14-.08-.47.39-1,1-1.33,1.62-.26,1.57-1.78s-.92-2.14.82-1.54,2.31,1.12,3.05.9c.43-.14.84-.24,1.09-.31-.45.06-1.25,0-1.14-1.43.16-2-.85-3.34,1-2.2s1.89,1.89,2.68,2.86,1.35,2.14,1.86.93-1.33-1.27,0-2.06,1.09.08,2.49-.39,1.73,0,2-.48-3-.24-3-1.11,1.28-.9.5-1.43-2.15.59-2-.59.95-.9,2.36-.71,2.6.14,3.18,1.33.27,1.94,1.78,1.91,1.09.4,3.15.13,2.62.47,2.62.47l-2.26.71a4.63,4.63,0,0,0,1.65,1.25c1,.4.88.85,2.51.69s2.28.48,3.15.47-.66-.19-.9-1.06-.26-1.62.85-.67c.84.72,1.3,1.2,1.48,1.38a.78.78,0,0,1,.26-1.32l1.08-.56s-.22-.53.75-.13l1,.4a5,5,0,0,1-.26-1.51c0-.87-.67-.85.4-1S166.7,133.48,164.21,133.86Z"/><path class="cls-2" d="M130.6,142.58c.06.13.16.11,0,0Z"/><path class="cls-2" d="M137.83,138.74l-.31.06A1.28,1.28,0,0,0,137.83,138.74Z"/><path class="cls-2" d="M53.22,126.39c.24.16-.1-.13-.55-.5A2.76,2.76,0,0,0,53.22,126.39Z"/><path class="cls-2" d="M73.1,113.47a2.12,2.12,0,0,0,.14.69,1.49,1.49,0,0,0,.42.58,4.45,4.45,0,0,0,1.2.67c.21.1.42.18.63.26s.42.16.61.26a4.57,4.57,0,0,1,1,.79,4.11,4.11,0,0,1,.75,1.06,2.07,2.07,0,0,1,.24,1.22,1.22,1.22,0,0,1-.1.29l-.08.13-.1.14a3.37,3.37,0,0,0-.34.63,5.11,5.11,0,0,0-.37,1.35,15.54,15.54,0,0,0-.11,2.73,4.47,4.47,0,0,1-.13,1.3c0,.21-.1.43-.13.67a1.91,1.91,0,0,0,0,.74,1.7,1.7,0,0,0,.35.67l.13.13.11.11.22.24.21.26a.28.28,0,0,0,.06.08.22.22,0,0,0,.13.1l.13,0a.15.15,0,0,0,.1,0l.1,0,.29-.18.31-.18a.68.68,0,0,0,.27-.35.79.79,0,0,0,0-.43,3.53,3.53,0,0,0-.27-.66,2.42,2.42,0,0,1-.32-1.2,1.51,1.51,0,0,1,.18-.58,1.19,1.19,0,0,1,.37-.47,1.68,1.68,0,0,1,1.17-.22c.22,0,.45,0,.69,0a1.4,1.4,0,0,0,.74-.21,1.24,1.24,0,0,0,.29-.29l.19-.29a5.59,5.59,0,0,0,.37-.61,2.27,2.27,0,0,0,.21-.69c0-.22,0-.45.08-.67l.08-.67a1.75,1.75,0,0,0,0-.75.56.56,0,0,0-.32-.34,1.27,1.27,0,0,0-.39-.08,1.72,1.72,0,0,1-.61-.11,1,1,0,0,1-.4-.4,2.26,2.26,0,0,1-.15-.59,5.66,5.66,0,0,1-.07-1.3v-.35a.82.82,0,0,0-.15-.4.78.78,0,0,0-.38-.24l-.37-.08c-.47-.08-.92-.1-1.36-.18a1.73,1.73,0,0,1-.31-.08l-.1-.06a0,0,0,0,1,0,0,1.05,1.05,0,0,0,0-.37.39.39,0,0,0-.13-.21.58.58,0,0,0-.16-.11,2.72,2.72,0,0,0-.67-.21,2.57,2.57,0,0,0-.71,0,1.4,1.4,0,0,0-.35.08c-.13,0-.22.11-.32.14a.35.35,0,0,1-.26,0,1.05,1.05,0,0,1-.26-.18c-.72-.55-1.49-1-2.26-1.51l-.14-.1Z"/><path class="cls-2" d="M185.33,146.19c1.91-1.69,3.1-1.61,5.41-4.16s4.06-6,4.35-7.92.47-6-.13-4.88c-1.35,2.42-4.51,8.35-6.65,10.79a9.53,9.53,0,0,1-2.06,2c-1.41,1.19-.9-2.51-1.09-4.29-.32-2.94-.5,2.94-1.3,6.29-.63,2.6-2.68,5.46-3.6,7.32a11.24,11.24,0,0,0-1.11,3.28c-.19.8.95-1.86.95-1.86A16.88,16.88,0,0,1,185.33,146.19Z"/><path class="cls-2" d="M249.42,186.42l-.31-.42h0c-.7,0-1.18,1-1.19,1.68l.09.42v0a1,1,0,0,0,1.17,1.08l-.09-.22h0c.7,0,1.59-.34,1.59-1l.31.22v0A2,2,0,0,0,249.42,186.42ZM250,188v.15a1.36,1.36,0,0,1-.27.68,1,1,0,0,1-.12-.28c0-.21-.13-.34-.26-.35a.38.38,0,0,0,.28-.37.37.37,0,0,0-.13-.31c-.13-.09-.1-.13-.26-.11s-.23,0-.23,0V188h0c.14,0,.28.22.3.36s0-.36,0-.35,0,0,.1,0h.18c-.15,1-.37.78-.67.79-.61,0-1.05-.21-1.08-.81a1.07,1.07,0,0,1,1.08-1.09c.61,0,1,.11,1,1.11Zm-1,.09h-.16v-.48a.4.4,0,0,1,.16,0c.26,0,.35.13.35.26S249.19,188.09,249,188.09Z"/></g></g></svg>