<svg xmlns="http://www.w3.org/2000/svg" viewBox="0 0 300 300"><defs><style>.cls-1{fill:currentColor;}</style></defs><title>logo</title><g id="hulu"><g id="hulu-logo"><path class="cls-1" d="M300,131.39H276.1v39.86a6.63,6.63,0,0,1-1.83,4.58,7.12,7.12,0,0,1-4.47,1.83H255.86a6.71,6.71,0,0,1-4.58-1.83,6.63,6.63,0,0,1-1.83-4.58V131.39h-23.9v41.9c.1,5.59,1.12,10.37,3.46,14.34a21.82,21.82,0,0,0,9.46,8.75,33.43,33.43,0,0,0,14.34,3.05H276.1v-.31A26.11,26.11,0,0,0,289,196a22,22,0,0,0,8-9.15A30,30,0,0,0,300,173.39v-42Z"/><path class="cls-1" d="M61,133.93a32.09,32.09,0,0,0-13.73-2.54H31.83l-6,.71a13.22,13.22,0,0,0-2,.71V100.58H0v98.85H23.8v-40A6.67,6.67,0,0,1,25.73,155a6.45,6.45,0,0,1,4.58-1.83H44.24A7,7,0,0,1,48.71,155a6.48,6.48,0,0,1,1.93,4.47v40h23.8v-43c0-6-1.22-10.88-3.66-14.54A21.76,21.76,0,0,0,61,133.93Z"/><path class="cls-1" d="M141.76,171.25a7.12,7.12,0,0,1-1.83,4.58,7.72,7.72,0,0,1-4.58,1.83H121.52a6.65,6.65,0,0,1-4.47-1.83,6.72,6.72,0,0,1-1.93-4.58V131.39H91.32v41.9a28.75,28.75,0,0,0,3.36,14.34,21.28,21.28,0,0,0,9.46,8.75,33.09,33.09,0,0,0,14.34,3.05h23.29v-.31A25.42,25.42,0,0,0,154.57,196a23.94,23.94,0,0,0,8.24-9.15,34.71,34.71,0,0,0,2.95-13.42v-41.9h-23.9l-.1,39.76Z"/><polygon class="cls-1" points="183.76 199.42 207.56 199.42 207.56 100.58 183.76 100.58 183.76 199.42 183.76 199.42"/></g></g></svg>