<svg id="nick" xmlns="http://www.w3.org/2000/svg" viewBox="0 0 300 300"><defs><style>.cls-1{fill:currentColor;}</style></defs><title>logo</title><path id="nick-logo" class="cls-1" d="M40.46,129.07A40.45,40.45,0,0,0,0,169.52v37H30.72V170.16A21.52,21.52,0,0,1,33.58,159c1.82-2.89,4.15-4.6,6.89-4.6s5.08,1.72,6.89,4.6a21.33,21.33,0,0,1,2.85,11.14v36.33H80.92v-37a40.44,40.44,0,0,0-40.46-40.45m73.53-10a17.08,17.08,0,1,0-24.15,0l3.77,3.78c6.29,6.29,6.74,7.95.76,13.94L91,140.26a15.5,15.5,0,0,0-4.55,11v55.23h31V151.25a15.53,15.53,0,0,0-4.55-11l-3.43-3.42c-6-6-5.54-7.65.75-14M169,182.43c-1.81,3.35-4.15,5.32-6.89,5.34s-5.09-2-6.89-5.34a30.39,30.39,0,0,1,0-25.73c1.8-3.34,4.15-5.31,6.89-5.33s5.08,2,6.89,5.33a25.36,25.36,0,0,1,2.64,9.08h30.76a40.47,40.47,0,1,0,0,7.58H171.66a25.15,25.15,0,0,1-2.64,9.08m115.23,18.68a5.2,5.2,0,0,0-.81-2.79l-16.81-25.44,11.64-21.15a15.36,15.36,0,0,0-26.46-15.6L237.9,161V144.42a15.36,15.36,0,0,0-30.73,0v62.07H237.9V182.18l16.2,24.31,24.78,0a5.35,5.35,0,0,0,5.36-5.35m4.11-.34H286.3v-1h5.31v1h-2v5.71h-1.22m4.72-6.87h.2l3.27,3.66,3.26-3.66H300v6.87h-1.22v-4.26l-2.12,2.52h-.22l-2.13-2.52v4.26h-1.23v-6.87Z"/></svg>