<svg xmlns="http://www.w3.org/2000/svg" viewBox="0 0 300 300"><defs><style>.cls-1{fill:none;}.cls-2{fill:currentColor;}</style></defs><title>logo</title><g id="ilovenewyork"><g id="ilovenewyork-logo"><path class="cls-1" d="M270.91,274.45a7.65,7.65,0,0,0-2.25,5.42,7.5,7.5,0,0,0,2.15,5.31,7.41,7.41,0,0,0,10.47.15l.15-.15a7.15,7.15,0,0,0,2.25-5.21,7.4,7.4,0,0,0-2.15-5.42A7.52,7.52,0,0,0,270.91,274.45ZM278,285,276,280h-1v5h-2V275h3.33c2.86,0,4.29.75,4.29,2.69a2.72,2.72,0,0,1-2.15,2.73l2.25,4.57Z"/><path class="cls-1" d="M275.92,276H275v3h1c1.43,0,2-.43,2-1.45S277.35,276,275.92,276Z"/><path class="cls-2" d="M196.62,146.92s15.43-8.48,19.52-11c14.41-9.1,28.72-23.5,38.42-35.15,2.86-3.58,5.31-7.56,6.34-9a62.34,62.34,0,0,0,10.93-29.94c.51-7.26.1-14.61-1.84-20.44-.41-1-2.25-5.42-3.07-7.05C263.24,26.94,258.44,21,251.49,17c-6.23-3.58-17.27-7.05-25.85-5.82-.82.1-2.45.31-3.07.41a30.28,30.28,0,0,0-9,3.07A72.19,72.19,0,0,0,203.87,21,29.55,29.55,0,0,0,200,24.18c-.92.92-5.62,5.93-5.62,5.93l-5.52-6.64c-1.12-1.33-6.23-5.42-7.05-6.13A29.86,29.86,0,0,0,178,14.88a29.86,29.86,0,0,0-17.58-4.09h0a40.37,40.37,0,0,0-5.52.72c-13.28,2.76-23.4,9.71-28.82,20.23A69.63,69.63,0,0,0,122,41.86a55.5,55.5,0,0,0-1.12,26,67,67,0,0,0,2.76,9.4c2.25,6.95,6.34,12.67,9.81,18.29,10,16.25,28.1,30.66,44.45,40.77C180.47,137.92,196.62,146.92,196.62,146.92Z"/><path class="cls-2" d="M33.31,27.15a11,11,0,0,0,5.93,3.07c5.21.72,14.82-1.94,17.37,2.25a10.27,10.27,0,0,1,1.12,3.78c.31,2.55-.2,4.91,0,7.46.41,6.44,0,13.18.2,19.83,0,0,0,15.64.2,22.07.1,4.19.41,9.71.1,14.2-.41,5.11,1.23,14.31-.92,17.88-3.47,5.72-11.85,1.64-18.29,3.68a14.48,14.48,0,0,0-3.37,1.23c-3.37,2.35-4.09,8.18-1.84,12.16a9.09,9.09,0,0,0,6.44,4c2.15.41,4-.1,5.93-.2,4.19-.2,9-.31,13.18-.72a86,86,0,0,1,14.51,0c4.7.31,9.3-.1,14.2.31,3.58.31,8,.41,10.73-.61.31-.2.92-.51,1.23-.72,2.55-1.64,4.19-5.42,3.17-9.61-.1-.41-.1-.72-.2-1a8.45,8.45,0,0,0-.92-1.64c-4.6-7.15-18,.2-22.38-5.93a13,13,0,0,1-1.53-5.21,68.25,68.25,0,0,1,0-10.22c.1-5.21-.2-10.12,0-15.53a90.94,90.94,0,0,0-.41-12c-.2-1.53.2-3.27,0-4.91-.2-2.15,0-4.8-.1-7.05-.31-5-.2-9.81-.2-14.82,0-4.09-1.12-13.39.82-16.35,3-4.6,10.83-1.43,16.76-2.76,5.62-1.23,9.81-7.15,6.54-13.59-1.53-3.07-3.17-4.09-6.95-4.8A5.45,5.45,0,0,0,92.69,11c-10.83.92-22,1.77-33.11,1.23-4.7-.31-9.71-.2-14.61-.41a29.71,29.71,0,0,0-6,0,9.4,9.4,0,0,0-6.44,3.58,9,9,0,0,0-1.12,2.45C30.25,21.22,31.37,25.41,33.31,27.15Z"/><path class="cls-2" d="M298.6,164.39a8.93,8.93,0,0,0-6.13-3.58c-6.85-.72-12.88.72-19.52.72-6.44,0-14.1-.1-21.05,0-5.93.1-12.26-1.53-17.78-.1a8,8,0,0,0-5,5.11c-1.94,5.93,1.74,11.45,7.15,12.16a21.58,21.58,0,0,0,5.11.41,16.11,16.11,0,0,1,4.5-.31c1.84.31,2.66,1.23,1.74,3.07a15.08,15.08,0,0,1-.82,1.33c-.31.2-4.39,7.46-4.7,8.07a65,65,0,0,1-4.39,7.87c-3.68,6.13-7.26,12.16-10.73,18.29-.41.61-2.76,3.88-2.76,3.88a3.83,3.83,0,0,1-1.12-1.43c-5.21-9.4-10.63-18.7-16-28.1-1.53-2.66-5.42-8.79-5.52-9A3.54,3.54,0,0,1,201,180a5,5,0,0,1,.82-1c1.84-.92,4.09.2,5.93-.1a38.85,38.85,0,0,0,4.7-.51,8.8,8.8,0,0,0,6.44-10.22c-.61-3.27-1.64-5.52-4.09-6.85a17.52,17.52,0,0,0-8.48-1.12c-12.16,1.23-24.53-.1-37.3.41-4.09.2-8.58-.92-12.77-.31a13,13,0,0,0-5.52,1.74c-3.37,2.45-4.09,9-1.64,12.88,4,6.13,14,2.25,21.66,3.88a13,13,0,0,1,4.8,2.25,13.4,13.4,0,0,1,2.86,2,34.6,34.6,0,0,1,2.15,3c2.25,3.58,4.39,7.46,6.74,10.63s4.09,6.85,6.23,10.22c4.09,6.44,8.18,12.67,12,19.42,2,3.68,4.8,7.05,6.85,10.83.61,1,1.53,1.84,1.84,3.17a13.71,13.71,0,0,1,0,4.09c-.2,3.58.1,7.56-.2,11.24-.31,4.6.31,9-2.25,11.34s-7.66,2.45-12.06,1.94c-7.15-.92-13.69,4.39-10.93,11.55.51,1.23.92,2.66,1.94,3.27.41.31.61.72,1,1a9.09,9.09,0,0,0,4.6,2c4.19.51,10.42-.2,14.2-.72,2.55-.31,4.91.1,7.26-.1,9.4-.72,19.42,0,28.61.82a70.53,70.53,0,0,0,7.46-.31,9.2,9.2,0,0,0,4.09-2.35c3.27-3.58,4.39-10.12,0-13.39a12.67,12.67,0,0,0-7.66-2.35c-4.29,0-11.24,1.94-14.1-1.12a8.85,8.85,0,0,1-1.84-4.09c-.72-4.91-.1-9.81,0-14.92,0-2.66-.41-6.64.31-8.79.41-1.43,1.53-2.55,2.25-3.78.41-.61,4.5-6.85,5.93-9.4,5.93-10.53,12.88-20.54,19-31,2.66-4.39,5.62-10.93,9.71-13.8A10.62,10.62,0,0,1,275,180c.61-.1,1.74-.2,1.74-.2,7.36-1.84,16.66,2,21.26-3.78.1-.2,1.84-3.68,1.94-5.31A10.22,10.22,0,0,0,298.6,164.39Z"/><path class="cls-2" d="M138,159.9c-5.21-.92-10.53,0-15.64.51-2,.2-7.36-.1-8,0a22.21,22.21,0,0,1-4.39.31c-3.27-.31-7.05.1-10.53-.31-1.74-.2-4.09-.72-5.93-.41a3.17,3.17,0,0,0-.72-.2c-1.64-.41-3.17-.1-5-.2-9.3-.72-16.66,2.86-14.51,12.47a5.47,5.47,0,0,0,2.35,3.07,14.82,14.82,0,0,0,7.87,3c5.42.41,11.85-1.53,14.72,2.35a7.86,7.86,0,0,1,1.43,4.09c.2,2.66-.1,5.72.1,8.38,0,.2.31,13.08-.1,17.88-.2,2.76,0,6.64.1,9.4.2,3.27-.1,6.85-.1,10.22a103,103,0,0,1,0,11.24,111,111,0,0,0-.41,11.65c.1,1.33.2,5.72.2,5.72S92.89,244.72,92,242.37c-1-2.66-2.66-5.52-3.78-8.18-2.25-5.42-4.39-10.73-6.74-16.15-.82-2-2.35-4.39-3-6.44-2-6.85-5.62-13.08-8.18-19.52-1.53-3.88-3.27-7.56-4.91-11.14-3.47-7.77-5.62-15.64-12.77-19.72-5.11-2.86-19.42-1.33-26.26-1.53-4-.1-8.38-.2-12.67-.2a11.33,11.33,0,0,0-1.94-.2h0a12.69,12.69,0,0,0-3.88.51c-3.78,1.12-8,4.91-6.85,10.42.31,1.84,1.43,3.07,2.15,4.5,3.47,7.05,20.64-.61,22.69,6.44.61,1.94.07,4,.28,6.13.41,4.5-.13,9.3-.13,13.9v1.64c1,2.25-.07,4.5.13,6.95.51,6.64-.55,13.29,0,20.13.2,3-.07,5.93-.07,12,0,1,.22,4.7.12,5.83-.31,4.29.31,8.58-.2,12.77-.2,1.84,0,3.17-.61,4.39-1.43,3.07-6.44,4.09-10.93,3.78-1.53-.1-3.06-.72-4.8-.51-2.66.31-5.11.92-6.74,2.35-1.23,1-1.63,2.35-2.35,4.09-1.33,3.37.2,7.05,1.74,9.2,3.78,5,13.29,1.53,19.62,2.25a31.68,31.68,0,0,0,4.39-.2c4,0,7.36-.1,11.45-.1a76.82,76.82,0,0,1,12.06.61c2.15.31,4.09.1,6,.41,1.23.2,2.86-.2,4.09-.1A16.45,16.45,0,0,0,67,285.7c3.68-1.64,6.34-7.56,3.78-12.16-5.21-9.5-17.78-1-23.4-7.36a1.73,1.73,0,0,1-.31-.61c-2.45-4.29-.82-12.16-1-17.88-.51-11.55-.2-21.56,0-33,.1-5.72-.31-13,.1-18.8.1-3-.92-6.95,0-10,1.33.51,5.93,13.18,6.95,15.33,1.84,4.09,3.37,8.28,5.21,12.57s3.78,8.48,5.52,13c.61,1.64,1.74,3.37,2.35,5C69.18,239.5,73,247,76,254.63c3.37,8.69,7.05,18.5,11.45,26.26a16.51,16.51,0,0,0,9.61,7.66c5.62,1.53,11.85.61,15.33-2.15a14.39,14.39,0,0,0,5.42-7.77,14.94,14.94,0,0,1,.51-2c1.43-3.88.31-11.85.51-16.45.2-5.62-.2-11.85.2-17.88.2-2.86-.31-5-.1-7.77a97.61,97.61,0,0,0,.2-10.93c-.31-4.5.31-8.79,0-13.18-.2-2.15.1-10.73,0-12-.2-3.47.31-6.44.1-9.5-.1-1.53-.41-4.29.1-5.83a7.15,7.15,0,0,1,1.53-2.55c4.5-3.88,15.23.2,20.23-3.37,3.58-2.55,5.93-6.44,3.58-12.16A9.28,9.28,0,0,0,138,159.9Z"/><path class="cls-2" d="M280.62,277.69c0-1.94-1.43-2.69-4.29-2.69H273v10h2v-5h1l1.94,5h2.76l-2.25-4.57A2.72,2.72,0,0,0,280.62,277.69ZM276,279h-1v-3h.92c1.43,0,2.15.53,2.15,1.55S277.45,279,276,279Z"/><path class="cls-2" d="M282.62,273c-3.5-3-9.24-3.39-12.83.11a9.23,9.23,0,0,0-.15,13l.14.21a9.08,9.08,0,0,0,6.46,2.67,9.26,9.26,0,0,0,9-9.37,10.24,10.24,0,0,0-2.55-6.59Zm-1.19,12.18-.15.15a7.41,7.41,0,0,1-10.47-.15,7.5,7.5,0,0,1-2.15-5.31,7.65,7.65,0,0,1,2.25-5.42,7.52,7.52,0,0,1,10.63.1,7.4,7.4,0,0,1,2.15,5.42A7.15,7.15,0,0,1,281.44,285.18Z"/></g></g></svg>