<svg xmlns="http://www.w3.org/2000/svg" viewBox="0 0 300 300"><defs><style>.cls-1{fill:none;}.cls-2{fill:currentColor;}</style></defs><title>logo</title><g id="cnbc"><g id="cnbc-logo"><path class="cls-1" d="M198.07,224.93c0-4.1-3.93-4.93-12.12-4.93h-7v9h5.25C193.29,229,198.07,228.68,198.07,224.93Z"/><path class="cls-1" d="M186,238h-7v11h5.25c10.93,0,14.85-1.49,14.85-5.24C199.1,239.66,194,238,186,238Z"/><path class="cls-2" d="M42.2,219c5,.51,9.39,2,10.41,7.34l22.54-.17c0-11.61-15.37-16.56-31.41-16.9C15.05,208.73.71,219.32,0,234.68-.83,256,17.78,260.44,39.47,260.44,49.88,260.44,74,257,74.81,243H52.27c0,5-7.85,7.54-10.76,7.54-15.54,0-18.1-7.33-18.1-15.87C23.42,229.55,26.32,217.44,42.2,219Z"/><path class="cls-2" d="M266.37,250.54c-15.54,0-18.1-7.33-18.1-15.87,0-5.12,2.9-17.15,18.78-15.62,5,.51,9.39,2,10.41,7.3l22.54-.19c0-11.61-15.37-16.57-31.41-16.91-28.68-.51-43,10.07-43.71,25.43-.85,21.34,17.76,25.75,39.44,25.75,10.41,0,34.49-3.44,35.34-17.44H277.12C277.12,248,269.27,250.54,266.37,250.54Z"/><polygon class="cls-2" points="134 246 133.16 246 108.44 211 79 211 79 259 98 259 98 224 98.03 224 124.15 259 152 259 152 211 134 211 134 246"/><path class="cls-2" d="M207,233.64v-.17c9-1.54,13.38-6.54,13.38-10.81,0-7.17-10-11.66-27.08-11.66H158v48h35.29c19.12,0,29-4.74,29-13.28C222.26,241.45,218,234.32,207,233.64ZM179,220h7c8.19,0,12.12.83,12.12,4.93,0,3.76-4.78,4.07-13.83,4.07H179Zm5.25,29H179V238h7c8,0,13.15,1.66,13.15,5.76C199.1,247.51,195.17,249,184.25,249Z"/><path class="cls-2" d="M195.51,125.06l-28.12,66.77L251,136v0a45.32,45.32,0,0,0,10.84-10.76C268,116,267.6,101,261.46,91.76a30.43,30.43,0,0,0-26-14.34A31,31,0,0,0,208.84,94Z"/><path class="cls-2" d="M167.86,180.73l41.32-97.49h0a29.81,29.81,0,0,0,2.39-13A31.58,31.58,0,0,0,192.78,42.1c-8.54-4.1-20.15-2.73-27.66,2.22a30.73,30.73,0,0,0-14,28.34l11.61.17c.85.34,2.56.85,2.22,2l-6,3.59a12.26,12.26,0,0,0-5.46,11.78L166,170.15Z"/><path class="cls-2" d="M130,181.24,147.37,75.39a33.72,33.72,0,0,0-.68-12.46c-2.56-10.07-11.61-19.46-21.51-21.85a30.29,30.29,0,0,0-30.9,9.56c-7.51,8.54-9.39,22.37-5,32.78Z"/><path class="cls-2" d="M43.22,132.41,130.29,192,91,96.9a33,33,0,0,0-7.17-10.76,30,30,0,0,0-30.73-7.51A31.91,31.91,0,0,0,32.3,104.42,31.07,31.07,0,0,0,43.22,132.41Z"/><path class="cls-2" d="M34.14,202H138.66L54.15,145.09a31.54,31.54,0,0,0-11.78-5c-10.93-2.22-22,2.38-29.54,11.42a33.4,33.4,0,0,0-3.07,33.34A30,30,0,0,0,34.14,202Z"/><path class="cls-2" d="M255.44,140.08a31.6,31.6,0,0,0-11.78,5L159.15,202H263.63A30.07,30.07,0,0,0,288,184.87,33.36,33.36,0,0,0,285,151.55C277.46,142.5,266.37,137.86,255.44,140.08Z"/></g></g></svg>