<?xml version="1.0" encoding="utf-8"?>
<!-- Generator: Adobe Illustrator 19.1.0, SVG Export Plug-In . SVG Version: 6.00 Build 0)  -->
<svg version="1.1" id="video-icon" xmlns="http://www.w3.org/2000/svg" xmlns:xlink="http://www.w3.org/1999/xlink" x="0px" y="0px"
	 viewBox="0 0 23.4 39.7" style="enable-background:new 0 0 23.4 39.7;" xml:space="preserve">
<style type="text/css">
	.st0{fill:#BBBBBB;}
</style>
<path class="st0" d="M17.4,29.6l6-6.7L11.7,0L0,22.9l6,6.7l-0.9,2.8H3.5v1H5l0,6.4l13.5,0v-6.4h1.2v-1h-1.4L17.4,29.6z M11.6,18.3
	c1.1,0,2,0.9,2,2s-0.9,2-2,2s-2-0.9-2-2S10.5,18.3,11.6,18.3z M1.2,22.7L11.3,2.8v14.5c-1.5,0.1-2.7,1.4-2.7,2.9
	c0,1.6,1.3,2.9,2.9,2.9s2.9-1.3,2.9-2.9c0-1.4-0.9-2.5-2.2-2.8V3.2l9.9,19.5l-5.9,6.6l1,3.1H6.1l1-3.1L1.2,22.7z M17.5,38.7l-11.5,0
	l0-5.4h11.6V38.7z"/>
</svg>
