<?xml version="1.0" encoding="iso-8859-1"?>
<!-- Generator: Adobe Illustrator 19.1.0, SVG Export Plug-In . SVG Version: 6.00 Build 0)  -->
<svg version="1.1" id="Layer_1" xmlns="http://www.w3.org/2000/svg" xmlns:xlink="http://www.w3.org/1999/xlink" x="0px" y="0px"
	 viewBox="0 0 46.359 40.051" style="enable-background:new 0 0 46.359 40.051;" xml:space="preserve">
<path style="fill:#BBBBBB;" d="M46.115,10.389L28.844,10.37V0H0v23.029h4.211l0.012,7.429l7.022-7.228h5.864v8.955H34.31
	l7.866,7.866v-7.733h4.039l0.004-0.384C46.421,10.517,46.421,10.517,46.115,10.389z M10.916,22.454l-5.921,6.095l-0.01-6.296h-4.21
	V0.776h27.292v9.594l-10.96-0.011v12.096H10.916z M28.068,11.134v11.32H17.884v-11.32H28.068z M45.447,31.542H41.4v6.636
	l-6.769-6.769H17.884V23.23h10.96V11.134h16.745C45.607,13.41,45.498,26.038,45.447,31.542z"/>
</svg>
