<?xml version="1.0" encoding="iso-8859-1"?>
<!-- Generator: Adobe Illustrator 19.1.0, SVG Export Plug-In . SVG Version: 6.00 Build 0)  -->
<svg version="1.1" id="strategy-icon" xmlns="http://www.w3.org/2000/svg" xmlns:xlink="http://www.w3.org/1999/xlink" x="0px"
	 y="0px" viewBox="-947 521.012 24.596 39.988" style="enable-background:new -947 521.012 24.596 39.988;" xml:space="preserve">
<path style="fill:#BBBBBB;" d="M-926.153,542.137c2.417-2.336,3.749-5.471,3.749-8.827c0-3.393-1.352-6.553-3.807-8.897
	c-2.454-2.343-5.688-3.546-9.076-3.388c-6.356,0.295-11.498,5.51-11.706,11.873c-0.113,3.448,1.24,6.805,3.711,9.21
	c1.827,1.777,2.833,4.071,2.833,6.458v1.159h-1.202v8.896h3.284c0.674,1.448,2.112,2.379,3.719,2.379
	c1.606,0,3.047-0.945,3.716-2.379h3.178v-8.896h-1.201v-1.261C-928.955,546.13-927.96,543.883-926.153,542.137z M-934.648,560.203
	c-1.168,0-2.23-0.608-2.826-1.583h5.642C-932.426,559.585-933.483,560.203-934.648,560.203z M-928.55,557.824h-12.304v-2.023h5.587
	v-0.797h-5.587v-1.715h3.904v-0.797h-3.904v-1.972h12.304V557.824z M-932.548,549.724v-12.118c0.654,0.812,1.644,1.343,2.765,1.343
	c1.965,0,3.564-1.599,3.564-3.564c0-1.965-1.599-3.564-3.564-3.564c-1.821,0-3.311,1.378-3.522,3.144l-0.04,14.76h-2.025v-14.76
	h-0.002c-0.211-1.765-1.701-3.144-3.522-3.144c-1.965,0-3.564,1.599-3.564,3.564c0,1.965,1.599,3.564,3.564,3.564
	c1.1,0,2.073-0.511,2.727-1.297v12.073h-3.486v-1.159c0-2.604-1.091-5.1-3.074-7.029c-2.311-2.249-3.576-5.388-3.471-8.612
	c0.196-5.951,5.004-10.828,10.947-11.103c3.184-0.146,6.195,0.978,8.489,3.168c2.296,2.192,3.561,5.147,3.561,8.321
	c0,3.139-1.245,6.07-3.506,8.255c-1.963,1.897-3.044,4.347-3.044,6.898v1.261h-2.797V549.724z M-929.783,532.617
	c1.526,0,2.767,1.242,2.767,2.768s-1.242,2.768-2.767,2.768c-1.517,0-2.75-1.227-2.765-2.741v-0.054
	C-932.533,533.844-931.3,532.617-929.783,532.617z M-936.166,535.785c-0.196,1.335-1.338,2.368-2.727,2.368
	c-1.526,0-2.768-1.241-2.768-2.768c0-1.526,1.241-2.768,2.768-2.768c1.389,0,2.531,1.032,2.727,2.368V535.785z"/>
</svg>
