<?xml version="1.0" encoding="utf-8"?>
<!-- Generator: Adobe Illustrator 19.1.0, SVG Export Plug-In . SVG Version: 6.00 Build 0)  -->
<svg version="1.1" id="video-icon" xmlns="http://www.w3.org/2000/svg" xmlns:xlink="http://www.w3.org/1999/xlink" x="0px" y="0px"
	 viewBox="0 0 58.8 41" style="enable-background:new 0 0 58.8 41;" xml:space="preserve">
<style type="text/css">
	.st0{fill:#BBBBBB;}
</style>
<path class="st0" d="M30.9,41c-7,0-14.8-0.2-22.9-0.7C4,40.1,1.1,37.1,0.7,33c-0.9-8.3-0.9-16.7,0-25C1.1,3.9,4,0.9,8,0.7
	C15,0.2,22.1,0,29.2,0c7.1,0,14.4,0.2,21.6,0.7c3.9,0.2,6.9,3.2,7.3,7.3c0.9,8,0.9,16.4,0,25c-0.4,4.1-3.4,7.1-7.3,7.3
	C44.6,40.7,37.9,41,30.9,41z M29.2,1C22.2,1,15,1.2,8,1.7C4.6,1.9,2,4.5,1.7,8.1c-0.9,8.2-0.9,16.5,0,24.8C2,36.5,4.6,39.1,8,39.3
	c8.1,0.4,15.8,0.7,22.9,0.7c7,0,13.7-0.2,19.8-0.7c3.5-0.2,6-2.8,6.4-6.4C58,24.3,58,16,57.1,8.1c-0.4-3.7-3-6.2-6.4-6.5
	C43.5,1.2,36.3,1,29.2,1z M22.8,29.3V11.1l17.4,9.1L22.8,29.3z M23.8,12.8v14.8L38,20.3L23.8,12.8z"/>
</svg>
