<?xml version="1.0" encoding="UTF-8" standalone="no"?>
<svg width="1102px" height="177px" viewBox="0 0 1102 177" version="1.1" xmlns="http://www.w3.org/2000/svg" xmlns:xlink="http://www.w3.org/1999/xlink" xmlns:sketch="http://www.bohemiancoding.com/sketch/ns">
    <!-- Generator: Sketch 3.5.1 (25234) - http://www.bohemiancoding.com/sketch -->
    <title>12-monkeys-lockup</title>
    <desc>Created with Sketch.</desc>
    <defs></defs>
    <g id="Page-1" stroke="none" stroke-width="1" fill="none" fill-rule="evenodd" sketch:type="MSPage">
        <g id="12-monkeys-lockup" sketch:type="MSLayerGroup" fill="#FFFFFF">
            <rect id="Rectangle-path" sketch:type="MSShapeGroup" x="253.5" y="0.2" width="4" height="170"></rect>
            <g id="12-monkeys-lockup-project" transform="translate(293.000000, 21.000000)" sketch:type="MSShapeGroup">
                <path d="M0.4,23.6 C22.7,23.6 27.6,17.2 27.6,3.4 L51,3.4 L51,118.1 L24,118.1 L24,42.2 L0.4,42.2 L0.4,23.6 L0.4,23.6 L0.4,23.6 Z" id="Shape"></path>
                <path d="M89.9,58.8 C103.3,50.8 114,45.4 114,33.9 C114,24.7 108.3,20.9 100.9,20.9 C92.7,20.9 86.3,25.7 86.3,37.6 L59.9,37.6 C59.9,16.8 74.7,0.9 100.7,0.9 C121.8,0.9 140,11.4 140,35.7 C140,55 121.3,66.7 110,73.4 C94.3,83.9 90,87.5 90,96.7 L139.2,96.7 L139.2,118.2 L59.5,118.2 C59.6,80.9 72.2,69.8 89.9,58.8 L89.9,58.8 L89.9,58.8 Z" id="Shape"></path>
                <path d="M277,118.1 L277,75.5 C277,64.8 273.4,58.5 264.9,58.5 C257.4,58.5 251.6,63.3 251.6,78.5 L251.6,118.2 L227.3,118.2 L227.3,75.4 C227.3,64.7 223.9,58.5 215.5,58.5 C207.8,58.5 201.9,63.4 201.9,79 L201.9,118.2 L177.6,118.2 L177.6,39.2 L201.9,39.2 L201.9,50.7 C205.3,43.3 213.7,37.3 224.7,37.3 C238.5,37.3 245.4,43.5 248.6,51.6 C252.7,43.4 261.7,37.3 273.4,37.3 C296.3,37.3 301.1,52.9 301.1,69.6 L301.1,118.3 L277,118.3 L277,118.1 L277,118.1 Z" id="Shape"></path>
                <path d="M306.3,78.6 C306.3,56 322.9,37 350.1,37 C377.6,37 394,56 394,78.6 C394,101.2 377.6,120.2 350.1,120.2 C322.8,120.3 306.3,101.3 306.3,78.6 L306.3,78.6 L306.3,78.6 Z M369.1,78.6 C369.1,67.6 361.6,58.4 350.1,58.4 C338.8,58.4 331.4,67.6 331.4,78.6 C331.4,89.7 338.8,98.8 350.1,98.8 C361.5,98.8 369.1,89.8 369.1,78.6 L369.1,78.6 L369.1,78.6 Z" id="Shape"></path>
                <path d="M400.1,39.1 L425.2,39.1 L425.2,50.6 C429.6,42.1 438.8,37.2 451.1,37.2 C461.3,37.2 469,40.6 473.2,46.2 C478.1,52.3 479.4,60 479.4,71.3 L479.4,118.2 L454.3,118.2 L454.3,77.7 C454.3,66.4 450.9,58.5 440.4,58.5 C430.2,58.5 425.2,66.4 425.2,78.5 L425.2,118.2 L400.1,118.2 L400.1,39.1 L400.1,39.1 L400.1,39.1 Z" id="Shape"></path>
                <path d="M538.2,78.6 L568.9,118.1 L539.1,118.1 L514.8,85 L514.8,118.1 L489.7,118.1 L489.7,3.4 L514.8,3.4 L514.8,72.6 L539.2,39.2 L569,39.2 L538.2,78.6 L538.2,78.6 L538.2,78.6 Z" id="Shape"></path>
                <path d="M586.1,84.7 C586.6,94.2 590.5,102.2 603.6,102.2 C612.3,102.2 616.6,98.3 618.2,93.2 L642.8,93.2 C640.5,108.1 626.4,120.2 603.8,120.2 C576.1,120.2 561.2,103 561.2,78.6 C561.2,55.5 575.8,37 603.2,37 C628,37 643.9,53.7 643.9,73.1 C643.9,76.4 643.9,80 643.1,84.7 L586.1,84.7 L586.1,84.7 L586.1,84.7 Z M586.1,70.3 L619.2,70.3 C619.2,60.1 612.5,53.7 603,53.7 C593.1,53.7 586.1,59.6 586.1,70.3 L586.1,70.3 L586.1,70.3 Z" id="Shape"></path>
                <path d="M660.8,147.8 C654.6,142.6 650,134.8 650,124.2 L675.1,124.2 C675.6,133.1 682,138 690.3,138 C700,138 705.7,134.1 705.7,121.8 L705.7,105.6 C701.3,114.1 692.4,118.9 680.5,118.9 C670,118.9 662,115 657.7,109.4 C652.8,103.3 651.6,96.3 651.6,85 L651.6,39.1 L676.5,39.1 L676.5,79.6 C676.5,90.9 679.9,98.8 690.4,98.8 C700.7,98.8 705.6,90.9 705.6,78.8 L705.6,39.1 L730.7,39.1 L730.7,120.1 C730.7,132.4 726.4,141.9 719.7,147.5 C712.7,153.4 703.6,156 689.9,156 C677.2,156 667.9,153.6 660.8,147.8 L660.8,147.8 L660.8,147.8 Z" id="Shape"></path>
                <path d="M808.9,94.9 C808.9,113.6 792.8,120.3 773.2,120.3 C750.7,120.3 736.8,110 736.8,91.8 L761.4,91.8 C761.4,100.2 766.6,103.4 774,103.4 C780.1,103.4 784.3,101.3 784.3,96 C784.3,89.9 778.1,89.1 763.2,84.2 C750.1,80.1 738.8,76.3 738.8,61.1 C738.8,44.7 752.4,37 773.7,37 C796.6,37 807.8,48.6 807.8,63.7 L783,63.7 C783,57.1 779.6,53.4 772.7,53.4 C767.6,53.4 763.4,55.7 763.4,60.4 C763.4,66.1 770.3,67.1 783.6,71.5 C797.4,75.7 808.9,79.5 808.9,94.9 L808.9,94.9 L808.9,94.9 Z" id="Shape"></path>
            </g>
            <g id="12-monkeys-lockup-logo" transform="translate(0.000000, 36.000000)" sketch:type="MSShapeGroup">
                <path d="M158.3,32.2 L139.6,32.2 L139.6,30.2 C139.6,29 139.6,27.7 139.9,26.5 C140.1,25.6 140.4,24.8 140.5,24.2 C141,23.3 141.3,22.8 142.4,22.2 C143.5,21.6 145.5,20.8 149.7,20.8 L162.5,20.8 L162.5,0.4 L149.7,0.4 C143.6,0.4 138.3,1.5 133.8,3.7 C130.4,5.4 127.6,7.6 125.6,10.2 C122.5,14.1 120.9,18.1 120.2,21.7 C119.4,25.3 119.4,28.2 119.4,30.3 L119.4,85.4 L139.8,85.4 L139.8,51.7 L158.5,51.7 L158.3,32.2" id="Shape"></path>
                <path d="M189.6,117.2 C207.5,117.2 217,104.1 217,91.8 L217,32.4 L197.9,32.4 L197.9,62 C197.9,63.4 197.7,65.3 196.3,66.8 C194.9,68.4 193,69.6 189.9,69.6 C186.6,69.6 184.5,68.5 183.4,66.8 C182.3,65.2 182,63.4 182,62 L182,32.4 L162.5,32.4 L162.5,62.4 C162.5,75 171.8,87.8 187.4,87.8 C190.5,87.8 193.5,87.2 196.4,86.1 L197.8,85.5 L197.8,87.1 L197.8,91.5 C197.8,92.4 197.8,93.7 196.9,95.4 C196,97.1 193.8,98.8 190.4,98.7 C187.3,98.7 185.1,97.3 184,95.9 C182.9,94.5 182.6,93.1 182.6,92.8 L163,92.6 L163.5,95.7 C165.5,106.4 175.3,117.2 189.6,117.2" id="Shape"></path>
                <path d="M87.8,117.2 C105.7,117.2 115.2,104.1 115.2,91.8 L115.2,32.4 L96.1,32.4 L96.1,62 C96.1,63.4 95.9,65.1 94.5,66.8 C93.1,68.4 91.2,69.6 88.1,69.6 C84.8,69.6 82.7,68.5 81.6,66.8 C80.5,65.2 80.2,63.4 80.2,62 L80.2,32.4 L60.7,32.4 L60.7,62.4 C60.7,75 70,87.8 85.6,87.8 C88.7,87.8 91.7,87.2 94.6,86.1 L96,85.5 L96,87.1 L96,91.5 C96,92.4 96,93.7 95.1,95.4 C94.2,97.1 92,98.8 88.6,98.7 C85.5,98.7 83.3,97.3 82.2,95.9 C81.1,94.5 80.8,93.1 80.8,92.8 L61.2,92.6 L61.7,95.7 C63.7,106.4 73.5,117.2 87.8,117.2" id="Shape"></path>
                <path d="M0.5,60.4 C0.5,60.4 0.5,58.7 0.7,57.8 L20,57.8 L20,59 C20,62.4 22,65.7 23.9,67.1 C25.8,68.5 28.4,69 30,69 C34,69 37.9,66.5 37.9,62.6 L37.9,62.3 C37.7,59.3 35.9,57.6 33.1,56.4 C30.6,55.3 26.4,53.4 21.9,51.3 C17.4,49 12.4,46.3 8.5,43.2 C2.9,38.6 0.4,33 0.7,25 C1,18.3 4,12.4 9.4,7.6 C14.8,2.8 21.7,0.9 28.9,0.9 C38.1,0.9 45.7,4.6 50.7,10.5 C55.8,16.7 56.8,22.8 57.1,27.2 L57.1,28 L37.2,28 C37,26 36,23.5 34.9,22.1 C33.5,20.5 31.5,19.5 28.8,19.5 C27.2,19.5 25.5,20 24,20.9 C22.5,21.8 21.4,23.4 21.4,25.4 C21.4,27.6 22.3,29.3 25.3,30.7 C28.1,32.1 36.5,35.8 37.6,36.3 C49.6,41 57.1,48.4 58,60 L58,60.8 C58,64.7 56.9,71.4 52.4,77.1 C48,82.9 40.3,88 30.3,88 C10,87.6 0.5,73.3 0.5,60.4" id="Shape"></path>
            </g>
        </g>
    </g>
</svg>