<?xml version="1.0" encoding="utf-8"?>
<!-- Generator: Adobe Illustrator 20.1.0, SVG Export Plug-In . SVG Version: 6.00 Build 0)  -->
<svg version="1.1" xmlns="http://www.w3.org/2000/svg" xmlns:xlink="http://www.w3.org/1999/xlink" x="0px"
	 y="0px" viewBox="0 0 759.1 169.1" style="enable-background:new 0 0 759.1 169.1;" xml:space="preserve">
<g id="antm-lockup">
<g fill="#ffffff" id="antm-lockup-logo">
		<path class="" d="M204.9,61.6V26.8c0-1.6-1.1-2.3-2.7-2.3h-28.1c-2.3,0-3.4,1-3.4,2.9v34.2c0,1.6-0.6,2.7-2.4,2.7H142V26.8
			c0-1.6-1.2-2.3-2.8-2.3H75.2c-1.8,0-2.8,1.1-3.2,2.4L54.9,82.6c-0.5,1.8-1.4,1.7-1.9,0l-17-54.9c-0.7-2.2-1.4-3.3-3.6-3.3H1.9
			c-2.2,0-2.1,1.4-1.5,2.8l38.3,106.7c0.7,2,1.4,3.5,3.4,3.5h23.7c2,0,2.8-1.6,3.4-3.3l37-103.5c0.7-1.7,1.7-1.1,1.7,0.1v104.8
			c0,1.6,1,2,2,2h29.9c1.1,0,2.3-0.7,2.3-1.8v-38h26.3c1.7,0,2.4,0.8,2.4,2.4v35.4c0,1.6,1.3,2,2.3,2h29.7c1.1,0,2.2-0.7,2.2-1.8
			v-35.6c0-1.4,0.5-2.4,2.4-2.4h28c1.6,0,2.2-0.9,2.2-2V64.3h-30.2C205.2,64.3,204.9,63.1,204.9,61.6z"/>
		<path class="" d="M287.9,24.5h-27c-2.2,0-3.3,1.1-5.6,2.8L239.8,39c-1.6,1.3-2.3,2-2.3,3.7v21.6h16.7c1.5,0,2.4,0.7,2.4,2.2
			v69.1c0,1.6,1,2,2.1,2h29.7c1.1,0,1.7-0.7,1.7-1.8V26.8C290.1,25.2,289.5,24.5,287.9,24.5z"/>
</g>
<g id="divider">
	<rect x="321.3" class="" width="5" height="169.1" fill="#ffffff" />
</g>
<g id="antm-lockup-project">
	<path class="" d="M430.9,137.1l-4.3-13.6h-39.8l-4.3,13.6h-27.7l40-112h23.8l40.5,112H430.9z M406.7,57.1L393,103.2h27.2
		L406.7,57.1z"/>
	<path class="" d="M529.1,98.1v-73h25.8v112h-27l-40.3-72v72h-25.9v-112h27L529.1,98.1z"/>
	<path class="" d="M584.5,47.5h-25.3V25.1h76.6v22.4h-25.4v89.6h-25.9V47.5z"/>
	<path class="" d="M759.1,137.1h-25.3V67.7l-24.2,69.4h-19.2l-25-69.4v69.4h-25.3v-112h29.9L700,103l29.6-77.9h29.4V137.1z"/>
</g>
</g>
</svg>
