<?xml version="1.0" encoding="UTF-8" standalone="no"?>
<svg width="982px" height="152px" viewBox="0 0 982 152" version="1.1" xmlns="http://www.w3.org/2000/svg" xmlns:xlink="http://www.w3.org/1999/xlink" xmlns:sketch="http://www.bohemiancoding.com/sketch/ns">
    <!-- Generator: Sketch 3.5.1 (25234) - http://www.bohemiancoding.com/sketch -->
    <title>ascension-lockup</title>
    <desc>Created with Sketch.</desc>
    <defs></defs>
    <g id="Page-1" stroke="none" stroke-width="1" fill="none" fill-rule="evenodd" sketch:type="MSPage">
        <g id="ascension-lockup" sketch:type="MSLayerGroup" fill="#FFFFFF">
            <path d="M190.3,10.2 L194.3,10.2 L194.3,151.2 L190.3,151.2 L190.3,10.2 Z" id="Shape" sketch:type="MSShapeGroup"></path>
            <g id="ascension-lockup-project" transform="translate(232.000000, 0.000000)" sketch:type="MSShapeGroup">
                <path d="M91,43.7 L91,125.6 L65,125.6 L65,114 C61.1,121.5 50.6,127.6 40,127.6 C16.4,127.6 0.1,109.1 0.1,84.6 C0.1,60.1 16.4,41.6 40,41.6 C50.5,41.6 61.1,47.9 65,55.4 L65,43.7 L91,43.7 L91,43.7 Z M65,84.7 C65,73.5 57.2,63.8 45.5,63.8 C33.8,63.8 26,73.5 26,84.7 C26,96.1 33.8,105.6 45.5,105.6 C57.2,105.6 65,96 65,84.7 L65,84.7 Z M174,101.5 C174,120.9 157.3,127.8 136.9,127.8 C113.6,127.8 99.2,117.1 99.2,98.2 L124.7,98.2 C124.7,106.9 130.1,110.3 137.8,110.3 C144.1,110.3 148.5,108.1 148.5,102.7 C148.5,96.4 142,95.6 126.6,90.5 C113,86.3 101.3,82.3 101.3,66.5 C101.3,49.5 115.4,41.5 137.5,41.5 C161.3,41.5 172.9,53.6 172.9,69.2 L147.2,69.2 C147.2,62.4 143.6,58.5 136.5,58.5 C131.2,58.5 126.8,60.9 126.8,65.8 C126.8,71.7 133.9,72.8 147.7,77.4 C162.1,81.6 174,85.5 174,101.5 L174,101.5 Z M237.8,75.8 C236.8,68.5 232.2,63.6 221.7,63.6 C209.3,63.6 203.5,73.5 203.5,84.7 C203.5,96.1 209.1,105.8 222.7,105.8 C231.7,105.8 235.8,101.9 238,94.9 L264,94.9 C261.5,113.4 247.5,127.9 221.5,127.9 C192.8,127.9 177.5,107.5 177.5,84.7 C177.5,62.1 192.8,41.5 221.5,41.5 C249.2,41.5 262.1,58.2 263.8,75.8 L237.8,75.8 L237.8,75.8 Z M291.8,90.9 C292.3,100.8 296.4,109.1 310,109.1 C319,109.1 323.4,105 325.1,99.7 L350.6,99.7 C348.2,115.2 333.6,127.7 310.1,127.7 C281.4,127.7 265.9,109.9 265.9,84.5 C265.9,60.5 281,41.3 309.4,41.3 C335.1,41.3 351.6,58.6 351.6,78.7 C351.6,82.1 351.6,85.8 350.8,90.8 L291.8,90.8 L291.8,90.9 Z M291.8,76 L326.1,76 C326.1,65.5 319.1,58.8 309.3,58.8 C299.1,58.8 291.8,64.9 291.8,76 L291.8,76 Z M360.8,43.7 L386.8,43.7 L386.8,55.6 C391.4,46.8 400.9,41.7 413.7,41.7 C424.2,41.7 432.2,45.3 436.7,51 C441.8,57.3 443.2,65.3 443.2,77 L443.2,125.6 L417.2,125.6 L417.2,83.6 C417.2,71.9 413.6,63.7 402.7,63.7 C392.2,63.7 386.9,71.9 386.9,84.4 L386.9,125.5 L360.9,125.5 L360.9,43.7 L360.8,43.7 Z M524.9,101.5 C524.9,120.9 508.2,127.8 487.8,127.8 C464.5,127.8 450.1,117.1 450.1,98.2 L475.6,98.2 C475.6,106.9 481,110.3 488.7,110.3 C495,110.3 499.4,108.1 499.4,102.7 C499.4,96.4 492.9,95.6 477.5,90.5 C463.9,86.3 452.2,82.3 452.2,66.5 C452.2,49.5 466.3,41.5 488.4,41.5 C512.2,41.5 523.8,53.6 523.8,69.2 L498,69.2 C498,62.4 494.4,58.5 487.3,58.5 C482,58.5 477.6,60.9 477.6,65.8 C477.6,71.7 484.7,72.8 498.5,77.4 C513,81.6 524.9,85.5 524.9,101.5 L524.9,101.5 Z M546.6,0 C556.1,0 563.4,7.3 563.4,16.5 C563.4,25.5 556.1,33 546.6,33 C537.3,33 529.9,25.5 529.9,16.5 C530,7.3 537.3,0 546.6,0 L546.6,0 Z M533.7,43.7 L559.7,43.7 L559.7,125.6 L533.7,125.6 L533.7,43.7 L533.7,43.7 Z M567.7,84.7 C567.7,61.2 584.9,41.5 613.1,41.5 C641.7,41.5 658.7,61.2 658.7,84.7 C658.7,108.2 641.7,127.9 613.1,127.9 C584.9,127.8 567.7,108.1 567.7,84.7 L567.7,84.7 Z M632.8,84.7 C632.8,73.3 625,63.8 613.1,63.8 C601.4,63.8 593.7,73.3 593.7,84.7 C593.7,96.3 601.4,105.6 613.1,105.6 C625,105.6 632.8,96.2 632.8,84.7 L632.8,84.7 Z M666.7,43.7 L692.7,43.7 L692.7,55.6 C697.3,46.8 706.8,41.7 719.6,41.7 C730.1,41.7 738.1,45.3 742.6,51 C747.7,57.3 749.1,65.3 749.1,77 L749.1,125.6 L723.1,125.6 L723.1,83.6 C723.1,71.9 719.5,63.7 708.6,63.7 C698.1,63.7 692.8,71.9 692.8,84.4 L692.8,125.5 L666.8,125.5 L666.8,43.7 L666.7,43.7 Z" id="Shape"></path>
            </g>
            <g id="ascension-lockup-logo" transform="translate(0.000000, 40.000000)" sketch:type="MSShapeGroup">
                <path d="M112.956,22.806 L99.756,22.806 L99.756,21.406 C99.756,20.506 99.756,19.606 99.956,18.806 C100.056,18.106 100.256,17.606 100.356,17.106 C100.656,16.406 100.956,16.106 101.656,15.706 C102.456,15.306 103.856,14.706 106.856,14.706 L115.956,14.706 L115.956,0.406 L106.856,0.406 C102.556,0.406 98.756,1.206 95.556,2.706 C93.156,3.906 91.156,5.506 89.756,7.306 C87.556,10.106 86.456,12.906 85.856,15.506 C85.256,18.006 85.256,20.106 85.256,21.606 L85.256,60.706 L99.756,60.706 L99.756,36.806 L112.956,36.806 L112.956,22.806 M135.056,83.006 C147.756,83.006 154.456,73.706 154.456,65.006 L154.456,22.806 L140.856,22.806 L140.856,43.806 C140.856,44.806 140.756,46.106 139.756,47.206 C138.756,48.306 137.456,49.206 135.256,49.206 C132.956,49.206 131.356,48.406 130.656,47.206 C129.856,46.106 129.656,44.806 129.656,43.806 L129.656,22.806 L115.856,22.806 L115.856,44.106 C115.856,53.006 122.456,62.106 133.556,62.106 C135.756,62.106 137.856,61.706 139.956,60.906 L140.956,60.506 L140.956,64.706 C140.956,65.406 140.956,66.206 140.256,67.506 C139.556,68.706 138.056,69.906 135.656,69.806 C133.456,69.806 131.856,68.806 131.156,67.806 C130.356,66.806 130.156,65.806 130.156,65.606 L116.256,65.506 L116.556,67.706 C117.956,75.406 124.956,83.006 135.056,83.006 M62.956,83.006 C75.656,83.006 82.356,73.706 82.356,65.006 L82.356,22.806 L68.756,22.806 L68.756,43.806 C68.756,44.806 68.656,46.006 67.656,47.206 C66.656,48.306 65.356,49.206 63.156,49.206 C60.856,49.206 59.256,48.406 58.556,47.206 C57.756,46.106 57.556,44.806 57.556,43.806 L57.556,22.806 L43.756,22.806 L43.756,44.106 C43.756,53.006 50.356,62.106 61.456,62.106 C63.656,62.106 65.756,61.706 67.856,60.906 L68.856,60.506 L68.856,64.706 C68.856,65.406 68.856,66.206 68.156,67.506 C67.456,68.706 65.956,69.906 63.556,69.806 C61.356,69.806 59.756,68.806 59.056,67.806 C58.256,66.806 58.056,65.806 58.056,65.606 L44.156,65.506 L44.456,67.706 C45.856,75.406 52.756,83.006 62.956,83.006 M0.956,42.806 C1.1,-40 0.956,41.606 1.056,40.906 L14.756,40.906 L14.756,41.806 C14.756,44.206 16.156,46.506 17.556,47.506 C18.856,48.506 20.756,48.806 21.856,48.806 C24.756,48.806 27.456,47.006 27.456,44.306 L27.456,44.106 C27.356,42.006 26.056,40.806 24.056,39.906 C22.256,39.106 19.356,37.806 16.156,36.306 C12.956,34.606 9.456,32.806 6.656,30.606 C2.656,27.406 0.956,23.406 1.156,17.806 C1.356,13.106 3.456,8.906 7.356,5.406 C11.256,2.006 16.056,0.706 21.156,0.706 C27.656,0.706 33.056,3.306 36.656,7.506 C40.256,11.906 40.956,16.206 41.156,19.306 L41.156,19.906 L27.056,19.906 C26.956,18.506 26.156,16.706 25.356,15.706 C24.356,14.606 22.956,13.806 21.056,13.806 C19.956,13.806 18.756,14.106 17.656,14.806 C16.556,15.506 15.756,16.606 15.756,18.006 C15.756,19.506 16.456,20.806 18.556,21.806 C20.556,22.806 26.456,25.406 27.256,25.806 C35.756,29.106 41.056,34.406 41.756,42.606 L41.756,43.206 C41.756,46.006 40.956,50.706 37.756,54.806 C34.656,58.906 29.156,62.506 22.056,62.506 C7.756,62.106 0.956,51.906 0.956,42.806" id="Shape"></path>
            </g>
        </g>
    </g>
</svg>