
<svg width="816px" height="170px" viewBox="0 0 816 170" version="1.1" xmlns="http://www.w3.org/2000/svg" xmlns:xlink="http://www.w3.org/1999/xlink">
    <g id="Page-1" stroke="none" stroke-width="1" fill="none" fill-rule="evenodd">
        <g id="ballers-lockup" fill-rule="nonzero" fill="#FFFFFF">
            <g id="divider" transform="translate(307.000000, 0.000000)">
                <rect id="Rectangle-path" x="0.3" y="0" width="5" height="169.1"></rect>
            </g>
            <g id="ballers-lockup-project" transform="translate(351.000000, 27.000000)">
                <path d="M24.9,112.5 L0.4,112.5 L0.4,0.5 L24.9,0.5 L24.9,46.4 C28.6,39.4 38.5,33.4 48.6,33.4 C70.8,33.4 86.2,50.8 86.2,73.9 C86.2,97 70.8,114.4 48.6,114.4 C38.5,114.4 28.6,108.6 24.9,101.6 L24.9,112.5 Z M61.7,74 C61.7,63.4 54.3,54.3 43.5,54.3 C32.3,54.3 24.9,63.4 24.9,74 C24.9,84.7 32.3,93.7 43.5,93.7 C54.3,93.7 61.7,84.7 61.7,74 Z" id="Shape"></path>
                <path d="M174.3,35.4 L174.3,112.5 L149.8,112.5 L149.8,101.6 C146.1,108.6 136.2,114.4 126.3,114.4 C104.1,114.4 88.7,97 88.7,73.9 C88.7,50.8 104.1,33.4 126.3,33.4 C136.2,33.4 146.1,39.3 149.8,46.4 L149.8,35.4 L174.3,35.4 L174.3,35.4 Z M149.8,74 C149.8,63.4 142.4,54.3 131.4,54.3 C120.4,54.3 113,63.4 113,74 C113,84.7 120.4,93.7 131.4,93.7 C142.4,93.7 149.8,84.7 149.8,74 Z" id="Shape"></path>
                <polygon id="Shape" points="186.3 0.5 210.8 0.5 210.8 112.5 186.3 112.5"></polygon>
                <polygon id="Shape" points="222.8 0.5 247.3 0.5 247.3 112.5 222.8 112.5"></polygon>
                <path d="M278.6,79.9 C279.1,89.2 282.9,97 295.7,97 C304.2,97 308.3,93.2 309.9,88.2 L333.9,88.2 C331.7,102.8 317.9,114.6 295.8,114.6 C268.8,114.6 254.2,97.8 254.2,74 C254.2,51.4 268.4,33.4 295.2,33.4 C319.4,33.4 334.9,49.7 334.9,68.6 C334.9,71.8 334.9,75.3 334.1,80 L278.6,80 L278.6,79.9 Z M278.6,65.8 L311,65.8 C311,55.9 304.4,49.6 295.2,49.6 C285.5,49.7 278.6,55.4 278.6,65.8 Z" id="Shape"></path>
                <path d="M398.2,57.7 C394.8,56.9 392.9,56.6 389.6,56.6 C376.2,56.6 367.4,63.6 367.4,82.5 L367.4,112.6 L342.9,112.6 L342.9,35.4 L367.4,35.4 L367.4,47.9 C370.9,40.7 380.2,34.1 390.9,34.1 C393.9,34.1 396,34.4 398.3,35.4 L398.3,57.7 L398.2,57.7 Z" id="Shape"></path>
                <path d="M464.4,89.8 C464.4,108 448.7,114.6 429.5,114.6 C407.6,114.6 394,104.5 394,86.8 L418,86.8 C418,95 423.1,98.2 430.3,98.2 C436.2,98.2 440.4,96.1 440.4,91 C440.4,85.1 434.3,84.3 419.8,79.5 C407,75.5 396,71.8 396,56.9 C396,40.9 409.3,33.4 430.1,33.4 C452.5,33.4 463.4,44.8 463.4,59.5 L439.2,59.5 C439.2,53.1 435.8,49.4 429.1,49.4 C424.1,49.4 420,51.6 420,56.3 C420,61.9 426.7,62.9 439.7,67.2 C453.2,71.1 464.4,74.8 464.4,89.8 Z" id="Shape"></path>
            </g>
            <g id="ballers-lockup-logo" transform="translate(0.000000, 27.000000)">
                <polygon id="Shape" points="50.6 43.8 30.9 43.8 30.9 1.6 0 1.6 0 113.5 30.9 113.5 30.9 72.1 50.6 72.1 50.6 113.5 81.5 113.5 81.5 1.6 50.6 1.6"></polygon>
                <path d="M220.2,0.4 C197.1,0.4 177.2,14.2 168.2,33.9 C168.3,32.7 168.3,31.5 168.3,30.2 C168.3,6.3 144,1.6 135.4,1.6 L88.1,1.6 L88.1,113.5 L137.4,113.5 C137.4,113.5 167,114.8 167,80.6 C167,79.8 167,78.9 166.9,78.2 C175.2,99.6 196,114.8 220.2,114.8 C251.7,114.8 277.4,89.2 277.4,57.6 C277.3,26 251.7,0.4 220.2,0.4 Z M132.1,87.2 L115.7,87.2 L115.7,70.1 L132.1,70.1 C132.1,70.1 138.7,70.1 138.7,78 C138.7,86.6 132.1,87.2 132.1,87.2 Z M132.1,45.8 L115.7,45.8 L115.7,28.9 L132.1,28.9 C132.1,28.9 138.7,28.8 138.7,36.9 C138.7,45 132.1,45.8 132.1,45.8 Z M151.8,56.5 C155.8,55.8 160.3,53.7 163.6,48.8 C163.2,51.6 162.9,54.6 162.9,57.5 C162.9,60.6 163.2,63.6 163.6,66.6 C158.2,56.9 147.9,57.3 151.8,56.5 Z M220.2,85.8 C204.6,85.8 191.9,73.1 191.9,57.5 C191.9,41.9 204.6,29.2 220.2,29.2 C235.8,29.2 248.5,41.9 248.5,57.5 C248.5,73.1 235.7,85.8 220.2,85.8 Z" id="Shape"></path>
                <circle id="Oval" cx="220.2" cy="57.6" r="23"></circle>
            </g>
        </g>
    </g>
</svg>
