<svg width="817px" height="175px" viewBox="0 0 817 175" version="1.1" xmlns="http://www.w3.org/2000/svg" xmlns:xlink="http://www.w3.org/1999/xlink">
    <g id="Page-1" stroke="none" stroke-width="1" fill="none" fill-rule="evenodd">
        <g id="boxing-lockup" fill-rule="nonzero" fill="#FFFFFF">
            <g id="boxing-lockup-project" transform="translate(355.000000, 19.000000)">
                <path d="M25.4,118.4 L0.9,118.4 L0.9,6.4 L25.4,6.4 L25.4,52.3 C29.1,45.3 39,39.3 49.1,39.3 C71.3,39.3 86.7,56.7 86.7,79.8 C86.7,102.8 71.3,120.3 49.1,120.3 C39,120.3 29.1,114.5 25.4,107.5 L25.4,118.4 Z M62.2,79.8 C62.2,69.2 54.8,60.1 44,60.1 C32.8,60.1 25.4,69.2 25.4,79.8 C25.4,90.5 32.8,99.5 44,99.5 C54.8,99.5 62.2,90.5 62.2,79.8 Z" id="Shape"></path>
                <path d="M89.5,79.8 C89.5,57.7 105.7,39.2 132.2,39.2 C159.1,39.2 175.1,57.8 175.1,79.8 C175.1,101.9 159.1,120.4 132.2,120.4 C105.7,120.5 89.5,101.9 89.5,79.8 Z M150.8,79.8 C150.8,69.1 143.4,60.1 132.2,60.1 C121.2,60.1 114,69.1 114,79.8 C114,90.7 121.2,99.5 132.2,99.5 C143.4,99.5 150.8,90.7 150.8,79.8 Z" id="Shape"></path>
                <polygon id="Shape" points="251.6 118.4 223.3 118.4 210.6 96 198 118.4 169.7 118.4 196.3 79.5 170.2 41.3 198.5 41.3 210.6 63 222.8 41.2 251.1 41.2 225.2 79.4"></polygon>
                <path d="M266.3,0.1 C275.3,0.1 282.1,7 282.1,15.6 C282.1,24.1 275.2,31.1 266.3,31.1 C257.5,31.1 250.6,24.1 250.6,15.6 C250.6,7 257.5,0.1 266.3,0.1 Z M254.2,41.3 L278.7,41.3 L278.7,118.4 L254.2,118.4 L254.2,41.3 Z" id="Shape"></path>
                <path d="M291.4,41.3 L315.9,41.3 L315.9,52.5 C320.2,44.2 329.2,39.4 341.2,39.4 C351.1,39.4 358.6,42.8 362.8,48.2 C367.6,54.1 368.9,61.6 368.9,72.7 L368.9,118.5 L344.4,118.5 L344.4,78.9 C344.4,67.9 341,60.2 330.8,60.2 C320.9,60.2 315.9,67.9 315.9,79.7 L315.9,118.4 L291.4,118.4 L291.4,41.3 Z" id="Shape"></path>
                <path d="M461.5,117.9 C461.5,131.8 457.3,140.9 449.3,147 C442.1,152.4 432.3,155.3 418.1,155.3 C403.7,155.3 394.3,151.8 387.9,146.3 C381.2,140.5 377,132.7 376.7,124.2 L401.2,124.2 C401.8,130.8 407.6,137.2 418.2,137.2 C429.7,137.2 437.1,131.8 437.1,119.8 L437.1,106.8 C432.9,113.8 423.5,118.8 413.6,118.8 C391.4,118.8 375.8,102.6 375.8,79.8 C375.8,56.8 390.7,39.3 413.2,39.3 C423,39.3 432.7,44.1 437,52.3 L437,41.3 L461.5,41.3 L461.5,117.9 L461.5,117.9 Z M400.2,79.8 C400.2,90.5 407.6,99.5 418.4,99.5 C429.6,99.5 437,90.5 437,79.8 C437,69.2 429.6,60.1 418.4,60.1 C407.6,60.1 400.2,69.3 400.2,79.8 Z" id="Shape"></path>
            </g>
            <g id="divider" transform="translate(312.000000, 0.000000)">
                <rect id="Rectangle-path" x="0.5" y="0" width="3" height="168.9"></rect>
            </g>
            <g id="boxing-lockup-logo" transform="translate(0.000000, 24.000000)">
                <g id="path3" transform="translate(0.000000, 1.000000)">
                    <path d="M135.2,0.3 C143.7,0.3 168,5 168,28.8 C168,48 158.8,53.7 151.6,55.1 C146.3,56.1 166.7,55.1 166.7,79.2 C166.7,113.3 137.2,112 137.2,112 L87.9,112 L87.9,0.3 L135.2,0.3 Z M115.5,27.6 L115.5,44.5 L131.9,44.5 C131.9,44.5 138.5,43.7 138.5,35.6 C138.5,27.5 131.9,27.6 131.9,27.6 L115.5,27.6 Z M115.5,68.7 L115.5,85.8 L131.9,85.8 C131.9,85.8 138.5,85.1 138.5,76.6 C138.5,68.7 131.9,68.7 131.9,68.7 L115.5,68.7 Z M0,0.3 L0,112 L30.8,112 L30.8,70.7 L50.5,70.7 L50.5,112 L81.3,112 L81.3,0.3 L50.5,0.3 L50.5,42.4 L30.8,42.4 L30.8,0.3 L0,0.3 Z" id="Shape"></path>
                </g>
                <path d="M219.9,114.3 C188.4,114.3 162.8,88.7 162.8,57.2 C162.8,25.7 188.4,0.1 219.9,0.1 C251.4,0.1 277,25.8 277,57.2 C277,88.6 251.3,114.3 219.9,114.3 Z M219.9,29 C204.3,29 191.7,41.7 191.7,57.2 C191.7,72.7 204.4,85.4 219.9,85.4 C235.4,85.4 248.1,72.7 248.1,57.2 C248.1,41.7 235.4,29 219.9,29 Z" id="Shape"></path>
                <circle id="Oval" cx="219.9" cy="57.2" r="23"></circle>
            </g>
        </g>
    </g>
</svg>
