<svg width="1161px" height="222px" viewBox="0 0 1161 222" version="1.1" xmlns="http://www.w3.org/2000/svg" xmlns:xlink="http://www.w3.org/1999/xlink">
    <!-- Generator: Sketch 43.2 (39069) - http://www.bohemiancoding.com/sketch -->
    <desc>Created with Sketch.</desc>
    <defs></defs>
    <g id="Page-1" stroke="none" stroke-width="1" fill="none" fill-rule="evenodd">
        <g id="bridget-lockup" fill-rule="nonzero" fill="#FFFFFF">
            <g id="divider" transform="translate(407.000000, 12.000000)">
                <rect id="Rectangle-path" x="0.8" y="0.4" width="5" height="169.1"></rect>
            </g>
            <g id="bridget-lockup-project" transform="translate(470.000000, 0.000000)">
                <path d="M6.1,4.7 L40.9,4.7 C63.9,4.7 68.1,18.6 68.1,27.4 C68.1,37.8 60.2,44.6 53.5,46.1 C58.9,46.2 68.9,52.6 68.9,65.2 C68.9,74 64.3,88.7 41.3,88.7 L6.1,88.7 L6.1,4.7 L6.1,4.7 Z M37,38.9 C46.5,38.9 48.6,33 48.6,28.8 C48.6,25.1 46.8,19 37,19 L25.4,19 L25.4,38.9 L37,38.9 L37,38.9 Z M25.4,53.2 L25.4,73.8 L37.5,73.8 C47,73.8 49.1,68.2 49.1,63.5 C49.1,59.7 46.9,53.2 37.6,53.2 L25.4,53.2 L25.4,53.2 Z" id="Shape"></path>
                <path d="M117.2,47.5 C114.7,46.9 113.2,46.7 110.7,46.7 C100.6,46.7 94,52 94,66.1 L94,88.7 L75.6,88.7 L75.6,30.8 L94,30.8 L94,40.2 C96.6,34.8 103.6,29.9 111.6,29.9 C113.9,29.9 115.4,30.1 117.1,30.9 L117.1,47.5 L117.2,47.5 Z" id="Shape"></path>
                <path d="M128.2,0 C134.9,0 140.1,5.2 140.1,11.6 C140.1,18 134.9,23.2 128.2,23.2 C121.6,23.2 116.4,17.9 116.4,11.6 C116.5,5.2 121.6,0 128.2,0 Z M119.1,30.8 L137.5,30.8 L137.5,88.6 L119.1,88.6 L119.1,30.8 Z" id="Shape"></path>
                <path d="M188.7,80.5 C185.9,85.8 178.5,90.1 171.1,90.1 C154.4,90.1 142.9,77 142.9,59.7 C142.9,42.4 154.4,29.3 171.1,29.3 C178.5,29.3 186,33.7 188.7,39 L188.7,4.7 L207.1,4.7 L207.1,88.7 L188.7,88.7 L188.7,80.5 Z M188.7,59.8 C188.7,51.9 183.2,45 174.9,45 C166.6,45 161.1,51.8 161.1,59.8 C161.1,67.8 166.6,74.6 174.9,74.6 C183.2,74.5 188.7,67.8 188.7,59.8 Z" id="Shape"></path>
                <path d="M276.8,88.3 C276.8,98.7 273.7,105.6 267.7,110.1 C262.3,114.2 255,116.3 244.3,116.3 C233.5,116.3 226.4,113.7 221.6,109.6 C216.6,105.3 213.4,99.4 213.2,93 L231.6,93 C232.1,97.9 236.4,102.7 244.3,102.7 C252.9,102.7 258.5,98.6 258.5,89.6 L258.5,80 C255.4,85.3 248.3,89 240.9,89 C224.2,89 212.6,76.9 212.6,59.7 C212.6,42.4 223.8,29.3 240.7,29.3 C248,29.3 255.3,32.9 258.6,39 L258.6,30.7 L277,30.7 L277,88.3 L276.8,88.3 Z M230.8,59.8 C230.8,67.8 236.3,74.6 244.5,74.6 C252.9,74.6 258.4,67.9 258.4,59.8 C258.4,51.9 252.9,45 244.5,45 C236.4,45 230.8,51.8 230.8,59.8 Z" id="Shape"></path>
                <path d="M300,64.2 C300.4,71.2 303.2,77 312.8,77 C319.2,77 322.3,74.1 323.5,70.4 L341.5,70.4 C339.8,81.3 329.5,90.2 312.9,90.2 C292.6,90.2 281.7,77.6 281.7,59.7 C281.7,42.8 292.4,29.2 312.4,29.2 C330.5,29.2 342.2,41.4 342.2,55.6 C342.2,58 342.2,60.6 341.6,64.1 L300,64.1 L300,64.2 Z M300,53.6 L324.2,53.6 C324.2,46.2 319.3,41.5 312.3,41.5 C305.1,41.5 300,45.8 300,53.6 Z" id="Shape"></path>
                <path d="M383.6,88.7 C380.8,89.2 376.8,89.7 371.4,89.7 C362.8,89.7 350.9,88.6 350.9,69.3 L350.9,44.5 L341.8,44.5 L341.8,30.8 L350.9,30.8 L350.9,13.7 L369.1,13.7 L369.1,30.9 L382.3,30.9 L382.3,44.6 L369.1,44.6 L369.1,65.2 C369.1,73.7 372.5,75 377,75 C379.3,75 381.9,74.9 383.6,74.6 L383.6,88.7 Z" id="Shape"></path>
                <path d="M61.3,164.8 C61.3,184.7 49.8,195.8 30.6,195.8 C10.3,195.8 -5.68434189e-14,182.2 -5.68434189e-14,164.7 L19.4,164.7 C19.4,173 23.1,179.1 30.6,179.1 C38,179.1 42,173.7 42,164.8 L42,109.7 L61.3,109.7 L61.3,164.8 L61.3,164.8 Z" id="Shape"></path>
                <path d="M65.7,164.8 C65.7,148.2 77.8,134.3 97.7,134.3 C117.9,134.3 129.9,148.2 129.9,164.8 C129.9,181.4 117.9,195.3 97.7,195.3 C77.8,195.2 65.7,181.3 65.7,164.8 Z M111.7,164.8 C111.7,156.8 106.2,150 97.8,150 C89.5,150 84.1,156.7 84.1,164.8 C84.1,173 89.5,179.6 97.8,179.6 C106.2,179.5 111.7,172.9 111.7,164.8 Z" id="Shape"></path>
                <path d="M135,135.8 L153.4,135.8 L153.4,144.2 C156.6,138 163.4,134.4 172.4,134.4 C179.8,134.4 185.5,136.9 188.6,141 C192.2,145.4 193.2,151.1 193.2,159.4 L193.2,193.7 L174.8,193.7 L174.8,164 C174.8,155.7 172.3,150 164.6,150 C157.2,150 153.4,155.8 153.4,164.6 L153.4,193.6 L135,193.6 L135,135.8 Z" id="Shape"></path>
                <path d="M215.7,169.2 C216.1,176.2 218.9,182 228.5,182 C234.9,182 238,179.1 239.2,175.4 L257.2,175.4 C255.5,186.3 245.2,195.2 228.6,195.2 C208.3,195.2 197.4,182.6 197.4,164.7 C197.4,147.8 208.1,134.2 228.1,134.2 C246.2,134.2 257.9,146.4 257.9,160.6 C257.9,163 257.9,165.6 257.3,169.1 L215.7,169.1 L215.7,169.2 Z M215.7,158.6 L240,158.6 C240,151.2 235.1,146.5 228.1,146.5 C220.9,146.5 215.7,150.8 215.7,158.6 Z" id="Shape"></path>
                <path d="M312.8,176.6 C312.8,190.3 301,195.2 286.6,195.2 C270.2,195.2 260,187.6 260,174.3 L278,174.3 C278,180.4 281.8,182.8 287.2,182.8 C291.6,182.8 294.8,181.2 294.8,177.4 C294.8,173 290.2,172.4 279.3,168.8 C269.7,165.8 261.4,163 261.4,151.9 C261.4,139.9 271.4,134.3 287,134.3 C303.8,134.3 312,142.8 312,153.9 L293.9,153.9 C293.9,149.1 291.4,146.3 286.3,146.3 C282.6,146.3 279.5,148 279.5,151.5 C279.5,155.7 284.5,156.4 294.3,159.7 C304.4,162.6 312.8,165.4 312.8,176.6 Z" id="Shape"></path>
                <path d="M327.6,104.9 C335.3,104.9 340.4,110.9 340.4,119.5 C340.4,136.9 331.8,143.1 316.8,143.3 L316.8,136.2 C321.7,136.2 325,135 327.1,133.2 C329.2,131.4 330.3,129.1 330.6,126.8 C330.2,127.2 328.9,127.6 327.6,127.6 C320.6,127.6 316.2,122.6 316.2,116.4 C316.2,110 321.2,104.9 327.6,104.9 Z" id="Shape"></path>
                <path d="M396.6,176.6 C396.6,190.3 384.8,195.2 370.4,195.2 C354,195.2 343.8,187.6 343.8,174.3 L361.8,174.3 C361.8,180.4 365.6,182.8 371,182.8 C375.4,182.8 378.6,181.2 378.6,177.4 C378.6,173 374,172.4 363.1,168.8 C353.5,165.8 345.2,163 345.2,151.9 C345.2,139.9 355.2,134.3 370.8,134.3 C387.6,134.3 395.8,142.8 395.8,153.9 L377.7,153.9 C377.7,149.1 375.2,146.3 370.1,146.3 C366.4,146.3 363.3,148 363.3,151.5 C363.3,155.7 368.3,156.4 378.1,159.7 C388.2,162.6 396.6,165.4 396.6,176.6 Z" id="Shape"></path>
                <path d="M424.5,109.7 L459.3,109.7 C482.3,109.7 486.5,123.6 486.5,132.4 C486.5,142.8 478.6,149.6 471.9,151.1 C477.3,151.2 487.3,157.6 487.3,170.2 C487.3,179 482.7,193.7 459.7,193.7 L424.5,193.7 L424.5,109.7 L424.5,109.7 Z M455.5,143.9 C465,143.9 467.1,138 467.1,133.8 C467.1,130.1 465.3,124 455.5,124 L443.9,124 L443.9,143.9 L455.5,143.9 Z M443.8,158.2 L443.8,178.8 L456,178.8 C465.5,178.8 467.6,173.2 467.6,168.5 C467.6,164.7 465.4,158.2 456.1,158.2 L443.8,158.2 L443.8,158.2 Z" id="Shape"></path>
                <path d="M553.2,135.8 L553.2,193.6 L534.8,193.6 L534.8,185.4 C532,190.7 524.6,195 517.2,195 C500.5,195 489,181.9 489,164.6 C489,147.3 500.5,134.2 517.2,134.2 C524.6,134.2 532.1,138.6 534.8,143.9 L534.8,135.6 L553.2,135.6 L553.2,135.8 Z M534.8,164.8 C534.8,156.9 529.3,150 521,150 C512.7,150 507.2,156.8 507.2,164.8 C507.2,172.8 512.7,179.6 521,179.6 C529.3,179.5 534.8,172.8 534.8,164.8 Z" id="Shape"></path>
                <path d="M580.5,193.7 L562.1,193.7 L562.1,109.7 L580.5,109.7 L580.5,144.1 C583.3,138.8 590.7,134.4 598.3,134.4 C615,134.4 626.5,147.5 626.5,164.8 C626.5,182.1 615,195.2 598.3,195.2 C590.7,195.2 583.3,190.9 580.5,185.6 L580.5,193.7 Z M608.1,164.8 C608.1,156.9 602.6,150 594.4,150 C586,150 580.5,156.8 580.5,164.8 C580.5,172.8 586,179.6 594.4,179.6 C602.6,179.5 608.1,172.8 608.1,164.8 Z" id="Shape"></path>
                <path d="M639.2,215.4 C634.6,211.6 631.3,205.9 631.3,198.1 L649.7,198.1 C650.1,204.6 654.7,208.2 660.9,208.2 C668,208.2 672.2,205.3 672.2,196.3 L672.2,184.4 C669,190.6 662.5,194.1 653.7,194.1 C646,194.1 640.1,191.2 637,187.1 C633.4,182.7 632.6,177.5 632.6,169.2 L632.6,135.7 L650.8,135.7 L650.8,165.3 C650.8,173.6 653.3,179.3 661,179.3 C668.6,179.3 672.2,173.5 672.2,164.7 L672.2,135.7 L690.6,135.7 L690.6,195 C690.6,204 687.5,211 682.6,215 C677.4,219.3 670.8,221.2 660.8,221.2 C651.2,221.4 644.4,219.6 639.2,215.4 Z" id="Shape"></path>
            </g>
            <g id="bridget-lockup-logo" transform="translate(0.000000, 18.000000)">
                <polygon id="Shape" points="250.9 53.3 250.7 53 250.7 53.2"></polygon>
                <polygon id="Shape" points="138.5 153.7 138.6 153.8 138.6 153.7 138.5 153.6"></polygon>
                <polygon id="Shape" points="139.2 159.7 139.4 159.7 139.4 159.6 139.1 159.5"></polygon>
                <polygon id="Shape" points="102.1 49.8 102 49.9 102.2 50.1 102.2 50.1"></polygon>
                <polygon id="Shape" points="139.9 161.4 140 161.4 139.9 161.3"></polygon>
                <path d="M149.6,172.5 L149,172.1 C149.1,172.4 149.3,172.5 149.6,172.5 Z" id="Shape"></path>
                <polygon id="Shape" points="139.4 160.7 139.6 160.7 139.4 160.6"></polygon>
                <polygon id="Shape" points="104.7 42.2 104.5 42.2 104.4 42.9 104.4 43 104.5 43"></polygon>
                <polygon id="Shape" points="140.5 158.4 140.3 158.4 140.4 158.5 140.5 158.5"></polygon>
                <polygon id="Shape" points="168.8 29.7 168.6 29.9 168.7 29.9 168.9 29.7"></polygon>
                <polygon id="Shape" points="165.6 29.7 165.6 30 165.7 29.9"></polygon>
                <polygon id="Shape" points="151.5 172.2 151.5 172.1 150.9 172"></polygon>
                <polygon id="Shape" points="165.9 30 166 29.9 165.9 29.9"></polygon>
                <path d="M180.4,29.1 C181.2,29.3 184.6,30 184.9,30.3 L184.7,30.3 C185,30.4 185.4,30.6 185.7,30.7 L185.8,30.5 L186.5,30.8 C186.1,31 185.6,31.1 184.9,31 L184.8,31.2 C185.9,31.6 186.7,31.1 187.6,30.8 L187.8,31.1 C187.8,31.5 187.5,31.7 187.3,31.8 L187.5,32.1 L188.2,31.9 C188.1,32.1 188.1,32.2 188,32.5 C188.3,32.6 188.5,32.6 188.8,32.7 C189.2,32.5 189.3,32.1 189.6,31.9 L189.6,31.5 C189.3,31.4 189.3,31.7 188.9,31.7 L188.8,31.5 L189.4,31.1 L189.5,31 L189.4,30.9 C188.8,30.9 188.6,31.1 188.3,31.3 L188.2,31.1 L188,31 C188.4,30.7 189.1,30.5 189.2,30.4 L189.3,30.3 C189.1,30.1 188.6,30.1 188.2,30.1 C188.3,29.8 188.2,30 188.1,29.6 C188.4,29.6 188.5,29.5 188.7,29.3 C188.4,29 187.8,28.7 187.4,28.8 C187.2,28.6 187.4,28.5 187,28.3 L186.8,28.3 L186.8,28.5 L186.5,28.5 C186.2,28.5 186.3,28.5 186.4,28.2 L186.2,28.3 L185.7,28.1 L185.8,28 L185.5,28 L185.4,27.9 L185.4,27.7 L186,27.7 L186,27.7 C185.7,27.5 185.4,27.5 185,27.2 C184.7,27.3 184.4,27.4 184.1,27.6 C184.2,27.1 185.1,26.6 185.6,26.5 L185.8,26.3 L185.4,26.1 L185.4,26 L186.1,26.1 L186.2,26 L186.2,25.9 L185.4,25.7 L184.5,25.7 C184.3,25.7 183.8,26.1 183.5,26.2 C183,26.5 182.7,27.2 182,27.3 L182,27.6 L182,27.7 L181.7,27.6 C181.4,27.7 181.2,27.9 181,28.1 L181.3,28.4 C180.9,28.3 180.4,28.6 179.9,28.6 L180.4,29.1 Z" id="Shape"></path>
                <polygon id="Shape" points="161.8 32.5 161.5 32.6 161.5 32.7 162 32.7 162 32.7"></polygon>
                <polygon id="Shape" points="159.7 32.6 159.8 32.7 159.8 32.7"></polygon>
                <path d="M158.8,9.1 L158.8,9.4 C159.6,9.3 160.3,9.4 160.9,9.2 L161,9.1 C160.5,9 160.1,8.9 159.6,8.9 C159.4,8.9 159.1,9 158.8,9.1 Z" id="Shape"></path>
                <polygon id="Shape" points="162.7 32.9 162.4 32.8 162.4 32.9 162.6 33 162.7 33"></polygon>
                <polygon id="Shape" points="122.1 43.4 122.3 43.3 122.2 43.2"></polygon>
                <path d="M181,142.7 C181,141.9 181.9,142.2 182.5,141.9 C182.9,141.6 182.9,140.7 183.5,140.4 C184.4,139.9 184.4,139.6 185.1,139.2 C185.4,139 185.7,139 185.9,138.7 C186.6,137.6 186.1,137.1 187.5,136.6 C187.7,135.8 187.9,135.3 188.4,134.7 L189.1,133.9 C189.3,133.2 189.2,132.7 189.4,132.1 C189.7,131.4 190.2,131 190.3,130.2 C190.9,129.9 191.5,130 192.1,129.6 C193,128.9 193.8,128.1 194.7,127.4 C195,127.3 195.3,127.3 195.6,127.2 C196,126.9 196.4,126.6 196.8,126.3 C198.2,125.4 199.3,124.6 199.9,122.8 L199.9,121.8 C200.1,121.2 200.8,117 200.8,117 C162,116.9 133.2,117.4 133.2,117.4 C133.8,118.4 134.3,119.8 135.1,120.6 C136.7,122.3 139.4,123.2 140.4,125.3 C140.9,125.8 141.4,126.3 141.9,126.7 L141.8,127.4 C141.9,128.1 142.2,129 142.1,129.7 C142.1,130 141.9,130.4 142,130.8 L142.2,131.5 C142.1,132.2 141.8,132.9 141.8,133.7 C141.6,133.8 141.7,133.7 141.4,133.7 L141.4,134.4 L141.6,134.4 L141.4,135.7 C141.5,136.1 141.5,136.6 141.6,137 L141.2,137.5 L141.3,138 C141.2,138.9 141,139.7 140.8,140.2 C140.5,140.8 140.8,141.3 140.3,141.6 C140.4,142.3 140.6,142.7 140.6,143.5 L140.2,143.5 C140.1,145.2 140.9,146.1 140.4,147.4 L140.6,148.1 C140.2,149.2 139.7,150.3 139.6,151.6 L139.4,151.5 L139.4,152.2 L138.9,152 L138.8,152.1 C138.9,153 139.4,154 139.7,154.8 C139.7,155.9 139,156.2 139.8,157.4 L139.8,157.6 L139.5,157.4 C139.3,157.9 139.6,158.4 139.5,159 C139.7,159.2 139.9,159.3 140.2,159.4 L140.3,159.3 C140.4,158.8 140.4,158.1 140.1,157.7 L140.2,157.6 L140.6,157.8 L140.6,157.8 L140.5,157.6 L140.6,157.4 L140.9,157.7 L140.8,157.9 C141,158.1 141.2,158.6 140.9,158.8 L141.2,159 C141.1,159.9 141.2,160.5 141.2,161.4 L141.1,161.4 C141,161.1 140.8,160.4 140.9,160.3 C140.7,160 140.5,159.9 140.2,159.7 C140,159.9 139.9,160.3 139.9,160.6 L140.3,161 L140.3,161.7 L139.9,161.7 L139.9,161.8 L140.1,162.1 L139.7,162.4 L139.7,162.6 L140.1,162.8 L140.3,162.6 L141.2,163.1 L141,163.1 L141.2,163.3 L141.1,163.8 C140.9,163.7 140.9,163.6 140.6,163.6 L140.6,163.6 L140.8,163.8 L140.6,164 C140.9,164.5 140.9,165.2 141.3,165.7 L142,166.1 L141.6,166 L141.6,166 L141.8,166.6 L142.1,166.7 L142.3,166.3 L142.5,166.6 L142.3,166.6 L142.2,166.6 C142.4,166.9 142.4,167 142.5,167.5 L143.1,167.3 L143.4,167.5 L143.3,167.7 L142.8,167.5 L142.8,167.6 C143,167.9 143.2,168.1 143.6,168.3 L143.5,168.1 C143.8,168.3 144.1,168.6 144.4,168.8 L144.4,168.8 L143.6,168.4 C143.9,168.8 144.2,169 144.6,169.1 L144.5,169.3 C144.9,169.7 146.5,170.8 147,170.7 L146.9,170.9 C147.4,171.4 148.9,171.9 149.7,172.1 L149.7,172.1 L149.3,171.7 C149.7,171.8 149.9,171.8 150.2,171.9 L150.2,171.9 L150.2,171.9 L150.2,171.9 L150.4,172 L150.3,171.9 L150.6,172.1 L150.6,171.9 L151.3,172 L151.4,172 L151.4,171.9 L151.4,171.7 C150,171.5 149.6,170.4 148.5,170 L148.7,169.8 C148.4,169.5 148,169.5 147.7,169.1 L147.6,169.1 L147.8,169 L148.6,169.3 L148.6,169.2 C148.2,168.7 147.6,168.3 147.5,167.5 L147.6,167.4 L148.3,167.2 C148.5,167.1 148.4,166.8 148.4,166.4 C148.7,166.2 149.4,166 149.6,165.7 C149.7,165.6 149.7,165.3 149.6,164.9 C148.8,164.4 147.6,164.2 147.8,163 C148.2,162.7 148.7,162.6 149.2,162.8 L149.4,162.8 L149.3,162.6 L149.6,162.3 C149.6,162 149.5,161.7 149.4,161.4 C149.6,161.1 149.8,161 150.3,160.9 L149.7,160.4 L149.6,160.4 L150,160.2 L150.5,160.8 L150.9,160.8 L151.1,160.6 C151.1,160.3 151.1,160.1 150.9,160 L150.8,159.8 L150.2,159.9 L150.5,160.1 L150.5,160.1 L150.1,160 C149.9,159.9 149.9,159.7 149.6,159.6 C149.4,159.3 149.4,158.7 149.3,158.3 C149.7,157.8 150.5,158.8 151.1,158.9 L152.3,158.9 L152.5,158.3 L152.3,158.4 L152.1,158.2 C152.3,157.8 152.7,157.5 152.5,157 L152.7,157.1 L152.7,157.1 L152.6,156.8 C153.3,157.1 156.5,157.6 157.4,157.1 C157.6,157 158.4,156.1 158.6,155.8 L158.6,155.1 C158.2,155 158,154.9 157.9,154.4 L158.3,154 C158.1,153.1 157.2,153 156.8,152.3 L157,152 L157.2,152 C157.3,152.2 157.5,152.3 157.6,152.6 C157.9,152.7 158.2,152.7 158.6,152.8 C158.9,153 159.2,153.6 159.6,153.7 C159.9,153.8 160.1,153.6 160.5,153.7 C160.7,153.8 160.9,154.1 161.3,154.1 C162.3,154 162.5,153.5 163.1,153.1 L164.2,152.6 C164.5,152.3 164.7,151.9 165,151.6 C165.7,151.3 166.3,151 167,150.7 C167.8,150.2 168.2,149.2 168.9,148.7 C169.8,148 171,147.9 171.3,146.6 L171.1,146.5 C171.2,146 171.3,145.3 171.5,144.7 C171.7,144.1 175.3,142.4 176.2,142.6 L176.8,143.1 L176.9,142.7 L176.7,142.6 L176.7,142.5 C177.2,142.4 177.6,141.7 178.1,141.9 L178.1,141.6 L178.1,141.4 C179,141.4 180.8,141.8 181.7,142.2 L181,142.7 Z M144.5,169.1 L144.5,169.1 L144.4,168.9 L144.6,169 L144.5,169.1 Z M144.9,169.5 L145.2,169.3 L145.4,169.4 L145.5,169.4 C145.4,169.7 145.3,169.6 144.9,169.5 Z M146.3,171 L146.2,170.9 L146.3,170.9 L146.3,171 Z M147,170.1 L147,170.1 L146.6,170.2 L146.6,170.2 L146.9,170.6 L146.4,170 L146.3,169.9 L146.2,170.3 L146,170.3 C146,170.1 145.9,169.7 145.8,169.3 C146.2,169.4 146.1,169.5 146.2,169.9 C146.5,170.1 146.6,170.1 147,170.1 Z M146.6,169.4 L146.6,169.4 L146.5,169.6 L146.3,169.4 L146.2,169.4 L146.3,169.3 L146.6,169.4 Z M151.3,157.2 L151.6,157.6 L151.6,157.7 L151.3,157.2 Z M165.5,151 L165.5,151.3 C165.2,151.5 164.9,151.7 164.4,151.8 L164.1,151.7 L164.1,151.6 C164.6,151.2 165.2,150.9 165.5,150.3 L166.2,150.2 L166.2,150.7 C166.1,150.8 165.9,150.9 165.5,151 Z M169.9,147.5 L169.9,147.3 L169.9,147.5 L169.9,147.5 Z M170,147.2 L170,147 L170,147 L170,147.2 Z M179.2,142.3 L179.3,142.1 L179.5,142.1 L179.2,142.3 Z" id="Shape"></path>
                <path d="M241.2,48.8 L241.3,48.9 L241.3,48.9 C241.3,48.2 240.9,46.8 240.4,46.5 L240.5,46.9 L240.2,47.1 C240.3,47.7 240.8,48.5 241.2,48.8 Z" id="Shape"></path>
                <path d="M173.9,24.7 C175,25.4 175.8,26 177.3,26.5 L177.4,26.5 L177.4,26.3 C176.7,25.6 175.3,24.7 173.9,24.7 L173.9,24.7 Z" id="Shape"></path>
                <polygon id="Shape" points="250.2 51.6 250.4 51.8 250.4 51.6 250.2 51.5"></polygon>
                <path d="M242.9,52.4 C242.7,51.2 242.2,50 241.6,49.2 L241.5,49.1 L241.4,49.6 L241,49.6 C241,50.2 241.6,50.7 241.8,51.2 C242,51.6 241.8,52 241.9,52.3 C242.1,52.4 242.1,52.6 242.5,52.7 L242.5,52.3 L242.9,52.4 L242.9,52.4 Z" id="Shape"></path>
                <polygon id="Shape" points="162.8 31.8 162.7 31.8 162.7 31.9"></polygon>
                <polygon id="Shape" points="249.8 51.6 249.9 51.5 249.7 51.2 249.8 51.5 249.6 51.3"></polygon>
                <polygon id="Shape" points="249.6 50.5 249.7 50.6 249.6 50.3"></polygon>
                <polygon id="Shape" points="244.5 46.9 244.4 46.8 244.4 46.9"></polygon>
                <polygon id="Shape" points="241.2 46.8 241.1 46.9 241.1 47 241.4 47"></polygon>
                <polygon id="Shape" points="177.6 142.4 177.8 142.4 177.8 142.3 177.6 142.2 177.5 142.3"></polygon>
                <path d="M154.1,17.1 C154.2,17.4 155,17.6 155.3,17.7 L155.4,17.7 L155.4,17.2 C155.1,17.1 154.8,17 154.4,17 L154.1,17.1 Z" id="Shape"></path>
                <polygon id="Shape" points="180.8 27.9 180.7 27.9 180.7 28.1 181.4 28.1 181.1 27.9"></polygon>
                <polygon id="Shape" points="249.5 54.1 249.6 54.3 249.8 54.4 249.8 54.3 249.5 53.7"></polygon>
                <polygon id="Shape" points="178.1 142.3 178 142.3 178 142.3"></polygon>
                <polygon id="Shape" points="250.2 50.9 250 50.7 250.1 50.9"></polygon>
                <polygon id="Shape" points="250.1 54.9 250.1 54.7 249.8 54.6 249.9 54.8"></polygon>
                <path d="M173.5,28 L172.9,28.2 L172.9,28.3 C173.4,28.8 173.9,29.1 174.7,29.3 L174.8,29.5 L175.2,29.8 C175.7,29.7 175.6,29.5 176.3,29.5 L176.3,29.4 L176.3,29.4 C176,29.3 173.9,28.8 173.9,28.8 L173.8,28.5 C173.6,28.3 173.7,28.4 173.8,28.1 L173.5,28 Z" id="Shape"></path>
                <polygon id="Shape" points="251.7 56.9 251.8 57.2 251.9 57.1"></polygon>
                <polygon id="Shape" points="218.2 26.7 217.9 26.6 217.5 27 217.8 27.4 218 27.4 218.3 27.1"></polygon>
                <polygon id="Shape" points="183 21.2 183.1 21.2 183.1 21.2 183.1 21.2 182.9 21.1"></polygon>
                <polygon id="Shape" points="178.2 8.4 178.1 8.3 178.1 8.4"></polygon>
                <polygon id="Shape" points="234.2 30.8 234.3 31 234.7 31.1"></polygon>
                <polygon id="Shape" points="180.4 18.9 180.5 18.8 180.2 18.7"></polygon>
                <polygon id="Shape" points="219.1 28.3 218.9 28.2 219 28.4"></polygon>
                <polygon id="Shape" points="219 28.8 219 28.8 219.1 28.6 219 28.6 218.9 28.7 218.9 28.7"></polygon>
                <path d="M176.7,13.2 L176.7,13.2 L177.3,13.6 L177.6,13.4 L177.5,13.1 L177.1,13 C177,13.2 177.1,13.2 176.7,13.2 Z" id="Shape"></path>
                <polygon id="Shape" points="230.9 33.4 230.9 33.5 231 33.5"></polygon>
                <polygon id="Shape" points="230.6 28.3 230.7 28.5 230.8 28.5"></polygon>
                <polygon id="Shape" points="218.8 28.9 218.9 28.9 218.8 28.8"></polygon>
                <polygon id="Shape" points="166.2 9.6 166.2 9.5 166.1 9.3 165.6 9.2 166 9.6"></polygon>
                <polygon id="Shape" points="165.3 8.9 165.3 9.1 165.7 9.1 165.7 9"></polygon>
                <polygon id="Shape" points="176.6 13.1 176.6 13 176.3 12.9"></polygon>
                <polygon id="Shape" points="164.8 9.6 165.2 9.6 165.3 9.6 165.3 9.4 164.5 9.2 164.4 9.3"></polygon>
                <path d="M169.7,7.1 L170,6.8 L170,6.7 C169.5,6.6 169.2,6.4 168.5,6.5 L167.8,6.7 L167.7,6.9 L167.7,6.9 C168.2,7.1 169.3,7.4 169.7,7.1 Z" id="Shape"></path>
                <polygon id="Shape" points="168.4 10.6 167.8 10.4 168.2 10.6"></polygon>
                <polygon id="Shape" points="173.1 13.5 173 13.6 173.7 13.7 173.8 13.6 173.5 13.4 173.3 13.4"></polygon>
                <polygon id="Shape" points="171.7 12.6 171.6 12.6 171.6 12.7"></polygon>
                <polygon id="Shape" points="170.2 10.1 170.2 10 170.1 10 170.1 10.1"></polygon>
                <polygon id="Shape" points="219.7 29.2 219.6 29.3 219.6 29.3 219.7 29.4 219.8 29.3"></polygon>
                <polygon id="Shape" points="184.3 31 184.4 31.1 184.5 31 184.3 30.9"></polygon>
                <polygon id="Shape" points="184.3 30.7 184.4 30.9 184.5 30.8"></polygon>
                <polygon id="Shape" points="184.5 31.1 184.5 31.2 184.6 31.1"></polygon>
                <polygon id="Shape" points="151.3 39.1 151.5 39.1 151.4 39"></polygon>
                <polygon id="Shape" points="187.7 30.9 187.6 30.9 187.4 31 187.3 31.2 187.5 31.2 187.7 31"></polygon>
                <polygon id="Shape" points="186.7 25.4 186.6 25.6 186.8 25.4"></polygon>
                <polygon id="Shape" points="188.5 29.7 188.4 29.6 188.4 29.7"></polygon>
                <polygon id="Shape" points="186.2 26.6 186.3 26.5 186.2 26.5"></polygon>
                <path d="M187.8,28.4 L187.8,28.6 L188.2,28.6 C188,28.4 188.1,28.4 187.8,28.4 Z" id="Shape"></path>
                <polygon id="Shape" points="163.1 11.3 163.1 11.3 163.1 11.2 162.7 11.2 162.8 11.3"></polygon>
                <polygon id="Shape" points="222.2 31.5 222.3 31.6 222.5 31.6 222.6 31.4 222.3 31.2"></polygon>
                <path d="M218.3,27.7 L219.4,28.2 L219.5,28.4 L219.2,28.5 C219.3,28.8 219.4,28.8 219.4,29 L219.9,28.9 L219.9,28.7 L219.9,28.6 L220,28.6 C220.1,29.1 220.4,29.5 220.5,30.1 L220.7,30.1 L220.8,30 L220.7,29.8 L221,30 L221.1,30 L220.9,29.5 L221.3,29.8 C221.4,30 221.4,30.2 221.3,30.5 L221.8,30.9 L221.9,30.9 L221.8,30.7 L221.8,30.7 L222.3,30.9 L222.3,30.7 C222.6,30.8 222.8,30.7 223,30.5 C223.4,30.9 223.2,31.6 224,31.5 C224,31.9 224.1,32.1 224.3,32.3 C223.9,32.6 223.5,32.4 223.1,32.3 C223.2,32.6 223.3,32.6 223.5,32.7 L223.3,32.9 L223.4,33 L223.8,32.8 L224.2,33.3 C224.1,33.6 223.9,33.7 223.5,33.8 L223.4,34 L223.9,34.4 C224.4,34.1 224.9,34.5 225.5,34.7 L225.9,34.5 L225.9,34.8 L224.9,34.8 C224.9,35.2 224.6,35.8 224.2,36.1 L224.2,36.2 L224.8,36.3 C224.9,36.1 224.9,35.9 225.2,35.9 L226,36 L226.1,35.4 L227.8,35.6 L228,35.6 L227.9,35.4 C228.7,35.4 229.1,35.4 229.7,35.1 L229.7,35 L229.6,34.7 L228.9,34.6 C229,34.4 229.3,34.1 229.2,33.7 C229.1,33.2 228.2,32.2 227.6,32.8 L227.4,32.8 C227.1,32.2 226.6,31.4 225.8,30.9 L224.9,30.5 C224.1,29.7 223.7,29.1 222.5,29.1 L222.9,28.8 L222.6,28.6 C222.8,28.2 222.6,27.9 222.6,27.5 C222.1,27.1 221.3,27.2 220.7,27.3 C220.7,27 220.8,27.1 220.5,27 L220.8,26.5 L220.7,26.2 C220.2,26.1 219.7,26.3 219.2,26.1 L219.2,26.4 L219.3,26.8 L219.2,26.8 L219,26.9 L219.3,27.4 L219.3,27.4 L218.6,26.9 L218.3,27.7 Z M220.7,29.6 L220.8,29.7 L220.6,29.8 L220.6,29.6 L220.7,29.6 Z" id="Shape"></path>
                <path d="M162.4,9.8 L161.9,10 L161.8,10.2 L162,10.4 C162.4,10.5 162.6,10.3 162.9,10.2 L163.1,10 C162.9,9.8 162.8,9.8 162.4,9.8 Z" id="Shape"></path>
                <path d="M220,29.9 L220,29.2 L219.6,29.6 C219.7,29.8 219.8,29.7 220,29.9 Z" id="Shape"></path>
                <path d="M217.5,31.7 L217.3,31.8 C217.5,32 217.7,32 218,32 L217.6,32.4 C218,32.9 218.3,32.6 218.9,32.8 C218.6,33 218.7,33 218.6,33.4 L218.6,33.7 L218.6,34.1 L218.2,34.1 L218.1,34.4 L218.7,34.3 L218.3,34.5 C218.9,36 221,34.1 222,34.1 C222,33.4 221.7,32.4 221,32.1 L220.9,32 C221.2,31.9 221.2,31.7 221.4,31.6 L221.4,31.4 C221,31.1 220.7,31.1 220.4,30.6 C220,30.4 219.7,30.5 219.4,30.7 L219.5,30.5 L219,30.3 C218.9,30.5 218.6,30.5 218.2,30.6 C218.1,30.9 218.2,30.9 218,31.2 L218.6,31.3 L218.4,31.7 L217,31.7 C217.3,31.7 217.4,31.5 217.5,31.7 Z" id="Shape"></path>
                <polygon id="Shape" points="218.1 28.2 218 27.5 217.7 27.5 217.5 27.6 218 28.1"></polygon>
                <polygon id="Shape" points="186.3 26.9 186.4 26.8 186.4 26.8 186.1 26.7"></polygon>
                <polygon id="Shape" points="218.1 28.2 218 28.2 218 28.3 218.1 28.3"></polygon>
                <path d="M106.4,31.2 C106.3,31.4 106.2,31.7 106.1,31.9 L105.6,32.5 L104.6,35.2 L105,35.2 C104.9,35.9 105.3,35.9 105.1,36.7 C104.8,37.9 104,39.4 103.6,40.7 C103.5,41 103.2,41.6 103.3,42 C103.4,42.4 103.6,43.1 103.4,43.6 C103.2,43.9 103,44.3 102.8,44.6 L102.2,44.6 L102.2,44.6 C102.1,45.3 102.4,45.7 102.3,46.3 L102.5,46.2 C102.9,47.2 102.7,48.4 101.9,49.1 C102.1,50.1 102.7,50.6 102.5,52.2 L102.5,52.3 L102.6,52.3 C103.5,51.4 103.3,51.5 103.4,50.3 L103.3,50 L103.1,50.3 L103.1,50.3 C103,49.5 103.8,47.6 103.9,46.8 C104,46.3 103.7,45.3 103.9,44.7 C104.2,43.2 104.4,40 105.6,39.1 L105.8,39.4 L106,39.3 C106.3,40.2 105.2,41.5 105.3,42.6 C105,42.8 104.9,42.9 104.7,43.2 L104.8,43.3 L105.1,43 C105.1,43.3 104.9,44.2 105.2,44.5 L105.3,44.5 L105.4,44.6 C105.2,44.9 105.1,45.1 105.1,45.6 L105.3,45.7 L105.2,46.3 L105.4,46.3 C105.4,47 105.1,47.2 104.8,47.6 C104.9,48.2 105.2,48.4 105.4,48.8 C105.2,49 105.2,49.1 105.2,49.4 C105.7,50 106.3,54.5 105.4,55.1 C105.2,55.4 105.2,55.4 105.3,55.7 L104.8,56 C104.1,57.7 105.6,58.2 105.7,59.5 L106,59.7 C106,59.7 111.6,59.5 114.9,59.4 L114.5,59.2 C114.4,59.1 113.7,55.7 113.8,55.2 L114.1,54.7 C113.6,53.6 114.4,52.5 114.8,51.6 L115.8,49.1 C116.1,48.7 116.7,48.8 116.9,48.1 C117,47.6 116.8,47.2 117.1,46.6 C117.3,46.1 117.9,45.9 117.9,45.2 C118.2,45.2 118.8,45 118.8,44.7 L118.9,44.4 L118.9,44.7 L119.2,44.6 L119.4,44.3 L119.3,44.1 C120.2,44.2 120.8,43.9 121.6,43.4 C122.1,43.5 121.9,43.2 121.9,42.9 L122.3,42.6 L122.3,42.7 L122.1,42.9 L122.3,43 C122.5,43.2 123.3,42.7 123.8,42.8 C124.3,42.9 125.3,43.2 125.6,43.4 L125.7,43.4 L125.7,43.2 L125.4,43.2 L125.4,43.1 L125.8,43 L126.3,43.7 L126.2,43.8 L126.1,44 L126.6,44.4 L127.3,44.1 L127.4,44.4 C127.7,44.3 127.8,44.1 128,43.9 C128.2,44.1 128.4,44.4 128.6,44.6 L128.7,44.7 L128.7,44.7 L128.9,44.4 L128.4,43.9 L128.3,43.8 C128.4,43.6 128.6,43.6 128.8,43.5 C128.9,43.3 128.9,43.3 128.9,43.1 L128.5,43.3 L128.4,43.3 L128.3,43.2 C129.1,42.7 130,42.8 130.8,43 L131,42.6 L131.2,42.5 L131.2,43.1 C132.3,43.2 133.1,42.8 134,43.7 L134.3,44.4 C134.7,44.7 135.7,44.1 136.2,44.1 C136.4,44.4 136.9,45.6 137.2,45.7 C137.6,46.6 136.5,47.1 136.6,47.9 L136.7,47.9 L136.8,47.5 L136.9,47.4 L137.1,47.6 L136.6,48 C136.5,48.2 136.7,48.7 136.7,49.1 L137,49.2 L137.1,49 L137.1,49.1 L136.7,49.7 L136.9,49.6 L137,50.2 C137,51 137.8,51 137.4,51.8 C137.7,52.2 138.6,51.9 138.8,52 C138.8,51.4 139.6,50.7 139.9,50.1 C140.2,49.3 139.9,48.3 139.9,47.3 L140.2,47.2 L139.9,45.1 C140.1,42.4 142.3,41.7 144.5,41 C145.5,40.7 145.1,39.8 147,40.2 C147.5,39.3 149.1,39.5 150,39.2 L150.1,39.1 L149.8,38.8 L149.8,38.8 C150.1,38.6 150.8,38.5 151.1,38.5 L151.4,38.1 C151.2,37.9 150.9,37.7 150.5,37.7 L150.5,37.6 C150.8,37.7 151.1,37.7 151.5,37.8 L151.5,38.2 C151.5,38.2 151.6,37.1 151.7,36.6 L151.4,36.5 L151.4,36.3 L151.9,35.4 L151.9,34.2 L152.6,33.6 C152,34.4 152.3,34.4 152.1,35.4 L152.6,35.5 C152.3,35.8 152,35.9 151.8,36.2 L151.7,36.3 L152,36.4 C152.3,35.8 153.5,35.4 154,34.5 C153.7,34.2 153.8,34 153.7,33.5 C153.9,33.7 154,33.9 154.4,34 L154.2,34.2 L154.2,34.3 C155,34.4 156,33.4 156.4,32.8 L156.2,32.6 L156.1,32.5 C157,32.4 158.3,32.6 159.3,32.5 L159.1,32.2 C158.3,32.3 157.7,32 156.9,32.2 C157.8,31.5 160.5,32.5 161.7,32 C161.8,32.3 162.1,32.3 162.7,32.3 L162.9,32 L162.8,31.8 C162.7,32.1 162.8,32.1 162.5,32.1 L162.1,32 C162,31.7 162.1,31.3 161.6,31.2 L161.6,31.1 L162.3,30.9 L162.1,30.6 C162.4,30.2 163.2,29.9 163.5,29.6 C164.3,29.8 164.8,29.7 165.6,29.3 L165.7,29.6 C166.7,29.5 167.6,29.6 168.7,29.3 L168.5,29 L169.3,29.2 C170.1,29.4 171.6,29.2 172.2,29 L172.3,29.1 L171.6,29.3 L171.5,29.4 L172.3,29.6 C171.3,29.7 170.4,29.9 169.4,30.1 L169.3,30.2 L169.7,30.1 L169.5,30.2 C169.3,30.5 169.2,30.5 169.2,31 L169.5,31 C169.7,31.3 169.6,31.4 170,31.5 C170.7,31.5 171.4,31.1 172.1,31 L172.4,30.7 L172.5,30.8 L172.7,30.6 C172.8,30.9 172.9,30.9 173.2,31 C173.6,30.6 176.3,31.1 177.1,30.9 L177.2,30.9 C177.1,30.7 176.9,30.7 176.6,30.7 L176.9,30.5 C177.5,30.7 178.2,30.6 179,30.6 L179,30.4 C179,30.1 178.6,29.9 178.2,29.8 L178.2,30 L178.6,29.5 L178.5,29.2 L178.2,29.1 C177.7,29.3 176.6,29.6 176.5,30.3 C176.1,30.4 176,30.3 175.9,29.9 C174.7,30 174.3,29.4 173.3,29.3 L173.1,29 L173.3,29 L173.3,28.9 L172.4,28.5 L171.9,27.7 L172.2,27.5 C172.1,27.4 171.9,27.3 171.6,27.3 L171.6,27.2 C172.1,27.1 172.4,26.8 172.9,26.6 L173,26.4 L173,26.3 C172.5,26.5 172,26.4 171.3,26.4 C171.2,26 170.9,25.9 170.5,25.8 L170.4,25.7 C171.1,25.8 171.3,26.1 171.9,26.1 C172.4,26 172.9,26 173.5,25.9 L173.5,25.8 L173.5,25.5 L173.7,25.6 L173.7,25.5 C172.5,23.8 168.1,24.4 166.2,24.8 C165.4,24.9 164.9,25.6 163.9,25.6 C164.3,25.2 167,24.2 167.8,23.9 L169.6,24 L170.1,23.5 C170.8,23.1 171.8,23.3 172.7,23.5 C173.9,23.8 175,23.9 176.1,24.3 C176.8,24.5 179,25.4 179.7,25.3 C180.3,25.2 180.8,25 181.3,24.8 C182.5,24.3 185,25.6 185.8,24.6 L185.8,24.4 L185.9,24.5 C186,24.3 185.9,23.4 186.1,23.2 C185.8,23.1 185.5,23 185.2,22.9 L185.3,22.7 C184.8,22.7 184.7,22.5 184.4,22.6 C184.3,22 183.8,21.8 183.1,21.7 L183.1,21.7 C183.5,21.7 184,21.8 184.4,21.8 C184.2,21.5 183.6,21.4 183.5,21.1 C183.1,21 182.7,21.1 182.4,20.9 L182.3,20.6 L181.3,20.3 C181.1,20.1 181,19.9 180.7,19.8 L180.8,19.6 C180.8,19.5 179.9,18.9 179.5,18.8 L179.8,18.7 C179.8,18.6 179.8,18.3 179.9,17.9 L179.5,17.7 C179.5,17.7 179.6,17.4 179.6,17.1 C179.1,16.9 178.6,16.7 178.7,16.2 L178.4,16.2 C178.1,15.7 176.9,14.3 177,13.8 C175.8,14.1 174.2,16.1 172.5,14.8 C172.2,14.8 172,14.4 171.5,14.3 L171.5,13.9 L171.1,13.8 C171.2,13.4 171.4,13.3 171.4,12.8 L172,12.6 L171.9,12.4 L171.4,12.6 C171.1,12.2 170.3,12.1 169.7,11.9 L169.7,11.8 L169.7,11.8 L170,11.7 L170,11.7 C169.6,11.3 168.8,10.7 168.3,10.6 L167,10.6 C165.9,10.2 165,9.8 163.9,9.9 L163.6,10.2 L163.5,10.4 L163.7,10.6 C163.5,10.9 163.2,11 162.8,11.1 C163.2,11.6 162.9,11.6 163.1,11.9 C162.9,12.1 161.7,12.5 161.3,12.6 L161.1,12.9 C161.7,13.1 162.3,13.6 162.3,14.4 C161.8,15.6 160.5,15.8 159.1,16 L157.5,16 L157.4,16 C157.4,16.2 157.4,16.5 157.7,16.6 C157.4,17.1 156.9,17.7 157.3,18.3 C157,18.5 156.7,18.8 156.3,18.8 L156.3,19.2 L156.1,19.2 L155.9,18.8 C155.5,18.9 155.3,19 155,19.2 L154.5,19 C154.3,18.2 153.8,17.7 153.5,17 C153.8,16.8 154,16.6 154.2,16.3 L154.2,15.9 C154.5,15.6 154.8,15.5 155,15.1 C154,15 151,14.1 150.4,13.5 C150.2,13.3 150.1,12.8 149.8,12.6 C149.3,12.4 148.9,12.2 148.4,12 L146.8,12 L146.7,12 C147.1,11.6 147.3,11.1 147.6,10.6 C147.3,10.5 147,10.5 146.5,10.5 L146.5,10.3 C147.5,9.2 150.6,8 152,8.1 L151.8,7.9 C152.3,7.9 152.8,8 153.4,7.9 L153.4,7.5 L153.7,7.5 C154.8,7.6 156.9,7.5 157.9,7 L157.9,6.9 C158.6,6.8 159.3,6.7 160.1,6.7 L160,6.8 C159.1,6.7 158,7.2 157.8,7.8 C157.3,7.8 156.9,7.8 156.6,8 C156.9,8.2 157.6,8.1 157.9,8.1 L157.7,8.2 L157.5,8.5 C158.2,8.6 159.4,8.4 159.9,8.1 C160.2,8.2 160.5,8.3 160.8,8.3 L160.5,8.4 C161,8.8 161.8,8.8 162.7,8.8 L162.5,8.6 C162.3,8.5 161.9,8.4 161.6,8.4 L161.8,8 C161.4,7.8 160.6,7.5 160.4,7.2 C160.2,7 160.4,6.8 160.2,6.7 L160.4,6.7 C160.6,6.9 161.1,7.2 161.3,7.2 L161.4,7.1 L161.5,7.1 L161.3,7.1 L161,6.7 L161,6.7 L161.5,6.9 L161.5,6.6 L161.6,6.6 L162,6.9 L162,6.8 C162.8,6.6 163.6,6.6 164.3,6.4 C165.9,6.3 167.6,6.2 169.3,6.2 L170.2,6.3 L170.3,6.4 L169.8,6.4 L169.7,6.4 C169.8,6.8 170.2,6.7 170.5,6.5 L170.6,6.9 C170.4,6.8 170.2,6.8 170,6.8 C170.1,7.1 170.7,7.2 171.1,7.2 L171.2,7 L170.7,6.9 L170.8,6.6 C171.1,6.7 171.3,6.9 171.6,6.9 L171.8,7.7 L169.4,8 L169.3,8.1 L169.8,8.6 L169.8,8.6 C169.2,8.4 168.7,8.6 168.1,8.5 C167,8.3 166.2,7.7 165.1,8.4 L165.1,8.5 C165.4,9.1 166.4,8.8 167,8.9 C167.6,9 168.5,9.1 169.2,9.4 C169.9,9.7 170.1,10.2 170.8,10.3 L170.3,10.3 C170.5,10.6 170.7,10.8 171.1,10.8 L170.9,10.9 C171.1,11.1 171.2,11.2 171.5,11.3 L171.7,11.3 L171.5,11.1 L171.5,11.1 C173,11.6 174.3,12.6 176,12.9 L176.2,12.8 L176.2,12.7 C175.7,12.1 174.6,11.3 173.8,11 L173.8,10.8 C174.1,11 174.4,11.1 174.7,11.3 L174.7,11.1 C175.6,11.6 176.6,12.3 177.5,12.8 L177.8,12.8 L177.9,12.8 L177.9,12.8 C177.6,12.6 177.4,12.6 177.2,12.3 L177.6,12.5 L177.7,12.5 L177.6,12.1 L177.7,12 L177.8,12.2 C178.1,12.2 178,12.1 178.2,12 L178.4,12.3 L178.4,12.3 L178.3,12.1 L178.6,12.1 L178.6,12 C178.3,11.8 178,11.6 177.7,11.5 L177.6,11.4 L177.9,11.4 L177.9,11.3 C177.6,11.1 176.7,10.4 176.1,10.5 C176.1,10.2 175.9,9.8 175.6,9.7 L176,9.7 L176,9.6 L175.8,9.4 C176.5,9.4 177,10 177.6,10 C177.4,10.7 178.7,10.8 179.1,11.2 C179.4,11.1 179.4,11 179.7,11 L179.6,10.9 L179.8,10.7 L180.6,10.8 L180.6,11 L181,11 L180.8,10.8 L181,10.8 L181.1,10.8 L180.9,10.5 C181.3,10.6 181.5,10.6 181.9,10.5 C181.8,10.1 181.2,9.9 180.7,9.9 L180.9,9.8 L180.4,9.8 C180.2,9.7 180.1,9.4 179.5,9.4 L179.7,9.3 C179.5,9.1 179.1,8.9 178.8,8.9 L178.7,8.8 L178.9,8.7 C178.4,8.6 178.2,8.4 177.9,8.6 C177.6,8.3 177.6,8.2 177.1,8.2 L177.2,8.1 C176.8,8 176.4,7.9 176,7.8 L176,7.8 L176.3,7.8 L176.3,7.5 C176.7,7.6 177,7.7 177.4,7.8 L177.5,7.7 C177.3,7.5 176.9,7.3 176.6,7.4 L176.7,7.3 L177.2,7.4 L177.3,7.4 L177.3,7.3 C176.9,7 176.7,6.9 176,7 C176.2,6.8 176.2,6.8 176.5,6.8 L176.5,6.8 C176.5,6.8 176.4,6.8 176.4,6.7 C177.8,6.8 179.2,6.9 180.6,7.1 L180.6,7.2 C181.3,7.4 182,7.7 183,7.5 L183,7.5 L182.8,7.4 L183.2,7.4 C183.3,7.5 183.5,7.6 183.6,7.6 L183.8,7.5 C183.6,7.8 183.5,7.8 183.5,8.1 C182.4,7.9 181.6,7.5 181.2,8.7 L181.5,9 L181.2,9.1 L181.1,9.4 C181.5,9.8 181.8,10 182.3,10.2 L182.4,10.8 L182.7,10.9 L182.9,11.4 C183.2,11.8 184.3,12.3 184.5,12.7 L184.7,13.1 C185.1,13.4 185.6,13.5 185.9,13.8 L185.9,13.9 C186.7,14.3 187.9,14.2 188.6,14.6 L188.6,14.8 L190.7,15.4 L190.9,15.4 L190.8,15.1 C191.2,14.9 191.3,14.4 191.6,14.1 C191.5,13.8 191.4,13.8 191.4,13.5 C192,13.4 192.2,13.1 192.6,13 L192.3,12.5 L192.6,12.5 L192.8,12.4 L192.3,12 L192.2,12 L192.2,11.9 C192.5,12 192.7,12 193.1,12 L193.2,12 L193,11.7 L193,11.7 C193.4,11.9 193.6,11.9 194.2,11.9 L194.3,11.5 L194.6,11.5 L194.3,11.9 L194.3,12 C195.5,12.3 196.3,11.8 197.4,11.6 L197.4,11.3 C198.3,11 199.4,11.3 200.4,11.5 C203.5,12.6 206.6,13.8 209.5,15.1 C209.1,15 208.7,14.8 208.3,14.7 L208.2,14.7 L208.3,14.9 C208.1,14.7 207.9,14.5 207.5,14.5 L207.5,14.6 L207.8,14.9 L207.8,14.9 L207.4,14.9 C206.8,14.4 206.4,13.8 205.4,13.7 L205.6,14 L205.2,13.8 L204.8,14.1 L204.7,14.2 C205.4,14.4 206,14.5 206.7,14.7 C206.4,14.9 206,14.8 205.5,14.7 L205.5,14.8 L205.5,14.9 C206.4,15.1 206.8,15.4 207.4,15.7 L207.5,15.8 L207,15.7 L206.9,15.8 L207,16 C208.4,16.4 211.7,18 212.8,16.7 C216.2,18.5 219.5,20.4 222.6,22.5 L222.5,22.6 C222.5,22.9 222.5,22.9 222.6,23.1 L222.1,23.3 C222.3,23.6 222.5,23.8 222.7,24 L222.8,24.5 C223.3,25.2 224.2,25.5 224.6,26.4 L226,26 L226.2,26.6 C226.4,26.9 227.8,27.7 228.3,27.4 C228.5,27.3 228.6,26.9 228.4,26.6 L228.7,26.5 L228.6,26.3 L228.6,26.3 C230,27 230.7,28.7 232.2,29.3 L232.4,29.8 L232,30.2 C232.3,30.6 232.6,30.9 233.1,31.1 L232.8,31.1 L232.8,31.1 L233.2,31.5 L233.5,31.5 L233.5,31.1 L232.9,30.6 L233,30.4 L232.7,30.1 C233,30.3 233.1,30.5 233.3,30.7 L233.9,30.7 L233.9,30.7 L233.9,30.6 L233.5,30.1 L233.5,29.9 C234.2,30.6 235,31.2 235.7,31.9 L235.7,32.1 L235.4,32.2 C235.1,32.6 235,32.2 234.6,32.2 L234.6,32 L234.1,31.6 L234.1,31.9 L233.8,31.8 C233.9,32.1 233.7,32 233.7,32.4 L233.5,32.3 L233.3,31.8 L233,31.6 L233.1,31.8 C232.7,31.8 232.4,31.5 232.1,31.2 L232.2,31.1 L231.7,30.9 L231.7,30.8 L231.7,30.7 C232,30.9 232.4,31.1 232.7,31.3 C232.5,30.8 232,30.2 231.5,30.3 L231.2,29.6 L231.4,29.7 L231.4,29.5 C230.9,29 230.3,28.7 230,27.9 L229.7,28 L229.8,28.4 L229.6,28.4 L229.4,28.5 C229.6,29.4 231.4,30.7 231.3,31.2 L231.6,31.3 C231.8,31.7 232,31.9 232.3,32.2 C232.1,32.3 232.2,32.2 232.2,32.5 C231.9,32.4 231.8,32.4 231.4,32.4 L231.4,32.6 L230.7,32.7 L230.6,32.9 L230.8,33.2 L231.1,33.2 C231.2,33.5 231.3,33.5 231.3,33.8 L231.1,33.8 L231,33.8 C231,34.2 231,34.2 231.2,34.4 L230.8,34.3 C230.6,33.8 230.5,33.3 230.3,32.8 L230.2,32.7 L230.2,32.7 C230.4,33.4 230.9,34.4 230.5,34.8 C230.2,35 229.7,35.1 229.5,35.4 C229.6,35.7 229.8,36 229.9,36.3 C229.7,36.4 229.6,36.5 229.3,36.6 L229.3,37.1 L229.1,37.2 C228.5,37.3 227.8,36.8 227.3,36.6 L227.3,36.6 C227.6,37 228,37.3 228.1,37.8 L228.3,37.9 L228.3,37.9 C227.9,37.8 227.7,37.8 227.4,38 L226.8,37.6 C226.5,37.8 225.9,37.7 225.6,38 L225.5,38 C225.6,38.4 225.9,38.4 226.2,38.6 L225.9,38.7 C226.4,39.2 227.2,39.1 228,39.3 L230.4,41.6 L230.1,41.4 L230.1,41.4 C230.7,42.2 231.4,43.4 231.4,45 C230.5,45.3 228.5,44.7 227.3,44.6 C227,44.6 226.2,44.9 225.8,44.7 C225.6,44.6 225.5,44.4 225.1,44.5 C224.8,44.4 224.7,44.7 224.8,45 L224.1,45.3 L223.9,45.4 C223.9,45.9 224.2,45.9 224.3,46.3 L224.6,46.2 C224.7,47.1 225.2,47.7 225.5,48.5 C225.8,49.2 225.6,51.3 225.5,52.1 L226,52.7 L226.3,52.5 C226.6,53.2 226.7,53.9 226.7,54.9 C227.2,54.7 227.7,55 228,54.9 C228.2,54.8 228.3,54.6 228.6,54.6 C229.5,54.2 229.9,56.3 230.8,56.4 L231.8,55.3 C232.5,55.3 232.9,55.2 233.5,55.4 L233.6,55.2 C233.9,55.2 233.9,55.3 234,55.4 C234.2,55.1 234.3,54.4 234.4,54.1 C234.6,54 234.6,54 235,54 C235,53.7 234.8,53.3 235,52.8 C235.1,52.5 235.3,52.5 235.4,52.1 C233.9,51.1 235.3,49.8 234.8,49 C235.1,48.6 235.3,48.7 235.7,48.5 L236.4,47.7 C236.3,47.2 235.5,46.4 235.7,45.8 L236.1,45.3 C236.9,45.6 237.4,45.9 238,46.1 C238.3,45.8 238.2,45.2 238.8,45.1 L238.9,44.4 L238.9,44.3 C240.2,44.5 241,46.4 241.7,47.3 L243.7,49.1 L244.1,49.1 L244.4,49.7 C245.8,51.1 246.3,51.5 246.9,53.5 L246.3,53.9 C245.8,53.9 245.8,53.8 245.5,53.6 L245.4,53.8 L245.2,53.6 L245.2,53.6 L245.2,54.3 L247.3,56 L247.3,56 C247.2,55.2 246.8,54.9 246.8,53.9 L247.1,54.1 L247.2,54.1 C247.3,53.7 247.2,53.2 247.1,52.9 C247.1,52.6 247.1,52.7 247.3,52.6 C247.1,52 246.8,51.9 246.5,51.5 L246.2,50.4 L246.3,50.3 C246.5,50.6 247.1,51.2 247.4,51.4 C247.1,50.3 246.1,49.4 245.1,48.9 C245,48.7 244.9,48.6 245,48.2 C244.7,48.1 244.5,48.2 244.2,47.9 C243.5,47.3 243.2,46.4 242.6,45.6 C242.1,45 241.2,44.7 240.9,43.8 L240.9,43.5 C240.8,43.2 240.5,43.2 240.4,42.8 C240.7,42.8 240.7,42.7 240.8,42.5 L241,42.5 C241.2,42.7 241.6,43.4 241.7,43.8 L241.8,43.9 L241.8,43.6 L242,44.1 L242.1,44.2 L241.9,43.7 C242.4,43.9 242.6,44.7 242.8,45 C243.2,45.4 243.7,45.7 244,46 L243.8,45.9 L244.1,46.4 L244.3,46.4 L244.1,46.2 L244.2,46.2 L244.5,46.4 L244.5,46.5 L244.2,46.6 L244.6,46.7 C245.2,47 246,47.9 246.4,48.4 C246.7,49.1 247,49.9 247.2,50.6 C247.5,51.2 248.3,51.9 248.6,52.5 L248.8,52.5 L248.8,53 C248.9,53.2 249.2,53.5 249.6,53.6 C249.5,53.9 249.5,53.8 249.5,54.2 C249.8,54.7 250.2,55.2 250.4,55.8 L250.5,55.9 L250.5,55.9 L250.4,55.5 L250.5,55.5 L250.8,56.3 L250.9,56.4 L250.8,56 L251.1,56.4 L251.1,56.4 C250.9,55.9 250.6,55.4 250.4,54.8 L250.6,55 L250.7,55.1 L250.7,55 L250.3,54.2 L250.4,54.2 L250.7,54.6 L250.7,54.6 L250.5,54 L251,54.5 C250.7,53.9 250.1,52.8 249.5,52.6 L249.7,52.5 C249.5,51.9 248.6,51.3 248.5,50.3 L248.6,50.3 C248.7,50.8 249.1,50.7 249.3,50.9 L249.3,50.9 C249.1,50.6 248.9,50.3 248.7,50 L249,49.8 C249.2,49.6 249.4,50.2 249.7,50.2 L249.8,50.7 C249.9,50.1 249.8,49.3 249.7,49.1 C249.4,48.8 249.3,48.4 249,48 C248.6,47.3 248.2,46.6 247.8,45.9 C250.3,49.3 252.5,52.7 254.4,56.2 C240.5,23.4 208,0.4 170.1,0.4 C132.2,0.4 99.7,23.4 85.8,56.2 C91.2,48.2 97.8,39.2 106.4,31.2 Z M158.9,32.6 L159,32.5 L159.2,32.5 L158.9,32.6 L158.9,32.6 Z M177.6,30.4 L177.9,30.4 L177.9,30.5 L177.9,30.6 L177.3,30.6 L177.6,30.4 Z M173.5,30.1 L172.6,30.2 L172.4,30.1 L172.4,29.9 C172.9,29.9 173.2,30 173.5,30.1 Z M184.7,23 L184.7,23 L184.5,23.1 L184.5,22.9 L184.7,23 Z M180.9,22.1 L181.3,22 C181.8,22.1 182.3,22.1 182.8,22.2 C182.2,22.3 181.5,22.3 180.8,22.4 C180.8,22.2 180.8,22.4 180.9,22.1 Z M105.8,37.8 L105.8,37.8 C105.9,37.3 106.1,36.9 106.2,36.3 C106.6,36.9 106,37.4 105.8,37.8 Z M114.2,55 L114.2,55 L114,55 L114,54.6 L114.2,55 Z M128.7,43 L127.9,43 L128.3,42.6 L128.7,43 L128.7,43 Z M160.2,7.2 L160.3,6.9 L160.4,7 L160.5,7 L160.2,7.2 Z M231,33.2 L231,33.2 L231,33.1 L231.1,33.1 L231.1,33.1 L231,33.2 Z M226.3,52.5 L226.3,52.2 L226.4,52.2 L226.3,52.5 Z M231.5,32.9 L231.5,32.9 L231.6,32.8 L231.5,32.9 Z M235.5,32.6 L235.2,32.4 L235.5,32.6 L235.5,32.6 Z M250.4,54 L250.7,54.3 L250.6,54.4 L250.1,54 L250.4,54 Z M171.5,9.6 L171.5,9.6 L171.9,9.5 L171.9,9.2 C172.2,9.3 172.6,9.4 172.7,9.7 L172.8,9.8 C172.4,9.7 172,9.6 171.5,9.6 Z M172.6,8.7 L172.6,8.3 L173,8.1 C173.5,8.2 173.4,8.5 174,8.5 L173.9,8.7 L174.1,8.9 C173.4,8.7 173.2,8.7 172.6,8.7 Z M242.2,43.7 L242,43.5 L242.2,43.6 L242.2,43.7 Z" id="Shape"></path>
                <path d="M258.2,120.1 C245.8,153.9 211.3,178.3 170.7,178.3 C130.4,178.3 96.1,154.3 83.5,120.9 C95.6,156.8 125.8,184.7 170.6,184.7 C212.9,184.7 246.3,156.4 258.2,120.1 Z" id="Shape"></path>
                <path d="M32.8,97 L32.7,71.5 L32.5,71.1 L32.1,71 L24.1,71.8 C23.8,71.8 23.6,72.1 23.6,72.3 L23.7,97.5 C23.7,103.5 21.3,106.8 16.4,107.3 L15.4,107.3 C11.3,107.3 9.2,104.5 9.1,98.9 L9,73.8 L8.8,73.4 L8.4,73.3 L0.5,74.1 C0.2,74.1 0,74.4 0,74.6 L0.1,100.1 C0.1,111.2 5,117 14.1,117 C14.8,117 15.6,117 16.4,116.9 C30.8,115.5 32.8,103.9 32.8,97 Z" id="Shape"></path>
                <path d="M76.1,110.5 L75.9,68.4 L75.7,68 L75.3,67.9 L68.4,68.4 C68.1,68.4 67.9,68.7 67.9,69 L68,93.7 L50,70 L49.5,69.8 L41,70.4 C40.7,70.4 40.5,70.7 40.5,71 L40.7,113.1 L40.9,113.5 L41.3,113.6 L41.3,113.6 L41.3,113.6 L48.2,113.1 C48.5,113.1 48.7,112.8 48.7,112.6 L48.6,85.8 L68,111.5 L68.5,111.7 L75.5,111.2 C75.9,111 76.1,110.8 76.1,110.5 Z" id="Shape"></path>
                <path d="M85.8,110.4 L86.2,110.5 L86.2,110.5 L95.3,110 C95.6,110 95.8,109.7 95.8,109.5 L95.6,67.6 L95.4,67.2 L95,67 L85.9,67.5 C85.6,67.5 85.4,67.8 85.4,68.1 L85.6,110 L85.8,110.4 Z" id="Shape"></path>
                <polygon id="Shape" points="101.5 66.8 101.4 67.3 119.3 108.8 119.8 109.1 119.8 109.1 127 108.9 127.4 108.5 145.8 66.1 145.7 65.5 145.3 65.3 137 65.6 136.5 65.9 124.5 93.6 112.9 66.6 112.4 66.3 101.9 66.6"></polygon>
                <path d="M151.5,65.4 L151.3,65.8 L151.6,107.7 C151.6,108 151.8,108.2 152.2,108.2 L186,108.2 L186.4,108 L186.6,107.6 L186.6,99.4 C186.6,99.1 186.4,98.9 186,98.9 L162.3,98.9 L162.3,91 L178,91 L178.4,90.8 L178.6,90.4 L178.6,82.2 C178.6,81.9 178.4,81.7 178.1,81.7 L162.4,81.7 L162.4,74.4 L185.8,74.4 L186.2,74.2 L186.4,73.8 L186.4,65.6 C186.4,65.3 186.2,65.1 185.9,65.1 L152.3,65.1 L151.5,65.4 Z" id="Shape"></path>
                <path d="M221.8,109 L222.3,109.3 L233.2,109.6 L233.2,109.6 L233.7,109.3 L233.7,108.7 L224,92 C227.9,90.6 232.1,87.3 232.1,79.3 C232.1,71 227.6,66.1 220,65.9 L196.9,65.2 L196.5,65.4 L196.3,65.8 L196.5,107.9 C196.5,108.2 196.7,108.4 197,108.4 L206.2,108.7 L206.6,108.5 L206.8,108.1 L206.7,92.8 L212.7,93 L221.8,109 Z M206.5,83.7 L206.5,74.9 L216.3,75.2 C220.8,75.3 221.2,77.1 221.2,79.1 C221.2,80.9 220.9,82 220.2,82.7 C219.3,83.6 217.7,84 215,84 L214,84 L206.5,83.7 Z" id="Shape"></path>
                <path d="M242.2,69.9 C240.1,72 239.1,74.7 239.1,78 C239.1,87.9 248.1,91.6 254.7,94.3 C256.2,94.9 257.7,95.5 258.9,96.2 C261,97.2 262,98.2 262,99.1 C262,99.9 261.8,100.5 261.3,101 C260.3,102 258.3,102.4 255.3,102.3 C252.1,102.1 246.5,99.6 240.6,95.7 L240,95.7 L239.7,96.2 L239.7,105.9 L240,106.4 C241.9,107.6 248.7,111.7 255.2,112 L257,112 C262.4,112 266.4,110.6 269.1,107.9 C271.4,105.6 272.5,102.4 272.5,98.4 C272.5,89.5 263.6,85.7 257.2,83 C255.5,82.3 253.9,81.6 252.7,81 C250.6,79.9 249.6,78.9 249.6,77.8 C249.6,77.6 249.7,77.1 250.1,76.6 C250.6,76.1 251.7,75.5 253.9,75.6 C260.2,75.9 267,80.1 269,81.4 L269.6,81.4 L269.9,80.9 L269.9,71.5 L269.6,71 C266.4,69.1 259.7,66.2 254,65.9 C249.2,65.9 244.9,67.3 242.2,69.9 Z" id="Shape"></path>
                <path d="M305.3,114 L314.4,114.7 L314.4,114.7 L314.8,114.5 L314.9,114 L299,70.4 L298.5,70 L292.2,69.5 L291.6,69.8 L275.3,111 L275.3,111.5 L275.7,111.8 L283.3,112.4 L283.9,112.1 L287,104.1 L301.7,105.2 L304.7,113.7 L305.3,114 Z M290.6,95.1 L294.5,85.4 L298.2,95.7 L290.6,95.1 Z" id="Shape"></path>
                <path d="M346.9,108.2 L329.2,106.6 L329,72.9 C329,72.6 328.8,72.4 328.5,72.4 L320.6,71.7 L320.2,71.8 L320,72.2 L320.2,114.8 C320.2,115.1 320.4,115.3 320.7,115.3 L346.8,117.7 L346.8,117.7 L347.2,117.6 L347.4,117.2 L347.4,108.8 C347.3,108.5 347.1,108.3 346.9,108.2 Z" id="Shape"></path>
                <path d="M358.6,108.5 C355.4,108.5 352.8,111 352.8,114.3 C352.8,117.6 355.5,120.1 358.6,120.1 C361.8,120.1 364.4,117.6 364.4,114.3 C364.4,111 361.7,108.5 358.6,108.5 Z M358.6,119.3 C355.9,119.3 353.8,117.2 353.8,114.3 C353.8,111.5 355.9,109.4 358.6,109.4 C361.3,109.4 363.4,111.6 363.4,114.3 C363.3,117.1 361.3,119.3 358.6,119.3 Z" id="Shape"></path>
                <circle id="Oval" transform="translate(362.151020, 115.311160) rotate(-58.522363) translate(-362.151020, -115.311160) " cx="361.70099" cy="114.86113" r="1"></circle>
                <path d="M358.8,117 C357.3,117 356.4,115.7 356.4,114.3 C356.4,112.8 357.2,111.7 358.8,111.7 C359.8,111.7 360.6,112.3 360.7,113.2 L361.7,113.2 C361.5,111.7 360.3,110.8 358.8,110.8 C356.7,110.8 355.4,112.3 355.4,114.3 C355.4,116.3 356.8,117.9 358.8,117.9 C360.2,117.9 361.4,117 361.7,115.5 L360.7,115.5 C360.5,116.4 359.8,117 358.8,117 Z" id="Shape"></path>
            </g>
        </g>
    </g>
</svg>
