<?xml version="1.0" encoding="utf-8"?>
<!-- Generator: Adobe Illustrator 20.1.0, SVG Export Plug-In . SVG Version: 6.00 Build 0)  -->
<svg version="1.1" id="bridget-lockup" xmlns="http://www.w3.org/2000/svg" xmlns:xlink="http://www.w3.org/1999/xlink" x="0px"
	 y="0px" viewBox="0 0 1160.4 221.4" style="enable-background:new 0 0 1160.4 221.4;" xml:space="preserve">
<style type="text/css">
	.st0{fill:#FFFFFF;}
</style>
<g id="divider">
	<g>
		<rect x="407.8" y="12.4" class="st0" width="5" height="169.1"/>
	</g>
</g>
<g id="bridget-lockup-project">
	<path class="st0" d="M476.1,4.7h34.8c23,0,27.2,13.9,27.2,22.7c0,10.4-7.9,17.2-14.6,18.7c5.4,0.1,15.4,6.5,15.4,19.1
		c0,8.8-4.6,23.5-27.6,23.5h-35.2V4.7z M507,38.9c9.5,0,11.6-5.9,11.6-10.1c0-3.7-1.8-9.8-11.6-9.8h-11.6v19.9H507z M495.4,53.2
		v20.6h12.1c9.5,0,11.6-5.6,11.6-10.3c0-3.8-2.2-10.3-11.5-10.3H495.4z"/>
	<path class="st0" d="M587.2,47.5c-2.5-0.6-4-0.8-6.5-0.8c-10.1,0-16.7,5.3-16.7,19.4v22.6h-18.4V30.8H564v9.4
		c2.6-5.4,9.6-10.3,17.6-10.3c2.3,0,3.8,0.2,5.5,1V47.5z"/>
	<path class="st0" d="M598.2,0c6.7,0,11.9,5.2,11.9,11.6c0,6.4-5.2,11.6-11.9,11.6c-6.6,0-11.8-5.3-11.8-11.6
		C586.5,5.2,591.6,0,598.2,0z M589.1,30.8h18.4v57.8h-18.4V30.8z"/>
	<path class="st0" d="M658.7,80.5c-2.8,5.3-10.2,9.6-17.6,9.6c-16.7,0-28.2-13.1-28.2-30.4s11.5-30.4,28.2-30.4
		c7.4,0,14.9,4.4,17.6,9.7V4.7h18.4v84h-18.4V80.5z M658.7,59.8c0-7.9-5.5-14.8-13.8-14.8c-8.3,0-13.8,6.8-13.8,14.8
		c0,8,5.5,14.8,13.8,14.8C653.2,74.5,658.7,67.8,658.7,59.8z"/>
	<path class="st0" d="M746.8,88.3c0,10.4-3.1,17.3-9.1,21.8c-5.4,4.1-12.7,6.2-23.4,6.2c-10.8,0-17.9-2.6-22.7-6.7
		c-5-4.3-8.2-10.2-8.4-16.6h18.4c0.5,4.9,4.8,9.7,12.7,9.7c8.6,0,14.2-4.1,14.2-13.1V80c-3.1,5.3-10.2,9-17.6,9
		c-16.7,0-28.3-12.1-28.3-29.3c0-17.3,11.2-30.4,28.1-30.4c7.3,0,14.6,3.6,17.9,9.7v-8.3h18.4V88.3z M700.8,59.8
		c0,8,5.5,14.8,13.7,14.8c8.4,0,13.9-6.7,13.9-14.8c0-7.9-5.5-14.8-13.9-14.8C706.4,45,700.8,51.8,700.8,59.8z"/>
	<path class="st0" d="M770,64.2c0.4,7,3.2,12.8,12.8,12.8c6.4,0,9.5-2.9,10.7-6.6h18c-1.7,10.9-12,19.8-28.6,19.8
		c-20.3,0-31.2-12.6-31.2-30.5c0-16.9,10.7-30.5,30.7-30.5c18.1,0,29.8,12.2,29.8,26.4c0,2.4,0,5-0.6,8.5H770z M770,53.6h24.2
		c0-7.4-4.9-12.1-11.9-12.1C775.1,41.5,770,45.8,770,53.6z"/>
	<path class="st0" d="M853.6,88.7c-2.8,0.5-6.8,1-12.2,1c-8.6,0-20.5-1.1-20.5-20.4V44.5h-9.1V30.8h9.1V13.7h18.2v17.2h13.2v13.7
		h-13.2v20.6c0,8.5,3.4,9.8,7.9,9.8c2.3,0,4.9-0.1,6.6-0.4V88.7z"/>
	<path class="st0" d="M531.3,164.8c0,19.9-11.5,31-30.7,31c-20.3,0-30.6-13.6-30.6-31.1h19.4c0,8.3,3.7,14.4,11.2,14.4
		c7.4,0,11.4-5.4,11.4-14.3v-55.1h19.3V164.8z"/>
	<path class="st0" d="M535.7,164.8c0-16.6,12.1-30.5,32-30.5c20.2,0,32.2,13.9,32.2,30.5s-12,30.5-32.2,30.5
		C547.8,195.2,535.7,181.3,535.7,164.8z M581.7,164.8c0-8-5.5-14.8-13.9-14.8c-8.3,0-13.7,6.7-13.7,14.8c0,8.2,5.4,14.8,13.7,14.8
		C576.2,179.5,581.7,172.9,581.7,164.8z"/>
	<path class="st0" d="M605,135.8h18.4v8.4c3.2-6.2,10-9.8,19-9.8c7.4,0,13.1,2.5,16.2,6.6c3.6,4.4,4.6,10.1,4.6,18.4v34.3h-18.4V164
		c0-8.3-2.5-14-10.2-14c-7.4,0-11.2,5.8-11.2,14.6v29H605V135.8z"/>
	<path class="st0" d="M685.7,169.2c0.4,7,3.2,12.8,12.8,12.8c6.4,0,9.5-2.9,10.7-6.6h18c-1.7,10.9-12,19.8-28.6,19.8
		c-20.3,0-31.2-12.6-31.2-30.5c0-16.9,10.7-30.5,30.7-30.5c18.1,0,29.8,12.2,29.8,26.4c0,2.4,0,5-0.6,8.5H685.7z M685.7,158.6H710
		c0-7.4-4.9-12.1-11.9-12.1C690.9,146.5,685.7,150.8,685.7,158.6z"/>
	<path class="st0" d="M782.8,176.6c0,13.7-11.8,18.6-26.2,18.6c-16.4,0-26.6-7.6-26.6-20.9h18c0,6.1,3.8,8.5,9.2,8.5
		c4.4,0,7.6-1.6,7.6-5.4c0-4.4-4.6-5-15.5-8.6c-9.6-3-17.9-5.8-17.9-16.9c0-12,10-17.6,25.6-17.6c16.8,0,25,8.5,25,19.6h-18.1
		c0-4.8-2.5-7.6-7.6-7.6c-3.7,0-6.8,1.7-6.8,5.2c0,4.2,5,4.9,14.8,8.2C774.4,162.6,782.8,165.4,782.8,176.6z"/>
	<path class="st0" d="M797.6,104.9c7.7,0,12.8,6,12.8,14.6c0,17.4-8.6,23.6-23.6,23.8v-7.1c4.9,0,8.2-1.2,10.3-3s3.2-4.1,3.5-6.4
		c-0.4,0.4-1.7,0.8-3,0.8c-7,0-11.4-5-11.4-11.2C786.2,110,791.2,104.9,797.6,104.9z"/>
	<path class="st0" d="M866.6,176.6c0,13.7-11.8,18.6-26.2,18.6c-16.4,0-26.6-7.6-26.6-20.9h18c0,6.1,3.8,8.5,9.2,8.5
		c4.4,0,7.6-1.6,7.6-5.4c0-4.4-4.6-5-15.5-8.6c-9.6-3-17.9-5.8-17.9-16.9c0-12,10-17.6,25.6-17.6c16.8,0,25,8.5,25,19.6h-18.1
		c0-4.8-2.5-7.6-7.6-7.6c-3.7,0-6.8,1.7-6.8,5.2c0,4.2,5,4.9,14.8,8.2C858.2,162.6,866.6,165.4,866.6,176.6z"/>
	<path class="st0" d="M894.5,109.7h34.8c23,0,27.2,13.9,27.2,22.7c0,10.4-7.9,17.2-14.6,18.7c5.4,0.1,15.4,6.5,15.4,19.1
		c0,8.8-4.6,23.5-27.6,23.5h-35.2V109.7z M925.5,143.9c9.5,0,11.6-5.9,11.6-10.1c0-3.7-1.8-9.8-11.6-9.8h-11.6v19.9H925.5z
		 M913.8,158.2v20.6H926c9.5,0,11.6-5.6,11.6-10.3c0-3.8-2.2-10.3-11.5-10.3H913.8z"/>
	<path class="st0" d="M1023.2,135.8v57.8h-18.4v-8.2c-2.8,5.3-10.2,9.6-17.6,9.6c-16.7,0-28.2-13.1-28.2-30.4s11.5-30.4,28.2-30.4
		c7.4,0,14.9,4.4,17.6,9.7v-8.3H1023.2z M1004.8,164.8c0-7.9-5.5-14.8-13.8-14.8c-8.3,0-13.8,6.8-13.8,14.8c0,8,5.5,14.8,13.8,14.8
		C999.3,179.5,1004.8,172.8,1004.8,164.8z"/>
	<path class="st0" d="M1050.5,193.7h-18.4v-84h18.4v34.4c2.8-5.3,10.2-9.7,17.8-9.7c16.7,0,28.2,13.1,28.2,30.4
		s-11.5,30.4-28.2,30.4c-7.6,0-15-4.3-17.8-9.6V193.7z M1078.1,164.8c0-7.9-5.5-14.8-13.7-14.8c-8.4,0-13.9,6.8-13.9,14.8
		c0,8,5.5,14.8,13.9,14.8C1072.6,179.5,1078.1,172.8,1078.1,164.8z"/>
	<path class="st0" d="M1109.2,215.4c-4.6-3.8-7.9-9.5-7.9-17.3h18.4c0.4,6.5,5,10.1,11.2,10.1c7.1,0,11.3-2.9,11.3-11.9v-11.9
		c-3.2,6.2-9.7,9.7-18.5,9.7c-7.7,0-13.6-2.9-16.7-7c-3.6-4.4-4.4-9.6-4.4-17.9v-33.5h18.2v29.6c0,8.3,2.5,14,10.2,14
		c7.6,0,11.2-5.8,11.2-14.6v-29h18.4v59.3c0,9-3.1,16-8,20c-5.2,4.3-11.8,6.2-21.8,6.2C1121.2,221.4,1114.4,219.6,1109.2,215.4z"/>
</g>
<g id="bridget-lockup-logo">
	<polygon class="st0" points="250.9,71.3 250.7,71 250.7,71.2 	"/>
	<polygon class="st0" points="138.5,171.7 138.6,171.8 138.6,171.7 138.5,171.6 	"/>
	<polygon class="st0" points="139.2,177.7 139.4,177.7 139.4,177.6 139.1,177.5 	"/>
	<polygon class="st0" points="102.1,67.8 102,67.9 102.2,68.1 102.2,68.1 	"/>
	<polygon class="st0" points="139.9,179.4 140,179.4 139.9,179.3 	"/>
	<path class="st0" d="M149.6,190.5l-0.6-0.4C149.1,190.4,149.3,190.5,149.6,190.5z"/>
	<polygon class="st0" points="139.4,178.7 139.6,178.7 139.4,178.6 	"/>
	<polygon class="st0" points="104.7,60.2 104.5,60.2 104.4,60.9 104.4,61 104.5,61 	"/>
	<polygon class="st0" points="140.5,176.4 140.3,176.4 140.4,176.5 140.5,176.5 	"/>
	<polygon class="st0" points="168.8,47.7 168.6,47.9 168.7,47.9 168.9,47.7 	"/>
	<polygon class="st0" points="165.6,47.7 165.6,48 165.7,47.9 	"/>
	<polygon class="st0" points="151.5,190.2 151.5,190.1 150.9,190 	"/>
	<polygon class="st0" points="165.9,48 166,47.9 165.9,47.9 	"/>
	<path class="st0" d="M180.4,47.1c0.8,0.2,4.2,0.9,4.5,1.2l-0.2,0c0.3,0.1,0.7,0.3,1,0.4l0.1-0.2l0.7,0.3c-0.4,0.2-0.9,0.3-1.6,0.2
		l-0.1,0.2c1.1,0.4,1.9-0.1,2.8-0.4l0.2,0.3c0,0.4-0.3,0.6-0.5,0.7l0.2,0.3l0.7-0.2c-0.1,0.2-0.1,0.3-0.2,0.6
		c0.3,0.1,0.5,0.1,0.8,0.2c0.4-0.2,0.5-0.6,0.8-0.8l0-0.4c-0.3-0.1-0.3,0.2-0.7,0.2l-0.1-0.2l0.6-0.4l0.1-0.1l-0.1-0.1
		c-0.6,0-0.8,0.2-1.1,0.4l-0.1-0.2l-0.2-0.1c0.4-0.3,1.1-0.5,1.2-0.6l0.1-0.1c-0.2-0.2-0.7-0.2-1.1-0.2c0.1-0.3,0-0.1-0.1-0.5
		c0.3,0,0.4-0.1,0.6-0.3c-0.3-0.3-0.9-0.6-1.3-0.5c-0.2-0.2,0-0.3-0.4-0.5l-0.2,0l0,0.2l-0.3,0c-0.3,0-0.2,0-0.1-0.3l-0.2,0.1
		l-0.5-0.2l0.1-0.1l-0.3,0l-0.1-0.1l0-0.2l0.6,0v0c-0.3-0.2-0.6-0.2-1-0.5c-0.3,0.1-0.6,0.2-0.9,0.4c0.1-0.5,1-1,1.5-1.1l0.2-0.2
		l-0.4-0.2V44l0.7,0.1l0.1-0.1l0-0.1l-0.8-0.2l-0.9,0c-0.2,0-0.7,0.4-1,0.5c-0.5,0.3-0.8,1-1.5,1.1l0,0.3v0.1l-0.3-0.1
		c-0.3,0.1-0.5,0.3-0.7,0.5l0.3,0.3c-0.4-0.1-0.9,0.2-1.4,0.2L180.4,47.1z"/>
	<polygon class="st0" points="161.8,50.5 161.5,50.6 161.5,50.7 162,50.7 162,50.7 	"/>
	<polygon class="st0" points="159.7,50.6 159.8,50.7 159.8,50.7 	"/>
	<path class="st0" d="M158.8,27.1l0,0.3c0.8-0.1,1.5,0,2.1-0.2l0.1-0.1c-0.5-0.1-0.9-0.2-1.4-0.2C159.4,26.9,159.1,27,158.8,27.1z"
		/>
	<polygon class="st0" points="162.7,50.9 162.4,50.8 162.4,50.9 162.6,51 162.7,51 	"/>
	<polygon class="st0" points="122.1,61.4 122.3,61.3 122.2,61.2 	"/>
	<path class="st0" d="M181,160.7c0-0.8,0.9-0.5,1.5-0.8c0.4-0.3,0.4-1.2,1-1.5c0.9-0.5,0.9-0.8,1.6-1.2c0.3-0.2,0.6-0.2,0.8-0.5
		c0.7-1.1,0.2-1.6,1.6-2.1c0.2-0.8,0.4-1.3,0.9-1.9l0.7-0.8c0.2-0.7,0.1-1.2,0.3-1.8c0.3-0.7,0.8-1.1,0.9-1.9
		c0.6-0.3,1.2-0.2,1.8-0.6c0.9-0.7,1.7-1.5,2.6-2.2c0.3-0.1,0.6-0.1,0.9-0.2c0.4-0.3,0.8-0.6,1.2-0.9c1.4-0.9,2.5-1.7,3.1-3.5
		c0-0.3,0-0.7,0-1c0.2-0.6,0.9-4.8,0.9-4.8c-38.8-0.1-67.6,0.4-67.6,0.4c0.6,1,1.1,2.4,1.9,3.2c1.6,1.7,4.3,2.6,5.3,4.7
		c0.5,0.5,1,1,1.5,1.4l-0.1,0.7c0.1,0.7,0.4,1.6,0.3,2.3c0,0.3-0.2,0.7-0.1,1.1l0.2,0.7c-0.1,0.7-0.4,1.4-0.4,2.2
		c-0.2,0.1-0.1,0-0.4,0l0,0.7l0.2,0l-0.2,1.3c0.1,0.4,0.1,0.9,0.2,1.3l-0.4,0.5l0.1,0.5c-0.1,0.9-0.3,1.7-0.5,2.2
		c-0.3,0.6,0,1.1-0.5,1.4c0.1,0.7,0.3,1.1,0.3,1.9l-0.4,0c-0.1,1.7,0.7,2.6,0.2,3.9l0.2,0.7c-0.4,1.1-0.9,2.2-1,3.5l-0.2-0.1l0,0.7
		l-0.5-0.2l-0.1,0.1c0.1,0.9,0.6,1.9,0.9,2.7c0,1.1-0.7,1.4,0.1,2.6l0,0.2l-0.3-0.2c-0.2,0.5,0.1,1,0,1.6c0.2,0.2,0.4,0.3,0.7,0.4
		l0.1-0.1c0.1-0.5,0.1-1.2-0.2-1.6l0.1-0.1l0.4,0.2h0l-0.1-0.2l0.1-0.2l0.3,0.3l-0.1,0.2c0.2,0.2,0.4,0.7,0.1,0.9l0.3,0.2
		c-0.1,0.9,0,1.5,0,2.4h-0.1c-0.1-0.3-0.3-1-0.2-1.1c-0.2-0.3-0.4-0.4-0.7-0.6c-0.2,0.2-0.3,0.6-0.3,0.9l0.4,0.4l0,0.7h-0.4v0.1
		l0.2,0.3l-0.4,0.3v0.2l0.4,0.2l0.2-0.2l0.9,0.5l-0.2,0l0.2,0.2l-0.1,0.5c-0.2-0.1-0.2-0.2-0.5-0.2v0l0.2,0.2l-0.2,0.2
		c0.3,0.5,0.3,1.2,0.7,1.7l0.7,0.4l-0.4-0.1v0l0.2,0.6l0.3,0.1l0.2-0.4l0.2,0.3h-0.2l-0.1,0c0.2,0.3,0.2,0.4,0.3,0.9l0.6-0.2
		l0.3,0.2l-0.1,0.2l-0.5-0.2l0,0.1c0.2,0.3,0.4,0.5,0.8,0.7l-0.1-0.2c0.3,0.2,0.6,0.5,0.9,0.7v0l-0.8-0.4c0.3,0.4,0.6,0.6,1,0.7
		l-0.1,0.2c0.4,0.4,2,1.5,2.5,1.4l-0.1,0.2c0.5,0.5,2,1,2.8,1.2v0l-0.4-0.4c0.4,0.1,0.6,0.1,0.9,0.2l0,0l0,0l0,0l0.2,0.1l-0.1-0.1
		l0.3,0.2l0-0.2l0.7,0.1h0.1l0-0.1v-0.2c-1.4-0.2-1.8-1.3-2.9-1.7l0.2-0.2c-0.3-0.3-0.7-0.3-1-0.7l-0.1,0l0.2-0.1l0.8,0.3v-0.1
		c-0.4-0.5-1-0.9-1.1-1.7l0.1-0.1l0.7-0.2c0.2-0.1,0.1-0.4,0.1-0.8c0.3-0.2,1-0.4,1.2-0.7c0.1-0.1,0.1-0.4,0-0.8
		c-0.8-0.5-2-0.7-1.8-1.9c0.4-0.3,0.9-0.4,1.4-0.2h0.2l-0.1-0.2l0.3-0.3c0-0.3-0.1-0.6-0.2-0.9c0.2-0.3,0.4-0.4,0.9-0.5l-0.6-0.5
		l-0.1,0l0.4-0.2l0.5,0.6l0.4,0l0.2-0.2c0-0.3,0-0.5-0.2-0.6l-0.1-0.2l-0.6,0.1l0.3,0.2v0l-0.4-0.1c-0.2-0.1-0.2-0.3-0.5-0.4
		c-0.2-0.3-0.2-0.9-0.3-1.3c0.4-0.5,1.2,0.5,1.8,0.6c0.4,0,0.8,0,1.2,0l0.2-0.6l-0.2,0.1l-0.2-0.2c0.2-0.4,0.6-0.7,0.4-1.2l0.2,0.1
		h0l-0.1-0.3c0.7,0.3,3.9,0.8,4.8,0.3c0.2-0.1,1-1,1.2-1.3l0-0.7c-0.4-0.1-0.6-0.2-0.7-0.7l0.4-0.4c-0.2-0.9-1.1-1-1.5-1.7l0.2-0.3
		l0.2,0c0.1,0.2,0.3,0.3,0.4,0.6c0.3,0.1,0.6,0.1,1,0.2c0.3,0.2,0.6,0.8,1,0.9c0.3,0.1,0.5-0.1,0.9,0c0.2,0.1,0.4,0.4,0.8,0.4
		c1-0.1,1.2-0.6,1.8-1l1.1-0.5c0.3-0.3,0.5-0.7,0.8-1c0.7-0.3,1.3-0.6,2-0.9c0.8-0.5,1.2-1.5,1.9-2c0.9-0.7,2.1-0.8,2.4-2.1
		l-0.2-0.1c0.1-0.5,0.2-1.2,0.4-1.8c0.2-0.6,3.8-2.3,4.7-2.1l0.6,0.5l0.1-0.4l-0.2-0.1v-0.1c0.5-0.1,0.9-0.8,1.4-0.6l0-0.3v-0.2
		c0.9,0,2.7,0.4,3.6,0.8L181,160.7z M144.5,187.1L144.5,187.1l-0.1-0.2l0.2,0.1L144.5,187.1z M144.9,187.5l0.3-0.2l0.2,0.1h0.1
		C145.4,187.7,145.3,187.6,144.9,187.5z M146.3,189l-0.1-0.1h0.1L146.3,189z M147,188.1L147,188.1l-0.4,0.1v0l0.3,0.4l-0.5-0.6
		l-0.1-0.1l-0.1,0.4l-0.2,0c0-0.2-0.1-0.6-0.2-1c0.4,0.1,0.3,0.2,0.4,0.6C146.5,188.1,146.6,188.1,147,188.1z M146.6,187.4
		L146.6,187.4l-0.1,0.2l-0.2-0.2l-0.1,0l0.1-0.1L146.6,187.4z M151.3,175.2l0.3,0.4l0,0.1L151.3,175.2z M165.5,169l0,0.3
		c-0.3,0.2-0.6,0.4-1.1,0.5l-0.3-0.1v-0.1c0.5-0.4,1.1-0.7,1.4-1.3l0.7-0.1l0,0.5C166.1,168.8,165.9,168.9,165.5,169z M169.9,165.5
		l0-0.2L169.9,165.5L169.9,165.5z M170,165.2l0-0.2h0L170,165.2z M179.2,160.3l0.1-0.2h0.2L179.2,160.3z"/>
	<path class="st0" d="M241.2,66.8l0.1,0.1l0,0c0-0.7-0.4-2.1-0.9-2.4l0.1,0.4l-0.3,0.2C240.3,65.7,240.8,66.5,241.2,66.8z"/>
	<path class="st0" d="M173.9,42.7c1.1,0.7,1.9,1.3,3.4,1.8l0.1,0v-0.2C176.7,43.6,175.3,42.7,173.9,42.7L173.9,42.7z"/>
	<polygon class="st0" points="250.2,69.6 250.4,69.8 250.4,69.6 250.2,69.5 	"/>
	<path class="st0" d="M242.9,70.4c-0.2-1.2-0.7-2.4-1.3-3.2l-0.1-0.1l-0.1,0.5l-0.4,0c0,0.6,0.6,1.1,0.8,1.6c0.2,0.4,0,0.8,0.1,1.1
		c0.2,0.1,0.2,0.3,0.6,0.4l0-0.4L242.9,70.4L242.9,70.4z"/>
	<polygon class="st0" points="162.8,49.8 162.7,49.8 162.7,49.9 	"/>
	<polygon class="st0" points="249.8,69.6 249.9,69.5 249.7,69.2 249.8,69.5 249.6,69.3 	"/>
	<polygon class="st0" points="249.6,68.5 249.7,68.6 249.6,68.3 	"/>
	<polygon class="st0" points="244.5,64.9 244.4,64.8 244.4,64.9 	"/>
	<polygon class="st0" points="241.2,64.8 241.1,64.9 241.1,65 241.4,65 	"/>
	<polygon class="st0" points="177.6,160.4 177.8,160.4 177.8,160.3 177.6,160.2 177.5,160.3 	"/>
	<path class="st0" d="M154.1,35.1c0.1,0.3,0.9,0.5,1.2,0.6h0.1l0-0.5c-0.3-0.1-0.6-0.2-1-0.2L154.1,35.1z"/>
	<polygon class="st0" points="180.8,45.9 180.7,45.9 180.7,46.1 181.4,46.1 181.1,45.9 	"/>
	<polygon class="st0" points="249.5,72.1 249.6,72.3 249.8,72.4 249.8,72.3 249.5,71.7 	"/>
	<polygon class="st0" points="178.1,160.3 178,160.3 178,160.3 	"/>
	<polygon class="st0" points="250.2,68.9 250,68.7 250.1,68.9 	"/>
	<polygon class="st0" points="250.1,72.9 250.1,72.7 249.8,72.6 249.9,72.8 	"/>
	<path class="st0" d="M173.5,46l-0.6,0.2l0,0.1c0.5,0.5,1,0.8,1.8,1l0.1,0.2l0.4,0.3c0.5-0.1,0.4-0.3,1.1-0.3l0-0.1v0
		c-0.3-0.1-2.4-0.6-2.4-0.6l-0.1-0.3c-0.2-0.2-0.1-0.1,0-0.4L173.5,46z"/>
	<polygon class="st0" points="251.7,74.9 251.8,75.2 251.9,75.1 	"/>
	<polygon class="st0" points="218.2,44.7 217.9,44.6 217.5,45 217.8,45.4 218,45.4 218.3,45.1 	"/>
	<polygon class="st0" points="183,39.2 183.1,39.2 183.1,39.2 183.1,39.2 182.9,39.1 	"/>
	<polygon class="st0" points="178.2,26.4 178.1,26.3 178.1,26.4 	"/>
	<polygon class="st0" points="234.2,48.8 234.3,49 234.7,49.1 	"/>
	<polygon class="st0" points="180.4,36.9 180.5,36.8 180.2,36.7 180.4,36.9 	"/>
	<polygon class="st0" points="219.1,46.3 218.9,46.2 219,46.4 	"/>
	<polygon class="st0" points="219,46.8 219,46.8 219.1,46.6 219,46.6 218.9,46.7 218.9,46.7 	"/>
	<path class="st0" d="M176.7,31.2L176.7,31.2l0.6,0.4l0.3-0.2l-0.1-0.3l-0.4-0.1C177,31.2,177.1,31.2,176.7,31.2z"/>
	<polygon class="st0" points="230.9,51.4 230.9,51.5 231,51.5 	"/>
	<polygon class="st0" points="230.6,46.3 230.7,46.5 230.8,46.5 	"/>
	<polygon class="st0" points="218.8,46.9 218.9,46.9 218.8,46.8 	"/>
	<polygon class="st0" points="166.2,27.6 166.2,27.5 166.1,27.3 165.6,27.2 166,27.6 	"/>
	<polygon class="st0" points="165.3,26.9 165.3,27.1 165.7,27.1 165.7,27 	"/>
	<polygon class="st0" points="176.6,31.1 176.6,31 176.3,30.9 	"/>
	<polygon class="st0" points="164.8,27.6 165.2,27.6 165.3,27.6 165.3,27.4 164.5,27.2 164.4,27.3 	"/>
	<path class="st0" d="M169.7,25.1l0.3-0.3l0-0.1c-0.5-0.1-0.8-0.3-1.5-0.2l-0.7,0.2l-0.1,0.2v0C168.2,25.1,169.3,25.4,169.7,25.1z"
		/>
	<polygon class="st0" points="168.4,28.6 167.8,28.4 168.2,28.6 	"/>
	<polygon class="st0" points="173.1,31.5 173,31.6 173.7,31.7 173.8,31.6 173.5,31.4 173.3,31.4 	"/>
	<polygon class="st0" points="171.7,30.6 171.6,30.6 171.6,30.7 	"/>
	<polygon class="st0" points="170.2,28.1 170.2,28 170.1,28 170.1,28.1 	"/>
	<polygon class="st0" points="219.7,47.2 219.6,47.3 219.6,47.3 219.7,47.4 219.8,47.3 	"/>
	<polygon class="st0" points="184.3,49 184.4,49.1 184.5,49 184.3,48.9 	"/>
	<polygon class="st0" points="184.3,48.7 184.4,48.9 184.5,48.8 	"/>
	<polygon class="st0" points="184.5,49.1 184.5,49.2 184.6,49.1 	"/>
	<polygon class="st0" points="151.3,57.1 151.5,57.1 151.4,57 	"/>
	<polygon class="st0" points="187.7,48.9 187.6,48.9 187.4,49 187.3,49.2 187.5,49.2 187.7,49 	"/>
	<polygon class="st0" points="186.7,43.4 186.6,43.6 186.8,43.4 	"/>
	<polygon class="st0" points="188.5,47.7 188.4,47.6 188.4,47.7 	"/>
	<polygon class="st0" points="186.2,44.6 186.3,44.5 186.2,44.5 	"/>
	<path class="st0" d="M187.8,46.4l0,0.2l0.4,0C188,46.4,188.1,46.4,187.8,46.4z"/>
	<polygon class="st0" points="163.1,29.3 163.1,29.3 163.1,29.2 162.7,29.2 162.8,29.3 	"/>
	<polygon class="st0" points="222.2,49.5 222.3,49.6 222.5,49.6 222.6,49.4 222.3,49.2 	"/>
	<path class="st0" d="M218.3,45.7l1.1,0.5l0.1,0.2l-0.3,0.1c0.1,0.3,0.2,0.3,0.2,0.5l0.5-0.1l0-0.2v-0.1h0.1
		c0.1,0.5,0.4,0.9,0.5,1.5l0.2,0l0.1-0.1l-0.1-0.2L221,48l0.1,0l-0.2-0.5l0.4,0.3c0.1,0.2,0.1,0.4,0,0.7l0.5,0.4h0.1l-0.1-0.2v0
		l0.5,0.2l0-0.2c0.3,0.1,0.5,0,0.7-0.2c0.4,0.4,0.2,1.1,1,1c0,0.4,0.1,0.6,0.3,0.8c-0.4,0.3-0.8,0.1-1.2,0c0.1,0.3,0.2,0.3,0.4,0.4
		l-0.2,0.2l0.1,0.1l0.4-0.2l0.4,0.5c-0.1,0.3-0.3,0.4-0.7,0.5l-0.1,0.2l0.5,0.4c0.5-0.3,1,0.1,1.6,0.3l0.4-0.2l0,0.3
		c-0.3,0-0.7,0-1,0c0,0.4-0.3,1-0.7,1.3l0,0.1l0.6,0.1c0.1-0.2,0.1-0.4,0.4-0.4l0.8,0.1l0.1-0.6l1.7,0.2l0.2,0l-0.1-0.2
		c0.8,0,1.2,0,1.8-0.3l0-0.1l-0.1-0.3l-0.7-0.1c0.1-0.2,0.4-0.5,0.3-0.9c-0.1-0.5-1-1.5-1.6-0.9l-0.2,0c-0.3-0.6-0.8-1.4-1.6-1.9
		l-0.9-0.4c-0.8-0.8-1.2-1.4-2.4-1.4l0.4-0.3l-0.3-0.2c0.2-0.4,0-0.7,0-1.1c-0.5-0.4-1.3-0.3-1.9-0.2c0-0.3,0.1-0.2-0.2-0.3l0.3-0.5
		l-0.1-0.3c-0.5-0.1-1,0.1-1.5-0.1l0,0.3l0.1,0.4l-0.1,0l-0.2,0.1l0.3,0.5l0,0l-0.7-0.5L218.3,45.7z M220.7,47.6l0.1,0.1l-0.2,0.1
		l0-0.2H220.7z"/>
	<path class="st0" d="M162.4,27.8l-0.5,0.2l-0.1,0.2l0.2,0.2c0.4,0.1,0.6-0.1,0.9-0.2l0.2-0.2C162.9,27.8,162.8,27.8,162.4,27.8z"/>
	<path class="st0" d="M220,47.9l0-0.7l-0.4,0.4C219.7,47.8,219.8,47.7,220,47.9z"/>
	<path class="st0" d="M217.5,49.7l-0.2,0.1c0.2,0.2,0.4,0.2,0.7,0.2l-0.4,0.4c0.4,0.5,0.7,0.2,1.3,0.4c-0.3,0.2-0.2,0.2-0.3,0.6
		l0,0.3l0,0.4l-0.4,0l-0.1,0.3l0.6-0.1l-0.4,0.2c0.6,1.5,2.7-0.4,3.7-0.4c0-0.7-0.3-1.7-1-2l-0.1-0.1c0.3-0.1,0.3-0.3,0.5-0.4l0-0.2
		c-0.4-0.3-0.7-0.3-1-0.8c-0.4-0.2-0.7-0.1-1,0.1l0.1-0.2l-0.5-0.2c-0.1,0.2-0.4,0.2-0.8,0.3c-0.1,0.3,0,0.3-0.2,0.6l0.6,0.1
		l-0.2,0.4c-0.5,0-0.9,0-1.4,0C217.3,49.7,217.4,49.5,217.5,49.7z"/>
	<polygon class="st0" points="218.1,46.2 218,45.5 217.7,45.5 217.5,45.6 218,46.1 	"/>
	<polygon class="st0" points="186.3,44.9 186.4,44.8 186.4,44.8 186.1,44.7 	"/>
	<polygon class="st0" points="218.1,46.2 218,46.2 218,46.3 218.1,46.3 	"/>
	<path class="st0" d="M106.4,49.2c-0.1,0.2-0.2,0.5-0.3,0.7l-0.5,0.6l-1,2.7l0.4,0c-0.1,0.7,0.3,0.7,0.1,1.5c-0.3,1.2-1.1,2.7-1.5,4
		c-0.1,0.3-0.4,0.9-0.3,1.3c0.1,0.4,0.3,1.1,0.1,1.6c-0.2,0.3-0.4,0.7-0.6,1l-0.6,0l0,0c-0.1,0.7,0.2,1.1,0.1,1.7l0.2-0.1
		c0.4,1,0.2,2.2-0.6,2.9c0.2,1,0.8,1.5,0.6,3.1v0.1l0.1,0c0.9-0.9,0.7-0.8,0.8-2l-0.1-0.3l-0.2,0.3l0,0c-0.1-0.8,0.7-2.7,0.8-3.5
		c0.1-0.5-0.2-1.5,0-2.1c0.3-1.5,0.5-4.7,1.7-5.6l0.2,0.3l0.2-0.1c0.3,0.9-0.8,2.2-0.7,3.3c-0.3,0.2-0.4,0.3-0.6,0.6l0.1,0.1
		l0.3-0.3c0,0.3-0.2,1.2,0.1,1.5l0.1,0l0.1,0.1c-0.2,0.3-0.3,0.5-0.3,1l0.2,0.1l-0.1,0.6l0.2,0c0,0.7-0.3,0.9-0.6,1.3
		c0.1,0.6,0.4,0.8,0.6,1.2c-0.2,0.2-0.2,0.3-0.2,0.6c0.5,0.6,1.1,5.1,0.2,5.7c-0.2,0.3-0.2,0.3-0.1,0.6l-0.5,0.3
		c-0.7,1.7,0.8,2.2,0.9,3.5l0.3,0.2c0,0,5.6-0.2,8.9-0.3l-0.4-0.2c-0.1-0.1-0.8-3.5-0.7-4l0.3-0.5c-0.5-1.1,0.3-2.2,0.7-3.1l1-2.5
		c0.3-0.4,0.9-0.3,1.1-1c0.1-0.5-0.1-0.9,0.2-1.5c0.2-0.5,0.8-0.7,0.8-1.4c0.3,0,0.9-0.2,0.9-0.5l0.1-0.3l0,0.3l0.3-0.1l0.2-0.3
		l-0.1-0.2c0.9,0.1,1.5-0.2,2.3-0.7c0.5,0.1,0.3-0.2,0.3-0.5l0.4-0.3l0,0.1l-0.2,0.2l0.2,0.1c0.2,0.2,1-0.3,1.5-0.2
		c0.5,0.1,1.5,0.4,1.8,0.6l0.1,0l0-0.2l-0.3,0l0-0.1l0.4-0.1l0.5,0.7l-0.1,0.1l-0.1,0.2l0.5,0.4l0.7-0.3l0.1,0.3
		c0.3-0.1,0.4-0.3,0.6-0.5c0.2,0.2,0.4,0.5,0.6,0.7l0.1,0.1l0,0l0.2-0.3l-0.5-0.5l-0.1-0.1c0.1-0.2,0.3-0.2,0.5-0.3
		c0.1-0.2,0.1-0.2,0.1-0.4l-0.4,0.2l-0.1,0l-0.1-0.1c0.8-0.5,1.7-0.4,2.5-0.2l0.2-0.4l0.2-0.1l0,0.6c1.1,0.1,1.9-0.3,2.8,0.6
		l0.3,0.7c0.4,0.3,1.4-0.3,1.9-0.3c0.2,0.3,0.7,1.5,1,1.6c0.4,0.9-0.7,1.4-0.6,2.2l0.1,0l0.1-0.4l0.1-0.1l0.2,0.2l-0.5,0.4
		c-0.1,0.2,0.1,0.7,0.1,1.1l0.3,0.1l0.1-0.2l0,0.1l-0.4,0.6l0.2-0.1l0.1,0.6c0,0.8,0.8,0.8,0.4,1.6c0.3,0.4,1.2,0.1,1.4,0.2
		c0-0.6,0.8-1.3,1.1-1.9c0.3-0.8,0-1.8,0-2.8l0.3-0.1l-0.3-2.1c0.2-2.7,2.4-3.4,4.6-4.1c1-0.3,0.6-1.2,2.5-0.8c0.5-0.9,2.1-0.7,3-1
		l0.1-0.1l-0.3-0.3v0c0.3-0.2,1-0.3,1.3-0.3l0.3-0.4c-0.2-0.2-0.5-0.4-0.9-0.4v-0.1c0.3,0.1,0.6,0.1,1,0.2l0,0.4
		c0,0,0.1-1.1,0.2-1.6l-0.3-0.1l0-0.2l0.5-0.9l0-1.2l0.7-0.6c-0.6,0.8-0.3,0.8-0.5,1.8l0.5,0.1c-0.3,0.3-0.6,0.4-0.8,0.7l-0.1,0.1
		l0.3,0.1c0.3-0.6,1.5-1,2-1.9c-0.3-0.3-0.2-0.5-0.3-1c0.2,0.2,0.3,0.4,0.7,0.5l-0.2,0.2v0.1c0.8,0.1,1.8-0.9,2.2-1.5l-0.2-0.2
		l-0.1-0.1c0.9-0.1,2.2,0.1,3.2,0l-0.2-0.3c-0.8,0.1-1.4-0.2-2.2,0c0.9-0.7,3.6,0.3,4.8-0.2c0.1,0.3,0.4,0.3,1,0.3l0.2-0.3l-0.1-0.2
		c-0.1,0.3,0,0.3-0.3,0.3l-0.4-0.1c-0.1-0.3,0-0.7-0.5-0.8l0-0.1l0.7-0.2l-0.2-0.3c0.3-0.4,1.1-0.7,1.4-1c0.8,0.2,1.3,0.1,2.1-0.3
		l0.1,0.3c1-0.1,1.9,0,3-0.3l-0.2-0.3l0.8,0.2c0.8,0.2,2.3,0,2.9-0.2l0.1,0.1l-0.7,0.2l-0.1,0.1l0.8,0.2c-1,0.1-1.9,0.3-2.9,0.5
		l-0.1,0.1l0.4-0.1l-0.2,0.1c-0.2,0.3-0.3,0.3-0.3,0.8l0.3,0c0.2,0.3,0.1,0.4,0.5,0.5c0.7,0,1.4-0.4,2.1-0.5l0.3-0.3l0.1,0.1
		l0.2-0.2c0.1,0.3,0.2,0.3,0.5,0.4c0.4-0.4,3.1,0.1,3.9-0.1l0.1,0c-0.1-0.2-0.3-0.2-0.6-0.2l0.3-0.2c0.6,0.2,1.3,0.1,2.1,0.1v-0.2
		c0-0.3-0.4-0.5-0.8-0.6V48l0.4-0.5l-0.1-0.3l-0.3-0.1c-0.5,0.2-1.6,0.5-1.7,1.2c-0.4,0.1-0.5,0-0.6-0.4c-1.2,0.1-1.6-0.5-2.6-0.6
		l-0.2-0.3l0.2,0l0-0.1l-0.9-0.4l-0.5-0.8l0.3-0.2c-0.1-0.1-0.3-0.2-0.6-0.2l0-0.1c0.5-0.1,0.8-0.4,1.3-0.6l0.1-0.2v-0.1
		c-0.5,0.2-1,0.1-1.7,0.1c-0.1-0.4-0.4-0.5-0.8-0.6l-0.1-0.1c0.7,0.1,0.9,0.4,1.5,0.4c0.5-0.1,1-0.1,1.6-0.2v-0.1l0-0.3l0.2,0.1
		v-0.1c-1.2-1.7-5.6-1.1-7.5-0.7c-0.8,0.1-1.3,0.8-2.3,0.8c0.4-0.4,3.1-1.4,3.9-1.7l1.8,0.1l0.5-0.5c0.7-0.4,1.7-0.2,2.6,0
		c1.2,0.3,2.3,0.4,3.4,0.8c0.7,0.2,2.9,1.1,3.6,1c0.6-0.1,1.1-0.3,1.6-0.5c1.2-0.5,3.7,0.8,4.5-0.2l0-0.2l0.1,0.1
		c0.1-0.2,0-1.1,0.2-1.3c-0.3-0.1-0.6-0.2-0.9-0.3l0.1-0.2c-0.5,0-0.6-0.2-0.9-0.1c-0.1-0.6-0.6-0.8-1.3-0.9v0
		c0.4,0,0.9,0.1,1.3,0.1c-0.2-0.3-0.8-0.4-0.9-0.7c-0.4-0.1-0.8,0-1.1-0.2l-0.1-0.3l-1-0.3c-0.2-0.2-0.3-0.4-0.6-0.5l0.1-0.2
		c0-0.1-0.9-0.7-1.3-0.8l0.3-0.1c0-0.1,0-0.4,0.1-0.8l-0.4-0.2c0,0,0.1-0.3,0.1-0.6c-0.5-0.2-1-0.4-0.9-0.9l-0.3,0
		c-0.3-0.5-1.5-1.9-1.4-2.4c-1.2,0.3-2.8,2.3-4.5,1c-0.3,0-0.5-0.4-1-0.5l0-0.4l-0.4-0.1c0.1-0.4,0.3-0.5,0.3-1l0.6-0.2l-0.1-0.2
		l-0.5,0.2c-0.3-0.4-1.1-0.5-1.7-0.7l0-0.1v0l0.3-0.1l0,0c-0.4-0.4-1.2-1-1.7-1.1l-1.3,0c-1.1-0.4-2-0.8-3.1-0.7l-0.3,0.3l-0.1,0.2
		l0.2,0.2c-0.2,0.3-0.5,0.4-0.9,0.5c0.4,0.5,0.1,0.5,0.3,0.8c-0.2,0.2-1.4,0.6-1.8,0.7l-0.2,0.3c0.6,0.2,1.2,0.7,1.2,1.5
		c-0.5,1.2-1.8,1.4-3.2,1.6c-0.5,0-1,0-1.6,0h-0.1c0,0.2,0,0.5,0.3,0.6c-0.3,0.5-0.8,1.1-0.4,1.7c-0.3,0.2-0.6,0.5-1,0.5l0,0.4
		l-0.2,0l-0.2-0.4c-0.4,0.1-0.6,0.2-0.9,0.4l-0.5-0.2c-0.2-0.8-0.7-1.3-1-2c0.3-0.2,0.5-0.4,0.7-0.7l0-0.4c0.3-0.3,0.6-0.4,0.8-0.8
		c-1-0.1-4-1-4.6-1.6c-0.2-0.2-0.3-0.7-0.6-0.9c-0.5-0.2-0.9-0.4-1.4-0.6c-0.5,0-1,0-1.6,0l-0.1,0c0.4-0.4,0.6-0.9,0.9-1.4
		c-0.3-0.1-0.6-0.1-1.1-0.1l0-0.2c1-1.1,4.1-2.3,5.5-2.2l-0.2-0.2c0.5,0,1,0.1,1.6,0l0-0.4c0.1,0,0.2,0,0.3,0c1.1,0.1,3.2,0,4.2-0.5
		l0-0.1c0.7-0.1,1.4-0.2,2.2-0.2l-0.1,0.1c-0.9-0.1-2,0.4-2.2,1c-0.5,0-0.9,0-1.2,0.2c0.3,0.2,1,0.1,1.3,0.1l-0.2,0.1l-0.2,0.3
		c0.7,0.1,1.9-0.1,2.4-0.4c0.3,0.1,0.6,0.2,0.9,0.2l-0.3,0.1c0.5,0.4,1.3,0.4,2.2,0.4l-0.2-0.2c-0.2-0.1-0.6-0.2-0.9-0.2l0.2-0.4
		c-0.4-0.2-1.2-0.5-1.4-0.8c-0.2-0.2,0-0.4-0.2-0.5c0.1,0,0.2,0,0.2,0c0.2,0.2,0.7,0.5,0.9,0.5l0.1-0.1l0.1,0l-0.2,0l-0.3-0.4v0
		l0.5,0.2l0-0.3c0,0,0.1,0,0.1,0l0.4,0.3l0-0.1c0.8-0.2,1.6-0.2,2.3-0.4c1.6-0.1,3.3-0.2,5-0.2l0.9,0.1l0.1,0.1l-0.5,0h-0.1
		c0.1,0.4,0.5,0.3,0.8,0.1l0.1,0.4c-0.2-0.1-0.4-0.1-0.6-0.1c0.1,0.3,0.7,0.4,1.1,0.4l0.1-0.2l-0.5-0.1l0.1-0.3
		c0.3,0.1,0.5,0.3,0.8,0.3l0.2,0.8l-2.4,0.3l-0.1,0.1l0.5,0.5v0c-0.6-0.2-1.1,0-1.7-0.1c-1.1-0.2-1.9-0.8-3-0.1l0,0.1
		c0.3,0.6,1.3,0.3,1.9,0.4c0.6,0.1,1.5,0.2,2.2,0.5c0.7,0.3,0.9,0.8,1.6,0.9l-0.5,0c0.2,0.3,0.4,0.5,0.8,0.5l-0.2,0.1
		c0.2,0.2,0.3,0.3,0.6,0.4l0.2,0l-0.2-0.2v0c1.5,0.5,2.8,1.5,4.5,1.8l0.2-0.1l0-0.1c-0.5-0.6-1.6-1.4-2.4-1.7l0-0.2
		c0.3,0.2,0.6,0.3,0.9,0.5l0-0.2c0.9,0.5,1.9,1.2,2.8,1.7l0.3,0l0.1,0v0c-0.3-0.2-0.5-0.2-0.7-0.5l0.4,0.2h0.1l-0.1-0.4l0.1-0.1
		l0.1,0.2c0.3,0,0.2-0.1,0.4-0.2l0.2,0.3l0,0l-0.1-0.2l0.3,0l0-0.1c-0.3-0.2-0.6-0.4-0.9-0.5l-0.1-0.1l0.3,0v-0.1
		c-0.3-0.2-1.2-0.9-1.8-0.8c0-0.3-0.2-0.7-0.5-0.8l0.4,0l0-0.1l-0.2-0.2c0.7,0,1.2,0.6,1.8,0.6c-0.2,0.7,1.1,0.8,1.5,1.2
		c0.3-0.1,0.3-0.2,0.6-0.2l-0.1-0.1l0.2-0.2l0.8,0.1l0,0.2l0.4,0l-0.2-0.2l0.2,0l0.1,0l-0.2-0.3c0.4,0.1,0.6,0.1,1,0
		c-0.1-0.4-0.7-0.6-1.2-0.6l0.2-0.1l-0.5,0c-0.2-0.1-0.3-0.4-0.9-0.4l0.2-0.1c-0.2-0.2-0.6-0.4-0.9-0.4l-0.1-0.1l0.2-0.1
		c-0.5-0.1-0.7-0.3-1-0.1c-0.3-0.3-0.3-0.4-0.8-0.4l0.1-0.1c-0.4-0.1-0.8-0.2-1.2-0.3v0l0.3,0l0-0.3c0.4,0.1,0.7,0.2,1.1,0.3
		l0.1-0.1c-0.2-0.2-0.6-0.4-0.9-0.3l0.1-0.1l0.5,0.1l0.1,0l0-0.1c-0.4-0.3-0.6-0.4-1.3-0.3c0.2-0.2,0.2-0.2,0.5-0.2v0
		c0,0-0.1,0-0.1-0.1c1.4,0.1,2.8,0.2,4.2,0.4l0,0.1c0.7,0.2,1.4,0.5,2.4,0.3v0l-0.2-0.1c0.1,0,0.3,0,0.4,0c0.1,0.1,0.3,0.2,0.4,0.2
		l0.2-0.1c-0.2,0.3-0.3,0.3-0.3,0.6c-1.1-0.2-1.9-0.6-2.3,0.6l0.3,0.3l-0.3,0.1l-0.1,0.3c0.4,0.4,0.7,0.6,1.2,0.8l0.1,0.6l0.3,0.1
		l0.2,0.5c0.3,0.4,1.4,0.9,1.6,1.3l0.2,0.4c0.4,0.3,0.9,0.4,1.2,0.7v0.1c0.8,0.4,2,0.3,2.7,0.7l0,0.2l2.1,0.6l0.2,0l-0.1-0.3
		c0.4-0.2,0.5-0.7,0.8-1c-0.1-0.3-0.2-0.3-0.2-0.6c0.6-0.1,0.8-0.4,1.2-0.5l-0.3-0.5l0.3,0l0.2-0.1l-0.5-0.4l-0.1,0v-0.1
		c0.3,0.1,0.5,0.1,0.9,0.1l0.1,0l-0.2-0.3l0,0c0.4,0.2,0.6,0.2,1.2,0.2l0.1-0.4l0.3,0l-0.3,0.4l0,0.1c1.2,0.3,2-0.2,3.1-0.4l0-0.3
		c0.9-0.3,2,0,3,0.2c3.1,1.1,6.2,2.3,9.1,3.6c-0.4-0.1-0.8-0.3-1.2-0.4l-0.1,0l0.1,0.2c-0.2-0.2-0.4-0.4-0.8-0.4v0.1l0.3,0.3v0
		l-0.4,0c-0.6-0.5-1-1.1-2-1.2l0.2,0.3l-0.4-0.2l-0.4,0.3l-0.1,0.1c0.7,0.2,1.3,0.3,2,0.5c-0.3,0.2-0.7,0.1-1.2,0l0,0.1l0,0.1
		c0.9,0.2,1.3,0.5,1.9,0.8l0.1,0.1l-0.5-0.1l-0.1,0.1l0.1,0.2c1.4,0.4,4.7,2,5.8,0.7c3.4,1.8,6.7,3.7,9.8,5.8l-0.1,0.1
		c0,0.3,0,0.3,0.1,0.5l-0.5,0.2c0.2,0.3,0.4,0.5,0.6,0.7l0.1,0.5c0.5,0.7,1.4,1,1.8,1.9L226,44l0.2,0.6c0.2,0.3,1.6,1.1,2.1,0.8
		c0.2-0.1,0.3-0.5,0.1-0.8l0.3-0.1l-0.1-0.2v0c1.4,0.7,2.1,2.4,3.6,3l0.2,0.5l-0.4,0.4c0.3,0.4,0.6,0.7,1.1,0.9l-0.3,0v0l0.4,0.4
		l0.3,0l0-0.4l-0.6-0.5l0.1-0.2l-0.3-0.3c0.3,0.2,0.4,0.4,0.6,0.6l0.6,0l0,0v-0.1l-0.4-0.5l0-0.2c0.7,0.7,1.5,1.3,2.2,2
		c0,0,0,0.1,0,0.2l-0.3,0.1c-0.3,0.4-0.4,0-0.8,0l0-0.2l-0.5-0.4l0,0.3l-0.3-0.1c0.1,0.3-0.1,0.2-0.1,0.6l-0.2-0.1l-0.2-0.5
		l-0.3-0.2l0.1,0.2c-0.4,0-0.7-0.3-1-0.6l0.1-0.1l-0.5-0.2l0-0.1l0-0.1c0.3,0.2,0.7,0.4,1,0.6c-0.2-0.5-0.7-1.1-1.2-1l-0.3-0.7
		l0.2,0.1l0-0.2c-0.5-0.5-1.1-0.8-1.4-1.6l-0.3,0.1l0.1,0.4l-0.2,0l-0.2,0.1c0.2,0.9,2,2.2,1.9,2.7l0.3,0.1c0.2,0.4,0.4,0.6,0.7,0.9
		c-0.2,0.1-0.1,0-0.1,0.3c-0.3-0.1-0.4-0.1-0.8-0.1l0,0.2l-0.7,0.1l-0.1,0.2l0.2,0.3l0.3,0c0.1,0.3,0.2,0.3,0.2,0.6l-0.2,0l-0.1,0
		c0,0.4,0,0.4,0.2,0.6l-0.4-0.1c-0.2-0.5-0.3-1-0.5-1.5l-0.1-0.1h0c0.2,0.7,0.7,1.7,0.3,2.1c-0.3,0.2-0.8,0.3-1,0.6
		c0.1,0.3,0.3,0.6,0.4,0.9c-0.2,0.1-0.3,0.2-0.6,0.3l0,0.5l-0.2,0.1c-0.6,0.1-1.3-0.4-1.8-0.6l0,0c0.3,0.4,0.7,0.7,0.8,1.2l0.2,0.1
		v0c-0.4-0.1-0.6-0.1-0.9,0.1l-0.6-0.4c-0.3,0.2-0.9,0.1-1.2,0.4l-0.1,0c0.1,0.4,0.4,0.4,0.7,0.6l-0.3,0.1c0.5,0.5,1.3,0.4,2.1,0.6
		l2.4,2.3l-0.3-0.2l0,0c0.6,0.8,1.3,2,1.3,3.6c-0.9,0.3-2.9-0.3-4.1-0.4c-0.3,0-1.1,0.3-1.5,0.1c-0.2-0.1-0.3-0.3-0.7-0.2
		c-0.3-0.1-0.4,0.2-0.3,0.5l-0.7,0.3l-0.2,0.1c0,0.5,0.3,0.5,0.4,0.9l0.3-0.1c0.1,0.9,0.6,1.5,0.9,2.3c0.3,0.7,0.1,2.8,0,3.6
		l0.5,0.6l0.3-0.2c0.3,0.7,0.4,1.4,0.4,2.4c0.5-0.2,1,0.1,1.3,0c0.2-0.1,0.3-0.3,0.6-0.3c0.9-0.4,1.3,1.7,2.2,1.8l1-1.1
		c0.7,0,1.1-0.1,1.7,0.1l0.1-0.2c0.3,0,0.3,0.1,0.4,0.2c0.2-0.3,0.3-1,0.4-1.3c0.2-0.1,0.2-0.1,0.6-0.1c0-0.3-0.2-0.7,0-1.2
		c0.1-0.3,0.3-0.3,0.4-0.7c-1.5-1-0.1-2.3-0.6-3.1c0.3-0.4,0.5-0.3,0.9-0.5l0.7-0.8c-0.1-0.5-0.9-1.3-0.7-1.9l0.4-0.5
		c0.8,0.3,1.3,0.6,1.9,0.8c0.3-0.3,0.2-0.9,0.8-1l0.1-0.7v-0.1c1.3,0.2,2.1,2.1,2.8,3l2,1.8l0.4,0l0.3,0.6c1.4,1.4,1.9,1.8,2.5,3.8
		l-0.6,0.4c-0.5,0-0.5-0.1-0.8-0.3l-0.1,0.2l-0.2-0.2l0,0l0,0.7l2.1,1.7l0,0c-0.1-0.8-0.5-1.1-0.5-2.1l0.3,0.2l0.1,0
		c0.1-0.4,0-0.9-0.1-1.2c0-0.3,0-0.2,0.2-0.3c-0.2-0.6-0.5-0.7-0.8-1.1l-0.3-1.1l0.1-0.1c0.2,0.3,0.8,0.9,1.1,1.1
		c-0.3-1.1-1.3-2-2.3-2.5c-0.1-0.2-0.2-0.3-0.1-0.7c-0.3-0.1-0.5,0-0.8-0.3c-0.7-0.6-1-1.5-1.6-2.3c-0.5-0.6-1.4-0.9-1.7-1.8l0-0.3
		c-0.1-0.3-0.4-0.3-0.5-0.7c0.3,0,0.3-0.1,0.4-0.3l0.2,0c0.2,0.2,0.6,0.9,0.7,1.3l0.1,0.1l0-0.3l0.2,0.5l0.1,0.1l-0.2-0.5
		c0.5,0.2,0.7,1,0.9,1.3c0.4,0.4,0.9,0.7,1.2,1l-0.2-0.1l0.3,0.5l0.2,0l-0.2-0.2l0.1,0l0.3,0.2l0,0.1l-0.3,0.1l0.4,0.1
		c0.6,0.3,1.4,1.2,1.8,1.7c0.3,0.7,0.6,1.5,0.8,2.2c0.3,0.6,1.1,1.3,1.4,1.9l0.2,0l0,0.5c0.1,0.2,0.4,0.5,0.8,0.6
		c-0.1,0.3-0.1,0.2-0.1,0.6c0.3,0.5,0.7,1,0.9,1.6l0.1,0.1l0,0l-0.1-0.4l0.1,0l0.3,0.8l0.1,0.1l-0.1-0.4l0.3,0.4l0,0
		c-0.2-0.5-0.5-1-0.7-1.6l0.2,0.2l0.1,0.1v-0.1l-0.4-0.8l0.1,0l0.3,0.4l0,0l-0.2-0.6l0.5,0.5c-0.3-0.6-0.9-1.7-1.5-1.9l0.2-0.1
		c-0.2-0.6-1.1-1.2-1.2-2.2l0.1,0c0.1,0.5,0.5,0.4,0.7,0.6l0,0c-0.2-0.3-0.4-0.6-0.6-0.9l0.3-0.2c0.2-0.2,0.4,0.4,0.7,0.4l0.1,0.5
		c0.1-0.6,0-1.4-0.1-1.6c-0.3-0.3-0.4-0.7-0.7-1.1c-0.4-0.7-0.8-1.4-1.2-2.1c2.5,3.4,4.7,6.8,6.6,10.3
		c-13.9-32.8-46.4-55.8-84.3-55.8c-37.9,0-70.4,23-84.3,55.8C91.2,66.2,97.8,57.2,106.4,49.2z M158.9,50.6l0.1-0.1l0.2,0L158.9,50.6
		L158.9,50.6z M177.9,48.3L177.9,48.3L177.9,48.3L177.9,48.3z M177.6,48.4l0.3,0l0,0.1v0.1l-0.6,0L177.6,48.4z M173.5,48.1l-0.9,0.1
		l-0.2-0.1l0-0.2C172.9,47.9,173.2,48,173.5,48.1z M184.7,41L184.7,41l-0.2,0.1l0-0.2L184.7,41z M180.9,40.1l0.4-0.1
		c0.5,0.1,1,0.1,1.5,0.2c-0.6,0.1-1.3,0.1-2,0.2C180.8,40.2,180.8,40.4,180.9,40.1z M105.8,55.8L105.8,55.8c0.1-0.5,0.3-0.9,0.4-1.5
		C106.6,54.9,106,55.4,105.8,55.8z M114.2,73L114.2,73L114,73l0-0.4L114.2,73z M128.7,61c-0.3,0-0.5,0-0.8,0l0.4-0.4L128.7,61
		L128.7,61z M160.2,25.2l0.1-0.3l0.1,0.1h0.1L160.2,25.2z M231,51.2L231,51.2v-0.1l0.1,0l0,0L231,51.2z M226.3,70.5l0-0.3l0.1,0
		L226.3,70.5z M231.5,50.9L231.5,50.9l0.1-0.1L231.5,50.9z M235.5,50.6l-0.3-0.2L235.5,50.6L235.5,50.6z M250.4,72l0.3,0.3l-0.1,0.1
		l-0.5-0.4L250.4,72z M171.5,27.6L171.5,27.6l0.4-0.1l0-0.3c0.3,0.1,0.7,0.2,0.8,0.5l0.1,0.1C172.4,27.7,172,27.6,171.5,27.6z
		 M172.6,26.7l0-0.4l0.4-0.2c0.5,0.1,0.4,0.4,1,0.4l-0.1,0.2l0.2,0.2C173.4,26.7,173.2,26.7,172.6,26.7z M242.2,61.7l-0.2-0.2
		l0.2,0.1V61.7z"/>
	<path class="st0" d="M258.2,138.1c-12.4,33.8-46.9,58.2-87.5,58.2c-40.3,0-74.6-24-87.2-57.4c12.1,35.9,42.3,63.8,87.1,63.8
		C212.9,202.7,246.3,174.4,258.2,138.1z"/>
	<path class="st0" d="M32.8,115l-0.1-25.5l-0.2-0.4L32.1,89l-8,0.8c-0.3,0-0.5,0.3-0.5,0.5l0.1,25.2c0,6-2.4,9.3-7.3,9.8
		c-0.3,0-0.7,0-1,0c-4.1,0-6.2-2.8-6.3-8.4L9,91.8l-0.2-0.4l-0.4-0.1l-7.9,0.8c-0.3,0-0.5,0.3-0.5,0.5l0.1,25.5
		c0,11.1,4.9,16.9,14,16.9c0.7,0,1.5,0,2.3-0.1C30.8,133.5,32.8,121.9,32.8,115z"/>
	<path class="st0" d="M76.1,128.5l-0.2-42.1L75.7,86l-0.4-0.1l-6.9,0.5c-0.3,0-0.5,0.3-0.5,0.6l0.1,24.7l-18-23.7l-0.5-0.2l-8.5,0.6
		c-0.3,0-0.5,0.3-0.5,0.6l0.2,42.1l0.2,0.4l0.4,0.1l0,0h0l6.9-0.5c0.3,0,0.5-0.3,0.5-0.5l-0.1-26.8l19.4,25.7l0.5,0.2l7-0.5
		C75.9,129,76.1,128.8,76.1,128.5z"/>
	<path class="st0" d="M85.8,128.4l0.4,0.1h0l9.1-0.5c0.3,0,0.5-0.3,0.5-0.5l-0.2-41.9l-0.2-0.4L95,85l-9.1,0.5
		c-0.3,0-0.5,0.3-0.5,0.6l0.2,41.9L85.8,128.4z"/>
	<polygon class="st0" points="101.5,84.8 101.4,85.3 119.3,126.8 119.8,127.1 119.8,127.1 127,126.9 127.4,126.5 145.8,84.1 
		145.7,83.5 145.3,83.3 137,83.6 136.5,83.9 124.5,111.6 112.9,84.6 112.4,84.3 101.9,84.6 	"/>
	<path class="st0" d="M151.5,83.4l-0.2,0.4l0.3,41.9c0,0.3,0.2,0.5,0.6,0.5l33.8,0l0.4-0.2l0.2-0.4l0-8.2c0-0.3-0.2-0.5-0.6-0.5
		l-23.7,0l0-7.9l15.7,0l0.4-0.2l0.2-0.4l0-8.2c0-0.3-0.2-0.5-0.5-0.5l-15.7,0l0-7.3l23.4,0l0.4-0.2l0.2-0.4l0-8.2
		c0-0.3-0.2-0.5-0.5-0.5l-33.6,0L151.5,83.4z"/>
	<path class="st0" d="M221.8,127l0.5,0.3l10.9,0.3h0l0.5-0.3l0-0.6l-9.7-16.7c3.9-1.4,8.1-4.7,8.1-12.7c0-8.3-4.5-13.2-12.1-13.4
		l-23.1-0.7l-0.4,0.2l-0.2,0.4l0.2,42.1c0,0.3,0.2,0.5,0.5,0.5l9.2,0.3l0.4-0.2l0.2-0.4l-0.1-15.3l6,0.2L221.8,127z M206.5,101.7
		l0-8.8l9.8,0.3c4.5,0.1,4.9,1.9,4.9,3.9c0,1.8-0.3,2.9-1,3.6c-0.9,0.9-2.5,1.3-5.2,1.3c-0.3,0-0.6,0-1,0L206.5,101.7z"/>
	<path class="st0" d="M242.2,87.9c-2.1,2.1-3.1,4.8-3.1,8.1c0,9.9,9,13.6,15.6,16.3c1.5,0.6,3,1.2,4.2,1.9c2.1,1,3.1,2,3.1,2.9
		c0,0.8-0.2,1.4-0.7,1.9c-1,1-3,1.4-6,1.3c-3.2-0.2-8.8-2.7-14.7-6.6l-0.6,0l-0.3,0.5l0,9.7l0.3,0.5c1.9,1.2,8.7,5.3,15.2,5.6
		c0.6,0,1.2,0,1.8,0c5.4,0,9.4-1.4,12.1-4.1c2.3-2.3,3.4-5.5,3.4-9.5c0-8.9-8.9-12.7-15.3-15.4c-1.7-0.7-3.3-1.4-4.5-2
		c-2.1-1.1-3.1-2.1-3.1-3.2c0-0.2,0.1-0.7,0.5-1.2c0.5-0.5,1.6-1.1,3.8-1c6.3,0.3,13.1,4.5,15.1,5.8l0.6,0l0.3-0.5l0-9.4l-0.3-0.5
		c-3.2-1.9-9.9-4.8-15.6-5.1C249.2,83.9,244.9,85.3,242.2,87.9z"/>
	<path class="st0" d="M305.3,132l9.1,0.7l0,0l0.4-0.2l0.1-0.5l-15.9-43.6l-0.5-0.4l-6.3-0.5l-0.6,0.3l-16.3,41.2l0,0.5l0.4,0.3
		l7.6,0.6l0.6-0.3l3.1-8l14.7,1.1l3,8.5L305.3,132z M290.6,113.1l3.9-9.7l3.7,10.3L290.6,113.1z"/>
	<path class="st0" d="M346.9,126.2l-17.7-1.6l-0.2-33.7c0-0.3-0.2-0.5-0.5-0.5l-7.9-0.7l-0.4,0.1l-0.2,0.4l0.2,42.6
		c0,0.3,0.2,0.5,0.5,0.5l26.1,2.4h0l0.4-0.1l0.2-0.4l0-8.4C347.3,126.5,347.1,126.3,346.9,126.2z"/>
	<path class="st0" d="M358.6,126.5c-3.2,0-5.8,2.5-5.8,5.8c0,3.3,2.7,5.8,5.8,5.8c3.2,0,5.8-2.5,5.8-5.8
		C364.4,129,361.7,126.5,358.6,126.5z M358.6,137.3c-2.7,0-4.8-2.1-4.8-5c0-2.8,2.1-4.9,4.8-4.9c2.7,0,4.8,2.2,4.8,4.9
		C363.3,135.1,361.3,137.3,358.6,137.3z"/>
	<ellipse transform="matrix(0.5222 -0.8529 0.8529 0.5222 58.9966 372.1906)" class="st0" cx="361.6" cy="133.4" rx="0" ry="0"/>
	<path class="st0" d="M358.8,135c-1.5,0-2.4-1.3-2.4-2.7c0-1.5,0.8-2.6,2.4-2.6c1,0,1.8,0.6,1.9,1.5h1c-0.2-1.5-1.4-2.4-2.9-2.4
		c-2.1,0-3.4,1.5-3.4,3.5c0,2,1.4,3.6,3.4,3.6c1.4,0,2.6-0.9,2.9-2.4h-1C360.5,134.4,359.8,135,358.8,135z"/>
</g>
</svg>
