
<svg width="913px" height="170px" viewBox="0 0 913 170" version="1.1" xmlns="http://www.w3.org/2000/svg" xmlns:xlink="http://www.w3.org/1999/xlink">
  <g id="Page-1" stroke="none" stroke-width="1" fill="none" fill-rule="evenodd">
    <g id="brockmire-lockup" fill="#FFFFFF">
      <g id="divider" transform="translate(249.000000, 0.000000)" fill-rule="nonzero">
        <rect id="Rectangle-path" x="0.3" y="0" width="5" height="169.1"></rect>
      </g>
      <g id="brockmire-lockup-project" transform="translate(289.000000, 36.000000)">
        <path d="M19.89,96.07 L0,96.07 L0,5.07 L19.89,5.07 L19.89,42.38 C20.6700039,40.9933264 21.7099935,39.6500065 23.01,38.35 C24.3100065,37.0499935 25.826658,35.9233381 27.56,34.97 C29.293342,34.0166619 31.1349903,33.2583361 33.085,32.695 C35.0350098,32.1316638 37.0499896,31.85 39.13,31.85 C43.6366892,31.85 47.7749812,32.6949915 51.545,34.385 C55.3150189,36.0750084 58.5433199,38.3716521 61.23,41.275 C63.9166801,44.1783478 65.9966593,47.6449798 67.47,51.675 C68.9433407,55.7050202 69.68,60.0599766 69.68,64.74 C69.68,69.4200234 68.9433407,73.7749798 67.47,77.805 C65.9966593,81.8350201 63.9166801,85.3016521 61.23,88.205 C58.5433199,91.1083479 55.3150189,93.4049915 51.545,95.095 C47.7749812,96.7850084 43.6366892,97.63 39.13,97.63 C37.0499896,97.63 35.0350098,97.3483361 33.085,96.785 C31.1349903,96.2216638 29.293342,95.4850045 27.56,94.575 C25.826658,93.6649954 24.3100065,92.5816729 23.01,91.325 C21.7099935,90.068327 20.6700039,88.7033407 19.89,87.23 L19.89,96.07 Z M34.97,80.73 C37.1366775,80.73 39.1299909,80.296671 40.95,79.43 C42.7700091,78.563329 44.3299935,77.4150071 45.63,75.985 C46.9300065,74.5549928 47.9483297,72.8650097 48.685,70.915 C49.4216703,68.9649902 49.79,66.9066775 49.79,64.74 C49.79,62.5733225 49.4216703,60.5366762 48.685,58.63 C47.9483297,56.7233238 46.9300065,55.0333407 45.63,53.56 C44.3299935,52.0866593 42.7700091,50.916671 40.95,50.05 C39.1299909,49.183329 37.1366775,48.75 34.97,48.75 C32.7166554,48.75 30.6583426,49.183329 28.795,50.05 C26.9316573,50.916671 25.3500065,52.0866593 24.05,53.56 C22.7499935,55.0333407 21.7316703,56.7233238 20.995,58.63 C20.2583296,60.5366762 19.89,62.5733225 19.89,64.74 C19.89,66.9066775 20.2583296,68.9649902 20.995,70.915 C21.7316703,72.8650097 22.7499935,74.5549928 24.05,75.985 C25.3500065,77.4150071 26.9316573,78.563329 28.795,79.43 C30.6583426,80.296671 32.7166554,80.73 34.97,80.73 Z M127.79,51.48 C126.403326,51.1333316 125.233338,50.8950006 124.28,50.765 C123.326662,50.6349993 122.156674,50.57 120.77,50.57 C115.309973,50.57 110.93335,52.1733173 107.64,55.38 C104.34665,58.5866827 102.7,64.0032952 102.7,71.63 L102.7,96.07 L82.81,96.07 L82.81,33.41 L102.7,33.41 L102.7,43.55 C104.173341,40.6033186 106.62165,38.0033446 110.045,35.75 C113.46835,33.4966554 117.389978,32.37 121.81,32.37 C124.150012,32.37 126.143325,32.7166632 127.79,33.41 L127.79,51.48 Z M164.45,97.76 C159.07664,97.76 154.245021,96.8716755 149.955,95.095 C145.664979,93.3183244 142.025015,90.9350149 139.035,87.945 C136.044985,84.954985 133.748341,81.4666866 132.145,77.48 C130.541659,73.4933134 129.74,69.2466892 129.74,64.74 C129.74,60.2333108 130.541659,55.9866866 132.145,52 C133.748341,48.0133134 136.044985,44.5250149 139.035,41.535 C142.025015,38.544985 145.664979,36.1616755 149.955,34.385 C154.245021,32.6083244 159.07664,31.72 164.45,31.72 C169.910027,31.72 174.784979,32.6083244 179.075,34.385 C183.365021,36.1616755 187.004985,38.544985 189.995,41.535 C192.985015,44.5250149 195.281659,48.0133134 196.885,52 C198.488341,55.9866866 199.29,60.2333108 199.29,64.74 C199.29,69.2466892 198.488341,73.4933134 196.885,77.48 C195.281659,81.4666866 192.985015,84.954985 189.995,87.945 C187.004985,90.9350149 183.365021,93.3183244 179.075,95.095 C174.784979,96.8716755 169.910027,97.76 164.45,97.76 Z M164.45,80.73 C166.703345,80.73 168.761657,80.3183374 170.625,79.495 C172.488343,78.6716625 174.069994,77.5233407 175.37,76.05 C176.670006,74.5766593 177.68833,72.8866762 178.425,70.98 C179.16167,69.0733238 179.53,66.9933446 179.53,64.74 C179.53,62.5733225 179.16167,60.5150097 178.425,58.565 C177.68833,56.6149902 176.670006,54.9250071 175.37,53.495 C174.069994,52.0649928 172.488343,50.916671 170.625,50.05 C168.761657,49.183329 166.703345,48.75 164.45,48.75 C162.196655,48.75 160.160009,49.183329 158.34,50.05 C156.519991,50.916671 154.960007,52.0649928 153.66,53.495 C152.359994,54.9250071 151.363337,56.6149902 150.67,58.565 C149.976663,60.5150097 149.63,62.5733225 149.63,64.74 C149.63,66.9933446 149.976663,69.0733238 150.67,70.98 C151.363337,72.8866762 152.359994,74.5766593 153.66,76.05 C154.960007,77.5233407 156.519991,78.6716625 158.34,79.495 C160.160009,80.3183374 162.196655,80.73 164.45,80.73 Z M253.89,57.98 C253.456665,55.2066528 252.308343,52.953342 250.445,51.22 C248.581657,49.486658 245.613354,48.62 241.54,48.62 C239.199988,48.62 237.141676,49.053329 235.365,49.92 C233.588324,50.786671 232.136672,51.9566593 231.01,53.43 C229.883328,54.9033407 229.038336,56.6149902 228.475,58.565 C227.911664,60.5150097 227.63,62.5733225 227.63,64.74 C227.63,66.9066775 227.911664,68.9649902 228.475,70.915 C229.038336,72.8650097 229.904994,74.5766593 231.075,76.05 C232.245006,77.5233407 233.761657,78.693329 235.625,79.56 C237.488343,80.426671 239.719987,80.86 242.32,80.86 C245.786684,80.86 248.386658,80.1450071 250.12,78.715 C251.853342,77.2849928 253.153329,75.2266801 254.02,72.54 L273.91,72.54 C273.389997,76.0933511 272.350008,79.4083179 270.79,82.485 C269.229992,85.561682 267.10668,88.2266554 264.42,90.48 C261.73332,92.7333446 258.461686,94.5099935 254.605,95.81 C250.748314,97.1100065 246.350025,97.76 241.41,97.76 C235.949973,97.76 231.118354,96.8500091 226.915,95.03 C222.711646,93.2099909 219.180014,90.7833485 216.32,87.75 C213.459986,84.7166515 211.315007,81.2066866 209.885,77.22 C208.454993,73.2333134 207.74,69.073355 207.74,64.74 C207.74,60.406645 208.454993,56.2466866 209.885,52.26 C211.315007,48.2733134 213.459986,44.7633485 216.32,41.73 C219.180014,38.6966515 222.711646,36.2700091 226.915,34.45 C231.118354,32.6299909 235.949973,31.72 241.41,31.72 C246.696693,31.72 251.289981,32.4566593 255.19,33.93 C259.09002,35.4033407 262.361653,37.3533212 265.005,39.78 C267.648347,42.2066788 269.684993,45.0016508 271.115,48.165 C272.545007,51.3283491 273.433332,54.5999831 273.78,57.98 L253.89,57.98 Z M325.13,64.74 L349.44,96.07 L325.78,96.07 L306.54,69.81 L306.54,96.07 L286.65,96.07 L286.65,5.07 L306.54,5.07 L306.54,59.93 L325.91,33.41 L349.57,33.41 L325.13,64.74 Z M437.45,96.07 L437.45,62.27 C437.45,58.0233121 436.691674,54.7083452 435.175,52.325 C433.658326,49.9416547 431.210017,48.75 427.83,48.75 C426.356659,48.75 424.970006,49.0099974 423.67,49.53 C422.369993,50.0500026 421.243338,50.9166606 420.29,52.13 C419.336662,53.3433394 418.600003,54.9683231 418.08,57.005 C417.559997,59.0416769 417.3,61.5766515 417.3,64.61 L417.3,96.07 L398.06,96.07 L398.06,62.14 C398.06,57.8933121 397.323341,54.6000117 395.85,52.26 C394.376659,49.9199883 391.99335,48.75 388.7,48.75 C387.139992,48.75 385.710006,49.0099974 384.41,49.53 C383.109993,50.0500026 381.983338,50.938327 381.03,52.195 C380.076662,53.4516729 379.318336,55.1199896 378.755,57.2 C378.191664,59.2800104 377.91,61.8799844 377.91,65 L377.91,96.07 L358.67,96.07 L358.67,33.41 L377.91,33.41 L377.91,42.51 C379.296674,39.5633186 381.549984,37.0500104 384.67,34.97 C387.790016,32.8899896 391.559978,31.85 395.98,31.85 C401.440027,31.85 405.643319,32.9333225 408.59,35.1 C411.536681,37.2666775 413.659993,39.9533173 414.96,43.16 C416.606675,39.8666502 419.119983,37.1583439 422.5,35.035 C425.880017,32.9116561 429.909977,31.85 434.59,31.85 C439.096689,31.85 442.779986,32.5649928 445.64,33.995 C448.500014,35.4250071 450.753325,37.3316547 452.4,39.715 C454.046675,42.0983452 455.151664,44.8283179 455.715,47.905 C456.278336,50.981682 456.56,54.1666502 456.56,57.46 L456.56,96.07 L437.45,96.07 Z M469.95,12.61 C469.95,9.0566489 471.163321,6.0666788 473.59,3.64 C476.016679,1.2133212 479.049982,0 482.69,0 C484.510009,0 486.199992,0.32499675 487.76,0.975 C489.320008,1.62500325 490.684994,2.5133277 491.855,3.64 C493.025006,4.7666723 493.934997,6.1099922 494.585,7.67 C495.235003,9.2300078 495.56,10.876658 495.56,12.61 C495.56,14.343342 495.235003,15.9683257 494.585,17.485 C493.934997,19.0016742 493.025006,20.3449941 491.855,21.515 C490.684994,22.6850058 489.320008,23.5949968 487.76,24.245 C486.199992,24.8950032 484.510009,25.22 482.69,25.22 C480.869991,25.22 479.201674,24.8950032 477.685,24.245 C476.168326,23.5949968 474.825006,22.6850058 473.655,21.515 C472.484994,20.3449941 471.575003,19.0016742 470.925,17.485 C470.274997,15.9683257 469.95,14.343342 469.95,12.61 Z M472.81,33.41 L492.7,33.41 L492.7,96.07 L472.81,96.07 L472.81,33.41 Z M554.58,51.48 C553.193326,51.1333316 552.023338,50.8950006 551.07,50.765 C550.116662,50.6349993 548.946674,50.57 547.56,50.57 C542.099973,50.57 537.72335,52.1733173 534.43,55.38 C531.13665,58.5866827 529.49,64.0032952 529.49,71.63 L529.49,96.07 L509.6,96.07 L509.6,33.41 L529.49,33.41 L529.49,43.55 C530.963341,40.6033186 533.41165,38.0033446 536.835,35.75 C540.25835,33.4966554 544.179978,32.37 548.6,32.37 C550.940012,32.37 552.933325,32.7166632 554.58,33.41 L554.58,51.48 Z M578.24,69.55 C578.326667,71.4566762 578.608331,73.2549915 579.085,74.945 C579.561669,76.6350084 580.341661,78.108327 581.425,79.365 C582.508339,80.6216729 583.916658,81.6183296 585.65,82.355 C587.383342,83.0916703 589.549987,83.46 592.15,83.46 C595.616684,83.46 598.238324,82.7666736 600.015,81.38 C601.791676,79.9933264 603.026663,78.3033433 603.72,76.31 L623.22,76.31 C622.786665,79.2566814 621.768341,82.029987 620.165,84.63 C618.561659,87.230013 616.438347,89.5049902 613.795,91.455 C611.151653,93.4050097 608.031685,94.9433277 604.435,96.07 C600.838315,97.1966723 596.786689,97.76 592.28,97.76 C586.819973,97.76 581.988354,96.9583413 577.785,95.355 C573.581646,93.7516586 570.050014,91.4766814 567.19,88.53 C564.329986,85.5833186 562.163341,82.0950201 560.69,78.065 C559.216659,74.0349798 558.48,69.5933576 558.48,64.74 C558.48,60.1466437 559.194993,55.8566866 560.625,51.87 C562.055007,47.8833134 564.178319,44.3950149 566.995,41.405 C569.811681,38.414985 573.278313,36.053342 577.395,34.32 C581.511687,32.586658 586.299973,31.72 591.76,31.72 C596.700025,31.72 601.141647,32.4999922 605.085,34.06 C609.028353,35.6200078 612.408319,37.699987 615.225,40.3 C618.041681,42.900013 620.208326,45.933316 621.725,49.4 C623.241674,52.866684 624,56.5066476 624,60.32 C624,61.6200065 623.978334,63.0066593 623.935,64.48 C623.891666,65.9533407 623.696668,67.6433238 623.35,69.55 L578.24,69.55 Z M591.63,44.98 C587.72998,44.98 584.523346,46.1066554 582.01,48.36 C579.496654,50.6133446 578.24,53.8633121 578.24,58.11 L604.5,58.11 C604.5,54.0366463 603.308345,50.8300117 600.925,48.49 C598.541655,46.1499883 595.443352,44.98 591.63,44.98 Z" id="brockmire"></path>
      </g>
      <g id="brockmire-lockup-logo" transform="translate(0.000000, 19.000000)" fill-rule="nonzero">
        <path d="M214.690501,74.5303502 L198.814849,60.9825045 L198.814849,60.9825045 C198.627436,60.8300911 198.416356,60.7096454 198.190047,60.6259822 C197.536845,60.3835471 172.005162,52.8395362 171.593361,52.7111882 C170.494891,52.2718863 169.24149,52.7015629 168.639751,53.7237114 L168.639751,53.7237114 C165.544141,58.1018046 162.562132,60.3122426 158.415718,61.2392005 C158.515119,60.4833733 158.614519,59.9842422 158.614519,59.9842422 C159.878323,52.3974486 165.842342,46.3365702 172.260763,45.067351 C175.410853,44.2170461 178.772903,44.7676682 181.490793,46.5790054 L183.095398,47.8482246 C183.637995,48.3467517 184.469808,48.3467517 185.012405,47.8482246 L209.848285,28.182457 L209.848285,28.182457 C210.365918,27.7441053 210.45885,26.9788068 210.061286,26.4283675 L210.061286,26.4283675 L209.834085,26.1288888 C209.193859,25.3143967 208.486058,24.5558557 207.718278,23.8614073 C203.458264,19.5831402 189.78362,8.98729878 188.931617,8.34555873 C184.992343,5.05069849 180.383263,2.66084102 175.427373,1.34346163 C169.007998,-0.301088536 162.297585,-0.43772622 155.81711,0.944156709 C143.211881,3.21674921 131.799867,9.85812299 123.568805,19.7114882 C122.986603,20.4245327 122.276601,21.4085342 121.765399,22.1643613 L109.198359,12.081912 L109.198359,12.081912 C108.763366,11.7568379 108.235363,11.5817502 107.693154,11.5827808 C107.527863,11.566921 107.361443,11.566921 107.196152,11.5827808 L46.6187555,21.5654039 L46.6187555,21.5654039 C45.4018965,21.7743544 44.5133608,22.8355189 44.5171487,24.0753206 L44.5171487,31.034635 L38.141328,25.9149755 L38.141328,25.9149755 L38.0561277,25.9149755 L36.7213234,24.8454087 L36.7213234,24.8454087 L36.5367228,24.7170607 L35.9403209,24.2464513 L35.9403209,24.2464513 C35.4928774,23.8869976 34.937101,23.6908881 34.3641158,23.6902766 L33.9523144,23.6902766 L2.10161108,28.8955015 L1.97381067,28.8955015 C0.818275587,29.1560952 -0.00215776693,30.1875131 4.26295921e-06,31.3768964 L4.26295921e-06,119.010067 C0.0284203323,119.707727 0.341731726,120.362826 0.866207073,120.8212 L15.8756558,132.714782 L15.8756558,132.714782 C16.1008902,132.897591 16.3812696,132.998155 16.6708584,133 L17.3382605,132.900174 L17.3382605,132.900174 C17.4376608,132.900174 56.5871879,126.468512 56.5871879,126.468512 C57.2135133,126.357433 57.6691693,125.809507 57.6663914,125.170771 L57.6663914,119.951285 L63.8008113,124.814249 L63.8008113,124.814249 C64.060907,125.023186 64.3926147,125.120562 64.7238143,125.085206 L94.543911,120.265025 C95.1758832,120.160143 95.638923,119.61057 95.6373146,118.967284 L95.6373146,102.267782 C95.6506013,101.980527 95.844861,101.733793 96.1201161,101.654563 L122.972403,97.2336874 L122.972403,97.2336874 C123.604375,97.1288055 124.067415,96.579232 124.065807,95.9359464 L124.065807,89.2618497 C134.31824,99.2444729 149.185688,106.118222 149.199888,106.132483 C156.470312,109.626401 165.373741,110.539098 175.185973,108.571095 C192.87923,105.034394 206.752675,91.9999407 213.696498,78.4378341 L214.193499,77.4823544 C214.2929,77.2969629 214.4065,77.0687886 214.5059,76.8406144 C214.832501,76.1275699 215.329503,75.0580031 214.690501,74.5303502 Z M34.8327173,112.749536 C34.8367258,113.383779 34.3883902,113.93009 33.7677138,114.047277 L33.7677138,114.047277 L3.60681597,118.995806 L3.32281504,118.995806 C2.62292001,118.996471 2.04684072,118.443077 2.01641081,117.740847 L2.01641081,31.9901147 C2.01363285,31.351379 2.46928893,30.8034532 3.09561431,30.6923737 L3.09561431,30.6923737 L33.2991123,25.715323 L33.512113,25.715323 C33.858593,25.715323 34.190882,25.8535514 34.4358802,26.0995995 C34.6808786,26.3456475 34.8185172,26.6793603 34.8185172,27.0273249 L34.8327173,112.749536 Z M106.968951,41.6732591 C106.969452,42.3211528 106.498964,42.8724078 105.861348,42.9710001 L105.861348,42.9710001 L79.1084609,47.3633543 L79.1084609,47.3633543 C78.7398649,47.3633543 78.4410588,47.6634408 78.4410588,48.0336162 L78.4410588,48.0336162 L78.4410588,59.2569368 L78.4410588,59.2569368 C78.4410588,59.6271121 78.7398649,59.9271986 79.1084609,59.9271986 L79.1084609,59.9271986 C79.1084609,59.9271986 101.672334,56.2051063 101.828535,56.2051063 C102.550042,56.2051063 103.134939,56.7925095 103.134939,57.5171081 L103.134939,83.5717546 C103.136547,84.2150402 102.673508,84.7646137 102.041535,84.8694956 L79.1652611,88.6201097 L79.1652611,88.6201097 C78.8376175,88.6234435 78.5608427,88.8651484 78.512059,89.1905453 L78.512059,105.562047 C78.5152931,106.239345 78.0046374,106.807799 77.3334552,106.874049 C77.3334552,106.874049 47.9677599,111.708491 47.8257594,111.708491 C47.1042523,111.708491 46.5193552,111.121088 46.5193552,110.396489 L46.5193552,24.6885389 C46.5177468,24.0452532 46.9807865,23.4956798 47.6127587,23.3907979 L105.392746,13.9215668 L105.662547,13.9215668 C106.384054,13.9215668 106.968951,14.50897 106.968951,15.2335687 L106.968951,41.6732591 Z M196.329841,64.9612928 C189.471219,78.6660083 175.867575,91.4580268 157.989717,95.0232494 C132.784635,100.057344 113.472572,86.1814975 112.84777,58.1303264 L112.84777,57.8736304 C112.251368,28.182457 130.257027,7.96051469 156.143711,2.78381155 C172.672564,-0.496193201 185.878607,5.37929356 193.234231,15.3333949 C194.171434,16.5883533 194.057834,17.2871369 193.347832,17.9003552 C192.637829,18.5135734 171.23836,36.3396862 170.329557,37.0384698 C169.78696,37.5369969 168.955147,37.5369969 168.412551,37.0384698 C165.458941,34.3003789 162.263931,33.3163775 157.577916,34.1862918 C149.995091,35.6836852 143.46307,44.0548278 143.69027,52.2833614 L143.69027,52.4259703 C143.931671,60.8969391 150.790294,64.9755537 158.415718,63.4638994 C163.683935,62.4228544 166.935746,59.5564154 169.775755,55.3494528 C170.069939,54.739928 170.792673,54.4748421 171.40876,54.7504954 C172.459564,55.0927568 195.165437,61.7811143 196.287241,62.1804192 C197.409045,62.5797242 196.741643,64.162683 196.344041,64.9612928 L196.329841,64.9612928 Z" id="Shape"></path>
      </g>
    </g>
  </g>
</svg>
