<?xml version="1.0" encoding="UTF-8" standalone="no"?>
<svg width="979px" height="165px" viewBox="0 0 979 165" version="1.1" xmlns="http://www.w3.org/2000/svg" xmlns:xlink="http://www.w3.org/1999/xlink" xmlns:sketch="http://www.bohemiancoding.com/sketch/ns">
    <!-- Generator: Sketch 3.5.1 (25234) - http://www.bohemiancoding.com/sketch -->
    <title>carla-lockup</title>
    <desc>Created with Sketch.</desc>
    <defs></defs>
    <g id="Page-1" stroke="none" stroke-width="1" fill="none" fill-rule="evenodd" sketch:type="MSPage">
        <g id="carla-lockup" sketch:type="MSLayerGroup" fill="#FFFFFF">
            <rect id="Rectangle-path" sketch:type="MSShapeGroup" x="217.6" y="14.7" width="4" height="149.8"></rect>
            <g id="carla-lockup-project" transform="translate(251.000000, 0.000000)" sketch:type="MSShapeGroup">
                <path d="M35.5,44.7 C34.9,40.4 32.2,37.5 26,37.5 C18.7,37.5 15.3,43.3 15.3,49.9 C15.3,56.6 18.6,62.3 26.6,62.3 C31.9,62.3 34.3,60 35.6,55.9 L50.9,55.9 C49.4,66.8 41.2,75.3 25.9,75.3 C9,75.3 5.68434189e-14,63.3 5.68434189e-14,49.9 C5.68434189e-14,36.6 9,24.5 25.9,24.5 C42.2,24.5 49.8,34.3 50.8,44.7 L35.5,44.7 L35.5,44.7 L35.5,44.7 Z" id="Shape"></path>
                <path d="M106.2,25.8 L106.2,74 L90.9,74 L90.9,67.2 C88.6,71.6 82.4,75.2 76.2,75.2 C62.3,75.2 52.7,64.3 52.7,49.9 C52.7,35.5 62.3,24.6 76.2,24.6 C82.4,24.6 88.6,28.3 90.9,32.7 L90.9,25.8 L106.2,25.8 L106.2,25.8 L106.2,25.8 Z M90.9,49.9 C90.9,43.3 86.3,37.6 79.4,37.6 C72.5,37.6 67.9,43.3 67.9,49.9 C67.9,56.6 72.5,62.2 79.4,62.2 C86.3,62.2 90.9,56.6 90.9,49.9 L90.9,49.9 L90.9,49.9 Z" id="Shape"></path>
                <path d="M148.8,39.7 C146.7,39.2 145.5,39 143.4,39 C135,39 129.5,43.4 129.5,55.2 L129.5,74 L114.2,74 L114.2,25.8 L129.5,25.8 L129.5,33.6 C131.7,29.1 137.5,25 144.2,25 C146.1,25 147.4,25.2 148.8,25.8 L148.8,39.7 L148.8,39.7 L148.8,39.7 Z" id="Shape"></path>
                <path d="M150.9,4 L166.2,4 L166.2,74 L150.9,74 L150.9,4 L150.9,4 L150.9,4 Z" id="Shape"></path>
                <path d="M224.7,25.8 L224.7,74 L209.4,74 L209.4,67.2 C207.1,71.6 200.9,75.2 194.7,75.2 C180.8,75.2 171.2,64.3 171.2,49.9 C171.2,35.5 180.8,24.6 194.7,24.6 C200.9,24.6 207.1,28.3 209.4,32.7 L209.4,25.8 L224.7,25.8 L224.7,25.8 L224.7,25.8 Z M209.4,49.9 C209.4,43.3 204.8,37.6 197.9,37.6 C191,37.6 186.4,43.3 186.4,49.9 C186.4,56.6 191,62.2 197.9,62.2 C204.8,62.2 209.4,56.6 209.4,49.9 L209.4,49.9 L209.4,49.9 Z" id="Shape"></path>
                <path d="M252,4 L266.8,4 L266.8,32.8 C269.5,27.8 275,24.6 282.4,24.6 C288.6,24.6 292.9,26.7 295.5,30.1 C298.5,33.8 299.4,38.6 299.4,45.5 L299.4,74 L284.6,74 L284.6,49.3 C284.6,42.4 282.5,37.6 276.1,37.6 C269.9,37.6 266.8,42.4 266.8,49.8 L266.8,74 L252,74 L252,4 L252,4 L252,4 Z" id="Shape"></path>
                <path d="M357.2,25.8 L357.2,74 L341.9,74 L341.9,67.2 C339.6,71.6 333.4,75.2 327.2,75.2 C313.3,75.2 303.7,64.3 303.7,49.9 C303.7,35.5 313.3,24.6 327.2,24.6 C333.4,24.6 339.6,28.3 341.9,32.7 L341.9,25.8 L357.2,25.8 L357.2,25.8 L357.2,25.8 Z M341.9,49.9 C341.9,43.3 337.3,37.6 330.4,37.6 C323.5,37.6 318.9,43.3 318.9,49.9 C318.9,56.6 323.5,62.2 330.4,62.2 C337.3,62.2 341.9,56.6 341.9,49.9 L341.9,49.9 L341.9,49.9 Z" id="Shape"></path>
                <path d="M365.2,4 L380.5,4 L380.5,74 L365.2,74 L365.2,4 L365.2,4 L365.2,4 Z" id="Shape"></path>
                <path d="M388.5,4 L403.8,4 L403.8,74 L388.5,74 L388.5,4 L388.5,4 L388.5,4 Z" id="Shape"></path>
                <path d="M419.4,0 C425.8,0 430.1,5 430.1,12.2 C430.1,26.7 422.9,31.9 410.4,32 L410.4,26.1 C414.5,26.1 417.2,25.1 419,23.6 C420.8,22.1 421.7,20.2 421.9,18.3 C421.6,18.6 420.5,19 419.4,19 C413.6,19 409.9,14.8 409.9,9.7 C409.9,4.3 414.1,0 419.4,0 L419.4,0 L419.4,0 Z" id="Shape"></path>
                <path d="M477.4,59.8 C477.4,71.2 467.6,75.3 455.6,75.3 C441.9,75.3 433.4,69 433.4,57.9 L448.4,57.9 C448.4,63 451.6,65 456.1,65 C459.8,65 462.4,63.7 462.4,60.5 C462.4,56.8 458.6,56.3 449.5,53.3 C441.5,50.8 434.6,48.5 434.6,39.2 C434.6,29.2 442.9,24.5 455.9,24.5 C469.9,24.5 476.7,31.6 476.7,40.8 L461.6,40.8 C461.6,36.8 459.5,34.5 455.3,34.5 C452.2,34.5 449.6,35.9 449.6,38.8 C449.6,42.3 453.8,42.9 461.9,45.6 C470.4,48.1 477.4,50.4 477.4,59.8 L477.4,59.8 L477.4,59.8 Z" id="Shape"></path>
                <path d="M44,143.8 C44,155.2 34.2,159.3 22.2,159.3 C8.5,159.3 0,153 0,141.9 L15,141.9 C15,147 18.2,149 22.7,149 C26.4,149 29,147.7 29,144.5 C29,140.8 25.2,140.3 16.1,137.3 C8.1,134.8 1.2,132.5 1.2,123.2 C1.2,113.2 9.5,108.5 22.5,108.5 C36.5,108.5 43.3,115.6 43.3,124.8 L28.2,124.8 C28.2,120.8 26.1,118.5 21.9,118.5 C18.8,118.5 16.2,119.9 16.2,122.8 C16.2,126.3 20.4,126.9 28.5,129.6 C37,132.1 44,134.4 44,143.8 L44,143.8 L44,143.8 Z" id="Shape"></path>
                <path d="M45.9,133.9 C45.9,120.1 56,108.5 72.6,108.5 C89.4,108.5 99.4,120.1 99.4,133.9 C99.4,147.7 89.4,159.3 72.6,159.3 C56,159.3 45.9,147.7 45.9,133.9 L45.9,133.9 L45.9,133.9 Z M84.2,133.9 C84.2,127.2 79.6,121.6 72.6,121.6 C65.7,121.6 61.2,127.2 61.2,133.9 C61.2,140.7 65.7,146.2 72.6,146.2 C79.6,146.2 84.2,140.7 84.2,133.9 L84.2,133.9 L84.2,133.9 Z" id="Shape"></path>
                <path d="M151.8,109.8 L151.8,158 L136.5,158 L136.5,151.1 C133.8,156.2 128.2,159.2 120.7,159.2 C114.5,159.2 109.8,157.1 107.2,153.7 C104.2,150 103.5,145.3 103.5,138.4 L103.5,109.8 L118.7,109.8 L118.7,134.5 C118.7,141.4 120.8,146.2 127.2,146.2 C133.5,146.2 136.5,141.4 136.5,134 L136.5,109.8 L151.8,109.8 L151.8,109.8 L151.8,109.8 Z" id="Shape"></path>
                <path d="M189.9,158 C187.6,158.4 184.2,158.8 179.7,158.8 C172.5,158.8 162.6,157.9 162.6,141.8 L162.6,121.2 L155,121.2 L155,109.8 L162.6,109.8 L162.6,95.5 L177.8,95.5 L177.8,109.8 L188.8,109.8 L188.8,121.2 L177.8,121.2 L177.8,138.4 C177.8,145.5 180.6,146.6 184.4,146.6 C186.3,146.6 188.5,146.5 189.9,146.3 L189.9,158 L189.9,158 L189.9,158 Z" id="Shape"></path>
                <path d="M193.1,88 L207.9,88 L207.9,116.8 C210.6,111.8 216.1,108.6 223.5,108.6 C229.7,108.6 234,110.7 236.6,114.1 C239.6,117.8 240.5,122.6 240.5,129.5 L240.5,158 L225.7,158 L225.7,133.3 C225.7,126.4 223.6,121.6 217.2,121.6 C211,121.6 207.9,126.4 207.9,133.8 L207.9,158 L193.1,158 L193.1,88 L193.1,88 L193.1,88 Z" id="Shape"></path>
                <path d="M259.9,137.6 C260.2,143.4 262.6,148.3 270.6,148.3 C275.9,148.3 278.5,145.9 279.5,142.8 L294.5,142.8 C293.1,151.9 284.5,159.3 270.7,159.3 C253.8,159.3 244.7,148.8 244.7,133.9 C244.7,119.8 253.6,108.5 270.3,108.5 C285.4,108.5 295.1,118.7 295.1,130.5 C295.1,132.5 295.1,134.7 294.6,137.6 L259.9,137.6 L259.9,137.6 L259.9,137.6 Z M259.9,128.8 L280.1,128.8 C280.1,122.6 276,118.7 270.2,118.7 C264.2,118.7 259.9,122.3 259.9,128.8 L259.9,128.8 L259.9,128.8 Z" id="Shape"></path>
                <path d="M335.1,123.7 C333,123.2 331.8,123 329.7,123 C321.3,123 315.8,127.4 315.8,139.2 L315.8,158 L300.5,158 L300.5,109.8 L315.8,109.8 L315.8,117.6 C318,113.1 323.8,109 330.5,109 C332.4,109 333.7,109.2 335.1,109.8 L335.1,123.7 L335.1,123.7 L335.1,123.7 Z" id="Shape"></path>
                <path d="M337.2,109.8 L352.5,109.8 L352.5,116.8 C355.2,111.6 360.8,108.6 368.3,108.6 C374.5,108.6 379.2,110.7 381.8,114.1 C384.8,117.8 385.6,122.5 385.6,129.4 L385.6,158 L370.3,158 L370.3,133.3 C370.3,126.4 368.2,121.6 361.8,121.6 C355.6,121.6 352.5,126.4 352.5,133.8 L352.5,158 L337.2,158 L337.2,109.8 L337.2,109.8 L337.2,109.8 Z" id="Shape"></path>
                <path d="M441.8,133.9 L460.5,158 L442.3,158 L427.5,137.8 L427.5,158 L412.2,158 L412.2,88 L427.5,88 L427.5,130.2 L442.4,109.8 L460.6,109.8 L441.8,133.9 L441.8,133.9 L441.8,133.9 Z" id="Shape"></path>
                <path d="M470.2,84.1 C475.8,84.1 480.1,88.4 480.1,93.8 C480.1,99.1 475.8,103.5 470.2,103.5 C464.7,103.5 460.4,99.1 460.4,93.8 C460.4,88.4 464.7,84.1 470.2,84.1 L470.2,84.1 L470.2,84.1 Z M462.6,109.8 L477.9,109.8 L477.9,158 L462.6,158 L462.6,109.8 L462.6,109.8 L462.6,109.8 Z" id="Shape"></path>
                <path d="M516,158 C513.7,158.4 510.3,158.8 505.8,158.8 C498.6,158.8 488.7,157.9 488.7,141.8 L488.7,121.2 L481.1,121.2 L481.1,109.8 L488.7,109.8 L488.7,95.5 L503.9,95.5 L503.9,109.8 L514.9,109.8 L514.9,121.2 L503.9,121.2 L503.9,138.4 C503.9,145.5 506.7,146.6 510.5,146.6 C512.4,146.6 514.6,146.5 516,146.3 L516,158 L516,158 L516,158 Z" id="Shape"></path>
                <path d="M551.5,128.7 C550.9,124.4 548.2,121.5 542,121.5 C534.7,121.5 531.3,127.3 531.3,133.9 C531.3,140.6 534.6,146.3 542.6,146.3 C547.9,146.3 550.3,144 551.6,139.9 L566.9,139.9 C565.4,150.8 557.2,159.3 541.9,159.3 C525,159.3 516,147.3 516,133.9 C516,120.6 525,108.5 541.9,108.5 C558.2,108.5 565.8,118.3 566.8,128.7 L551.5,128.7 L551.5,128.7 L551.5,128.7 Z" id="Shape"></path>
                <path d="M571.7,88 L586.5,88 L586.5,116.8 C589.2,111.8 594.7,108.6 602.1,108.6 C608.3,108.6 612.6,110.7 615.2,114.1 C618.2,117.8 619.1,122.6 619.1,129.5 L619.1,158 L604.3,158 L604.3,133.3 C604.3,126.4 602.2,121.6 595.8,121.6 C589.6,121.6 586.5,126.4 586.5,133.8 L586.5,158 L571.7,158 L571.7,88 L571.7,88 L571.7,88 Z" id="Shape"></path>
                <path d="M638.5,137.6 C638.8,143.4 641.2,148.3 649.2,148.3 C654.5,148.3 657.1,145.9 658.1,142.8 L673.1,142.8 C671.7,151.9 663.1,159.3 649.3,159.3 C632.4,159.3 623.3,148.8 623.3,133.9 C623.3,119.8 632.2,108.5 648.9,108.5 C664,108.5 673.7,118.7 673.7,130.5 C673.7,132.5 673.7,134.7 673.2,137.6 L638.5,137.6 L638.5,137.6 L638.5,137.6 Z M638.5,128.8 L658.7,128.8 C658.7,122.6 654.6,118.7 648.8,118.7 C642.8,118.7 638.5,122.3 638.5,128.8 L638.5,128.8 L638.5,128.8 Z" id="Shape"></path>
                <path d="M679.1,109.8 L694.4,109.8 L694.4,116.8 C697.1,111.6 702.7,108.6 710.2,108.6 C716.4,108.6 721.1,110.7 723.7,114.1 C726.7,117.8 727.5,122.5 727.5,129.4 L727.5,158 L712.2,158 L712.2,133.3 C712.2,126.4 710.1,121.6 703.7,121.6 C697.5,121.6 694.4,126.4 694.4,133.8 L694.4,158 L679.1,158 L679.1,109.8 L679.1,109.8 L679.1,109.8 Z" id="Shape"></path>
            </g>
            <g id="carla-lockup-logo" transform="translate(0.000000, 23.000000)" sketch:type="MSShapeGroup">
                <path d="M178.5,30.7 C175.3,20.2 168.6,12.2 158.5,6.9 C147.9,1.3 136.4,0.2 128.7,0.2 C127.6,0.2 126.6,0.2 125.6,0.3 C118.7,0.6 112.1,1.5 106.6,3 C99.9,4.8 93.2,7.5 87.3,10.8 C82.8,13.3 74.3,18.5 68.1,25.5 C67.6,26.1 67.1,26.7 66.6,27.3 C59.7,22.9 51.7,20.7 43.5,20.7 C19.4,20.6 0,40 0,64 C0,75.5 4.8,86.9 12.8,94.4 C21.9,103 33.8,107.6 45.2,112.1 L46.5,112.6 C56.4,116.5 66.6,120.5 76.7,125.5 C80.9,127.6 85.4,129.9 89.7,132.5 C90.2,132.8 90.7,132.9 91.2,132.9 C92.6,132.9 94.5,132.1 98.2,129.7 L98.5,129.5 C98.7,129.4 98.8,129.3 98.8,129.3 L102,127.5 C130.6,111.4 178.6,84.4 180.5,46.7 C180.7,41.4 180,35.6 178.5,30.7 L178.5,30.7 L178.5,30.7 Z M175.8,46.4 C174.1,81.6 127.5,107.8 99.7,123.5 L96.5,125.3 C96.3,125.4 96,125.6 95.7,125.8 C93.1,127.4 91.9,128 91.4,128.2 C87.2,125.7 82.8,123.4 78.7,121.4 C68.4,116.3 58.1,112.2 48.1,108.3 L46.8,107.8 C35.8,103.5 24.4,99 15.9,91 C8.8,84.3 4.6,74.2 4.6,64 C4.6,42.6 22,25.2 43.4,25.2 C50.7,25.2 57.8,27.3 64,31.1 C63.2,32.5 62.5,33.9 61.8,35.4 C61.4,35.3 60.9,35.1 60.5,35 L60.4,35 C60.2,34.9 59.9,34.9 59.8,34.8 C59.5,34.7 59.3,34.7 59.1,34.6 C58.5,34.5 58,34.4 57.5,34.3 C56,34.1 54.4,34 52.8,34 C35.5,34 21.3,48.1 21.3,65.5 C21.3,82.9 35.4,97 52.8,97 C55.1,97 57.3,96.7 59.5,96.3 C61.7,95.8 63.8,95.1 65.8,94.2 C67.7,93.3 69.8,92.4 71.3,90.8 C71.7,90.4 72,89.9 72.2,89.3 C72.3,88.8 72.2,88 71.9,87.5 C71.7,87.2 71.5,87 71.2,86.8 C70.3,86.2 69.2,86.4 68.4,87 C66.3,88.7 63.9,89.9 61.3,90.7 C59.8,91.2 58.2,91.6 56.6,91.8 C55.4,92 54.1,92.1 52.9,92.1 C38.2,92.1 26.2,80.1 26.2,65.4 C26.2,50.7 38.2,38.7 52.9,38.7 C55.4,38.7 57.9,39.1 60.3,39.8 C59.9,41.2 59.6,42.6 59.4,43.9 C58.9,47 58.7,50.6 60.6,53.3 C61.8,55 63.7,56.1 65.8,56.1 C67.9,56.2 69.9,55.2 71.2,53.4 C74.1,49.4 72.7,43.6 69.7,40.1 C68.8,39 67.6,38 66.3,37.1 C66.8,35.9 67.4,34.8 68,33.7 C72.9,37.4 77.3,42 81.6,46.4 L82.2,47 C82.9,47.7 83.7,48.5 84.4,49.3 C86.9,51.8 89.9,54.8 93,57.7 C94.1,58.6 95.1,59.5 96.1,60.4 L96.1,91.7 C96.1,93 97.2,94 98.4,94 C99.7,94 100.7,92.9 100.7,91.7 L100.7,64.2 C105.1,67.4 109.3,69.9 113.5,71.7 C116.3,72.9 119.2,73.8 122,74.3 C123.6,74.6 125.1,74.8 126.7,74.9 L126.7,91.6 C126.7,92.9 127.8,93.9 129,93.9 C130.3,93.9 131.3,92.8 131.3,91.6 L131.3,74.9 C137.6,74.4 142.3,71.9 145,67.6 C146.6,65 147.7,60.7 146.2,57.6 C145.8,56.8 145,56.3 144.1,56.3 C143.8,56.3 143.4,56.4 143.1,56.5 C141.9,57 141.5,58.4 142,59.5 C142.7,60.9 142.1,63.5 141.1,65.1 C138.8,68.7 134.6,69.8 131.3,70.2 L131.3,27.9 C131.3,26.6 130.2,25.6 129,25.6 C127.7,25.6 126.7,26.7 126.7,27.9 L126.7,70.3 C125.4,70.2 124.2,70 123,69.8 C120.5,69.3 118,68.5 115.4,67.4 C110.6,65.4 105.8,62.4 100.8,58.3 L100.8,27.9 C100.8,26.6 99.7,25.6 98.5,25.6 C97.2,25.6 96.2,26.7 96.2,27.9 L96.2,54.3 C93.2,51.5 90.3,48.6 87.8,46.1 C86.9,45.2 86,44.2 85,43.2 L84.9,43.1 C80.4,38.5 75.8,33.7 70.5,29.8 C70.9,29.3 71.3,28.7 71.7,28.3 C75.9,23.6 82.4,18.6 89.7,14.6 C95.3,11.5 101.6,9 108,7.3 C113.2,5.9 119.4,5 126,4.8 C127,4.7 128,4.7 128.9,4.7 C137.6,4.7 166.5,6.6 174.3,31.9 C175.4,36.4 176,41.7 175.8,46.4 L175.8,46.4 L175.8,46.4 Z M63.3,44.6 C63.5,43.4 63.7,42.3 64.1,41 C64.9,41.6 65.6,42.2 66.2,42.9 C68.1,45.2 69.1,48.8 67.5,51 C67,51.6 66.3,52 65.5,52 C64.8,52 64.1,51.6 63.7,51 C62.7,49.5 62.9,46.9 63.3,44.6 L63.3,44.6 L63.3,44.6 Z" id="Shape"></path>
            </g>
        </g>
    </g>
</svg>