<?xml version="1.0" encoding="UTF-8" standalone="no"?>
<svg width="886px" height="152px" viewBox="0 0 886 152" version="1.1" xmlns="http://www.w3.org/2000/svg" xmlns:xlink="http://www.w3.org/1999/xlink" xmlns:sketch="http://www.bohemiancoding.com/sketch/ns">
    <!-- Generator: Sketch 3.5.1 (25234) - http://www.bohemiancoding.com/sketch -->
    <title>casual-lockup</title>
    <desc>Created with Sketch.</desc>
    <defs></defs>
    <g id="Page-1" stroke="none" stroke-width="1" fill="none" fill-rule="evenodd" sketch:type="MSPage">
        <g id="casual-lockup" sketch:type="MSLayerGroup" fill="#FFFFFF">
            <g id="casual-lockup-logo" transform="translate(0.000000, 26.000000)" sketch:type="MSShapeGroup">
                <path d="M301.5,31.7 L277.5,31.7 L277.5,71.8 C277.5,73.6 276.8,75.2 275.7,76.4 C274.6,77.5 273,78 271.2,78.2 L257.2,78.2 C255.3,78.1 253.7,77.5 252.6,76.4 C251.5,75.2 250.8,73.6 250.8,71.8 L250.8,31.7 L226.8,31.7 L226.8,73.8 C226.9,79.4 227.9,84.2 230.3,88.2 C232.7,92.1 235.7,95 239.8,97 C244,98.9 248.7,100.1 254.2,100.1 L277.6,100.1 L277.6,99.8 C282.6,99.8 286.9,98.7 290.6,96.6 C294.1,94.4 296.8,91.3 298.7,87.4 C300.6,83.5 301.7,78.9 301.7,73.9 L301.7,31.7 L301.5,31.7 L301.5,31.7 Z M61.3,34.2 C57.1,32.4 52.5,31.5 47.5,31.6 L32,31.6 L26,32.3 C24.6,32.7 24,33 24,33 L24,0.7 L0,0.7 L0,100 L23.9,100 L23.9,59.8 C24,58.2 24.6,56.4 25.8,55.3 C27,54.2 28.5,53.5 30.4,53.5 L44.4,53.5 C46,53.5 47.6,54.2 48.9,55.3 C50.1,56.4 50.7,58.1 50.8,59.8 L50.8,100 L74.7,100 L74.7,56.8 C74.7,50.8 73.5,45.9 71,42.2 C68.6,38.5 65.3,35.9 61.3,34.2 L61.3,34.2 L61.3,34.2 Z M142.4,71.7 C142.3,73.5 141.7,75.1 140.6,76.3 C139.4,77.4 137.8,77.9 136,78.1 L122.1,78.1 C120.3,78 118.7,77.4 117.6,76.3 C116.4,75.1 115.8,73.5 115.7,71.7 L115.7,31.7 L91.8,31.7 L91.8,73.8 C91.8,79.4 92.9,84.2 95.2,88.2 C97.4,92.1 100.6,95 104.7,97 C108.9,98.9 113.5,100.1 119.1,100.1 L142.5,100.1 L142.5,99.8 C147.5,99.8 151.8,98.7 155.4,96.6 C158.9,94.4 161.6,91.3 163.7,87.4 C165.5,83.5 166.5,78.9 166.7,73.9 L166.7,31.8 L142.7,31.8 L142.4,71.7 L142.4,71.7 L142.4,71.7 L142.4,71.7 Z M184.7,100 L208.6,100 L208.6,0.7 L184.7,0.7 L184.7,100 L184.7,100 L184.7,100 Z" id="logo"></path>
            </g>
            <g id="casual-lockup-project" transform="translate(401.000000, 3.000000)" sketch:type="MSShapeGroup">
                <path d="M60.5,69.7 C59.5,62.4 54.9,57.5 44.4,57.5 C32,57.5 26.2,67.4 26.2,78.6 C26.2,90 31.8,99.7 45.4,99.7 C54.4,99.7 58.5,95.8 60.7,88.8 L86.7,88.8 C84.1,107.3 70.2,121.8 44.2,121.8 C15.5,121.8 0.2,101.4 0.2,78.6 C0.2,56 15.5,35.4 44.2,35.4 C71.9,35.4 84.8,52.1 86.5,69.7 L60.5,69.7 L60.5,69.7 L60.5,69.7 Z" id="Shape"></path>
                <path d="M179,37.6 L179,119.5 L153,119.5 L153,107.9 C149.1,115.4 138.5,121.5 128,121.5 C104.4,121.5 88.1,103 88.1,78.5 C88.1,54 104.4,35.5 128,35.5 C138.5,35.5 149.1,41.8 153,49.3 L153,37.6 L179,37.6 L179,37.6 L179,37.6 Z M153,78.5 C153,67.3 145.2,57.6 133.5,57.6 C121.8,57.6 114,67.3 114,78.5 C114,89.9 121.8,99.4 133.5,99.4 C145.2,99.4 153,89.9 153,78.5 L153,78.5 L153,78.5 Z" id="Shape"></path>
                <path d="M260.2,95.4 C260.2,114.8 243.5,121.7 223.1,121.7 C199.8,121.7 185.4,111 185.4,92.1 L210.9,92.1 C210.9,100.8 216.3,104.2 224,104.2 C230.3,104.2 234.7,102 234.7,96.5 C234.7,90.2 228.2,89.4 212.8,84.3 C199.2,80.1 187.5,76.1 187.5,60.3 C187.5,43.3 201.6,35.3 223.7,35.3 C247.5,35.3 259.1,47.4 259.1,63 L233.4,63 C233.4,56.2 229.8,52.3 222.7,52.3 C217.4,52.3 213,54.7 213,59.6 C213,65.5 220.1,66.6 233.9,71.2 C248.3,75.5 260.2,79.4 260.2,95.4 L260.2,95.4 L260.2,95.4 Z" id="Shape"></path>
                <path d="M348.5,37.6 L348.5,119.5 L322.5,119.5 L322.5,107.8 C317.9,116.5 308.4,121.6 295.6,121.6 C285.1,121.6 277.1,118 272.6,112.3 C267.5,106 266.3,98 266.3,86.3 L266.3,37.6 L292.1,37.6 L292.1,79.6 C292.1,91.3 295.7,99.5 306.6,99.5 C317.3,99.5 322.4,91.3 322.4,78.8 L322.4,37.6 L348.5,37.6 L348.5,37.6 L348.5,37.6 Z" id="Shape"></path>
                <path d="M446.2,37.6 L446.2,119.5 L420.2,119.5 L420.2,107.9 C416.3,115.4 405.7,121.5 395.2,121.5 C371.6,121.5 355.3,103 355.3,78.5 C355.3,54 371.6,35.5 395.2,35.5 C405.7,35.5 416.3,41.8 420.2,49.3 L420.2,37.6 L446.2,37.6 L446.2,37.6 L446.2,37.6 Z M420.2,78.5 C420.2,67.3 412.4,57.6 400.7,57.6 C389,57.6 381.2,67.3 381.2,78.5 C381.2,89.9 389,99.4 400.7,99.4 C412.4,99.4 420.2,89.9 420.2,78.5 L420.2,78.5 L420.2,78.5 Z" id="Shape"></path>
                <path d="M458.1,0.5 L484.1,0.5 L484.1,119.5 L458.1,119.5 L458.1,0.5 L458.1,0.5 L458.1,0.5 Z" id="Shape"></path>
            </g>
            <rect id="Rectangle-path" sketch:type="MSShapeGroup" x="358.5" y="0.9" width="4" height="151"></rect>
        </g>
    </g>
</svg>