<svg width="1336px" height="170px" viewBox="0 0 1336 170" version="1.1" xmlns="http://www.w3.org/2000/svg" xmlns:xlink="http://www.w3.org/1999/xlink">
    <g id="Page-1" stroke="none" stroke-width="1" fill="none" fill-rule="evenodd">
        <g id="divas-lockup" transform="translate(0.000000, -31.000000)" fill="#FFFFFF">
            <g id="divas-lockup-logo" transform="translate(0.000000, 55.000000)" fill-rule="nonzero">
                <path d="M204.9,37.6 L204.9,2.8 C204.9,1.2 203.8,0.5 202.2,0.5 L174.1,0.5 C171.8,0.5 170.7,1.5 170.7,3.4 L170.7,37.6 C170.7,39.2 170.1,40.3 168.3,40.3 L142,40.3 L142,2.8 C142,1.2 140.8,0.5 139.2,0.5 L75.2,0.5 C73.4,0.5 72.4,1.6 72,2.9 L54.9,58.6 C54.4,60.4 53.5,60.3 53,58.6 L36,3.7 C35.3,1.5 34.6,0.4 32.4,0.4 L1.9,0.4 C-0.3,0.4 -0.2,1.8 0.4,3.2 L38.7,109.9 C39.4,111.9 40.1,113.4 42.1,113.4 L65.8,113.4 C67.8,113.4 68.6,111.8 69.2,110.1 L106.2,6.6 C106.9,4.9 107.9,5.5 107.9,6.7 L107.9,111.5 C107.9,113.1 108.9,113.5 109.9,113.5 L139.8,113.5 C140.9,113.5 142.1,112.8 142.1,111.7 L142.1,73.7 L168.4,73.7 C170.1,73.7 170.8,74.5 170.8,76.1 L170.8,111.5 C170.8,113.1 172.1,113.5 173.1,113.5 L202.8,113.5 C203.9,113.5 205,112.8 205,111.7 L205,76.1 C205,74.7 205.5,73.7 207.4,73.7 L235.4,73.7 C237,73.7 237.6,72.8 237.6,71.7 L237.6,40.3 L207.4,40.3 C205.2,40.3 204.9,39.1 204.9,37.6 Z" id="Shape"></path>
                <path d="M287.9,0.5 L260.9,0.5 C258.7,0.5 257.6,1.6 255.3,3.3 L239.8,15 C238.2,16.3 237.5,17 237.5,18.7 L237.5,40.3 L254.2,40.3 C255.7,40.3 256.6,41 256.6,42.5 L256.6,111.6 C256.6,113.2 257.6,113.6 258.7,113.6 L288.4,113.6 C289.5,113.6 290.1,112.9 290.1,111.8 L290.1,2.8 C290.1,1.2 289.5,0.5 287.9,0.5 Z" id="Shape"></path>
            </g>
            <g id="divider" transform="translate(321.000000, 31.000000)" fill-rule="nonzero">
                <rect id="Rectangle-path" x="0.3" y="0" width="5" height="169.1"></rect>
            </g>
            <g id="divas-lockup-project" transform="translate(362.000000, 44.000000)">
                <path d="M38.488,90.008 C40.9840125,90.008 43.2399899,89.5280048 45.256,88.568 C47.2720101,87.6079952 48.9999928,86.3360079 50.44,84.752 C51.8800072,83.1679921 53.0079959,81.2960108 53.824,79.136 C54.6400041,76.9759892 55.048,74.696012 55.048,72.296 C55.048,69.895988 54.6400041,67.6400106 53.824,65.528 C53.0079959,63.4159894 51.8800072,61.5440082 50.44,59.912 C48.9999928,58.2799918 47.2720101,56.9840048 45.256,56.024 C43.2399899,55.0639952 40.9840125,54.584 38.488,54.584 C35.9919875,54.584 33.7360101,55.0639952 31.72,56.024 C29.7039899,56.9840048 27.9760072,58.2799918 26.536,59.912 C25.0959928,61.5440082 23.9680041,63.4159894 23.152,65.528 C22.3359959,67.6400106 21.928,69.895988 21.928,72.296 C21.928,74.696012 22.3359959,76.9759892 23.152,79.136 C23.9680041,81.2960108 25.0959928,83.1679921 26.536,84.752 C27.9760072,86.3360079 29.7039899,87.6079952 31.72,88.568 C33.7360101,89.5280048 35.9919875,90.008 38.488,90.008 Z M55.048,97.208 C54.1839957,98.8400082 53.0320072,100.351993 51.592,101.744 C50.1519928,103.136007 48.4960094,104.335995 46.624,105.344 C44.7519906,106.352005 42.712011,107.167997 40.504,107.792 C38.295989,108.416003 36.088011,108.728 33.88,108.728 C28.887975,108.728 24.3040209,107.792009 20.128,105.92 C15.9519791,104.047991 12.3760149,101.504016 9.4,98.288 C6.42398512,95.0719839 4.12000816,91.2320223 2.488,86.768 C0.85599184,82.3039777 0.04,77.4800259 0.04,72.296 C0.04,67.1119741 0.85599184,62.2880223 2.488,57.824 C4.12000816,53.3599777 6.42398512,49.5200161 9.4,46.304 C12.3760149,43.0879839 15.9519791,40.5440094 20.128,38.672 C24.3040209,36.7999906 28.887975,35.864 33.88,35.864 C36.088011,35.864 38.295989,36.1759969 40.504,36.8 C42.712011,37.4240031 44.7519906,38.2639947 46.624,39.32 C48.4960094,40.3760053 50.1519928,41.6239928 51.592,43.064 C53.0320072,44.5040072 54.1839957,45.9919923 55.048,47.528 L55.048,6.2 L77.08,6.2 L77.08,107 L55.048,107 L55.048,97.208 Z M129.928,90.008 C132.424012,90.008 134.67999,89.5280048 136.696,88.568 C138.71201,87.6079952 140.439993,86.3360079 141.88,84.752 C143.320007,83.1679921 144.447996,81.2960108 145.264,79.136 C146.080004,76.9759892 146.488,74.696012 146.488,72.296 C146.488,69.895988 146.080004,67.6400106 145.264,65.528 C144.447996,63.4159894 143.320007,61.5440082 141.88,59.912 C140.439993,58.2799918 138.71201,56.9840048 136.696,56.024 C134.67999,55.0639952 132.424012,54.584 129.928,54.584 C127.431988,54.584 125.17601,55.0639952 123.16,56.024 C121.14399,56.9840048 119.416007,58.2799918 117.976,59.912 C116.535993,61.5440082 115.408004,63.4159894 114.592,65.528 C113.775996,67.6400106 113.368,69.895988 113.368,72.296 C113.368,74.696012 113.775996,76.9759892 114.592,79.136 C115.408004,81.2960108 116.535993,83.1679921 117.976,84.752 C119.416007,86.3360079 121.14399,87.6079952 123.16,88.568 C125.17601,89.5280048 127.431988,90.008 129.928,90.008 Z M168.52,37.592 L168.52,107 L146.488,107 L146.488,97.208 C145.623996,98.8400082 144.472007,100.351993 143.032,101.744 C141.591993,103.136007 139.936009,104.335995 138.064,105.344 C136.191991,106.352005 134.152011,107.167997 131.944,107.792 C129.735989,108.416003 127.528011,108.728 125.32,108.728 C120.327975,108.728 115.744021,107.792009 111.568,105.92 C107.391979,104.047991 103.816015,101.504016 100.84,98.288 C97.8639851,95.0719839 95.5600082,91.2320223 93.928,86.768 C92.2959918,82.3039777 91.48,77.4800259 91.48,72.296 C91.48,67.1119741 92.2959918,62.2880223 93.928,57.824 C95.5600082,53.3599777 97.8639851,49.5200161 100.84,46.304 C103.816015,43.0879839 107.391979,40.5440094 111.568,38.672 C115.744021,36.7999906 120.327975,35.864 125.32,35.864 C127.528011,35.864 129.735989,36.1759969 131.944,36.8 C134.152011,37.4240031 136.191991,38.2639947 138.064,39.32 C139.936009,40.3760053 141.591993,41.6239928 143.032,43.064 C144.472007,44.5040072 145.623996,45.9919923 146.488,47.528 L146.488,37.592 L168.52,37.592 Z M221.512,140.264 C215.847972,140.264 210.928021,139.688006 206.752,138.536 C202.575979,137.383994 198.952015,135.560012 195.88,133.064 C193.095986,130.759988 190.816009,127.904017 189.04,124.496 C187.263991,121.087983 186.376,117.032024 186.376,112.328 L208.408,112.328 C208.600001,116.26402 209.967987,119.26399 212.512,121.328 C215.056013,123.39201 218.151982,124.424 221.8,124.424 C226.024021,124.424 229.335988,123.39201 231.736,121.328 C234.136012,119.26399 235.336,115.544027 235.336,110.168 L235.336,95.912 C233.41599,99.6560187 230.560019,102.53599 226.768,104.552 C222.975981,106.56801 218.440026,107.576 213.16,107.576 C208.551977,107.576 204.544017,106.808008 201.136,105.272 C197.727983,103.735992 195.06401,101.720012 193.144,99.224 C190.935989,96.5359866 189.496003,93.5360166 188.824,90.224 C188.151997,86.9119834 187.816,82.760025 187.816,77.768 L187.816,37.592 L209.704,37.592 L209.704,73.16 C209.704,78.152025 210.591991,82.2079844 212.368,85.328 C214.144009,88.4480156 217.335977,90.008 221.944,90.008 C226.552023,90.008 229.935989,88.4240158 232.096,85.256 C234.256011,82.0879842 235.336,77.8160269 235.336,72.44 L235.336,37.592 L257.368,37.592 L257.368,108.728 C257.368,114.200027 256.504009,118.95198 254.776,122.984 C253.047991,127.01602 250.696015,130.279988 247.72,132.776 C244.647985,135.368013 241.024021,137.263994 236.848,138.464 C232.671979,139.664006 227.56003,140.264 221.512,140.264 Z M319.144,107 C317.511992,107.288001 315.472012,107.551999 313.024,107.792 C310.575988,108.032001 307.720016,108.152 304.456,108.152 C301.863987,108.152 299.128014,107.960002 296.248,107.576 C293.367986,107.191998 290.704012,106.208008 288.256,104.624 C285.807988,103.039992 283.792008,100.592017 282.208,97.28 C280.623992,93.9679834 279.832,89.4320288 279.832,83.672 L279.832,54.008 L268.888,54.008 L268.888,37.592 L279.832,37.592 L279.832,17 L301.72,17 L301.72,37.592 L317.56,37.592 L317.56,54.008 L301.72,54.008 L301.72,78.776 C301.72,81.368013 301.959998,83.4319923 302.44,84.968 C302.920002,86.5040077 303.591996,87.6799959 304.456,88.496 C305.320004,89.3120041 306.327994,89.8639986 307.48,90.152 C308.632006,90.4400014 309.879993,90.584 311.224,90.584 C312.568007,90.584 313.959993,90.5600002 315.4,90.512 C316.840007,90.4639998 318.087995,90.344001 319.144,90.152 L319.144,107 Z M327.784,14.552 C327.784,10.6159803 329.127987,7.30401344 331.816,4.616 C334.504013,1.92798656 337.86398,0.584 341.896,0.584 C343.91201,0.584 345.783991,0.9439964 347.512,1.664 C349.240009,2.3840036 350.751994,3.36799376 352.048,4.616 C353.344006,5.86400624 354.351996,7.35199136 355.072,9.08 C355.792004,10.8080086 356.152,12.6319904 356.152,14.552 C356.152,16.4720096 355.792004,18.2719916 355.072,19.952 C354.351996,21.6320084 353.344006,23.1199935 352.048,24.416 C350.751994,25.7120065 349.240009,26.7199964 347.512,27.44 C345.783991,28.1600036 343.91201,28.52 341.896,28.52 C339.87999,28.52 338.032008,28.1600036 336.352,27.44 C334.671992,26.7199964 333.184006,25.7120065 331.888,24.416 C330.591994,23.1199935 329.584004,21.6320084 328.864,19.952 C328.143996,18.2719916 327.784,16.4720096 327.784,14.552 Z M330.952,37.592 L352.984,37.592 L352.984,107 L330.952,107 L330.952,37.592 Z M458.968,107 L458.968,69.56 C458.968,64.8559765 458.128008,61.1840132 456.448,58.544 C454.767992,55.9039868 452.056019,54.584 448.312,54.584 C446.679992,54.584 445.144007,54.8719971 443.704,55.448 C442.263993,56.0240029 441.016005,56.9839933 439.96,58.328 C438.903995,59.6720067 438.088003,61.4719887 437.512,63.728 C436.935997,65.9840113 436.648,68.7919832 436.648,72.152 L436.648,107 L415.336,107 L415.336,69.416 C415.336,64.7119765 414.520008,61.064013 412.888,58.472 C411.255992,55.879987 408.616018,54.584 404.968,54.584 C403.239991,54.584 401.656007,54.8719971 400.216,55.448 C398.775993,56.0240029 397.528005,57.007993 396.472,58.4 C395.415995,59.792007 394.576003,61.6399885 393.952,63.944 C393.327997,66.2480115 393.016,69.1279827 393.016,72.584 L393.016,107 L371.704,107 L371.704,37.592 L393.016,37.592 L393.016,47.672 C394.552008,44.4079837 397.047983,41.6240115 400.504,39.32 C403.960017,37.0159885 408.135976,35.864 413.032,35.864 C419.08003,35.864 423.735984,37.063988 427,39.464 C430.264016,41.864012 432.615993,44.8399822 434.056,48.392 C435.880009,44.7439818 438.663981,41.7440118 442.408,39.392 C446.152019,37.0399882 450.615974,35.864 455.8,35.864 C460.792025,35.864 464.871984,36.6559921 468.04,38.24 C471.208016,39.8240079 473.703991,41.9359868 475.528,44.576 C477.352009,47.2160132 478.575997,50.239983 479.2,53.648 C479.824003,57.056017 480.136,60.5839818 480.136,64.232 L480.136,107 L458.968,107 Z M515.56,77.624 C515.656,79.7360106 515.967997,81.7279906 516.496,83.6 C517.024003,85.4720094 517.887994,87.103993 519.088,88.496 C520.288006,89.888007 521.84799,90.9919959 523.768,91.808 C525.68801,92.6240041 528.087986,93.032 530.968,93.032 C534.808019,93.032 537.71199,92.2640077 539.68,90.728 C541.64801,89.1919923 543.015996,87.320011 543.784,85.112 L565.384,85.112 C564.903998,88.3760163 563.776009,91.4479856 562,94.328 C560.223991,97.2080144 557.872015,99.7279892 554.944,101.888 C552.015985,104.048011 548.56002,105.751994 544.576,107 C540.59198,108.248006 536.104025,108.872 531.112,108.872 C525.06397,108.872 519.712023,107.984009 515.056,106.208 C510.399977,104.431991 506.488016,101.912016 503.32,98.648 C500.151984,95.3839837 497.752008,91.5200223 496.12,87.056 C494.487992,82.5919777 493.672,77.6720269 493.672,72.296 C493.672,67.2079746 494.463992,62.4560221 496.048,58.04 C497.632008,53.6239779 499.983984,49.7600166 503.104,46.448 C506.224016,43.1359834 510.063977,40.5200096 514.624,38.6 C519.184023,36.6799904 524.48797,35.72 530.536,35.72 C536.008027,35.72 540.927978,36.5839914 545.296,38.312 C549.664022,40.0400086 553.407984,42.3439856 556.528,45.224 C559.648016,48.1040144 562.047992,51.4639808 563.728,55.304 C565.408008,59.1440192 566.248,63.1759789 566.248,67.4 C566.248,68.8400072 566.224,70.3759918 566.176,72.008 C566.128,73.6400082 565.912002,75.5119894 565.528,77.624 L515.56,77.624 Z M530.392,50.408 C526.071978,50.408 522.520014,51.6559875 519.736,54.152 C516.951986,56.6480125 515.56,60.2479765 515.56,64.952 L544.648,64.952 C544.648,60.4399774 543.328013,56.888013 540.688,54.296 C538.047987,51.703987 534.616021,50.408 530.392,50.408 Z M650.344,90.008 C652.840012,90.008 655.09599,89.5280048 657.112,88.568 C659.12801,87.6079952 660.855993,86.3360079 662.296,84.752 C663.736007,83.1679921 664.863996,81.2960108 665.68,79.136 C666.496004,76.9759892 666.904,74.696012 666.904,72.296 C666.904,69.895988 666.496004,67.6400106 665.68,65.528 C664.863996,63.4159894 663.736007,61.5440082 662.296,59.912 C660.855993,58.2799918 659.12801,56.9840048 657.112,56.024 C655.09599,55.0639952 652.840012,54.584 650.344,54.584 C647.847988,54.584 645.59201,55.0639952 643.576,56.024 C641.55999,56.9840048 639.832007,58.2799918 638.392,59.912 C636.951993,61.5440082 635.824004,63.4159894 635.008,65.528 C634.191996,67.6400106 633.784,69.895988 633.784,72.296 C633.784,74.696012 634.191996,76.9759892 635.008,79.136 C635.824004,81.2960108 636.951993,83.1679921 638.392,84.752 C639.832007,86.3360079 641.55999,87.6079952 643.576,88.568 C645.59201,89.5280048 647.847988,90.008 650.344,90.008 Z M666.904,97.208 C666.039996,98.8400082 664.888007,100.351993 663.448,101.744 C662.007993,103.136007 660.352009,104.335995 658.48,105.344 C656.607991,106.352005 654.568011,107.167997 652.36,107.792 C650.151989,108.416003 647.944011,108.728 645.736,108.728 C640.743975,108.728 636.160021,107.792009 631.984,105.92 C627.807979,104.047991 624.232015,101.504016 621.256,98.288 C618.279985,95.0719839 615.976008,91.2320223 614.344,86.768 C612.711992,82.3039777 611.896,77.4800259 611.896,72.296 C611.896,67.1119741 612.711992,62.2880223 614.344,57.824 C615.976008,53.3599777 618.279985,49.5200161 621.256,46.304 C624.232015,43.0879839 627.807979,40.5440094 631.984,38.672 C636.160021,36.7999906 640.743975,35.864 645.736,35.864 C647.944011,35.864 650.151989,36.1759969 652.36,36.8 C654.568011,37.4240031 656.607991,38.2639947 658.48,39.32 C660.352009,40.3760053 662.007993,41.6239928 663.448,43.064 C664.888007,44.5040072 666.039996,45.9919923 666.904,47.528 L666.904,6.2 L688.936,6.2 L688.936,107 L666.904,107 L666.904,97.208 Z M704.488,14.552 C704.488,10.6159803 705.831987,7.30401344 708.52,4.616 C711.208013,1.92798656 714.56798,0.584 718.6,0.584 C720.61601,0.584 722.487991,0.9439964 724.216,1.664 C725.944009,2.3840036 727.455994,3.36799376 728.752,4.616 C730.048006,5.86400624 731.055996,7.35199136 731.776,9.08 C732.496004,10.8080086 732.856,12.6319904 732.856,14.552 C732.856,16.4720096 732.496004,18.2719916 731.776,19.952 C731.055996,21.6320084 730.048006,23.1199935 728.752,24.416 C727.455994,25.7120065 725.944009,26.7199964 724.216,27.44 C722.487991,28.1600036 720.61601,28.52 718.6,28.52 C716.58399,28.52 714.736008,28.1600036 713.056,27.44 C711.375992,26.7199964 709.888006,25.7120065 708.592,24.416 C707.295994,23.1199935 706.288004,21.6320084 705.568,19.952 C704.847996,18.2719916 704.488,16.4720096 704.488,14.552 Z M707.656,37.592 L729.688,37.592 L729.688,107 L707.656,107 L707.656,37.592 Z M761.8,37.592 L778.648,81.224 L795.64,37.592 L818.68,37.592 L787.288,107 L769.72,107 L738.76,37.592 L761.8,37.592 Z M857.56,90.008 C860.056012,90.008 862.31199,89.5280048 864.328,88.568 C866.34401,87.6079952 868.071993,86.3360079 869.512,84.752 C870.952007,83.1679921 872.079996,81.2960108 872.896,79.136 C873.712004,76.9759892 874.12,74.696012 874.12,72.296 C874.12,69.895988 873.712004,67.6400106 872.896,65.528 C872.079996,63.4159894 870.952007,61.5440082 869.512,59.912 C868.071993,58.2799918 866.34401,56.9840048 864.328,56.024 C862.31199,55.0639952 860.056012,54.584 857.56,54.584 C855.063988,54.584 852.80801,55.0639952 850.792,56.024 C848.77599,56.9840048 847.048007,58.2799918 845.608,59.912 C844.167993,61.5440082 843.040004,63.4159894 842.224,65.528 C841.407996,67.6400106 841,69.895988 841,72.296 C841,74.696012 841.407996,76.9759892 842.224,79.136 C843.040004,81.2960108 844.167993,83.1679921 845.608,84.752 C847.048007,86.3360079 848.77599,87.6079952 850.792,88.568 C852.80801,89.5280048 855.063988,90.008 857.56,90.008 Z M896.152,37.592 L896.152,107 L874.12,107 L874.12,97.208 C873.255996,98.8400082 872.104007,100.351993 870.664,101.744 C869.223993,103.136007 867.568009,104.335995 865.696,105.344 C863.823991,106.352005 861.784011,107.167997 859.576,107.792 C857.367989,108.416003 855.160011,108.728 852.952,108.728 C847.959975,108.728 843.376021,107.792009 839.2,105.92 C835.023979,104.047991 831.448015,101.504016 828.472,98.288 C825.495985,95.0719839 823.192008,91.2320223 821.56,86.768 C819.927992,82.3039777 819.112,77.4800259 819.112,72.296 C819.112,67.1119741 819.927992,62.2880223 821.56,57.824 C823.192008,53.3599777 825.495985,49.5200161 828.472,46.304 C831.448015,43.0879839 835.023979,40.5440094 839.2,38.672 C843.376021,36.7999906 847.959975,35.864 852.952,35.864 C855.160011,35.864 857.367989,36.1759969 859.576,36.8 C861.784011,37.4240031 863.823991,38.2639947 865.696,39.32 C867.568009,40.3760053 869.223993,41.6239928 870.664,43.064 C872.104007,44.5040072 873.255996,45.9919923 874.12,47.528 L874.12,37.592 L896.152,37.592 Z M951.304,66.104 C954.376015,66.9680043 957.255987,67.903995 959.944,68.912 C962.632013,69.920005 964.98399,71.1679926 967,72.656 C969.01601,74.1440074 970.623994,75.991989 971.824,78.2 C973.024006,80.408011 973.624,83.1919832 973.624,86.552 C973.624,90.6800206 972.808008,94.1599858 971.176,96.992 C969.543992,99.8240142 967.288014,102.127991 964.408,103.904 C961.527986,105.680009 958.192019,106.951996 954.4,107.72 C950.607981,108.488004 946.552022,108.872 942.232,108.872 C932.343951,108.872 924.544029,106.712022 918.832,102.392 C913.119971,98.0719784 910.264,91.8800403 910.264,83.816 L931.864,83.816 C931.864,87.4640182 932.89599,90.0799921 934.96,91.664 C937.02401,93.2480079 939.687984,94.04 942.952,94.04 C945.640013,94.04 947.823992,93.536005 949.504,92.528 C951.184008,91.519995 952.024,89.8640115 952.024,87.56 C952.024,86.2159933 951.664004,85.1360041 950.944,84.32 C950.223996,83.5039959 949.120007,82.7360036 947.632,82.016 C946.143993,81.2959964 944.224012,80.5760036 941.872,79.856 C939.519988,79.1359964 936.712016,78.2480053 933.448,77.192 C930.567986,76.3279957 927.832013,75.392005 925.24,74.384 C922.647987,73.375995 920.36801,72.1520072 918.4,70.712 C916.43199,69.2719928 914.872006,67.448011 913.72,65.24 C912.567994,63.031989 911.992,60.2480168 911.992,56.888 C911.992,49.687964 914.751972,44.3600173 920.272,40.904 C925.792028,37.4479827 933.255953,35.72 942.664,35.72 C947.656025,35.72 952.047981,36.319994 955.84,37.52 C959.632019,38.720006 962.751988,40.3759894 965.2,42.488 C967.648012,44.6000106 969.495994,47.0959856 970.744,49.976 C971.992006,52.8560144 972.616,55.9279837 972.616,59.192 L950.872,59.192 C950.872,56.3119856 950.128007,54.0800079 948.64,52.496 C947.151993,50.9119921 944.872015,50.12 941.8,50.12 C939.591989,50.12 937.672008,50.623995 936.04,51.632 C934.407992,52.640005 933.592,54.1999894 933.592,56.312 C933.592,57.5600062 933.975996,58.5919959 934.744,59.408 C935.512004,60.2240041 936.639993,60.9679966 938.128,61.64 C939.616007,62.3120034 941.463989,62.9839966 943.672,63.656 C945.880011,64.3280034 948.423986,65.1439952 951.304,66.104 Z" id="daytime-divas"></path>
            </g>
        </g>
    </g>
</svg>
