
<svg width="640px" height="177px" viewBox="0 0 640 177" version="1.1" xmlns="http://www.w3.org/2000/svg" xmlns:xlink="http://www.w3.org/1999/xlink">
	<g id="Page-1" stroke="none" stroke-width="1" fill="none" fill-rule="evenodd">
		<g id="girls-lockup" fill-rule="nonzero" fill="#FFFFFF">
			<g id="divider" transform="translate(307.000000, 0.000000)">
				<rect id="Rectangle-path" x="0.3" y="0" width="5" height="169.1"></rect>
			</g>
			<g id="girls-lockup-logo" transform="translate(0.000000, 27.000000)">
				<polygon id="Shape" points="50.6 43.8 30.9 43.8 30.9 1.6 0 1.6 0 113.5 30.9 113.5 30.9 72.1 50.6 72.1 50.6 113.5 81.5 113.5 81.5 1.6 50.6 1.6"></polygon>
				<path d="M220.2,0.4 C197.1,0.4 177.2,14.2 168.2,33.9 C168.3,32.7 168.3,31.5 168.3,30.2 C168.3,6.3 144,1.6 135.4,1.6 L88.1,1.6 L88.1,113.5 L137.4,113.5 C137.4,113.5 167,114.8 167,80.6 C167,79.8 167,78.9 166.9,78.2 C175.2,99.6 196,114.8 220.2,114.8 C251.7,114.8 277.4,89.2 277.4,57.6 C277.3,26 251.7,0.4 220.2,0.4 Z M132.1,87.2 L115.7,87.2 L115.7,70.1 L132.1,70.1 C132.1,70.1 138.7,70.1 138.7,78 C138.7,86.6 132.1,87.2 132.1,87.2 Z M132.1,45.8 L115.7,45.8 L115.7,28.9 L132.1,28.9 C132.1,28.9 138.7,28.8 138.7,36.9 C138.7,45 132.1,45.8 132.1,45.8 Z M151.8,56.5 C155.8,55.8 160.3,53.7 163.6,48.8 C163.2,51.6 162.9,54.6 162.9,57.5 C162.9,60.6 163.2,63.6 163.6,66.6 C158.2,56.9 147.9,57.3 151.8,56.5 Z M220.2,85.8 C204.6,85.8 191.9,73.1 191.9,57.5 C191.9,41.9 204.6,29.2 220.2,29.2 C235.8,29.2 248.5,41.9 248.5,57.5 C248.5,73.1 235.7,85.8 220.2,85.8 Z" id="Shape"></path>
				<circle id="Oval" cx="220.2" cy="57.6" r="23"></circle>
			</g>
			<g id="girls-lockup-project" transform="translate(349.000000, 21.000000)">
				<path d="M86.4,118.4 C86.4,132.3 82.2,141.4 74.2,147.5 C67,152.9 57.2,155.8 43,155.8 C28.6,155.8 19.2,152.3 12.8,146.8 C6.1,141 1.9,133.2 1.6,124.7 L26,124.7 C26.6,131.3 32.4,137.7 43,137.7 C54.5,137.7 61.9,132.3 61.9,120.3 L61.9,107.3 C57.7,114.3 48.3,119.3 38.4,119.3 C16.2,119.3 0.6,103.1 0.6,80.3 C0.6,57.3 15.5,39.8 38,39.8 C47.8,39.8 57.5,44.6 61.8,52.8 L61.8,41.8 L86.3,41.8 L86.3,118.4 L86.4,118.4 Z M25.1,80.3 C25.1,91 32.5,100 43.3,100 C54.5,100 61.9,91 61.9,80.3 C61.9,69.7 54.5,60.6 43.3,60.6 C32.4,60.7 25.1,69.8 25.1,80.3 Z" id="Shape"></path>
				<path d="M107.6,0.7 C116.6,0.7 123.4,7.6 123.4,16.2 C123.4,24.7 116.5,31.7 107.6,31.7 C98.8,31.7 91.9,24.7 91.9,16.2 C92,7.5 98.8,0.7 107.6,0.7 Z M95.5,41.8 L120,41.8 L120,118.9 L95.5,118.9 L95.5,41.8 Z" id="Shape"></path>
				<path d="M184.9,64 C181.5,63.2 179.6,62.9 176.3,62.9 C162.9,62.9 154.1,69.9 154.1,88.8 L154.1,118.9 L129.6,118.9 L129.6,41.8 L154,41.8 L154,54.3 C157.5,47.1 166.8,40.5 177.5,40.5 C180.5,40.5 182.6,40.8 184.9,41.8 L184.9,64 Z" id="Shape"></path>
				<polygon id="Shape" points="191.5 6.9 216 6.9 216 118.9 191.5 118.9"></polygon>
				<path d="M290.8,96.2 C290.8,114.4 275.1,121 255.9,121 C234,121 220.4,110.9 220.4,93.2 L244.4,93.2 C244.4,101.4 249.5,104.6 256.7,104.6 C262.6,104.6 266.8,102.5 266.8,97.4 C266.8,91.5 260.7,90.7 246.2,85.9 C233.4,81.9 222.4,78.2 222.4,63.3 C222.4,47.3 235.7,39.8 256.5,39.8 C278.9,39.8 289.8,51.2 289.8,65.9 L265.6,65.9 C265.6,59.5 262.2,55.8 255.5,55.8 C250.5,55.8 246.4,58 246.4,62.7 C246.4,68.3 253.1,69.3 266.1,73.6 C279.6,77.5 290.8,81.1 290.8,96.2 Z" id="Shape"></path>
			</g>
		</g>
	</g>
</svg>
