
<svg width="1248px" height="142px" viewBox="0 0 1248 142" version="1.1" xmlns="http://www.w3.org/2000/svg" xmlns:xlink="http://www.w3.org/1999/xlink">
    <!-- Generator: Sketch 46.2 (44496) - http://www.bohemiancoding.com/sketch -->
    <desc>Created with Sketch.</desc>
    <defs></defs>
    <g id="Page-1" stroke="none" stroke-width="1" fill="none" fill-rule="evenodd">
        <g id="handmaids-lockup" fill="#FFFFFF">
            <g id="handmaids-lockup-logo" transform="translate(0.000000, 17.000000)" fill-rule="nonzero">
                <path d="M272.8,28.6 L251.1,28.6 L251.1,64.9 C251.1,66.6 250.5,68 249.4,69.1 C248.4,70.1 247,70.6 245.3,70.8 L232.6,70.8 C230.8,70.7 229.5,70.2 228.4,69.1 C227.4,68 226.7,66.6 226.7,64.9 L226.7,28.6 L205,28.6 L205,66.7 C205.1,71.8 206,76.1 208.1,79.7 C210.2,83.2 213,85.9 216.7,87.7 C220.5,89.5 224.7,90.5 229.7,90.5 L250.9,90.5 L250.9,90.2 C255.4,90.2 259.3,89.2 262.6,87.3 C265.7,85.3 268.2,82.5 269.9,79 C271.7,75.5 272.6,71.3 272.6,66.8 L272.6,28.6 L272.8,28.6 L272.8,28.6 Z M55.5,30.9 C51.7,29.2 47.5,28.5 43,28.6 L28.9,28.6 L23.4,29.2 C22.1,29.6 21.6,29.8 21.6,29.8 L21.6,0.6 L0,0.6 L0,90.5 L21.6,90.5 L21.6,54.1 C21.7,52.6 22.2,51 23.4,50 C24.5,49 25.8,48.3 27.6,48.3 L40.3,48.3 C41.8,48.3 43.2,48.9 44.4,50 C45.5,51 46.1,52.5 46.2,54.1 L46.2,90.4 L67.8,90.4 L67.8,51.4 C67.8,45.9 66.7,41.5 64.5,38.2 C62.1,34.8 59.1,32.4 55.5,30.9 L55.5,30.9 L55.5,30.9 Z M128.9,64.9 C128.8,66.6 128.3,68 127.2,69.1 C126.1,70.1 124.7,70.6 123,70.8 L110.4,70.8 C108.7,70.7 107.3,70.2 106.3,69.1 C105.2,68 104.6,66.6 104.5,64.9 L104.5,28.6 L83.1,28.6 L83.1,66.7 C83.1,71.8 84.1,76.1 86.2,79.7 C88.2,83.2 91.1,85.9 94.8,87.7 C98.6,89.5 102.8,90.5 107.8,90.5 L129,90.5 L129,90.2 C133.5,90.2 137.4,89.2 140.7,87.3 C143.8,85.3 146.3,82.5 148.2,79 C149.9,75.5 150.7,71.3 150.9,66.8 L150.9,28.7 L129,28.7 L128.9,64.9 L128.9,64.9 L128.9,64.9 L128.9,64.9 Z M167.1,90.5 L188.7,90.5 L188.7,0.6 L167.1,0.6 L167.1,90.5 L167.1,90.5 L167.1,90.5 Z" id="logo"></path>
            </g>
            <g id="handmaids-lockup-project" transform="translate(319.000000, 27.000000)">
                <path d="M34.502,72 C33.4026612,72.194001 32.0285082,72.3718325 30.3795,72.5335 C28.7304918,72.6951675 26.8066777,72.776 24.608,72.776 C22.8619913,72.776 21.0190097,72.646668 19.079,72.388 C17.1389903,72.129332 15.3445082,71.4665053 13.6955,70.3995 C12.0464918,69.3324947 10.6885053,67.6835112 9.6215,65.4525 C8.55449466,63.2214888 8.021,60.1660194 8.021,56.286 L8.021,36.304 L0.649,36.304 L0.649,25.246 L8.021,25.246 L8.021,11.375 L22.765,11.375 L22.765,25.246 L33.435,25.246 L33.435,36.304 L22.765,36.304 L22.765,52.988 C22.765,54.7340087 22.926665,56.1243282 23.25,57.159 C23.573335,58.1936718 24.0259971,58.9858306 24.608,59.5355 C25.1900029,60.0851694 25.8689961,60.456999 26.645,60.651 C27.4210039,60.845001 28.2616621,60.942 29.167,60.942 C30.0723379,60.942 31.0099952,60.9258335 31.98,60.8935 C32.9500049,60.8611665 33.7906631,60.780334 34.502,60.651 L34.502,72 Z M42.456,4.1 L56.812,4.1 L56.812,32.036 C58.1053398,29.5786544 60.0453204,27.6386738 62.632,26.216 C65.2186796,24.7933262 68.3226486,24.082 71.944,24.082 C74.9833485,24.082 77.5376563,24.5508286 79.607,25.4885 C81.6763437,26.4261714 83.3576602,27.7356583 84.651,29.417 C86.1383408,31.2276757 87.1406641,33.3293214 87.658,35.722 C88.1753359,38.1146786 88.434,40.9923165 88.434,44.355 L88.434,72 L74.078,72 L74.078,48.041 C74.078,44.6783165 73.4798393,41.9461772 72.2835,39.8445 C71.0871607,37.7428228 68.9370155,36.692 65.833,36.692 C62.7936515,36.692 60.5303408,37.7589893 59.043,39.893 C57.5556592,42.0270107 56.812,44.9046486 56.812,48.526 L56.812,72 L42.456,72 L42.456,4.1 Z M112.102,52.212 C112.166667,53.6346738 112.376832,54.9764937 112.7325,56.2375 C113.088168,57.4985063 113.670163,58.5978286 114.4785,59.5355 C115.286837,60.4731714 116.33766,61.2168306 117.631,61.7665 C118.92434,62.3161694 120.54099,62.591 122.481,62.591 C125.06768,62.591 127.023827,62.0736718 128.3495,61.039 C129.675173,60.0043282 130.596664,58.7433408 131.114,57.256 L145.664,57.256 C145.340665,59.4546777 144.580839,61.5239903 143.3845,63.464 C142.188161,65.4040097 140.603843,67.1014927 138.6315,68.5565 C136.659157,70.0115073 134.33118,71.1593291 131.6475,72 C128.96382,72.8406709 125.940683,73.261 122.578,73.261 C118.50398,73.261 114.898849,72.6628393 111.7625,71.4665 C108.626151,70.2701607 105.991011,68.5726777 103.857,66.374 C101.722989,64.1753223 100.106339,61.572515 99.007,58.5655 C97.9076612,55.558485 97.358,52.2443514 97.358,48.623 C97.358,45.1956495 97.8914947,41.9946815 98.9585,39.02 C100.025505,36.0453185 101.609823,33.4425112 103.7115,31.2115 C105.813177,28.9804888 108.399818,27.2183398 111.4715,25.925 C114.543182,24.6316602 118.11598,23.985 122.19,23.985 C125.876018,23.985 129.190152,24.5669942 132.1325,25.731 C135.074848,26.8950058 137.596823,28.4469903 139.6985,30.387 C141.800177,32.3270097 143.416828,34.5903204 144.5485,37.177 C145.680172,39.7636796 146.246,42.4796524 146.246,45.325 C146.246,46.2950048 146.229833,47.3296612 146.1975,48.429 C146.165167,49.5283388 146.019668,50.7893262 145.761,52.212 L112.102,52.212 Z M122.093,33.879 C119.182985,33.879 116.790343,34.7196583 114.915,36.401 C113.039657,38.0823417 112.102,40.5073175 112.102,43.676 L131.696,43.676 C131.696,40.6366515 130.806842,38.2440087 129.0285,36.498 C127.250158,34.7519913 124.938348,33.879 122.093,33.879 Z M179.905,4.1 L194.261,4.1 L194.261,32.036 C195.55434,29.5786544 197.49432,27.6386738 200.081,26.216 C202.66768,24.7933262 205.771649,24.082 209.393,24.082 C212.432349,24.082 214.986656,24.5508286 217.056,25.4885 C219.125344,26.4261714 220.80666,27.7356583 222.1,29.417 C223.587341,31.2276757 224.589664,33.3293214 225.107,35.722 C225.624336,38.1146786 225.883,40.9923165 225.883,44.355 L225.883,72 L211.527,72 L211.527,48.041 C211.527,44.6783165 210.928839,41.9461772 209.7325,39.8445 C208.536161,37.7428228 206.386016,36.692 203.282,36.692 C200.242651,36.692 197.979341,37.7589893 196.492,39.893 C195.004659,42.0270107 194.261,44.9046486 194.261,48.526 L194.261,72 L179.905,72 L179.905,4.1 Z M260.803,60.554 C262.484342,60.554 264.003993,60.2306699 265.362,59.584 C266.720007,58.9373301 267.883995,58.0805053 268.854,57.0135 C269.824005,55.9464947 270.583831,54.6855073 271.1335,53.2305 C271.683169,51.7754927 271.958,50.2396748 271.958,48.623 C271.958,47.0063253 271.683169,45.4866738 271.1335,44.064 C270.583831,42.6413262 269.824005,41.3803388 268.854,40.281 C267.883995,39.1816612 266.720007,38.3086699 265.362,37.662 C264.003993,37.0153301 262.484342,36.692 260.803,36.692 C259.121658,36.692 257.602007,37.0153301 256.244,37.662 C254.885993,38.3086699 253.722005,39.1816612 252.752,40.281 C251.781995,41.3803388 251.022169,42.6413262 250.4725,44.064 C249.922831,45.4866738 249.648,47.0063253 249.648,48.623 C249.648,50.2396748 249.922831,51.7754927 250.4725,53.2305 C251.022169,54.6855073 251.781995,55.9464947 252.752,57.0135 C253.722005,58.0805053 254.885993,58.9373301 256.244,59.584 C257.602007,60.2306699 259.121658,60.554 260.803,60.554 Z M286.799,25.246 L286.799,72 L271.958,72 L271.958,65.404 C271.375997,66.5033388 270.600005,67.5218286 269.63,68.4595 C268.659995,69.3971714 267.544506,70.2054966 266.2835,70.8845 C265.022494,71.5635034 263.648341,72.1131646 262.161,72.5335 C260.673659,72.9538354 259.186341,73.164 257.699,73.164 C254.336317,73.164 251.248514,72.5335063 248.4355,71.2725 C245.622486,70.0114937 243.213677,68.2978442 241.209,66.1315 C239.204323,63.9651558 237.652339,61.378515 236.553,58.3715 C235.453661,55.364485 234.904,52.1150175 234.904,48.623 C234.904,45.1309825 235.453661,41.881515 236.553,38.8745 C237.652339,35.867485 239.204323,33.2808442 241.209,31.1145 C243.213677,28.9481558 245.622486,27.2345063 248.4355,25.9735 C251.248514,24.7124937 254.336317,24.082 257.699,24.082 C259.186341,24.082 260.673659,24.2921646 262.161,24.7125 C263.648341,25.1328354 265.022494,25.6986631 266.2835,26.41 C267.544506,27.1213369 268.659995,27.9619952 269.63,28.932 C270.600005,29.9020048 271.375997,30.9043282 271.958,31.939 L271.958,25.246 L286.799,25.246 Z M299.409,25.246 L314.25,25.246 L314.25,32.036 C315.54334,29.5139874 317.499487,27.5578403 320.1185,26.1675 C322.737513,24.7771597 325.889982,24.082 329.576,24.082 C332.615349,24.082 335.234322,24.5508286 337.433,25.4885 C339.631678,26.4261714 341.37766,27.7356583 342.671,29.417 C344.158341,31.2276757 345.144498,33.3131549 345.6295,35.6735 C346.114502,38.0338451 346.357,40.8953165 346.357,44.258 L346.357,72 L331.516,72 L331.516,48.041 C331.516,44.6783165 330.917839,41.9461772 329.7215,39.8445 C328.525161,37.7428228 326.375016,36.692 323.271,36.692 C320.231651,36.692 317.968341,37.7589893 316.481,39.893 C314.993659,42.0270107 314.25,44.9046486 314.25,48.526 L314.25,72 L299.409,72 L299.409,25.246 Z M381.277,60.554 C382.958342,60.554 384.477993,60.2306699 385.836,59.584 C387.194007,58.9373301 388.357995,58.0805053 389.328,57.0135 C390.298005,55.9464947 391.057831,54.6855073 391.6075,53.2305 C392.157169,51.7754927 392.432,50.2396748 392.432,48.623 C392.432,47.0063253 392.157169,45.4866738 391.6075,44.064 C391.057831,42.6413262 390.298005,41.3803388 389.328,40.281 C388.357995,39.1816612 387.194007,38.3086699 385.836,37.662 C384.477993,37.0153301 382.958342,36.692 381.277,36.692 C379.595658,36.692 378.076007,37.0153301 376.718,37.662 C375.359993,38.3086699 374.196005,39.1816612 373.226,40.281 C372.255995,41.3803388 371.496169,42.6413262 370.9465,44.064 C370.396831,45.4866738 370.122,47.0063253 370.122,48.623 C370.122,50.2396748 370.396831,51.7754927 370.9465,53.2305 C371.496169,54.6855073 372.255995,55.9464947 373.226,57.0135 C374.196005,58.0805053 375.359993,58.9373301 376.718,59.584 C378.076007,60.2306699 379.595658,60.554 381.277,60.554 Z M392.432,65.404 C391.849997,66.5033388 391.074005,67.5218286 390.104,68.4595 C389.133995,69.3971714 388.018506,70.2054966 386.7575,70.8845 C385.496494,71.5635034 384.122341,72.1131646 382.635,72.5335 C381.147659,72.9538354 379.660341,73.164 378.173,73.164 C374.810317,73.164 371.722514,72.5335063 368.9095,71.2725 C366.096486,70.0114937 363.687677,68.2978442 361.683,66.1315 C359.678323,63.9651558 358.126339,61.378515 357.027,58.3715 C355.927661,55.364485 355.378,52.1150175 355.378,48.623 C355.378,45.1309825 355.927661,41.881515 357.027,38.8745 C358.126339,35.867485 359.678323,33.2808442 361.683,31.1145 C363.687677,28.9481558 366.096486,27.2345063 368.9095,25.9735 C371.722514,24.7124937 374.810317,24.082 378.173,24.082 C379.660341,24.082 381.147659,24.2921646 382.635,24.7125 C384.122341,25.1328354 385.496494,25.6986631 386.7575,26.41 C388.018506,27.1213369 389.133995,27.9619952 390.104,28.932 C391.074005,29.9020048 391.849997,30.9043282 392.432,31.939 L392.432,4.1 L407.273,4.1 L407.273,72 L392.432,72 L392.432,65.404 Z M478.665,72 L478.665,46.78 C478.665,43.6113175 478.099172,41.1378422 476.9675,39.3595 C475.835828,37.5811578 474.009013,36.692 471.487,36.692 C470.387661,36.692 469.353005,36.8859981 468.383,37.274 C467.412995,37.6620019 466.572337,38.3086621 465.861,39.214 C465.149663,40.1193379 464.600002,41.3318257 464.212,42.8515 C463.823998,44.3711743 463.63,46.2626553 463.63,48.526 L463.63,72 L449.274,72 L449.274,46.683 C449.274,43.5143175 448.724339,41.0570087 447.625,39.311 C446.525661,37.5649913 444.747346,36.692 442.29,36.692 C441.125994,36.692 440.059005,36.8859981 439.089,37.274 C438.118995,37.6620019 437.278337,38.3248286 436.567,39.2625 C435.855663,40.2001714 435.289835,41.4449922 434.8695,42.997 C434.449165,44.5490078 434.239,46.4889884 434.239,48.817 L434.239,72 L419.883,72 L419.883,25.246 L434.239,25.246 L434.239,32.036 C435.273672,29.8373223 436.954988,27.9620078 439.283,26.41 C441.611012,24.8579922 444.423984,24.082 447.722,24.082 C451.79602,24.082 454.932322,24.8903253 457.131,26.507 C459.329678,28.1236748 460.913995,30.1283214 461.884,32.521 C463.112673,30.0636544 464.987987,28.0428413 467.51,26.4585 C470.032013,24.8741587 473.038983,24.082 476.531,24.082 C479.893683,24.082 482.641989,24.6154947 484.776,25.6825 C486.910011,26.7495053 488.591327,28.1721578 489.82,29.9505 C491.048673,31.7288422 491.873165,33.7658219 492.2935,36.0615 C492.713835,38.3571781 492.924,40.7336544 492.924,43.191 L492.924,72 L478.665,72 Z M528.038,60.554 C529.719342,60.554 531.238993,60.2306699 532.597,59.584 C533.955007,58.9373301 535.118995,58.0805053 536.089,57.0135 C537.059005,55.9464947 537.818831,54.6855073 538.3685,53.2305 C538.918169,51.7754927 539.193,50.2396748 539.193,48.623 C539.193,47.0063253 538.918169,45.4866738 538.3685,44.064 C537.818831,42.6413262 537.059005,41.3803388 536.089,40.281 C535.118995,39.1816612 533.955007,38.3086699 532.597,37.662 C531.238993,37.0153301 529.719342,36.692 528.038,36.692 C526.356658,36.692 524.837007,37.0153301 523.479,37.662 C522.120993,38.3086699 520.957005,39.1816612 519.987,40.281 C519.016995,41.3803388 518.257169,42.6413262 517.7075,44.064 C517.157831,45.4866738 516.883,47.0063253 516.883,48.623 C516.883,50.2396748 517.157831,51.7754927 517.7075,53.2305 C518.257169,54.6855073 519.016995,55.9464947 519.987,57.0135 C520.957005,58.0805053 522.120993,58.9373301 523.479,59.584 C524.837007,60.2306699 526.356658,60.554 528.038,60.554 Z M554.034,25.246 L554.034,72 L539.193,72 L539.193,65.404 C538.610997,66.5033388 537.835005,67.5218286 536.865,68.4595 C535.894995,69.3971714 534.779506,70.2054966 533.5185,70.8845 C532.257494,71.5635034 530.883341,72.1131646 529.396,72.5335 C527.908659,72.9538354 526.421341,73.164 524.934,73.164 C521.571317,73.164 518.483514,72.5335063 515.6705,71.2725 C512.857486,70.0114937 510.448677,68.2978442 508.444,66.1315 C506.439323,63.9651558 504.887339,61.378515 503.788,58.3715 C502.688661,55.364485 502.139,52.1150175 502.139,48.623 C502.139,45.1309825 502.688661,41.881515 503.788,38.8745 C504.887339,35.867485 506.439323,33.2808442 508.444,31.1145 C510.448677,28.9481558 512.857486,27.2345063 515.6705,25.9735 C518.483514,24.7124937 521.571317,24.082 524.934,24.082 C526.421341,24.082 527.908659,24.2921646 529.396,24.7125 C530.883341,25.1328354 532.257494,25.6986631 533.5185,26.41 C534.779506,27.1213369 535.894995,27.9619952 536.865,28.932 C537.835005,29.9020048 538.610997,30.9043282 539.193,31.939 L539.193,25.246 L554.034,25.246 Z M564.51,9.726 C564.51,7.07465341 565.415324,4.84367572 567.226,3.033 C569.036676,1.22232428 571.299986,0.317 574.016,0.317 C575.374007,0.317 576.634994,0.559497575 577.799,1.0445 C578.963006,1.52950243 579.981496,2.19232913 580.8545,3.033 C581.727504,3.87367087 582.406498,4.87599418 582.8915,6.04 C583.376502,7.20400582 583.619,8.4326602 583.619,9.726 C583.619,11.0193398 583.376502,12.2318277 582.8915,13.3635 C582.406498,14.4951723 581.727504,15.4974956 580.8545,16.3705 C579.981496,17.2435044 578.963006,17.9224976 577.799,18.4075 C576.634994,18.8925024 575.374007,19.135 574.016,19.135 C572.657993,19.135 571.413172,18.8925024 570.2815,18.4075 C569.149828,17.9224976 568.147504,17.2435044 567.2745,16.3705 C566.401496,15.4974956 565.722502,14.4951723 565.2375,13.3635 C564.752498,12.2318277 564.51,11.0193398 564.51,9.726 Z M566.644,25.246 L581.485,25.246 L581.485,72 L566.644,72 L566.644,25.246 Z M617.084,60.554 C618.765342,60.554 620.284993,60.2306699 621.643,59.584 C623.001007,58.9373301 624.164995,58.0805053 625.135,57.0135 C626.105005,55.9464947 626.864831,54.6855073 627.4145,53.2305 C627.964169,51.7754927 628.239,50.2396748 628.239,48.623 C628.239,47.0063253 627.964169,45.4866738 627.4145,44.064 C626.864831,42.6413262 626.105005,41.3803388 625.135,40.281 C624.164995,39.1816612 623.001007,38.3086699 621.643,37.662 C620.284993,37.0153301 618.765342,36.692 617.084,36.692 C615.402658,36.692 613.883007,37.0153301 612.525,37.662 C611.166993,38.3086699 610.003005,39.1816612 609.033,40.281 C608.062995,41.3803388 607.303169,42.6413262 606.7535,44.064 C606.203831,45.4866738 605.929,47.0063253 605.929,48.623 C605.929,50.2396748 606.203831,51.7754927 606.7535,53.2305 C607.303169,54.6855073 608.062995,55.9464947 609.033,57.0135 C610.003005,58.0805053 611.166993,58.9373301 612.525,59.584 C613.883007,60.2306699 615.402658,60.554 617.084,60.554 Z M628.239,65.404 C627.656997,66.5033388 626.881005,67.5218286 625.911,68.4595 C624.940995,69.3971714 623.825506,70.2054966 622.5645,70.8845 C621.303494,71.5635034 619.929341,72.1131646 618.442,72.5335 C616.954659,72.9538354 615.467341,73.164 613.98,73.164 C610.617317,73.164 607.529514,72.5335063 604.7165,71.2725 C601.903486,70.0114937 599.494677,68.2978442 597.49,66.1315 C595.485323,63.9651558 593.933339,61.378515 592.834,58.3715 C591.734661,55.364485 591.185,52.1150175 591.185,48.623 C591.185,45.1309825 591.734661,41.881515 592.834,38.8745 C593.933339,35.867485 595.485323,33.2808442 597.49,31.1145 C599.494677,28.9481558 601.903486,27.2345063 604.7165,25.9735 C607.529514,24.7124937 610.617317,24.082 613.98,24.082 C615.467341,24.082 616.954659,24.2921646 618.442,24.7125 C619.929341,25.1328354 621.303494,25.6986631 622.5645,26.41 C623.825506,27.1213369 624.940995,27.9619952 625.911,28.932 C626.881005,29.9020048 627.656997,30.9043282 628.239,31.939 L628.239,4.1 L643.08,4.1 L643.08,72 L628.239,72 L628.239,65.404 Z M653.847,9.629 C653.847,6.97765341 654.736158,4.74667572 656.5145,2.936 C658.292842,1.12532428 660.47532,0.22 663.062,0.22 C666.166016,0.22 668.671824,1.31932234 670.5795,3.518 C672.487176,5.71667766 673.441,8.56198254 673.441,12.054 C673.441,15.5460175 673.020671,18.5206544 672.18,20.978 C671.339329,23.4353456 670.094508,25.4076592 668.4455,26.895 C666.796492,28.3823408 664.791845,29.4816631 662.4315,30.193 C660.071155,30.9043369 657.371349,31.26 654.332,31.26 L654.332,25.537 C656.336677,25.537 658.001827,25.3106689 659.3275,24.858 C660.653173,24.4053311 661.768662,23.8233369 662.674,23.112 C663.579338,22.4006631 664.242165,21.5923379 664.6625,20.687 C665.082835,19.7816621 665.357666,18.8763379 665.487,17.971 C665.357666,18.100334 665.050502,18.2458325 664.5655,18.4075 C664.080498,18.5691675 663.579336,18.65 663.062,18.65 C660.216652,18.65 657.969508,17.7608422 656.3205,15.9825 C654.671492,14.2041578 653.847,12.0863456 653.847,9.629 Z M709.137,44.452 C711.206344,45.0340029 713.146324,45.6644966 714.957,46.3435 C716.767676,47.0225034 718.351993,47.8631617 719.71,48.8655 C721.068007,49.8678383 722.151163,51.1126592 722.9595,52.6 C723.767837,54.0873408 724.172,55.9626554 724.172,58.226 C724.172,61.0066806 723.622339,63.3508238 722.523,65.2585 C721.423661,67.1661762 719.90401,68.7181607 717.964,69.9145 C716.02399,71.1108393 713.776846,71.9676641 711.2225,72.485 C708.668154,73.0023359 705.936015,73.261 703.026,73.261 C696.3653,73.261 691.111186,71.8060146 687.2635,68.896 C683.415814,65.9859855 681.492,61.8150272 681.492,56.383 L696.042,56.383 C696.042,58.8403456 696.73716,60.6024947 698.1275,61.6695 C699.51784,62.7365053 701.312322,63.27 703.511,63.27 C705.321676,63.27 706.792828,62.9305034 707.9245,62.2515 C709.056172,61.5724966 709.622,60.4570078 709.622,58.905 C709.622,57.9996621 709.379502,57.2721694 708.8945,56.7225 C708.409498,56.1728306 707.665838,55.6555024 706.6635,55.1705 C705.661162,54.6854976 704.367841,54.2005024 702.7835,53.7155 C701.199159,53.2304976 699.307678,52.6323369 697.109,51.921 C695.16899,51.3389971 693.326009,50.7085034 691.58,50.0295 C689.833991,49.3504966 688.298173,48.5260048 686.9725,47.556 C685.646827,46.5859952 684.596004,45.3573408 683.82,43.87 C683.043996,42.3826592 682.656,40.5073446 682.656,38.244 C682.656,33.3939757 684.515148,29.8050116 688.2335,27.477 C691.951852,25.1489884 696.979635,23.985 703.317,23.985 C706.679683,23.985 709.638154,24.3891626 712.1925,25.1975 C714.746846,26.0058374 716.848492,27.1213262 718.4975,28.544 C720.146508,29.9666738 721.391329,31.6479903 722.232,33.588 C723.072671,35.5280097 723.493,37.5973223 723.493,39.796 L708.846,39.796 C708.846,37.8559903 708.344838,36.3525053 707.3425,35.2855 C706.340162,34.2184947 704.804344,33.685 702.735,33.685 C701.247659,33.685 699.954339,34.0244966 698.855,34.7035 C697.755661,35.3825034 697.206,36.4333262 697.206,37.856 C697.206,38.6966709 697.464664,39.3918306 697.982,39.9415 C698.499336,40.4911694 699.259162,40.9923311 700.2615,41.445 C701.263838,41.8976689 702.508659,42.3503311 703.996,42.803 C705.483341,43.2556689 707.19699,43.8053301 709.137,44.452 Z M786.834,72 C785.734661,72.194001 784.360508,72.3718325 782.7115,72.5335 C781.062492,72.6951675 779.138678,72.776 776.94,72.776 C775.193991,72.776 773.35101,72.646668 771.411,72.388 C769.47099,72.129332 767.676508,71.4665053 766.0275,70.3995 C764.378492,69.3324947 763.020505,67.6835112 761.9535,65.4525 C760.886495,63.2214888 760.353,60.1660194 760.353,56.286 L760.353,36.304 L752.981,36.304 L752.981,25.246 L760.353,25.246 L760.353,11.375 L775.097,11.375 L775.097,25.246 L785.767,25.246 L785.767,36.304 L775.097,36.304 L775.097,52.988 C775.097,54.7340087 775.258665,56.1243282 775.582,57.159 C775.905335,58.1936718 776.357997,58.9858306 776.94,59.5355 C777.522003,60.0851694 778.200996,60.456999 778.977,60.651 C779.753004,60.845001 780.593662,60.942 781.499,60.942 C782.404338,60.942 783.341995,60.9258335 784.312,60.8935 C785.282005,60.8611665 786.122663,60.780334 786.834,60.651 L786.834,72 Z M817.001,60.554 C818.682342,60.554 820.201993,60.2306699 821.56,59.584 C822.918007,58.9373301 824.081995,58.0805053 825.052,57.0135 C826.022005,55.9464947 826.781831,54.6855073 827.3315,53.2305 C827.881169,51.7754927 828.156,50.2396748 828.156,48.623 C828.156,47.0063253 827.881169,45.4866738 827.3315,44.064 C826.781831,42.6413262 826.022005,41.3803388 825.052,40.281 C824.081995,39.1816612 822.918007,38.3086699 821.56,37.662 C820.201993,37.0153301 818.682342,36.692 817.001,36.692 C815.319658,36.692 813.800007,37.0153301 812.442,37.662 C811.083993,38.3086699 809.920005,39.1816612 808.95,40.281 C807.979995,41.3803388 807.220169,42.6413262 806.6705,44.064 C806.120831,45.4866738 805.846,47.0063253 805.846,48.623 C805.846,50.2396748 806.120831,51.7754927 806.6705,53.2305 C807.220169,54.6855073 807.979995,55.9464947 808.95,57.0135 C809.920005,58.0805053 811.083993,58.9373301 812.442,59.584 C813.800007,60.2306699 815.319658,60.554 817.001,60.554 Z M842.997,25.246 L842.997,72 L828.156,72 L828.156,65.404 C827.573997,66.5033388 826.798005,67.5218286 825.828,68.4595 C824.857995,69.3971714 823.742506,70.2054966 822.4815,70.8845 C821.220494,71.5635034 819.846341,72.1131646 818.359,72.5335 C816.871659,72.9538354 815.384341,73.164 813.897,73.164 C810.534317,73.164 807.446514,72.5335063 804.6335,71.2725 C801.820486,70.0114937 799.411677,68.2978442 797.407,66.1315 C795.402323,63.9651558 793.850339,61.378515 792.751,58.3715 C791.651661,55.364485 791.102,52.1150175 791.102,48.623 C791.102,45.1309825 791.651661,41.881515 792.751,38.8745 C793.850339,35.867485 795.402323,33.2808442 797.407,31.1145 C799.411677,28.9481558 801.820486,27.2345063 804.6335,25.9735 C807.446514,24.7124937 810.534317,24.082 813.897,24.082 C815.384341,24.082 816.871659,24.2921646 818.359,24.7125 C819.846341,25.1328354 821.220494,25.6986631 822.4815,26.41 C823.742506,27.1213369 824.857995,27.9619952 825.828,28.932 C826.798005,29.9020048 827.573997,30.9043282 828.156,31.939 L828.156,25.246 L842.997,25.246 Z M855.607,4.1 L870.448,4.1 L870.448,72 L855.607,72 L855.607,4.1 Z M894.795,52.212 C894.859667,53.6346738 895.069832,54.9764937 895.4255,56.2375 C895.781168,57.4985063 896.363163,58.5978286 897.1715,59.5355 C897.979837,60.4731714 899.03066,61.2168306 900.324,61.7665 C901.61734,62.3161694 903.23399,62.591 905.174,62.591 C907.76068,62.591 909.716827,62.0736718 911.0425,61.039 C912.368173,60.0043282 913.289664,58.7433408 913.807,57.256 L928.357,57.256 C928.033665,59.4546777 927.273839,61.5239903 926.0775,63.464 C924.881161,65.4040097 923.296843,67.1014927 921.3245,68.5565 C919.352157,70.0115073 917.02418,71.1593291 914.3405,72 C911.65682,72.8406709 908.633683,73.261 905.271,73.261 C901.19698,73.261 897.591849,72.6628393 894.4555,71.4665 C891.319151,70.2701607 888.684011,68.5726777 886.55,66.374 C884.415989,64.1753223 882.799339,61.572515 881.7,58.5655 C880.600661,55.558485 880.051,52.2443514 880.051,48.623 C880.051,45.1956495 880.584495,41.9946815 881.6515,39.02 C882.718505,36.0453185 884.302823,33.4425112 886.4045,31.2115 C888.506177,28.9804888 891.092818,27.2183398 894.1645,25.925 C897.236182,24.6316602 900.80898,23.985 904.883,23.985 C908.569018,23.985 911.883152,24.5669942 914.8255,25.731 C917.767848,26.8950058 920.289823,28.4469903 922.3915,30.387 C924.493177,32.3270097 926.109828,34.5903204 927.2415,37.177 C928.373172,39.7636796 928.939,42.4796524 928.939,45.325 C928.939,46.2950048 928.922833,47.3296612 928.8905,48.429 C928.858167,49.5283388 928.712668,50.7893262 928.454,52.212 L894.795,52.212 Z M904.786,33.879 C901.875985,33.879 899.483343,34.7196583 897.608,36.401 C895.732657,38.0823417 894.795,40.5073175 894.795,43.676 L914.389,43.676 C914.389,40.6366515 913.499842,38.2440087 911.7215,36.498 C909.943158,34.7519913 907.631348,33.879 904.786,33.879 Z" id="text"></path>
            </g>
            <rect id="separator" fill-rule="nonzero" x="296.5" y="0.9" width="4" height="141"></rect>
        </g>
    </g>
</svg>
