<?xml version="1.0" encoding="utf-8"?>
<svg version="1.1" id="Layer_1" xmlns="http://www.w3.org/2000/svg" xmlns:xlink="http://www.w3.org/1999/xlink" x="0px" y="0px"
  viewBox="0 0 895.3 184" style="enable-background:new 0 0 895.3 184;" xml:space="preserve">
  <g id="hunters-lockup" fill="#ffffff">
    <g id="divider_1_">
      <g id="Client_x5F_Project_1_">
        <g id="Divider_1_">
          <g>
            <rect x="279.6" width="4" height="184"/>
          </g>
        </g>
      </g>
    </g>
    <g fill="#ffffff" id="hunters-lockup-logo">
      <g transform="translate(-78.143562,-861.99413)">
        <g>
          <path d="M253,938h-20.6v-2.2c0-1.4,0-2.8,0.3-4.1c0.2-1.1,0.5-1.9,0.6-2.7c0.5-1.1,0.9-1.6,2-2.2
          c1.2-0.6,3.4-1.6,8.1-1.6h14.2V903h-14.2c-6.7,0-12.6,1.2-17.6,3.6c-3.7,1.9-6.9,4.4-9.1,7.2c-3.4,4.4-5.2,8.7-6.1,12.8
          c-0.9,3.9-0.9,7.2-0.9,9.5v61h22.6v-37.3h20.6V938"/>
        </g>
        <g>
          <path d="M287.5,1032.2c19.8,0,30.3-14.5,30.3-28.1v-65.9h-21.2V971c0,1.6-0.2,3.6-1.7,5.3s-3.6,3.1-7,3.1
          c-3.6,0-6.1-1.2-7.2-3.1c-1.2-1.7-1.6-3.7-1.6-5.3v-32.8h-21.5v33.3c0,13.9,10.3,28.1,27.6,28.1c3.4,0,6.7-0.6,10-1.9l1.6-0.6
          v1.7v4.8c0,1.1,0,2.3-1.1,4.4c-1.1,1.9-3.4,3.7-7.2,3.6c-3.4,0-5.9-1.6-7-3.1c-1.2-1.6-1.6-3.1-1.6-3.4l-21.7-0.2l0.5,3.4
          C260.8,1020.3,271.7,1032.2,287.5,1032.2"/>
        </g>
        <g>
          <path d="M174.9,1032.2c19.8,0,30.3-14.5,30.3-28.1v-65.9H184V971c0,1.6-0.2,3.4-1.7,5.3c-1.6,1.7-3.6,3.1-7,3.1
          c-3.6,0-6.1-1.2-7.2-3.1c-1.2-1.7-1.6-3.7-1.6-5.3v-32.8H145v33.3c0,13.9,10.3,28.1,27.6,28.1c3.4,0,6.7-0.6,10-1.9l1.6-0.6v1.7
          v4.8c0,1.1,0,2.3-1.1,4.4c-1.1,1.9-3.4,3.7-7.2,3.6c-3.4,0-5.9-1.6-7-3.1c-1.1-1.6-1.6-3.1-1.6-3.4l-21.7-0.2l0.5,3.4
          C148.2,1020.3,159,1032.2,174.9,1032.2"/>
        </g>
        <g>
          <path d="M78.1,969.2c0,0,0-1.9,0.2-3h21.4v1.4c0,3.7,2.2,7.3,4.4,8.9c2,1.6,5,2,6.7,2c4.5,0,8.7-2.8,8.7-7v-0.3
          c-0.2-3.3-2.2-5.2-5.3-6.6c-2.8-1.2-7.3-3.3-12.3-5.6c-5-2.7-10.5-5.5-14.8-8.9c-6.2-5-8.9-11.2-8.6-20
          c0.3-7.3,3.6-13.9,9.7-19.4c6.1-5.3,13.6-7.3,21.5-7.3c10.1,0,18.6,4.1,24.2,10.6c5.6,6.9,6.7,13.6,7,18.4v0.9h-22
          c-0.2-2.2-1.4-5-2.7-6.6c-1.6-1.7-3.7-3-6.7-3c-1.7,0-3.6,0.5-5.3,1.6s-3,2.8-3,5c0,2.3,1.1,4.4,4.4,5.9
          c3.1,1.6,12.3,5.6,13.6,6.2c13.3,5.2,21.5,13.4,22.6,26.2c0,0.3,0,0.5,0,0.9c0,4.4-1.2,11.7-6.2,18.1c-4.8,6.4-13.4,12-24.5,12
          C88.7,999.4,78.1,983.6,78.1,969.2"/>
        </g>
      </g>
    </g>
    <g id="hunters-lockup-project" fill="#ffffff">
      <path d="M327.5,27.7h25.7v49.9c4.7-8.7,14.2-14.2,27.1-14.2c10.8,0,18.2,3.6,22.7,9.5c5.2,6.4,6.8,14.7,6.8,26.7V149
      h-25.7v-42.8c0-12-3.6-20.3-14.7-20.3c-10.8,0-16.1,8.3-16.1,21.2v42h-25.7L327.5,27.7L327.5,27.7z"/>
      <path d="M505.1,65.5v83.6h-26.5v-12c-4.7,8.8-14.4,14-27.4,14c-10.8,0-18.9-3.6-23.4-9.5c-5.2-6.4-6.4-14.6-6.4-26.5
      V65.5h26.3v42.8c0,12,3.6,20.3,14.7,20.3c10.9,0,16.1-8.3,16.1-21.2v-42h26.6V65.5z"/>
      <path d="M519,65.5h26.5v12.1c4.7-9,14.4-14.2,27.4-14.2c10.8,0,18.9,3.6,23.4,9.5c5.2,6.4,6.6,14.6,6.6,26.5V149
      h-26.5v-42.8c0-12-3.6-20.3-14.7-20.3c-10.8,0-16.1,8.3-16.1,21.2v42h-26.5V65.5H519z"/>
      <path d="M667.8,149.1c-4,0.7-9.9,1.4-17.7,1.4c-12.5,0-29.7-1.6-29.7-29.5V85.3h-13.2V65.5h13.2V40.7h26.4v24.8h19.1
      v19.8h-19.1v29.8c0,12.3,4.9,14.2,11.4,14.2c3.3,0,7.1-0.2,9.5-0.5L667.8,149.1L667.8,149.1z"/>
      <path d="M692.2,113.8c0.5,10.1,4.7,18.6,18.6,18.6c9.2,0,13.7-4.2,15.4-9.5h26c-2.4,15.8-17.3,28.6-41.3,28.6
      c-29.3,0-45.1-18.2-45.1-44.1c0-24.5,15.4-44.1,44.4-44.1c26.2,0,43,17.7,43,38.2c0,3.5,0,7.3-0.9,12.3H692.2z M692.2,98.5h35
      c0-10.8-7.1-17.5-17.2-17.5C699.7,81,692.2,87.2,692.2,98.5z"/>
      <path d="M822.7,89.7c-3.6-0.9-5.7-1.2-9.4-1.2c-14.6,0-24.1,7.6-24.1,28.1v32.6h-26.5V65.6h26.5v13.5
      c3.8-7.8,13.9-14.9,25.5-14.9c3.3,0,5.5,0.3,8,1.4V89.7z"/>
      <path d="M895.3,124.5c0,19.8-17,26.9-37.8,26.9c-23.8,0-38.5-10.9-38.5-30.2h26c0,8.8,5.5,12.3,13.4,12.3
      c6.4,0,10.9-2.3,10.9-7.8c0-6.4-6.6-7.3-22.4-12.5c-13.9-4.3-25.8-8.3-25.8-24.5c0-17.3,14.4-25.5,36.9-25.5
      c24.3,0,36.1,12.3,36.1,28.3h-26.2c0-6.9-3.6-10.9-10.9-10.9c-5.4,0-9.9,2.4-9.9,7.5c0,6.1,7.3,7.1,21.3,11.8
      C883.2,104.2,895.3,108.2,895.3,124.5z"/>
    </g>
  </g>
</svg>
