<svg width="919px" height="165px" viewBox="0 0 919 165" version="1.1" xmlns="http://www.w3.org/2000/svg" xmlns:xlink="http://www.w3.org/1999/xlink">
    <!-- Generator: Sketch 43.2 (39069) - http://www.bohemiancoding.com/sketch -->
    <desc>Created with Sketch.</desc>
    <defs></defs>
    <g id="Page-1" stroke="none" stroke-width="1" fill="none" fill-rule="evenodd">
        <g id="ilny2017-lockup" transform="translate(-1.000000, 0.000000)" fill-rule="nonzero">
            <g id="ilny2017-lockup-logo" transform="translate(0.000000, 32.000000)">
                <path d="M122.6,102.2 C99.2,90.5 67.4,64.5 67,37.9 C66.6,8.5 86.3,1.3 99.5,1.3 C113,1.3 119.2,9.2 124.7,15 C130.3,9.2 136.4,1.3 149.9,1.3 C163.1,1.3 182.8,8.5 182.4,37.9 C182,64.4 150.2,90.5 126.8,102.1 C126,102.5 125.3,102.7 124.6,102.7 C123.9,102.7 123.4,102.6 122.6,102.2" id="Shape_3_" fill="#D22027"></path>
                <path d="M418.1,8.8 C418,11.4 417.3,13.4 416.2,14.5 C414.1,16.7 408.8,17 406,16.5 C404.4,16.2 402.9,16.1 402.1,16.2 C398.4,16.5 396.4,18.8 394.4,22 L369.8,61 L369.4,77 C369.3,80.6 370.1,83.8 374.3,83.6 L381.1,83.3 C385.2,83.1 389,85.7 389.2,90.1 C389.4,95.7 384.9,98.2 379.8,97.9 C376.6,97.7 373.7,97.2 371.1,96.8 C365.5,95.8 361.7,96.1 356.1,96.8 C350.9,97.4 346.9,97.8 344.1,97.7 C339.6,97.6 335.3,95.4 334.8,90.7 C334.4,86.2 337.9,83.1 342.4,83.5 L348.3,84 C350.6,84.2 353.6,83 353.7,80.4 L354.1,62.5 L328.5,21.3 C327.1,19 324.9,17.6 322.8,16.8 C320.1,15.8 317.2,15.7 314.3,16.1 C312,16.4 311.5,16.1 310.9,16.1 C305.8,15.9 303.5,13.6 303.8,8.8 C304.1,2.9 307.5,2 313.1,2 C314.1,2 316.4,2 321,2.7 C324.4,3.2 327.2,2.9 329.4,2.9 C335.2,2.7 341.2,1.6 346.9,1.8 C350.1,1.9 352.3,2.6 353.9,3.4 C356.1,4.5 357.5,6.2 357.4,9 C357.3,11.7 356.2,14.1 354.7,15.3 C353.5,16.2 350.3,16.3 347.8,16.3 C343.2,16.2 343.4,18.9 344.9,20.2 L361.5,46.8 L378.9,19.5 C379.3,18.1 381.1,15.7 376.2,16.3 C374.7,16.5 374.5,16.5 372.7,16.5 C370.1,16.4 368.3,15.9 367.3,15.2 C364.1,12.9 364.5,10.7 365.1,7.3 C365.5,4.9 367.4,3.8 369.6,3.2 C371.8,2.5 374.1,2.6 376.4,2.6 C379,2.6 381.7,2.9 384.2,3.2 C388.9,3.9 392.3,3.9 397,3.4 C400.3,3 404.1,2.2 407.8,2.2 C410.3,2.2 412.8,2.3 414.9,3.5 C417,4.2 418.2,6.1 418.1,8.8" id="Shape_4_" fill="#FFFFFF"></path>
                <path d="M55.7,90.2 C55.4,96.6 50.4,96.8 45.4,96.8 C40.3,96.8 35.2,95.9 30.1,95.9 C24.4,95.9 18.7,96.3 13.1,96.8 C6.6,97.4 2,96 2.2,90 C2.4,86 4.7,83.3 9.6,83.3 L16.2,83.3 C19.8,83.3 21.2,79.6 21.1,76.8 L20.9,21.5 C20.9,18.5 19.9,15.7 16.3,15.7 L8.8,16 C3.8,16.1 0.9,12.8 1,8.4 C1.1,2.8 5.6,1.4 10.2,1.5 C11.8,1.6 15.2,1.6 17.4,1.8 C21,2.2 24.8,2.1 28.5,2.1 C34.1,2.1 39.6,1.2 45.1,1.2 C50.3,1.2 54.9,2.5 55.2,8.9 C55.4,12.8 51.3,15.6 46.9,15.5 L41.8,15.4 C37.9,15.3 35.6,18.1 35.7,21.3 L36.4,77 C36.5,82.3 39.3,83.8 43.5,83.8 L48.5,83.7 C52.3,83.7 55.9,85.6 55.7,90.2" id="Shape_5_" fill="#FFFFFF"></path>
                <path d="M302,8.4 C301.8,14.9 297.9,16.3 291.9,16.3 C291.9,16.2 282.2,15.2 282.2,20.3 L282.2,84.2 C282.2,91.9 278.5,99.2 270.3,99.2 C265,99.2 259.3,96.5 257.1,91.4 L226.6,20.6 L226.5,76.1 C226.5,80.6 227.7,83.1 232.2,83 L237.8,82.8 C242.8,82.7 246.2,85.4 246.1,90.6 C245.9,96.3 241.6,97.6 236.8,97.6 C230.9,97.6 225.4,95.7 219.6,96 C213.5,96.3 207.5,97.1 201.4,97.1 C196.1,97.1 192.1,95.5 192.1,89.3 C192.1,84.2 195.3,83.1 199.8,83 L205.9,82.9 C209.6,82.8 211.8,81.3 211.8,78.2 L211.8,19.6 C211.8,16.6 210.6,15.1 206.6,15.2 L201.3,15.4 C195.1,15.6 192.7,14.4 192.9,8.2 C193,2.8 196.7,0.4 203.5,1 C207.2,1.3 211,1.7 214.7,1.7 C218.8,1.7 222.8,1.6 226.9,1.6 C233.8,1.6 236.5,5.8 239.2,12 L267.2,75.5 L267.2,21.7 C267.2,19.3 266.2,17.4 265.5,16.7 C264.7,15.9 263.5,15.6 262,15.6 L255.6,15.6 C250.9,15.6 246.9,13.6 247,9.2 C247.1,2.1 253.7,0.9 259.5,1.1 C265.2,1.3 271.3,2.9 276.9,2.7 C282.2,2.5 287.5,1.2 292.8,1.4 C299.6,1.8 302.1,4.4 302,8.4" id="Shape_6_" fill="#FFFFFF"></path>
                <path d="M406.8,78.8 C409.4,78.8 411.8,79.7 413.8,81.6 C415.9,83.6 417,86 417,88.8 C417,92.2 415.8,94.8 413.4,96.6 C411.5,98 409.4,98.7 407.1,98.7 L406.6,98.7 C404.2,98.7 402,97.7 400,95.7 C398,93.7 397,91.5 397,88.9 L397,88.5 C397,85.7 397.9,83.4 399.8,81.6 C401.8,79.8 404.1,78.8 406.8,78.8 L406.8,78.8 L406.8,78.8 Z M407.7,88.2 C408.5,88.2 409.2,88 409.6,87.6 C410.1,87.2 410.3,86.7 410.3,86.2 C410.3,85.7 410.1,85.2 409.7,84.8 C409.3,84.4 408.7,84.2 408,84.2 L404.3,84.2 L404.3,88.2 L407.7,88.2 L407.7,88.2 L407.7,88.2 Z M407,80.3 C405.1,80.3 403.3,81 401.6,82.3 C399.5,84 398.4,86.2 398.4,89 C398.4,91.2 399.3,93.1 401,94.9 C402.7,96.7 404.6,97.6 406.8,97.6 L407.2,97.6 C409.3,97.6 411.3,96.7 413,95 C414.7,93.3 415.6,91.2 415.6,88.9 C415.6,86.6 414.7,84.6 413,82.9 C411.3,81.1 409.3,80.3 407,80.3 L407,80.3 L407,80.3 Z M402.9,83.1 L408.2,83.1 C409.4,83.1 410.3,83.4 411,84.1 C411.6,84.7 411.9,85.4 411.9,86.3 C411.9,87.1 411.6,87.8 411,88.4 C410.4,89 409.6,89.3 408.5,89.3 L408.1,89.3 L411.4,94.5 L409.7,94.5 L406.5,89.6 L404.2,89.6 L404.2,94.5 L402.8,94.5 L402.8,83.1 L402.9,83.1 L402.9,83.1 Z" id="Shape_7_" fill="#FFFFFF"></path>
            </g>
            <g id="Divider" transform="translate(453.000000, 0.000000)" fill="#FFFFFF">
                <rect id="Rectangle-path" x="0.7" y="0" width="4" height="165"></rect>
            </g>
            <g id="ilny2017-lockup-project" transform="translate(492.000000, 1.000000)" fill="#FFFFFF">
                <path d="M9.4,0.2 C14.3,0.2 18.1,4 18.1,8.7 C18.1,13.4 14.3,17.2 9.4,17.2 C4.6,17.2 0.8,13.3 0.8,8.7 C0.8,4 4.6,0.2 9.4,0.2 Z M2.7,22.8 L16.1,22.8 L16.1,65.1 L2.7,65.1 L2.7,22.8 Z" id="Shape"></path>
                <path d="M27.6,22.8 L41,22.8 L41,28.9 C43.4,24.3 48.3,21.7 54.9,21.7 C60.3,21.7 64.5,23.5 66.8,26.5 C69.4,29.7 70.1,33.9 70.1,39.9 L70.1,65 L56.7,65 L56.7,43.4 C56.7,37.3 54.9,33.1 49.2,33.1 C43.8,33.1 41,37.3 41,43.8 L41,65 L27.6,65 L27.6,22.8 L27.6,22.8 Z" id="Shape"></path>
                <path d="M107.4,13.5 C106,13.1 104.9,13 103.3,13 C100.4,13 97.6,13.4 97.6,18.4 L97.6,22.9 L107.4,22.9 L107.4,32.9 L97.6,32.9 L97.6,65.2 L84.2,65.2 L84.2,32.8 L76.7,32.8 L76.7,22.8 L84.2,22.8 L84.2,19.1 C84.2,3.7 93.5,2.7 100.2,2.7 C103.4,2.7 106,3.2 107.5,3.8 L107.5,13.5 L107.4,13.5 Z M114.1,3.6 L127.5,3.6 L127.5,65.1 L114.1,65.1 L114.1,3.6 Z" id="Shape"></path>
                <path d="M180.9,22.8 L180.9,65.1 L167.5,65.1 L167.5,59 C165.1,63.5 160.2,66.1 153.6,66.1 C148.2,66.1 144,64.3 141.7,61.3 C139.1,58.1 138.5,53.9 138.5,47.9 L138.5,22.8 L151.8,22.8 L151.8,44.5 C151.8,50.6 153.6,54.8 159.3,54.8 C164.8,54.8 167.5,50.6 167.5,44.1 L167.5,22.8 L180.9,22.8 Z" id="Shape"></path>
                <path d="M202.9,47.2 C203.2,52.3 205.3,56.6 212.3,56.6 C217,56.6 219.2,54.5 220.1,51.8 L233.3,51.8 C232.1,59.8 224.5,66.3 212.4,66.3 C197.6,66.3 189.6,57.1 189.6,44 C189.6,31.6 197.4,21.7 212.1,21.7 C225.4,21.7 233.9,30.7 233.9,41 C233.9,42.8 233.9,44.7 233.5,47.2 L202.9,47.2 L202.9,47.2 Z M202.9,39.4 L220.6,39.4 C220.6,34 217,30.5 211.9,30.5 C206.7,30.6 202.9,33.7 202.9,39.4 Z" id="Shape"></path>
                <path d="M242.9,22.8 L256.3,22.8 L256.3,28.9 C258.7,24.3 263.6,21.7 270.2,21.7 C275.6,21.7 279.8,23.5 282.1,26.5 C284.7,29.7 285.4,33.9 285.4,39.9 L285.4,65 L272,65 L272,43.4 C272,37.3 270.2,33.1 264.5,33.1 C259.1,33.1 256.3,37.3 256.3,43.8 L256.3,65 L242.9,65 L242.9,22.8 Z" id="Shape"></path>
                <path d="M324.6,39.4 C324.1,35.6 321.7,33.1 316.3,33.1 C309.9,33.1 306.9,38.2 306.9,44 C306.9,49.9 309.8,54.9 316.8,54.9 C321.5,54.9 323.6,52.9 324.7,49.3 L338.1,49.3 C336.8,58.9 329.6,66.3 316.2,66.3 C301.4,66.3 293.5,55.8 293.5,44 C293.5,32.3 301.4,21.7 316.2,21.7 C330.5,21.7 337.2,30.3 338.1,39.4 L324.6,39.4 Z" id="Shape"></path>
                <path d="M356.9,47.2 C357.2,52.3 359.3,56.6 366.3,56.6 C371,56.6 373.2,54.5 374.1,51.8 L387.3,51.8 C386.1,59.8 378.5,66.3 366.4,66.3 C351.6,66.3 343.6,57.1 343.6,44 C343.6,31.6 351.4,21.7 366.1,21.7 C379.4,21.7 387.9,30.7 387.9,41 C387.9,42.8 387.9,44.7 387.5,47.2 L356.9,47.2 L356.9,47.2 Z M356.9,39.4 L374.6,39.4 C374.6,34 371,30.5 365.9,30.5 C360.7,30.6 356.9,33.7 356.9,39.4 Z" id="Shape"></path>
                <path d="M427.3,35 C425.5,34.6 424.4,34.4 422.6,34.4 C415.2,34.4 410.4,38.3 410.4,48.6 L410.4,65.1 L397,65.1 L397,22.8 L410.4,22.8 L410.4,29.6 C412.3,25.6 417.4,22 423.3,22 C425,22 426.1,22.2 427.3,22.7 L427.3,35 L427.3,35 Z" id="Shape"></path>
                <path d="M31.1,116.8 C30.6,113 28.2,110.5 22.8,110.5 C16.4,110.5 13.4,115.6 13.4,121.4 C13.4,127.3 16.3,132.3 23.3,132.3 C28,132.3 30.1,130.3 31.2,126.7 L44.6,126.7 C43.3,136.3 36.1,143.7 22.7,143.7 C7.9,143.7 5.68434189e-14,133.2 5.68434189e-14,121.4 C5.68434189e-14,109.7 7.9,99.1 22.7,99.1 C37,99.1 43.7,107.7 44.6,116.8 L31.1,116.8 L31.1,116.8 Z" id="Shape"></path>
                <path d="M97.5,100.2 L97.5,142.5 L84.1,142.5 L84.1,136.5 C82.1,140.4 76.6,143.5 71.2,143.5 C59,143.5 50.6,133.9 50.6,121.3 C50.6,108.7 59,99.1 71.2,99.1 C76.6,99.1 82.1,102.3 84.1,106.2 L84.1,100.1 L97.5,100.1 L97.5,100.2 Z M84.1,121.4 C84.1,115.6 80.1,110.6 74,110.6 C67.9,110.6 63.9,115.6 63.9,121.4 C63.9,127.3 67.9,132.2 74,132.2 C80.1,132.2 84.1,127.2 84.1,121.4 Z" id="Shape"></path>
                <path d="M162.2,142.5 L162.2,119.7 C162.2,114 160.3,110.6 155.7,110.6 C151.7,110.6 148.6,113.1 148.6,121.3 L148.6,142.5 L135.6,142.5 L135.6,119.6 C135.6,113.9 133.8,110.6 129.3,110.6 C125.2,110.6 122,113.2 122,121.6 L122,142.6 L109,142.6 L109,100.3 L122,100.3 L122,106.4 C123.8,102.4 128.3,99.2 134.2,99.2 C141.6,99.2 145.3,102.5 147,106.8 C149.2,102.4 154,99.2 160.3,99.2 C172.6,99.2 175.1,107.5 175.1,116.5 L175.1,142.6 L162.2,142.6 L162.2,142.5 Z" id="Shape"></path>
                <path d="M199.5,106.3 C201.5,102.4 207,99.2 212.5,99.2 C224.7,99.2 233.1,108.8 233.1,121.4 C233.1,134 224.7,143.6 212.5,143.6 C207,143.6 201.5,140.4 199.5,136.5 L199.5,161.7 L186,161.7 L186,100.2 L199.4,100.2 L199.4,106.3 L199.5,106.3 Z M199.5,121.4 C199.5,127.3 203.5,132.2 209.7,132.2 C215.7,132.2 219.7,127.3 219.7,121.4 C219.7,115.5 215.7,110.6 209.7,110.6 C203.5,110.6 199.5,115.5 199.5,121.4 Z" id="Shape"></path>
                <path d="M286.3,100.2 L286.3,142.5 L272.9,142.5 L272.9,136.5 C270.9,140.4 265.4,143.5 260,143.5 C247.8,143.5 239.4,133.9 239.4,121.3 C239.4,108.7 247.8,99.1 260,99.1 C265.4,99.1 270.9,102.3 272.9,106.2 L272.9,100.1 L286.3,100.1 L286.3,100.2 Z M272.9,121.4 C272.9,115.6 268.9,110.6 262.8,110.6 C256.7,110.6 252.7,115.6 252.7,121.4 C252.7,127.3 256.7,132.2 262.8,132.2 C268.8,132.2 272.9,127.2 272.9,121.4 Z" id="Shape"></path>
                <path d="M304.4,77.6 C309.3,77.6 313.1,81.4 313.1,86.1 C313.1,90.8 309.3,94.6 304.4,94.6 C299.6,94.6 295.8,90.7 295.8,86.1 C295.8,81.4 299.6,77.6 304.4,77.6 Z M297.7,100.2 L311.1,100.2 L311.1,142.5 L297.7,142.5 L297.7,100.2 Z" id="Shape"></path>
                <path d="M367,142.3 C367,149.9 364.7,154.9 360.3,158.3 C356.3,161.3 351,162.9 343.2,162.9 C335.3,162.9 330.1,161 326.6,158 C322.9,154.8 320.6,150.5 320.5,145.9 L333.9,145.9 C334.3,149.5 337.4,153 343.2,153 C349.5,153 353.6,150 353.6,143.4 L353.6,136.3 C351.3,140.2 346.1,142.9 340.7,142.9 C328.5,142.9 320,134 320,121.5 C320,108.9 328.2,99.3 340.5,99.3 C345.9,99.3 351.2,101.9 353.6,106.4 L353.6,100.3 L367,100.3 L367,142.3 Z M333.4,121.4 C333.4,127.3 337.4,132.2 343.4,132.2 C349.5,132.2 353.6,127.3 353.6,121.4 C353.6,115.6 349.6,110.6 343.4,110.6 C337.4,110.6 333.4,115.6 333.4,121.4 Z" id="Shape"></path>
                <path d="M378.1,100.2 L391.5,100.2 L391.5,106.3 C393.9,101.7 398.8,99.1 405.4,99.1 C410.8,99.1 415,100.9 417.3,103.9 C419.9,107.1 420.6,111.3 420.6,117.3 L420.6,142.4 L407.2,142.4 L407.2,120.7 C407.2,114.6 405.4,110.4 399.7,110.4 C394.3,110.4 391.5,114.6 391.5,121.1 L391.5,142.3 L378.1,142.3 L378.1,100.2 L378.1,100.2 Z" id="Shape"></path>
            </g>
        </g>
    </g>
</svg>
