<?xml version="1.0" encoding="UTF-8" standalone="no"?>
<svg width="796px" height="165px" viewBox="0 0 796 165" version="1.1" xmlns="http://www.w3.org/2000/svg" xmlns:xlink="http://www.w3.org/1999/xlink" xmlns:sketch="http://www.bohemiancoding.com/sketch/ns">
    <!-- Generator: Sketch 3.5.1 (25234) - http://www.bohemiancoding.com/sketch -->
    <title>ilny-lockup</title>
    <desc>Created with Sketch.</desc>
    <defs></defs>
    <g id="Page-1" stroke="none" stroke-width="1" fill="none" fill-rule="evenodd" sketch:type="MSPage">
        <g id="ilny-lockup" sketch:type="MSLayerGroup" transform="translate(-1.000000, 0.000000)">
            <g id="Divider" transform="translate(453.000000, 0.000000)" fill="#FFFFFF" sketch:type="MSShapeGroup">
                <rect id="Rectangle-path" x="0.7" y="0" width="4" height="165"></rect>
            </g>
            <g id="ilny-lockup-project" transform="translate(491.000000, 29.000000)" fill="#FFFFFF" sketch:type="MSShapeGroup">
                <path d="M108.5,3.4 L108.5,100.8 L77.6,100.8 L77.6,87.1 C73,96 60.4,103.3 47.9,103.3 C19.8,103.3 0.4,81.3 0.4,52.2 C0.4,23.1 19.8,1 47.9,1 C60.4,1 72.9,8.5 77.6,17.4 L77.6,3.4 L108.5,3.4 L108.5,3.4 L108.5,3.4 Z M77.6,52.1 C77.6,38.8 68.3,27.3 54.4,27.3 C40.5,27.3 31.2,38.8 31.2,52.1 C31.2,65.6 40.5,76.9 54.4,76.9 C68.3,77 77.6,65.7 77.6,52.1 L77.6,52.1 L77.6,52.1 Z" id="Shape"></path>
                <path d="M118,52.1 C118,24.2 138.4,0.8 171.9,0.8 C205.8,0.8 226,24.2 226,52.1 C226,80 205.8,103.4 171.9,103.4 C138.4,103.4 118,80 118,52.1 L118,52.1 L118,52.1 Z M195.4,52.1 C195.4,38.6 186.1,27.3 172,27.3 C158.1,27.3 149,38.6 149,52.1 C149,65.8 158.1,76.9 172,76.9 C186.1,77 195.4,65.9 195.4,52.1 L195.4,52.1 L195.4,52.1 Z" id="Shape"></path>
                <path d="M305.5,31.5 C301.3,30.5 298.8,30.1 294.6,30.1 C277.6,30.1 266.5,39 266.5,62.8 L266.5,100.8 L235.6,100.8 L235.6,3.4 L266.5,3.4 L266.5,19.2 C270.9,10.1 282.7,1.8 296.2,1.8 C300,1.8 302.7,2.2 305.5,3.4 L305.5,31.5 L305.5,31.5 L305.5,31.5 Z" id="Shape"></path>
            </g>
            <g id="ilny-lockup-logo" transform="translate(0.000000, 32.000000)" sketch:type="MSShapeGroup">
                <path d="M122.6,102.2 C99.2,90.5 67.4,64.5 67,37.9 C66.6,8.5 86.3,1.3 99.5,1.3 C113,1.3 119.2,9.2 124.7,15 C130.3,9.2 136.4,1.3 149.9,1.3 C163.1,1.3 182.8,8.5 182.4,37.9 C182,64.4 150.2,90.5 126.8,102.1 C126,102.5 125.3,102.7 124.6,102.7 C123.9,102.7 123.4,102.6 122.6,102.2" id="Shape" fill="#D22027"></path>
                <path d="M418.1,8.8 C418,11.4 417.3,13.4 416.2,14.5 C414.1,16.7 408.8,17 406,16.5 C404.4,16.2 402.9,16.1 402.1,16.2 C398.4,16.5 396.4,18.8 394.4,22 L369.8,61 L369.4,77 C369.3,80.6 370.1,83.8 374.3,83.6 L381.1,83.3 C385.2,83.1 389,85.7 389.2,90.1 C389.4,95.7 384.9,98.2 379.8,97.9 C376.6,97.7 373.7,97.2 371.1,96.8 C365.5,95.8 361.7,96.1 356.1,96.8 C350.9,97.4 346.9,97.8 344.1,97.7 C339.6,97.6 335.3,95.4 334.8,90.7 C334.4,86.2 337.9,83.1 342.4,83.5 L348.3,84 C350.6,84.2 353.6,83 353.7,80.4 L354.1,62.5 L328.5,21.3 C327.1,19 324.9,17.6 322.8,16.8 C320.1,15.8 317.2,15.7 314.3,16.1 C312,16.4 311.5,16.1 310.9,16.1 C305.8,15.9 303.5,13.6 303.8,8.8 C304.1,2.9 307.5,2 313.1,2 C314.1,2 316.4,2 321,2.7 C324.4,3.2 327.2,2.9 329.4,2.9 C335.2,2.7 341.2,1.6 346.9,1.8 C350.1,1.9 352.3,2.6 353.9,3.4 C356.1,4.5 357.5,6.2 357.4,9 C357.3,11.7 356.2,14.1 354.7,15.3 C353.5,16.2 350.3,16.3 347.8,16.3 C343.2,16.2 343.4,18.9 344.9,20.2 L361.5,46.8 L378.9,19.5 C379.3,18.1 381.1,15.7 376.2,16.3 C374.7,16.5 374.5,16.5 372.7,16.5 C370.1,16.4 368.3,15.9 367.3,15.2 C364.1,12.9 364.5,10.7 365.1,7.3 C365.5,4.9 367.4,3.8 369.6,3.2 C371.8,2.5 374.1,2.6 376.4,2.6 C379,2.6 381.7,2.9 384.2,3.2 C388.9,3.9 392.3,3.9 397,3.4 C400.3,3 404.1,2.2 407.8,2.2 C410.3,2.2 412.8,2.3 414.9,3.5 C417,4.2 418.2,6.1 418.1,8.8" id="Shape" fill="#FFFFFF"></path>
                <path d="M55.7,90.2 C55.4,96.6 50.4,96.8 45.4,96.8 C40.3,96.8 35.2,95.9 30.1,95.9 C24.4,95.9 18.7,96.3 13.1,96.8 C6.6,97.4 2,96 2.2,90 C2.4,86 4.7,83.3 9.6,83.3 L16.2,83.3 C19.8,83.3 21.2,79.6 21.1,76.8 L20.9,21.5 C20.9,18.5 19.9,15.7 16.3,15.7 L8.8,16 C3.8,16.1 0.9,12.8 1,8.4 C1.1,2.8 5.6,1.4 10.2,1.5 C11.8,1.6 15.2,1.6 17.4,1.8 C21,2.2 24.8,2.1 28.5,2.1 C34.1,2.1 39.6,1.2 45.1,1.2 C50.3,1.2 54.9,2.5 55.2,8.9 C55.4,12.8 51.3,15.6 46.9,15.5 L41.8,15.4 C37.9,15.3 35.6,18.1 35.7,21.3 L36.4,77 C36.5,82.3 39.3,83.8 43.5,83.8 L48.5,83.7 C52.3,83.7 55.9,85.6 55.7,90.2" id="Shape" fill="#FFFFFF"></path>
                <path d="M302,8.4 C301.8,14.9 297.9,16.3 291.9,16.3 C291.9,16.2 282.2,15.2 282.2,20.3 L282.2,84.2 C282.2,91.9 278.5,99.2 270.3,99.2 C265,99.2 259.3,96.5 257.1,91.4 L226.6,20.6 L226.5,76.1 C226.5,80.6 227.7,83.1 232.2,83 L237.8,82.8 C242.8,82.7 246.2,85.4 246.1,90.6 C245.9,96.3 241.6,97.6 236.8,97.6 C230.9,97.6 225.4,95.7 219.6,96 C213.5,96.3 207.5,97.1 201.4,97.1 C196.1,97.1 192.1,95.5 192.1,89.3 C192.1,84.2 195.3,83.1 199.8,83 L205.9,82.9 C209.6,82.8 211.8,81.3 211.8,78.2 L211.8,19.6 C211.8,16.6 210.6,15.1 206.6,15.2 L201.3,15.4 C195.1,15.6 192.7,14.4 192.9,8.2 C193,2.8 196.7,0.4 203.5,1 C207.2,1.3 211,1.7 214.7,1.7 C218.8,1.7 222.8,1.6 226.9,1.6 C233.8,1.6 236.5,5.8 239.2,12 L267.2,75.5 L267.2,21.7 C267.2,19.3 266.2,17.4 265.5,16.7 C264.7,15.9 263.5,15.6 262,15.6 L255.6,15.6 C250.9,15.6 246.9,13.6 247,9.2 C247.1,2.1 253.7,0.9 259.5,1.1 C265.2,1.3 271.3,2.9 276.9,2.7 C282.2,2.5 287.5,1.2 292.8,1.4 C299.6,1.8 302.1,4.4 302,8.4" id="Shape" fill="#FFFFFF"></path>
                <path d="M406.8,78.8 C409.4,78.8 411.8,79.7 413.8,81.6 C415.9,83.6 417,86 417,88.8 C417,92.2 415.8,94.8 413.4,96.6 C411.5,98 409.4,98.7 407.1,98.7 L406.6,98.7 C404.2,98.7 402,97.7 400,95.7 C398,93.7 397,91.5 397,88.9 L397,88.5 C397,85.7 397.9,83.4 399.8,81.6 C401.8,79.8 404.1,78.8 406.8,78.8 L406.8,78.8 L406.8,78.8 Z M407.7,88.2 C408.5,88.2 409.2,88 409.6,87.6 C410.1,87.2 410.3,86.7 410.3,86.2 C410.3,85.7 410.1,85.2 409.7,84.8 C409.3,84.4 408.7,84.2 408,84.2 L404.3,84.2 L404.3,88.2 L407.7,88.2 L407.7,88.2 L407.7,88.2 Z M407,80.3 C405.1,80.3 403.3,81 401.6,82.3 C399.5,84 398.4,86.2 398.4,89 C398.4,91.2 399.3,93.1 401,94.9 C402.7,96.7 404.6,97.6 406.8,97.6 L407.2,97.6 C409.3,97.6 411.3,96.7 413,95 C414.7,93.3 415.6,91.2 415.6,88.9 C415.6,86.6 414.7,84.6 413,82.9 C411.3,81.1 409.3,80.3 407,80.3 L407,80.3 L407,80.3 Z M402.9,83.1 L408.2,83.1 C409.4,83.1 410.3,83.4 411,84.1 C411.6,84.7 411.9,85.4 411.9,86.3 C411.9,87.1 411.6,87.8 411,88.4 C410.4,89 409.6,89.3 408.5,89.3 L408.1,89.3 L411.4,94.5 L409.7,94.5 L406.5,89.6 L404.2,89.6 L404.2,94.5 L402.8,94.5 L402.8,83.1 L402.9,83.1 L402.9,83.1 Z" id="Shape" fill="#FFFFFF"></path>
            </g>
        </g>
    </g>
</svg>