<?xml version="1.0" encoding="UTF-8" standalone="no"?>
<svg width="1106px" height="142px" viewBox="0 0 1106 142" version="1.1" xmlns="http://www.w3.org/2000/svg" xmlns:xlink="http://www.w3.org/1999/xlink" xmlns:sketch="http://www.bohemiancoding.com/sketch/ns">
    <!-- Generator: Sketch 3.5.1 (25234) - http://www.bohemiancoding.com/sketch -->
    <title>mindy-lockup</title>
    <desc>Created with Sketch.</desc>
    <defs></defs>
    <g id="Page-1" stroke="none" stroke-width="1" fill="none" fill-rule="evenodd" sketch:type="MSPage">
        <g id="mindy-lockup" sketch:type="MSLayerGroup" fill="#FFFFFF">
            <g id="mindy-lockup-logo" transform="translate(0.000000, 17.000000)" sketch:type="MSShapeGroup">
                <path d="M272.8,28.6 L251.1,28.6 L251.1,64.9 C251.1,66.6 250.5,68 249.4,69.1 C248.4,70.1 247,70.6 245.3,70.8 L232.6,70.8 C230.8,70.7 229.5,70.2 228.4,69.1 C227.4,68 226.7,66.6 226.7,64.9 L226.7,28.6 L205,28.6 L205,66.7 C205.1,71.8 206,76.1 208.1,79.7 C210.2,83.2 213,85.9 216.7,87.7 C220.5,89.5 224.7,90.5 229.7,90.5 L250.9,90.5 L250.9,90.2 C255.4,90.2 259.3,89.2 262.6,87.3 C265.7,85.3 268.2,82.5 269.9,79 C271.7,75.5 272.6,71.3 272.6,66.8 L272.6,28.6 L272.8,28.6 L272.8,28.6 Z M55.5,30.9 C51.7,29.2 47.5,28.5 43,28.6 L28.9,28.6 L23.4,29.2 C22.1,29.6 21.6,29.8 21.6,29.8 L21.6,0.6 L0,0.6 L0,90.5 L21.6,90.5 L21.6,54.1 C21.7,52.6 22.2,51 23.4,50 C24.5,49 25.8,48.3 27.6,48.3 L40.3,48.3 C41.8,48.3 43.2,48.9 44.4,50 C45.5,51 46.1,52.5 46.2,54.1 L46.2,90.4 L67.8,90.4 L67.8,51.4 C67.8,45.9 66.7,41.5 64.5,38.2 C62.1,34.8 59.1,32.4 55.5,30.9 L55.5,30.9 L55.5,30.9 Z M128.9,64.9 C128.8,66.6 128.3,68 127.2,69.1 C126.1,70.1 124.7,70.6 123,70.8 L110.4,70.8 C108.7,70.7 107.3,70.2 106.3,69.1 C105.2,68 104.6,66.6 104.5,64.9 L104.5,28.6 L83.1,28.6 L83.1,66.7 C83.1,71.8 84.1,76.1 86.2,79.7 C88.2,83.2 91.1,85.9 94.8,87.7 C98.6,89.5 102.8,90.5 107.8,90.5 L129,90.5 L129,90.2 C133.5,90.2 137.4,89.2 140.7,87.3 C143.8,85.3 146.3,82.5 148.2,79 C149.9,75.5 150.7,71.3 150.9,66.8 L150.9,28.7 L129,28.7 L128.9,64.9 L128.9,64.9 L128.9,64.9 L128.9,64.9 Z M167.1,90.5 L188.7,90.5 L188.7,0.6 L167.1,0.6 L167.1,90.5 L167.1,90.5 L167.1,90.5 Z" id="logo"></path>
            </g>
            <g id="mindy-lockup-project" transform="translate(322.000000, 12.000000)" sketch:type="MSShapeGroup">
                <path d="M78.7,96.5 L78.7,62.7 C78.7,54.2 75.8,49.2 69.1,49.2 C63.1,49.2 58.6,53 58.6,65.1 L58.6,96.6 L39.4,96.6 L39.4,62.6 C39.4,54.1 36.7,49.2 30,49.2 C23.9,49.2 19.2,53.1 19.2,65.4 L19.2,96.5 L0,96.5 L0,33.8 L19.2,33.8 L19.2,42.9 C21.9,37 28.6,32.2 37.3,32.2 C48.2,32.2 53.7,37.1 56.3,43.5 C59.5,37 66.7,32.2 75.9,32.2 C94.1,32.2 97.9,44.6 97.9,57.8 L97.9,96.4 L78.7,96.4 L78.7,96.5 L78.7,96.5 Z" id="Shape"></path>
                <path d="M117.4,0.4 C124.7,0.4 130.3,6 130.3,13 C130.3,19.9 124.7,25.6 117.4,25.6 C110.2,25.6 104.7,19.9 104.7,13 C104.7,6 110.3,0.4 117.4,0.4 L117.4,0.4 L117.4,0.4 Z M107.5,33.8 L127.4,33.8 L127.4,96.5 L107.5,96.5 L107.5,33.8 L107.5,33.8 L107.5,33.8 Z" id="Shape"></path>
                <path d="M137.8,33.8 L157.7,33.8 L157.7,42.9 C161.2,36.1 168.5,32.2 178.2,32.2 C186.3,32.2 192.4,34.9 195.8,39.4 C199.7,44.2 200.7,50.3 200.7,59.3 L200.7,96.5 L180.8,96.5 L180.8,64.4 C180.8,55.4 178.1,49.2 169.7,49.2 C161.6,49.2 157.6,55.4 157.6,65.1 L157.6,96.6 L137.7,96.6 L137.7,33.8 L137.8,33.8 L137.8,33.8 Z" id="Shape"></path>
                <path d="M256,87.7 C253,93.4 244.9,98.1 236.9,98.1 C218.8,98.1 206.3,83.9 206.3,65.2 C206.3,46.5 218.8,32.3 236.9,32.3 C245,32.3 253,37.1 256,42.8 L256,5.5 L275.9,5.5 L275.9,96.5 L256,96.5 L256,87.7 L256,87.7 L256,87.7 Z M256,65.2 C256,56.6 250,49.2 241,49.2 C232,49.2 226,56.6 226,65.2 C226,73.9 232,81.2 241,81.2 C250,81.2 256,73.9 256,65.2 L256,65.2 L256,65.2 Z" id="Shape"></path>
                <path d="M294.1,120 C289.2,115.8 285.5,109.7 285.5,101.3 L305.4,101.3 C305.8,108.3 310.9,112.2 317.5,112.2 C325.2,112.2 329.7,109.1 329.7,99.3 L329.7,86.4 C326.2,93.2 319.2,96.9 309.7,96.9 C301.4,96.9 295,93.8 291.6,89.4 C287.7,84.6 286.8,79 286.8,70 L286.8,33.8 L306.6,33.8 L306.6,65.9 C306.6,74.9 309.3,81.1 317.6,81.1 C325.8,81.1 329.7,74.9 329.7,65.2 L329.7,33.8 L349.6,33.8 L349.6,98 C349.6,107.8 346.2,115.3 340.9,119.7 C335.3,124.4 328.2,126.5 317.2,126.5 C307.1,126.5 299.7,124.6 294.1,120 L294.1,120 L294.1,120 Z" id="Shape"></path>
                <path d="M404.7,42.8 C407.7,37.1 415.8,32.3 423.9,32.3 C442,32.3 454.5,46.5 454.5,65.2 C454.5,83.9 442,98.1 423.9,98.1 C415.7,98.1 407.6,93.3 404.7,87.6 L404.7,124.9 L384.8,124.9 L384.8,33.9 L404.7,33.9 L404.7,42.8 L404.7,42.8 L404.7,42.8 Z M404.7,65.2 C404.7,73.9 410.7,81.2 419.8,81.2 C428.6,81.2 434.6,73.9 434.6,65.2 C434.6,56.5 428.6,49.2 419.8,49.2 C410.7,49.2 404.7,56.5 404.7,65.2 L404.7,65.2 L404.7,65.2 Z" id="Shape"></path>
                <path d="M506.1,51.9 C503.4,51.3 501.8,51 499.1,51 C488.2,51 481,56.7 481,72.1 L481,96.5 L461.1,96.5 L461.1,33.8 L481,33.8 L481,44 C483.9,38.2 491.4,32.8 500.1,32.8 C502.6,32.8 504.3,33.1 506.1,33.8 L506.1,51.9 L506.1,51.9 L506.1,51.9 Z" id="Shape"></path>
                <path d="M501.6,65.2 C501.6,47.3 514.7,32.2 536.3,32.2 C558.1,32.2 571.1,47.3 571.1,65.2 C571.1,83.1 558.1,98.2 536.3,98.2 C514.7,98.2 501.6,83.1 501.6,65.2 L501.6,65.2 L501.6,65.2 Z M551.4,65.2 C551.4,56.5 545.4,49.2 536.3,49.2 C527.3,49.2 521.5,56.5 521.5,65.2 C521.5,74 527.4,81.2 536.3,81.2 C545.4,81.2 551.4,74 551.4,65.2 L551.4,65.2 L551.4,65.2 Z" id="Shape"></path>
                <path d="M597.1,106.2 C597.1,122.6 589,126.4 579.4,126.4 C574.7,126.4 569.3,125.6 566.9,124.8 L566.9,109.6 C569.2,110 570.4,110 572,110 C575.5,110 577.2,107.8 577.2,103.6 L577.2,33.8 L597.1,33.8 L597.1,106.2 L597.1,106.2 L597.1,106.2 Z M587.1,0.4 C594.4,0.4 600,6 600,13 C600,19.9 594.4,25.6 587.1,25.6 C579.9,25.6 574.4,19.9 574.4,13 C574.4,6 580,0.4 587.1,0.4 L587.1,0.4 L587.1,0.4 Z" id="Shape"></path>
                <path d="M622.9,70 C623.3,77.5 626.4,83.9 636.8,83.9 C643.7,83.9 647.1,80.8 648.4,76.7 L667.9,76.7 C666.1,88.5 654.9,98.2 637,98.2 C615,98.2 603.2,84.5 603.2,65.2 C603.2,46.9 614.8,32.2 636.5,32.2 C656.1,32.2 668.7,45.5 668.7,60.8 C668.7,63.4 668.7,66.3 668.1,70 L622.9,70 L622.9,70 L622.9,70 Z M622.9,58.5 L649.2,58.5 C649.2,50.4 643.9,45.4 636.3,45.4 C628.5,45.4 622.9,50.1 622.9,58.5 L622.9,58.5 L622.9,58.5 Z" id="Shape"></path>
                <path d="M717.6,58.4 C716.8,52.8 713.3,49 705.3,49 C695.8,49 691.4,56.5 691.4,65.1 C691.4,73.8 695.7,81.2 706.1,81.2 C713,81.2 716.1,78.2 717.8,72.9 L737.7,72.9 C735.7,87.1 725.1,98.1 705.2,98.1 C683.2,98.1 671.5,82.5 671.5,65.1 C671.5,47.8 683.2,32.1 705.2,32.1 C726.4,32.1 736.3,44.8 737.6,58.4 L717.6,58.4 L717.6,58.4 L717.6,58.4 Z" id="Shape"></path>
                <path d="M783,96.5 C780,97 775.6,97.5 769.7,97.5 C760.3,97.5 747.5,96.3 747.5,75.4 L747.5,48.7 L737.6,48.7 L737.6,33.8 L747.5,33.8 L747.5,15.2 L767.3,15.2 L767.3,33.8 L781.6,33.8 L781.6,48.6 L767.3,48.6 L767.3,71 C767.3,80.2 770.9,81.7 775.9,81.7 C778.4,81.7 781.2,81.6 783.1,81.3 L783.1,96.5 L783,96.5 L783,96.5 Z" id="Shape"></path>
            </g>
            <rect id="separator" sketch:type="MSShapeGroup" x="296.5" y="0.9" width="4" height="141"></rect>
        </g>
    </g>
</svg>