<svg width="650px" height="170px" viewBox="0 0 650 170" version="1.1" xmlns="http://www.w3.org/2000/svg" xmlns:xlink="http://www.w3.org/1999/xlink">
    <!-- Generator: Sketch 46.2 (44496) - http://www.bohemiancoding.com/sketch -->
    <desc>Created with Sketch.</desc>
    <defs></defs>
    <g id="Page-1" stroke="none" stroke-width="1" fill="none" fill-rule="evenodd">
        <g id="nickjr-brand-lockup" fill-rule="nonzero" fill="#FFFFFF">
            <g id="divider" transform="translate(358.000000, 0.000000)">
                <rect id="Rectangle-path" x="0.3" y="0" width="5" height="169.1"></rect>
            </g>
            <g id="nickjr-brand-lockup-logo" transform="translate(0.000000, 34.000000)">
                <path d="M28.5,28.2 C20.7,28.2 13.5,31.3 8.3,36.5 C3.1,41.7 0,48.9 0,56.7 L0,82.8 L21.6,82.8 L21.6,71.3 L21.6,57.1 C21.6,54 22.3,51.4 23.6,49.3 C24.9,47.3 26.6,46 28.4,46 C30.2,46 31.9,47.3 33.2,49.3 C34.5,51.3 35.2,54.1 35.2,57.1 L35.2,82.8 L57,82.8 L57,56.7 C57,48.9 53.9,41.7 48.7,36.5 C43.7,31.4 36.4,28.2 28.5,28.2" id="_x33_41"></path>
                <path d="M80.5,21.2 C82.7,19 84,16 84,12.7 C84,9.4 82.7,6.4 80.5,4.2 C78.3,2 75.3,0.7 72,0.7 C68.7,0.7 65.7,2 63.5,4.2 C61.3,6.4 60,9.4 60,12.7 C60,16 61.3,19 63.5,21.2 L66.1,23.8 C70.5,28.2 70.9,29.3 66.7,33.6 L64.2,36 C62.2,38 61.1,40.8 61.1,43.8 L61.1,82.8 L82.9,82.8 L82.9,43.9 C82.9,40.9 81.6,38.2 79.8,36.1 L77.4,33.7 C73.1,29.4 73.5,28.3 78,23.9 L80.5,21.2 Z" id="_x33_43"></path>
                <path d="M119.1,65.9 C117.8,68.3 116.1,69.6 114.3,69.6 C112.5,69.6 110.8,68.1 109.5,65.9 C108.2,63.5 107.5,60.4 107.5,56.8 C107.5,53.3 108.2,50.1 109.5,47.7 C110.8,45.3 112.5,44 114.3,44 C116.1,44 117.8,45.5 119.1,47.7 C120,49.5 120.8,51.6 120.9,54.2 L142.5,54.2 C141.9,47.4 138.8,41.3 134.4,36.6 C129.2,31.4 122,28.3 114.2,28.3 C106.4,28.3 99.2,31.4 94,36.6 C88.8,41.8 85.7,49 85.7,56.8 C85.7,64.6 88.8,71.8 94,77 C97.9,80.9 104.9,85.3 114.2,85.3 C121.2,85.3 127.7,82.7 132.7,78.5 C136.4,75.4 141.8,69.3 142.7,59.4 L121,59.4 C120.8,61.9 120.1,64.1 119.1,65.9" id="_x33_45"></path>
                <path d="M200.2,79.1 C200.2,78.4 200,77.6 199.6,77.1 L187.8,59.2 L195.9,44.2 C198.9,39 197.2,32.4 192,29.4 C186.8,26.4 180.2,28.1 177.2,33.3 L167.4,50.9 L167.4,39.1 C167.4,33.2 162.6,28.2 156.5,28.2 C150.6,28.2 145.6,33 145.6,39.1 L145.6,83 L167.2,83 L167.2,65.8 L178.7,83 L196.3,83 L196.3,83 C198.3,82.8 200.2,81.1 200.2,79.1" id="_x33_47"></path>
                <path d="M245.7,63.2 C245.7,76.3 239.2,84.8 223.9,84.8 L223.3,84.8 C217.9,84.8 212.2,83.3 208.7,81.1 C202.6,77.2 198.5,70.7 202.6,63.9 C206.3,57.6 219.4,56.3 221.5,67.4 C222.2,71.3 224.3,70.7 224.3,67.2 L224.3,41 C224.3,33.2 229.1,28.2 235.2,28.2 C241.1,28.2 246.1,33 246.1,39.1 L245.7,63.2 Z M234.8,24.9 C240.7,24.9 245.5,20.1 245.5,14.2 C245.5,8.3 240.7,3.5 234.8,3.5 C228.9,3.5 224.1,8.3 224.1,14.2 C224.1,20.1 228.8,24.9 234.8,24.9 L234.8,24.9 Z" id="_x33_49"></path>
                <path d="M272.5,53.7 C272.5,51.7 273.8,48 276.2,47 C278.6,46.1 281,47.2 283.6,48.1 C292.7,51.6 299.5,47 300.6,41.1 C301.7,35.2 297.8,29.6 291.9,28.5 C284.7,27.2 279.7,29.4 273.8,34 L273.8,34 C273.4,34.4 272.3,35.3 272,35.7 C270.5,31.3 266.5,28.1 261.6,28.1 C255.7,28.1 250.7,32.9 250.7,38.8 L250.7,82.6 L272.3,82.6 L272.3,53.6 L272.5,53.6 L272.5,53.7 Z" id="_x33_51"></path>
                <path d="M291,83.3 C296.9,83.3 301.7,78.5 301.7,72.6 C301.7,66.7 296.9,61.9 291,61.9 C285.1,61.9 280.3,66.7 280.3,72.6 C280.3,78.5 285.1,83.3 291,83.3" id="_x33_53"></path>
            </g>
            <g id="nickjr-brand-lockup-project" transform="translate(407.000000, 54.000000)">
                <path d="M14.5,63.9 L0.7,63.9 L0.7,0.9 L14.5,0.9 L14.5,26.7 C16.6,22.7 22.1,19.4 27.8,19.4 C40.3,19.4 48.9,29.2 48.9,42.2 C48.9,55.2 40.3,65 27.8,65 C22.1,65 16.6,61.8 14.5,57.8 L14.5,63.9 Z M35.2,42.2 C35.2,36.3 31.1,31.1 24.9,31.1 C18.6,31.1 14.5,36.2 14.5,42.2 C14.5,48.2 18.6,53.3 24.9,53.3 C31,53.3 35.2,48.3 35.2,42.2 Z" id="Shape"></path>
                <path d="M86.9,33.1 C85,32.6 83.9,32.5 82,32.5 C74.4,32.5 69.5,36.5 69.5,47.1 L69.5,64 L55.7,64 L55.7,20.6 L69.5,20.6 L69.5,27.6 C71.5,23.6 76.7,19.9 82.7,19.9 C84.4,19.9 85.6,20.1 86.8,20.6 L86.8,33.1 L86.9,33.1 Z" id="Shape"></path>
                <path d="M135.3,20.6 L135.3,64 L121.5,64 L121.5,57.9 C119.4,61.9 113.9,65.1 108.3,65.1 C95.8,65.1 87.2,55.3 87.2,42.3 C87.2,29.3 95.8,19.5 108.3,19.5 C113.9,19.5 119.5,22.8 121.5,26.8 L121.5,20.6 L135.3,20.6 L135.3,20.6 Z M121.6,42.2 C121.6,36.3 117.5,31.1 111.3,31.1 C105.1,31.1 101,36.2 101,42.2 C101,48.2 105.1,53.3 111.3,53.3 C117.5,53.3 121.6,48.3 121.6,42.2 Z" id="Shape"></path>
                <path d="M144.8,20.6 L158.6,20.6 L158.6,26.9 C161,22.2 166.1,19.5 172.8,19.5 C178.4,19.5 182.6,21.4 184.9,24.4 C187.6,27.7 188.3,32 188.3,38.2 L188.3,63.9 L174.5,63.9 L174.5,41.7 C174.5,35.5 172.6,31.2 166.9,31.2 C161.3,31.2 158.5,35.5 158.5,42.2 L158.5,64 L144.7,64 L144.7,20.6 L144.8,20.6 Z" id="Shape"></path>
                <path d="M228.8,57.8 C226.7,61.8 221.2,65 215.6,65 C203.1,65 194.5,55.2 194.5,42.2 C194.5,29.2 203.1,19.4 215.6,19.4 C221.2,19.4 226.8,22.7 228.8,26.7 L228.8,0.9 L242.6,0.9 L242.6,63.9 L228.8,63.9 L228.8,57.8 Z M228.8,42.2 C228.8,36.3 224.7,31.1 218.5,31.1 C212.3,31.1 208.2,36.2 208.2,42.2 C208.2,48.2 212.3,53.3 218.5,53.3 C224.7,53.3 228.8,48.3 228.8,42.2 Z" id="Shape"></path>
            </g>
        </g>
    </g>
</svg>
