<svg width="1128px" height="176px" viewBox="0 0 1128 176" version="1.1" xmlns="http://www.w3.org/2000/svg" xmlns:xlink="http://www.w3.org/1999/xlink">
    <g id="Page-1" stroke="none" stroke-width="1" fill="none" fill-rule="evenodd">
        <g fill-rule="nonzero" fill="#FFFFFF">
            <g id="divider" transform="translate(307.000000, 0.000000)">
                <rect id="Rectangle-path" x="0.3" y="0" width="5" height="169.1"></rect>
            </g>
            <g id="nightof-lockup-logo" transform="translate(0.000000, 27.000000)">
                <polygon id="Shape" points="50.6 43.8 30.9 43.8 30.9 1.6 0 1.6 0 113.5 30.9 113.5 30.9 72.1 50.6 72.1 50.6 113.5 81.5 113.5 81.5 1.6 50.6 1.6"></polygon>
                <path d="M220.2,0.4 C197.1,0.4 177.2,14.2 168.2,33.9 C168.3,32.7 168.3,31.5 168.3,30.2 C168.3,6.3 144,1.6 135.4,1.6 L88.1,1.6 L88.1,113.5 L137.4,113.5 C137.4,113.5 167,114.8 167,80.6 C167,79.8 167,78.9 166.9,78.2 C175.2,99.6 196,114.8 220.2,114.8 C251.7,114.8 277.4,89.2 277.4,57.6 C277.3,26 251.7,0.4 220.2,0.4 Z M132.1,87.2 L115.7,87.2 L115.7,70.1 L132.1,70.1 C132.1,70.1 138.7,70.1 138.7,78 C138.7,86.6 132.1,87.2 132.1,87.2 Z M132.1,45.8 L115.7,45.8 L115.7,28.9 L132.1,28.9 C132.1,28.9 138.7,28.8 138.7,36.9 C138.7,45 132.1,45.8 132.1,45.8 Z M151.8,56.5 C155.8,55.8 160.3,53.7 163.6,48.8 C163.2,51.6 162.9,54.6 162.9,57.5 C162.9,60.6 163.2,63.6 163.6,66.6 C158.2,56.9 147.9,57.3 151.8,56.5 Z M220.2,85.8 C204.6,85.8 191.9,73.1 191.9,57.5 C191.9,41.9 204.6,29.2 220.2,29.2 C235.8,29.2 248.5,41.9 248.5,57.5 C248.5,73.1 235.7,85.8 220.2,85.8 Z" id="Shape"></path>
                <circle id="Oval" cx="220.2" cy="57.6" r="23"></circle>
            </g>
            <g id="nightof-lockup-project" transform="translate(346.000000, 20.000000)">
                <path d="M56.2,118.4 C52.5,119 47.1,119.7 39.9,119.7 C28.4,119.7 12.5,118.3 12.5,92.5 L12.5,59.5 L0.3,59.5 L0.3,41.3 L12.5,41.3 L12.5,18.4 L36.8,18.4 L36.8,41.3 L54.4,41.3 L54.4,59.5 L36.8,59.5 L36.8,87 C36.8,98.4 41.3,100.1 47.4,100.1 C50.4,100.1 54,99.9 56.2,99.6 L56.2,118.4 L56.2,118.4 Z" id="Shape"></path>
                <path d="M60.5,6.4 L84.2,6.4 L84.2,52.5 C88.5,44.5 97.3,39.4 109.2,39.4 C119.1,39.4 126,42.8 130.2,48.2 C135,54.1 136.4,61.8 136.4,72.8 L136.4,118.4 L112.7,118.4 L112.7,78.9 C112.7,67.9 109.3,60.2 99.1,60.2 C89.2,60.2 84.2,67.9 84.2,79.7 L84.2,118.4 L60.5,118.4 L60.5,6.4 Z" id="Shape"></path>
                <path d="M166.6,85.7 C167.1,95 170.9,102.8 183.7,102.8 C192.2,102.8 196.3,99 197.9,94 L221.9,94 C219.7,108.6 205.9,120.4 183.8,120.4 C156.8,120.4 142.2,103.6 142.2,79.8 C142.2,57.2 156.4,39.2 183.2,39.2 C207.4,39.2 222.9,55.5 222.9,74.4 C222.9,77.6 222.9,81.1 222.1,85.8 L166.6,85.8 L166.6,85.7 Z M166.6,71.7 L198.9,71.7 C198.9,61.8 192.3,55.5 183.1,55.5 C173.5,55.5 166.6,61.3 166.6,71.7 Z" id="Shape"></path>
                <path d="M260.9,41.3 L285.4,41.3 L285.4,52.5 C289.7,44.2 298.7,39.4 310.7,39.4 C320.6,39.4 328.1,42.8 332.3,48.2 C337.1,54.1 338.4,61.6 338.4,72.7 L338.4,118.5 L313.9,118.5 L313.9,78.9 C313.9,67.9 310.5,60.2 300.3,60.2 C290.4,60.2 285.4,67.9 285.4,79.7 L285.4,118.4 L260.9,118.4 L260.9,41.3 Z" id="Shape"></path>
                <path d="M361.3,0.1 C370.3,0.1 377.1,7 377.1,15.6 C377.1,24.1 370.2,31.1 361.3,31.1 C352.5,31.1 345.6,24.1 345.6,15.6 C345.7,7 352.5,0.1 361.3,0.1 Z M349.2,41.3 L373.7,41.3 L373.7,118.4 L349.2,118.4 L349.2,41.3 Z" id="Shape"></path>
                <path d="M466.6,117.9 C466.6,131.8 462.4,140.9 454.4,147 C447.2,152.4 437.4,155.3 423.2,155.3 C408.8,155.3 399.4,151.8 393,146.3 C386.3,140.5 382.1,132.7 381.8,124.2 L406.3,124.2 C406.9,130.8 412.7,137.2 423.3,137.2 C434.8,137.2 442.2,131.8 442.2,119.8 L442.2,106.8 C438,113.8 428.6,118.8 418.7,118.8 C396.5,118.8 380.9,102.6 380.9,79.8 C380.9,56.8 395.8,39.3 418.3,39.3 C428.1,39.3 437.8,44.1 442.1,52.3 L442.1,41.3 L466.6,41.3 L466.6,117.9 L466.6,117.9 Z M405.3,79.8 C405.3,90.5 412.7,99.5 423.5,99.5 C434.7,99.5 442.1,90.5 442.1,79.8 C442.1,69.2 434.7,60.1 423.5,60.1 C412.7,60.1 405.3,69.3 405.3,79.8 Z" id="Shape"></path>
                <path d="M478.1,6.4 L501.8,6.4 L501.8,52.5 C506.1,44.5 514.9,39.4 526.8,39.4 C536.7,39.4 543.6,42.8 547.8,48.2 C552.6,54.1 554,61.8 554,72.8 L554,118.4 L530.3,118.4 L530.3,78.9 C530.3,67.9 526.9,60.2 516.7,60.2 C506.8,60.2 501.8,67.9 501.8,79.7 L501.8,118.4 L478.1,118.4 L478.1,6.4 Z" id="Shape"></path>
                <path d="M613,118.4 C609.3,119 603.9,119.7 596.7,119.7 C585.2,119.7 569.3,118.3 569.3,92.5 L569.3,59.5 L557.1,59.5 L557.1,41.3 L569.3,41.3 L569.3,18.4 L593.6,18.4 L593.6,41.3 L611.2,41.3 L611.2,59.5 L593.6,59.5 L593.6,87 C593.6,98.4 598.1,100.1 604.2,100.1 C607.2,100.1 610.8,99.9 613,99.6 L613,118.4 Z" id="Shape"></path>
                <path d="M642.1,79.8 C642.1,57.7 658.3,39.2 684.8,39.2 C711.7,39.2 727.7,57.8 727.7,79.8 C727.7,101.8 711.7,120.4 684.8,120.4 C658.3,120.5 642.1,101.9 642.1,79.8 Z M703.4,79.8 C703.4,69.1 696,60.1 684.8,60.1 C673.8,60.1 666.6,69.1 666.6,79.8 C666.6,90.7 673.8,99.5 684.8,99.5 C696.1,99.5 703.4,90.7 703.4,79.8 Z" id="Shape"></path>
                <path d="M781.3,24.3 C778.7,23.7 776.7,23.3 773.8,23.3 C768.4,23.3 763.2,24.1 763.2,33.1 L763.2,41.3 L781.3,41.3 L781.3,59.5 L763.4,59.5 L763.4,118.4 L738.9,118.4 L738.9,59.5 L725,59.5 L725,41.3 L738.9,41.3 L738.9,34.6 C738.9,6.6 755.9,4.7 768,4.7 C773.8,4.7 778.4,5.7 781.3,6.8 L781.3,24.3 Z" id="Shape"></path>
            </g>
        </g>
    </g>
</svg>
