<?xml version="1.0" encoding="utf-8"?>
<!-- Generator: Adobe Illustrator 20.1.0, SVG Export Plug-In . SVG Version: 6.00 Build 0)  -->
<svg version="1.1" id="nightof-lockup" xmlns="http://www.w3.org/2000/svg" xmlns:xlink="http://www.w3.org/1999/xlink" x="0px"
	 y="0px" viewBox="0 0 1127.3 175.3" style="enable-background:new 0 0 1127.3 175.3;" xml:space="preserve">
<style type="text/css">
	.st0{fill:#FFFFFF;}
</style>
<g id="divider">
	<g>
		<rect x="307.3" class="st0" width="5" height="169.1"/>
	</g>
</g>
<g id="nightof-lockup-logo">
	<polygon class="st0" points="50.6,70.8 30.9,70.8 30.9,28.6 0,28.6 0,140.5 30.9,140.5 30.9,99.1 50.6,99.1 50.6,140.5 81.5,140.5 
		81.5,28.6 50.6,28.6 	"/>
	<path class="st0" d="M220.2,27.4c-23.1,0-43,13.8-52,33.5c0.1-1.2,0.1-2.4,0.1-3.7c0-23.9-24.3-28.6-32.9-28.6H88.1v111.9h49.3
		c0,0,29.6,1.3,29.6-32.9c0-0.8,0-1.7-0.1-2.4c8.3,21.4,29.1,36.6,53.3,36.6c31.5,0,57.2-25.6,57.2-57.2
		C277.3,53,251.7,27.4,220.2,27.4z M132.1,114.2h-16.4V97.1h16.4c0,0,6.6,0,6.6,7.9C138.7,113.6,132.1,114.2,132.1,114.2z
		 M132.1,72.8h-16.4V55.9h16.4c0,0,6.6-0.1,6.6,8C138.7,72,132.1,72.8,132.1,72.8z M151.8,83.5c4-0.7,8.5-2.8,11.8-7.7
		c-0.4,2.8-0.7,5.8-0.7,8.7c0,3.1,0.3,6.1,0.7,9.1C158.2,83.9,147.9,84.3,151.8,83.5z M220.2,112.8c-15.6,0-28.3-12.7-28.3-28.3
		s12.7-28.3,28.3-28.3s28.3,12.7,28.3,28.3S235.7,112.8,220.2,112.8z"/>
	<g>
		<g>
			<circle class="st0" cx="220.2" cy="84.6" r="23"/>
		</g>
	</g>
</g>
<g>
	<path class="st0" d="M402.2,138.4c-3.7,0.6-9.1,1.3-16.3,1.3c-11.5,0-27.4-1.4-27.4-27.2v-33h-12.2V61.3h12.2V38.4h24.3v22.9h17.6
		v18.2h-17.6V107c0,11.4,4.5,13.1,10.6,13.1c3,0,6.6-0.2,8.8-0.5V138.4z"/>
	<path class="st0" d="M406.5,26.4h23.7v46.1c4.3-8,13.1-13.1,25-13.1c9.9,0,16.8,3.4,21,8.8c4.8,5.9,6.2,13.6,6.2,24.6v45.6h-23.7
		V98.9c0-11-3.4-18.7-13.6-18.7c-9.9,0-14.9,7.7-14.9,19.5v38.7h-23.7V26.4z"/>
	<path class="st0" d="M512.6,105.7c0.5,9.3,4.3,17.1,17.1,17.1c8.5,0,12.6-3.8,14.2-8.8h24c-2.2,14.6-16,26.4-38.1,26.4
		c-27,0-41.6-16.8-41.6-40.6c0-22.6,14.2-40.6,41-40.6c24.2,0,39.7,16.3,39.7,35.2c0,3.2,0,6.7-0.8,11.4H512.6z M512.6,91.7h32.3
		c0-9.9-6.6-16.2-15.8-16.2C519.5,75.5,512.6,81.3,512.6,91.7z"/>
	<path class="st0" d="M606.9,61.3h24.5v11.2c4.3-8.3,13.3-13.1,25.3-13.1c9.9,0,17.4,3.4,21.6,8.8c4.8,5.9,6.1,13.4,6.1,24.5v45.8
		h-24.5V98.9c0-11-3.4-18.7-13.6-18.7c-9.9,0-14.9,7.7-14.9,19.5v38.7h-24.5V61.3z"/>
	<path class="st0" d="M707.3,20.1c9,0,15.8,6.9,15.8,15.5c0,8.5-6.9,15.5-15.8,15.5c-8.8,0-15.7-7-15.7-15.5
		C691.7,27,698.5,20.1,707.3,20.1z M695.2,61.3h24.5v77.1h-24.5V61.3z"/>
	<path class="st0" d="M812.6,137.9c0,13.9-4.2,23-12.2,29.1c-7.2,5.4-17,8.3-31.2,8.3c-14.4,0-23.8-3.5-30.2-9
		c-6.7-5.8-10.9-13.6-11.2-22.1h24.5c0.6,6.6,6.4,13,17,13c11.5,0,18.9-5.4,18.9-17.4v-13c-4.2,7-13.6,12-23.5,12
		c-22.2,0-37.8-16.2-37.8-39c0-23,14.9-40.5,37.4-40.5c9.8,0,19.5,4.8,23.8,13v-11h24.5V137.9z M751.3,99.8
		c0,10.7,7.4,19.7,18.2,19.7c11.2,0,18.6-9,18.6-19.7c0-10.6-7.4-19.7-18.6-19.7C758.7,80.1,751.3,89.3,751.3,99.8z"/>
	<path class="st0" d="M824.1,26.4h23.7v46.1c4.3-8,13.1-13.1,25-13.1c9.9,0,16.8,3.4,21,8.8c4.8,5.9,6.2,13.6,6.2,24.6v45.6h-23.7
		V98.9c0-11-3.4-18.7-13.6-18.7c-9.9,0-14.9,7.7-14.9,19.5v38.7h-23.7V26.4z"/>
	<path class="st0" d="M959,138.4c-3.7,0.6-9.1,1.3-16.3,1.3c-11.5,0-27.4-1.4-27.4-27.2v-33h-12.2V61.3h12.2V38.4h24.3v22.9h17.6
		v18.2h-17.6V107c0,11.4,4.5,13.1,10.6,13.1c3,0,6.6-0.2,8.8-0.5V138.4z"/>
	<path class="st0" d="M988.1,99.8c0-22.1,16.2-40.6,42.7-40.6c26.9,0,42.9,18.6,42.9,40.6s-16,40.6-42.9,40.6
		C1004.3,140.5,988.1,121.9,988.1,99.8z M1049.4,99.8c0-10.7-7.4-19.7-18.6-19.7c-11,0-18.2,9-18.2,19.7c0,10.9,7.2,19.7,18.2,19.7
		C1042.1,119.5,1049.4,110.7,1049.4,99.8z"/>
	<path class="st0" d="M1127.3,44.3c-2.6-0.6-4.6-1-7.5-1c-5.4,0-10.6,0.8-10.6,9.8v8.2h18.1v18.2h-17.9v58.9h-24.5V79.5H1071V61.3
		h13.9v-6.7c0-28,17-29.9,29.1-29.9c5.8,0,10.4,1,13.3,2.1V44.3z"/>
</g>
</svg>
