<?xml version="1.0" encoding="utf-8"?>
<!-- Generator: Adobe Illustrator 20.1.0, SVG Export Plug-In . SVG Version: 6.00 Build 0)  -->
<svg version="1.1" id="profit-lockup" xmlns="http://www.w3.org/2000/svg" xmlns:xlink="http://www.w3.org/1999/xlink" x="0px"
	 y="0px" viewBox="0 0 884.5 167" style="enable-background:new 0 0 884.5 167;" xml:space="preserve">
<style type="text/css">
	.st0{fill:#FFFFFF;}
</style>
<g id="profit-lockup-project">
	<path class="st0" d="M289.7,125.8c-3.7,0.6-9.1,1.3-16.3,1.3c-11.5,0-27.4-1.4-27.4-27.2v-33h-12.2V48.7H246V25.8h24.3v22.9h17.6
		v18.2h-17.6v27.5c0,11.4,4.5,13.1,10.6,13.1c3,0,6.6-0.2,8.8-0.5L289.7,125.8L289.7,125.8z"/>
	<path class="st0" d="M294.8,13.8h23.7v46.1c4.3-8,13.1-13.1,25-13.1c9.9,0,16.8,3.4,21,8.8c4.8,5.9,6.2,13.6,6.2,24.6v45.6h-23.7
		V86.3c0-11-3.4-18.7-13.6-18.7c-9.9,0-14.9,7.7-14.9,19.5v38.7h-23.7L294.8,13.8L294.8,13.8z"/>
	<path class="st0" d="M401.7,93.2c0.5,9.3,4.3,17.1,17.1,17.1c8.5,0,12.6-3.8,14.2-8.8h24c-2.2,14.6-16,26.4-38.1,26.4
		c-27,0-41.6-16.8-41.6-40.6c0-22.6,14.2-40.6,41-40.6c24.2,0,39.7,16.3,39.7,35.2c0,3.2,0,6.7-0.8,11.4L401.7,93.2L401.7,93.2z
		 M401.7,79.1H434c0-9.9-6.6-16.2-15.8-16.2C408.5,62.9,401.7,68.7,401.7,79.1z"/>
	<path class="st0" d="M522,59.7c3.7-7,13.6-13,23.7-13c22.2,0,37.6,17.4,37.6,40.5c0,23-15.4,40.5-37.6,40.5c-10.1,0-20-5.9-23.7-13
		v45.9h-24.5v-112H522V59.7z M522,87.3c0,10.7,7.4,19.7,18.6,19.7c10.9,0,18.2-9,18.2-19.7c0-10.7-7.4-19.7-18.2-19.7
		C529.3,67.6,522,76.5,522,87.3z"/>
	<path class="st0" d="M646.8,70.9c-3.4-0.8-5.3-1.1-8.6-1.1c-13.4,0-22.2,7-22.2,25.9v30.1h-24.5V48.7h24.5v12.5
		c3.5-7.2,12.8-13.8,23.5-13.8c3,0,5.1,0.3,7.4,1.3V70.9z"/>
	<path class="st0" d="M641.2,87.3c0-22.1,16.2-40.6,42.7-40.6c26.9,0,42.9,18.6,42.9,40.6c0,22.1-16,40.6-42.9,40.6
		C657.3,127.9,641.2,109.3,641.2,87.3z M702.5,87.3c0-10.7-7.4-19.7-18.6-19.7c-11,0-18.2,9-18.2,19.7c0,10.9,7.2,19.7,18.2,19.7
		C695.1,106.9,702.5,98.1,702.5,87.3z"/>
	<path class="st0" d="M781,31.7c-2.6-0.6-4.6-1-7.5-1c-5.3,0-10.4,0.8-10.4,9.8v8.2H781v18.2h-17.9v58.9h-24.5V66.9h-13.8V48.7h13.8
		V42c0-28,17-29.9,29.1-29.9c5.9,0,10.6,1,13.3,2.1V31.7z M808.4,8.1c8.6,0,15.4,6.7,15.4,15.2c0,8.3-6.7,15-15.4,15
		c-8.5,0-15.2-6.7-15.2-15C793.2,14.8,799.9,8.1,808.4,8.1z M796.2,48.7h24.5v77.1h-24.5V48.7z"/>
	<path class="st0" d="M884.5,125.8c-3.7,0.6-9.1,1.3-16.3,1.3c-11.5,0-27.4-1.4-27.4-27.2v-33h-12.2V48.7h12.2V25.8h24.3v22.9h17.6
		v18.2h-17.6v27.5c0,11.4,4.5,13.1,10.6,13.1c3,0,6.6-0.2,8.8-0.5L884.5,125.8L884.5,125.8z"/>
</g>
<g id="profit-lockup-logo">
	<g>
		<path class="st0" d="M26.3,126.9c-0.5-2.7-2.7-3.4-5.2-3.7c-7.9-0.7-9.4,5.3-9.4,7.8c0,4.3,1.2,7.9,9.1,7.9c1.4,0,5.4-1.5,5.4-3.9
			h11.2c-0.5,7.2-12.5,8.9-17.7,8.9C8.9,144-0.4,142,0,131.2c0.3-7.7,7.5-13.1,21.9-12.8c8,0.2,15.7,2.7,15.7,8.5L26.3,126.9
			L26.3,126.9z"/>
	</g>
	<g>
		<path class="st0" d="M138.7,126.9c-0.6-2.7-2.8-3.4-5.2-3.7c-7.9-0.7-9.4,5.3-9.4,7.8c0,4.3,1.3,7.9,9,7.9c1.5,0,5.4-1.5,5.4-3.9
			h11.2c-0.5,7.2-12.5,8.9-17.7,8.9c-10.8,0-20.2-2-19.7-12.8c0.3-7.7,7.5-13.1,21.9-12.8c8,0.2,15.7,2.7,15.7,8.5L138.7,126.9
			L138.7,126.9z"/>
	</g>
	<g>
		<path class="st0" d="M39.6,118.9h14.6l12.4,17.6h0.1v-17.6H76v24.4h-14L49,125.8h-0.1v17.6h-9.3V118.9z"/>
	</g>
	<g>
		<path class="st0" d="M78.9,118.9h17.7c8.5,0,13.5,2.4,13.5,6c0,2.1-2.1,4.8-6.8,5.6v0.1c5.6,0.3,7.7,3.9,7.7,6.1
			c0,4.3-4.9,6.7-14.4,6.7H78.9V118.9z M89.2,128.4h2.9c4.5,0,6.9-0.3,6.9-2.3c0-2-2-2.7-6.1-2.7h-3.8
			C89.2,123.5,89.2,128.4,89.2,128.4z M89.2,138.3h2.9c5.5,0,7.5-0.6,7.5-2.5c0-2-2.5-2.7-6.6-2.7h-3.8V138.3z"/>
	</g>
	<g>
		<path class="st0" d="M105.6,32.1c-0.8-2.1-2.4-4-4.2-5.6c-4.4-3.8-11.6-4.6-16.7-1.6c-4.9,2.6-7.7,7.6-7.8,13l0.2,0.2l6.4,0.1
			c0.4,0.3,1.1,0.3,1.2,0.9c-2.6,2-7,3.8-6.5,8l6.8,43.5l0.2-0.2l18.9-42.9C106.6,43.1,108,36.8,105.6,32.1z"/>
	</g>
	<g>
		<path class="st0" d="M65,90.2l7.7-49.8c0.5-3.6-0.4-6.9-1.9-9.8c-1.7-2.8-4.3-5.1-7.2-6.3c-5.3-2.3-12-1.1-16.1,3
			c-4,4-5.7,9.9-3.9,15.5L63,86.3l2,4C65,90.3,65.1,90.3,65,90.2z"/>
	</g>
	<g>
		<path class="st0" d="M133.5,51.6c2.6,4.5,2,11.2-0.9,15.4c-1.8,2.9-4.8,4.4-7.2,6.3l-40,27.7h-0.1l0.5-1.3L107,51.3
			c3.2-5.7,9.2-8.6,15.6-7.7C127,44.4,131.4,47.3,133.5,51.6z"/>
	</g>
	<g>
		<path class="st0" d="M20,70l44.5,31h0.3l-22-49.7c-3.7-6.7-11.6-9.4-18.6-6.8c-4.3,1.6-7.9,5.7-9,10.1C13.6,60.4,15.5,66.1,20,70z
			"/>
	</g>
	<g>
		<path class="st0" d="M143.3,101.8c3.2-4,4.1-10.5,1.8-15.2c-1.5-3.2-4.5-6.5-7.8-7.8c-4.2-2-10.1-1.6-14,0.9l-39.7,27.9l47.4,0
			C136,107.8,140.2,105.7,143.3,101.8z"/>
	</g>
	<g>
		<path class="st0" d="M66.3,107.7L26.6,79.8c-3.9-2.5-9.8-3-14-0.9c-3.3,1.3-6.3,4.5-7.8,7.8c-2.2,4.7-1.3,11.2,1.8,15.2
			c3.1,3.8,7.3,6,12.3,5.8L66.3,107.7z"/>
	</g>
</g>
<g id="divider">
	<rect x="188.6" class="st0" width="4" height="167"/>
</g>
</svg>
