<?xml version="1.0" encoding="UTF-8" standalone="no"?>
<svg width="605px" height="170px" viewBox="0 0 605 170" version="1.1" xmlns="http://www.w3.org/2000/svg" xmlns:xlink="http://www.w3.org/1999/xlink" xmlns:sketch="http://www.bohemiancoding.com/sketch/ns">
    <!-- Generator: Sketch 3.5.1 (25234) - http://www.bohemiancoding.com/sketch -->
    <title>proof-lockup</title>
    <desc>Created with Sketch.</desc>
    <defs></defs>
    <g id="Page-1" stroke="none" stroke-width="1" fill="none" fill-rule="evenodd" sketch:type="MSPage">
        <g id="proof-lockup" sketch:type="MSLayerGroup" fill="#FFFFFF">
            <rect id="Rectangle-path" sketch:type="MSShapeGroup" x="171.1" y="0" width="4" height="169.8"></rect>
            <g id="proof-lockup-project" transform="translate(216.000000, 0.000000)" sketch:type="MSShapeGroup">
                <path d="M25.8,50 C29.6,42.6 40,36.5 50.5,36.5 C73.7,36.5 89.8,54.7 89.8,78.8 C89.8,102.9 73.8,121.1 50.5,121.1 C40,121.1 29.6,114.9 25.8,107.6 L25.8,155.6 L0.2,155.6 L0.2,38.6 L25.8,38.6 L25.8,50 L25.8,50 L25.8,50 Z M25.8,78.7 C25.8,89.9 33.5,99.3 45.2,99.3 C56.6,99.3 64.3,89.9 64.3,78.7 C64.3,67.5 56.6,58.1 45.2,58.1 C33.5,58.2 25.8,67.5 25.8,78.7 L25.8,78.7 L25.8,78.7 Z" id="Shape"></path>
                <path d="M156.1,61.7 C152.6,60.9 150.6,60.5 147.1,60.5 C133.1,60.5 123.9,67.9 123.9,87.6 L123.9,119 L98.3,119 L98.3,38.4 L123.9,38.4 L123.9,51.4 C127.6,43.9 137.3,37 148.5,37 C151.7,37 153.8,37.3 156.2,38.3 L156.2,61.7 L156.1,61.7 L156.1,61.7 Z" id="Shape"></path>
                <path d="M150.3,78.7 C150.3,55.6 167.2,36.3 194.9,36.3 C223,36.3 239.7,55.7 239.7,78.7 C239.7,101.8 223,121.1 194.9,121.1 C167.2,121.2 150.3,101.8 150.3,78.7 L150.3,78.7 L150.3,78.7 Z M214.3,78.7 C214.3,67.5 206.6,58.1 194.9,58.1 C183.4,58.1 175.8,67.5 175.8,78.7 C175.8,90.1 183.3,99.3 194.9,99.3 C206.6,99.3 214.3,90.1 214.3,78.7 L214.3,78.7 L214.3,78.7 Z" id="Shape"></path>
                <path d="M242,78.7 C242,55.6 258.9,36.3 286.6,36.3 C314.7,36.3 331.4,55.7 331.4,78.7 C331.4,101.8 314.7,121.1 286.6,121.1 C258.9,121.2 242,101.8 242,78.7 L242,78.7 L242,78.7 Z M306,78.7 C306,67.5 298.3,58.1 286.6,58.1 C275.1,58.1 267.5,67.5 267.5,78.7 C267.5,90.1 275,99.3 286.6,99.3 C298.3,99.3 306,90.1 306,78.7 L306,78.7 L306,78.7 Z" id="Shape"></path>
                <path d="M388.2,20.7 C385.5,20 383.4,19.7 380.3,19.7 C374.6,19.7 369.3,20.5 369.3,29.9 L369.3,38.4 L388.2,38.4 L388.2,57.5 L369.5,57.5 L369.5,119 L344,119 L344,57.5 L329.5,57.5 L329.5,38.4 L344,38.4 L344,31.4 C344,2.2 361.7,0.2 374.4,0.2 C380.4,0.2 385.3,1.2 388.3,2.4 L388.3,20.7 L388.2,20.7 L388.2,20.7 Z" id="Shape"></path>
            </g>
            <g id="proof-lockup-logo" transform="translate(0.000000, 11.000000)" sketch:type="MSShapeGroup">
                <path d="M51.8,86.5 L51.8,52.9 L60.5,52.9 L72.6,73.8 L72.2,52.9 L80.3,52.9 L80.3,86.5 L71.6,86.5 L59.9,66.8 L59.7,86.5 L51.8,86.5" id="Shape"></path>
                <path d="M94.4,86.5 L94.4,60.5 L84.5,60.5 L84.5,52.9 L113.2,52.9 L113.2,60.5 L102.9,60.5 L102.9,86.5 L94.4,86.5" id="Shape"></path>
                <path d="M29.1,86.5 L29.2,60.5 L19.3,60.5 L19.2,52.9 L47.9,52.9 L47.9,60.5 L37.6,60.5 L37.6,86.5 L29.1,86.5" id="Shape"></path>
                <path d="M0,66.7 C0,30.1 29.6,0.6 66.2,0.6 C102.8,0.6 132.3,30.2 132.3,66.7 C132.3,103.3 102.7,132.8 66.2,132.9 C29.6,132.7 0,103.1 0,66.7 L0,66.7 L0,66.7 Z M9.9,66.7 C9.9,82.3 16.2,96.3 26.4,106.5 C36.6,116.7 50.6,123 66.2,123 C81.8,123 95.7,116.7 106,106.5 C116.2,96.3 122.5,82.3 122.5,66.7 C122.5,51.1 116.2,37.2 106,26.9 C95.8,16.7 81.8,10.4 66.2,10.4 C50.6,10.4 36.6,16.7 26.4,26.9 C16.2,37.1 9.9,51.1 9.9,66.7 L9.9,66.7 L9.9,66.7 Z" id="Shape"></path>
            </g>
        </g>
    </g>
</svg>