
<svg viewBox="0 0 1353 170" version="1.1" xmlns="http://www.w3.org/2000/svg" xmlns:xlink="http://www.w3.org/1999/xlink">
    <!-- Generator: Sketch 46 (44423) - http://www.bohemiancoding.com/sketch -->
    <desc>Created with Sketch.</desc>
    <defs></defs>
    <g id="Page-1" stroke="none" stroke-width="1" fill="none" fill-rule="evenodd">
        <g id="retail-brands-lockup" fill-rule="nonzero" fill="#FFFFFF">
            <g id="divider" transform="translate(640.000000, 0.000000)">
                <rect id="Rectangle-path" x="0.3" y="0" width="5" height="169.1"></rect>
            </g>
            <g id="retail-brands-lockup-logo" transform="translate(0.000000, 33.000000)">
                <g id="Group">
                    <path d="M589,29.8 L587.7,29.8 L587.7,33.4 L586.9,33.4 L586.9,29.8 L585.6,29.8 L585.6,29.1 L588.9,29.1 L588.9,29.8 L589,29.8 Z M590,29 L589.9,29 L589.9,33.3 L590.7,33.3 L590.7,30.6 L592,32.2 L592.2,32.2 L593.5,30.6 L593.5,33.3 L594.3,33.3 L594.3,29 L594.2,29 L592.2,31.3 L590,29 Z" id="Shape"></path>
                    <g id="Shape">
                        <path d="M29,28.8 C37,28.8 43.9,31.6 49.5,37.3 C55.2,42.9 58,49.7 58,57.8 L58,84.4 L36,84.4 L36,58.2 C36,55.1 35.3,52.5 33.9,50.3 C32.5,48.1 30.9,47 28.9,47 C27,47 25.4,48.1 24,50.3 C22.6,52.5 21.9,55.1 21.9,58.2 L21.9,84.4 L0,84.4 L0,57.8 C0,49.7 2.8,42.9 8.5,37.3 C14.1,31.7 20.9,28.8 29,28.8 Z"></path>
                        <path d="M79.2,24.5 C76.9,26.8 75.7,28.5 75.6,29.6 L75.6,29.7 C75.6,30.9 76.6,32.4 78.7,34.5 L81.1,36.9 C83.3,39.1 84.3,41.7 84.3,44.8 L84.3,84.5 L62.1,84.5 L62.1,44.8 C62.1,41.7 63.2,39.1 65.3,36.9 L67.8,34.5 C69.8,32.5 70.8,30.9 70.8,29.7 L70.8,29.6 C70.7,28.5 69.5,26.8 67.2,24.5 L64.6,21.8 C62.2,19.4 61,16.5 61,13.2 C61,9.8 62.2,6.9 64.6,4.6 C66.9,2.2 69.8,1 73.2,1 C76.6,1 79.5,2.2 81.8,4.6 C84.2,7 85.4,9.9 85.4,13.2 C85.4,16.6 84.2,19.5 81.8,21.8 L79.2,24.5 Z"></path>
                        <path d="M121.1,67.2 C122.1,65.4 122.7,63.2 123,60.7 L144.9,60.7 C144.3,67.7 141.5,73.6 136.6,78.4 L136.6,78.5 C131,84.2 124.2,87 116.3,87 L116,87 C108,87 101.2,84.2 95.6,78.5 L95.6,78.4 C89.9,72.8 87.1,66 87.1,58.1 L87.1,57.8 C87.1,49.8 89.9,43.1 95.6,37.5 C101.2,31.8 108,29 116.1,29 C124.1,29 130.9,31.8 136.6,37.5 C141.5,42.4 144.3,48.3 144.9,55.2 L123,55.2 C122.7,52.7 122.1,50.6 121.1,48.7 C119.7,46.2 118,44.9 116.1,44.9 C114.2,44.9 112.6,46.2 111.2,48.7 C109.8,51.3 109.1,54.3 109.1,57.9 C109.1,61.5 109.8,64.5 111.2,67.1 C112.6,69.6 114.2,70.9 116.1,70.9 C118,71 119.7,69.7 121.1,67.2 Z"></path>
                        <path d="M191,60.2 L202.1,77.2 C203,78.6 203.5,79.9 203.5,81 C203.5,81.5 203.4,81.9 203.3,82.3 C202.8,83.7 201.7,84.4 200.1,84.4 L181.9,84.4 L170.4,66.8 L170.4,84.3 L148.4,84.3 L148.4,39.8 C148.4,36.8 149.5,34.2 151.6,32 C153.7,29.9 156.3,28.8 159.3,28.8 C162.4,28.8 165,29.9 167.1,32 C169.3,34.2 170.3,36.8 170.3,39.8 L170.3,51.7 L180.2,33.9 C181.7,31.3 184,29.6 187,28.8 C188,28.5 188.9,28.4 189.9,28.4 C191.8,28.4 193.6,28.9 195.4,29.9 C198,31.5 199.7,33.8 200.5,36.7 C200.8,37.6 200.9,38.6 200.9,39.5 C200.9,41.4 200.4,43.2 199.3,45 L191,60.2 Z"></path>
                        <path d="M229.2,29 C237.1,29 243.9,31.9 249.6,37.6 C253.5,41.5 255.8,46.6 256.6,52.8 C256.8,54.3 256.9,55.7 256.9,57 C256.9,58.4 256.8,59.7 256.6,60.9 L222.5,60.9 C222.8,63.2 223.4,65.2 224.3,66.8 C225.7,69.3 227.3,70.6 229.2,70.6 C231.1,70.6 233,69.5 234.7,67.2 C235.5,66 236.2,64.9 236.6,63.7 L256.2,63.7 C256,68.7 253.9,73.5 249.8,78.1 C244.1,83.9 237.2,86.7 229.3,86.7 C221.2,86.7 214.3,83.9 208.7,78.2 C203,72.6 200.2,65.8 200.2,57.7 C200.2,49.7 203,42.9 208.7,37.2 C214.4,31.8 221.2,29 229.2,29 Z M235.6,52.8 C235.2,51 234.7,49.6 234.2,48.6 C232.8,46 231.1,44.7 229.2,44.7 C227.1,44.7 225.5,46 224.3,48.5 C223.7,49.8 223.2,51.2 222.8,52.8 L235.6,52.8 L235.6,52.8 Z"></path>
                        <path d="M270.4,0.8 C273.5,0.8 276.1,1.9 278.2,4 C280.4,6.1 281.4,8.7 281.4,11.8 L281.4,84.4 L259.4,84.4 L259.4,11.9 C259.4,8.8 260.5,6.2 262.6,4.1 C264.7,1.9 267.3,0.8 270.4,0.8 Z"></path>
                        <path d="M333.9,37.4 C339.6,43.1 342.4,49.9 342.4,57.9 C342.4,65.9 339.6,72.8 333.9,78.4 C333.7,78.6 333.4,78.9 332.9,79.4 C332.5,79.8 332.3,80 332.3,80 C326.9,84.6 320.6,86.9 313.5,86.9 L313.2,86.9 C306.2,86.9 300,84.6 294.6,80 C294.2,79.8 293.7,79.3 292.9,78.4 C287.2,72.7 284.4,65.9 284.4,57.9 C284.4,49.9 287.2,43.1 292.9,37.4 C298.6,31.7 305.4,28.9 313.4,28.9 C321.4,28.8 328.2,31.7 333.9,37.4 Z M318.3,67.1 C319.7,64.5 320.4,61.5 320.4,57.9 C320.4,54.3 319.7,51.3 318.3,48.7 C316.9,46.1 315.3,44.9 313.4,44.9 C311.5,44.9 309.8,46.2 308.4,48.7 C307.1,51.3 306.4,54.4 306.4,57.9 C306.4,61.5 307.1,64.5 308.4,67.1 C309.8,69.7 311.5,70.9 313.4,70.9 C315.3,70.9 316.9,69.7 318.3,67.1 Z"></path>
                        <path d="M394.2,78.5 C388.6,84.2 381.7,87 373.7,87 C365.7,87 358.8,84.2 353.2,78.5 C347.5,72.8 344.7,66 344.7,58 C344.7,50 347.5,43.2 353.2,37.5 C358.8,31.8 365.6,29 373.7,29 C376.1,29 378.4,29.3 380.7,29.9 L380.7,11.9 C380.7,8.8 381.8,6.2 383.9,4.1 C386.1,1.9 388.7,0.9 391.7,0.9 C394.7,0.9 397.3,2 399.5,4.1 C401.6,6.2 402.7,8.8 402.7,11.8 L402.7,58 C402.7,66 399.9,72.8 394.2,78.5 Z M373.7,71 C375.6,71 377.2,69.7 378.6,67.2 C380,64.7 380.7,61.6 380.7,58 C380.7,54.4 380,51.3 378.6,48.8 C377.2,46.2 375.6,45 373.7,45 C371.8,45 370.1,46.3 368.8,48.8 C367.4,51.3 366.7,54.4 366.7,58 C366.7,61.6 367.4,64.7 368.8,67.2 C370.1,69.7 371.8,71 373.7,71 Z"></path>
                        <path d="M434.2,29 C442.1,29 448.9,31.9 454.6,37.6 C458.5,41.5 460.8,46.6 461.6,52.8 C461.8,54.3 461.9,55.7 461.9,57 C461.9,58.4 461.8,59.7 461.6,60.9 L427.5,60.9 C427.8,63.2 428.4,65.2 429.3,66.8 C430.7,69.3 432.3,70.6 434.2,70.6 C436.1,70.6 438,69.5 439.7,67.2 C440.5,66 441.2,64.9 441.6,63.7 L461.2,63.7 C461,68.7 458.9,73.5 454.8,78.1 C449.1,83.9 442.2,86.7 434.3,86.7 C426.2,86.7 419.3,83.9 413.7,78.2 C408,72.6 405.2,65.8 405.2,57.7 C405.2,49.7 408,42.9 413.7,37.2 C419.4,31.8 426.2,29 434.2,29 Z M440.6,52.8 C440.2,51 439.7,49.6 439.2,48.6 C437.8,46 436.1,44.7 434.2,44.7 C432.1,44.7 430.5,46 429.3,48.5 C428.7,49.8 428.2,51.2 427.8,52.8 L440.6,52.8 L440.6,52.8 Z"></path>
                        <path d="M514.2,37.4 C519.9,43.1 522.7,49.9 522.7,57.9 C522.7,65.9 519.9,72.8 514.2,78.4 C514,78.6 513.7,78.9 513.2,79.4 C512.8,79.8 512.6,80 512.6,80 C507.2,84.6 500.9,86.9 493.8,86.9 L493.5,86.9 C486.5,86.9 480.3,84.6 474.9,80 C474.5,79.8 474,79.3 473.2,78.4 C467.5,72.7 464.7,65.9 464.7,57.9 C464.7,49.9 467.5,43.1 473.2,37.4 C478.9,31.7 485.7,28.9 493.7,28.9 C501.7,28.8 508.5,31.7 514.2,37.4 Z M498.6,67.1 C500,64.5 500.7,61.5 500.7,57.9 C500.7,54.3 500,51.3 498.6,48.7 C497.2,46.1 495.6,44.9 493.7,44.9 C491.8,44.9 490.1,46.2 488.7,48.7 C487.4,51.3 486.7,54.4 486.7,57.9 C486.7,61.5 487.4,64.5 488.7,67.1 C490.1,69.7 491.8,70.9 493.7,70.9 C495.6,70.9 497.2,69.7 498.6,67.1 Z"></path>
                        <path d="M554.2,28.8 C562.2,28.8 569.1,31.6 574.7,37.3 C580.4,42.9 583.2,49.7 583.2,57.8 L583.2,84.4 L561.2,84.4 L561.2,58.2 C561.2,55.1 560.5,52.5 559.1,50.3 C557.7,48.1 556.1,47 554.1,47 C552.2,47 550.6,48.1 549.2,50.3 C547.8,52.5 547.1,55.1 547.1,58.2 L547.1,84.4 L525.1,84.4 L525.1,57.8 C525.1,49.7 527.9,42.9 533.6,37.3 C539.4,31.7 546.2,28.8 554.2,28.8 Z"></path>
                    </g>
                </g>
            </g>
            <g id="retail-brands-lockup-project" transform="translate(691.000000, 29.000000)">
                <path d="M42.3,47.8 C39.8,47.2 38.3,47 35.8,47 C25.7,47 19.1,52.3 19.1,66.4 L19.1,89 L0.7,89 L0.7,31.1 L19.1,31.1 L19.1,40.5 C21.7,35.1 28.7,30.2 36.7,30.2 C39,30.2 40.5,30.4 42.2,31.2 L42.2,47.8 L42.3,47.8 Z" id="Shape"></path>
                <path d="M61.2,64.5 C61.6,71.5 64.4,77.3 74,77.3 C80.4,77.3 83.5,74.4 84.7,70.7 L102.7,70.7 C101,81.6 90.7,90.5 74.1,90.5 C53.8,90.5 42.9,77.9 42.9,60 C42.9,43.1 53.6,29.5 73.6,29.5 C91.7,29.5 103.4,41.7 103.4,55.9 C103.4,58.3 103.4,60.9 102.8,64.4 L61.2,64.4 L61.2,64.5 Z M61.2,53.9 L85.4,53.9 C85.4,46.5 80.5,41.8 73.5,41.8 C66.3,41.8 61.2,46.1 61.2,53.9 Z" id="Shape"></path>
                <path d="M144.4,88.9 C141.6,89.4 137.6,89.9 132.2,89.9 C123.6,89.9 111.7,88.8 111.7,69.5 L111.7,44.8 L102.6,44.8 L102.6,31.1 L111.7,31.1 L111.7,14 L129.9,14 L129.9,31.2 L143.1,31.2 L143.1,44.9 L129.9,44.9 L129.9,65.5 C129.9,74 133.3,75.3 137.8,75.3 C140.1,75.3 142.7,75.2 144.4,74.9 L144.4,88.9 Z" id="Shape"></path>
                <path d="M208.9,31.1 L208.9,88.9 L190.5,88.9 L190.5,80.7 C187.7,86 180.3,90.3 172.9,90.3 C156.2,90.3 144.7,77.2 144.7,59.9 C144.7,42.6 156.2,29.5 172.9,29.5 C180.3,29.5 187.8,33.9 190.5,39.2 L190.5,30.9 L208.9,30.9 L208.9,31.1 Z M190.5,60 C190.5,52.1 185,45.2 176.7,45.2 C168.4,45.2 162.9,52 162.9,60 C162.9,68 168.4,74.8 176.7,74.8 C185,74.8 190.5,68.1 190.5,60 Z" id="Shape"></path>
                <path d="M225.6,0.3 C232.3,0.3 237.5,5.5 237.5,11.9 C237.5,18.3 232.3,23.5 225.6,23.5 C219,23.5 213.8,18.2 213.8,11.9 C213.8,5.4 219,0.3 225.6,0.3 Z M216.5,31.1 L234.9,31.1 L234.9,88.9 L216.5,88.9 L216.5,31.1 Z" id="Shape"></path>
                <polygon id="Shape" points="243.4 5 261.8 5 261.8 89 243.4 89"></polygon>
                <path d="M312.9,88.9 L294.5,88.9 L294.5,5 L312.9,5 L312.9,39.4 C315.7,34.1 323.1,29.7 330.7,29.7 C347.4,29.7 358.9,42.8 358.9,60.1 C358.9,77.4 347.4,90.5 330.7,90.5 C323.1,90.5 315.7,86.2 312.9,80.9 L312.9,88.9 L312.9,88.9 Z M340.5,60 C340.5,52.1 335,45.2 326.8,45.2 C318.4,45.2 312.9,52 312.9,60 C312.9,68 318.4,74.8 326.8,74.8 C335,74.8 340.5,68.1 340.5,60 Z" id="Shape"></path>
                <path d="M403.5,47.8 C401,47.2 399.5,47 397,47 C386.9,47 380.3,52.3 380.3,66.4 L380.3,89 L362,89 L362,31.1 L380.4,31.1 L380.4,40.5 C383,35.1 390,30.2 398,30.2 C400.3,30.2 401.8,30.4 403.5,31.2 L403.5,47.8 Z" id="Shape"></path>
                <path d="M469.1,31.1 L469.1,88.9 L450.7,88.9 L450.7,80.7 C447.9,86 440.5,90.3 433.1,90.3 C416.4,90.3 404.9,77.2 404.9,59.9 C404.9,42.6 416.4,29.5 433.1,29.5 C440.5,29.5 448,33.9 450.7,39.2 L450.7,30.9 L469.1,30.9 L469.1,31.1 Z M450.7,60 C450.7,52.1 445.2,45.2 436.9,45.2 C428.6,45.2 423.1,52 423.1,60 C423.1,68 428.6,74.8 436.9,74.8 C445.2,74.8 450.7,68.1 450.7,60 Z" id="Shape"></path>
                <path d="M475.7,31.1 L494.1,31.1 L494.1,39.5 C497.3,33.3 504.1,29.7 513.1,29.7 C520.5,29.7 526.2,32.2 529.3,36.3 C532.9,40.7 533.9,46.4 533.9,54.7 L533.9,89 L515.5,89 L515.5,59.3 C515.5,51 513,45.3 505.3,45.3 C497.9,45.3 494.1,51.1 494.1,59.9 L494.1,88.9 L475.7,88.9 L475.7,31.1 L475.7,31.1 Z" id="Shape"></path>
                <path d="M584.8,80.8 C582,86.1 574.6,90.4 567.2,90.4 C550.5,90.4 539,77.3 539,60 C539,42.7 550.5,29.6 567.2,29.6 C574.6,29.6 582.1,34 584.8,39.3 L584.8,5 L603.2,5 L603.2,89 L584.8,89 L584.8,80.8 Z M584.8,60 C584.8,52.1 579.3,45.2 571,45.2 C562.7,45.2 557.2,52 557.2,60 C557.2,68 562.7,74.8 571,74.8 C579.2,74.8 584.8,68.1 584.8,60 Z" id="Shape"></path>
                <path d="M661.7,71.9 C661.7,85.6 649.9,90.5 635.5,90.5 C619.1,90.5 608.9,82.9 608.9,69.6 L626.9,69.6 C626.9,75.7 630.7,78.1 636.1,78.1 C640.5,78.1 643.7,76.5 643.7,72.7 C643.7,68.3 639.1,67.7 628.2,64.1 C618.6,61.1 610.3,58.3 610.3,47.2 C610.3,35.2 620.3,29.6 635.9,29.6 C652.7,29.6 660.9,38.1 660.9,49.2 L642.8,49.2 C642.8,44.4 640.3,41.6 635.2,41.6 C631.5,41.6 628.4,43.3 628.4,46.8 C628.4,51 633.4,51.7 643.2,55 C653.3,57.9 661.7,60.6 661.7,71.9 Z" id="Shape"></path>
            </g>
        </g>
    </g>
</svg>
