<?xml version="1.0" encoding="UTF-8" standalone="no"?>
<svg width="1152px" height="141px" viewBox="0 0 1152 141" version="1.1" xmlns="http://www.w3.org/2000/svg" xmlns:xlink="http://www.w3.org/1999/xlink" xmlns:sketch="http://www.bohemiancoding.com/sketch/ns">
    <!-- Generator: Sketch 3.5.1 (25234) - http://www.bohemiancoding.com/sketch -->
    <title>sharknado-lockup</title>
    <desc>Created with Sketch.</desc>
    <defs></defs>
    <g id="Page-1" stroke="none" stroke-width="1" fill="none" fill-rule="evenodd" sketch:type="MSPage">
        <g id="sharknado-lockup" sketch:type="MSLayerGroup" fill="#FFFFFF">
            <path d="M190.3,0 L194.3,0 L194.3,141 L190.3,141 L190.3,0 Z" id="Shape" sketch:type="MSShapeGroup"></path>
            <g id="sharknado-lockup-project" transform="translate(225.000000, 1.000000)" sketch:type="MSShapeGroup">
                <path d="M74.9,98.4 C74.9,117.8 58.2,124.7 37.8,124.7 C14.5,124.7 0.1,114 0.1,95.1 L25.6,95.1 C25.6,103.8 31,107.2 38.7,107.2 C45,107.2 49.4,105 49.4,99.5 C49.4,93.2 42.9,92.4 27.5,87.3 C13.9,83.1 2.2,79.1 2.2,63.3 C2.2,46.3 16.3,38.3 38.4,38.3 C62.2,38.3 73.8,50.4 73.8,66 L48.1,66 C48.1,59.2 44.5,55.3 37.4,55.3 C32.1,55.3 27.7,57.7 27.7,62.6 C27.7,68.5 34.8,69.6 48.6,74.2 C63,78.5 74.9,82.4 74.9,98.4 L74.9,98.4 Z M83.8,3.5 L109,3.5 L109,52.5 C113.6,44 122.9,38.6 135.5,38.6 C146,38.6 153.3,42.2 157.8,47.9 C162.9,54.2 164.4,62.4 164.4,74.1 L164.4,122.5 L139.2,122.5 L139.2,80.5 C139.2,68.8 135.6,60.6 124.8,60.6 C114.3,60.6 109,68.8 109,81.3 L109,122.4 L83.8,122.4 L83.8,3.5 L83.8,3.5 Z M262.6,40.6 L262.6,122.5 L236.6,122.5 L236.6,110.9 C232.7,118.4 222.2,124.5 211.6,124.5 C188,124.5 171.7,106 171.7,81.5 C171.7,57 188,38.5 211.6,38.5 C222.1,38.5 232.7,44.8 236.6,52.3 L236.6,40.6 L262.6,40.6 L262.6,40.6 Z M236.6,81.5 C236.6,70.3 228.8,60.6 217.1,60.6 C205.4,60.6 197.6,70.3 197.6,81.5 C197.6,92.9 205.4,102.4 217.1,102.4 C228.8,102.4 236.6,92.9 236.6,81.5 L236.6,81.5 Z M335,64.2 C331.4,63.4 329.4,63 325.8,63 C311.5,63 302.2,70.5 302.2,90.5 L302.2,122.5 L276.2,122.5 L276.2,40.6 L302.2,40.6 L302.2,53.9 C305.9,46.3 315.8,39.3 327.2,39.3 C330.4,39.3 332.6,39.6 335,40.7 L335,64.2 L335,64.2 Z M388.9,81.5 L420.7,122.5 L389.8,122.5 L364.6,88.2 L364.6,122.5 L338.6,122.5 L338.6,3.5 L364.6,3.5 L364.6,75.2 L389.9,40.5 L420.8,40.5 L388.9,81.5 L388.9,81.5 Z M424.3,40.6 L450.3,40.6 L450.3,52.5 C454.9,43.7 464.4,38.6 477.2,38.6 C487.7,38.6 495.7,42.2 500.2,47.9 C505.3,54.2 506.7,62.2 506.7,73.9 L506.7,122.5 L480.7,122.5 L480.7,80.5 C480.7,68.8 477.1,60.6 466.2,60.6 C455.7,60.6 450.4,68.8 450.4,81.3 L450.4,122.4 L424.4,122.4 L424.4,40.6 L424.3,40.6 Z M604.8,40.6 L604.8,122.5 L578.8,122.5 L578.8,110.9 C574.9,118.4 564.3,124.5 553.8,124.5 C530.2,124.5 513.9,106 513.9,81.5 C513.9,57 530.2,38.5 553.8,38.5 C564.3,38.5 574.9,44.8 578.8,52.3 L578.8,40.6 L604.8,40.6 L604.8,40.6 Z M578.8,81.5 C578.8,70.3 571,60.6 559.3,60.6 C547.6,60.6 539.8,70.3 539.8,81.5 C539.8,92.9 547.6,102.4 559.3,102.4 C571,102.4 578.8,92.9 578.8,81.5 L578.8,81.5 Z M678.3,110.9 C674.4,118.4 663.8,124.5 653.3,124.5 C629.7,124.5 613.4,106 613.4,81.5 C613.4,57 629.7,38.5 653.3,38.5 C663.8,38.5 674.4,44.8 678.3,52.3 L678.3,3.5 L704.3,3.5 L704.3,122.5 L678.3,122.5 L678.3,110.9 L678.3,110.9 Z M678.3,81.5 C678.3,70.3 670.5,60.6 658.8,60.6 C647.1,60.6 639.3,70.3 639.3,81.5 C639.3,92.9 647.1,102.4 658.8,102.4 C670.4,102.4 678.3,92.9 678.3,81.5 L678.3,81.5 Z M712.3,81.5 C712.3,58 729.5,38.3 757.7,38.3 C786.3,38.3 803.3,58 803.3,81.5 C803.3,105 786.3,124.7 757.7,124.7 C729.4,124.7 712.3,105 712.3,81.5 L712.3,81.5 Z M777.4,81.5 C777.4,70.1 769.6,60.6 757.7,60.6 C746,60.6 738.3,70.1 738.3,81.5 C738.3,93.1 746,102.4 757.7,102.4 C769.6,102.4 777.4,93.1 777.4,81.5 L777.4,81.5 Z M865.9,82.5 C865.9,95.4 873.2,102.9 883.7,102.9 C893.9,102.9 899.5,95.4 899.5,87.3 C899.5,77.4 894.9,70.8 882,70.8 L871.3,70.8 L871.3,49.6 L882,49.6 C894.2,49.6 897.8,43.7 897.8,35 C897.8,26 892.2,21.7 884.2,21.7 C872.5,21.7 869.1,28.7 869.1,39 L841.6,39 C841.6,18.8 854.2,0.9 883.6,0.9 C905.5,0.9 925.1,11.9 925.1,34.2 C925.1,47.6 917.1,57.3 907.6,60.5 C918.3,64.4 927,74.1 927,89.2 C927,111.8 906.8,124.9 884.2,124.9 C854.8,124.9 838.5,107.6 838.5,82.4 L865.9,82.4 L865.9,82.5 Z" id="Shape"></path>
            </g>
            <g id="sharknado-lockup-logo" transform="translate(0.000000, 40.000000)" sketch:type="MSShapeGroup">
                <path d="M112.956,22.706 L99.756,22.706 L99.756,21.306 C99.756,20.406 99.756,19.506 99.956,18.706 C100.056,18.006 100.256,17.506 100.356,17.006 C100.656,16.306 100.956,16.006 101.656,15.606 C102.456,15.206 103.856,14.606 106.856,14.606 L115.956,14.606 L115.956,0.306 L106.856,0.306 C102.556,0.306 98.756,1.106 95.556,2.606 C93.156,3.806 91.156,5.406 89.756,7.206 C87.556,10.006 86.456,12.806 85.856,15.406 C85.256,17.906 85.256,20.006 85.256,21.506 L85.256,60.606 L99.756,60.606 L99.756,36.706 L112.956,36.706 L112.956,22.706 M135.056,83.006 C147.756,83.006 154.456,73.706 154.456,65.006 L154.456,22.806 L140.856,22.806 L140.856,43.806 C140.856,44.806 140.756,46.106 139.756,47.206 C138.756,48.306 137.456,49.206 135.256,49.206 C132.956,49.206 131.356,48.406 130.656,47.206 C129.856,46.106 129.656,44.806 129.656,43.806 L129.656,22.806 L115.856,22.806 L115.856,44.106 C115.856,53.006 122.456,62.106 133.556,62.106 C135.756,62.106 137.856,61.706 139.956,60.906 L140.956,60.506 L140.956,64.706 C140.956,65.406 140.956,66.206 140.256,67.506 C139.556,68.706 138.056,69.906 135.656,69.806 C133.456,69.806 131.856,68.806 131.156,67.806 C130.356,66.806 130.156,65.806 130.156,65.606 L116.256,65.506 L116.556,67.706 C117.956,75.406 124.956,83.006 135.056,83.006 M62.956,83.006 C75.656,83.006 82.356,73.706 82.356,65.006 L82.356,22.806 L68.756,22.806 L68.756,43.806 C68.756,44.806 68.656,46.006 67.656,47.206 C66.656,48.306 65.356,49.206 63.156,49.206 C60.856,49.206 59.256,48.406 58.556,47.206 C57.756,46.106 57.556,44.806 57.556,43.806 L57.556,22.806 L43.756,22.806 L43.756,44.106 C43.756,53.006 50.356,62.106 61.456,62.106 C63.656,62.106 65.756,61.706 67.856,60.906 L68.856,60.506 L68.856,64.706 C68.856,65.406 68.856,66.206 68.156,67.506 C67.456,68.706 65.956,69.906 63.556,69.806 C61.356,69.806 59.756,68.806 59.056,67.806 C58.356,66.806 58.056,65.806 58.056,65.606 L44.156,65.506 L44.456,67.706 C45.856,75.406 52.756,83.006 62.956,83.006 M0.956,42.706 C1.1,-40 0.956,41.506 1.056,40.806 L14.756,40.806 L14.756,41.706 C14.756,44.106 16.156,46.406 17.556,47.406 C18.856,48.406 20.756,48.706 21.856,48.706 C24.756,48.706 27.456,46.906 27.456,44.206 L27.456,44.006 C27.356,41.906 26.056,40.706 24.056,39.806 C22.256,39.006 19.356,37.706 16.156,36.206 C12.956,34.506 9.456,32.706 6.656,30.506 C2.656,27.306 0.956,23.306 1.156,17.706 C1.356,13.006 3.456,8.806 7.356,5.306 C11.256,1.906 16.056,0.606 21.156,0.606 C27.656,0.606 33.056,3.206 36.656,7.406 C40.256,11.806 40.956,16.106 41.156,19.206 L41.156,19.806 L27.056,19.806 C26.956,18.406 26.156,16.606 25.356,15.606 C24.356,14.506 22.956,13.706 21.056,13.706 C19.956,13.706 18.756,14.006 17.656,14.706 C16.556,15.406 15.756,16.506 15.756,17.906 C15.756,19.406 16.456,20.706 18.556,21.706 C20.556,22.706 26.456,25.306 27.256,25.706 C35.756,29.006 41.056,34.306 41.756,42.506 L41.756,43.106 C41.756,45.906 40.956,50.606 37.756,54.706 C34.656,58.806 29.156,62.406 22.056,62.406 C7.756,62.006 0.956,51.906 0.956,42.706" id="Shape"></path>
            </g>
        </g>
    </g>
</svg>