<svg width="1156px" height="142px" viewBox="0 0 1156 142" version="1.1" xmlns="http://www.w3.org/2000/svg" xmlns:xlink="http://www.w3.org/1999/xlink">
	<g id="Page-1" stroke="none" stroke-width="1" fill="none" fill-rule="evenodd">
		<g id="sharknado-2017-lockup" fill-rule="nonzero" fill="#FFFFFF">
			<polygon id="divider" points="189.3 0.6 193.3 0.6 193.3 141.6 189.3 141.6"></polygon>
			<g id="sharknado-2017-lockup-project" transform="translate(224.000000, 0.000000)">
				<path d="M74.9,100 C74.9,119.4 58.2,126.3 37.8,126.3 C14.5,126.3 0.1,115.6 0.1,96.7 L25.6,96.7 C25.6,105.4 31,108.8 38.7,108.8 C45,108.8 49.4,106.6 49.4,101.1 C49.4,94.8 42.9,94 27.5,88.9 C13.9,84.7 2.2,80.7 2.2,64.9 C2.2,47.9 16.3,39.9 38.4,39.9 C62.2,39.9 73.8,52 73.8,67.6 L48.1,67.6 C48.1,60.8 44.5,56.9 37.4,56.9 C32.1,56.9 27.7,59.3 27.7,64.2 C27.7,70.1 34.8,71.2 48.6,75.8 C63,80.1 74.9,84 74.9,100 L74.9,100 Z M83.8,5.1 L109,5.1 L109,54.1 C113.6,45.6 122.9,40.2 135.5,40.2 C146,40.2 153.3,43.8 157.8,49.5 C162.9,55.8 164.4,64 164.4,75.7 L164.4,124.1 L139.2,124.1 L139.2,82.1 C139.2,70.4 135.6,62.2 124.8,62.2 C114.3,62.2 109,70.4 109,82.9 L109,124 L83.8,124 L83.8,5.1 L83.8,5.1 Z M262.6,42.2 L262.6,124.1 L236.6,124.1 L236.6,112.5 C232.7,120 222.2,126.1 211.6,126.1 C188,126.1 171.7,107.6 171.7,83.1 C171.7,58.6 188,40.1 211.6,40.1 C222.1,40.1 232.7,46.4 236.6,53.9 L236.6,42.2 L262.6,42.2 L262.6,42.2 Z M236.6,83.1 C236.6,71.9 228.8,62.2 217.1,62.2 C205.4,62.2 197.6,71.9 197.6,83.1 C197.6,94.5 205.4,104 217.1,104 C228.8,104 236.6,94.5 236.6,83.1 L236.6,83.1 Z M335,65.8 C331.4,65 329.4,64.6 325.8,64.6 C311.5,64.6 302.2,72.1 302.2,92.1 L302.2,124.1 L276.2,124.1 L276.2,42.2 L302.2,42.2 L302.2,55.5 C305.9,47.9 315.8,40.9 327.2,40.9 C330.4,40.9 332.6,41.2 335,42.3 L335,65.8 L335,65.8 Z M388.9,83.1 L420.7,124.1 L389.8,124.1 L364.6,89.8 L364.6,124.1 L338.6,124.1 L338.6,5.1 L364.6,5.1 L364.6,76.8 L389.9,42.1 L420.8,42.1 L388.9,83.1 L388.9,83.1 Z M424.3,42.2 L450.3,42.2 L450.3,54.1 C454.9,45.3 464.4,40.2 477.2,40.2 C487.7,40.2 495.7,43.8 500.2,49.5 C505.3,55.8 506.7,63.8 506.7,75.5 L506.7,124.1 L480.7,124.1 L480.7,82.1 C480.7,70.4 477.1,62.2 466.2,62.2 C455.7,62.2 450.4,70.4 450.4,82.9 L450.4,124 L424.4,124 L424.4,42.2 L424.3,42.2 Z M604.8,42.2 L604.8,124.1 L578.8,124.1 L578.8,112.5 C574.9,120 564.3,126.1 553.8,126.1 C530.2,126.1 513.9,107.6 513.9,83.1 C513.9,58.6 530.2,40.1 553.8,40.1 C564.3,40.1 574.9,46.4 578.8,53.9 L578.8,42.2 L604.8,42.2 L604.8,42.2 Z M578.8,83.1 C578.8,71.9 571,62.2 559.3,62.2 C547.6,62.2 539.8,71.9 539.8,83.1 C539.8,94.5 547.6,104 559.3,104 C571,104 578.8,94.5 578.8,83.1 L578.8,83.1 Z M678.3,112.5 C674.4,120 663.8,126.1 653.3,126.1 C629.7,126.1 613.4,107.6 613.4,83.1 C613.4,58.6 629.7,40.1 653.3,40.1 C663.8,40.1 674.4,46.4 678.3,53.9 L678.3,5.1 L704.3,5.1 L704.3,124.1 L678.3,124.1 L678.3,112.5 L678.3,112.5 Z M678.3,83.1 C678.3,71.9 670.5,62.2 658.8,62.2 C647.1,62.2 639.3,71.9 639.3,83.1 C639.3,94.5 647.1,104 658.8,104 C670.4,104 678.3,94.5 678.3,83.1 L678.3,83.1 Z M712.3,83.1 C712.3,59.6 729.5,39.9 757.7,39.9 C786.3,39.9 803.3,59.6 803.3,83.1 C803.3,106.6 786.3,126.3 757.7,126.3 C729.4,126.3 712.3,106.6 712.3,83.1 L712.3,83.1 Z M777.4,83.1 C777.4,71.7 769.6,62.2 757.7,62.2 C746,62.2 738.3,71.7 738.3,83.1 C738.3,94.7 746,104 757.7,104 C769.6,104 777.4,94.7 777.4,83.1 L777.4,83.1 Z" id="Shape_1_"></path>
				<g id="Group" transform="translate(838.000000, 0.000000)">
					<polygon id="Shape" points="49.9 90.2 0 90.2 0 0 28.8 0 28.8 65.9 49.8 65.9 49.8 31.5 78.5 31.5 78.5 65.9 93.6 65.9 93.6 90.3 78.5 90.3 78.5 124.7 49.8 124.7 49.8 90.2"></polygon>
				</g>
			</g>
			<g id="sharknado-2017-lockup-logo" transform="translate(0.000000, 40.000000)">
				<path d="M112,23.3 L98.8,23.3 L98.8,21.9 C98.8,21 98.8,20.1 99,19.3 C99.1,18.6 99.3,18.1 99.4,17.6 C99.7,16.9 100,16.6 100.7,16.2 C101.5,15.8 102.9,15.2 105.9,15.2 L115,15.2 L115,0.9 L105.9,0.9 C101.6,0.9 97.8,1.7 94.6,3.2 C92.2,4.4 90.2,6 88.8,7.8 C86.6,10.6 85.5,13.4 84.9,16 C84.3,18.5 84.3,20.6 84.3,22.1 L84.3,61.2 L98.8,61.2 L98.8,37.3 L112,37.3 L112,23.3 M134.1,83.6 C146.8,83.6 153.5,74.3 153.5,65.6 L153.5,23.4 L139.9,23.4 L139.9,44.4 C139.9,45.4 139.8,46.7 138.8,47.8 C137.8,48.9 136.5,49.8 134.3,49.8 C132,49.8 130.4,49 129.7,47.8 C128.9,46.7 128.7,45.4 128.7,44.4 L128.7,23.4 L114.9,23.4 L114.9,44.7 C114.9,53.6 121.5,62.7 132.6,62.7 C134.8,62.7 136.9,62.3 139,61.5 L140,61.1 L140,65.3 C140,66 140,66.8 139.3,68.1 C138.6,69.3 137.1,70.5 134.7,70.4 C132.5,70.4 130.9,69.4 130.2,68.4 C129.4,67.4 129.2,66.4 129.2,66.2 L115.3,66.1 L115.6,68.3 C117,76 124,83.6 134.1,83.6 M62,83.6 C74.7,83.6 81.4,74.3 81.4,65.6 L81.4,23.4 L67.8,23.4 L67.8,44.4 C67.8,45.4 67.7,46.6 66.7,47.8 C65.7,48.9 64.4,49.8 62.2,49.8 C59.9,49.8 58.3,49 57.6,47.8 C56.8,46.7 56.6,45.4 56.6,44.4 L56.6,23.4 L42.8,23.4 L42.8,44.7 C42.8,53.6 49.4,62.7 60.5,62.7 C62.7,62.7 64.8,62.3 66.9,61.5 L67.9,61.1 L67.9,65.3 C67.9,66 67.9,66.8 67.2,68.1 C66.5,69.3 65,70.5 62.6,70.4 C60.4,70.4 58.8,69.4 58.1,68.4 C57.4,67.4 57.1,66.4 57.1,66.2 L43.2,66.1 L43.5,68.3 C44.9,76 51.8,83.6 62,83.6 M0.1,41.4 L13.8,41.4 L13.8,42.3 C13.8,44.7 15.2,47 16.6,48 C17.9,49 19.8,49.3 20.9,49.3 C23.8,49.3 26.5,47.5 26.5,44.8 L26.5,44.6 C26.4,42.5 25.1,41.3 23.1,40.4 C21.3,39.6 18.4,38.3 15.2,36.8 C12,35.1 8.5,33.3 5.7,31.1 C1.7,27.9 8.8817842e-16,23.9 0.2,18.3 C0.4,13.6 2.5,9.4 6.4,5.9 C10.3,2.5 15.1,1.2 20.2,1.2 C26.7,1.2 32.1,3.8 35.7,8 C39.3,12.4 40,16.7 40.2,19.8 L40.2,20.4 L26.1,20.4 C26,19 25.2,17.2 24.4,16.2 C23.4,15.1 22,14.3 20.1,14.3 C19,14.3 17.8,14.6 16.7,15.3 C15.6,16 14.8,17.1 14.8,18.5 C14.8,20 15.5,21.3 17.6,22.3 C19.6,23.3 25.5,25.9 26.3,26.3 C34.8,29.6 40.1,34.9 40.8,43.1 L40.8,43.7 C40.8,46.5 40,51.2 36.8,55.3 C33.7,59.4 28.2,63 21.1,63 C6.8,62.6 0,52.5 0,43.3" id="Shape_2_"></path>
			</g>
		</g>
	</g>
</svg>
