
<svg width="1151px" height="170px" viewBox="0 0 1151 170" version="1.1" xmlns="http://www.w3.org/2000/svg" xmlns:xlink="http://www.w3.org/1999/xlink">
    <g id="Page-1" stroke="none" stroke-width="1" fill="none" fill-rule="evenodd">
        <g id="spongebob-lockup" fill-rule="nonzero" fill="#FFFFFF">
            <g id="divider" transform="translate(640.000000, 0.000000)">
                <rect id="Rectangle-path" x="0.3" y="0" width="5" height="169.1"></rect>
            </g>
            <g id="spongebob-lockup-logo" transform="translate(0.000000, 33.000000)">
                <g id="Group">
                    <path d="M589,29.8 L587.7,29.8 L587.7,33.4 L586.9,33.4 L586.9,29.8 L585.6,29.8 L585.6,29.1 L588.9,29.1 L589,29.8 L589,29.8 Z M590,29 L590,29 L589.9,33.3 L590.7,33.3 L590.7,30.6 L592,32.2 L592.2,32.2 L593.5,30.6 L593.5,33.3 L594.3,33.3 L594.3,29 L594.2,29 L592.2,31.3 L590,29 Z" id="Shape"></path>
                    <g id="Shape">
                        <path d="M29,28.8 C37,28.8 43.9,31.6 49.5,37.3 C55.2,42.9 58,49.7 58,57.8 L58,84.4 L36,84.4 L36,58.2 C36,55.1 35.3,52.5 33.9,50.3 C32.5,48.1 30.9,47 28.9,47 C27,47 25.4,48.1 24,50.3 C22.6,52.5 21.9,55.1 21.9,58.2 L21.9,84.4 L0,84.4 L0,57.8 C0,49.7 2.8,42.9 8.5,37.3 C14.1,31.7 20.9,28.8 29,28.8 Z"></path>
                        <path d="M79.2,24.5 C76.9,26.8 75.7,28.5 75.6,29.6 L75.6,29.7 C75.6,30.9 76.6,32.4 78.7,34.5 L81.1,36.9 C83.3,39.1 84.3,41.7 84.3,44.8 L84.3,84.5 L62.1,84.5 L62.1,44.8 C62.1,41.7 63.2,39.1 65.3,36.9 L67.8,34.5 C69.8,32.5 70.8,30.9 70.8,29.7 L70.8,29.6 C70.7,28.5 69.5,26.8 67.2,24.5 L64.6,21.8 C62.2,19.4 61,16.5 61,13.2 C61,9.8 62.2,6.9 64.6,4.6 C66.9,2.2 69.8,1 73.2,1 C76.6,1 79.5,2.2 81.8,4.6 C84.2,7 85.4,9.9 85.4,13.2 C85.4,16.6 84.2,19.5 81.8,21.8 L79.2,24.5 Z"></path>
                        <path d="M121.1,67.2 C122.1,65.4 122.7,63.2 123,60.7 L144.9,60.7 C144.3,67.7 141.5,73.6 136.6,78.4 L136.6,78.5 C131,84.2 124.2,87 116.3,87 L116,87 C108,87 101.2,84.2 95.6,78.5 L95.6,78.4 C89.9,72.8 87.1,66 87.1,58.1 L87.1,57.8 C87.1,49.8 89.9,43.1 95.6,37.5 C101.2,31.8 108,29 116.1,29 C124.1,29 130.9,31.8 136.6,37.5 C141.5,42.4 144.3,48.3 144.9,55.2 L123,55.2 C122.7,52.7 122.1,50.6 121.1,48.7 C119.7,46.2 118,44.9 116.1,44.9 C114.2,44.9 112.6,46.2 111.2,48.7 C109.8,51.3 109.1,54.3 109.1,57.9 C109.1,61.5 109.8,64.5 111.2,67.1 C112.6,69.6 114.2,70.9 116.1,70.9 C118,71 119.7,69.7 121.1,67.2 Z"></path>
                        <path d="M191,60.2 L202.1,77.2 C203,78.6 203.5,79.9 203.5,81 C203.5,81.5 203.4,81.9 203.3,82.3 C202.8,83.7 201.7,84.4 200.1,84.4 L181.9,84.4 L170.4,66.8 L170.4,84.3 L148.4,84.3 L148.4,39.8 C148.4,36.8 149.5,34.2 151.6,32 C153.7,29.9 156.3,28.8 159.3,28.8 C162.4,28.8 165,29.9 167.1,32 C169.3,34.2 170.3,36.8 170.3,39.8 L170.3,51.7 L180.2,33.9 C181.7,31.3 184,29.6 187,28.8 C188,28.5 188.9,28.4 189.9,28.4 C191.8,28.4 193.6,28.9 195.4,29.9 C198,31.5 199.7,33.8 200.5,36.7 C200.8,37.6 200.9,38.6 200.9,39.5 C200.9,41.4 200.4,43.2 199.3,45 L191,60.2 Z"></path>
                        <path d="M229.2,29 C237.1,29 243.9,31.9 249.6,37.6 C253.5,41.5 255.8,46.6 256.6,52.8 C256.8,54.3 256.9,55.7 256.9,57 C256.9,58.4 256.8,59.7 256.6,60.9 L222.5,60.9 C222.8,63.2 223.4,65.2 224.3,66.8 C225.7,69.3 227.3,70.6 229.2,70.6 C231.1,70.6 233,69.5 234.7,67.2 C235.5,66 236.2,64.9 236.6,63.7 L256.2,63.7 C256,68.7 253.9,73.5 249.8,78.1 C244.1,83.9 237.2,86.7 229.3,86.7 C221.2,86.7 214.3,83.9 208.7,78.2 C203,72.6 200.2,65.8 200.2,57.7 C200.2,49.7 203,42.9 208.7,37.2 C214.4,31.8 221.2,29 229.2,29 Z M235.6,52.8 C235.2,51 234.7,49.6 234.2,48.6 C232.8,46 231.1,44.7 229.2,44.7 C227.1,44.7 225.5,46 224.3,48.5 C223.7,49.8 223.2,51.2 222.8,52.8 L235.6,52.8 L235.6,52.8 Z"></path>
                        <path d="M270.4,0.8 C273.5,0.8 276.1,1.9 278.2,4 C280.4,6.1 281.4,8.7 281.4,11.8 L281.4,84.4 L259.4,84.4 L259.4,11.9 C259.4,8.8 260.5,6.2 262.6,4.1 C264.7,1.9 267.3,0.8 270.4,0.8 Z"></path>
                        <path d="M333.9,37.4 C339.6,43.1 342.4,49.9 342.4,57.9 C342.4,65.9 339.6,72.8 333.9,78.4 C333.7,78.6 333.4,78.9 332.9,79.4 C332.5,79.8 332.3,80 332.3,80 C326.9,84.6 320.6,86.9 313.5,86.9 L313.2,86.9 C306.2,86.9 300,84.6 294.6,80 C294.2,79.8 293.7,79.3 292.9,78.4 C287.2,72.7 284.4,65.9 284.4,57.9 C284.4,49.9 287.2,43.1 292.9,37.4 C298.6,31.7 305.4,28.9 313.4,28.9 C321.4,28.8 328.2,31.7 333.9,37.4 Z M318.3,67.1 C319.7,64.5 320.4,61.5 320.4,57.9 C320.4,54.3 319.7,51.3 318.3,48.7 C316.9,46.1 315.3,44.9 313.4,44.9 C311.5,44.9 309.8,46.2 308.4,48.7 C307.1,51.3 306.4,54.4 306.4,57.9 C306.4,61.5 307.1,64.5 308.4,67.1 C309.8,69.7 311.5,70.9 313.4,70.9 C315.3,70.9 316.9,69.7 318.3,67.1 Z"></path>
                        <path d="M394.2,78.5 C388.6,84.2 381.7,87 373.7,87 C365.7,87 358.8,84.2 353.2,78.5 C347.5,72.8 344.7,66 344.7,58 C344.7,50 347.5,43.2 353.2,37.5 C358.8,31.8 365.6,29 373.7,29 C376.1,29 378.4,29.3 380.7,29.9 L380.7,11.9 C380.7,8.8 381.8,6.2 383.9,4.1 C386.1,1.9 388.7,0.9 391.7,0.9 C394.7,0.9 397.3,2 399.5,4.1 C401.6,6.2 402.7,8.8 402.7,11.8 L402.7,58 C402.7,66 399.9,72.8 394.2,78.5 Z M373.7,71 C375.6,71 377.2,69.7 378.6,67.2 C380,64.7 380.7,61.6 380.7,58 C380.7,54.4 380,51.3 378.6,48.8 C377.2,46.2 375.6,45 373.7,45 C371.8,45 370.1,46.3 368.8,48.8 C367.4,51.3 366.7,54.4 366.7,58 C366.7,61.6 367.4,64.7 368.8,67.2 C370.1,69.7 371.8,71 373.7,71 Z"></path>
                        <path d="M434.2,29 C442.1,29 448.9,31.9 454.6,37.6 C458.5,41.5 460.8,46.6 461.6,52.8 C461.8,54.3 461.9,55.7 461.9,57 C461.9,58.4 461.8,59.7 461.6,60.9 L427.5,60.9 C427.8,63.2 428.4,65.2 429.3,66.8 C430.7,69.3 432.3,70.6 434.2,70.6 C436.1,70.6 438,69.5 439.7,67.2 C440.5,66 441.2,64.9 441.6,63.7 L461.2,63.7 C461,68.7 458.9,73.5 454.8,78.1 C449.1,83.9 442.2,86.7 434.3,86.7 C426.2,86.7 419.3,83.9 413.7,78.2 C408,72.6 405.2,65.8 405.2,57.7 C405.2,49.7 408,42.9 413.7,37.2 C419.4,31.8 426.2,29 434.2,29 Z M440.6,52.8 C440.2,51 439.7,49.6 439.2,48.6 C437.8,46 436.1,44.7 434.2,44.7 C432.1,44.7 430.5,46 429.3,48.5 C428.7,49.8 428.2,51.2 427.8,52.8 L440.6,52.8 L440.6,52.8 Z"></path>
                        <path d="M514.2,37.4 C519.9,43.1 522.7,49.9 522.7,57.9 C522.7,65.9 519.9,72.8 514.2,78.4 C514,78.6 513.7,78.9 513.2,79.4 C512.8,79.8 512.6,80 512.6,80 C507.2,84.6 500.9,86.9 493.8,86.9 L493.5,86.9 C486.5,86.9 480.3,84.6 474.9,80 C474.5,79.8 474,79.3 473.2,78.4 C467.5,72.7 464.7,65.9 464.7,57.9 C464.7,49.9 467.5,43.1 473.2,37.4 C478.9,31.7 485.7,28.9 493.7,28.9 C501.7,28.8 508.5,31.7 514.2,37.4 Z M498.6,67.1 C500,64.5 500.7,61.5 500.7,57.9 C500.7,54.3 500,51.3 498.6,48.7 C497.2,46.1 495.6,44.9 493.7,44.9 C491.8,44.9 490.1,46.2 488.7,48.7 C487.4,51.3 486.7,54.4 486.7,57.9 C486.7,61.5 487.4,64.5 488.7,67.1 C490.1,69.7 491.8,70.9 493.7,70.9 C495.6,70.9 497.2,69.7 498.6,67.1 Z"></path>
                        <path d="M554.2,28.8 C562.2,28.8 569.1,31.6 574.7,37.3 C580.4,42.9 583.2,49.7 583.2,57.8 L583.2,84.4 L561.2,84.4 L561.2,58.2 C561.2,55.1 560.5,52.5 559.1,50.3 C557.7,48.1 556.1,47 554.1,47 C552.2,47 550.6,48.1 549.2,50.3 C547.8,52.5 547.1,55.1 547.1,58.2 L547.1,84.4 L525.1,84.4 L525.1,57.8 C525.1,49.7 527.9,42.9 533.6,37.3 C539.4,31.7 546.2,28.8 554.2,28.8 Z"></path>
                    </g>
                </g>
            </g>
            <g id="spongebob-lockup-project" transform="translate(684.000000, 10.000000)">
                <path d="M35.8,44.8 C35.8,53.9 28,57.2 18.4,57.2 C7.4,57.2 0.6,52.2 0.6,43.3 L12.6,43.3 C12.6,47.4 15.2,49 18.8,49 C21.8,49 23.8,48 23.8,45.4 C23.8,42.4 20.8,42 13.5,39.6 C7.1,37.6 1.6,35.8 1.6,28.3 C1.6,20.3 8.2,16.5 18.6,16.5 C29.8,16.5 35.2,22.2 35.2,29.5 L23.1,29.5 C23.1,26.3 21.4,24.5 18.1,24.5 C15.6,24.5 13.5,25.6 13.5,27.9 C13.5,30.7 16.9,31.2 23.3,33.3 C30.2,35.4 35.8,37.3 35.8,44.8 Z" id="Shape"></path>
                <path d="M54.2,23.1 C56,19.6 61,16.6 66,16.6 C77.1,16.6 84.8,25.3 84.8,36.8 C84.8,48.3 77.1,57 66,57 C61,57 56,54 54.2,50.5 L54.2,73.5 L42,73.5 L42,17.5 L54.2,17.5 L54.2,23.1 Z M54.2,36.9 C54.2,42.3 57.9,46.7 63.5,46.7 C68.9,46.7 72.6,42.2 72.6,36.9 C72.6,31.5 68.9,27.1 63.5,27.1 C57.9,27 54.2,31.5 54.2,36.9 Z" id="Shape"></path>
                <path d="M88.3,36.9 C88.3,25.9 96.4,16.6 109.7,16.6 C123.1,16.6 131.1,25.9 131.1,36.9 C131.1,47.9 123.1,57.2 109.7,57.2 C96.4,57.2 88.3,47.9 88.3,36.9 Z M119,36.9 C119,31.5 115.3,27.1 109.7,27.1 C104.2,27.1 100.6,31.6 100.6,36.9 C100.6,42.3 104.2,46.7 109.7,46.7 C115.3,46.7 119,42.3 119,36.9 Z" id="Shape"></path>
                <path d="M136.9,17.6 L149.1,17.6 L149.1,23.2 C151.3,19 155.7,16.6 161.7,16.6 C166.7,16.6 170.4,18.3 172.5,21 C174.9,24 175.5,27.7 175.5,33.2 L175.5,56.1 L163.3,56.1 L163.3,36.4 C163.3,30.9 161.6,27 156.5,27 C151.5,27 149.1,30.8 149.1,36.8 L149.1,56.2 L136.9,56.2 L136.9,17.6 Z" id="Shape"></path>
                <path d="M223.9,55.9 C223.9,62.9 221.8,67.4 217.8,70.5 C214.2,73.2 209.3,74.7 202.2,74.7 C195,74.7 190.3,72.9 187.1,70.2 C183.7,67.3 181.7,63.4 181.5,59.2 L193.7,59.2 C194,62.5 196.9,65.7 202.2,65.7 C208,65.7 211.6,63 211.6,57 L211.6,50.5 C209.5,54 204.8,56.5 199.8,56.5 C188.7,56.5 180.9,48.4 180.9,37 C180.9,25.5 188.3,16.8 199.6,16.8 C204.5,16.8 209.4,19.2 211.5,23.3 L211.5,17.8 L223.7,17.8 L223.7,55.9 L223.9,55.9 Z M193.3,36.9 C193.3,42.3 197,46.7 202.4,46.7 C208,46.7 211.7,42.2 211.7,36.9 C211.7,31.6 208,27.1 202.4,27.1 C197,27 193.3,31.6 193.3,36.9 Z" id="Shape"></path>
                <path d="M241.8,39.8 C242,44.4 244,48.4 250.4,48.4 C254.6,48.4 256.7,46.5 257.5,44 L269.5,44 C268.4,51.3 261.5,57.2 250.5,57.2 C237,57.2 229.7,48.8 229.7,36.9 C229.7,25.6 236.8,16.6 250.2,16.6 C262.3,16.6 270,24.8 270,34.2 C270,35.8 270,37.6 269.6,39.9 L241.8,39.9 L241.8,39.8 Z M241.8,32.8 L258,32.8 C258,27.8 254.7,24.7 250.1,24.7 C245.2,24.7 241.8,27.6 241.8,32.8 Z" id="Shape"></path>
                <path d="M288.5,56.2 L276.3,56.2 L276.3,0.2 L288.5,0.2 L288.5,23.2 C290.3,19.7 295.3,16.7 300.3,16.7 C311.4,16.7 319.1,25.4 319.1,36.9 C319.1,48.4 311.4,57.1 300.3,57.1 C295.3,57.1 290.3,54.2 288.5,50.7 L288.5,56.2 Z M306.9,36.9 C306.9,31.6 303.2,27.1 297.8,27.1 C292.2,27.1 288.5,31.7 288.5,36.9 C288.5,42.3 292.2,46.7 297.8,46.7 C303.2,46.7 306.9,42.2 306.9,36.9 Z" id="Shape"></path>
                <path d="M322.6,36.9 C322.6,25.9 330.7,16.6 344,16.6 C357.4,16.6 365.4,25.9 365.4,36.9 C365.4,47.9 357.4,57.2 344,57.2 C330.6,57.2 322.6,47.9 322.6,36.9 Z M353.2,36.9 C353.2,31.5 349.5,27.1 343.9,27.1 C338.4,27.1 334.8,31.6 334.8,36.9 C334.8,42.3 338.4,46.7 343.9,46.7 C349.5,46.7 353.2,42.3 353.2,36.9 Z" id="Shape"></path>
                <path d="M383.4,56.2 L371.2,56.2 L371.2,0.2 L383.4,0.2 L383.4,23.2 C385.2,19.7 390.2,16.7 395.2,16.7 C406.3,16.7 414,25.4 414,36.9 C414,48.4 406.3,57.1 395.2,57.1 C390.2,57.1 385.2,54.2 383.4,50.7 L383.4,56.2 Z M401.8,36.9 C401.8,31.6 398.1,27.1 392.7,27.1 C387.1,27.1 383.4,31.7 383.4,36.9 C383.4,42.3 387.1,46.7 392.7,46.7 C398.1,46.7 401.8,42.2 401.8,36.9 Z" id="Shape"></path>
                <path d="M35.8,118 C35.8,127.1 28,130.4 18.4,130.4 C7.4,130.4 0.6,125.4 0.6,116.5 L12.6,116.5 C12.6,120.6 15.2,122.2 18.8,122.2 C21.8,122.2 23.8,121.2 23.8,118.6 C23.8,115.6 20.8,115.2 13.5,112.8 C7.1,110.8 1.6,109 1.6,101.5 C1.6,93.5 8.2,89.7 18.6,89.7 C29.8,89.7 35.2,95.4 35.2,102.7 L23.1,102.7 C23.1,99.5 21.4,97.7 18.1,97.7 C15.6,97.7 13.5,98.8 13.5,101.1 C13.5,103.9 16.9,104.4 23.3,106.5 C30.2,108.7 35.8,110.5 35.8,118 Z" id="Shape"></path>
                <path d="M70.3,90.8 L82.5,90.8 L82.5,146.8 L70.3,146.8 L70.3,123.8 C68.4,127.3 63.4,130.3 58.5,130.3 C47.4,130.3 39.7,121.6 39.7,110.1 C39.7,98.6 47.4,89.9 58.5,89.9 C63.5,89.9 68.4,92.9 70.3,96.4 L70.3,90.8 Z M51.9,110.1 C51.9,115.5 55.6,119.9 61,119.9 C66.6,119.9 70.3,115.4 70.3,110.1 C70.3,104.7 66.6,100.3 61,100.3 C55.6,100.3 51.9,104.8 51.9,110.1 Z" id="Shape"></path>
                <path d="M129.1,90.8 L129.1,129.4 L116.9,129.4 L116.9,123.9 C114.7,128 110.3,130.4 104.3,130.4 C99.3,130.4 95.6,128.7 93.5,126 C91.1,123 90.5,119.3 90.5,113.8 L90.5,90.9 L102.7,90.9 L102.7,110.7 C102.7,116.2 104.4,120.1 109.5,120.1 C114.5,120.1 116.9,116.3 116.9,110.3 L116.9,90.9 L129.1,90.9 L129.1,90.8 Z" id="Shape"></path>
                <path d="M177.9,90.8 L177.9,129.4 L165.7,129.4 L165.7,124 C163.9,127.5 158.9,130.4 153.9,130.4 C142.8,130.4 135.1,121.7 135.1,110.2 C135.1,98.7 142.8,90 153.9,90 C158.9,90 163.8,93 165.7,96.5 L165.7,91 L177.9,91 L177.9,90.8 Z M165.7,110.1 C165.7,104.8 162,100.3 156.5,100.3 C151,100.3 147.3,104.9 147.3,110.1 C147.3,115.5 151,119.9 156.5,119.9 C162,120 165.7,115.5 165.7,110.1 Z" id="Shape"></path>
                <path d="M214,102 C212.3,101.6 211.4,101.4 209.7,101.4 C203,101.4 198.6,104.9 198.6,114.4 L198.6,129.4 L186.4,129.4 L186.4,90.8 L198.6,90.8 L198.6,97 C200.4,93.4 205,90.1 210.4,90.1 C211.9,90.1 213,90.3 214.1,90.7 L214.1,102 L214,102 Z" id="Shape"></path>
                <path d="M226.6,113.1 C226.8,117.7 228.8,121.7 235.2,121.7 C239.4,121.7 241.5,119.8 242.3,117.3 L254.3,117.3 C253.2,124.6 246.3,130.5 235.3,130.5 C221.8,130.5 214.5,122.1 214.5,110.2 C214.5,98.9 221.6,89.9 235,89.9 C247.1,89.9 254.8,98.1 254.8,107.5 C254.8,109.1 254.8,110.9 254.4,113.2 L226.6,113.2 L226.6,113.1 Z M226.6,106 L242.8,106 C242.8,101 239.5,97.9 234.9,97.9 C230,98 226.6,100.8 226.6,106 Z" id="Shape"></path>
                <path d="M273.3,96.4 C275.1,92.9 280.1,89.9 285.1,89.9 C296.2,89.9 303.9,98.6 303.9,110.1 C303.9,121.6 296.2,130.3 285.1,130.3 C280.1,130.3 275.1,127.3 273.3,123.8 L273.3,146.8 L261,146.8 L261,90.8 L273.2,90.8 L273.2,96.4 L273.3,96.4 Z M273.3,110.1 C273.3,115.5 277,119.9 282.6,119.9 C288,119.9 291.7,115.4 291.7,110.1 C291.7,104.7 288,100.3 282.6,100.3 C277,100.3 273.3,104.8 273.3,110.1 Z" id="Shape"></path>
                <path d="M350.4,90.8 L350.4,129.4 L338.2,129.4 L338.2,124 C336.4,127.5 331.4,130.4 326.4,130.4 C315.3,130.4 307.6,121.7 307.6,110.2 C307.6,98.7 315.3,90 326.4,90 C331.4,90 336.3,93 338.2,96.5 L338.2,91 L350.4,91 L350.4,90.8 Z M338.2,110.1 C338.2,104.8 334.5,100.3 329,100.3 C323.5,100.3 319.8,104.9 319.8,110.1 C319.8,115.5 323.5,119.9 329,119.9 C334.5,120 338.2,115.5 338.2,110.1 Z" id="Shape"></path>
                <path d="M358.8,90.8 L371,90.8 L371,96.4 C373.2,92.2 377.6,89.8 383.6,89.8 C388.6,89.8 392.3,91.5 394.4,94.2 C396.8,97.2 397.4,100.9 397.4,106.4 L397.4,129.3 L385.2,129.3 L385.2,109.5 C385.2,104 383.5,100.1 378.4,100.1 C373.4,100.1 371,103.9 371,109.9 L371,129.3 L358.8,129.3 L358.8,90.8 L358.8,90.8 Z" id="Shape"></path>
                <path d="M429.4,129.4 C427.6,129.7 424.8,130 421.2,130 C415.4,130 407.5,129.3 407.5,116.4 L407.5,100 L401.4,100 L401.4,90.9 L407.5,90.9 L407.5,79.4 L419.7,79.4 L419.7,90.8 L428.5,90.8 L428.5,99.9 L419.7,99.9 L419.7,113.7 C419.7,119.4 421.9,120.3 425,120.3 C426.5,120.3 428.3,120.2 429.4,120.1 L429.4,129.4 Z" id="Shape"></path>
                <path d="M466.6,118 C466.6,127.1 458.8,130.4 449.2,130.4 C438.2,130.4 431.4,125.4 431.4,116.5 L443.4,116.5 C443.4,120.6 446,122.2 449.6,122.2 C452.6,122.2 454.6,121.2 454.6,118.6 C454.6,115.6 451.6,115.2 444.3,112.8 C437.9,110.8 432.4,109 432.4,101.5 C432.4,93.5 439,89.7 449.4,89.7 C460.6,89.7 466,95.4 466,102.7 L454,102.7 C454,99.5 452.3,97.7 449,97.7 C446.5,97.7 444.4,98.8 444.4,101.1 C444.4,103.9 447.8,104.4 454.2,106.5 C461,108.7 466.6,110.5 466.6,118 Z" id="Shape"></path>
            </g>
        </g>
    </g>
</svg>
