
<svg width="953px" height="166px" viewBox="0 0 953 166" version="1.1" xmlns="http://www.w3.org/2000/svg" xmlns:xlink="http://www.w3.org/1999/xlink">
    <g id="Page-1" stroke="none" stroke-width="1" fill="none" fill-rule="evenodd">
        <g id="uncorked-lockup" fill="#FFFFFF">
            <g id="uncorked-lockup-project" transform="translate(448.000000, 43.000000)" fill-rule="nonzero">
                <path d="M58.1,26.8 L58.1,84.6 L39.7,84.6 L39.7,76.3 C36.5,82.4 29.7,86 20.7,86 C13.3,86 7.6,83.5 4.5,79.4 C0.9,75 0.1,69.3 0.1,61 L0.1,26.8 L18.3,26.8 L18.3,56.4 C18.3,64.7 20.8,70.4 28.5,70.4 C36.1,70.4 39.7,64.6 39.7,55.8 L39.7,26.8 L58.1,26.8 L58.1,26.8 Z" id="Shape"></path>
                <path d="M70.1,26.8 L88.5,26.8 L88.5,35.2 C91.7,29 98.5,25.4 107.5,25.4 C114.9,25.4 120.6,27.9 123.7,32 C127.3,36.4 128.3,42.1 128.3,50.4 L128.3,84.7 L109.9,84.7 L109.9,55 C109.9,46.7 107.4,41 99.7,41 C92.3,41 88.5,46.8 88.5,55.6 L88.5,84.6 L70.1,84.6 L70.1,26.8 Z" id="Shape"></path>
                <path d="M178.1,49.5 C177.4,44.3 174.1,40.9 166.7,40.9 C157.9,40.9 153.9,47.9 153.9,55.8 C153.9,63.8 157.9,70.7 167.5,70.7 C173.9,70.7 176.7,67.9 178.3,63 L196.7,63 C194.9,76.1 185.1,86.3 166.7,86.3 C146.4,86.3 135.6,71.9 135.6,55.8 C135.6,39.8 146.4,25.3 166.7,25.3 C186.3,25.3 195.4,37.1 196.6,49.5 L178.1,49.5 L178.1,49.5 Z" id="Shape"></path>
                <path d="M200.2,55.8 C200.2,39.2 212.3,25.3 232.2,25.3 C252.4,25.3 264.4,39.2 264.4,55.8 C264.4,72.4 252.4,86.3 232.2,86.3 C212.3,86.2 200.2,72.3 200.2,55.8 Z M246.2,55.8 C246.2,47.8 240.7,41 232.3,41 C224,41 218.6,47.7 218.6,55.8 C218.6,64 224,70.6 232.3,70.6 C240.7,70.5 246.2,63.9 246.2,55.8 Z" id="Shape"></path>
                <path d="M314,43.5 C311.5,42.9 310,42.7 307.5,42.7 C297.4,42.7 290.8,48 290.8,62.1 L290.8,84.7 L272.4,84.7 L272.4,26.8 L290.8,26.8 L290.8,36.2 C293.4,30.8 300.4,25.9 308.4,25.9 C310.7,25.9 312.2,26.1 313.9,26.9 L313.9,43.5 L314,43.5 Z" id="Shape"></path>
                <polygon id="Shape" points="354.4 55.8 376.8 84.7 355 84.7 337.2 60.5 337.2 84.7 318.8 84.7 318.8 0.7 337.2 0.7 337.2 51.3 355.1 26.8 377 26.8"></polygon>
                <path d="M393.1,60.2 C393.5,67.2 396.3,73 405.9,73 C412.3,73 415.4,70.1 416.6,66.4 L434.6,66.4 C432.9,77.3 422.6,86.2 406,86.2 C385.7,86.2 374.8,73.6 374.8,55.7 C374.8,38.8 385.5,25.2 405.5,25.2 C423.6,25.2 435.3,37.4 435.3,51.6 C435.3,54 435.3,56.6 434.7,60.1 L393.1,60.1 L393.1,60.2 Z M393.1,49.6 L417.3,49.6 C417.3,42.2 412.4,37.5 405.4,37.5 C398.2,37.5 393.1,41.8 393.1,49.6 Z" id="Shape"></path>
                <path d="M486.4,76.5 C483.6,81.8 476.2,86.1 468.8,86.1 C452.1,86.1 440.6,73 440.6,55.7 C440.6,38.4 452.1,25.3 468.8,25.3 C476.2,25.3 483.7,29.7 486.4,35 L486.4,0.7 L504.8,0.7 L504.8,84.7 L486.4,84.7 L486.4,76.5 Z M486.4,55.8 C486.4,47.9 480.9,41 472.6,41 C464.3,41 458.8,47.8 458.8,55.8 C458.8,63.8 464.3,70.6 472.6,70.6 C480.9,70.5 486.4,63.8 486.4,55.8 Z" id="Shape"></path>
            </g>
            <g id="divider" transform="translate(409.000000, 0.000000)" fill-rule="nonzero">
                <rect id="Rectangle-path" x="0.1" y="0" width="5" height="163.5"></rect>
            </g>
            <g id="uncorked-lockup-logo" transform="translate(0.000000, 5.000000)">
                <path d="M115.6,64.1 L116.6,70.4 L113,66.8 L107.1,66.8 L107.1,89.7 L110.2,93 L99.5,93 L102.6,89.7 L102.6,66.9 L96.8,66.9 L93.2,70.5 L94.2,64.2 L115.6,64.2 L115.6,64.1 Z M7.5,70.5 L15.3,88.3 L15.8,88.3 L23.4,71 L24.8,89.6 L21.5,93 L32.3,93 L29.2,89.8 L27.5,67.2 L30.5,64.1 L22.9,64.1 L16.2,79.3 L9.7,64.1 L1.7,64.1 L4.7,67.2 L3.1,89.8 L0,93 L9.2,93 L6,89.7 L7.5,70.5 L7.5,70.5 Z M142.1,81.2 L143.9,79.3 C144.3,79 145.2,79.1 146.1,80.8 C147,82.5 146.8,85.1 145.7,87.1 C145.3,87.8 144.9,88.4 144.3,89.1 C144.7,89.5 145,89.8 145.3,90.1 C147.6,92.1 148.1,92 150.2,91.8 L149.4,93.1 L143.5,93.1 C143.5,93.1 142.8,92.5 141.6,91.4 C141.2,91.7 140.8,91.9 140.4,92.2 C138.2,93.5 135.6,93.6 132.8,93.1 C130,92.7 128.3,90.4 127.9,87.9 C127.5,85.6 128.7,82.1 132.7,80.2 C131.9,78.8 131.3,77.7 130.9,76.8 C129.9,74.9 130.3,71.4 133.5,70.2 C136.8,68.9 139.7,69.5 141.2,71.3 C142.7,73.1 143,76.8 137.3,79 L136.5,77.9 C138.4,76.7 138.9,75.4 138.9,73.7 C138.9,72 137.9,70.8 136.7,70.8 C135.5,70.8 134.3,71.1 133.8,72.7 C133.3,74.3 134.5,76.1 135.6,78.2 C136.5,79.8 140.5,84.9 143.3,88.1 C143.9,87.3 144.3,86.5 144.3,85.6 C144.6,83 143.8,82.2 142.1,81.2 L142.1,81.2 Z M133.5,81.3 C132.3,82.5 131.4,84.7 132.2,87.2 C133.1,90.1 135.8,91.2 138.7,90.7 C139.3,90.6 140,90.4 140.6,90.1 C139.5,88.9 138.1,87.4 136.8,85.7 C135.4,84 134.3,82.5 133.5,81.3 L133.5,81.3 Z M50,91.3 C46,91.3 42.6,86.2 42.6,78.6 C42.6,71 46,65.9 50,65.9 C54,65.9 57.4,71 57.4,78.6 C57.4,86.2 54,91.3 50,91.3 L50,91.3 Z M50,93.5 C43.1,93.5 37.1,87.5 37.1,78.6 C37.1,69.7 43.1,63.7 50,63.7 C56.9,63.7 62.9,69.7 62.9,78.6 C63,87.5 56.9,93.5 50,93.5 L50,93.5 Z M81.1,58.5 C82.2,58.5 83.1,59.4 83.1,60.5 C83.1,61.6 82.2,62.5 81.1,62.5 C80,62.5 79.1,61.6 79.1,60.5 C79,59.4 79.9,58.5 81.1,58.5 L81.1,58.5 Z M74.9,58.5 C76,58.5 76.9,59.4 76.9,60.5 C76.9,61.6 76,62.5 74.9,62.5 C73.8,62.5 72.9,61.6 72.9,60.5 C72.9,59.4 73.8,58.5 74.9,58.5 L74.9,58.5 Z M88.7,86.7 L84.1,90.3 L75.6,90.3 L75.6,79.5 L81.7,79.5 L84.3,81.7 L84.3,74.5 L81.7,76.7 L75.6,76.7 L75.6,66.8 L83.4,66.8 L87.1,69.7 L85.3,64 L67.9,64 L71,67.3 L71,89.7 L67.9,93 L86.6,93 L88.7,86.7 L88.7,86.7 Z M200.6,64.1 L197.5,67.4 L197.5,76.4 L207.7,76.4 L207.7,67.4 L204.6,64.1 L215.4,64.1 L212.3,67.4 L212.3,89.8 L215.4,93.1 L204.6,93.1 L207.7,89.8 L207.7,79.1 L197.5,79.1 L197.5,89.7 L200.6,93 L189.8,93 L192.9,89.7 L192.9,67.4 L189.8,64.1 C193.4,64.1 197,64.1 200.6,64.1 L200.6,64.1 Z M249,64.1 L252.1,67.4 L252.1,89.8 L249,93 L258,93 L254.9,89.7 L254.9,71 L269.4,93 L270.7,93 L270.7,67.4 L273.8,64.1 L264.4,64.1 L267.5,67.4 L267.5,81.4 L256.1,64.1 C253.8,64.1 251.4,64.1 249,64.1 L249,64.1 Z M173.9,93.5 C167,93.5 161,87.5 161,78.6 C161,69.7 167,63.7 173.9,63.7 C176.7,63.7 179.3,64.6 181.4,66.4 L184.3,65.7 L180.8,73.2 C179.6,68.7 176.9,65.9 174,65.9 C170,65.9 166.5,71 166.5,78.6 C166.5,86.2 170,91.3 174,91.3 C177.2,91.3 180.1,88 181.1,82.7 C182.5,83.3 183.3,85.1 183.2,87.2 C183.1,88.5 182.2,90 180.8,91.3 C178.8,92.7 176.4,93.5 173.9,93.5 L173.9,93.5 Z M290.3,64.1 C298,64.4 304.3,70.8 304.3,78.5 L304.3,78.5 C304.3,86.3 298.1,92.7 290.3,92.9 L290.3,92.9 L279.5,92.9 L282.6,89.6 L282.6,67.4 L279.5,64.1 C283,64.1 286.7,64.1 290.3,64.1 L290.3,64.1 L290.3,64.1 Z M291.5,90.3 C301.4,90.3 301.4,66.9 291.5,66.9 L287.2,66.9 L287.2,90.3 L291.5,90.3 L291.5,90.3 Z M323.7,91.3 C319.7,91.3 316.3,86.2 316.3,78.6 C316.3,71 319.7,65.9 323.7,65.9 C327.7,65.9 331.1,71 331.1,78.6 C331.2,86.2 327.7,91.3 323.7,91.3 L323.7,91.3 Z M323.7,93.5 C316.8,93.5 310.8,87.5 310.8,78.6 C310.8,69.7 316.8,63.7 323.7,63.7 C330.6,63.7 336.6,69.7 336.6,78.6 C336.7,87.5 330.7,93.5 323.7,93.5 L323.7,93.5 Z M341.6,64.1 L344.7,67.4 L344.7,89.8 L341.6,93.1 L350.6,93.1 L347.5,89.8 L347.5,71 L362,93 L363.3,93 L363.3,67.4 L366.4,64.1 L357,64.1 L360.1,67.4 L360.1,81.4 L348.7,64.1 C346.4,64.1 344,64.1 341.6,64.1 L341.6,64.1 Z M242.8,89.9 L245.8,93.1 L235,93.1 L237.8,90.2 L235.6,83.1 L231.4,84.5 L227.5,83.2 L225.4,90 L228.5,93.1 L218.9,93.1 L222.3,89.7 L230.2,64.1 L234.8,64.1 L242.8,89.9 L242.8,89.9 Z M231.6,70.1 L235.1,81.2 L228.2,81.2 L231.6,70.1 L231.6,70.1 Z" id="Shape"></path>
                <path d="M177,41.7 C177.7,41.7 178.2,42.3 178.2,42.9 C178.2,43.6 177.6,44.1 177,44.1 C176.3,44.1 175.8,43.5 175.8,42.9 C175.7,42.3 176.3,41.7 177,41.7 L177,41.7 Z M189.4,41.7 C190.1,41.7 190.6,42.3 190.6,42.9 C190.6,43.6 190,44.1 189.4,44.1 C188.7,44.1 188.2,43.5 188.2,42.9 C188.2,42.3 188.7,41.7 189.4,41.7 L189.4,41.7 Z M162.9,38.4 L203.4,38.4 C203.8,38.4 204.1,38.7 204.1,39.1 L204.1,39.1 C204.1,39.5 203.8,39.8 203.4,39.8 L162.9,39.8 C162.5,39.8 162.2,39.5 162.2,39.1 L162.2,39.1 C162.3,38.7 162.6,38.4 162.9,38.4 L162.9,38.4 Z M162.9,46.2 L203.4,46.2 C203.8,46.2 204.1,46.5 204.1,46.9 L204.1,46.9 C204.1,47.3 203.8,47.6 203.4,47.6 L162.9,47.6 C162.5,47.6 162.2,47.3 162.2,46.9 L162.2,46.9 C162.3,46.5 162.6,46.2 162.9,46.2 L162.9,46.2 Z M163.4,40.7 L203,40.7 L203,45.2 L163.4,45.2 L163.4,40.7 L163.4,40.7 Z M180.5,42 L185.9,42 L185.9,43.9 L180.5,43.9 L180.5,42 L180.5,42 Z M164.5,42 L167.2,42 L167.2,43.9 L164.5,43.9 L164.5,42 L164.5,42 Z M199.1,42 L201.8,42 L201.8,43.9 L199.1,43.9 L199.1,42 L199.1,42 Z M171.6,44.1 L173.9,43 L171.6,41.9 L169.3,43 L171.6,44.1 L171.6,44.1 Z M194.8,44.1 L197.1,43 L194.8,41.9 L192.5,43 L194.8,44.1 L194.8,44.1 Z M158,27.6 C158.7,27.6 159.2,28.1 159.2,28.8 C159.2,29.5 158.7,30 158,30 C157.3,30 156.8,29.5 156.8,28.8 C156.8,28.1 157.3,27.6 158,27.6 L158,27.6 Z M157.4,24.1 C158.2,24.1 158.8,24.7 158.8,25.5 C158.8,26.3 158.2,26.9 157.4,26.9 C156.6,26.9 156,26.3 156,25.5 C156,24.7 156.6,24.1 157.4,24.1 L157.4,24.1 Z M158.5,20.9 C159.2,20.9 159.8,21.5 159.8,22.2 C159.8,22.9 159.2,23.5 158.5,23.5 C157.8,23.5 157.2,22.9 157.2,22.2 C157.3,21.4 157.8,20.9 158.5,20.9 L158.5,20.9 Z M160.8,18.6 C161.5,18.6 162,19.1 162,19.8 C162,20.5 161.5,21 160.8,21 C160.1,21 159.6,20.5 159.6,19.8 C159.6,19.2 160.1,18.6 160.8,18.6 L160.8,18.6 Z M163.5,17.4 C164.1,17.4 164.6,17.9 164.6,18.5 C164.6,19.1 164.1,19.6 163.5,19.6 C162.9,19.6 162.4,19.1 162.4,18.5 C162.4,17.9 162.9,17.4 163.5,17.4 L163.5,17.4 Z M166.4,16.7 C167,16.7 167.5,17.2 167.5,17.8 C167.5,18.4 167,18.9 166.4,18.9 C165.8,18.9 165.3,18.4 165.3,17.8 C165.3,17.2 165.8,16.7 166.4,16.7 L166.4,16.7 Z M169.2,22.6 C169.9,22.6 170.4,23.1 170.4,23.8 C170.4,24.5 169.9,25 169.2,25 C168.5,25 168,24.5 168,23.8 C168,23.1 168.5,22.6 169.2,22.6 L169.2,22.6 Z M168.8,19.4 C169.5,19.4 170.1,20 170.1,20.7 C170.1,21.4 169.5,22 168.8,22 C168.1,22 167.5,21.4 167.5,20.7 C167.4,20 168,19.4 168.8,19.4 L168.8,19.4 Z M169.9,16.7 C170.6,16.7 171.1,17.2 171.1,17.9 C171.1,18.6 170.6,19.1 169.9,19.1 C169.2,19.1 168.7,18.6 168.7,17.9 C168.7,17.3 169.2,16.7 169.9,16.7 L169.9,16.7 Z M172.1,14.8 C172.8,14.8 173.3,15.3 173.3,16 C173.3,16.7 172.8,17.2 172.1,17.2 C171.4,17.2 170.9,16.7 170.9,16 C170.9,15.4 171.5,14.8 172.1,14.8 L172.1,14.8 Z M174.7,14.3 C175.2,14.3 175.7,14.7 175.7,15.3 C175.7,15.8 175.3,16.3 174.7,16.3 C174.2,16.3 173.7,15.9 173.7,15.3 C173.7,14.7 174.2,14.3 174.7,14.3 L174.7,14.3 Z M177.2,14.2 C177.7,14.2 178.1,14.6 178.1,15.1 C178.1,15.6 177.7,16 177.2,16 C176.7,16 176.3,15.6 176.3,15.1 C176.3,14.6 176.7,14.2 177.2,14.2 L177.2,14.2 Z M179.4,14.4 C179.8,14.4 180.1,14.7 180.1,15.1 C180.1,15.5 179.8,15.8 179.4,15.8 C179,15.8 178.7,15.5 178.7,15.1 C178.7,14.7 179,14.4 179.4,14.4 L179.4,14.4 Z M183.2,37.5 L162.9,37.5 C162.9,37.5 162.2,36.5 161.9,36.2 C161.5,36 160.6,35.9 160.3,35.3 C159.9,34.6 160.1,34.2 160,33.7 C159.9,33.2 160,33.1 159.5,32.6 C159,32.1 158.5,31.6 158,31.4 C157.5,31.2 157.3,31.3 157.1,31.4 C156.9,31.4 157.1,31.2 157.4,31 C157.6,30.8 158.4,30.5 159.2,31 C160,31.5 160.6,32.5 160.9,32.7 C161.2,32.9 161.7,32.6 161.7,32 C161.8,31.4 161.7,31.1 161.5,30.9 C161.3,30.8 161.3,30.6 161.8,30.7 C162.2,30.8 162.6,31.2 162.7,31.6 C162.9,32 162.6,32.1 162.9,32.2 C163.2,32.2 163.7,32.2 164.1,32.8 C164.5,33.4 164.4,33.9 164.4,34.1 C164.4,34.3 164.4,34.3 164.8,34.7 C165.1,35 165.4,35.3 165.4,35.7 C165.4,36.2 165.2,36.5 165.1,36.6 C164.9,36.7 165.1,36 164.5,35.8 C163.9,35.6 163.3,35.6 163.1,35.7 C162.8,35.8 162.7,36 163.1,36.3 C163.5,36.7 163.8,37.1 164.3,37.2 C164.7,37.3 165.2,37.3 165.7,37.2 C166.2,37.1 166.9,36.4 167,36 C167.1,35.8 167,35.5 167,35.2 C166.5,35.3 165.9,34.9 165.6,34.3 C165.2,33.6 165.3,32.8 165.8,32.5 C166.3,32.2 167,32.6 167.4,33.3 C167.7,33.9 167.7,34.6 167.4,35 C167.5,35.1 167.6,35.2 167.6,35.3 C168.1,35.9 168.7,36.2 169.6,36.1 C170.5,35.9 171.2,35.3 171.2,34.1 C171.2,32.9 171.1,32.6 170.8,32.4 C170.5,32.2 170.1,32.2 170,32.7 C169.9,33.2 169.6,34 169.4,34.3 C169.2,34.6 168.8,34.4 168.6,34 C168.3,33.6 168.3,33.3 168.3,33.1 C168.3,32.9 168.1,32.8 167.9,32.8 C167.7,32.7 167.4,32.6 167.4,32 C167.4,31.4 167.5,31.3 167.3,31 C167.1,30.8 166.7,30.3 166.8,29.8 C166.9,29.4 167.4,29.4 168.2,29.7 C169,29.9 169,29.9 169.2,29.8 C169.3,29.7 169.3,29.6 168.7,28.9 C168,28.2 167.6,27.9 167.5,27.3 C167.4,26.7 168,26.7 168.4,26.7 C168.8,26.7 168.9,26.6 169.1,26.3 C169.2,26.1 169.6,25.9 170,26 C170.4,26.1 170.5,25.9 170.8,25.8 C171,25.7 171.3,25.5 171.6,25.6 C171.9,25.8 171.8,26.6 171.7,27.6 C171.6,28.6 171.5,28.9 171.7,28.9 C171.8,29 172,28.9 172.2,28.5 C172.3,28.1 172.8,27.4 173.2,27.2 C173.6,27 174,27.4 174,27.8 C174,28.2 173.9,28.5 174.3,28.8 C174.6,29.2 174.9,29.7 174.8,30.3 C174.7,30.9 174.8,31.1 175,31.3 C175.2,31.5 175.4,32.5 174.9,32.6 C174.5,32.7 173.6,32.3 173,31.8 C172.4,31.3 172.1,31.6 172.1,31.9 C172.1,32.2 172.4,32.9 173,33.5 C173.6,34.1 174,34.4 175.3,34.4 C176.4,34.3 177.2,33.5 177.3,32.6 C176.8,32.5 176.3,32 176.1,31.2 C175.9,30.3 176.3,29.4 177,29.3 C177.7,29.2 178.4,29.8 178.6,30.7 C178.8,31.5 178.5,32.2 178,32.5 C178.3,33.2 178.7,33.9 179.6,34 C181,34.3 182.5,33.7 183,32.5 C183.5,31.3 183.5,30.8 183.4,30.6 C183.3,30.3 183.1,30.3 182.9,30.2 C182.7,30.1 182.4,30.3 182.2,30.6 C182,30.9 181,31.8 180.5,32 C179.9,32.2 179.6,32 179.6,31.3 C179.6,30.6 179.7,30.4 179.5,30 C179.3,29.6 179,29.3 179.2,28.7 C179.4,28.1 179.6,28.3 179.3,27.6 C179.1,26.9 179.1,26.4 179.6,26.3 C180.1,26.2 181.8,27.4 182.1,27.6 C182.4,27.8 182.6,27.5 182.4,27.2 C182.2,26.9 181.4,25.3 181.2,24.6 C180.9,23.9 181.4,23.6 182,23.8 C182.6,24 182.7,24 182.9,23.9 C183.1,23.8 183.2,23.7 183.8,23.7 C184.4,23.7 184.5,23.8 184.7,23.9 C184.9,24 185,24 185.6,23.8 C186.2,23.6 186.7,24 186.4,24.6 C186.1,25.3 185.4,26.8 185.2,27.2 C185,27.5 185.3,27.8 185.5,27.6 C185.8,27.4 187.4,26.3 188,26.3 C188.5,26.4 188.6,26.9 188.3,27.6 C188.1,28.3 188.2,28.1 188.4,28.7 C188.6,29.3 188.3,29.6 188.1,30 C187.9,30.4 188,30.6 188,31.3 C188,32 187.7,32.2 187.1,32 C186.5,31.8 185.6,30.9 185.4,30.6 C185.2,30.3 184.9,30.1 184.7,30.2 C184.5,30.3 184.2,30.3 184.2,30.6 C184.1,30.9 184.1,31.3 184.6,32.5 C185.1,33.7 186.7,34.3 188,34 C188.9,33.8 189.3,33.2 189.6,32.5 C189.1,32.2 188.8,31.5 189,30.7 C189.2,29.8 189.9,29.2 190.6,29.3 C191.3,29.4 191.7,30.3 191.5,31.2 C191.3,31.9 190.8,32.5 190.3,32.6 C190.4,33.5 191.1,34.3 192.3,34.4 C193.6,34.5 194,34.1 194.6,33.5 C195.2,32.9 195.5,32.2 195.5,31.9 C195.5,31.6 195.1,31.3 194.6,31.8 C194,32.3 193.1,32.7 192.7,32.6 C192.3,32.5 192.4,31.5 192.6,31.3 C192.8,31.1 193,30.9 192.8,30.3 C192.7,29.7 192.9,29.2 193.3,28.8 C193.6,28.4 193.6,28.2 193.6,27.8 C193.6,27.4 194,27 194.4,27.2 C194.8,27.4 195.3,28.1 195.4,28.5 C195.5,28.9 195.7,29 195.9,28.9 C196,28.8 196,28.6 195.9,27.6 C195.8,26.6 195.7,25.7 196,25.6 C196.3,25.4 196.6,25.6 196.8,25.8 C197,25.9 197.2,26.1 197.6,26 C198,25.9 198.3,26.1 198.5,26.3 C198.6,26.5 198.8,26.7 199.2,26.7 C199.6,26.7 200.1,26.8 200.1,27.3 C200,27.9 199.6,28.2 198.9,28.9 C198.2,29.6 198.2,29.6 198.4,29.8 C198.5,29.9 198.6,29.9 199.4,29.7 C200.2,29.5 200.7,29.4 200.8,29.8 C200.9,30.2 200.6,30.7 200.3,31 C200.1,31.2 200.2,31.4 200.2,32 C200.2,32.6 199.9,32.7 199.7,32.8 C199.5,32.9 199.3,32.9 199.3,33.1 C199.3,33.3 199.2,33.6 199,34 C198.7,34.4 198.4,34.5 198.2,34.3 C198,34 197.7,33.2 197.6,32.7 C197.5,32.2 197,32.3 196.8,32.4 C196.5,32.6 196.5,32.9 196.4,34.1 C196.4,35.3 197.1,36 198,36.1 C198.9,36.3 199.5,36 200,35.3 C200.1,35.2 200.2,35.1 200.2,35 C199.9,34.7 199.9,34 200.2,33.3 C200.6,32.6 201.3,32.2 201.8,32.5 C202.3,32.8 202.4,33.6 202,34.3 C201.7,34.9 201.1,35.3 200.6,35.2 C200.5,35.5 200.5,35.8 200.6,36 C200.7,36.4 201.4,37.2 201.9,37.2 C202.4,37.3 202.9,37.3 203.3,37.2 C203.7,37.1 204.1,36.7 204.5,36.3 C204.9,35.9 204.7,35.8 204.5,35.7 C204.2,35.6 203.7,35.6 203.1,35.8 C202.5,36 202.7,36.7 202.5,36.6 C202.3,36.5 202.2,36.2 202.2,35.7 C202.2,35.2 202.4,35 202.8,34.7 C203.1,34.4 203.2,34.3 203.2,34.1 C203.2,33.9 203.1,33.4 203.5,32.8 C203.9,32.2 204.4,32.3 204.7,32.2 C205,32.2 204.8,32 204.9,31.6 C205.1,31.2 205.4,30.8 205.8,30.7 C206.2,30.6 206.2,30.7 206.1,30.9 C205.9,31 205.9,31.4 205.9,32 C206,32.6 206.4,32.9 206.7,32.7 C207,32.5 207.6,31.5 208.4,31 C209.2,30.5 209.9,30.8 210.2,31 C210.5,31.2 210.6,31.4 210.5,31.4 C210.3,31.4 210.1,31.3 209.6,31.4 C209.1,31.6 208.6,32.1 208.1,32.6 C207.6,33.1 207.7,33.1 207.6,33.7 C207.5,34.2 207.6,34.7 207.3,35.3 C206.9,36 206,36 205.7,36.2 C205.3,36.4 204.7,37.5 204.7,37.5 L183.2,37.5 L183.2,37.5 Z M160.5,30.5 C161.1,29.8 161.5,29.7 161.5,29.7 C161.5,29.7 160.8,27.6 160.9,25.7 C161,23.8 161.9,21.3 166.4,20.5 C166.4,20.5 166.3,19.8 166.9,19.4 C166.9,19.4 165.1,19.5 163.2,20.4 C161.5,21.4 158.4,23.7 160.5,30.5 L160.5,30.5 Z M180.7,22.9 C181.2,22.7 181.8,22.8 181.8,22.8 C181.8,22.8 181.3,21.4 181.4,19.4 C181.6,17.4 182.1,16.1 182.1,16.1 C182.1,16.1 181.7,16.1 181,16.4 C180.3,16.7 179.3,16.8 177,16.8 C174.7,16.8 172.8,17.2 171.7,18.9 C170.5,20.6 170.9,22.9 171.5,24.2 C172.1,25.5 172.1,26.7 172.1,26.7 C172.1,26.7 172.4,26.2 173.1,26.2 C173.1,26.2 173.3,25.4 172.7,24 C172.1,22.6 171.9,20.8 172.4,19.9 C172.8,19 173.7,18.2 175.6,17.9 C177.5,17.6 178.2,17.8 179.3,17.8 C180.4,17.8 180.8,17.5 180.8,17.5 C180.8,17.5 179.8,19.1 180.7,22.9 L180.7,22.9 Z M162.3,35.7 C162.5,35.6 162.3,35.4 162.1,35.1 C162,34.8 162,34.6 162.2,34.5 C162.4,34.3 162.5,34.3 162.6,34.3 C162.7,34.3 162.7,34.1 162.4,34.1 C162.1,34.1 162,34.1 161.8,34.3 C161.6,34.5 161.5,34.3 161.3,34.1 C161.1,33.8 160.6,33.4 160.5,33.3 C160.4,33.2 160.5,33.4 160.6,33.9 C160.7,34.4 160.8,34.9 161.3,35.2 C161.8,35.6 162.1,35.7 162.3,35.7 L162.3,35.7 Z M170.9,31.4 C170.7,31.5 170.6,31.2 170.3,30.8 C170,30.5 170,30.4 169.7,30.4 C169.4,30.4 169.2,30.6 169.1,30.8 C169,30.9 168.7,30.7 168.9,30.4 C169,30.1 169.3,29.9 169.6,29.8 C169.8,29.7 170,29.7 169.7,29.2 C169.4,28.7 169.4,28.1 169.4,27.6 C169.3,27.1 169.5,27 169.6,27.1 C169.7,27.2 170.1,27.5 170.4,28.2 C170.7,28.9 170.8,29.3 170.8,29.4 C170.8,29.5 171,29.2 171.2,29.2 C171.4,29.1 171.8,29.2 171.9,29.4 C172.1,29.6 172.1,29.7 171.8,29.7 C171.5,29.7 171.3,29.8 171.1,29.9 C170.9,30 170.8,30.3 170.9,30.7 C171.1,31.2 171.2,31.4 170.9,31.4 L170.9,31.4 Z M183.2,25.3 C182.9,25.3 182.6,26.5 182.7,27.3 C182.7,28.1 182.6,27.7 182.1,27.8 C181.6,27.9 181.4,28.3 181.3,28.4 C181.2,28.6 181.5,28.5 181.8,28.4 C182.1,28.3 182.4,28.3 182.6,28.3 C182.8,28.3 182.8,28.3 182.9,28.7 C183,29.1 182.9,29.5 183.3,29.5 L183.3,25.3 L183.2,25.3 Z M208.4,27.6 C207.7,27.6 207.2,28.1 207.2,28.8 C207.2,29.5 207.7,30 208.4,30 C209.1,30 209.6,29.5 209.6,28.8 C209.6,28.1 209,27.6 208.4,27.6 L208.4,27.6 Z M209,24.1 C208.2,24.1 207.6,24.7 207.6,25.5 C207.6,26.3 208.2,26.9 209,26.9 C209.8,26.9 210.4,26.3 210.4,25.5 C210.4,24.7 209.8,24.1 209,24.1 L209,24.1 Z M207.8,20.9 C207.1,20.9 206.5,21.5 206.5,22.2 C206.5,22.9 207.1,23.5 207.8,23.5 C208.5,23.5 209.1,22.9 209.1,22.2 C209.1,21.4 208.6,20.9 207.8,20.9 L207.8,20.9 Z M205.6,18.6 C204.9,18.6 204.4,19.1 204.4,19.8 C204.4,20.5 204.9,21 205.6,21 C206.3,21 206.8,20.5 206.8,19.8 C206.8,19.2 206.2,18.6 205.6,18.6 L205.6,18.6 Z M202.9,17.4 C202.3,17.4 201.8,17.9 201.8,18.5 C201.8,19.1 202.3,19.6 202.9,19.6 C203.5,19.6 204,19.1 204,18.5 C204,17.9 203.5,17.4 202.9,17.4 L202.9,17.4 Z M200,16.7 C199.4,16.7 198.9,17.2 198.9,17.8 C198.9,18.4 199.4,18.9 200,18.9 C200.6,18.9 201.1,18.4 201.1,17.8 C201.1,17.2 200.6,16.7 200,16.7 L200,16.7 Z M197.2,22.6 C196.5,22.6 196,23.1 196,23.8 C196,24.5 196.5,25 197.2,25 C197.9,25 198.4,24.5 198.4,23.8 C198.4,23.1 197.9,22.6 197.2,22.6 L197.2,22.6 Z M197.6,19.4 C196.9,19.4 196.3,20 196.3,20.7 C196.3,21.4 196.9,22 197.6,22 C198.3,22 198.9,21.4 198.9,20.7 C198.9,20 198.3,19.4 197.6,19.4 L197.6,19.4 Z M196.5,16.7 C195.8,16.7 195.3,17.2 195.3,17.9 C195.3,18.6 195.8,19.1 196.5,19.1 C197.2,19.1 197.7,18.6 197.7,17.9 C197.7,17.3 197.1,16.7 196.5,16.7 L196.5,16.7 Z M194.3,14.8 C193.6,14.8 193.1,15.3 193.1,16 C193.1,16.7 193.6,17.2 194.3,17.2 C195,17.2 195.5,16.7 195.5,16 C195.5,15.4 194.9,14.8 194.3,14.8 L194.3,14.8 Z M191.7,14.3 C191.2,14.3 190.7,14.7 190.7,15.3 C190.7,15.8 191.1,16.3 191.7,16.3 C192.2,16.3 192.7,15.9 192.7,15.3 C192.7,14.7 192.2,14.3 191.7,14.3 L191.7,14.3 Z M189.2,14.2 C188.7,14.2 188.3,14.6 188.3,15.1 C188.3,15.6 188.7,16 189.2,16 C189.7,16 190.1,15.6 190.1,15.1 C190,14.6 189.6,14.2 189.2,14.2 L189.2,14.2 Z M187,14.4 C186.6,14.4 186.3,14.7 186.3,15.1 C186.3,15.5 186.6,15.8 187,15.8 C187.4,15.8 187.7,15.5 187.7,15.1 C187.7,14.7 187.4,14.4 187,14.4 L187,14.4 Z M205.9,30.5 C205.3,29.8 204.9,29.7 204.9,29.7 C204.9,29.7 205.6,27.6 205.5,25.7 C205.4,23.8 204.5,21.3 200,20.5 C200,20.5 200.1,19.8 199.5,19.4 C199.5,19.4 201.3,19.5 203.2,20.4 C204.9,21.4 208,23.7 205.9,30.5 L205.9,30.5 Z M185.7,22.9 C185.2,22.7 184.6,22.8 184.6,22.8 C184.6,22.8 185.1,21.4 185,19.4 C184.8,17.4 184.3,16.1 184.3,16.1 C184.3,16.1 184.7,16.1 185.4,16.4 C186.1,16.7 187.1,16.8 189.4,16.8 C191.7,16.8 193.6,17.2 194.7,18.9 C195.9,20.6 195.5,22.9 194.9,24.2 C194.3,25.5 194.3,26.7 194.3,26.7 C194.3,26.7 194,26.2 193.3,26.2 C193.3,26.2 193.1,25.4 193.7,24 C194.3,22.6 194.5,20.8 194,19.9 C193.6,19 192.7,18.2 190.8,17.9 C188.9,17.6 188.2,17.8 187.1,17.8 C186,17.8 185.6,17.5 185.6,17.5 C185.6,17.5 186.6,19.1 185.7,22.9 L185.7,22.9 Z M204.1,35.7 C203.9,35.6 204.1,35.4 204.3,35.1 C204.4,34.8 204.4,34.6 204.2,34.5 C204,34.3 203.9,34.3 203.8,34.3 C203.7,34.3 203.7,34.1 204,34.1 C204.3,34.1 204.4,34.1 204.6,34.3 C204.8,34.5 204.9,34.3 205.1,34.1 C205.3,33.8 205.8,33.4 205.9,33.3 C206,33.2 205.9,33.4 205.8,33.9 C205.7,34.4 205.6,34.9 205.1,35.2 C204.6,35.6 204.3,35.7 204.1,35.7 L204.1,35.7 Z M195.5,31.4 C195.7,31.5 195.8,31.2 196.1,30.8 C196.4,30.5 196.4,30.4 196.7,30.4 C197,30.4 197.2,30.6 197.3,30.8 C197.4,30.9 197.7,30.7 197.5,30.4 C197.4,30.1 197.1,29.9 196.8,29.8 C196.6,29.7 196.4,29.7 196.7,29.2 C197,28.7 197,28.1 197,27.6 C197.1,27.1 196.9,27 196.8,27.1 C196.7,27.2 196.3,27.5 196,28.2 C195.7,28.9 195.6,29.3 195.6,29.4 C195.6,29.5 195.4,29.2 195.2,29.2 C195,29.1 194.6,29.2 194.5,29.4 C194.3,29.6 194.3,29.7 194.6,29.7 C194.9,29.7 195.1,29.8 195.3,29.9 C195.5,30 195.6,30.3 195.5,30.7 C195.3,31.2 195.2,31.4 195.5,31.4 L195.5,31.4 Z M183.2,25.3 C183.5,25.3 183.8,26.5 183.7,27.3 C183.7,28.1 183.8,27.7 184.3,27.8 C184.8,27.9 185,28.3 185.1,28.4 C185.2,28.6 184.9,28.5 184.6,28.4 C184.3,28.3 184,28.3 183.8,28.3 C183.6,28.3 183.6,28.3 183.5,28.7 C183.4,29.1 183.5,29.5 183.1,29.5 L183.1,25.3 L183.2,25.3 Z M183.2,20.7 C183.8,20.7 184.3,21.2 184.3,21.8 C184.3,22.4 183.8,22.9 183.2,22.9 C182.6,22.9 182.1,22.4 182.1,21.8 C182.1,21.1 182.6,20.7 183.2,20.7 L183.2,20.7 Z M183.2,18.1 C183.7,18.1 184.1,18.5 184.1,19 C184.1,19.5 183.7,19.9 183.2,19.9 C182.7,19.9 182.3,19.5 182.3,19 C182.2,18.6 182.7,18.1 183.2,18.1 L183.2,18.1 Z M183.2,16.1 C183.6,16.1 183.9,16.4 183.9,16.8 C183.9,17.2 183.6,17.5 183.2,17.5 C182.8,17.5 182.5,17.2 182.5,16.8 C182.4,16.5 182.8,16.1 183.2,16.1 L183.2,16.1 Z M183.2,6.5 C185.6,6.5 187.5,8.4 187.5,10.8 C187.5,13.2 185.6,15.1 183.2,15.1 C180.8,15.1 178.9,13.2 178.9,10.8 C178.9,8.4 180.8,6.5 183.2,6.5 L183.2,6.5 Z M187.5,10.3 L187.5,10.8 C187.5,11.1 187.5,11.5 187.4,11.8 C185.9,11.5 184.5,11.4 183.2,11.4 C181.9,11.4 180.5,11.5 179,11.8 C178.9,11.5 178.9,11.2 178.9,10.8 L178.9,10.3 C180.2,10.1 181.3,10 182.5,9.9 L182.5,3.8 L180.3,4.5 L180.3,1.7 L182.5,2.4 L182.5,2.2 L181.7,0 L183.2,0 L184.7,0 L184,2.1 L184,2.4 L186.2,1.7 L186.2,4.5 L184,3.8 L184,9.9 C185.1,9.9 186.2,10 187.5,10.3 L187.5,10.3 Z" id="Shape"></path>
                <path d="M183.2,6.5 C183.4,6.5 183.7,6.5 183.9,6.6 L183.9,9.9 C185,9.9 186.2,10.1 187.5,10.3 L187.5,10.3 L187.5,10.3 L187.5,10.3 L187.5,10.3 L187.5,10.3 L187.5,10.3 L187.5,10.3 L187.5,10.3 L187.5,10.3 L187.5,10.3 L187.5,10.3 L187.5,10.3 L187.5,10.3 L187.5,10.3 L187.5,10.3 L187.5,10.3 L187.5,10.3 L187.5,10.3 L187.5,10.3 L187.5,10.3 L187.5,10.3 L187.5,10.3 L187.5,10.4 L187.5,10.4 L187.5,10.4 L187.5,10.4 L187.5,10.4 L187.5,10.4 L187.5,10.4 L187.5,10.4 L187.5,10.4 L187.5,10.4 L187.5,10.4 L187.5,10.5 L187.5,10.5 L187.5,10.5 L187.5,10.5 L187.5,10.5 L187.5,10.5 L187.5,10.6 L187.5,10.6 L187.5,10.6 L187.5,10.7 L187.5,10.7 L187.5,10.7 L187.5,10.7 L187.5,10.8 L187.5,10.8 L187.5,10.8 L187.5,10.8 L187.5,10.8 L187.5,10.8 L187.5,10.8 L187.5,10.8 L187.5,10.8 L187.5,10.8 L187.5,10.8 L187.5,10.8 L187.5,10.9 L187.5,10.9 L187.5,10.9 L187.5,10.9 L187.5,10.9 L187.5,10.9 L187.5,10.9 L187.5,10.9 L187.5,10.9 L187.5,10.9 L187.5,10.9 L187.5,10.9 L187.5,10.9 L187.5,10.9 L187.5,10.9 L187.5,10.9 L187.5,10.9 L187.5,10.9 L187.5,10.9 L187.5,10.9 L187.5,10.9 L187.5,10.9 L187.5,10.9 L187.5,10.9 L187.5,10.9 L187.5,10.9 L187.5,10.9 L187.5,10.9 L187.5,10.9 L187.5,10.9 L187.5,10.9 L187.5,10.9 L187.5,10.9 L187.5,10.9 L187.5,10.9 L187.5,10.9 L187.5,10.9 L187.5,10.9 L187.5,10.9 C186,10.6 184.6,10.5 183.3,10.5 C182,10.5 180.6,10.6 179.1,10.9 L179.1,10.9 L179.1,10.9 L179.1,10.9 L179.1,10.9 L179.1,10.9 L179.1,10.9 L179.1,10.9 L179.1,10.9 L179.1,10.9 L179.1,10.9 L179.1,10.9 L179.1,10.9 L179.1,10.9 L179.1,10.9 L179.1,10.9 L179.1,10.9 L179.1,10.9 L179.1,10.9 L179.1,10.9 L179.1,10.9 L179.1,10.9 L179.1,10.9 L179.1,10.9 L179.1,10.9 L179.1,10.9 L179.1,10.9 L179.1,10.9 L179.1,10.9 L179.1,10.9 L179.1,10.9 L179.1,10.9 L179.1,10.9 L179.1,10.9 L179.1,10.9 L179.1,10.9 L179.1,10.9 L179.1,10.9 L179.1,10.9 L179.1,10.8 L179.1,10.8 L179.1,10.8 L179.1,10.8 L179.1,10.8 L179.1,10.8 L179.1,10.8 L179.1,10.8 L179.1,10.8 L179.1,10.8 L179.1,10.8 L179.1,10.8 L179.1,10.7 L179.1,10.7 L179.1,10.7 L179.1,10.7 L179.1,10.6 L179.1,10.6 L179.1,10.6 L179.1,10.5 L179.1,10.5 L179.1,10.5 L179.1,10.5 L179.1,10.5 L179.1,10.5 L179.1,10.4 L179.1,10.4 L179.1,10.4 L179.1,10.4 L179.1,10.4 L179.1,10.4 L179.1,10.4 L179.1,10.4 L179.1,10.4 L179.1,10.4 L179.1,10.4 L179.1,10.3 L179.1,10.3 L179.1,10.3 L179.1,10.3 L179.1,10.3 L179.1,10.3 L179.1,10.3 L179.1,10.3 L179.1,10.3 L179.1,10.3 L179.1,10.3 L179.1,10.3 L179.1,10.3 L179.1,10.3 L179.1,10.3 L179.1,10.3 L179.1,10.3 L179.1,10.3 L179.1,10.3 L179.1,10.3 L179.1,10.3 L179.1,10.3 L179.1,10.3 C180.4,10.1 181.5,10 182.7,9.9 L182.7,6.6 C182.7,6.5 182.9,6.5 183.2,6.5 L183.2,6.5 Z" id="Shape"></path>
                <polygon id="Shape" points="183.2 141.5 185.6 148.9 193.4 148.9 187.1 153.5 189.5 160.9 183.2 156.3 176.9 160.9 179.3 153.5 173 148.9 180.8 148.9"></polygon>
                <path d="M101.6,40.2 L101.6,41.8 L104.8,41.8 L104.8,43 L101.6,43 L101.6,46.3 L100.2,46.3 L100.2,38.9 L106.9,38.9 L106.9,40.1 L101.6,40.1 L101.6,40.2 Z M113.7,46.5 C112.6,46.5 111.5,46.2 110.6,45.4 C109.8,44.7 109.4,43.7 109.4,42.6 C109.4,41.5 109.8,40.6 110.6,39.8 C111.5,39 112.5,38.7 113.7,38.7 C114.9,38.7 115.9,39 116.8,39.8 C117.6,40.5 118,41.5 118,42.6 C118,43.7 117.6,44.6 116.8,45.4 C115.9,46.2 114.9,46.5 113.7,46.5 L113.7,46.5 Z M113.7,45.3 C114.5,45.3 115.2,45.1 115.8,44.6 C116.3,44.1 116.6,43.5 116.6,42.7 C116.6,42 116.3,41.3 115.8,40.8 C115.2,40.3 114.5,40.1 113.7,40.1 C112.9,40.1 112.2,40.3 111.7,40.8 C111.2,41.3 110.9,41.9 110.9,42.7 C110.9,43.4 111.2,44.1 111.7,44.6 C112.2,45 112.9,45.3 113.7,45.3 L113.7,45.3 Z M127.5,43.8 L127.5,38.9 L128.9,38.9 L128.9,46.3 L128.1,46.3 L123.3,41.4 L123.3,46.3 L121.9,46.3 L121.9,38.9 L122.7,38.9 L127.5,43.8 L127.5,43.8 Z M137,38.9 C138.1,38.9 139.3,39.2 140.1,39.9 C140.9,40.6 141.3,41.5 141.3,42.6 C141.3,43.7 140.9,44.6 140.1,45.3 C139.2,46.1 138.1,46.3 136.9,46.3 L133.3,46.3 L133.3,38.9 L137,38.9 L137,38.9 Z M134.9,40.2 L134.9,45.1 L137.1,45.1 C137.9,45.1 138.7,44.9 139.2,44.4 C139.7,43.9 140,43.3 140,42.6 C140,41.9 139.8,41.3 139.2,40.8 C138.6,40.3 137.8,40.1 137.1,40.1 L134.9,40.1 L134.9,40.2 Z M146.7,40.2 L146.7,41.8 L149.9,41.8 L149.9,43 L146.7,43 L146.7,45.1 L152.2,45.1 L152.2,46.3 L145.2,46.3 L145.2,38.9 L151.9,38.9 L151.9,40.1 L146.7,40.1 L146.7,40.2 Z M148.6,38.5 L147.4,38.5 L149.2,35.8 L150.9,35.8 L148.6,38.5 L148.6,38.5 Z M215.4,40.2 L215.4,41.8 L218.6,41.8 L218.6,43 L215.4,43 L215.4,45.1 L220.9,45.1 L220.9,46.3 L213.9,46.3 L213.9,38.9 L220.6,38.9 L220.6,40.1 L215.4,40.1 L215.4,40.2 Z M230,43.8 L230,38.9 L231.4,38.9 L231.4,46.3 L230.6,46.3 L225.8,41.4 L225.8,46.3 L224.4,46.3 L224.4,38.9 L225.2,38.9 L230,43.8 L230,43.8 Z M241,46.4 L241,39.3 L242.3,39.3 L242.3,46.4 L241,46.4 L241,46.4 Z M251.5,40.5 L246.8,40.5 L246.8,39.2 L253.9,39.2 L249.1,46.3 L247.6,46.3 L251.5,40.5 L251.5,40.5 Z M259.5,44.7 L254.4,44.7 L254.4,43.6 L259.6,39.3 L260.7,39.3 L260.7,43.5 L261.8,43.5 L261.8,44.8 L260.7,44.8 L260.7,46.4 L259.4,46.4 L259.4,44.7 L259.5,44.7 Z M256.6,43.5 L259.5,43.5 L259.5,41 L256.6,43.5 L256.6,43.5 Z M269.1,42.4 C269.3,42.5 269.5,42.7 269.7,43 C269.9,43.3 270,43.7 270,44.1 C270,44.9 269.6,45.5 269,45.9 C268.3,46.4 267.4,46.6 266.6,46.6 C265.9,46.6 265.2,46.5 264.5,46.2 C263.8,45.9 263.3,45.5 262.8,45 L262.7,44.9 L263.5,43.9 L263.7,44.1 C264.1,44.5 264.6,44.9 265.1,45.1 C265.6,45.3 266.1,45.4 266.6,45.4 C267.2,45.4 267.7,45.3 268.2,45 C268.5,44.8 268.8,44.5 268.8,44.2 C268.8,43.9 268.7,43.7 268.4,43.5 C268,43.3 267.4,43.2 266.9,43.2 L266.4,43.2 L266.4,41.9 L266.6,41.9 L266.8,41.9 L267,41.9 C267.3,41.9 267.8,41.9 268,41.7 C268.2,41.6 268.3,41.4 268.3,41.2 C268.3,40.9 268.2,40.8 268,40.6 C267.7,40.4 267.3,40.3 266.9,40.3 C266.5,40.3 266.1,40.4 265.7,40.5 C265.3,40.7 264.8,40.9 264.5,41.2 L264.3,41.3 L263.6,40.2 L263.8,40.1 C264.3,39.7 264.8,39.5 265.3,39.3 C265.9,39.1 266.4,39 267,39 C267.7,39 268.4,39.1 268.9,39.6 C269.4,40 269.6,40.5 269.6,41.1 C269.6,41.4 269.6,41.6 269.4,41.9 C269.2,42.1 269.2,42.3 269.1,42.4 L269.1,42.4 Z" id="Shape"></path>
                <path d="M82.4,115.6 L82.6,115.7 L84.1,113 L83.9,112.9 C83.7,113.1 83.6,113.2 83.4,113.2 C83,113.2 80.9,111.8 77.8,111.8 C73.5,111.8 70.7,114.7 70.7,118.3 C70.7,122 73.5,124.8 78,124.8 C79.8,124.8 81.3,124.4 82.9,123.4 C83.5,123 83.9,122.7 84,122.7 C84.1,122.7 84.3,122.8 84.5,122.9 L84.7,122.7 L82.7,120.2 L82.5,120.4 C82.6,120.6 82.6,120.7 82.6,120.8 C82.6,121.2 80.7,122.9 78,122.9 C74.8,122.9 72.7,121 72.7,118.1 C72.7,115.3 74.7,113.3 78,113.3 C79.2,113.3 80.4,113.6 81.7,114.3 C82.3,114.6 82.6,114.8 82.6,115.1 C82.4,115.4 82.4,115.5 82.4,115.6 L82.4,115.6 Z M97.3,124.6 L100.4,124.6 L100.4,124.3 C99.9,124.2 99.8,124.1 99.8,123.6 L99.8,119 L108.1,119 L108.1,123.7 C108.1,124.2 108,124.3 107.5,124.4 L107.5,124.7 L110.6,124.7 L110.6,124.4 C110.1,124.3 110,124.2 110,123.7 L110,113 C110,112.5 110.1,112.4 110.6,112.3 L110.6,112 L107.5,112 L107.5,112.3 C108,112.4 108.1,112.6 108.1,113 L108.1,117.4 L99.8,117.4 L99.8,113 C99.8,112.5 99.9,112.4 100.4,112.3 L100.4,112 L97.3,112 L97.3,112.3 C97.8,112.4 97.9,112.6 97.9,113 L97.9,123.6 C97.9,124.1 97.8,124.2 97.3,124.3 L97.3,124.6 L97.3,124.6 Z M123.5,124.6 L126.5,124.6 L126.5,124.3 C126.3,124.2 126.2,124.1 126.2,123.9 C126.2,123.7 126.3,123.5 126.4,123.3 L127.3,121.3 L133.9,121.3 L134.8,123.3 C134.9,123.6 135,123.8 135,123.9 C135,124.1 134.9,124.2 134.7,124.3 L134.7,124.6 L138,124.6 L138,124.3 C137.5,124.1 137.2,123.7 136.9,123.1 L132.2,113.2 C132.1,112.9 132,112.7 132,112.6 C132,112.4 132.1,112.3 132.3,112.2 L132.3,112 L128.9,112 L128.9,112.3 C129.1,112.4 129.2,112.5 129.2,112.7 C129.2,112.9 129.1,113.1 129,113.3 L124.5,123.3 C124.3,123.8 124.1,124.1 123.5,124.3 L123.5,124.6 L123.5,124.6 Z M128,119.6 L130.5,114.1 L133,119.6 L128,119.6 L128,119.6 Z M152.9,123.6 L152.9,114 L158.2,124.1 L163.2,113.7 L163.2,123.5 C163.2,124 163.1,124.1 162.6,124.2 L162.6,124.5 L165.7,124.5 L165.7,124.2 C165.2,124.1 165.1,124 165.1,123.5 L165.1,113 C165.1,112.5 165.2,112.4 165.7,112.3 L165.7,112 L161.5,112 L161.5,112.3 C161.8,112.4 162,112.5 162,112.8 C162,112.8 162,113 161.9,113.2 L158.2,120.7 L154.4,113.2 C154.3,113 154.2,112.9 154.2,112.8 C154.2,112.6 154.3,112.4 154.7,112.3 L154.7,112 L150.8,112 L150.8,112.3 C151.3,112.4 151.4,112.6 151.4,113 L151.4,123.6 C151.4,124.1 151.3,124.2 150.8,124.3 L150.8,124.6 L153.5,124.6 L153.5,124.3 C153,124.2 152.9,124.1 152.9,123.6 L152.9,123.6 Z M186.5,113.7 C189,113.7 190.3,114.1 190.3,115.5 C190.3,116.8 189.1,117.4 186.6,117.4 L182.9,117.4 L182.9,113.7 L186.5,113.7 L186.5,113.7 Z M187,112 L180.3,112 L180.3,112.3 C180.8,112.4 180.9,112.6 180.9,113 L180.9,123.6 C180.9,124.1 180.8,124.2 180.3,124.3 L180.3,124.6 L183.4,124.6 L183.4,124.3 C182.9,124.2 182.8,124.1 182.8,123.6 L182.8,119.2 L186.6,119.2 C190.3,119.2 192.1,118.2 192.1,115.7 C192.2,113.4 190.4,112 187,112 L187,112 Z M202.4,124.6 L205.4,124.6 L205.4,124.3 C205.2,124.2 205.1,124.1 205.1,123.9 C205.1,123.7 205.2,123.5 205.3,123.3 L206.2,121.3 L212.8,121.3 L213.7,123.3 C213.8,123.6 213.9,123.8 213.9,123.9 C213.9,124.1 213.8,124.2 213.6,124.3 L213.6,124.6 L216.9,124.6 L216.9,124.3 C216.4,124.1 216.1,123.7 215.8,123.1 L211.1,113.2 C211,112.9 210.9,112.7 210.9,112.6 C210.9,112.4 211,112.3 211.2,112.2 L211.2,112 L207.8,112 L207.8,112.3 C208,112.4 208.1,112.5 208.1,112.7 C208.1,112.9 208,113.1 207.9,113.3 L203.4,123.3 C203.2,123.8 203,124.1 202.4,124.3 L202.4,124.6 L202.4,124.6 Z M206.9,119.6 L209.4,114.1 L211.9,119.6 L206.9,119.6 L206.9,119.6 Z M242.6,122.3 L242.6,121.9 L242.1,121.7 L242.1,119.1 C242.1,118.6 242.2,118.5 242.7,118.4 L242.7,118.1 L236.9,118.1 C236.4,118.1 236.3,118 236.2,117.5 L235.9,117.5 L235.9,120.3 L236.2,120.3 C236.3,119.8 236.4,119.7 236.9,119.7 L240.2,119.7 L240.2,121.6 C238.8,122.5 237.4,122.9 235.9,122.9 C232.8,122.9 230.6,121 230.6,118.1 C230.6,115.3 232.6,113.3 235.9,113.3 C237.1,113.3 238.3,113.6 239.5,114.3 C240.1,114.6 240.4,114.8 240.4,115.2 C240.4,115.3 240.4,115.4 240.3,115.5 L240.5,115.6 L242,112.9 L241.8,112.8 C241.6,113 241.5,113.1 241.3,113.1 C240.9,113.1 238.8,111.7 235.7,111.7 C231.4,111.7 228.6,114.6 228.6,118.2 C228.6,121.9 231.4,124.7 235.9,124.7 C238.4,124.8 240.5,124 242.6,122.3 L242.6,122.3 Z M266.3,124.6 L269.7,124.6 L269.7,124.3 C269.2,124.2 269.1,124.1 269.1,123.6 L269.1,113 C269.1,112.5 269.2,112.4 269.7,112.3 L269.7,112 L267,112 L267,112.3 C267.5,112.4 267.6,112.6 267.6,113 L267.6,121.3 L260.1,113.1 C260,113 260,112.9 260,112.7 C260,112.5 260.1,112.3 260.5,112.2 L260.5,112 L256.2,112 L256.2,112.3 C256.7,112.4 256.8,112.6 256.8,113 L256.8,123.6 C256.8,124.1 256.7,124.2 256.2,124.3 L256.2,124.6 L258.9,124.6 L258.9,124.3 C258.4,124.2 258.3,124.1 258.3,123.6 L258.3,114 L266.7,123.4 C266.8,123.5 266.8,123.6 266.8,123.8 C266.8,124 266.7,124.2 266.3,124.3 L266.3,124.6 L266.3,124.6 Z M294.8,123 L286.7,123 L286.7,118.9 L291.7,118.9 C292.2,118.9 292.3,119 292.4,119.5 L292.7,119.5 L292.7,116.8 L292.4,116.8 C292.3,117.3 292.1,117.4 291.7,117.4 L286.7,117.4 L286.7,113.6 L294.3,113.6 C294.8,113.6 294.9,113.7 295,114.2 L295.2,114.2 L295.2,111.5 L295,111.5 C294.9,112 294.7,112.1 294.3,112.1 L284.2,112.1 L284.2,112.4 C284.7,112.5 284.8,112.7 284.8,113.1 L284.8,123.7 C284.8,124.1 284.7,124.3 284.2,124.4 L284.2,124.7 L294.9,124.7 C295.4,124.7 295.5,124.8 295.6,125.3 L295.9,125.3 L295.9,122.6 L295.6,122.6 C295.4,122.9 295.3,123 294.8,123 L294.8,123 Z" id="Shape" fill-rule="nonzero"></path>
            </g>
        </g>
    </g>
</svg>
