<?xml version="1.0" encoding="UTF-8" standalone="no"?>
<svg width="754px" height="168px" viewBox="0 0 754 168" version="1.1" xmlns="http://www.w3.org/2000/svg" xmlns:xlink="http://www.w3.org/1999/xlink" xmlns:sketch="http://www.bohemiancoding.com/sketch/ns">
    <!-- Generator: Sketch 3.5.1 (25234) - http://www.bohemiancoding.com/sketch -->
    <title>veep-lockup</title>
    <desc>Created with Sketch.</desc>
    <defs></defs>
    <g id="Page-1" stroke="none" stroke-width="1" fill="none" fill-rule="evenodd" sketch:type="MSPage">
        <g id="veep-lockup" sketch:type="MSLayerGroup">
            <path d="M283.8,0.4 L290.1,0.4 L290.1,141.4 L283.8,141.4 L283.8,0.4 Z" id="Shape" fill="#FFFFFF" sketch:type="MSShapeGroup"></path>
            <g id="veep-lockup-logo" transform="translate(0.000000, 24.000000)" sketch:type="MSShapeGroup">
                <path d="M125.145,0.48372093 C133.0425,0.48372093 155.52,4.77674419 155.52,26.7860465 C155.52,44.5023256 147.015,49.7627907 140.3325,50.972093 C135.4725,51.8790698 154.305,50.972093 154.305,73.1627907 C154.305,104.604651 126.9675,103.395349 126.9675,103.395349 L81.405,103.395349 L81.405,0.48372093 L125.145,0.48372093 L125.145,0.48372093 Z M106.92,25.5767442 L106.92,41.1162791 L122.1075,41.1162791 C122.1075,41.1162791 128.1825,40.3906977 128.1825,32.9534884 C128.1825,25.5162791 122.1075,25.5767442 122.1075,25.5767442 L106.92,25.5767442 L106.92,25.5767442 Z M106.92,63.4883721 L106.92,79.2093023 L122.1075,79.2093023 C122.1075,79.2093023 128.1825,78.6046512 128.1825,70.744186 C128.1825,63.4883721 122.1075,63.4883721 122.1075,63.4883721 L106.92,63.4883721 L106.92,63.4883721 Z M0,0.48372093 L0,103.395349 L28.5525,103.395349 L28.5525,65.3023256 L46.7775,65.3023256 L46.7775,103.395349 L75.33,103.395349 L75.33,0.48372093 L46.7775,0.48372093 L46.7775,39.3023256 L28.5525,39.3023256 L28.5525,0.48372093 L0,0.48372093 L0,0.48372093 Z" id="path3" fill="#FFFFFF"></path>
                <ellipse id="Oval" stroke="#FFFFFF" stroke-width="26.73" cx="203.5125" cy="52" rx="39.4875" ry="39.3023256"></ellipse>
                <ellipse id="Oval" fill="#FFFFFF" cx="203.5125" cy="52" rx="21.2625" ry="21.1627907"></ellipse>
            </g>
            <g id="veep-lockup-project" transform="translate(322.000000, 21.000000)" fill="#FFFFFF" sketch:type="MSShapeGroup">
                <path d="M33,3.5 L56.9,65.3 L81,3.5 L113.6,3.5 L69.1,101.8 L44.2,101.8 L0.3,3.5 L33,3.5 L33,3.5 Z M135,60.2 C135.6,72 140.5,82 156.8,82 C167.6,82 172.9,77.1 175,70.8 L205.6,70.8 C202.7,89.4 185.2,104.5 157,104.5 C122.5,104.5 104,83.1 104,52.7 C104,23.9 122.2,0.9 156.2,0.9 C187,0.9 206.8,21.7 206.8,45.8 C206.8,49.9 206.8,54.4 205.8,60.3 L135,60.2 L135,60.2 Z M135,42.2 L176.2,42.2 C176.2,29.6 167.8,21.6 156,21.6 C143.8,21.6 135,29 135,42.2 L135,42.2 Z M242.3,60.2 C242.9,72 247.8,82 264.1,82 C274.9,82 280.2,77.1 282.3,70.8 L312.9,70.8 C310,89.4 292.5,104.5 264.3,104.5 C229.8,104.5 211.3,83.1 211.3,52.7 C211.3,23.9 229.5,0.9 263.5,0.9 C294.3,0.9 314.1,21.7 314.1,45.8 C314.1,49.9 314.1,54.4 313.1,60.3 L242.3,60.2 L242.3,60.2 Z M242.3,42.2 L283.5,42.2 C283.5,29.6 275.1,21.6 263.3,21.6 C251.1,21.6 242.3,29 242.3,42.2 L242.3,42.2 Z M353.5,17.6 C358.2,8.6 370.8,1.1 383.7,1.1 C412.1,1.1 431.6,23.3 431.6,52.7 C431.6,82.1 412,104.3 383.7,104.3 C370.8,104.3 358.2,96.8 353.5,87.8 L353.5,146.3 L322.3,146.3 L322.3,3.5 L353.5,3.5 L353.5,17.6 L353.5,17.6 Z M353.5,52.7 C353.5,66.4 362.9,77.8 377.2,77.8 C391.1,77.8 400.5,66.4 400.5,52.7 C400.5,39 391.1,27.6 377.2,27.6 C362.8,27.6 353.5,39 353.5,52.7 L353.5,52.7 Z" id="Shape"></path>
            </g>
        </g>
    </g>
</svg>