<?xml version="1.0" encoding="UTF-8" standalone="no"?>
<svg width="1030px" height="168px" viewBox="0 0 1030 168" version="1.1" xmlns="http://www.w3.org/2000/svg" xmlns:xlink="http://www.w3.org/1999/xlink" xmlns:sketch="http://www.bohemiancoding.com/sketch/ns">
    <!-- Generator: Sketch 3.5.1 (25234) - http://www.bohemiancoding.com/sketch -->
    <title>winter-calendar-lockup</title>
    <desc>Created with Sketch.</desc>
    <defs></defs>
    <g id="Page-1" stroke="none" stroke-width="1" fill="none" fill-rule="evenodd" sketch:type="MSPage">
        <g id="winter-calendar-lockup" sketch:type="MSLayerGroup">
            <g id="winter-calendar-lockup-logo" transform="translate(0.000000, 26.000000)" sketch:type="MSShapeGroup">
                <rect id="Rectangle-path" fill="#FFFFFF" x="110.3" y="0.8" width="110.4" height="110.4"></rect>
                <rect id="Rectangle-path" fill="#FFFFFF" x="110.3" y="0.8" width="110.4" height="110.4"></rect>
                <rect id="Rectangle-path" fill="#000000" x="0" y="0.8" width="110.4" height="110.4"></rect>
                <path d="M73.7,64.8 C70.7,70.1 64.9,73.8 58.3,73.8 C48.5,73.8 40.5,65.9 40.5,56 C40.5,46.1 48.4,38.2 58.3,38.2 C64.9,38.2 70.6,41.8 73.7,47.2 L101,31.5 C92.5,16.7 76.5,6.7 58.2,6.7 C31,6.7 8.9,28.8 8.9,56 C8.9,83.2 31,105.3 58.2,105.3 C76.5,105.3 92.5,95.3 101,80.5 L73.7,64.8 L73.7,64.8 L73.7,64.8 Z" id="Shape" fill="#FFFFFF"></path>
                <path d="M212.9,103.3 L212.9,8.7 L181.3,8.7 L181.3,48.1 L149.8,8.7 L118.3,8.7 L118.3,103.3 L149.8,103.3 L149.8,63.9 L181.3,103.3 L212.9,103.3 L212.9,103.3 Z" id="Shape" fill="#000000"></path>
                <path d="M166.2,128.9 L167.8,132.6 L171.6,132.6 L174.1,119 L169.6,119 L168.5,125 L166.2,119.6 L163.9,125 L162.9,119 L158.3,119 L160.9,132.6 L164.7,132.6 L166.2,128.9 L166.2,128.9 Z" id="Shape" fill="#FFFFFF"></path>
                <path d="M157.2,119 L143.7,119 L143.7,123 L147.9,123 L147.9,132.6 L153,132.6 L153,123 L157.2,123 L157.2,119 L157.2,119 Z" id="Shape" fill="#FFFFFF"></path>
                <path d="M181.5,118.8 C177.6,118.8 174.4,122 174.4,125.9 C174.4,129.8 177.6,133 181.5,133 C185.4,133 188.6,129.8 188.6,125.9 C188.6,121.9 185.4,118.8 181.5,118.8 M181.5,128.4 C180.1,128.4 179,127.2 179,125.9 C179,124.6 180.2,123.4 181.5,123.4 C182.8,123.4 184,124.6 184,125.9 C184,127.2 182.9,128.4 181.5,128.4" id="Shape" fill="#FFFFFF"></path>
                <path d="M128.5,132.6 L128.5,119 L124,119 L124,124.7 L119.4,119 L115,119 L115,132.6 L119.4,132.6 L119.4,127 L124,132.6 L128.5,132.6 L128.5,132.6 Z" id="Shape" fill="#FFFFFF"></path>
                <path d="M142.2,123 L142.2,119 L130.4,119 L130.4,132.6 L142.2,132.6 L142.2,128.9 L134.9,128.9 L134.9,127.6 L141.1,127.6 L141.1,124.2 L134.9,124.2 L134.9,123 L142.2,123 L142.2,123 Z" id="Shape" fill="#FFFFFF"></path>
                <path d="M202.9,123.9 C202.9,121.4 201,119.1 197.8,119.1 L189.9,119.1 L189.9,132.6 L194.4,132.6 L194.4,128.6 L195.8,128.6 L197.7,132.6 L202.8,132.6 L200.1,128.1 C201.7,127.3 202.9,125.7 202.9,123.9 L202.9,123.9 L202.9,123.9 Z M194.4,123 L197.2,123 C197.8,123 198.4,123.5 198.4,124.2 C198.4,124.8 197.9,125.4 197.2,125.4 L194.4,125.4 L194.4,123 L194.4,123 L194.4,123 Z" id="Shape" fill="#FFFFFF"></path>
                <path d="M217.9,119 L212.1,119 L208.8,123.5 L208.8,119 L204.2,119 L204.2,132.6 L208.8,132.6 L208.8,127.6 L212.1,132.6 L217.9,132.6 L212.6,125.6 L217.9,119 L217.9,119 Z" id="Shape" fill="#FFFFFF"></path>
                <path d="M27.4,132.6 L32.2,132.6 L27.9,119.1 L21.1,119.1 L16.8,132.6 L21.6,132.6 L22.2,130.4 L26.5,130.4 L27.4,132.6 L27.4,132.6 L27.4,132.6 Z M23.4,127 L24.6,122.8 L25.8,127 L23.4,127 L23.4,127 L23.4,127 Z" id="Shape" fill="#FFFFFF"></path>
                <path d="M61.2,119.1 L47.7,119.1 L47.7,123 L51.9,123 L51.9,132.6 L57,132.6 L57,123 L61.2,123 L61.2,119.1 L61.2,119.1 Z" id="Shape" fill="#FFFFFF"></path>
                <path d="M13.1,127.2 C12.6,128.1 11.7,128.6 10.6,128.6 C9.1,128.6 7.8,127.4 7.8,125.8 C7.8,124.3 9,123 10.6,123 C11.6,123 12.5,123.6 13.1,124.4 L16.8,122.3 C15.6,120.2 13.3,118.8 10.7,118.8 C6.8,118.8 3.6,122 3.6,125.9 C3.6,129.8 6.8,133 10.7,133 C13.3,133 15.6,131.6 16.8,129.5 L13.1,127.2 L13.1,127.2 L13.1,127.2 Z" id="Shape" fill="#FFFFFF"></path>
                <path d="M68.8,118.8 C64.9,118.8 61.7,122 61.7,125.9 C61.7,129.8 64.9,133 68.8,133 C72.7,133 75.9,129.8 75.9,125.9 C75.8,121.9 72.7,118.8 68.8,118.8 M68.8,128.4 C67.4,128.4 66.3,127.2 66.3,125.9 C66.3,124.6 67.5,123.4 68.8,123.4 C70.1,123.4 71.3,124.6 71.3,125.9 C71.4,127.3 70.2,128.4 68.8,128.4" id="Shape" fill="#FFFFFF"></path>
                <path d="M84,118.8 C80.1,118.8 76.9,122 76.9,125.9 C76.9,129.8 80.1,133 84,133 C87.9,133 91.1,129.8 91.1,125.9 C91.1,121.9 87.9,118.8 84,118.8 M84,128.4 C82.6,128.4 81.5,127.2 81.5,125.9 C81.5,124.6 82.7,123.4 84,123.4 C85.4,123.4 86.5,124.6 86.5,125.9 C86.5,127.3 85.4,128.4 84,128.4" id="Shape" fill="#FFFFFF"></path>
                <path d="M105.9,132.6 L105.9,119.1 L101.4,119.1 L101.4,124.8 L96.9,119.1 L92.4,119.1 L92.4,132.6 L96.9,132.6 L96.9,127 L101.4,132.6 L105.9,132.6 L105.9,132.6 Z" id="Shape" fill="#FFFFFF"></path>
                <path d="M46.5,123.9 C46.5,121.4 44.6,119.1 41.4,119.1 L38,119.1 L35.2,119.1 L33.5,119.1 L33.5,132.6 L38,132.6 L38,128.6 L39.4,128.6 L41.3,132.6 L46.4,132.6 L43.7,128.1 C45.4,127.3 46.5,125.7 46.5,123.9 L46.5,123.9 L46.5,123.9 Z M38.1,123 L40.9,123 C41.5,123 42.1,123.5 42.1,124.2 C42.1,124.8 41.6,125.4 40.9,125.4 L38.1,125.4 L38.1,123 L38.1,123 L38.1,123 Z" id="Shape" fill="#FFFFFF"></path>
                <path d="M222.3,128.9 L222.3,129.6 L221.2,129.6 L221.2,132.6 L220.4,132.6 L220.4,129.6 L219.3,129.6 L219.3,128.9 L222.3,128.9 L222.3,128.9 Z" id="Shape" fill="#FFFFFF"></path>
                <path d="M225.2,128.9 L226.3,128.9 L226.3,132.6 L225.6,132.6 L225.6,130.1 L225.6,129.8 L225.6,129.5 L224.9,132.6 L224.2,132.6 L223.5,129.5 L223.5,129.8 L223.5,130.1 L223.5,132.6 L222.8,132.6 L222.8,128.9 L224,128.9 L224.6,131.8 L225.2,128.9 L225.2,128.9 L225.2,128.9 Z" id="Shape" fill="#FFFFFF"></path>
            </g>
            <rect id="separator" fill="#FFFFFF" sketch:type="MSShapeGroup" x="271.7" y="18.1" width="4" height="149.8"></rect>
            <g id="winter-calendar-lockup-project" transform="translate(312.000000, 0.000000)" fill="#FFFFFF" sketch:type="MSShapeGroup">
                <path d="M57.6,25.7 L57.6,73.9 L42.3,73.9 L42.3,67.1 C40,71.5 33.8,75.1 27.6,75.1 C13.7,75.1 4.1,64.2 4.1,49.8 C4.1,35.4 13.7,24.5 27.6,24.5 C33.8,24.5 40,28.2 42.3,32.6 L42.3,25.7 L57.6,25.7 L57.6,25.7 L57.6,25.7 Z M42.3,49.8 C42.3,43.2 37.7,37.5 30.8,37.5 C23.9,37.5 19.3,43.2 19.3,49.8 C19.3,56.5 23.9,62.1 30.8,62.1 C37.7,62.1 42.3,56.5 42.3,49.8 L42.3,49.8 L42.3,49.8 Z" id="Shape"></path>
                <path d="M102.3,67.1 C100,71.5 93.8,75.1 87.6,75.1 C73.7,75.1 64.1,64.2 64.1,49.8 C64.1,35.4 73.7,24.5 87.6,24.5 C93.8,24.5 100,28.2 102.3,32.6 L102.3,3.9 L117.6,3.9 L117.6,73.9 L102.3,73.9 L102.3,67.1 L102.3,67.1 L102.3,67.1 Z M102.3,49.8 C102.3,43.2 97.7,37.5 90.8,37.5 C83.9,37.5 79.3,43.2 79.3,49.8 C79.3,56.5 83.9,62.1 90.8,62.1 C97.7,62.1 102.3,56.5 102.3,49.8 L102.3,49.8 L102.3,49.8 Z" id="Shape"></path>
                <path d="M136.4,25.7 L148.1,56 L159.9,25.7 L175.9,25.7 L154.1,73.9 L141.9,73.9 L120.4,25.7 L136.4,25.7 L136.4,25.7 L136.4,25.7 Z" id="Shape"></path>
                <path d="M187.8,53.5 C188.1,59.3 190.5,64.2 198.5,64.2 C203.8,64.2 206.4,61.8 207.4,58.7 L222.4,58.7 C221,67.8 212.4,75.2 198.6,75.2 C181.7,75.2 172.6,64.7 172.6,49.8 C172.6,35.7 181.5,24.4 198.2,24.4 C213.3,24.4 223,34.6 223,46.4 C223,48.4 223,50.6 222.5,53.5 L187.8,53.5 L187.8,53.5 L187.8,53.5 Z M187.8,44.7 L208,44.7 C208,38.5 203.9,34.6 198.1,34.6 C192.1,34.6 187.8,38.2 187.8,44.7 L187.8,44.7 L187.8,44.7 Z" id="Shape"></path>
                <path d="M229.9,25.7 L245.2,25.7 L245.2,32.7 C247.9,27.5 253.5,24.5 261,24.5 C267.2,24.5 271.9,26.6 274.5,30 C277.5,33.7 278.3,38.4 278.3,45.3 L278.3,73.9 L263,73.9 L263,49.2 C263,42.3 260.9,37.5 254.5,37.5 C248.3,37.5 245.2,42.3 245.2,49.7 L245.2,73.9 L229.9,73.9 L229.9,25.7 L229.9,25.7 L229.9,25.7 Z" id="Shape"></path>
                <path d="M317.2,73.9 C314.9,74.3 311.5,74.7 307,74.7 C299.8,74.7 289.9,73.8 289.9,57.7 L289.9,37.1 L282.3,37.1 L282.3,25.7 L289.9,25.7 L289.9,11.4 L305.1,11.4 L305.1,25.7 L316.1,25.7 L316.1,37.1 L305.1,37.1 L305.1,54.3 C305.1,61.4 307.9,62.5 311.7,62.5 C313.6,62.5 315.8,62.4 317.2,62.2 L317.2,73.9 L317.2,73.9 L317.2,73.9 Z" id="Shape"></path>
                <path d="M369.6,25.7 L369.6,73.9 L354.3,73.9 L354.3,67 C351.6,72.1 346,75.1 338.5,75.1 C332.3,75.1 327.6,73 325,69.6 C322,65.9 321.3,61.2 321.3,54.3 L321.3,25.7 L336.5,25.7 L336.5,50.4 C336.5,57.3 338.6,62.1 345,62.1 C351.3,62.1 354.3,57.3 354.3,49.9 L354.3,25.7 L369.6,25.7 L369.6,25.7 L369.6,25.7 Z" id="Shape"></path>
                <path d="M413.7,39.6 C411.6,39.1 410.4,38.9 408.3,38.9 C399.9,38.9 394.4,43.3 394.4,55.1 L394.4,73.9 L379.1,73.9 L379.1,25.7 L394.4,25.7 L394.4,33.5 C396.6,29 402.4,24.9 409.1,24.9 C411,24.9 412.3,25.1 413.7,25.7 L413.7,39.6 L413.7,39.6 L413.7,39.6 Z" id="Shape"></path>
                <path d="M428.4,53.5 C428.7,59.3 431.1,64.2 439.1,64.2 C444.4,64.2 447,61.8 448,58.7 L463,58.7 C461.6,67.8 453,75.2 439.2,75.2 C422.3,75.2 413.2,64.7 413.2,49.8 C413.2,35.7 422.1,24.4 438.8,24.4 C453.9,24.4 463.6,34.6 463.6,46.4 C463.6,48.4 463.6,50.6 463.1,53.5 L428.4,53.5 L428.4,53.5 L428.4,53.5 Z M428.4,44.7 L448.6,44.7 C448.6,38.5 444.5,34.6 438.7,34.6 C432.7,34.6 428.4,38.2 428.4,44.7 L428.4,44.7 L428.4,44.7 Z" id="Shape"></path>
                <path d="M521.4,73.9 C519.1,74.3 515.7,74.7 511.2,74.7 C504,74.7 494.1,73.8 494.1,57.7 L494.1,37.1 L486.5,37.1 L486.5,25.7 L494.1,25.7 L494.1,11.4 L509.3,11.4 L509.3,25.7 L520.3,25.7 L520.3,37.1 L509.3,37.1 L509.3,54.3 C509.3,61.4 512.1,62.5 515.9,62.5 C517.8,62.5 520,62.4 521.4,62.2 L521.4,73.9 L521.4,73.9 L521.4,73.9 Z" id="Shape"></path>
                <path d="M533.7,0 C539.3,0 543.6,4.3 543.6,9.7 C543.6,15 539.3,19.4 533.7,19.4 C528.2,19.4 523.9,15 523.9,9.7 C523.9,4.3 528.2,0 533.7,0 L533.7,0 L533.7,0 Z M526.1,25.7 L541.4,25.7 L541.4,73.9 L526.1,73.9 L526.1,25.7 L526.1,25.7 L526.1,25.7 Z" id="Shape"></path>
                <path d="M611.5,73.9 L611.5,47.9 C611.5,41.4 609.3,37.5 604.1,37.5 C599.5,37.5 596,40.4 596,49.7 L596,73.9 L581.2,73.9 L581.2,47.8 C581.2,41.3 579.1,37.5 574,37.5 C569.3,37.5 565.7,40.5 565.7,50 L565.7,73.9 L550.9,73.9 L550.9,25.7 L565.7,25.7 L565.7,32.7 C567.8,28.2 572.9,24.5 579.6,24.5 C588,24.5 592.2,28.3 594.2,33.2 C596.7,28.2 602.2,24.5 609.3,24.5 C623.3,24.5 626.2,34 626.2,44.2 L626.2,73.9 L611.5,73.9 L611.5,73.9 L611.5,73.9 Z" id="Shape"></path>
                <path d="M647.3,53.5 C647.6,59.3 650,64.2 658,64.2 C663.3,64.2 665.9,61.8 666.9,58.7 L681.9,58.7 C680.5,67.8 671.9,75.2 658.1,75.2 C641.2,75.2 632.1,64.7 632.1,49.8 C632.1,35.7 641,24.4 657.7,24.4 C672.8,24.4 682.5,34.6 682.5,46.4 C682.5,48.4 682.5,50.6 682,53.5 L647.3,53.5 L647.3,53.5 L647.3,53.5 Z M647.3,44.7 L667.5,44.7 C667.5,38.5 663.4,34.6 657.6,34.6 C651.6,34.6 647.3,38.2 647.3,44.7 L647.3,44.7 L647.3,44.7 Z" id="Shape"></path>
                <path d="M698,22.7 C703.7,22.7 708.1,27.2 708.1,32.7 C708.1,38.2 703.7,42.7 698,42.7 C692.3,42.7 687.9,38.2 687.9,32.7 C687.9,27.2 692.3,22.7 698,22.7 L698,22.7 L698,22.7 Z M698,54.8 C703.7,54.8 708.2,59.3 708.2,64.8 C708.2,70.3 703.7,74.8 698,74.8 C692.4,74.8 687.9,70.3 687.9,64.8 C687.9,59.3 692.4,54.8 698,54.8 L698,54.8 L698,54.8 Z" id="Shape"></path>
                <path d="M40.8,129.2 L30.9,159.9 L18.5,159.9 L0.5,111.7 L16.3,111.7 L25.2,140.4 L33.7,111.7 L47.8,111.7 L56.3,140.4 L65.2,111.7 L81,111.7 L63,159.9 L50.6,159.9 L40.8,129.2 L40.8,129.2 L40.8,129.2 Z" id="Shape"></path>
                <path d="M91.5,86 C97.1,86 101.4,90.3 101.4,95.7 C101.4,101 97.1,105.4 91.5,105.4 C86,105.4 81.7,101 81.7,95.7 C81.7,90.3 86,86 91.5,86 L91.5,86 L91.5,86 Z M83.9,111.7 L99.2,111.7 L99.2,159.9 L83.9,159.9 L83.9,111.7 L83.9,111.7 L83.9,111.7 Z" id="Shape"></path>
                <path d="M108.7,111.7 L124,111.7 L124,118.7 C126.7,113.5 132.3,110.5 139.8,110.5 C146,110.5 150.7,112.6 153.3,116 C156.3,119.7 157.1,124.4 157.1,131.3 L157.1,159.9 L141.8,159.9 L141.8,135.2 C141.8,128.3 139.7,123.5 133.3,123.5 C127.1,123.5 124,128.3 124,135.7 L124,159.9 L108.7,159.9 L108.7,111.7 L108.7,111.7 L108.7,111.7 Z" id="Shape"></path>
                <path d="M196,159.9 C193.7,160.3 190.3,160.7 185.8,160.7 C178.6,160.7 168.7,159.8 168.7,143.7 L168.7,123.1 L161.1,123.1 L161.1,111.7 L168.7,111.7 L168.7,97.4 L183.9,97.4 L183.9,111.7 L194.9,111.7 L194.9,123.1 L183.9,123.1 L183.9,140.3 C183.9,147.4 186.7,148.5 190.5,148.5 C192.4,148.5 194.6,148.4 196,148.2 L196,159.9 L196,159.9 L196,159.9 Z" id="Shape"></path>
                <path d="M211.6,139.5 C211.9,145.3 214.3,150.2 222.3,150.2 C227.6,150.2 230.2,147.8 231.2,144.7 L246.2,144.7 C244.8,153.8 236.2,161.2 222.4,161.2 C205.5,161.2 196.4,150.7 196.4,135.8 C196.4,121.7 205.3,110.4 222,110.4 C237.1,110.4 246.8,120.6 246.8,132.4 C246.8,134.4 246.8,136.6 246.3,139.5 L211.6,139.5 L211.6,139.5 L211.6,139.5 Z M211.6,130.7 L231.8,130.7 C231.8,124.5 227.7,120.6 221.9,120.6 C215.9,120.6 211.6,124.2 211.6,130.7 L211.6,130.7 L211.6,130.7 Z" id="Shape"></path>
                <path d="M288.3,125.6 C286.2,125.1 285,124.9 282.9,124.9 C274.5,124.9 269,129.3 269,141.1 L269,159.9 L253.7,159.9 L253.7,111.7 L269,111.7 L269,119.5 C271.2,115 277,110.9 283.7,110.9 C285.6,110.9 286.9,111.1 288.3,111.7 L288.3,125.6 L288.3,125.6 L288.3,125.6 Z" id="Shape"></path>
                <path d="M328,159.9 L312.7,159.9 L312.7,89.9 L328,89.9 L328,118.6 C330.3,114.2 336.5,110.5 342.8,110.5 C356.7,110.5 366.3,121.4 366.3,135.8 C366.3,150.2 356.7,161.1 342.8,161.1 C336.5,161.1 330.3,157.5 328,153.1 L328,159.9 L328,159.9 L328,159.9 Z M351,135.8 C351,129.2 346.4,123.5 339.6,123.5 C332.6,123.5 328,129.2 328,135.8 C328,142.5 332.6,148.1 339.6,148.1 C346.4,148.1 351,142.5 351,135.8 L351,135.8 L351,135.8 Z" id="Shape"></path>
                <path d="M407.5,125.6 C405.4,125.1 404.2,124.9 402.1,124.9 C393.7,124.9 388.2,129.3 388.2,141.1 L388.2,159.9 L372.9,159.9 L372.9,111.7 L388.2,111.7 L388.2,119.5 C390.4,115 396.2,110.9 402.9,110.9 C404.8,110.9 406.1,111.1 407.5,111.7 L407.5,125.6 L407.5,125.6 L407.5,125.6 Z" id="Shape"></path>
                <path d="M422.2,139.5 C422.5,145.3 424.9,150.2 432.9,150.2 C438.2,150.2 440.8,147.8 441.8,144.7 L456.8,144.7 C455.4,153.8 446.8,161.2 433,161.2 C416.1,161.2 407,150.7 407,135.8 C407,121.7 415.9,110.4 432.6,110.4 C447.7,110.4 457.4,120.6 457.4,132.4 C457.4,134.4 457.4,136.6 456.9,139.5 L422.2,139.5 L422.2,139.5 L422.2,139.5 Z M422.2,130.7 L442.4,130.7 C442.4,124.5 438.3,120.6 432.5,120.6 C426.5,120.6 422.2,124.2 422.2,130.7 L422.2,130.7 L422.2,130.7 Z" id="Shape"></path>
                <path d="M514.8,111.7 L514.8,159.9 L499.5,159.9 L499.5,153.1 C497.2,157.5 491,161.1 484.8,161.1 C470.9,161.1 461.3,150.2 461.3,135.8 C461.3,121.4 470.9,110.5 484.8,110.5 C491,110.5 497.2,114.2 499.5,118.6 L499.5,111.7 L514.8,111.7 L514.8,111.7 L514.8,111.7 Z M499.5,135.8 C499.5,129.2 494.9,123.5 488,123.5 C481.1,123.5 476.5,129.2 476.5,135.8 C476.5,142.5 481.1,148.1 488,148.1 C494.9,148.1 499.5,142.5 499.5,135.8 L499.5,135.8 L499.5,135.8 Z" id="Shape"></path>
                <path d="M553.9,135.8 L572.6,159.9 L554.4,159.9 L539.6,139.7 L539.6,159.9 L524.3,159.9 L524.3,89.9 L539.6,89.9 L539.6,132.1 L554.5,111.7 L572.7,111.7 L553.9,135.8 L553.9,135.8 L553.9,135.8 Z" id="Shape"></path>
                <path d="M570.2,135.8 C570.2,122 580.3,110.4 596.9,110.4 C613.7,110.4 623.7,122 623.7,135.8 C623.7,149.6 613.7,161.2 596.9,161.2 C580.3,161.2 570.2,149.6 570.2,135.8 L570.2,135.8 L570.2,135.8 Z M608.5,135.8 C608.5,129.1 603.9,123.5 596.9,123.5 C590,123.5 585.5,129.1 585.5,135.8 C585.5,142.6 590,148.1 596.9,148.1 C603.9,148.1 608.5,142.6 608.5,135.8 L608.5,135.8 L608.5,135.8 Z" id="Shape"></path>
                <path d="M677.6,111.7 L677.6,159.9 L662.3,159.9 L662.3,153 C659.6,158.1 654,161.1 646.5,161.1 C640.3,161.1 635.6,159 633,155.6 C630,151.9 629.3,147.2 629.3,140.3 L629.3,111.7 L644.5,111.7 L644.5,136.4 C644.5,143.3 646.6,148.1 653,148.1 C659.3,148.1 662.3,143.3 662.3,135.9 L662.3,111.7 L677.6,111.7 L677.6,111.7 L677.6,111.7 Z" id="Shape"></path>
                <path d="M717.2,159.9 C714.9,160.3 711.5,160.7 707,160.7 C699.8,160.7 689.9,159.8 689.9,143.7 L689.9,123.1 L682.3,123.1 L682.3,111.7 L689.9,111.7 L689.9,97.4 L705.1,97.4 L705.1,111.7 L716.1,111.7 L716.1,123.1 L705.1,123.1 L705.1,140.3 C705.1,147.4 707.9,148.5 711.7,148.5 C713.6,148.5 715.8,148.4 717.2,148.2 L717.2,159.9 L717.2,159.9 L717.2,159.9 Z" id="Shape"></path>
            </g>
        </g>
    </g>
</svg>