<?xml version="1.0" encoding="UTF-8" standalone="no"?>
<svg width="1069px" height="142px" viewBox="0 0 1069 142" version="1.1" xmlns="http://www.w3.org/2000/svg" xmlns:xlink="http://www.w3.org/1999/xlink" xmlns:sketch="http://www.bohemiancoding.com/sketch/ns">
    <!-- Generator: Sketch 3.5.1 (25234) - http://www.bohemiancoding.com/sketch -->
    <title>yahoo-lockup</title>
    <desc>Created with Sketch.</desc>
    <defs></defs>
    <g id="Page-1" stroke="none" stroke-width="1" fill="none" fill-rule="evenodd" sketch:type="MSPage">
        <g id="yahoo-lockup" sketch:type="MSLayerGroup" fill="#FFFFFF">
            <g id="yahoo-lockup-logo" transform="translate(0.000000, 30.000000)" sketch:type="MSShapeGroup">
                <path d="M365.1,1.4 L365.1,1.4 L365.1,1.4 C365.1,1.4 364.4,1.3 363.9,1.3 C361.2,1.3 358.5,2.9 358.5,7 C356.9,27.4 355.2,47.8 352.5,67.3 L352.5,67.3 L352.5,67.3 L352.5,67.3 L352.5,67.3 C354.2,67 355.5,67.4 356.7,68 L356.7,68 C359.8,48.2 367.2,18.7 369.1,10.3 C369.4,9.1 369.8,7.7 369.8,6.7 C369.9,3.6 368,1.8 365.1,1.4 L365.1,1.4 L365.1,1.4 Z" id="Shape"></path>
                <path d="M168.9,9.4 C169.4,19.9 169.7,30.5 169.8,41 C157.2,41.3 144.6,41.3 132,41 C132,30.5 132.3,19.9 132.9,9.4 C129.2,10.3 125.4,10.3 121.6,9.4 C122.6,32 122.5,54.6 121.6,77.1 C125.3,76.2 129,76.2 132.9,77.1 L132.9,77.1 L132.9,77.1 C132.3,66.6 132.1,56.1 132,45.6 C144.6,45.4 157.2,45.4 169.8,45.6 C169.8,56.1 169.5,66.6 168.9,77.1 L168.9,77.1 L168.9,77.1 C172.8,76.2 176.5,76.2 180.2,77.1 C179.3,54.6 179.2,32 180.2,9.4 C176.4,10.3 172.6,10.3 168.9,9.4 L168.9,9.4 L168.9,9.4 Z" id="Shape"></path>
                <path d="M88.4,9.4 L88.4,9.4 L88.4,9.4 C85.6,10.4 83.3,10.3 80.5,9.4 L80.5,9.4 C71.4,32.2 60.9,57.9 51.5,77.1 L51.5,77.1 L51.5,77.1 L51.5,77.1 L51.5,77.1 L51.6,77.1 L51.6,77.1 C55.9,76 60,76.4 62.7,77.1 L62.7,77.1 L62.7,77.1 C65.1,71 67.8,64.2 70.6,57.2 L70.6,57.2 C79.9,56.9 89.1,56.9 98.4,57.2 L98.4,57.2 C101,63.8 103.7,70.4 106.2,77.1 L106.2,77.1 C110.3,76 114.4,76.3 117.5,77.1 L117.5,77.1 C110.7,64.4 97.1,31.3 88.4,9.4 L88.4,9.4 L88.4,9.4 Z M84.5,21 C88.2,31.4 92.4,41.9 96.5,52.5 L96.5,52.5 C88.5,52.8 80.5,52.8 72.5,52.5 L72.5,52.5 C77.4,40.1 82,28.1 84.5,21 L84.5,21 L84.5,21 Z" id="Shape"></path>
                <path d="M67.9,0.4 L67.9,0.4 L67.9,0.4 C63.8,1.3 60.2,1.4 56.5,0.4 C53.3,6.4 41.5,25.7 33.9,38.1 C26.3,25.4 17.2,10.8 11.3,0.4 C6.6,1.4 4.7,1.5 2.13162821e-14,0.4 C9.3,14.3 24.1,40.9 29.1,49.6 L28.4,85.9 C28.4,85.9 31.7,85.4 33.8,85.4 C36.2,85.4 39.2,85.9 39.2,85.9 L38.5,49.6 C48.1,33.1 63.7,6.1 67.9,0.4 L67.9,0.4 L67.9,0.4 Z" id="Shape"></path>
                <path d="M220,8.5 C196.1,8.5 183.5,23.7 183.5,43.4 C183.5,64.9 197.2,78.1 220,78.1 C244.6,78.1 256.6,63.3 256.6,43.7 C256.6,21.7 242.2,8.5 220,8.5 L220,8.5 L220,8.5 Z M220.1,74.2 C204.1,74.2 194.8,62.8 194.8,43.5 C194.8,21.7 206.4,12.9 219.5,12.6 L220.1,12.6 C234.7,12.6 245.5,22.6 245.5,43.4 C245.4,64.2 234.7,74.2 220.1,74.2 L220.1,74.2 L220.1,74.2 Z" id="Shape"></path>
                <path d="M302.6,4.4 C278.8,4.4 260.5,17.9 260.5,43.1 C260.5,63.8 272.6,82.1 302.8,82.1 C328.3,82.1 345,68.1 345,43.5 C345,20.3 329.5,4.4 302.6,4.4 L302.6,4.4 L302.6,4.4 Z M271.8,43 C271.8,16.5 288.1,8.6 302.6,8.6 C320.5,8.6 333.7,19.5 333.7,43.5 C333.7,69.6 317.7,78 302.6,78 C286.6,78 271.8,68.5 271.8,43 L271.8,43 L271.8,43 Z" id="Shape"></path>
                <path d="M352.2,75.4 C348.6,75.4 346.9,78.1 346.9,81 C346.9,84.4 349.6,86.2 353,86.2 C355.5,86.2 358.1,84.7 358.1,80.7 C358.1,77.4 355.6,75.4 352.2,75.4 L352.2,75.4 L352.2,75.4 Z" id="Shape"></path>
            </g>
            <g id="yahoo-lockup-project" transform="translate(434.000000, 14.000000)" sketch:type="MSShapeGroup">
                <path d="M-5.68434189e-14,6 L20.5,6 L20.5,45.8 C24.2,38.9 31.8,34.5 42.1,34.5 C50.7,34.5 56.6,37.4 60.2,42.1 C64.3,47.2 65.6,53.9 65.6,63.4 L65.6,102.8 L45.1,102.8 L45.1,68.7 C45.1,59.2 42.2,52.5 33.3,52.5 C24.7,52.5 20.4,59.1 20.4,69.4 L20.4,102.9 L-5.68434189e-14,102.9 L-5.68434189e-14,6 L-5.68434189e-14,6 L-5.68434189e-14,6 Z" id="Shape"></path>
                <path d="M71.1,69.5 C71.1,50.4 85.1,34.4 108,34.4 C131.2,34.4 145.1,50.4 145.1,69.5 C145.1,88.6 131.3,104.6 108,104.6 C85.1,104.7 71.1,88.6 71.1,69.5 L71.1,69.5 L71.1,69.5 Z M124.1,69.5 C124.1,60.2 117.7,52.5 108.1,52.5 C98.6,52.5 92.3,60.2 92.3,69.5 C92.3,78.9 98.5,86.5 108.1,86.5 C117.7,86.5 124.1,78.9 124.1,69.5 L124.1,69.5 L124.1,69.5 Z" id="Shape"></path>
                <path d="M196.4,60.4 L182.7,102.9 L165.5,102.9 L140.6,36.2 L162.5,36.2 L174.8,75.9 L186.6,36.2 L206.1,36.2 L217.9,75.9 L230.2,36.2 L252,36.2 L227.1,102.9 L210,102.9 L196.4,60.4 L196.4,60.4 L196.4,60.4 Z" id="Shape"></path>
                <path d="M291.2,0.6 C298.9,0.6 304.9,6.5 304.9,14 C304.9,21.3 299,27.4 291.2,27.4 C283.6,27.4 277.6,21.3 277.6,14 C277.6,6.6 283.6,0.6 291.2,0.6 L291.2,0.6 L291.2,0.6 Z M280.7,36.2 L301.9,36.2 L301.9,102.9 L280.7,102.9 L280.7,36.2 L280.7,36.2 L280.7,36.2 Z" id="Shape"></path>
                <path d="M388.3,93.4 C385.1,99.5 376.5,104.5 368,104.5 C348.8,104.5 335.5,89.4 335.5,69.5 C335.5,49.6 348.8,34.5 368,34.5 C376.6,34.5 385.2,39.6 388.3,45.7 L388.3,6 L409.5,6 L409.5,102.8 L388.3,102.8 L388.3,93.4 L388.3,93.4 L388.3,93.4 Z M388.3,69.5 C388.3,60.4 381.9,52.5 372.4,52.5 C362.9,52.5 356.5,60.4 356.5,69.5 C356.5,78.8 362.9,86.5 372.4,86.5 C381.9,86.5 388.3,78.8 388.3,69.5 L388.3,69.5 L388.3,69.5 Z" id="Shape"></path>
                <path d="M431,0.6 C438.7,0.6 444.7,6.5 444.7,14 C444.7,21.3 438.8,27.4 431,27.4 C423.4,27.4 417.4,21.3 417.4,14 C417.5,6.6 423.4,0.6 431,0.6 L431,0.6 L431,0.6 Z M420.5,36.2 L441.7,36.2 L441.7,102.9 L420.5,102.9 L420.5,36.2 L420.5,36.2 L420.5,36.2 Z" id="Shape"></path>
                <path d="M501.4,93.4 C498.2,99.5 489.6,104.5 481.1,104.5 C461.9,104.5 448.6,89.4 448.6,69.5 C448.6,49.6 461.9,34.5 481.1,34.5 C489.7,34.5 498.3,39.6 501.4,45.7 L501.4,6 L522.6,6 L522.6,102.8 L501.4,102.8 L501.4,93.4 L501.4,93.4 L501.4,93.4 Z M501.4,69.5 C501.4,60.4 495,52.5 485.5,52.5 C476,52.5 469.6,60.4 469.6,69.5 C469.6,78.8 476,86.5 485.5,86.5 C495.1,86.5 501.4,78.8 501.4,69.5 L501.4,69.5 L501.4,69.5 Z" id="Shape"></path>
                <path d="M570.9,0.6 C578.6,0.6 584.6,6.5 584.6,14 C584.6,21.3 578.7,27.4 570.9,27.4 C563.3,27.4 557.3,21.3 557.3,14 C557.3,6.6 563.2,0.6 570.9,0.6 L570.9,0.6 L570.9,0.6 Z M560.3,36.2 L581.5,36.2 L581.5,102.9 L560.3,102.9 L560.3,36.2 L560.3,36.2 L560.3,36.2 Z" id="Shape"></path>
                <path d="M634.2,102.9 C631,103.5 626.3,104 620.1,104 C610.1,104 596.4,102.8 596.4,80.5 L596.4,52 L585.9,52 L585.9,36.2 L596.4,36.2 L596.4,16.4 L617.4,16.4 L617.4,36.2 L632.6,36.2 L632.6,52 L617.4,52 L617.4,75.8 C617.4,85.6 621.3,87.1 626.5,87.1 C629.1,87.1 632.2,87 634.1,86.7 L634.1,102.9 L634.2,102.9 L634.2,102.9 Z" id="Shape"></path>
            </g>
            <rect id="separator" sketch:type="MSShapeGroup" x="399.5" y="0.7" width="4" height="141"></rect>
        </g>
    </g>
</svg>