<?xml version="1.0" encoding="iso-8859-1"?>
<!-- Generator: Adobe Illustrator 19.1.0, SVG Export Plug-In . SVG Version: 6.00 Build 0)  -->
<svg version="1.1" id="younger-lockup" xmlns="http://www.w3.org/2000/svg" xmlns:xlink="http://www.w3.org/1999/xlink" x="0px"
	 y="0px" viewBox="0 0 1065.049 156" style="enable-background:new 0 0 1065.049 156;" xml:space="preserve">
<g id="separator">
	<g>
		<rect x="404.469" y="0" style="fill:#FFFFFF;" width="4" height="156"/>
	</g>
</g>
<g id="younger-lockup-logo">
	<g>
		<g>
			<polygon style="fill:#FFFFFF;" points="206.624,86.93 216.436,86.316 216.316,52.976 			"/>
		</g>
		<g>
			<g>
				<path style="fill:#FFFFFF;" d="M317.643,46.202c-1.739,0-3.515,0.064-3.515,0.064l-6.568,47.551
					c8.206,0,11.527-2.52,12.649-10.704l3.324-24.668c0,0,0.741-4.926,0.741-6.719C324.274,47.834,322.913,46.202,317.643,46.202z"
					/>
			</g>
			<g>
				<path style="fill:#FFFFFF;" d="M140.917,31.389l1.739-14.463L13.742,26.48L0,129.83l125.566-8.981L84.38,140.487l264.627-18.745
					l13.389-106.23L140.917,31.389z M68.154,51.839l-13.859,0.91l-8.252,59.582l-17.253,1.12l8.417-59.427l-13.531,0.922
					l2.054-14.95l44.414-3.121L68.154,51.839z M99.553,108.487l-20.263,1.394l-5.466-73.285l17.198-1.19l1.459,51.727l16.139-53.002
					l17.255-1.235L99.553,108.487z M177.864,116.365l-38.127,2.698l10.301-74.489l17.188-1.176l-8.258,59.501l20.813-1.428
					L177.864,116.365z M216.667,113.575l-0.327-14.267l-13.414,0.893l-4.041,14.753l-17.304,1.164l26.262-75.607l20.779-1.427
					l5.42,73.343L216.667,113.575z M265.695,110.15l-7.61-40.971l-4.226,41.836l-16.325,1.066l10.288-74.429l17.806-1.164
					l7.522,40.906l4.167-41.866l16.291-1.069l-10.219,74.403L265.695,110.15z M340.988,55.559l-3.961,29.02
					c-1.759,13.521-9.36,20.828-22.492,22.11l-26.055,1.849l10.29-74.523l18.3-1.243c0,0,5.312-0.369,6.862-0.375
					c14.285,0,17.965,5.608,17.965,14.394C341.897,49.563,340.988,55.559,340.988,55.559z"/>
			</g>
		</g>
	</g>
</g>
<g id="younger-lockup-project">
	<g>
		<path style="fill:#FFFFFF;" d="M467.096,129.643c-6.27-5.28-10.89-13.035-10.89-23.759h25.244
			c0.495,8.909,6.93,13.859,15.345,13.859c9.734,0,15.509-3.96,15.509-16.334V87.075c-4.454,8.58-13.364,13.365-25.408,13.365
			c-10.56,0-18.645-3.96-22.935-9.57c-4.95-6.104-6.104-13.199-6.104-24.584V20.252h25.079v40.753
			c0,11.385,3.465,19.304,14.024,19.304c10.395,0,15.344-7.919,15.344-20.129V20.252h25.244v81.507
			c0,12.375-4.29,21.944-11.055,27.554c-7.094,5.94-16.168,8.58-30.028,8.58C483.595,137.893,474.191,135.418,467.096,129.643z"/>
		<path style="fill:#FFFFFF;" d="M544.975,60.016c0-22.769,16.664-41.909,44.053-41.909c27.719,0,44.218,19.14,44.218,41.909
			s-16.499,41.908-44.218,41.908C561.639,101.924,544.975,82.785,544.975,60.016z M608.168,60.016
			c0-11.055-7.59-20.294-19.14-20.294c-11.385,0-18.81,9.24-18.81,20.294c0,11.219,7.425,20.294,18.81,20.294
			C600.578,80.31,608.168,71.235,608.168,60.016z"/>
		<path style="fill:#FFFFFF;" d="M719.707,20.252v79.527h-25.244V88.395c-4.455,8.415-13.694,13.365-26.069,13.365
			c-10.229,0-17.984-3.465-22.273-9.075c-4.95-6.104-6.105-13.859-6.105-25.244V20.252h25.079v40.753
			c0,11.385,3.465,19.304,14.024,19.304c10.395,0,15.345-7.919,15.345-20.129V20.252H719.707z"/>
		<path style="fill:#FFFFFF;" d="M732.908,20.252h25.244v11.55c4.455-8.58,13.694-13.53,26.068-13.53
			c10.229,0,17.984,3.465,22.274,9.075c4.95,6.105,6.27,13.859,6.27,25.244v47.188H787.52V59.026
			c0-11.384-3.465-19.304-14.024-19.304c-10.229,0-15.344,7.92-15.344,20.129v39.928h-25.244V20.252z"/>
		<path style="fill:#FFFFFF;" d="M908.299,99.284c0,14.354-4.29,23.759-12.539,30.029c-7.425,5.61-17.489,8.58-32.174,8.58
			c-14.85,0-24.584-3.63-31.184-9.239c-6.93-5.94-11.22-14.024-11.55-22.769h25.244c0.66,6.765,6.6,13.364,17.489,13.364
			c11.88,0,19.469-5.61,19.469-17.984V87.9c-4.289,7.26-14.024,12.375-24.254,12.375c-22.934,0-38.938-16.665-38.938-40.258
			c0-23.759,15.345-41.744,38.608-41.744c10.065,0,20.13,4.95,24.584,13.365V20.252h25.244V99.284z M845.106,60.016
			c0,11.054,7.59,20.294,18.81,20.294c11.55,0,19.139-9.24,19.139-20.294c0-10.89-7.589-20.294-19.139-20.294
			C852.696,39.722,845.106,49.126,845.106,60.016z"/>
		<path style="fill:#FFFFFF;" d="M940.97,66.121c0.495,9.57,4.455,17.654,17.654,17.654c8.745,0,13.035-3.96,14.685-9.075h24.749
			c-2.31,15.015-16.499,27.224-39.269,27.224c-27.884,0-42.898-17.324-42.898-41.908c0-23.264,14.685-41.909,42.238-41.909
			c24.914,0,40.919,16.83,40.919,36.299c0,3.3,0,6.93-0.825,11.714H940.97z M940.97,51.601H974.3
			c0-10.229-6.765-16.664-16.335-16.664C948.065,34.937,940.97,40.876,940.97,51.601z"/>
		<path style="fill:#FFFFFF;" d="M1065.049,43.187c-3.465-0.825-5.445-1.155-8.91-1.155c-13.859,0-22.934,7.26-22.934,26.729v31.019
			h-25.244V20.252h25.244v12.87c3.63-7.425,13.199-14.189,24.254-14.189c3.135,0,5.279,0.33,7.59,1.32V43.187z"/>
	</g>
</g>
</svg>
