
<svg width="1066px" height="156px" viewBox="0 0 1066 156" version="1.1" xmlns="http://www.w3.org/2000/svg" xmlns:xlink="http://www.w3.org/1999/xlink">
    <!-- Generator: Sketch 43.2 (39069) - http://www.bohemiancoding.com/sketch -->
    <desc>Created with Sketch.</desc>
    <defs></defs>
    <g id="Page-1" stroke="none" stroke-width="1" fill="none" fill-rule="evenodd">
        <g id="younger-lockup" fill-rule="nonzero" fill="#FFFFFF">
            <g id="separator" transform="translate(404.000000, 0.000000)">
                <rect id="Rectangle-path" x="0.469" y="0" width="4" height="156"></rect>
            </g>
            <g id="younger-lockup-logo" transform="translate(0.000000, 15.000000)">
                <g id="Group">
                    <polygon id="Shape" points="206.624 71.93 216.436 71.316 216.316 37.976"></polygon>
                    <g id="Shape">
                        <path d="M317.643,31.202 C315.904,31.202 314.128,31.266 314.128,31.266 L307.56,78.817 C315.766,78.817 319.087,76.297 320.209,68.113 L323.533,43.445 C323.533,43.445 324.274,38.519 324.274,36.726 C324.274,32.834 322.913,31.202 317.643,31.202 Z"></path>
                        <path d="M140.917,16.389 L142.656,1.926 L13.742,11.48 L0,114.83 L125.566,105.849 L84.38,125.487 L349.007,106.742 L362.396,0.512 L140.917,16.389 Z M68.154,36.839 L54.295,37.749 L46.043,97.331 L28.79,98.451 L37.207,39.024 L23.676,39.946 L25.73,24.996 L70.144,21.875 L68.154,36.839 Z M99.553,93.487 L79.29,94.881 L73.824,21.596 L91.022,20.406 L92.481,72.133 L108.62,19.131 L125.875,17.896 L99.553,93.487 Z M177.864,101.365 L139.737,104.063 L150.038,29.574 L167.226,28.398 L158.968,87.899 L179.781,86.471 L177.864,101.365 Z M216.667,98.575 L216.34,84.308 L202.926,85.201 L198.885,99.954 L181.581,101.118 L207.843,25.511 L228.622,24.084 L234.042,97.427 L216.667,98.575 Z M265.695,95.15 L258.085,54.179 L253.859,96.015 L237.534,97.081 L247.822,22.652 L265.628,21.488 L273.15,62.394 L277.317,20.528 L293.608,19.459 L283.389,93.862 L265.695,95.15 Z M340.988,40.559 L337.027,69.579 C335.268,83.1 327.667,90.407 314.535,91.689 L288.48,93.538 L298.77,19.015 L317.07,17.772 C317.07,17.772 322.382,17.403 323.932,17.397 C338.217,17.397 341.897,23.005 341.897,31.791 C341.897,34.563 340.988,40.559 340.988,40.559 Z"></path>
                    </g>
                </g>
            </g>
            <g id="younger-lockup-project" transform="translate(456.000000, 18.000000)">
                <g id="Group">
                    <path d="M11.096,111.643 C4.826,106.363 0.206,98.608 0.206,87.884 L25.45,87.884 C25.945,96.793 32.38,101.743 40.795,101.743 C50.529,101.743 56.304,97.783 56.304,85.409 L56.304,69.075 C51.85,77.655 42.94,82.44 30.896,82.44 C20.336,82.44 12.251,78.48 7.961,72.87 C3.011,66.766 1.857,59.671 1.857,48.286 L1.857,2.252 L26.936,2.252 L26.936,43.005 C26.936,54.39 30.401,62.309 40.96,62.309 C51.355,62.309 56.304,54.39 56.304,42.18 L56.304,2.252 L81.548,2.252 L81.548,83.759 C81.548,96.134 77.258,105.703 70.493,111.313 C63.399,117.253 54.325,119.893 40.465,119.893 C27.595,119.893 18.191,117.418 11.096,111.643 Z" id="Shape"></path>
                    <path d="M88.975,42.016 C88.975,19.247 105.639,0.107 133.028,0.107 C160.747,0.107 177.246,19.247 177.246,42.016 C177.246,64.785 160.747,83.924 133.028,83.924 C105.639,83.924 88.975,64.785 88.975,42.016 Z M152.168,42.016 C152.168,30.961 144.578,21.722 133.028,21.722 C121.643,21.722 114.218,30.962 114.218,42.016 C114.218,53.235 121.643,62.31 133.028,62.31 C144.578,62.31 152.168,53.235 152.168,42.016 Z" id="Shape"></path>
                    <path d="M263.707,2.252 L263.707,81.779 L238.463,81.779 L238.463,70.395 C234.008,78.81 224.769,83.76 212.394,83.76 C202.165,83.76 194.41,80.295 190.121,74.685 C185.171,68.581 184.016,60.826 184.016,49.441 L184.016,2.252 L209.095,2.252 L209.095,43.005 C209.095,54.39 212.56,62.309 223.119,62.309 C233.514,62.309 238.464,54.39 238.464,42.18 L238.464,2.252 L263.707,2.252 Z" id="Shape"></path>
                    <path d="M276.908,2.252 L302.152,2.252 L302.152,13.802 C306.607,5.222 315.846,0.272 328.22,0.272 C338.449,0.272 346.204,3.737 350.494,9.347 C355.444,15.452 356.764,23.206 356.764,34.591 L356.764,81.779 L331.52,81.779 L331.52,41.026 C331.52,29.642 328.055,21.722 317.496,21.722 C307.267,21.722 302.152,29.642 302.152,41.851 L302.152,81.779 L276.908,81.779 L276.908,2.252 L276.908,2.252 Z" id="Shape"></path>
                    <path d="M452.299,81.284 C452.299,95.638 448.009,105.043 439.76,111.313 C432.335,116.923 422.271,119.893 407.586,119.893 C392.736,119.893 383.002,116.263 376.402,110.654 C369.472,104.714 365.182,96.63 364.852,87.885 L390.096,87.885 C390.756,94.65 396.696,101.249 407.585,101.249 C419.465,101.249 427.054,95.639 427.054,83.265 L427.054,69.9 C422.765,77.16 413.03,82.275 402.8,82.275 C379.866,82.275 363.862,65.61 363.862,42.017 C363.862,18.258 379.207,0.273 402.47,0.273 C412.535,0.273 422.6,5.223 427.054,13.638 L427.054,2.252 L452.298,2.252 L452.298,81.284 L452.299,81.284 Z M389.106,42.016 C389.106,53.07 396.696,62.31 407.916,62.31 C419.466,62.31 427.055,53.07 427.055,42.016 C427.055,31.126 419.466,21.722 407.916,21.722 C396.696,21.722 389.106,31.126 389.106,42.016 Z" id="Shape"></path>
                    <path d="M484.97,48.121 C485.465,57.691 489.425,65.775 502.624,65.775 C511.369,65.775 515.659,61.815 517.309,56.7 L542.058,56.7 C539.748,71.715 525.559,83.924 502.789,83.924 C474.905,83.924 459.891,66.6 459.891,42.016 C459.891,18.752 474.576,0.107 502.129,0.107 C527.043,0.107 543.048,16.937 543.048,36.406 C543.048,39.706 543.048,43.336 542.223,48.12 L484.97,48.12 L484.97,48.121 Z M484.97,33.601 L518.3,33.601 C518.3,23.372 511.535,16.937 501.965,16.937 C492.065,16.937 484.97,22.876 484.97,33.601 Z" id="Shape"></path>
                    <path d="M609.049,25.187 C605.584,24.362 603.604,24.032 600.139,24.032 C586.28,24.032 577.205,31.292 577.205,50.761 L577.205,81.78 L551.961,81.78 L551.961,2.252 L577.205,2.252 L577.205,15.122 C580.835,7.697 590.404,0.933 601.459,0.933 C604.594,0.933 606.738,1.263 609.049,2.253 L609.049,25.187 L609.049,25.187 Z" id="Shape"></path>
                </g>
            </g>
        </g>
    </g>
</svg>
