<svg width="829px" height="170px" viewBox="0 0 829 170" version="1.1" xmlns="http://www.w3.org/2000/svg" xmlns:xlink="http://www.w3.org/1999/xlink">
    <!-- Generator: Sketch 43.2 (39069) - http://www.bohemiancoding.com/sketch -->
    <desc>Created with Sketch.</desc>
    <defs></defs>
    <g id="Page-1" stroke="none" stroke-width="1" fill="none" fill-rule="evenodd">
        <g id="znation-lockup" fill-rule="nonzero" fill="#FFFFFF">
            <g id="divider" transform="translate(252.000000, 0.000000)">
                <rect id="Rectangle-path" x="0.4" y="0" width="5" height="169.1"></rect>
            </g>
            <g id="znation-lockup-logo" transform="translate(0.000000, 38.000000)">
                <path d="M0,58 L19.1,58 L19.1,59.1 C19.1,64.4 22.9,69 29.2,69 C33.4,69 37.1,66.5 37.1,62.7 C37.1,59.3 35,57.7 32.3,56.4 L14.8,47.7 C4.3,42.3 0,36.1 0,25 C0,11.8 12,0.9 28.2,0.9 C48.4,0.9 56.3,17.7 56.3,27.1 L56.3,28 L36.4,28 C35.9,23.3 33.2,19.6 28,19.6 C24.5,19.6 20.4,21.4 20.4,25.5 C20.4,27.8 21.4,29.6 24.1,30.8 L38.8,37.4 C47.8,41.5 56.9,48.8 56.9,60.8 C56.9,75.2 44.4,87.9 29.2,87.9 C9.6,87.8 0,73.5 0,60.6 L0,58 Z M60.6,92.7 L80.2,92.8 C80.8,96.9 84.2,98.5 87.9,98.5 C92.7,98.5 95.4,95.6 95.4,91.4 L95.4,85.4 C91.8,87.2 88.7,87.9 85.1,87.9 C69.4,87.9 60.1,74.9 60.1,62.5 L60.1,32.5 L79.5,32.5 L79.5,62 C79.5,66.6 82,69.6 87.5,69.6 C91.2,69.6 95.4,67.3 95.4,62.4 L95.4,32.4 L114.6,32.4 L114.6,91.8 C114.6,104.1 105,117.3 87.2,117.3 C72.9,117.3 61.5,105.8 60.6,92.7 Z M157.7,51.7 L139.2,51.7 L139.2,85.3 L118.8,85.3 L118.8,30.6 C118.8,11.4 130.3,0.9 149,0.9 L161.8,0.9 L161.8,21.2 L149.2,21.2 C142,21.2 139.2,22.7 139.2,30.2 L139.2,32.5 L157.7,32.5 L157.7,51.7 Z M162.3,92.7 L181.9,92.8 C182.5,96.9 185.9,98.5 189.6,98.5 C194.4,98.5 197.1,95.6 197.1,91.4 L197.1,85.4 C193.5,87.2 190.4,87.9 186.8,87.9 C171.1,87.9 161.8,74.9 161.8,62.5 L161.8,32.5 L181.3,32.5 L181.3,62 C181.3,66.6 183.8,69.6 189.3,69.6 C193,69.6 197.2,67.3 197.2,62.4 L197.2,32.4 L216.4,32.4 L216.4,91.8 C216.4,104.1 206.8,117.3 189,117.3 C174.5,117.3 163.1,105.8 162.3,92.7 Z" id="Shape"></path>
            </g>
            <g id="znation-lockup-project" transform="translate(288.000000, 20.000000)">
                <polygon id="Shape" points="72.1 41.3 38.2 97.6 71 97.6 71 118.4 0.3 118.4 34.4 62.1 2.4 62.1 2.4 41.3"></polygon>
                <path d="M105.9,41.3 L130.4,41.3 L130.4,52.5 C134.7,44.2 143.7,39.4 155.7,39.4 C165.6,39.4 173.1,42.8 177.3,48.2 C182.1,54.1 183.4,61.6 183.4,72.7 L183.4,118.5 L158.9,118.5 L158.9,78.9 C158.9,67.9 155.5,60.2 145.3,60.2 C135.4,60.2 130.4,67.9 130.4,79.7 L130.4,118.4 L105.9,118.4 L105.9,41.3 L105.9,41.3 Z" id="Shape"></path>
                <path d="M275,41.3 L275,118.4 L250.5,118.4 L250.5,107.5 C246.8,114.5 236.9,120.3 227,120.3 C204.8,120.3 189.4,102.9 189.4,79.8 C189.4,56.8 204.8,39.3 227,39.3 C236.9,39.3 246.8,45.2 250.5,52.3 L250.5,41.3 L275,41.3 L275,41.3 Z M250.5,79.8 C250.5,69.2 243.1,60.1 232.1,60.1 C221.1,60.1 213.7,69.2 213.7,79.8 C213.7,90.5 221.1,99.5 232.1,99.5 C243.2,99.5 250.5,90.5 250.5,79.8 Z" id="Shape"></path>
                <path d="M335.2,118.4 C331.5,119 326.1,119.7 318.9,119.7 C307.4,119.7 291.5,118.3 291.5,92.5 L291.5,59.5 L279.3,59.5 L279.3,41.3 L291.5,41.3 L291.5,18.4 L315.8,18.4 L315.8,41.3 L333.4,41.3 L333.4,59.5 L315.8,59.5 L315.8,87 C315.8,98.4 320.3,100.1 326.4,100.1 C329.4,100.1 333,99.9 335.2,99.6 L335.2,118.4 Z" id="Shape"></path>
                <path d="M351.6,0.1 C360.6,0.1 367.4,7 367.4,15.6 C367.4,24.1 360.5,31.1 351.6,31.1 C342.8,31.1 335.9,24.1 335.9,15.6 C336,7 342.8,0.1 351.6,0.1 Z M339.5,41.3 L364,41.3 L364,118.4 L339.5,118.4 L339.5,41.3 Z" id="Shape"></path>
                <path d="M370.7,79.8 C370.7,57.7 386.9,39.2 413.4,39.2 C440.3,39.2 456.3,57.8 456.3,79.8 C456.3,101.9 440.3,120.4 413.4,120.4 C386.8,120.5 370.7,101.9 370.7,79.8 Z M432,79.8 C432,69.1 424.6,60.1 413.4,60.1 C402.4,60.1 395.2,69.1 395.2,79.8 C395.2,90.7 402.4,99.5 413.4,99.5 C424.6,99.5 432,90.7 432,79.8 Z" id="Shape"></path>
                <path d="M463,41.3 L487.5,41.3 L487.5,52.5 C491.8,44.2 500.8,39.4 512.8,39.4 C522.7,39.4 530.2,42.8 534.4,48.2 C539.2,54.1 540.5,61.6 540.5,72.7 L540.5,118.5 L516,118.5 L516,78.9 C516,67.9 512.6,60.2 502.4,60.2 C492.5,60.2 487.5,67.9 487.5,79.7 L487.5,118.4 L463,118.4 L463,41.3 Z" id="Shape"></path>
            </g>
        </g>
    </g>
</svg>
