<?xml version="1.0" encoding="utf-8"?>
<!-- Generator: Adobe Illustrator 20.1.0, SVG Export Plug-In . SVG Version: 6.00 Build 0)  -->
<svg version="1.1" id="znation-lockup" xmlns="http://www.w3.org/2000/svg" xmlns:xlink="http://www.w3.org/1999/xlink" x="0px"
	 y="0px" viewBox="0 0 828.4 169.1" style="enable-background:new 0 0 828.4 169.1;" xml:space="preserve">
<style type="text/css">
	.st0{fill:#FFFFFF;}
</style>
<g id="divider">
	<g>
		<rect x="252.4" class="st0" width="5" height="169.1"/>
	</g>
</g>
<g id="znation-lockup-logo">
	<path class="st0" d="M0,96h19.1v1.1c0,5.3,3.8,9.9,10.1,9.9c4.2,0,7.9-2.5,7.9-6.3c0-3.4-2.1-5-4.8-6.3l-17.5-8.7
		C4.3,80.3,0,74.1,0,63c0-13.2,12-24.1,28.2-24.1c20.2,0,28.1,16.8,28.1,26.2V66H36.4c-0.5-4.7-3.2-8.4-8.4-8.4
		c-3.5,0-7.6,1.8-7.6,5.9c0,2.3,1,4.1,3.7,5.3l14.7,6.6c9,4.1,18.1,11.4,18.1,23.4c0,14.4-12.5,27.1-27.7,27.1
		C9.6,125.8,0,111.5,0,98.6V96z M60.6,130.7l19.6,0.1c0.6,4.1,4,5.7,7.7,5.7c4.8,0,7.5-2.9,7.5-7.1v-6c-3.6,1.8-6.7,2.5-10.3,2.5
		c-15.7,0-25-13-25-25.4V70.5h19.4V100c0,4.6,2.5,7.6,8,7.6c3.7,0,7.9-2.3,7.9-7.2v-30h19.2v59.4c0,12.3-9.6,25.5-27.4,25.5
		C72.9,155.3,61.5,143.8,60.6,130.7z M157.7,89.7h-18.5v33.6h-20.4V68.6c0-19.2,11.5-29.7,30.2-29.7h12.8v20.3h-12.6
		c-7.2,0-10,1.5-10,9v2.3h18.5V89.7z M162.3,130.7l19.6,0.1c0.6,4.1,4,5.7,7.7,5.7c4.8,0,7.5-2.9,7.5-7.1v-6
		c-3.6,1.8-6.7,2.5-10.3,2.5c-15.7,0-25-13-25-25.4V70.5h19.5V100c0,4.6,2.5,7.6,8,7.6c3.7,0,7.9-2.3,7.9-7.2v-30h19.2v59.4
		c0,12.3-9.6,25.5-27.4,25.5C174.5,155.3,163.1,143.8,162.3,130.7z"/>
</g>
<g id="znation-lockup-project">
	<path class="st0" d="M360.1,61.3l-33.9,56.3H359v20.8h-70.7l34.1-56.3h-32V61.3H360.1z"/>
	<path class="st0" d="M393.9,61.3h24.5v11.2c4.3-8.3,13.3-13.1,25.3-13.1c9.9,0,17.4,3.4,21.6,8.8c4.8,5.9,6.1,13.4,6.1,24.5v45.8
		h-24.5V98.9c0-11-3.4-18.7-13.6-18.7c-9.9,0-14.9,7.7-14.9,19.5v38.7h-24.5V61.3z"/>
	<path class="st0" d="M563,61.3v77.1h-24.5v-10.9c-3.7,7-13.6,12.8-23.5,12.8c-22.2,0-37.6-17.4-37.6-40.5c0-23,15.4-40.5,37.6-40.5
		c9.9,0,19.8,5.9,23.5,13v-11H563z M538.5,99.8c0-10.6-7.4-19.7-18.4-19.7c-11,0-18.4,9.1-18.4,19.7c0,10.7,7.4,19.7,18.4,19.7
		C531.2,119.5,538.5,110.5,538.5,99.8z"/>
	<path class="st0" d="M623.2,138.4c-3.7,0.6-9.1,1.3-16.3,1.3c-11.5,0-27.4-1.4-27.4-27.2v-33h-12.2V61.3h12.2V38.4h24.3v22.9h17.6
		v18.2h-17.6V107c0,11.4,4.5,13.1,10.6,13.1c3,0,6.6-0.2,8.8-0.5V138.4z"/>
	<path class="st0" d="M639.6,20.1c9,0,15.8,6.9,15.8,15.5c0,8.5-6.9,15.5-15.8,15.5c-8.8,0-15.7-7-15.7-15.5
		C624,27,630.8,20.1,639.6,20.1z M627.5,61.3H652v77.1h-24.5V61.3z"/>
	<path class="st0" d="M658.7,99.8c0-22.1,16.2-40.6,42.7-40.6c26.9,0,42.9,18.6,42.9,40.6c0,22.1-16,40.6-42.9,40.6
		C674.8,140.5,658.7,121.9,658.7,99.8z M720,99.8c0-10.7-7.4-19.7-18.6-19.7c-11,0-18.2,9-18.2,19.7c0,10.9,7.2,19.7,18.2,19.7
		C712.6,119.5,720,110.7,720,99.8z"/>
	<path class="st0" d="M751,61.3h24.5v11.2c4.3-8.3,13.3-13.1,25.3-13.1c9.9,0,17.4,3.4,21.6,8.8c4.8,5.9,6.1,13.4,6.1,24.5v45.8H804
		V98.9c0-11-3.4-18.7-13.6-18.7c-9.9,0-14.9,7.7-14.9,19.5v38.7H751V61.3z"/>
</g>
</svg>
