
<svg width="183px" height="132px" viewBox="0 0 183 132" version="1.1" xmlns="http://www.w3.org/2000/svg" xmlns:xlink="http://www.w3.org/1999/xlink">
    <g id="Page-1" stroke="none" stroke-width="1" fill="none" fill-rule="evenodd">
        <g id="believe" fill-rule="nonzero" fill="#666666">
            <path d="M133.76,74.8 C134.959051,76.4020403 136.326916,77.8704835 137.84,79.18 C138.19754,79.4933304 138.469414,79.8925372 138.63,80.34 C138.96,81.22 139.05,82.15 139.38,83.06 C139.06,83.2 138.76,83.06 138.47,83.06 C137.74,83 137,82.89 136.27,82.79 C135.333944,82.6813899 134.466287,82.2457906 133.82,81.56 C132.21175,79.9071115 130.702459,78.1607416 129.3,76.33 L128.67,75.5 C128.6,75.41 128.53,75.32 128.41,75.39 C128.29,75.46 128.36,75.54 128.41,75.62 L128.61,76.1 C129.323291,77.7091504 130.183608,79.2490174 131.18,80.7 C131.512154,81.1572898 131.697036,81.7049581 131.71,82.27 L131.71,84.99 C131.64,85.05 131.5,84.99 131.37,84.91 L129.13,84.12 C128.208434,83.8301074 127.436801,83.1912669 126.98,82.34 C125.816082,80.2780734 124.771042,78.1512674 123.85,75.97 C123.77,75.77 123.68,75.57 123.58,75.37 C123.54232,75.0517459 123.409936,74.7521408 123.2,74.51 C123.194447,74.8092913 123.241843,75.107208 123.34,75.39 C123.56,76.45 123.78,77.51 124.01,78.58 C124.242341,79.8502614 124.279435,81.148545 124.12,82.43 C123.51,82.19 122.9,81.98 122.32,81.7 C121.589864,81.3366955 121.045685,80.6836807 120.82,79.9 C120.261953,78.2111667 119.830755,76.4830317 119.53,74.73 C119.39,73.94 119.32,73.14 119.19,72.35 C119.13373,72.0707226 119.247423,71.7845302 119.48,71.62 C120.414991,70.8165967 121.63074,70.4173419 122.86,70.51 C124.886769,70.6811482 126.835652,71.3697997 128.52,72.51 L129.02,72.81 L129.13,72.81 L128.47,69.11 C128.799818,69.0415348 129.140182,69.0415348 129.47,69.11 L133.31,69.29 C133.58,69.29 133.83,69.35 134.09,69.36 C134.35,69.37 134.45,69.42 134.51,69.17 C134.575518,69.0014396 134.501831,68.810721 134.34,68.73 C134.095421,68.5906785 133.878493,68.4076456 133.7,68.19 C133.561441,68.0213876 133.456236,67.8279464 133.39,67.62 C133.25,67.16 133.33,67.08 133.83,67.15 C136.344151,67.5262626 138.9128,67.2508042 141.29,66.35 C140.86,65.62 140.35,64.99 139.96,64.22 C140.419604,64.0290671 140.912314,63.9305252 141.41,63.93 L146.82,63.14 C147.02,63.14 147.2,63.14 147.23,62.84 C147.26,62.54 147.08,62.52 146.89,62.45 L143.95,61.36 L145.73,60.91 C147.335477,60.5265078 148.904685,60.0045537 150.42,59.35 C150.981321,59.1152485 151.506543,58.8021356 151.98,58.42 C152.292918,58.1999381 152.491006,57.8514505 152.52,57.47 L151.08,57.4 C150.60057,57.3981858 150.12572,57.3066075 149.68,57.13 C149.27,56.95 149.21,56.74 149.45,56.37 C149.626297,56.1201307 149.838596,55.8977223 150.08,55.71 C150.544002,55.3304003 151.042894,54.9955737 151.57,54.71 C154.26,53.19 156.74,51.35 159.28,49.59 C160.381589,48.840314 161.388846,47.9606424 162.28,46.97 C162.473846,46.7628748 162.684572,46.5722186 162.91,46.4 C168.02,42.26 172.84,37.81 177.53,33.2 C179.16,31.6 180.75,29.96 182.36,28.34 C182.49,28.21 182.58,27.99 182.83,28.07 L182.83,28.2 C182.61847,28.5120376 182.443963,28.8476272 182.31,29.2 C180.410966,32.8857494 178.08135,36.3331769 175.37,39.47 C170.400154,45.2607314 164.628513,50.3117586 158.23,54.47 L157.75,54.77 C157.357338,54.9784344 156.991344,55.233623 156.66,55.53 C157.053216,55.4545512 157.425214,55.2941484 157.75,55.06 C160.987171,53.4444865 164.035708,51.475849 166.84,49.19 C170.02,46.74 173.04,44.08 175.96,41.33 C176.124277,41.1295553 176.320189,40.9572876 176.54,40.82 L176.79,40.82 C175.946852,44.4216088 174.024553,47.6800975 171.28,50.16 C169.425264,51.9040796 167.435752,53.4990332 165.33,54.93 C162.895356,56.4996779 160.234443,57.6868026 157.44,58.45 L157.07,58.58 C156.68421,58.602434 156.314434,58.7419725 156.01,58.98 L157.07,58.81 C160.421453,58.256366 163.646076,57.104715 166.59,55.41 C167.572892,54.8516896 168.503339,54.2057313 169.37,53.48 C170.708622,52.3954369 172.321669,51.7031419 174.03,51.48 C174.069836,51.4748726 174.110164,51.4748726 174.15,51.48 C174.15,51.63 174.08,51.73 174.01,51.83 C172.084614,54.8770004 169.514191,57.4644907 166.48,59.41 C164.399089,60.6864576 162.077488,61.5204637 159.66,61.86 C157.9,62.13 156.15,62.46 154.4,62.77 C154.34,62.77 154.26,62.77 154.24,62.87 C155.491112,62.9390465 156.745862,62.8988945 157.99,62.75 C160.497579,62.5188026 162.964717,61.9642007 165.33,61.1 C166.226424,60.7679418 167.098548,60.3736482 167.94,59.92 C169.660081,59.0039927 171.608247,58.604636 173.55,58.77 L173.77,58.82 C173.801162,58.8501441 173.818757,58.891644 173.818757,58.935 C173.818757,58.978356 173.801162,59.0198559 173.77,59.05 L173.77,59.05 C170.57592,62.5541569 166.52221,65.1635604 162.01,66.62 C159.806822,67.2750654 157.496713,67.4924874 155.21,67.26 C153.61,67.11 152,67.04 150.4,66.93 C149.68,66.88 148.97,66.8 148.26,66.73 C147.984294,66.6698458 147.70186,66.6463096 147.42,66.66 C147.660853,66.847001 147.955176,66.9521163 148.26,66.96 C149.732614,67.4130545 151.246795,67.7179007 152.78,67.87 C154.679702,68.0572459 156.562016,68.3915823 158.41,68.87 C159.600641,69.1517026 160.694793,69.7453753 161.58,70.59 C161.812201,70.8000555 162.055911,70.9970267 162.31,71.18 C161.516554,71.5380609 160.684358,71.8031554 159.83,71.97 C158.414896,72.3086299 156.982904,72.5723301 155.54,72.76 C154.325046,72.8612998 153.101704,72.7599178 151.92,72.46 C148.963478,71.8662553 146.042293,71.1084166 143.17,70.19 C142.815379,70.0027113 142.428622,69.8839703 142.03,69.84 C142.371985,70.1003853 142.758182,70.2968716 143.17,70.42 C145.635551,71.5996487 148.181994,72.6021854 150.79,73.42 C151.657737,73.6982417 152.462798,74.1432334 153.16,74.73 C154.01,75.43 154.76,76.26 155.7,76.95 C155.510009,77.0729148 155.285942,77.1324327 155.06,77.12 C153.631734,77.3981691 152.184075,77.5653353 150.73,77.62 C150.014588,77.6206847 149.304336,77.4989271 148.63,77.26 C145.95,76.26 143.34,75.17 140.74,74 C140.523521,73.8577472 140.268977,73.7845221 140.01,73.79 C140.393828,74.2134093 140.826902,74.5894109 141.3,74.91 C141.74,75.26 142.2,75.59 142.66,75.91 C143.12,76.23 143.59,76.55 144.06,76.86 C144.53,77.17 144.98,77.44 145.45,77.71 C145.92,77.98 146.45,78.27 146.93,78.53 C147.41,78.79 147.93,79.04 148.45,79.28 C148.97,79.52 149.45,79.74 150.03,80 C149.459879,80.2078254 148.86467,80.3389731 148.26,80.39 C145.059628,80.9008473 141.780274,80.3308308 138.94,78.77 C138.054944,78.257356 137.232719,77.6432044 136.49,76.94 L133.89,74.57 C133.778482,74.3798872 133.620113,74.2215181 133.43,74.11 C133.37,74.11 133.33,73.95 133.23,74.11 C133.13,74.27 133.28,74.04 133.23,74.01 L133.13,74.01 C133.13,74.01 133.13,74.09 133.2,74.1 C133.186991,74.171159 133.230336,74.2405112 133.3,74.26 C133.386766,74.4874872 133.5492,74.6781707 133.76,74.8 L133.76,74.8 Z M139.65,73.6 L139.65,73.6 L139.65,73.6 C139.72,73.69 139.77,73.8 139.92,73.73 C140.07,73.66 139.92,73.85 139.98,73.87 C140.04,73.89 140.05,73.87 140.05,73.81 C140.05,73.75 139.97,73.74 139.91,73.74 C139.91,73.55 139.74,73.62 139.65,73.59 L139.65,73.6 Z M128.2,74.88 C128.130545,74.9863295 128.130545,75.1236705 128.2,75.23 C128.2,75.32 128.31,75.39 128.39,75.36 C128.47,75.33 128.47,75.19 128.39,75.09 C128.350918,75.0013763 128.284283,74.9277278 128.2,74.88 L128.2,74.88 Z M141.78,69.76 C141.78,69.84 141.78,69.71 141.78,69.76 L141.78,69.76 L141.78,69.76 L141.83,69.76 L141.78,69.76 Z M128.07,74.69 L128.07,74.69 L128.07,74.69 C128.07,74.69 128.13,74.64 128.07,74.61 C128.01,74.58 128.13,74.68 128.07,74.68 L128.07,74.69 Z" id="Shape"></path>
            <path d="M94.62,1.12 C100.771196,1.6126676 106.886142,2.48432297 112.93,3.73 C115.989971,4.41219685 118.997557,5.31113071 121.93,6.42 C125.47,7.67 128.99,9 132.59,10.06 C133.604824,10.3786124 134.640683,10.6258819 135.69,10.8 C137.443009,11.0141848 139.221465,10.8574626 140.91,10.34 C141.893354,10.0609395 142.85035,9.69621 143.77,9.25 C143.9,9.19 144.01,9.04 144.22,9.14 L142.99,12.75 L136.17,32.75 C135.554234,34.8939572 133.789226,36.5122027 131.6,36.94 C130.244991,37.1840914 128.850755,37.0913712 127.54,36.67 C125.875739,36.1653808 124.2457,35.5541161 122.66,34.84 C119.030661,33.2324967 115.307157,31.8466185 111.51,30.69 C107.983545,29.6741575 104.382339,28.938535 100.74,28.49 C97.1345431,28.0436272 93.5025893,27.8464927 89.87,27.9 C80.7417206,27.9838997 71.7134068,29.809927 63.27,33.28 C60.92,34.28 58.6,35.28 56.22,36.17 C55.0656102,36.6147592 53.8592113,36.9104782 52.63,37.05 C49.7298798,37.4241603 46.9741908,35.680851 46.07,32.9 C43.9566667,26.6466667 41.83,20.4 39.69,14.16 L38.1,9.47 C38.1,9.35 38.03,9.23 37.97,9.05 C38.1641541,9.07600164 38.3492901,9.14799899 38.51,9.26 C40.6243014,10.3068408 42.9507389,10.8542379 45.31,10.86 C46.7644807,10.7790063 48.2010874,10.4997596 49.58,10.03 C53.18,8.97 56.72,7.7 60.24,6.38 C64.7743288,4.70514241 69.4641156,3.48579784 74.24,2.74 C77.09,2.28 79.95,1.84 82.81,1.51 C84.36,1.33 85.92,1.22 87.48,1.08 L88.65,1.08 C88.87,1.08 89.13,1.17 89.31,0.95 L92.85,0.95 C93.08,1.19 93.37,1.04 93.63,1.08 L94.62,1.12 Z M39.99,11.27 C40.05,11.47 40.07,11.59 40.11,11.71 L47.27,32.71 C47.368454,32.9972504 47.4992968,33.2723559 47.66,33.53 C48.6261783,35.1697838 50.4699485,36.0838231 52.36,35.86 C53.5772296,35.7445376 54.7703901,35.4479327 55.9,34.98 C58.35,34.07 60.72,32.98 63.13,31.98 C71.8844134,28.4339776 81.2447186,26.6237299 90.69,26.65 C92.93,26.65 95.1666667,26.7333333 97.4,26.9 C99.2,27.04 100.99,27.22 102.76,27.49 C107.15908,28.1558667 111.485109,29.2373739 115.68,30.72 C118.51,31.72 121.26,32.9 124.02,34.06 C125.633965,34.8102299 127.328254,35.3738746 129.07,35.74 C131.68325,36.3805173 134.33479,34.8382046 135.07,32.25 C137.07,26.19 139.17,20.16 141.23,14.13 L142.18,11.33 C142.12,11.33 142.1,11.27 142.08,11.27 C141.87,11.27 141.66,11.36 141.45,11.42 C138.852759,12.2406407 136.072534,12.2858194 133.45,11.55 C130.65,10.77 127.9,9.81 125.16,8.85 C122.21,7.85 119.3,6.67 116.3,5.8 C112.129182,4.69261026 107.890028,3.86081406 103.61,3.31 C102.05,3.08 100.48,2.86 98.91,2.7 C97.34,2.54 95.76,2.37 94.18,2.3 C91.847453,2.18543596 89.5102405,2.20546921 87.18,2.36 C85.52,2.48 83.85,2.63 82.18,2.83 C79.34,3.17 76.51,3.59 73.7,4.1 C70.4836639,4.59631638 67.3107736,5.34189545 64.21,6.33 L58.07,8.49 C54.94,9.58 51.81,10.72 48.61,11.59 C46.2980857,12.2204067 43.8622805,12.2410784 41.54,11.65 C41.01,11.58 40.54,11.43 39.98,11.28 L39.99,11.27 Z" id="Shape"></path>
            <path d="M85.86,131.32 C85.8636759,131.283425 85.8636759,131.246575 85.86,131.21 L88,131.21 L92.4,131.21 C92.3942563,131.249794 92.3942563,131.290206 92.4,131.33 L85.86,131.32 Z" id="Shape"></path>
            <path d="M77.6,69.47 C76.6975303,69.5994067 75.8225065,69.8764412 75.01,70.29 C73.7516939,71.0705626 73.1037888,72.5452424 73.38,74 C73.551257,75.5441805 74.1582064,77.0077956 75.13,78.22 C75.3682889,78.4794801 75.5670862,78.7726219 75.72,79.09 C74.8517818,78.8651772 74.0051498,78.5640037 73.19,78.19 C72.1937635,77.7497446 71.2831106,77.1370005 70.5,76.38 C69.2751317,75.20901 68.5877047,73.5845114 68.6,71.89 C68.531968,70.0792548 68.9314672,68.2815085 69.76,66.67 C70.8072337,64.6384057 72.5342604,63.0387826 74.64,62.15 C75.16,61.93 75.64,61.73 76.22,61.53 C76.4299694,61.4805693 76.5861328,61.304385 76.61,61.09 C77.13,57.85 79.01,55.48 81.48,53.47 C82.665164,52.5169175 83.941325,51.6828911 85.29,50.98 C86.85,50.16 88.39,49.31 89.89,48.38 C91.0716426,47.644584 92.2040474,46.8328602 93.28,45.95 C93.676308,45.6310844 94.0322661,45.2650519 94.34,44.86 C93.17,45.09 92.11,45.31 91.04,45.5 C89.46,45.77 87.85,45.88 86.25,46.04 C83.39,46.34 80.52,46.36 77.65,46.46 C75.4972971,46.4983454 73.3602976,46.8348807 71.3,47.46 C70.6768378,47.6500737 70.0765416,47.9083017 69.51,48.23 C68.0252985,49.0245915 67.07364,50.5472451 67.01,52.23 C66.8930432,53.3625143 67.0296817,54.5068618 67.41,55.58 C67.8473625,56.9033324 69.0668138,57.810924 70.46,57.85 C71.370378,57.9436034 72.2902654,57.8448007 73.16,57.56 C73.6,57.41 73.94,57.1 74.41,56.89 C74.4141383,57.1945668 74.2993385,57.4887412 74.09,57.71 C73.5537083,58.3581471 72.7510928,58.7263194 71.91,58.71 C70.2740746,58.8024542 68.6524744,58.3601996 67.29,57.45 C65.1242067,56.2028011 63.6281196,54.0540093 63.21,51.59 C62.45,46.79 63.79,42.73 67.69,39.66 C70.0409762,37.7876226 72.9646612,36.7812818 75.97,36.81 C77.0156582,36.8413501 78.0506177,37.0301376 79.04,37.37 C80.8195701,37.9416319 82.5571169,38.6366507 84.24,39.45 C86.0886997,40.3640979 88.0042196,41.1363232 89.97,41.76 C90.4301707,41.8933228 90.8976036,42.0001647 91.37,42.08 C92.3709167,42.3142266 93.3976081,41.8071667 93.82,40.87 C94.298226,39.8479054 94.6572539,38.774177 94.89,37.67 C94.9906721,37.1567761 95.1587973,36.6591257 95.39,36.19 C95.6556736,35.6540556 96.1472912,35.265164 96.73,35.13 C97.118703,35.0440477 97.5252697,35.1438413 97.83,35.4 C98.1745592,35.6468079 98.30311,36.0988091 98.14,36.49 C97.4733333,38.55 96.8066667,40.6133333 96.14,42.68 C96.02,43.05 95.91,43.42 95.78,43.83 C96.4177074,43.9010739 97.0631595,43.84672 97.68,43.67 C98.8431489,43.3812529 99.8562066,42.667832 100.52,41.67 C100.85,41.16 101.22,40.67 101.52,40.14 C101.630713,39.8751173 101.9322,39.7465418 102.2,39.85 C102.680691,39.9555951 103.152188,40.0993849 103.61,40.28 C106.588992,41.4437572 109.142469,43.4879339 110.93,46.14 C111.535485,47.0749647 111.92178,48.1347097 112.06,49.24 C112.597433,52.1716858 112.249293,55.1970168 111.06,57.93 C110.051472,60.317414 108.254931,62.2869036 105.97,63.51 C105.32,63.86 104.65,64.18 103.97,64.51 C103.86,64.56 103.7,64.56 103.66,64.78 C104.13,64.78 104.59,64.89 105.05,64.93 C107.394732,65.1528512 109.658279,65.9050873 111.67,67.13 C112.221056,67.4902954 112.644466,68.0151839 112.88,68.63 C113.261985,69.5082775 113.511374,70.4384304 113.62,71.39 C113.889188,73.6595714 113.956118,75.9485776 113.82,78.23 C113.74,80.23 113.37,82.29 113.13,84.31 C113.13,84.65 112.95,84.73 112.64,84.73 C108.631868,84.82195 104.700679,85.849264 101.16,87.73 C99.8960759,88.4184357 98.7972735,89.3739161 97.94,90.53 C97.1482319,91.6419138 96.4777466,92.8353775 95.94,94.09 C95.72,94.53 95.65,95.18 95.22,95.35 C94.79,95.52 94.31,95.18 93.86,95.08 L83.74,92.54 C83.27,92.42 83.27,92.43 83.08,92.84 C82.5142454,93.947305 81.6698687,94.888182 80.63,95.57 C79.56,96.33 78.41,96.93 77.3,97.62 C76.3019589,98.242764 75.196307,98.6734934 74.04,98.89 C71.5604613,99.4464879 68.9706395,99.2408359 66.61,98.3 C64.3646479,97.4718088 62.9183822,95.2801289 63.04,92.89 C63.0876847,89.8619478 64.2481005,86.9573487 66.3,84.73 C67.7504808,82.9651948 69.7816454,81.7741454 72.03,81.37 C73.4460379,81.1192906 74.8906291,81.0721478 76.32,81.23 C78.6770819,81.451289 81.0160102,81.8355415 83.32,82.38 C84.5759969,82.6229712 85.8126081,82.9571905 87.02,83.38 C87.2438129,83.5087518 87.52958,83.4328449 87.66,83.21 L87.66,83.13 C88.3407654,82.0560459 88.3715549,80.6936111 87.74,79.59 C86.9814103,78.3746666 85.9553334,77.3485897 84.74,76.59 C84.1051688,76.1404112 83.3983944,75.8022417 82.65,75.59 C82.2159443,75.4398946 81.7440557,75.4398946 81.31,75.59 C80.7523559,75.7700678 80.1746901,75.8808991 79.59,75.92 C78.79,76.01 77.99,76.09 77.19,76.11 C76.7649349,76.1467984 76.3633387,75.9098566 76.19,75.52 C75.609729,74.48334 75.4830902,73.2531345 75.84,72.12 C76.0762268,71.3874098 76.4532877,70.7080207 76.95,70.12 L77.6,69.47 Z M94.41,48.17 C94.1482323,48.1601738 93.8887947,48.2224388 93.66,48.35 C92.5274993,48.8015504 91.4716779,49.4255981 90.53,50.2 C89.437909,51.0495093 88.6602352,52.2388927 88.32,53.58 C87.475416,56.6275477 87.7888926,59.8798683 89.2,62.71 C90.2,64.71 91.2,66.71 92.03,68.79 C92.2524581,69.2631584 92.3944072,69.7701194 92.45,70.29 C92.5909749,71.8057707 92.6543909,73.3277558 92.64,74.85 C92.58,75.94 92.58,77.03 92.5,78.11 C92.38,79.66 92.64,81.24 92.16,82.77 C92.09,82.98 92.16,83.08 92.38,83.17 C92.8096815,83.3228763 93.2641507,83.3940991 93.72,83.38 C94.56,83.38 94.45,83.52 94.45,82.69 L94.45,48.82 C94.4778822,48.6055073 94.4608551,48.3875601 94.4,48.18 L94.41,48.17 Z M101.75,85.42 L101.75,85.05 C101.75,83.05 101.85,81.14 101.87,79.18 C102.000666,76.2047292 101.920466,73.2239399 101.63,70.26 C101.635007,69.4804462 101.313634,68.7343517 100.743725,68.202437 C100.173817,67.6705223 99.4073572,67.4013066 98.63,67.46 C97.6268587,67.4513575 96.6372626,67.6918844 95.75,68.16 C95.3896948,68.2950333 95.1672048,68.6576096 95.21,69.04 L95.21,82.94 C95.2149227,83.0299327 95.2149227,83.1200673 95.21,83.21 C95.1662059,83.4165554 95.294749,83.6204514 95.5,83.67 L95.5,83.67 C95.9582159,83.8109628 96.3954492,84.0127628 96.8,84.27 C97.1913686,84.5058922 97.6161766,84.6812098 98.06,84.79 C99.2496917,85.085819 100.459673,85.2930533 101.68,85.41 L101.75,85.42 Z M95.28,55.42 L95.28,62.42 C95.243716,62.7775137 95.4532876,63.1144719 95.79,63.24 C96.0091601,63.3376061 96.2417674,63.4016574 96.48,63.43 C97.0834274,63.5186605 97.6965726,63.5186605 98.3,63.43 C100.05047,63.238944 101.460197,61.9068539 101.75,60.17 C101.837673,59.6776234 101.891134,59.1797652 101.91,58.68 C102,56.78 101.98,54.89 101.91,53 C101.933715,51.9581126 101.696521,50.9268332 101.22,50 C100.933845,49.4829975 100.478271,49.0803972 99.93,48.86 C98.6055136,48.3722493 97.210813,48.1020894 95.8,48.06 C95.32,48.06 95.31,48.06 95.31,48.57 C95.29,50.8566667 95.28,53.1533333 95.28,55.46 L95.28,55.42 Z M82.2,92.12 C81.05,91.85 80.07,91.52 79.04,91.33 C77.6676366,91.1168145 76.2768734,91.0464385 74.89,91.12 C73.8778714,91.1276686 72.8704479,91.2586337 71.89,91.51 C71.1461237,91.6750379 70.4467805,91.9991237 69.84,92.46 C69.0657354,93.0844872 68.6809163,94.0728738 68.8290774,95.0564988 C68.9772385,96.0401238 69.6361337,96.8712982 70.56,97.24 C71.2853968,97.547314 72.0753942,97.6709657 72.86,97.6 C73.9393787,97.5030463 75.0073472,97.3055224 76.05,97.01 C78.73,96.19 80.56,94.37 82.2,92.12 Z" id="Shape"></path>
            <path d="M0,28.04 L0.21,28.04 C3.98,32.04 7.91,35.78 11.94,39.46 C14.59,41.89 17.29,44.24 20.1,46.46 C20.2550757,46.5801249 20.3989929,46.7140013 20.53,46.86 C21.484342,47.9353134 22.573315,48.8831233 23.77,49.68 C25.22,50.68 26.66,51.68 28.12,52.68 C28.94,53.22 29.75,53.77 30.6,54.24 C31.324277,54.6336196 32.0134681,55.0886195 32.66,55.6 C32.940383,55.8078292 33.1837833,56.0613712 33.38,56.35 C33.62,56.73 33.56,56.93 33.14,57.11 C32.6938894,57.2852643 32.2192931,57.3767935 31.74,57.38 L30.3,57.45 C30.3447585,57.8573743 30.5682663,58.2237805 30.91,58.45 C31.3746263,58.8132468 31.8858444,59.1125785 32.43,59.34 C34.2725542,60.1205384 36.1842607,60.7265259 38.14,61.15 L38.83,61.32 C38.3570331,61.5567 37.8653703,61.754034 37.36,61.91 C36.9,62.1 36.43,62.26 35.96,62.43 C35.78,62.5 35.59,62.53 35.6,62.81 C35.61,63.09 35.81,63.08 36.01,63.12 L40.46,63.76 L42.52,64.05 C42.655867,64.0560958 42.7844304,64.1132351 42.88,64.21 C42.52,64.93 42.03,65.57 41.57,66.29 C42.1307462,66.563253 42.7262826,66.7584005 43.34,66.87 C45.241854,67.357734 47.2255879,67.4361289 49.16,67.1 C49.5,67.04 49.53,67.1 49.48,67.42 C49.3717848,67.9379255 49.0481105,68.3852508 48.59,68.65 C48.49,68.72 48.35,68.76 48.3,68.9 C48.25,69.04 48.43,69.37 48.75,69.35 L53.96,69.03 C54.1038498,69.0012023 54.2532657,69.0261049 54.38,69.1 L53.72,72.79 C54.02,72.79 54.16,72.61 54.34,72.5 C55.7309581,71.6015378 57.2774651,70.9707257 58.9,70.64 C59.8191278,70.4478545 60.7700183,70.4683773 61.68,70.7 C62.2216213,70.8611023 62.7297522,71.1185552 63.18,71.46 C63.5663519,71.6750446 63.7656105,72.1182934 63.67,72.55 C63.377343,75.0750847 62.831257,77.5642986 62.04,79.98 C61.7523297,80.8926895 61.046499,81.6133798 60.14,81.92 L58.76,82.43 C58.6371841,81.8451437 58.6001292,81.2455279 58.65,80.65 C58.7707629,79.0699635 59.0317909,77.5037955 59.43,75.97 L59.59,75.14 C59.6796466,74.9889674 59.6796466,74.8010326 59.59,74.65 C59.4749551,74.7929879 59.4053039,74.9671157 59.39,75.15 C58.44,77.46 57.39,79.71 56.18,81.92 C55.5913654,83.136018 54.4917448,84.0267107 53.18,84.35 C52.49,84.53 51.82,84.77 51.08,85 C51.16,83.86 51.08,82.79 51.22,81.74 C51.2684524,81.3819741 51.3984587,81.0398522 51.6,80.74 C52.7503089,79.0623136 53.7159165,77.2652106 54.48,75.38 C54.6614163,75.1873328 54.7427465,74.9211614 54.7,74.66 C54.483345,74.8571908 54.3126554,75.0995701 54.2,75.37 C52.75,77.27 51.2,79.09 49.62,80.87 C48.606914,82.0873235 47.1227752,82.8148425 45.54,82.87 C44.87,82.87 44.21,83.01 43.46,83.1 C43.712564,81.9901811 44.0468077,80.9005464 44.46,79.84 C44.5844556,79.6111347 44.7546473,79.4103085 44.96,79.25 C46.4203993,77.9731161 47.7594469,76.5637686 48.96,75.04 L49.23,74.67 C49.435501,74.5546468 49.570374,74.3448443 49.59,74.11 L49.69,74.11 L49.64,74.04 L49.59,74.14 C49.4108124,74.1845035 49.2627898,74.3103227 49.19,74.48 C48.24,75.35 47.29,76.2 46.36,77.08 C44.1702897,79.1245224 41.3476821,80.3594132 38.36,80.58 C36.7585978,80.7168845 35.1458754,80.6259795 33.57,80.31 C33.3329391,80.2738737 33.1032972,80.1995778 32.89,80.09 C36.49383,78.5860691 39.8460351,76.5389982 42.83,74.02 C42.9575214,73.9962165 43.0614297,73.9038535 43.1,73.78 C43.1,73.78 43.23,73.78 43.18,73.68 C43.13,73.58 43.07,73.68 43.03,73.68 C42.99,73.68 42.87,73.68 42.83,73.78 C40.2433333,74.96 37.6266667,76.0666667 34.98,77.1 C33.7107846,77.6040023 32.3374255,77.7894058 30.98,77.64 C29.73,77.51 28.5,77.3 27.17,77.08 L27.99,76.36 C28.75,75.69 29.47,74.95 30.3,74.36 C30.7344764,74.0391704 31.2171571,73.7893915 31.73,73.62 C34.4402887,72.7641226 37.0868522,71.7181954 39.65,70.49 C40.0221963,70.3937686 40.3653966,70.2084404 40.65,69.95 C40.7248333,69.9761504 40.8078076,69.9471094 40.85,69.88 L40.85,69.88 C40.77,69.88 40.68,69.88 40.71,69.99 C40.279437,69.9960479 39.8582853,70.1168701 39.49,70.34 C37.49,70.94 35.49,71.53 33.4,72.01 C32.04,72.32 30.68,72.61 29.32,72.83 C28.4779789,72.9347347 27.6249418,72.9111329 26.79,72.76 C24.9411921,72.5094921 23.1153741,72.1115574 21.33,71.57 C21.0620803,71.5157153 20.8094196,71.4030423 20.59,71.24 C21.0335299,70.933148 21.4576717,70.5991781 21.86,70.24 C22.7684493,69.5622697 23.8176584,69.0974735 24.93,68.88 C26.6529053,68.4462296 28.40375,68.1321468 30.17,67.94 C31.7033681,67.7834618 33.2174394,67.475288 34.69,67.02 C34.9308391,67.0095429 35.163517,66.9296685 35.36,66.79 C35.1374128,66.7291832 34.9025872,66.7291832 34.68,66.79 C33.36,66.9 32.04,67.03 30.68,67.13 C29.32,67.23 28.12,67.3 26.84,67.39 C23.5031862,67.5779805 20.1780178,66.8555687 17.22,65.3 C14.2074575,63.7797224 11.480592,61.7497977 9.16,59.3 L8.95,59.05 L8.95,58.98 C8.95,58.86 9.11,58.85 9.22,58.85 C11.1169906,58.6730701 13.0244854,59.0517895 14.71,59.94 C16.803756,61.0478047 19.0471023,61.8461126 21.37,62.31 C23.2425156,62.7033994 25.1471509,62.9243238 27.06,62.97 C27.2797013,62.9942417 27.5012436,62.9450101 27.69,62.83 C27.4714868,62.6910209 27.2189192,62.6149047 26.96,62.61 C25.12,62.28 23.27,62 21.45,61.61 C18.59383,60.9451491 15.9520251,59.5692091 13.77,57.61 C11.8731745,56.0028377 10.2222786,54.1262071 8.87,52.04 C8.72768657,51.895641 8.64548203,51.702639 8.64,51.5 C10.3328181,51.6885171 11.9361309,52.3582993 13.26,53.43 C15.6422265,55.3414378 18.3533143,56.8020364 21.26,57.74 C22.7268104,58.2657333 24.2402885,58.6507996 25.78,58.89 C26.1452174,58.9858617 26.5227639,59.0263131 26.9,59.01 C26.5489041,58.8333342 26.170056,58.7183267 25.78,58.67 L23.06,57.77 C20.8768959,57.0266071 18.8123367,55.9724358 16.93,54.64 C14.5185984,52.9873017 12.2894429,51.0833013 10.28,48.96 C8.39954656,46.9849653 7.0268766,44.5827929 6.28,41.96 C6.21621638,41.512492 6.05212974,41.0851831 5.8,40.71 L5.8,40.71 C6.05,40.53 6.15,40.78 6.27,40.9 C7.57,42.09 8.84,43.3 10.16,44.47 C13.4091206,47.4161403 16.8645846,50.1263737 20.5,52.58 C21.9685025,53.5564471 23.5174222,54.4061784 25.13,55.12 C25.4004733,55.3701286 25.7625788,55.4968655 26.13,55.47 L26.13,55.56 C26.13,55.57 26.13,55.56 26.2,55.56 L26.1,55.51 C25.8848679,55.2773201 25.6175245,55.0990912 25.32,54.99 C22.93,53.4 20.58,51.75 18.32,49.99 C12.6323466,45.555489 7.65208778,40.2818771 3.55,34.35 C2.18165539,32.3562468 0.993627354,30.2445688 0,28.04 Z M28.87,62.91 L28.87,62.81 C28.58,62.75 28.29,62.69 28,62.65 C27.89,62.65 27.73,62.59 27.73,62.79 C27.73,62.99 27.88,62.92 27.97,62.92 L28.87,62.91 Z" id="Shape"></path>
            <path d="M92.39,131.2 L87.99,131.2 L85.85,131.2 C83.72,131.1 81.59,131.03 79.47,130.89 C76.98,130.73 74.47,130.56 71.99,130.31 C70.05,130.11 68.09,129.96 66.15,129.77 C63.32,129.48 60.5,129.12 57.67,128.77 C52.49,128.13 47.43,126.87 42.34,125.77 C37.97,124.77 33.61,123.77 29.21,123.03 C27.2337862,122.644888 25.2232196,122.463937 23.21,122.49 C20.2327493,122.597304 17.2817571,123.088015 14.43,123.95 L13.86,124.13 C13.8402773,123.945165 13.898229,123.760444 14.02,123.62 L25.33,102.83 C26.0236087,101.669631 27.0769223,100.767292 28.33,100.26 C29.8189305,99.5803979 31.4334186,99.219352 33.07,99.2 C35.4334518,99.1682208 37.7896969,99.4678006 40.07,100.09 C43.59,100.97 47.07,101.89 50.61,102.78 C55.0766667,103.906667 59.5866667,104.82 64.14,105.52 C67.4066667,106.02 70.6833333,106.413333 73.97,106.7 C77.16,106.97 80.35,107.15 83.54,107.26 C86.39,107.36 89.24,107.36 92.09,107.33 C94.7566667,107.33 97.4233333,107.23 100.09,107.03 C103.21,106.84 106.33,106.56 109.44,106.18 C113.02,105.74 116.58,105.176667 120.12,104.49 C124.34,103.67 128.51,102.62 132.67,101.49 C135.39,100.77 138.07,100.01 140.83,99.49 C143.286101,98.9772591 145.823981,99.001137 148.27,99.56 C149.306761,99.8160417 150.28905,100.256378 151.17,100.86 C151.961825,101.398367 152.613304,102.118422 153.07,102.96 C156.776667,109.8 160.493333,116.633333 164.22,123.46 L164.49,123.97 C164.32,124.13 164.19,123.97 164.06,123.97 C161.544402,123.202424 158.952263,122.712835 156.33,122.51 C153.875335,122.361614 151.411778,122.529661 149,123.01 C143,124.07 137.1,125.5 131.16,126.82 C127.38,127.65 123.6,128.41 119.75,128.87 C116.24,129.29 112.75,129.71 109.19,130.05 C106.636667,130.29 104.083333,130.506667 101.53,130.7 C98.47,130.91 95.43,131.12 92.39,131.2 Z M16.23,122.12 L16.62,122.12 C18.1674401,121.785949 19.7336157,121.545512 21.31,121.4 C22.8704411,121.265514 24.4395589,121.265514 26,121.4 C27.938353,121.594192 29.8645843,121.894644 31.77,122.3 C37.23,123.39 42.67,124.64 48.11,125.86 C52.5992906,126.855484 57.1393005,127.606588 61.71,128.11 C63.95,128.37 66.19,128.6 68.43,128.83 C71.1,129.1 73.78,129.32 76.43,129.55 C77.94,129.68 79.43,129.75 80.98,129.84 C83.04,129.95 85.1,130.07 87.17,130.08 C89.24,130.09 91.17,130.08 93.23,130.01 C94.55,129.94 95.88,129.91 97.23,129.83 C99.53,129.7 101.82,129.54 104.11,129.35 C106.4,129.16 108.82,128.93 111.17,128.7 C114.17,128.4 117.17,128.03 120.17,127.7 C123.17,127.37 125.96,126.81 128.81,126.2 C135.13,124.84 141.41,123.31 147.76,122.12 C149.311938,121.801142 150.881329,121.574082 152.46,121.44 C155.432118,121.248306 158.416337,121.487448 161.32,122.15 C161.527573,122.22011 161.752427,122.22011 161.96,122.15 C161.88,121.99 161.83,121.88 161.76,121.77 L152.13,103.78 C151.637222,102.853712 150.887091,102.08969 149.97,101.58 C148.585126,100.843708 147.047936,100.439725 145.48,100.4 C143.828895,100.333941 142.176018,100.475041 140.56,100.82 C137.98,101.33 135.45,102.02 132.92,102.7 C126.312321,104.520204 119.599887,105.93616 112.82,106.94 C108.91,107.48 104.99,107.88 101.06,108.17 C99.43,108.3 97.77,108.37 96.12,108.44 C94.12,108.506667 92.1433333,108.55 90.19,108.57 L86.93,108.57 C85.09,108.48 83.24,108.52 81.39,108.42 C79.24,108.31 77.1,108.19 74.96,108.02 C72.41,107.82 69.87,107.55 67.33,107.23 C64.79,106.91 62.05,106.48 59.44,106 C54.51,105.08 49.65,103.87 44.81,102.59 C41.6144983,101.606712 38.3384585,100.907333 35.02,100.5 C33.1347763,100.291191 31.2267501,100.513452 29.44,101.15 C27.9927496,101.663281 26.7973778,102.711916 26.1,104.08 C23.34,109.12 20.56,114.12 17.82,119.12 C17.29,120.06 16.82,121.01 16.21,122.05 L16.23,122.12 Z" id="Shape"></path>
            <path d="M17.84,41.34 C18.3757656,41.7053612 18.8838143,42.1097946 19.36,42.55 C24.8243687,47.0426744 30.8395975,50.8198349 37.26,53.79 C39.2375197,54.6892962 41.26794,55.4674014 43.34,56.12 L43.88,56.3 C45.1944994,56.6705325 46.1836649,57.756675 46.43,59.1 C46.54,59.64 46.67,60.16 46.81,60.68 C47.0922629,61.8435331 47.8971748,62.8109042 48.99,63.3 C50.5391109,64.008796 52.2400871,64.3215007 53.94,64.21 C54.7234126,64.1999422 55.505227,64.1364615 56.28,64.02 C57.5628366,63.8033904 58.8788106,64.1134556 59.93,64.88 C61.3600161,65.8853355 62.5235674,67.2239343 63.32,68.78 C63.8060804,69.6122351 64.1444097,70.522341 64.32,71.47 C64.05,71.47 63.94,71.24 63.78,71.11 C62.9897864,70.4831899 62.0266397,70.1132857 61.02,70.05 C59.3645669,69.9742496 57.7168507,70.3182405 56.23,71.05 C55.74,71.27 55.23,71.53 54.67,71.81 L55.26,68.49 L49.74,68.78 C49.67,68.52 49.85,68.45 49.92,68.33 C50.1063982,68.0592189 50.2231762,67.7466661 50.26,67.42 C50.3195432,67.1411177 50.2769591,66.8501259 50.14,66.6 C49.92,66.3 49.63,66.6 49.38,66.6 C47.1276353,66.9737146 44.8182228,66.7952756 42.65,66.08 C42.8496439,65.6476732 43.0907742,65.2357423 43.37,64.85 C43.96,63.85 43.91,63.72 42.76,63.54 C41.13,63.3 39.5,63.07 37.86,62.84 L36.99,62.68 C37.99,62.32 38.79,62.03 39.6,61.68 C39.85,61.58 40.3,61.68 40.27,61.23 C40.24,60.78 39.82,60.91 39.56,60.86 C37.3230081,60.4091079 35.1358059,59.7392144 33.03,58.86 C32.4273898,58.6346405 31.873936,58.2950983 31.4,57.86 C31.9329098,57.8239984 32.4636123,57.7605811 32.99,57.67 C33.3096478,57.6065761 33.6147903,57.4845191 33.89,57.31 C34.2645076,57.0846794 34.3964683,56.6052223 34.19,56.22 C34.0277125,55.8849854 33.7958981,55.5883994 33.51,55.35 C32.979671,54.8653592 32.3959158,54.4426399 31.77,54.09 C29.14,52.6 26.71,50.78 24.22,49.09 C22.4638957,47.8720174 20.9483739,46.3395435 19.75,44.57 C18.9930193,43.5308478 18.3240335,42.4303662 17.75,41.28 L17.84,41.34 Z" id="Shape"></path>
            <path d="M164.99,41.63 C163.707405,44.4039738 161.784709,46.8339048 159.38,48.72 C157.54,50.08 155.66,51.37 153.77,52.64 C152.95,53.18 152.1,53.64 151.26,54.17 C150.620952,54.5427225 150.018308,54.9746176 149.46,55.46 C149.19255,55.6824928 148.965837,55.9498101 148.79,56.25 C148.63637,56.4678585 148.591099,56.7441259 148.667163,56.9996231 C148.743227,57.2551204 148.932229,57.4616426 149.18,57.56 C149.713133,57.8075258 150.292286,57.9403902 150.88,57.95 L151.42,57.95 C151.42,58.19 151.21,58.25 151.08,58.33 C150.179839,58.8616046 149.219799,59.2845593 148.22,59.59 C146.561035,60.1717242 144.859202,60.6230945 143.13,60.94 L142.81,61.02 C142.704431,61.0443492 142.632304,61.1419328 142.64,61.25 C142.64,61.37 142.64,61.52 142.79,61.57 L143.46,61.81 L145.89,62.69 C144.95,62.92 144.12,62.98 143.31,63.11 C142.09,63.3 140.86,63.47 139.64,63.65 C139.12,63.73 139.03,63.86 139.26,64.33 C139.49,64.8 139.71,65.12 139.94,65.51 C140.05,65.69 140.23,65.84 140.24,66.11 C138.026066,66.8445321 135.660833,66.9994599 133.37,66.56 L133.05,66.49 C132.87,66.49 132.78,66.49 132.72,66.69 C132.56579,67.1720014 132.627788,67.6971597 132.89,68.13 C132.99,68.32 133.12,68.49 133.29,68.74 C131.39,68.74 129.53,68.53 127.65,68.47 L128.22,71.66 C127.97,71.76 127.85,71.6 127.71,71.52 C126.532017,70.863948 125.260666,70.3918282 123.94,70.12 C122.069791,69.6285633 120.078327,70.1349319 118.67,71.46 C118.611332,71.2882039 118.611332,71.1017961 118.67,70.93 C119.321605,68.5304027 120.757967,66.4181059 122.75,64.93 C123.842337,64.0758423 125.240333,63.7136672 126.61,63.93 C128.177006,64.1968736 129.775797,64.2204845 131.35,64 C132.189324,63.8678475 133.006801,63.622268 133.78,63.27 C134.95985,62.7604282 135.822995,61.714981 136.1,60.46 C136.2,60.04 136.3,59.61 136.37,59.19 C136.613497,57.7206212 137.712122,56.5393046 139.16,56.19 C140.47,55.8 141.76,55.34 143.03,54.83 C148.328736,52.6744101 153.361837,49.9162704 158.03,46.61 C160.203333,45.0966667 162.313333,43.4866667 164.36,41.78 C164.51,41.65 164.67,41.55 164.83,41.43 L164.99,41.63 Z" id="Shape"></path>
            <path d="M143.24,19.27 L146.48,19.97 L149.4,20.62 C150.01,20.76 150.01,20.76 150.4,20.21 L153.48,15.45 C153.577578,15.2377587 153.729334,15.0549609 153.92,14.92 L154.29,18.64 L154.55,21.3 C154.6,21.88 154.6,21.88 155.15,22.03 L161.15,23.61 L161.33,23.67 C161.26,23.91 161.03,23.91 160.86,23.99 L155.54,26.3 C154.84,26.6 154.96,26.46 155,27.12 C155.11,29.23 155.23,31.33 155.34,33.45 C155.07,33.52 155.02,33.27 154.91,33.15 C153.61,31.69 152.32,30.21 151.02,28.75 C150.57,28.25 150.73,28.29 150.11,28.53 L144.76,30.59 L144.03,30.84 L144.48,30.06 C145.41,28.49 146.34,26.92 147.26,25.34 C147.66,24.65 147.71,24.86 147.16,24.18 L143.66,19.88 L143.26,19.38 L143.24,19.27 Z M153.24,19.47 C153.16,19 153.29,18.47 153.04,18.03 C152.868153,18.1827988 152.725796,18.3658285 152.62,18.57 C151.99,19.57 151.35,20.5 150.75,21.48 C150.692294,21.6287795 150.576782,21.7478385 150.429815,21.8100168 C150.282848,21.872195 150.116962,21.872189 149.97,21.81 C148.84,21.52 147.69,21.29 146.54,21.04 C146.334491,20.9785775 146.115509,20.9785775 145.91,21.04 C145.982494,21.2748375 146.11727,21.4856413 146.3,21.65 C147.03,22.56 147.77,23.48 148.53,24.37 C148.620279,24.4441909 148.677338,24.551246 148.688594,24.6675554 C148.69985,24.7838648 148.664377,24.8998746 148.59,24.99 L148.59,24.99 C148.35,25.35 148.13,25.73 147.92,26.11 C147.45,26.96 146.92,27.76 146.48,28.66 C146.42,28.66 146.39,28.75 146.48,28.8 L146.56,28.73 C146.773718,28.706763 146.980888,28.6422347 147.17,28.54 C148.28,28.12 149.39,27.69 150.49,27.25 C150.689109,27.1246036 150.95203,27.1825352 151.08,27.38 L151.08,27.38 C151.393308,27.7866802 151.727071,28.1771834 152.08,28.55 C152.7,29.21 153.23,29.95 153.92,30.55 L153.92,30.55 C153.87,30.62 153.92,30.62 153.97,30.55 C154.028348,30.3953195 154.028348,30.2246805 153.97,30.07 L153.88,28.44 C153.937353,28.1899128 153.937353,27.9300872 153.88,27.68 C153.88,27.2466667 153.86,26.8133333 153.82,26.38 C153.82,25.85 153.82,25.84 154.31,25.62 L157.41,24.26 C157.62,24.17 157.88,24.13 157.95,23.81 C156.95,23.55 156.02,23.3 155.06,23.03 C154.525509,22.9345615 154.004884,22.7733359 153.51,22.55 C153.565002,22.4188673 153.565002,22.2711327 153.51,22.14 L153.43,21.14 C153.478584,21.0145392 153.478584,20.8754608 153.43,20.75 L153.34,19.75 C153.349124,19.6495266 153.328243,19.5486044 153.28,19.46 L153.24,19.47 Z" id="Shape"></path>
            <path d="M36.78,30.21 C36.54,30.21 36.36,30.11 36.17,30.04 L30.76,27.95 C30.26,27.76 30.26,27.76 29.9,28.16 L26.09,32.46 L25.6,32.99 C25.5527863,32.7657919 25.5527863,32.5342081 25.6,32.31 C25.71,30.38 25.83,28.45 25.93,26.52 C25.93,25.98 25.93,25.98 25.46,25.77 L20.13,23.46 C19.9049198,23.4066193 19.7021403,23.2842524 19.55,23.11 L24.6,21.77 C25.04,21.65 25.48,21.5 25.92,21.42 C26.1591441,21.4039308 26.341434,21.1994105 26.33,20.96 L26.33,20.96 C26.44,19.62 26.58,18.28 26.71,16.96 C26.79,16.12 26.88,15.28 26.96,14.42 C27.2,14.5 27.26,14.71 27.36,14.87 C28.43,16.5 29.48,18.16 30.55,19.8 C30.91,20.34 30.8,20.25 31.37,20.13 L37.03,18.88 L37.6,18.77 C37.6,19.01 37.46,19.1 37.37,19.23 C36.13,20.77 34.89,22.31 33.62,23.83 C33.3695609,24.0472351 33.3384738,24.4247207 33.55,24.68 C34.55,26.33 35.55,28.01 36.55,29.68 C36.6596298,29.8404568 36.7376879,30.0203298 36.78,30.21 L36.78,30.21 Z M26.88,27.73 L26.8,29.41 C26.7393236,29.5831243 26.7188064,29.767779 26.74,29.95 C26.74,30.06 26.81,30.08 26.89,29.95 L29.57,26.95 C29.96,26.51 29.96,26.5 30.5,26.71 L33.96,28.04 C34.09,28.09 34.23,28.21 34.4,28.04 C34.3,27.86 34.2,27.66 34.09,27.48 C33.5,26.48 32.91,25.48 32.29,24.48 C32.1943164,24.3660439 32.1479202,24.2186921 32.1610535,24.0704731 C32.1741868,23.9222541 32.2457697,23.7853562 32.36,23.69 C33.11,22.82 33.82,21.91 34.54,21.02 C34.7248647,20.8475658 34.868431,20.6356345 34.96,20.4 C34.8754888,20.3555483 34.7745112,20.3555483 34.69,20.4 C33.42,20.67 32.15,20.94 30.88,21.25 C30.5734612,21.3755177 30.2227729,21.2334668 30.09,20.93 C29.42,19.84 28.71,18.77 28.01,17.7 C27.94,17.59 27.92,17.39 27.68,17.46 L27.59,18.82 C27.5394039,18.945077 27.5394039,19.084923 27.59,19.21 L27.5,20.21 C27.4543215,20.3256531 27.4543215,20.4543469 27.5,20.57 L27.42,21.57 C27.3694039,21.695077 27.3694039,21.834923 27.42,21.96 C27.32,22.23 27.04,22.23 26.83,22.28 L23.76,23.1 C23.4405312,23.1344553 23.1329222,23.2404095 22.86,23.41 C23.049373,23.5612999 23.266917,23.673471 23.5,23.74 C24.59,24.22 25.68,24.74 26.76,25.16 C27.0178779,25.2242745 27.1804121,25.4790578 27.13,25.74 C27.13,26.17 27.13,26.61 27.07,27.03 C26.9513817,27.2482997 26.8862641,27.4916337 26.88,27.74 L26.88,27.73 Z" id="Shape"></path>
            <polygon id="Shape" points="139.65 73.61 139.63 73.59 139.65 73.6"></polygon>
            <polygon id="Shape" points="49.56 74.12 49.61 74.02 49.66 74.09 49.56 74.09"></polygon>
            <path d="M41.38,12.63 C42.08,12.63 42.74,12.85 43.38,12.93 C45.08485,13.127277 46.8116024,13.0017567 48.47,12.56 C51.47,11.79 54.47,10.72 57.39,9.69 C60.31,8.66 63.21,7.55 66.19,6.69 C68.3824721,6.08268839 70.6055898,5.59200024 72.85,5.22 C75.85,4.66 78.87,4.19666667 81.91,3.83 C83.52,3.63 85.14,3.47 86.77,3.36 C88.4,3.25 90.11,3.11 91.77,3.16 C93.89,3.23 96.01,3.37 98.13,3.6 C100,3.81 101.88,4.02 103.74,4.31 C108.270339,4.86316563 112.748352,5.78284713 117.13,7.06 C120.43,8.15 123.68,9.36 126.96,10.5 C129.255783,11.3364902 131.592047,12.0573945 133.96,12.66 C136.018702,13.1431237 138.161298,13.1431237 140.22,12.66 C140.344866,12.6083311 140.485134,12.6083311 140.61,12.66 C140.68,12.83 140.61,12.98 140.51,13.13 C138.336667,19.4966667 136.17,25.8633333 134.01,32.23 C133.469097,33.8891457 131.915016,35.0061412 130.17,34.99 C128.955882,34.9357895 127.759379,34.6789131 126.63,34.23 C124.51,33.46 122.45,32.53 120.37,31.66 C115.64914,29.667584 110.736928,28.1630935 105.71,27.17 C103.81,26.8 101.87,26.51 99.93,26.3 C97.99,26.09 96.3,25.99 94.49,25.89 C92.49,25.78 90.49,25.78 88.43,25.84 C79.5956935,26.0572737 70.8742439,27.8767836 62.69,31.21 L56.13,33.97 C55.3451497,34.2894185 54.5400652,34.5566665 53.72,34.77 C52.8360524,35.0245535 51.9054112,35.0724542 51,34.91 C49.5577258,34.6606238 48.389048,33.6010226 48,32.19 C46.5733333,27.9566667 45.1366667,23.7233333 43.69,19.49 L41.53,13.12 C41.48,13 41.44,12.83 41.38,12.63 Z M58.84,11.12 C58.84,11.12 58.77,11.05 58.74,11.05 C58.0686973,11.1994923 57.514687,11.6711496 57.26,12.31 C57.13,12.65 57.02,13 56.9,13.31 C56.46,13.36 56.12,12.96 55.65,13.04 C55.65,13.21 55.72,13.33 55.76,13.46 L59.36,25.01 C59.4354323,25.1907807 59.4761418,25.384151 59.48,25.58 C59.48,25.77 59.31,25.9 59.21,26.09 C60.5753874,26.5472057 61.9112595,27.0882339 63.21,27.71 C63.329154,27.5017198 63.4135925,27.2754245 63.46,27.04 C63.6661888,26.2628548 64.1017949,25.565885 64.71,25.04 C64.8434127,24.9271757 64.9671757,24.8034127 65.08,24.67 C65.7945874,23.9676294 66.0399455,22.9160949 65.71,21.97 C65.14,20.26 64.62,18.54 64.08,16.82 C64.08,16.68 64.02,16.5 63.9,16.41 C63.2813717,15.8672626 62.5700051,15.4404427 61.8,15.15 C61.5752194,16.2238746 60.949361,17.171603 60.05,17.8 C59.55,16.21 59.05,14.66 58.57,13.12 C58.2867599,12.4570033 58.3822758,11.6928761 58.82,11.12 L58.91,11.12 L58.83,11.12 C58.8,11.12 58.8,11.03 58.84,11.12 Z M111.98,15.12 C112.83,15.39 112.8,15.92 112.67,16.56 C112.35,18.04 112.1,19.56 111.82,21.03 C111.74,21.48 111.65,21.92 111.55,22.37 C111.42,23.01 111.19,23.12 110.55,22.85 C109.999194,22.6560555 109.641276,22.1232471 109.67,21.54 C109.667401,21.1717903 109.694152,20.803959 109.75,20.44 C110.02,18.97 110.32,17.51 110.6,16.04 C110.729878,15.5136068 110.787076,14.9719101 110.77,14.43 C110.739295,13.7248637 110.403523,13.0679181 109.85,12.63 C109.72,12.52 109.58,12.45 109.46,12.63 C108.89676,13.2652351 108.218087,13.7878133 107.46,14.17 L107.65,14.34 C108.26,14.75 108.29,14.81 108.16,15.51 L106.99,21.64 C106.875058,22.1745134 106.920276,22.7310533 107.12,23.24 C107.393925,24.1729013 108.165474,24.875011 109.12,25.06 C109.39,25.06 109.57,25.06 109.69,24.8 C109.954528,24.1906476 110.440648,23.7045284 111.05,23.44 C111.77692,23.0553018 112.472405,22.6139365 113.13,22.12 C114.066715,21.4633083 114.700754,20.458213 114.89,19.33 C115.1,18.27 115.33,17.21 115.51,16.14 C115.671423,15.2703933 115.440888,14.3738696 114.88,13.69 C114.56,13.27 114.51,13.25 114.14,13.62 C113.525454,14.2524224 112.795694,14.7615568 111.99,15.12 L111.98,15.12 Z M120.38,17.17 L120.29,17.33 C119.56,19.51 118.8,21.68 118.11,23.88 C117.866868,24.6743238 117.949469,25.5327179 118.339607,26.2661039 C118.729746,26.99949 119.39542,27.5477073 120.19,27.79 L120.27,27.79 C120.489529,27.883651 120.74351,27.8406695 120.92,27.68 C121.426276,27.2329392 122.004402,26.8745689 122.63,26.62 C123.096183,26.4292705 123.510758,26.1311874 123.84,25.75 C124.172001,25.3648842 124.311721,24.8501262 124.22,24.35 C124.206616,24.1486816 124.077986,23.9732766 123.89,23.9 C123.52,23.76 123.22,24.02 123.28,24.44 C123.396276,24.8414092 123.318616,25.2740843 123.07,25.61 C122.75501,25.9888708 122.220492,26.1007466 121.78,25.88 C121.222141,25.6493604 120.880984,25.0807647 120.94,24.48 C121.07,23.98 121.26,23.48 121.43,22.93 C121.483858,22.789452 121.577727,22.6677704 121.7,22.58 C122.09758,22.2435467 122.526164,21.9455466 122.98,21.69 C123.65,21.34 124.31,20.95 124.98,20.58 C125.544989,20.2707496 125.919657,19.7012539 125.98,19.06 C126.095968,18.0233197 125.696124,16.9956844 124.91,16.31 C124.78738,16.1573612 124.565252,16.130706 124.41,16.25 L124.35,16.31 C123.953846,16.6495739 123.528912,16.9540543 123.08,17.22 C122.683177,17.4934116 122.191172,17.5910891 121.72,17.49 L120.38,17.17 Z M97.58,13.46 L97.13,13.46 C96.82,13.41 96.72,13.51 96.71,13.84 C96.64,15.07 96.54,16.3 96.44,17.54 C96.37,18.49 96.28,19.44 96.2,20.39 C96.1423888,21.2428094 96.4262169,22.0835323 96.988943,22.7269158 C97.551669,23.3702992 98.3471133,23.7635445 99.2,23.82 C99.4969421,23.8754278 99.7977652,23.7448073 99.96,23.49 C100.311485,22.9645234 100.75533,22.5071263 101.27,22.14 C101.691254,21.8264066 102.03364,21.418967 102.27,20.95 C102.526158,20.4828084 102.526158,19.9171916 102.27,19.45 C102.153446,19.2131686 101.867535,19.1148869 101.63,19.23 L101.63,19.23 C101.44188,19.2962777 101.34015,19.4997377 101.4,19.69 L101.4,19.77 C101.465169,19.9326451 101.518638,20.0997368 101.56,20.27 C101.711361,20.7447765 101.51158,21.2608778 101.08,21.51 C100.630245,21.6916954 100.118858,21.6312413 99.7238667,21.3496834 C99.3288754,21.0681256 99.1049331,20.6044219 99.13,20.12 C99.18,19.71 99.19,19.3 99.23,18.89 C99.2357725,18.7178902 99.2913521,18.5511513 99.39,18.41 C99.7159951,17.9500006 100.084263,17.521471 100.49,17.13 C101.03,16.66 101.49,16.13 102.06,15.66 C102.316225,15.424882 102.503009,15.1239529 102.6,14.79 C102.895967,13.457294 102.254826,12.0928152 101.04,11.47 C100.863064,11.3494666 100.622041,11.3941004 100.5,11.57 L100.5,11.57 C100.29,11.87 100.03,12.14 99.8,12.43 C99.3144743,13.1307378 98.4732743,13.4951286 97.63,13.37 L97.58,13.46 Z M74.88,15.39 C74.8957284,15.1748145 74.8754501,14.9585126 74.82,14.75 C74.4273231,13.758248 73.5833146,13.0146282 72.55,12.75 C72.45466,12.7064578 72.3458066,12.7031235 72.2479804,12.740749 C72.1501542,12.7783745 72.07159,12.8537923 72.03,12.95 L72.03,13.03 C71.8506375,13.5181968 71.6228341,13.9872037 71.35,14.43 C71.1192275,14.8554356 70.7260105,15.1692877 70.26,15.3 C69.949524,15.4002925 69.631968,15.4771745 69.31,15.53 C69.04,15.53 68.9,15.65 68.96,16 C69.36,18.15 69.68,20.32 70.12,22.46 C70.3445114,23.7357927 71.2885075,24.7656066 72.54,25.1 C72.9887892,25.1907745 73.4512108,25.1907745 73.9,25.1 C74.1650093,25.1009469 74.3981343,24.9250806 74.47,24.67 C74.6749411,24.0752179 74.986716,23.522834 75.39,23.04 C75.6858269,22.6897825 75.9039651,22.2807733 76.03,21.84 C76.2357744,21.2744994 76.1253189,20.6422373 75.74,20.18 C75.5842291,19.9553006 75.2768582,19.8973901 75.05,20.05 L75,20.05 C74.73,20.25 74.81,20.45 75,20.67 C75.19,20.89 75.21,21 75.32,21.17 C75.4621712,21.4784826 75.4509334,21.8358766 75.2896625,22.1348179 C75.1283915,22.4337592 74.8358797,22.6394133 74.5,22.69 C73.754403,22.784949 73.059853,22.294423 72.9,21.56 C72.82,21.16 72.78,20.74 72.7,20.34 C72.6527065,20.1971458 72.6527065,20.0428542 72.7,19.9 C72.8706132,19.4277659 73.0848733,18.9724631 73.34,18.54 C73.76,17.9 74.16,17.25 74.56,16.61 C74.8087926,16.2576167 74.9288383,15.8303953 74.9,15.4 L74.88,15.39 Z M79.41,7.88 C79.49,8.97 79.55,9.88 79.63,10.88 C79.78,12.63 79.94,14.38 80.09,16.12 C80.22,17.57 80.36,19.01 80.47,20.47 C80.47,20.97 80.62,21.47 80.05,21.88 C81.0804067,22.4024615 81.9820697,23.1470166 82.69,24.06 C83.0856826,23.2621737 83.6285359,22.5462859 84.29,21.95 C83.4,21.82 83.29,21.18 83.29,20.54 C83.29,19.9 83.19,19.16 83.13,18.46 C82.95,16.3866667 82.7733333,14.3133333 82.6,12.24 C82.49,10.95 82.37,9.65 82.27,8.35 C82.2249288,7.84551656 82.426004,7.35027572 82.81,7.02 C82.92,6.92 83.1,6.87 83.14,6.71 C81.71,6.61 81.14,7.6 80.59,8.71 L79.41,7.88 Z M87.82,13.22 C87.9116394,13.3577749 88.044719,13.4628378 88.2,13.52 C88.6526666,13.750059 88.9299536,14.2226185 88.91,14.73 C88.91,16.47 88.99,18.2 88.99,19.94 C89.0728648,20.5252962 88.8220788,21.1078914 88.34,21.45 C89.2732126,21.9298496 90.0866025,22.6133704 90.72,23.45 C91.1900954,22.7511298 91.7044822,22.083095 92.26,21.45 C91.7191182,21.2702331 91.3915208,20.721401 91.49,20.16 L91.49,14.49 C91.3900359,13.8885282 91.5832407,13.2754742 92.01,12.84 L92.01,12.74 C91.1774668,12.2218732 90.3791495,11.6506923 89.62,11.03 C89.1430103,11.847114 88.5348969,12.5802284 87.82,13.2 L87.82,13.22 Z M89.82,9.96 C90.0115578,8.74555044 90.6906168,7.66194565 91.7,6.96 C91.7876951,6.89553074 91.8681627,6.82176876 91.94,6.74 C92.02,6.63 92.21,6.59 92.17,6.4 L91.46,6.46 C90.9172165,6.48562729 90.3828285,6.60400438 89.88,6.81 C89.4568999,6.90542122 89.1202518,7.22526249 89.0033061,7.64292571 C88.8863604,8.06058894 89.00797,8.50874237 89.32,8.81 C89.5722887,9.12759722 89.7438517,9.50160444 89.82,9.9 L89.82,9.96 Z" id="Shape"></path>
            <path d="M160.31,120.85 C159.31,120.72 158.31,120.58 157.31,120.48 C155.795692,120.315776 154.270051,120.282319 152.75,120.38 C151.344156,120.479726 149.945191,120.660022 148.56,120.92 C142.75,121.92 137.02,123.33 131.26,124.6 C128.13,125.29 125,125.99 121.82,126.44 C119.95,126.71 118.08,126.93 116.21,127.15 C113.543333,127.456667 110.893333,127.746667 108.26,128.02 C107.14,128.14 106.01,128.22 104.89,128.29 C103.18,128.42 101.47,128.56 99.77,128.68 C97.84,128.81 95.91,128.89 93.98,128.99 C90.98,129.14 88.07,129.14 85.11,129.04 C83.11,128.973333 81.1366667,128.87 79.19,128.73 C77.65,128.62 76.12,128.53 74.58,128.4 C72.44,128.23 70.3,128.05 68.17,127.81 C66.83,127.65 65.5,127.54 64.17,127.4 C58.7778336,126.866214 53.4218598,126.014734 48.13,124.85 C42.89,123.65 37.64,122.46 32.37,121.4 C30.1461058,120.927989 27.8951394,120.594018 25.63,120.4 C23.8524063,120.27733 22.0670348,120.330925 20.3,120.56 L18.04,120.87 C17.93,120.69 18.04,120.6 18.15,120.47 C21.1566667,114.936667 24.1566667,109.406667 27.15,103.88 C27.4936472,103.297014 27.9875016,102.816974 28.58,102.49 C29.8006529,101.788686 31.1732616,101.394061 32.58,101.34 C34.9656897,101.242122 37.3518451,101.52225 39.65,102.17 C43.74,103.17 47.78,104.33 51.89,105.28 C55.54,106.13 59.22,106.88 62.89,107.46 C65.99,107.95 69.11,108.36 72.24,108.65 C73.84,108.8 75.44,108.92 77.04,109.04 C82.33,109.45 87.65,109.46 92.94,109.4 C94.74,109.4 96.5433333,109.343333 98.35,109.23 C100.24,109.13 102.12,109.01 104,108.84 C108,108.486667 112,107.99 116,107.35 C122.43264,106.239672 128.804293,104.801127 135.09,103.04 C137.341499,102.39154 139.628661,101.874007 141.94,101.49 C143.911326,101.134855 145.9354,101.199598 147.88,101.68 C148.587759,101.859664 149.262728,102.149901 149.88,102.54 C150.449384,102.903971 150.917274,103.406265 151.24,104 C154.213333,109.48 157.193333,114.956667 160.18,120.43 C160.13,120.54 160.22,120.66 160.31,120.85 Z M73.07,113.56 C73.32,112.8 74.02,112.44 74.64,111.88 C74.0654389,111.77273 73.4721953,111.831708 72.93,112.05 C72.7190378,112.116282 72.551799,112.278348 72.4789242,112.487124 C72.4060494,112.695901 72.4361087,112.926835 72.56,113.11 C72.6379853,113.266889 72.7282673,113.417359 72.83,113.56 C72.7827546,113.696014 72.7827546,113.843986 72.83,113.98 C72.9828053,113.897629 73.0728971,113.733113 73.06,113.56 L73.07,113.56 Z M47.21,108.34 C47.04,108.34 46.96,108.51 46.86,108.61 C46.0973164,109.419597 45.1130003,109.986535 44.03,110.24 C44.03,110.4 44.15,110.41 44.23,110.44 C44.75,110.7 44.76,110.71 44.64,111.27 C44.32,112.84 44,114.41 43.64,115.98 C43.6089463,116.308165 43.4181658,116.599947 43.13,116.76 C43.6850771,117.351489 44.143983,118.02635 44.49,118.76 C44.930996,118.343521 45.4173786,117.977895 45.94,117.67 C45.5608109,117.497126 45.387972,117.053949 45.55,116.67 C45.89,115.13 46.24,113.59 46.55,112.03 C46.5724108,111.414322 46.9690045,110.874954 47.55,110.67 L47.55,110.56 L47.39,110.47 C46.9,110.34 46.89,110.34 46.99,109.84 C47.0241262,109.738737 47.050863,109.635132 47.07,109.53 C47.07,109.12 47.34,108.75 47.21,108.33 C47.21,108.38 47.27,108.39 47.3,108.33 C47.3061554,108.313902 47.3061554,108.296098 47.3,108.28 C47.24,108.25 47.21,108.27 47.2,108.34 L47.21,108.34 Z M87.87,121.83 C87.48,121.77 87.26,121.67 87.27,121.29 L87.27,117.84 C87.27,117.36 87.54,117.1 87.93,117.13 C88.32,117.16 88.42,117.34 88.41,117.83 C88.41,119.19 88.47,120.57 88.34,121.93 C88.34,122.09 88.34,122.25 88.45,122.35 C88.7916313,122.706242 89.1557085,123.040258 89.54,123.35 C89.8364581,122.842247 90.1707369,122.357543 90.54,121.9 C90.22,121.84 89.98,121.77 90,121.42 L90,118.36 C90.1036573,117.672069 90.0419543,116.969341 89.82,116.31 C89.6650164,115.918163 89.3417884,115.616973 88.94,115.49 C88.73,115.41 88.62,115.49 88.55,115.67 C88.4141486,115.990684 88.2092898,116.277486 87.95,116.51 C87.57,116.91 87.24,116.84 87.07,116.33 C86.944152,115.956701 86.6688839,115.652457 86.31,115.49 C86.04,115.35 85.86,115.32 85.72,115.67 C85.569644,116.034514 85.3245017,116.352163 85.01,116.59 C84.69,116.83 84.47,116.76 84.34,116.39 C84.185337,115.956399 83.8704181,115.598537 83.46,115.39 C83.0839074,115.860417 82.6727318,116.301679 82.23,116.71 C82.6352566,116.826744 82.8802843,117.23804 82.79,117.65 L82.79,120.13 C82.8672809,120.623535 82.7719151,121.128621 82.52,121.56 C82.4412509,121.628213 82.408774,121.735647 82.4365482,121.836061 C82.4643223,121.936475 82.547391,122.01195 82.65,122.03 C83.2130546,122.304546 83.6724855,122.753456 83.96,123.31 C84.1652612,122.799884 84.5122642,122.359191 84.96,122.04 C84.6220293,121.901081 84.3983094,121.575313 84.39,121.21 C84.39,120.04 84.39,118.87 84.49,117.7 C84.4990848,117.488585 84.6206958,117.298226 84.80871,117.201119 C84.9967241,117.104013 85.2223442,117.115033 85.4,117.23 C85.6094208,117.426866 85.7004786,117.719009 85.64,118 C85.5,119.3 85.58,120.6 85.56,121.91 C85.56,122.06 85.56,122.23 85.66,122.33 C86.0136901,122.642335 86.3476647,122.97631 86.66,123.33 C86.9656267,122.791928 87.3423479,122.297481 87.78,121.86 L87.87,121.83 Z M140.32,108.75 C140.186702,109.229819 139.991743,109.690326 139.74,110.12 C139.64,110.28 139.64,110.39 139.85,110.46 C140.06,110.53 140.15,110.81 140.21,111.04 C140.71,112.7 141.21,114.36 141.73,116.04 C141.89,116.58 142.07,117.13 142.22,117.67 C142.37,118.21 142.47,118.54 142.58,118.98 C142.69,119.42 142.45,119.89 142.41,120.34 C143.28,120.15 143.47,119.42 143.73,118.77 C143.96,118.84 144.06,119.09 144.39,119.04 C144.12,118.04 143.73,117.04 143.51,116.04 C143.78,115.9 144,116.04 144.21,115.99 C144.236765,115.41489 144.510072,114.87921 144.96,114.52 C145.605533,113.906146 145.832361,112.97146 145.54,112.13 C145.25,111.22 145,110.3 144.72,109.39 C144.499138,108.517633 143.699313,107.917764 142.8,107.95 C142.713744,108.352847 142.593309,108.74761 142.44,109.13 C142.361077,109.330844 142.229878,109.506926 142.06,109.64 C141.84,109.8 141.66,109.85 141.47,109.57 C141.200925,109.162144 140.791852,108.8669 140.32,108.74 L140.32,108.75 Z M119.32,114.38 C118.579549,114.210714 117.861366,113.955658 117.18,113.62 C116.97,113.51 116.86,113.55 116.73,113.78 C116.353738,114.501608 115.700456,115.039392 114.92,115.27 C114.59,115.37 114.54,115.54 114.58,115.84 C114.78,117.25 114.99,118.67 115.18,120.08 C115.309974,120.805405 115.882836,121.370255 116.61,121.49 C116.701388,121.525141 116.803147,121.521542 116.891824,121.480034 C116.980502,121.438525 117.048447,121.362688 117.08,121.27 L117.08,121.27 C117.17376,121.074228 117.284166,120.886872 117.41,120.71 C117.558716,120.443013 117.812684,120.250723 118.11,120.18 C118.236676,120.775463 118.459601,121.346287 118.77,121.87 C118.24,121.87 117.77,121.87 117.3,121.95 C116.644608,122.010302 116.025071,122.276318 115.53,122.71 C115.271318,122.884041 115.108612,123.168776 115.09,123.48 C115.036999,123.949543 115.10588,124.424822 115.29,124.86 C115.493721,124.155926 116.033262,123.598659 116.730386,123.372294 C117.42751,123.14593 118.191511,123.279919 118.77,123.73 C118.90608,122.697884 119.482295,121.775211 120.35,121.2 C120.064593,120.829672 119.878697,120.392472 119.81,119.93 C119.45,118.41 119.3,116.86 119.05,115.32 C118.989791,114.984844 119.089673,114.640807 119.32,114.39 L119.32,114.38 Z M135.13,111.38 C135.484233,111.414371 135.779549,111.665789 135.87,112.01 C136.19,113.343333 136.523333,114.676667 136.87,116.01 C136.95,116.32 136.81,116.35 136.6,116.36 C136.101357,116.365637 135.674769,116.003038 135.6,115.51 C135.29,114.33 135,113.16 134.71,111.97 C134.607987,111.497721 134.33341,111.080505 133.94,110.8 C133.766572,110.632395 133.530735,110.545316 133.29,110.56 C133.08,110.61 133.14,110.89 133.07,111.06 C132.842822,111.418312 132.64869,111.796535 132.49,112.19 C133.05,112.09 133.16,112.46 133.25,112.84 C133.56,114.08 133.88,115.32 134.18,116.56 C134.361894,117.247453 134.88238,117.794341 135.56,118.01 C135.99,118.19 136.18,118.01 136.32,117.57 C136.450966,117.135115 136.72605,116.757756 137.1,116.5 C137.43086,116.892574 137.863286,117.186624 138.35,117.35 C138.75,117.45 138.95,117.35 139,116.91 C139.033508,116.652202 139.133441,116.407538 139.29,116.2 C139.41,116.03 139.6,115.89 139.63,115.66 C138.63,115.58 138.44,115.43 138.16,114.44 C138.16,114.36 138.16,114.27 138.1,114.19 C137.84,113.19 137.6,112.19 137.32,111.19 C137.186553,110.485019 136.586705,109.963771 135.87,109.93 C135.690278,110.429091 135.441165,110.900386 135.13,111.33 L135.13,111.38 Z M37.13,110.29 C37.4846549,110.5296 37.6154877,110.989625 37.44,111.38 C37.23,112.13 37.07,112.9 36.9,113.66 C36.8610158,114.201909 36.6306287,114.712305 36.25,115.1 C36.1691442,115.143641 36.1187434,115.228118 36.1187434,115.32 C36.1187434,115.411882 36.1691442,115.496359 36.25,115.54 C36.7803227,115.943458 37.1377287,116.533178 37.25,117.19 C37.5883397,116.715004 38.038189,116.3304 38.56,116.07 C38.2149653,115.823771 38.0828245,115.373667 38.24,114.98 C38.48,113.98 38.73,112.98 38.97,111.98 C38.9948997,111.85227 39.0351937,111.72803 39.09,111.61 C39.2123133,111.345478 39.5119213,111.212794 39.79,111.3 C40.13,111.4 40.22,111.55 40.17,111.94 C40.1527143,112.0479 40.1293437,112.154737 40.1,112.26 L39.2,115.99 C39.2,116.16 39.08,116.32 39.2,116.49 L40.02,117.8 C40.4005389,117.290728 40.8595979,116.845171 41.38,116.48 C40.89,116.36 40.81,116.1 40.95,115.73 C40.983599,115.625187 41.0103225,115.518293 41.03,115.41 C41.32,114.19 41.64,112.96 41.9,111.74 C42.0359443,111.358297 42.0116848,110.937833 41.8327427,110.574298 C41.6538007,110.210763 41.3353986,109.935083 40.95,109.81 L40.75,110.06 C40.5216721,110.321602 40.2553724,110.547451 39.96,110.73 C39.7958888,110.842192 39.5889606,110.871754 39.4,110.81 C39.16,110.74 39.27,110.52 39.23,110.37 C39.1724031,110.05009 39.0461739,109.746457 38.86,109.48 C38.7,109.28 38.56,109.21 38.34,109.43 C37.9816019,109.761735 37.5732851,110.035071 37.13,110.24 L37.13,110.29 Z M80.85,121.62 C80.27,121.41 80.25,121.4 80.26,120.93 C80.26,120.17 80.33,119.41 80.38,118.65 C80.38,118.09 80.48,117.52 80.47,116.96 C80.5624495,116.251211 80.2243567,115.555369 79.61,115.19 C79.36,115.06 79.14,115 79,115.36 C78.8508899,115.677888 78.6321529,115.958145 78.36,116.18 C78.01,116.5 77.73,116.42 77.54,115.97 C77.435399,115.63508 77.2377101,115.336813 76.97,115.11 C76.84,115.01 76.7,114.95 76.58,115.11 C76.2556025,115.522147 75.9013123,115.909861 75.52,116.27 C75.8991336,116.402455 76.1185585,116.798281 76.03,117.19 C75.9833333,117.856667 75.9433333,118.55 75.91,119.27 C75.9948505,119.941159 75.8503656,120.621296 75.5,121.2 C75.37,121.36 75.45,121.49 75.61,121.57 C76.2244,121.889216 76.695778,122.428443 76.93,123.08 C77.1122488,122.519273 77.4610829,122.027417 77.93,121.67 C77.5637136,121.517099 77.3520106,121.131052 77.42,120.74 C77.48,119.68 77.52,118.62 77.56,117.55 C77.5455561,117.327941 77.6254353,117.110089 77.78,116.95 C77.9358583,116.791243 78.1657872,116.729928 78.38,116.79 C78.5997175,116.847338 78.7470211,117.053563 78.73,117.28 L78.73,117.55 C78.6633333,118.883333 78.5933333,120.183333 78.52,121.45 C78.52,121.66 78.47,121.87 78.65,122.06 C78.83,122.25 79.29,122.74 79.65,123.06 C79.953463,122.506961 80.3491517,122.009814 80.82,121.59 L80.85,121.62 Z M103.16,121.41 C102.55,121.23 102.56,121.23 102.53,120.7 C102.46,119.38 102.41,118.06 102.3,116.7 C102.321766,116.010798 101.927455,115.375959 101.3,115.09 C101,114.97 100.83,114.98 100.72,115.32 C100.597234,115.670622 100.391364,115.986289 100.12,116.24 C99.81,116.53 99.55,116.49 99.38,116.12 C99.2412651,115.798643 99.0247637,115.516847 98.75,115.3 C98.59,115.18 98.41,115.09 98.27,115.35 C98.0158259,115.798706 97.6955732,116.206607 97.32,116.56 C98.05,116.76 97.94,117.31 97.98,117.77 C98.03,118.42 97.98,119.08 98.06,119.77 C98.194584,120.342596 98.1237986,120.944272 97.86,121.47 C97.75,121.64 97.76,121.81 97.98,121.89 C98.5904529,122.122848 99.09761,122.566168 99.41,123.14 C99.6169953,122.59489 99.9614887,122.112599 100.41,121.74 C100.148124,121.655444 99.9385772,121.456926 99.84,121.2 C99.7837512,120.991563 99.7601378,120.775668 99.77,120.56 C99.71,119.56 99.65,118.56 99.61,117.64 C99.61,117.1 99.81,116.84 100.24,116.82 C100.67,116.8 100.75,116.99 100.78,117.54 C100.84,118.533333 100.896667,119.533333 100.95,120.54 C100.937897,120.90846 100.964712,121.277168 101.03,121.64 C101.03,121.76 101.03,121.89 101.16,121.99 L102.25,122.99 C102.50649,122.42762 102.843343,121.905498 103.25,121.44 L103.16,121.41 Z M69.43,121.1 C69.1861627,120.897872 69.0649598,120.583502 69.11,120.27 C69.1423042,119.034681 69.2491653,117.802439 69.43,116.58 C69.4090819,116.239004 69.5636936,115.910925 69.84,115.71 C69.1115364,115.295335 68.4191124,114.820339 67.77,114.29 C67.62,114.29 67.58,114.43 67.5,114.5 C66.9883069,115.036634 66.3130331,115.388339 65.58,115.5 C64.92,115.61 64.92,115.59 64.85,116.26 L64.85,116.53 C64.72,117.76 64.61,118.98 64.47,120.21 C64.4314981,120.89431 64.7893161,121.539938 65.39,121.87 C65.69,122.03 65.93,122.07 66.16,121.74 C66.3910855,121.449124 66.6897469,121.219121 67.03,121.07 C67.23,120.97 67.36,121 67.41,121.23 C67.4862467,121.572799 67.6766414,121.879546 67.95,122.1 C68.12,122.24 68.27,122.31 68.42,122.1 C68.6969641,121.714699 69.0346988,121.376964 69.42,121.1 L69.43,121.1 Z M126.77,113.57 C127.0123,113.826188 127.169476,114.151017 127.22,114.5 C127.45,115.59 127.66,116.68 127.9,117.74 C128.077988,118.447199 128.59485,119.020242 129.28,119.27 C129.597159,119.416852 129.962841,119.416852 130.28,119.27 C130.52,119.16 130.5,118.87 130.55,118.64 C130.650102,118.066194 131.104498,117.61984 131.68,117.53 L131.93,117.47 C132.18,117.42 132.27,117.29 132.2,117.02 C131.9,115.66 131.62,114.27 131.32,112.89 C131.015513,112.03026 130.229875,111.433175 129.32,111.37 C129.17,111.37 129.03,111.37 128.96,111.58 C128.701013,112.616431 127.853261,113.401386 126.8,113.58 L126.77,113.57 Z M107.4,113.93 C107.366412,113.907255 107.329222,113.89035 107.29,113.88 C106.65,113.88 106.67,113.88 106.62,113.25 C106.644328,112.755147 106.576511,112.260081 106.42,111.79 C106.116435,112.375812 105.758174,112.931617 105.35,113.45 C104.874995,113.909848 104.366971,114.334315 103.83,114.72 C104.76,114.8 104.74,114.8 104.83,115.6 C104.93,116.83 105.08,118.05 105.15,119.29 C105.15,119.89 105.42,120.52 104.99,121.12 C105.678653,121.531854 106.29655,122.051833 106.82,122.66 C107.119165,122.136219 107.474603,121.646654 107.88,121.2 C107.52,121.06 107.28,120.9 107.26,120.5 C107.15,118.99 107.02,117.5 106.89,115.96 C106.89,115.59 106.8,115.23 106.79,114.87 C106.78,114.51 107.31,114.32 107.42,113.94 L107.4,113.93 Z M61.27,121.55 C61.701641,121.110332 62.1555719,120.693116 62.63,120.3 C62.3094583,120.216491 62.1141383,119.892437 62.19,119.57 C62.19,119.3 62.19,119.01 62.26,118.73 C62.42,117.42 62.61,116.11 62.75,114.8 C62.82,114.14 62.88,113.51 63.63,113.23 L63.63,113.12 C63.63,113.08 63.57,113.06 63.53,113.05 C62.9,112.95 62.9,112.96 62.99,112.33 C63.06,111.86 63.12,111.38 63.18,110.91 C62.3303298,111.931044 61.2112665,112.693254 59.95,113.11 L60.2,113.24 C60.8,113.49 60.82,113.49 60.74,114.13 C60.56,115.72 60.36,117.31 60.18,118.9 C60.1358687,119.200688 59.9828493,119.4747 59.75,119.67 C60.3530911,120.205765 60.8544702,120.846039 61.23,121.56 L61.27,121.55 Z M49.39,113.09 L49.13,113.09 C48.68,113.09 48.68,113.09 48.59,113.54 C48.37,114.77 48.18,116.02 47.92,117.24 C47.8053553,117.86396 47.9341894,118.508131 48.28,119.04 C48.6071916,119.507102 49.1305855,119.798286 49.7,119.83 C49.85,119.83 49.95,119.76 50.03,119.66 C50.3504474,119.308706 50.7171337,119.002573 51.12,118.75 C51.3768495,118.581996 51.58676,118.351439 51.73,118.08 C51.8762985,117.830829 51.8984705,117.527813 51.79,117.26 C51.72,117.09 51.62,116.95 51.41,116.99 C51.2,117.03 51.16,117.19 51.19,117.38 C51.22,117.57 51.19,117.55 51.19,117.64 C51.19,118.11 51.07,118.36 50.71,118.44 C50.35,118.52 49.77,118.23 49.71,117.86 C49.5804922,117.258769 49.7437418,116.631742 50.15,116.17 C50.5864204,115.746179 51.0618613,115.364487 51.57,115.03 C51.9976209,114.773688 52.2823747,114.333731 52.3410805,113.838646 C52.3997862,113.343561 52.22582,112.84921 51.87,112.5 C51.41,111.92 51.29,111.91 50.78,112.43 C50.27,112.95 49.94,113.27 49.31,113.1 L49.39,113.09 Z M34.25,113.7 C34.25,114.28 34.02,114.64 33.57,114.62 C33.0942116,114.582787 32.7324601,114.176919 32.75,113.7 C32.7978252,113.015677 33.1693347,112.395257 33.75,112.03 C34.23,111.76 34.67,111.45 35.14,111.18 C35.4885657,110.990391 35.7369396,110.658008 35.82,110.27 C35.9299591,109.636931 35.7290577,108.989581 35.28,108.53 C35.01,108.22 34.93,108.22 34.6,108.53 C34.07499,109.141282 33.2228257,109.357324 32.47,109.07 C32.25,108.98 32.16,109.07 32.1,109.3 C31.72,110.66 31.3,112 30.95,113.38 C30.6621123,114.439784 31.2826052,115.533458 32.34,115.83 C32.5427876,115.913522 32.7759489,115.866099 32.93,115.71 C33.2235551,115.429741 33.5614496,115.199972 33.93,115.03 C34.182334,114.901911 34.4093418,114.729114 34.6,114.52 C34.8258672,114.239502 34.9072912,113.869393 34.82,113.52 C34.7714232,113.384112 34.635505,113.299717 34.4921679,113.316439 C34.3488308,113.333162 34.2359908,113.446579 34.22,113.59 C34.2108361,113.653002 34.2108361,113.716998 34.22,113.78 L34.25,113.7 Z M92.13,118.36 L92.22,118.36 L92.22,121.36 C92.2740352,122.042354 92.6440019,122.660199 93.22,123.03 C93.6054421,123.236809 94.0494632,123.307288 94.48,123.23 C94.590221,123.229674 94.6891777,123.162383 94.73,123.06 C95.0116696,122.616615 95.3476017,122.210138 95.73,121.85 C95.8835327,121.666591 96.0082913,121.460908 96.1,121.24 C96.2226369,120.932555 96.185195,120.584345 96,120.31 C95.9438743,120.161718 95.7790682,120.085996 95.63,120.14 L95.56,120.14 C95.4931196,120.168501 95.4405589,120.222769 95.414209,120.290526 C95.3878592,120.358283 95.3899469,120.433802 95.42,120.5 L95.42,120.5 C95.4895185,120.634448 95.5464285,120.775049 95.59,120.92 C95.664965,121.27532 95.443217,121.625681 95.09,121.71 C94.6175542,121.776868 94.1764332,121.459261 94.09,120.99 L94.09,120.99 C93.9474873,120.302882 94.1576035,119.589987 94.65,119.09 C94.98,118.77 95.25,118.41 95.55,118.09 C95.7332125,117.906126 95.867314,117.679185 95.94,117.43 C96.0824466,116.616009 95.6766605,115.804437 94.94,115.43 C94.54,115.2 94.48,115.2 94.24,115.61 C93.9256749,116.349375 93.1822629,116.813008 92.38,116.77 C92.18,116.77 92.11,116.85 92.11,117.04 L92.11,118.35 L92.13,118.36 Z M120.56,114.25 C121.14,114.48 121.15,114.48 121.27,115.12 C121.47,116.206667 121.666667,117.293333 121.86,118.38 C121.937493,118.586296 121.937493,118.813704 121.86,119.02 C121.8,119.13 121.79,119.22 121.86,119.29 L123.58,120.46 C123.824112,119.908939 124.162522,119.404708 124.58,118.97 C124.902289,118.576113 125.01068,118.049108 124.87,117.56 C124.850277,117.356756 124.684,117.199006 124.48,117.19 C124.348199,117.17435 124.219341,117.236827 124.15,117.35 C124.056371,117.504576 124.081203,117.703227 124.21,117.83 C124.283738,117.91454 124.350617,118.004827 124.41,118.1 C124.54,118.32 124.61,118.55 124.41,118.75 C124.21,118.95 123.87,118.75 123.69,118.52 C123.56345,118.318891 123.478446,118.094481 123.44,117.86 C123.28,116.92 123.1,115.99 122.94,115.05 C122.91511,114.87756 122.91511,114.70244 122.94,114.53 C122.939591,114.319173 123.064178,114.128151 123.257279,114.043534 C123.45038,113.958916 123.675272,113.996796 123.83,114.14 C123.96,114.23 124,114.45 124.23,114.41 C124.434003,113.674307 124.79571,112.991841 125.29,112.41 C124.743752,112.522086 124.187629,112.579038 123.63,112.58 C123.44,112.58 123.41,112.75 123.36,112.88 C123.244934,113.220415 123.015167,113.510275 122.71,113.7 L122.23,113.17 C122.096435,113.027978 121.927224,112.924379 121.74,112.87 C121.6,112.87 121.47,112.79 121.43,112.96 C121.222,113.44266 120.942166,113.891068 120.6,114.29 L120.56,114.25 Z M53.84,113.73 C54.05,113.99 54.41,114.06 54.33,114.48 C54.17,115.37 54.06,116.28 53.91,117.17 C53.81,117.69 53.91,118.26 53.51,118.72 C53.44,118.79 53.51,118.87 53.51,118.95 L54.76,120.6 C55.1487814,120.162741 55.6085718,119.794232 56.12,119.51 C56.6567652,119.225451 56.9509194,118.629083 56.85,118.03 C56.85,117.84 56.71,117.7 56.5,117.71 C56.3998092,117.709343 56.3041409,117.751656 56.2372211,117.826224 C56.1703013,117.900792 56.1385472,118.000464 56.15,118.1 C56.1723865,118.271421 56.2160566,118.439383 56.28,118.6 C56.33,118.84 56.35,119.09 56.04,119.18 C55.7832762,119.242929 55.5239875,119.086462 55.46,118.83 L55.46,118.83 C55.400537,118.553157 55.400537,118.266843 55.46,117.99 C55.56,117.3 55.67,116.63 55.78,115.94 C55.84,115.58 55.88,115.21 55.95,114.85 C56.0000194,114.604881 56.2015694,114.419455 56.45,114.39 C56.6763304,114.360664 56.8953371,114.482334 56.99,114.69 C57.06,114.81 57.06,114.98 57.25,115.05 C57.6828034,114.410542 58.2578282,113.880013 58.93,113.5 C58.56,113.36 58.23,113.39 57.93,113.29 C57.4,113.11 56.93,113.06 56.62,113.62 C56.62,113.62 56.51,113.69 56.46,113.73 C56.22,113.89 56.05,113.94 55.93,113.58 C55.8335318,113.180422 55.5615144,112.845914 55.19,112.67 C54.8076641,113.111428 54.3548735,113.486501 53.85,113.78 L53.84,113.73 Z M74.14,115.97 C73.68,115.58 73.28,115.25 72.91,114.88 C72.72,114.7 72.59,114.7 72.44,114.88 C72.1507557,115.254685 71.8146848,115.590756 71.44,115.88 C72.09,116.2 72.11,116.73 72.04,117.32 C71.97,117.91 72.04,118.8 71.88,119.52 C71.79,120.06 72,120.71 71.34,121.12 C72.04,121.43 72.34,122.07 72.78,122.51 C73.07,122.19 73.32,121.9 73.6,121.63 C73.88,121.36 73.83,121.36 73.6,121.18 C73.37,121 73.46,120.84 73.47,120.64 C73.53,119.43 73.63,118.22 73.74,117.01 C73.74,116.62 73.74,116.21 74.2,115.92 L74.14,115.97 Z" id="Shape"></path>
            <path d="M58.84,11.12 L58.84,11.03 C58.84,11.01 58.89,11.03 58.92,11.03 L58.83,11.03 L58.84,11.12 Z" id="Shape"></path>
            <path d="M47.2,108.34 C47.1834315,108.317909 47.1879086,108.286569 47.21,108.27 C47.2320914,108.253431 47.2634315,108.257909 47.28,108.28 C47.2861554,108.296098 47.2861554,108.313902 47.28,108.33 L47.19,108.33 L47.2,108.34 Z" id="Shape"></path>
            <path d="M63.91,24.95 C63.0685049,25.0626639 62.25365,24.6063452 61.91,23.83 C61.4,22.29 60.91,20.73 60.45,19.18 C60.323961,18.7725987 60.4358458,18.3289178 60.74,18.03 C60.8725855,17.8355771 61.0999028,17.728001 61.3343146,17.7487454 C61.5687263,17.7694898 61.7736188,17.9153145 61.87,18.13 C61.9255984,18.2242261 61.9692667,18.324999 62,18.43 L63.94,24.62 C63.9781746,24.7291647 63.9672342,24.8495088 63.91,24.95 L63.91,24.95 Z" id="Shape"></path>
            <path d="M121.92,21.41 L122.98,18.24 C123.516185,18.6723839 123.776366,19.3610969 123.66,20.04 C123.58,20.97 122.65,21.12 121.92,21.41 Z" id="Shape"></path>
            <path d="M99.32,17.12 L99.59,13.82 C100.206045,14.0972899 100.623302,14.6868088 100.68,15.36 C100.85,16.31 99.97,16.63 99.47,17.18 L99.32,17.12 Z" id="Shape"></path>
            <path d="M71.73,15.26 C72.4721556,15.5135227 73.0506583,16.1031505 73.29,16.85 C73.3487866,17.1535747 73.2720853,17.4676847 73.08,17.71 C72.88,18.04 72.65,18.35 72.35,18.8 L71.73,15.26 Z" id="Shape"></path>
            <path d="M143.75,114.59 C143.592001,114.625411 143.426397,114.59546 143.290809,114.506952 C143.155222,114.418443 143.061163,114.278892 143.03,114.12 L143.03,114.12 C142.72,113.06 142.39,112.01 142.03,110.95 C141.991896,110.802974 141.971749,110.651873 141.97,110.5 C141.932772,110.228904 142.112015,109.975341 142.38,109.92 C142.641765,109.834168 142.926177,109.959137 143.04,110.21 C143.14137,110.400775 143.221837,110.601942 143.28,110.81 C143.58,111.81 143.89,112.81 144.2,113.81 C144.44,114.52 144.38,114.59 143.75,114.59 Z" id="Shape"></path>
            <path d="M117.71,115.66 C117.603536,116.665113 117.678047,117.681171 117.93,118.66 C117.93,119.04 118.09,119.43 117.77,119.77 C117.64,119.91 117.5,120.02 117.32,119.91 C116.982443,119.748849 116.741283,119.437196 116.67,119.07 C116.52,117.87 116.33,116.68 116.17,115.48 C116.09,114.92 116.17,114.89 116.63,115.09 C116.871226,115.187694 117.129796,115.235325 117.39,115.23 C117.66,115.24 117.78,115.39 117.71,115.66 Z" id="Shape"></path>
            <path d="M66.19,119.74 C66.29,118.74 66.38,117.74 66.46,116.83 C66.46,116.48 66.53,116.14 66.55,115.83 C66.57,115.52 66.67,115.48 66.87,115.63 C67.1666555,115.863945 67.506442,116.037236 67.87,116.14 C68.07,116.14 68.08,116.35 68.01,116.5 C67.667209,117.590839 67.4885877,118.726601 67.48,119.87 C67.4714501,120.151791 67.3443518,120.416881 67.13,120.6 C67.0053293,120.723278 66.8046707,120.723278 66.68,120.6 L66.68,120.6 C66.4159439,120.383786 66.2413723,120.077395 66.19,119.74 Z" id="Shape"></path>
            <path d="M128.6,113.12 C129.47,113.01 129.69,113.12 129.84,113.9 C130.086667,115.06 130.326667,116.223333 130.56,117.39 C130.63,117.72 130.56,117.78 130.27,117.77 C129.869773,117.776744 129.523166,117.49354 129.45,117.1 C129.13,115.73 128.89,114.43 128.6,113.12 Z" id="Shape"></path>
            <path d="M50.13,115.53 C50.2000167,114.856006 50.3169673,114.187717 50.48,113.53 C51.4,114.18 51.28,114.93 50.13,115.53 Z" id="Shape"></path>
            <path d="M33.31,111.67 L33.78,109.98 C33.8026398,109.872601 33.862936,109.776836 33.95,109.71 C34.66,110.59 34.52,111.12 33.31,111.67 Z" id="Shape"></path>
            <path d="M94.07,119.04 C93.971685,118.35466 93.9348717,117.6619 93.96,116.97 C94.96,117.54 95,118.12 94.07,119.04 Z" id="Shape"></path>
        </g>
    </g>
</svg>
