<svg id="cn" xmlns="http://www.w3.org/2000/svg" viewBox="0 0 308.49 174.91">
  <defs>
    <style>
      .cls-1 {
        fill: #666;
      }
    </style>
  </defs>
  <title>cartoon-network</title>
  <path id="Shape" class="cls-1" d="M97.1,80.5a24.6,24.6,0,1,1,0-24.4L135,34.4a68.3,68.3,0,1,0,0,67.8L97.1,80.5h0Z" transform="translate(-0.01 0.01)"/>
  <path id="Shape-2" class="cls-1" d="M289.9,133.8V2.8H246.2V57.4L202.5,2.8H158.9v131h43.6V79.2l43.7,54.6h43.7Z" transform="translate(-0.01 0.01)"/>
  <path id="Shape-3" class="cls-1" d="M225.3,169.3l2.2,5.1h5.2l3.5-18.8h-6.3l-1.5,8.3-3.1-7.6-3.2,7.6-1.5-8.3h-6.3l3.6,18.8h5.2l2.2-5.1h0Z" transform="translate(-0.01 0.01)"/>
  <path id="Shape-4" class="cls-1" d="M212.8,155.6H194.1v5.5h5.8v13.3h7V161.1h5.9v-5.5h0Z" transform="translate(-0.01 0.01)"/>
  <path id="Shape-5" class="cls-1" d="M246.4,155.3a9.8,9.8,0,1,0,9.8,9.8,9.8,9.8,0,0,0-9.8-9.8m0,13.2a3.5,3.5,0,1,1,3.5-3.5,3.5,3.5,0,0,1-3.5,3.5h0" transform="translate(-0.01 0.01)"/>
  <path id="Shape-6" class="cls-1" d="M173,174.4V155.6h-6.2v7.8l-6.3-7.8h-6.2v18.8h6.2v-7.8l6.3,7.8H173Z" transform="translate(-0.01 0.01)"/>
  <path id="Shape-7" class="cls-1" d="M192,161.1v-5.5H175.6v18.8H192v-5.1H181.9v-1.9h8.6v-4.7h-8.6v-1.6H192Z" transform="translate(-0.01 0.01)"/>
  <path id="Shape-8" class="cls-1" d="M276,162.3a6.69,6.69,0,0,0-6.77-6.61H258.1v18.7h6.2v-5.5h2l2.7,5.5h7l-3.7-6.2a7,7,0,0,0,3.7-5.9h0Zm-11.7-1.2h3.9a1.6,1.6,0,0,1,0,3.2h-3.9v-3.2h0Z" transform="translate(-0.01 0.01)"/>
  <path id="Shape-9" class="cls-1" d="M296.8,155.6h-8l-4.6,6.2v-6.2h-6.3v18.8h6.3v-7l4.6,7h8l-7.3-9.7,7.3-9.1h0Z" transform="translate(-0.01 0.01)"/>
  <path id="Shape-10" class="cls-1" d="M33.1,174.4h6.6l-5.9-18.7H24.4l-5.9,18.7h6.7l0.9-3.1h6l1,3.1h0Zm-5.6-7.8,1.6-5.8,1.7,5.8H27.5Z" transform="translate(-0.01 0.01)"/>
  <path id="Shape-11" class="cls-1" d="M79.8,155.7H61.1v5.4H67v13.3h7V161.1h5.8v-5.4h0Z" transform="translate(-0.01 0.01)"/>
  <path id="Shape-12" class="cls-1" d="M13.2,166.9a3.79,3.79,0,0,1-3.4,1.9,3.9,3.9,0,1,1,0-7.8,4.13,4.13,0,0,1,3.4,1.9l5.1-2.9a9.8,9.8,0,1,0-8.5,14.7,9.92,9.92,0,0,0,8.5-4.9l-5.1-2.9h0Z" transform="translate(-0.01 0.01)"/>
  <path id="Shape-13" class="cls-1" d="M90.4,155.3a9.8,9.8,0,1,0,9.8,9.8,9.8,9.8,0,0,0-9.8-9.8m0,13.2a3.5,3.5,0,1,1,3.5-3.5,3.5,3.5,0,0,1-3.5,3.5h0" transform="translate(-0.01 0.01)"/>
  <path id="Shape-14" class="cls-1" d="M111.4,155.3a9.8,9.8,0,1,0,9.8,9.8,9.8,9.8,0,0,0-9.8-9.8m0,13.2a3.5,3.5,0,1,1,3.5-3.5,3.42,3.42,0,0,1-3.34,3.5H111.4" transform="translate(-0.01 0.01)"/>
  <path id="Shape-15" class="cls-1" d="M141.8,174.4V155.7h-6.3v7.8l-6.2-7.8H123v18.7h6.3v-7.8l6.2,7.8h6.3Z" transform="translate(-0.01 0.01)"/>
  <path id="Shape-16" class="cls-1" d="M59.5,162.3a6.69,6.69,0,0,0-6.77-6.61H41.6v18.7h6.2v-5.5h2l2.7,5.5h7l-3.7-6.2a7,7,0,0,0,3.7-5.9h0Zm-11.7-1.2h3.9a1.6,1.6,0,0,1,0,3.2H47.8v-3.2h0Z" transform="translate(-0.01 0.01)"/>
  <path id="Shape-17" class="cls-1" d="M302.9,169.3v0.9h-1.5v4.2h-1.1v-4.2h-1.5v-0.9h4.1Z" transform="translate(-0.01 0.01)"/>
  <path id="Shape-18" class="cls-1" d="M307,169.3h1.5v5.1h-1v-4.3l-1,4.3h-1l-1-4.3v4.3h-1v-5.1h1.6l0.9,4,1-4h0Z" transform="translate(-0.01 0.01)"/>
</svg>
