<svg id="cn-alternate" xmlns="http://www.w3.org/2000/svg" viewBox="0 0 226.3 132.2">
  <defs>
    <style>
      .cls-1 {
        fill: #fff;
      }
    </style>
  </defs>
  <title>cartoon-network-alternate</title>
  <rect id="Rectangle-path" class="cls-1" x="110.3" width="110.4" height="110.4"/>
  <rect id="Rectangle-path-2" class="cls-1" x="110.3" width="110.4" height="110.4"/>
  <rect id="Rectangle-path-3" width="110.4" height="110.4"/>
  <path id="Shape" class="cls-1" d="M73.7,64a17.8,17.8,0,1,1,0-17.6L101,30.7a49.3,49.3,0,1,0,0,49L73.7,64h0Z"/>
  <path id="Shape-2" d="M212.9,102.5V7.9H181.3V47.3L149.8,7.9H118.3v94.6h31.5V63.1l31.5,39.4h31.6Z"/>
  <path id="Shape-3" class="cls-1" d="M166.2,128.1l1.6,3.7h3.8l2.5-13.6h-4.5l-1.1,6-2.3-5.4-2.3,5.4-1-6h-4.6l2.6,13.6h3.8l1.5-3.7h0Z"/>
  <path id="Shape-4" class="cls-1" d="M157.2,118.2H143.7v4h4.2v9.6H153v-9.6h4.2v-4h0Z"/>
  <path id="Shape-5" class="cls-1" d="M181.5,118a7.1,7.1,0,1,0,7.1,7.1,7.1,7.1,0,0,0-7.1-7.1m0,9.6a2.54,2.54,0,0,1-2.5-2.5,2.5,2.5,0,1,1,5,0,2.54,2.54,0,0,1-2.5,2.5"/>
  <path id="Shape-6" class="cls-1" d="M128.5,131.8V118.2H124v5.7l-4.6-5.7H115v13.6h4.4v-5.6l4.6,5.6h4.5Z"/>
  <path id="Shape-7" class="cls-1" d="M142.2,122.2v-4H130.4v13.6h11.8v-3.7h-7.3v-1.3h6.2v-3.4h-6.2v-1.2h7.3Z"/>
  <path id="Shape-8" class="cls-1" d="M202.9,123.1a4.81,4.81,0,0,0-4.81-4.81H189.9v13.5h4.5v-4h1.4l1.9,4h5.1l-2.7-4.5a4.86,4.86,0,0,0,2.8-4.2h0Zm-8.5-.9h2.8a1.2,1.2,0,0,1,0,2.4h-2.8v-2.4h0Z"/>
  <path id="Shape-9" class="cls-1" d="M217.9,118.2h-5.8l-3.3,4.5v-4.5h-4.6v13.6h4.6v-5l3.3,5h5.8l-5.3-7,5.3-6.6h0Z"/>
  <path id="Shape-10" class="cls-1" d="M27.4,131.8h4.8l-4.3-13.5H21.1l-4.3,13.5h4.8l0.6-2.2h4.3l0.9,2.2h0Zm-4-5.6,1.2-4.2,1.2,4.2H23.4Z"/>
  <path id="Shape-11" class="cls-1" d="M61.2,118.3H47.7v3.9h4.2v9.6H57v-9.6h4.2v-3.9h0Z"/>
  <path id="Shape-12" class="cls-1" d="M13.1,126.4a2.74,2.74,0,0,1-2.5,1.4,2.8,2.8,0,0,1,0-5.6,3.23,3.23,0,0,1,2.5,1.4l3.7-2.1a7,7,0,0,0-6.1-3.5,7.1,7.1,0,0,0,0,14.2,7,7,0,0,0,6.1-3.5l-3.7-2.3h0Z"/>
  <path id="Shape-13" class="cls-1" d="M68.8,118a7.1,7.1,0,1,0,7.1,7.1h0a7.13,7.13,0,0,0-7.1-7.1m0,9.6a2.54,2.54,0,0,1-2.5-2.5,2.5,2.5,0,0,1,5,0A2.42,2.42,0,0,1,69,127.6H68.8"/>
  <path id="Shape-14" class="cls-1" d="M84,118a7.1,7.1,0,1,0,7.1,7.1h0A7.13,7.13,0,0,0,84,118m0,9.6a2.54,2.54,0,0,1-2.5-2.5,2.61,2.61,0,0,1,2.5-2.5,2.54,2.54,0,0,1,2.5,2.5A2.48,2.48,0,0,1,84,127.6h0"/>
  <path id="Shape-15" class="cls-1" d="M105.9,131.8V118.3h-4.5V124l-4.5-5.7H92.4v13.5h4.5v-5.6l4.5,5.6h4.5Z"/>
  <path id="Shape-16" class="cls-1" d="M46.5,123.1a4.81,4.81,0,0,0-4.81-4.81H33.5v13.5H38v-4h1.4l1.9,4h5.1l-2.7-4.5a4.68,4.68,0,0,0,2.8-4.2h0Zm-8.4-.9h2.8a1.2,1.2,0,1,1,0,2.4H38.1v-2.4h0Z"/>
  <path id="Shape-17" class="cls-1" d="M222.3,128.1v0.7h-1.1v3h-0.8v-3h-1.1v-0.7h3Z"/>
  <path id="Shape-18" class="cls-1" d="M225.2,128.1h1.1v3.7h-0.7v-3.1l-0.7,3.1h-0.7l-0.7-3.1v3.1h-0.7v-3.7H224l0.6,2.9,0.6-2.9h0Z"/>
</svg>
