<svg id="cinemax" xmlns="http://www.w3.org/2000/svg" viewBox="0 0 782.61 273.34">
  <defs>
    <style>
      .cls-1 {
        fill: #666;
      }
    </style>
  </defs>
  <title>cinemax</title>
  <path id="Shape" class="cls-1" d="M552.4,106.4l5.2,22.1-16.9,2.1,11.7-24.2h0ZM750,3.2L725,180.7,0,273.3,24.9,95.8,750,3.2h0Zm-86.2,99.1,34.3-50-35.8,4.4-16,24.8L633,60.4l-33.4,4.1,27.1,41.1-30.9,45.1L572.7,68l-30.6,3.8-49.2,93.6,12.6-89.3-33.9,4.2-24.5,35.9L432,85.1l-30.5,3.7-13.4,95.4,30.2-3.7,6.6-47.3,16.4,31.3,0.5-.1,26-36.5-6.6,47.3,28.2-3.5,2.5-.3,31.1-3.8,6.5-13.4,32.3-4,3.1,12.2,24.7-3,8.2-1,27.6-3.4,18.8-28.8L658.7,151l33.4-4.1-28.3-44.6h0ZM338.5,131.7l1.4-9.7,48.4-5.9L392,89.9l-78.7,9.7L299.8,195l78.7-9.7,3.6-26.2L333.7,165l1.5-10.4,45.1-5.5,3.2-23-45,5.6h0ZM197.8,207.5l30.6-3.7,6.8-47.4,27.5,43.2,27.4-3.4,13.5-95.4L273,104.5,266.5,150l-26.4-41.5L211.2,112l-13.4,95.5h0Zm4-94.2-30.9,3.8-13.5,95.4,30.9-3.8,13.5-95.4h0ZM70.7,206.7c-0.9,8.5,7.8,15.5,19.4,14.1h0l57.6-7.1,4-26.7-39.1,4.8c-5.2.6-9.8-1-8.9-7.7l3.4-24.2c1-7.7,7.5-9.7,14.3-10.6l36.2-4.4,3.8-26.7L97.7,126c-8.9,1.1-15.8,6.8-17.8,15.1l-9.2,65.6h0Z" transform="translate(0 0.04)"/>
  <path id="Shape-2" class="cls-1" d="M782.5,8.8a12.79,12.79,0,0,1-10.9,14.3A9.8,9.8,0,0,1,760.37,15q0-.28-0.07-0.57a12.82,12.82,0,0,1,2.6-9.5A12.47,12.47,0,0,1,771.2.1a9.73,9.73,0,0,1,11.21,8q0.06,0.36.09,0.72h0Zm-3.7,8.9A11.33,11.33,0,0,0,781.2,9c-0.6-4.9-4.3-8.4-10-7.7A10.94,10.94,0,0,0,764,5.4a11.55,11.55,0,0,0-2.4,8.7c0.6,4.9,4.3,8.4,10,7.7a10.78,10.78,0,0,0,7.2-4.1h0Zm-9.6,0-3.7.5,1.7-12.3,4.8-.6c3.6-.4,5.2,1,5.5,3.1s-0.9,3.7-2.9,4.6l2.2,3.7-3.8.5-1.8-3.3-1.4.2-0.6,3.6h0Zm2.6-6.7a2.74,2.74,0,0,0,1.8-.8,1.69,1.69,0,0,0,.3-1c-0.1-.9-0.7-1-1.7-0.9l-1.7.2-0.4,2.7,1.7-.2h0Z" transform="translate(0 0.04)"/>
</svg>
