<svg id="crackle" xmlns="http://www.w3.org/2000/svg" viewBox="0 0 1077.4 203.3">
  <defs>
    <style>
      .cls-1 {
        fill: #666;
      }
    </style>
  </defs>
  <title>crackle</title>
  <path id="Shape" class="cls-1" d="M1045,7.5V38.2H974.3V81.7h69.3v31H974.8V165h74.4v31H929.5V7.5H1045Z" transform="translate(0)"/>
  <path id="Shape-2" class="cls-1" d="M868.9,169.6h52.8v26.3H823.1V33.3H869V169.6h-0.1Z" transform="translate(0)"/>
  <path id="Shape-3" class="cls-1" d="M704.1,195.9H658.2V33.3h45.9V195.9h0Zm54.6,0-41.9-62.4c-6.2-9.2-8.8-12.9-8.8-19.1a16.39,16.39,0,0,1,1.4-6.5c1.6-4.6,4.6-7.8,10.6-15.4l44.9-59.2h48.4L752,110l60.8,85.9H758.7Z" transform="translate(0)"/>
  <path id="Shape-4" class="cls-1" d="M647.3,84.5c-1.2-1.4-6.4-8.7-11.3-13.9-16.2-16.5-34.1-18.8-42.8-18.8-5.4,0-21.9,1.2-33.9,13.2-12.5,12.5-17.6,32.9-17.6,49.4,0,6.8,1.2,37.1,24,52.9,3.8,2.6,13.7,8.7,26.8,8.7,10.1,0,26.6-3.8,43.5-20.9,3.5-3.3,5.6-5.9,11.3-13.2v46.3c-3.3,1.4-6.6,2.8-10.1,4a167.6,167.6,0,0,1-51.2,8.5c-10.1,0-37.2-.2-61.4-18.8-11.1-8.2-32.2-28.7-32.2-65.6,0-12.7,2.3-40.9,28-64.2,25.6-23.5,55.5-24.5,67.3-24.5,27.7,0,51,9,59.7,12.4l-0.1,44.5h0Z" transform="translate(0)"/>
  <path id="Shape-5" class="cls-1" d="M448.7,33.3h-21c-21.2,0-31.1-.2-39.9,7.1-3.7,3.2-6.2,6.4-9.9,15-2.5,5.3-4.6,10.8-6.7,16.6l-37,104.1c-11-22.1-27.3-54.7-27.3-54.8,5.3-5.3,11.7-10.7,16.1-16.6a39.18,39.18,0,0,0,8.1-24.2,45.28,45.28,0,0,0-9.9-27.4c-15.4-18.9-39.8-19.3-46.5-19.6-5.5-.2-11.1-0.2-16.8-0.2H192.5V195.9h45.2V56.5c8.1-3.7,13.3-4.4,17.8-4.4,12.4,0,24.1,6.7,29.5,18.7a32.74,32.74,0,0,1,2.3,11.5c0,9-3.7,15.4-9.4,21.9-4.2,4.4-11.8,10.8-14.3,16.1a18.1,18.1,0,0,0-1.4,6.9c0,5.5,1.9,9.4,6.2,18.9l14.3,31.1c3,5.8,6.2,12.2,12,15.4,4.4,2.5,9.2,3,19.1,3.2h53.5L385,144.4h56.5l17.7,51.4h45.9L448.7,33.3h0Zm-55.3,85.9L413.9,60l18.9,59.2H393.4Z" transform="translate(0)"/>
  <path id="Shape-6" class="cls-1" d="M182,66.7c-1.4-1.6-7.5-10.2-13.2-16.3-19.1-19.3-40-22.1-50.3-22.1-6.3,0-25.7,1.4-39.8,15.5C64,58.4,58,82.5,58,101.8c0,8,1.4,43.6,28.2,62.1,4.4,3.1,16,10.3,31.5,10.3,11.9,0,31.2-4.5,51.1-24.6,4.2-3.8,6.6-6.9,13.2-15.4v54.4c-3.9,1.7-7.7,3.3-11.9,4.7-9.4,3-32.3,10-60.2,10-11.9,0-43.6-.3-72.1-22.1C24.8,171.5,0,147.5,0,104.1c0-14.9,2.8-48,32.9-75.4C63,1.1,98.1,0,111.9,0c32.6,0,59.9,10.5,70.1,14.7v52h0Z" transform="translate(0)"/>
  <path id="Shape-7" class="cls-1" d="M1067,7.6h1.8l3.4,7.9h0l3.5-7.9h1.7V17.7h-1.2V9.2h0l-3.6,8.5h-0.7l-3.6-8.5h0v8.5h-1.2V7.6H1067Z" transform="translate(0)"/>
</svg>
