<svg id="history" xmlns="http://www.w3.org/2000/svg" viewBox="0 0 241.5 194.7">
  <defs>
    <style>
      .cls-1 {
        fill: #676767;
      }
    </style>
  </defs>
  <title>history</title>
  <polygon class="cls-1" points="198.9 17.7 220.3 0 135.6 0 158.2 18.4 158.2 56.5 158.2 56.5 99.7 56.5 99.6 18.6 122 0 122.1 0 37.5 0 37.5 0 59 17.5 59 150.4 37.5 168.1 37.5 168.1 122 168.1 99.6 149.7 99.6 90 99.7 90 158.5 90 158.5 149.7 135.7 168.1 177 168.1 177 168.1 220.3 168.1 198.9 150.4 198.9 17.7"/>
  <path class="cls-1" d="M24.3,129.3v35.4l18-17.2ZM0,187.9L16.6,172V121.5L0,104.7v83.2Z"/>
  <polygon class="cls-1" points="224.3 178.9 21.9 178.9 6.3 194.7 241.5 194.7 224.3 178.9"/>
</svg>
