<svg id="hulu" xmlns="http://www.w3.org/2000/svg" viewBox="0 0 295 97.2">
  <defs>
    <style>
      .cls-1 {
        fill: #666;
      }
    </style>
  </defs>
  <title>hulu</title>
  <path id="Shape" class="cls-1" d="M295,30.3H271.5V69.5a6.52,6.52,0,0,1-1.8,4.5,7,7,0,0,1-4.4,1.8H251.6a6.6,6.6,0,0,1-4.5-1.8,6.52,6.52,0,0,1-1.8-4.5V30.3H221.8V71.5c0.1,5.5,1.1,10.2,3.4,14.1a21.46,21.46,0,0,0,9.3,8.6,32.87,32.87,0,0,0,14.1,3h22.9V96.9a25.68,25.68,0,0,0,12.7-3.1,21.59,21.59,0,0,0,7.9-9A29.46,29.46,0,0,0,295,71.6V30.3h0ZM60,32.8a31.56,31.56,0,0,0-13.5-2.5H31.3l-5.9.7a13,13,0,0,0-2,.7V0H0V97.2H23.4V57.9a6.56,6.56,0,0,1,1.9-4.4,6.34,6.34,0,0,1,4.5-1.8H43.5a6.87,6.87,0,0,1,4.4,1.8,6.37,6.37,0,0,1,1.9,4.4V97.2H73.2V54.9c0-5.9-1.2-10.7-3.6-14.3A21.4,21.4,0,0,0,60,32.8h0Zm79.4,36.7a7,7,0,0,1-1.8,4.5,7.59,7.59,0,0,1-4.5,1.8H119.5a6.54,6.54,0,0,1-4.4-1.8,6.61,6.61,0,0,1-1.9-4.5V30.3H89.8V71.5a28.27,28.27,0,0,0,3.3,14.1,20.93,20.93,0,0,0,9.3,8.6,32.54,32.54,0,0,0,14.1,3h22.9V96.9A25,25,0,0,0,152,93.8a23.54,23.54,0,0,0,8.1-9A34.13,34.13,0,0,0,163,71.6V30.4H139.5l-0.1,39.1h0Zm41.3,27.7h23.4V0H180.7V97.2h0Z"/>
</svg>
