
<svg width="134px" height="82px" viewBox="0 0 134 82" version="1.1" xmlns="http://www.w3.org/2000/svg" xmlns:xlink="http://www.w3.org/1999/xlink">
    <g id="Page-1" stroke="none" stroke-width="1" fill="none" fill-rule="evenodd">
        <g id="ifc" fill-rule="nonzero">
            <path d="M10.0459152,81.9669547 C9.88929739,81.9222007 0.67121928,74.6496753 0.425105544,74.3811513 C0.22373976,74.1797583 0.11186988,73.9783653 0.044747952,73.6874643 C0,73.5308253 0,70.6218152 0,46.3427691 C0,22.220362 0,19.1547129 0.044747952,18.9756968 C0.178991808,18.4162718 0.67121928,17.9239778 1.23056868,17.8120928 C1.32006458,17.7897158 5.83960774,17.0512748 11.2988579,16.1785717 C22.1278623,14.4107886 21.411895,14.5226736 21.7922526,14.6569357 C22.1054883,14.7688207 22.1054883,14.7688207 25.3049669,17.3197988 L27.5423645,19.1099589 L27.5647384,16.8275048 C27.5871124,14.5674277 27.5871124,14.5450506 27.6542343,14.3660346 C27.8332261,13.8737406 28.2135837,13.5157086 28.6834372,13.3814466 C28.7729331,13.3590696 37.319792,11.9493185 47.6565689,10.2262895 C60.8348407,8.05572036 66.5402046,7.11588632 66.6968225,7.11588632 C66.9653102,7.11588632 67.2785458,7.20539432 67.4799116,7.33965633 C67.5917815,7.40678733 75.0870635,13.3590696 75.3555512,13.6052166 C75.4002991,13.6499706 75.4226731,13.6499706 75.4450471,13.6052166 C75.467421,13.5828396 75.6016649,13.3590696 75.7806567,13.1352996 C76.1610143,12.5982516 76.6532418,11.9716955 77.2125912,11.3451395 C81.6426384,6.31031428 87.5269941,2.79712512 94.4853006,1.02934205 C99.2733315,-0.179016008 103.591509,-0.313278014 107.70832,0.604179027 C110.930173,1.32024306 113.973034,2.75237112 116.434171,4.69917021 C116.613163,4.83343222 117.038268,5.16908723 117.373878,5.43761124 C125.249518,11.6136635 128.874102,14.7016897 129.948053,16.1338177 C130.171792,16.4247187 130.21654,16.5366037 130.21654,16.7603737 C130.21654,16.9841438 130.127044,17.2079138 129.992801,17.3421758 C129.746687,17.5659458 114.398139,29.6942803 114.286269,29.7614113 C114.107278,29.8509193 113.816416,29.8509193 113.637424,29.7614113 C113.570302,29.7166573 113.257067,29.5152643 112.966205,29.2691173 C112.339733,28.7768233 112.026498,28.5530533 111.601392,28.3292833 C110.549815,27.7922352 109.408743,27.5684652 108.133426,27.6579732 C106.701492,27.7474812 105.582793,28.0383823 104.374598,28.6425613 C103.278273,29.1796093 102.405688,29.8285423 101.510729,30.7236224 C99.9669248,32.2676354 98.8705999,34.2144345 98.3783725,36.2507416 C98.2888766,36.6087736 98.0875108,37.7723777 98.1098848,37.7947547 C98.1322587,37.8171317 99.0272178,37.5486077 99.3628274,37.4367227 C100.101169,37.1681987 100.929006,36.7206586 101.577851,36.2283646 C102.495184,35.5346776 103.255899,34.7514826 104.173232,33.4983705 C104.396972,33.1850925 104.66546,32.8718145 104.754956,32.7823065 C105.068191,32.4914055 105.493297,32.3571434 105.896028,32.4242744 C106.007898,32.4466514 106.477752,32.5585365 106.902857,32.6927985 C107.350337,32.8270605 109.229751,33.3864855 111.086791,33.9235335 C120.685227,36.7654126 122.631762,37.3472147 122.810754,37.4143457 C122.877876,37.4367227 122.989746,37.5262307 123.079242,37.5933617 C123.168738,37.6604927 125.428509,39.5849148 128.135761,41.8673689 C133.617385,46.4994081 133.169905,46.0966221 133.125157,46.4770311 C133.102783,46.7679321 133.013287,46.9917021 132.543434,47.8867821 C131.782719,49.3860412 131.111499,50.5272683 130.283662,51.7803803 C128.874102,53.9061954 127.442167,55.6516015 125.585127,57.4865156 C124.488802,58.5829886 123.593843,59.3885607 122.497519,60.2612637 C118.716317,63.2597818 114.532383,65.4079739 110.147084,66.526824 C107.417459,67.242888 104.575964,67.578543 101.913461,67.533789 C99.2733315,67.489035 97.0583079,67.131003 94.7537884,66.370185 C93.6127156,65.9897759 92.7625045,65.6317439 91.1515782,64.8037949 C85.75945,62.0738008 80.6805575,58.6501196 77.2573391,55.4054545 L76.8546076,55.0250455 L76.8546076,57.1732376 L76.8546076,59.3214297 L76.7651117,59.5004457 C76.6756158,59.6794617 76.5637459,59.8137237 76.3623801,59.8808547 C76.2952582,59.9032317 73.0957796,60.4402797 67.9273911,61.2906057 C63.3631,62.0290468 59.5595241,62.6779798 59.4924022,62.7003568 C59.4252803,62.7227338 59.3357844,62.7898648 59.3134104,62.8346188 C59.2686624,62.9017498 59.2686624,63.1478968 59.2462884,68.227476 L59.2239145,73.5532023 L59.1567925,73.6874643 C59.0672966,73.8664803 58.8883048,74.0454963 58.709313,74.1126273 C58.5750692,74.1573813 40.1836609,77.1335224 39.9822951,77.1335224 C39.7361814,77.1335224 39.6466855,77.0887684 37.6777756,75.5223784 L35.7312397,74.0007423 L35.7088657,75.7237714 C35.6864917,77.0216374 35.6864917,77.4691775 35.6641177,77.5363085 C35.5746218,77.7600785 35.3508821,77.9390945 35.1495163,78.0062255 C35.0600204,78.0286025 29.7126401,78.9013055 17.1384656,80.9599896 C9.5089398,82.1459707 10.269655,82.0340857 10.0459152,81.9669547 L10.0459152,81.9669547 Z" id="path3003" fill="#666666"></path>
            <path d="M11.5449716,71.8301732 C16.7133601,70.9798472 20.9867895,70.2637831 21.0539114,70.2414061 C21.2329032,70.1742751 21.411895,70.0176361 21.5013909,69.8386201 L21.5685129,69.6819811 L21.5685129,43.0757269 L21.5685129,16.4694727 L21.5013909,16.3352107 C21.3671471,16.0443097 21.0986594,15.8652937 20.7854237,15.8652937 C20.6288059,15.8652937 2.01365784,18.9085658 1.81229206,18.9533198 C1.63330025,18.9980738 1.43193446,19.1770899 1.34243856,19.3561059 L1.25294266,19.5351219 L1.25294266,46.1413761 C1.25294266,70.8232082 1.25294266,72.7700073 1.29769061,72.8595153 C1.43193446,73.1504163 1.72279615,73.3518093 2.01365784,73.3518093 C2.10315374,73.3741863 6.37658316,72.6804992 11.5449716,71.8301732 L11.5449716,71.8301732 Z" id="path3001" fill="#FFFFFF"></path>
            <path d="M30.764217,68.6973931 C35.6641177,67.914198 47.9026826,65.9002679 48.0145525,65.8555139 C48.1711703,65.8107599 48.3725361,65.6541209 48.462032,65.4751049 L48.5515279,65.3184659 L48.5739019,60.1270017 C48.5962759,55.2264385 48.5962759,54.9131605 48.6410238,54.8460295 C48.6633978,54.8012754 48.7305197,54.7565214 48.7752677,54.7341444 C48.8647636,54.6893904 48.6857718,54.7117674 56.9641429,53.3691474 C61.8192957,52.5859523 63.2736041,52.3398053 63.3631,52.2726743 C63.5197179,52.1831663 63.6763357,52.0489043 63.7434576,51.8698883 L63.8105796,51.7356263 L63.8105796,43.5008899 L63.8105796,35.2661536 L63.7210836,35.1095146 C63.5868398,34.8409906 63.3183521,34.6843516 63.0498644,34.6843516 C62.9827424,34.6843516 62.7366287,34.7067286 62.5128889,34.7514826 C62.2891492,34.7962366 60.8124668,35.0200066 59.2239145,35.2885306 C57.6353622,35.5570546 54.6819973,36.0269716 52.6683395,36.3626266 C50.6546817,36.6982816 48.9766335,36.9668057 48.9318855,36.9668057 C48.7976417,36.9668057 48.6633978,36.8996746 48.5962759,36.7877896 C48.5291539,36.6982816 48.5291539,36.6087736 48.5291539,33.0955845 L48.5291539,29.4928873 L48.6186498,29.3810023 C48.6633978,29.3138713 48.7528937,29.2691173 48.8200156,29.2467403 C48.8871376,29.2243633 52.6907135,28.5978073 57.2773786,27.8593662 C63.6092138,26.8300242 65.6452456,26.4719922 65.7347415,26.4272382 C65.8913593,26.3377302 66.0479772,26.2034682 66.1150991,26.0244522 L66.182221,25.8901902 L66.182221,17.4988148 L66.182221,9.12981641 L66.1150991,9.0179314 C65.9584812,8.70465339 65.7123675,8.54801438 65.3991318,8.54801438 C65.22014,8.54801438 29.4217784,14.3884116 29.2427866,14.4555426 C29.0861688,14.5002966 28.862429,14.7240667 28.7953071,14.9030827 L28.7281852,15.0597217 L28.7281852,41.6883529 C28.7281852,67.108626 28.7281852,68.3393611 28.7953071,68.4288691 C28.9519249,68.6973931 29.2204127,68.8764091 29.4665264,68.8764091 C29.6007702,68.8764091 30.1601196,68.7869011 30.764217,68.6973931 L30.764217,68.6973931 Z" id="path2999" fill="#FFFFFF"></path>
            <path d="M93.9035773,59.1200366 C98.8705999,58.6948736 103.278273,57.3298766 107.439833,54.9579145 C113.033327,51.7580033 117.731862,46.9693251 120.93134,41.2184358 C121.356446,40.4576178 121.759177,39.6520458 121.848673,39.3387678 C122.005291,38.8464737 121.960543,38.5108187 121.669681,38.3765567 C121.513064,38.2870487 119.991633,37.8395087 111.937002,35.4675466 C109.408743,34.7291056 107.037101,34.0130415 106.701492,33.9235335 C105.694663,33.6102555 105.582793,33.6326325 105.180061,34.1920575 C104.77733,34.7291056 104.374598,35.2661536 104.10611,35.5570546 C103.770501,35.9598406 103.099281,36.6087736 102.741298,36.9444287 C101.219867,38.2646717 99.4075754,39.0254897 97.2596737,39.2940138 C96.8569421,39.3387678 95.6039994,39.3387678 95.2012679,39.2940138 C92.9862443,39.0254897 91.2187002,37.9737707 90.1223753,36.2731186 C89.8986356,35.9374636 89.5630259,35.2437766 89.4287821,34.8409906 C88.8470587,33.1403385 88.8246847,31.1040314 89.4064081,29.1572323 C90.3013671,26.0692062 92.5835127,23.249704 95.3578857,21.884707 C96.3423407,21.392413 97.2372997,21.1238889 98.4678684,20.9672499 C98.9600958,20.9001189 100.101169,20.9001189 100.5039,20.9448729 C101.913461,21.1462659 102.965038,21.63856 104.128484,22.667902 C104.575964,23.048311 104.77733,23.137819 105.112939,23.048311 C105.381427,22.98118 104.978695,23.294458 109.453491,19.5798759 C111.937002,17.5211918 117.88848,12.5758746 119.0743,11.5912865 C119.611276,11.1437465 119.902137,10.8752225 119.969259,10.7857145 C120.081129,10.6066985 120.103503,10.4276825 120.036381,10.1815355 C119.969259,9.91301144 119.835015,9.68924143 119.454658,9.19694741 C116.993521,5.99703627 113.637424,3.64745116 109.744352,2.3272081 C105.515671,0.917457041 100.83951,0.783195035 95.8053652,1.90204508 C90.7712206,3.02089513 86.2740515,5.05720223 82.4481016,7.92145835 C78.6668996,10.7633375 75.6016649,14.4331656 73.4985112,18.6624188 C71.3953574,22.846918 70.2766586,27.2551872 69.941049,32.5137825 C69.896301,33.3193545 69.896301,36.2954956 69.941049,37.0563137 C70.1871627,40.6142568 70.7688861,43.4561359 71.8428369,46.1637531 C73.7893728,51.0643163 77.1007213,54.7565214 81.5307685,56.9494675 C82.8732071,57.6207776 84.1932717,58.0906946 85.6923281,58.4711036 C87.1913845,58.8515126 88.4890751,59.0305286 90.435611,59.1647906 C90.8383426,59.2095446 93.3889758,59.1647906 93.9035773,59.1200366 L93.9035773,59.1200366 Z" id="path2995" fill="#FFFFFF"></path>
        </g>
    </g>
</svg>
