<svg width="152px" height="94px" viewBox="0 0 152 94" version="1.1" xmlns="http://www.w3.org/2000/svg" xmlns:xlink="http://www.w3.org/1999/xlink">
    <!-- Generator: Sketch 43.2 (39069) - http://www.bohemiancoding.com/sketch -->
    <desc>Created with Sketch.</desc>
    <defs></defs>
    <g id="Page-1" stroke="none" stroke-width="1" fill="none" fill-rule="evenodd">
        <g id="ifc" transform="translate(0.000000, -1.000000)" fill-rule="nonzero" fill="#666666">
            <path d="M151.2,53.25 L140.02,43.75 L140.02,43.75 C139.888019,43.6431249 139.739372,43.5586662 139.58,43.5 C139.12,43.33 121.14,38.04 120.85,37.95 C120.076432,37.6419534 119.193758,37.9432506 118.77,38.66 L118.77,38.66 C116.59,41.73 114.49,43.28 111.57,43.93 C111.64,43.4 111.71,43.05 111.71,43.05 C112.6,37.73 116.8,33.48 121.32,32.59 C123.538366,31.9937505 125.905999,32.3798569 127.82,33.65 L128.95,34.54 C129.332109,34.8895764 129.917891,34.8895764 130.3,34.54 L147.79,20.75 L147.79,20.75 C148.154529,20.4426197 148.219974,19.9059782 147.94,19.52 L147.94,19.52 L147.78,19.31 C147.329138,18.7388631 146.830688,18.2069601 146.29,17.72 C143.29,14.72 133.66,7.29 133.06,6.84 C130.285872,4.52958306 127.040052,2.85377079 123.55,1.93 C119.029328,0.776811 114.3037,0.680998129 109.74,1.65 C100.863107,3.2435839 92.8265037,7.90063804 87.03,14.81 C86.62,15.31 86.12,16 85.76,16.53 L76.91,9.46 L76.91,9.46 C76.6036683,9.23205209 76.2318361,9.10927729 75.85,9.11 C75.7335984,9.09887878 75.6164016,9.09887878 75.5,9.11 L32.84,16.11 L32.84,16.11 C31.9830598,16.2565199 31.3573325,17.0006281 31.36,17.87 L31.36,22.75 L26.87,19.16 L26.87,19.16 L26.81,19.16 L25.87,18.41 L25.87,18.41 L25.74,18.32 L25.32,17.99 L25.32,17.99 C25.0049,17.7379444 24.6135094,17.6004288 24.21,17.6 L23.92,17.6 L1.49,21.25 L1.4,21.25 C0.586245542,21.4327331 0.00847744868,22.1559824 0.01,22.99 L0.01,84.44 C0.0300112515,84.929212 0.250652362,85.3885795 0.62,85.71 L11.19,94.05 L11.19,94.05 C11.3486153,94.1781889 11.5460649,94.2487066 11.75,94.25 L12.22,94.18 L12.22,94.18 C12.29,94.18 39.86,89.67 39.86,89.67 C40.3010728,89.592109 40.6219563,89.2078933 40.62,88.76 L40.62,85.1 L44.94,88.51 L44.94,88.51 C45.1231654,88.6565102 45.3567616,88.7247921 45.59,88.7 L66.59,85.32 C67.0350494,85.2464549 67.3611327,84.8610838 67.36,84.41 L67.36,72.7 C67.3693568,72.4985716 67.506159,72.3255571 67.7,72.27 L86.61,69.17 L86.61,69.17 C87.0550494,69.0964549 87.3811327,68.7110838 87.38,68.26 L87.38,63.58 C94.6,70.58 105.07,75.4 105.08,75.41 C110.2,77.86 116.47,78.5 123.38,77.12 C135.84,74.64 145.61,65.5 150.5,55.99 L150.85,55.32 C150.92,55.19 151,55.03 151.07,54.87 C151.3,54.37 151.65,53.62 151.2,53.25 Z M24.54,80.05 C24.5428229,80.4947429 24.2270946,80.8778266 23.79,80.96 L23.79,80.96 L2.55,84.43 L2.35,84.43 C1.85711777,84.4304661 1.45142945,84.0424164 1.43,83.55 L1.43,23.42 C1.4280437,22.9721067 1.74892722,22.587891 2.19,22.51 L2.19,22.51 L23.46,19.02 L23.61,19.02 C23.8539992,19.02 24.0880048,19.1169283 24.2605382,19.2894618 C24.4330717,19.4619952 24.53,19.6960008 24.53,19.94 L24.54,80.05 Z M75.34,30.21 C75.3403528,30.664315 75.0090241,31.0508652 74.56,31.12 L74.56,31.12 L55.72,34.2 L55.72,34.2 C55.4604262,34.2 55.25,34.4104262 55.25,34.67 L55.25,34.67 L55.25,42.54 L55.25,42.54 C55.25,42.7995738 55.4604262,43.01 55.72,43.01 L55.72,43.01 C55.72,43.01 71.61,40.4 71.72,40.4 C72.228102,40.4 72.64,40.811898 72.64,41.32 L72.64,59.59 C72.6411327,60.0410838 72.3150494,60.4264549 71.87,60.5 L55.76,63.13 L55.76,63.13 C55.5292658,63.1323377 55.3343546,63.3018257 55.3,63.53 L55.3,75.01 C55.3022775,75.484934 54.942662,75.883544 54.47,75.93 C54.47,75.93 33.79,79.32 33.69,79.32 C33.181898,79.32 32.77,78.908102 32.77,78.4 L32.77,18.3 C32.7688673,17.8489162 33.0949506,17.4635451 33.54,17.39 L74.23,10.75 L74.42,10.75 C74.928102,10.75 75.34,11.161898 75.34,11.67 L75.34,30.21 Z M138.27,46.54 C133.44,56.15 123.86,65.12 111.27,67.62 C93.52,71.15 79.92,61.42 79.48,41.75 L79.48,41.57 C79.06,20.75 91.74,6.57 109.97,2.94 C121.61,0.64 130.91,4.76 136.09,11.74 C136.75,12.62 136.67,13.11 136.17,13.54 C135.67,13.97 120.6,26.47 119.96,26.96 C119.577891,27.3095764 118.992109,27.3095764 118.61,26.96 C116.53,25.04 114.28,24.35 110.98,24.96 C105.64,26.01 101.04,31.88 101.2,37.65 L101.2,37.75 C101.37,43.69 106.2,46.55 111.57,45.49 C115.28,44.76 117.57,42.75 119.57,39.8 C119.777171,39.3725899 120.286137,39.1867068 120.72,39.38 C121.46,39.62 137.45,44.31 138.24,44.59 C139.03,44.87 138.56,45.98 138.28,46.54 L138.27,46.54 Z" id="Shape"></path>
        </g>
    </g>
</svg>
