<svg id="ilny-alternate" xmlns="http://www.w3.org/2000/svg" viewBox="0 0 293.56 272.61">
  <defs>
    <style>
      .cls-1 {
        fill: #cf2922;
      }

      .cls-2 {
        fill: #fff;
      }
    </style>
  </defs>
  <title>ilny-alternate</title>
  <path id="heart" class="cls-1" d="M157,0.07a29.22,29.22,0,0,1,17.2,4,29.22,29.22,0,0,1,3.7,2.4c0.8,0.7,5.8,4.7,6.9,6l5.4,6.5s4.6-4.9,5.5-5.8a28.92,28.92,0,0,1,3.8-3.1,70.63,70.63,0,0,1,9.5-6.2,29.63,29.63,0,0,1,8.8-3c0.6-.1,2.2-0.3,3-0.4,8.4-1.2,19.2,2.2,25.3,5.7,6.8,3.9,11.5,9.7,15.1,16.9,0.8,1.6,2.6,5.9,3,6.9,1.9,5.7,2.3,12.9,1.8,20a61,61,0,0,1-10.7,29.3c-1,1.4-3.4,5.3-6.2,8.8-9.5,11.4-23.5,25.5-37.6,34.4-4,2.5-19.1,10.8-19.1,10.8s-15.8-8.8-18.3-10.4c-16-9.9-33.7-24-43.5-39.9-3.4-5.5-7.4-11.1-9.6-17.9a65.51,65.51,0,0,1-2.7-9.2,54.31,54.31,0,0,1,1.1-25.4,68.16,68.16,0,0,1,4-9.9c5.3-10.3,15.2-17.1,28.2-19.8a39.51,39.51,0,0,1,5.4-.7h0Z" transform="translate(0 0.02)"/>
  <path id="Shape" class="cls-2" d="M90.7,0.27a5.33,5.33,0,0,1,1.9.4c3.7,0.7,5.3,1.7,6.8,4.7,3.2,6.3-.9,12.1-6.4,13.3-5.8,1.3-13.5-1.8-16.4,2.7-1.9,2.9-.8,12-0.8,16,0,4.9-.1,9.6.2,14.5,0.1,2.2-.1,4.8.1,6.9,0.2,1.6-.2,3.3,0,4.8a89,89,0,0,1,.4,11.7c-0.2,5.3.1,10.1,0,15.2a66.76,66.76,0,0,0,0,10,12.74,12.74,0,0,0,1.5,5.1c4.3,6,17.4-1.2,21.9,5.8a8.27,8.27,0,0,1,.9,1.6c0.1,0.3.1,0.6,0.2,1,1,4.1-.6,7.8-3.1,9.4-0.3.2-.9,0.5-1.2,0.7-2.7,1-7,.9-10.5.6-4.8-.4-9.3,0-13.9-0.3a84.13,84.13,0,0,0-14.2,0c-4.1.4-8.8,0.5-12.9,0.7-1.9.1-3.7,0.6-5.8,0.2a8.9,8.9,0,0,1-6.3-3.9c-2.2-3.9-1.5-9.6,1.8-11.9a14.17,14.17,0,0,1,3.3-1.2c6.3-2,14.5,2,17.9-3.6,2.1-3.5.5-12.5,0.9-17.5,0.3-4.4,0-9.8-.1-13.9-0.2-6.3-.2-21.6-0.2-21.6-0.2-6.5.2-13.1-.2-19.4-0.2-2.5.3-4.8,0-7.3a10.05,10.05,0,0,0-1.1-3.7c-2.5-4.1-11.9-1.5-17-2.2a10.78,10.78,0,0,1-5.8-3c-1.9-1.7-3-5.8-1.9-9.1a8.81,8.81,0,0,1,1.1-2.4,9.2,9.2,0,0,1,6.3-3.5,29.08,29.08,0,0,1,5.9,0c4.8,0.2,9.7.1,14.3,0.4C69.2,2,80.1,1.17,90.7.27h0Z" transform="translate(0 0.02)"/>
  <path id="Shape-2" class="cls-2" d="M201.9,146.27a17.15,17.15,0,0,1,8.3,1.1c2.4,1.3,3.4,3.5,4,6.7a8.61,8.61,0,0,1-6.3,10,38,38,0,0,1-4.6.5c-1.8.3-4-.8-5.8,0.1a4.87,4.87,0,0,0-.8,1,3.46,3.46,0,0,0,.5,2.7c0.1,0.2,3.9,6.2,5.4,8.8,5.3,9.2,10.6,18.3,15.7,27.5a3.75,3.75,0,0,0,1.1,1.4s2.3-3.2,2.7-3.8c3.4-6,6.9-11.9,10.5-17.9a63.58,63.58,0,0,0,4.3-7.7c0.3-.6,4.3-7.7,4.6-7.9a14.8,14.8,0,0,0,.8-1.3c0.9-1.8.1-2.7-1.7-3a15.77,15.77,0,0,0-4.4.3,21.11,21.11,0,0,1-5-.4c-5.3-.7-8.9-6.1-7-11.9a7.87,7.87,0,0,1,4.9-5c5.4-1.4,11.6.2,17.4,0.1,6.8-.1,14.3,0,20.6,0,6.5,0,12.4-1.4,19.1-.7a8.74,8.74,0,0,1,6,3.5,10,10,0,0,1,1.3,6.2c-0.1,1.6-1.8,5-1.9,5.2-4.5,5.7-13.6,1.9-20.8,3.7,0,0-1.1.1-1.7,0.2a10.39,10.39,0,0,0-3.4,1.5c-4,2.8-6.9,9.2-9.5,13.5-6,10.2-12.8,20-18.6,30.3-1.4,2.5-5.4,8.6-5.8,9.2-0.7,1.2-1.8,2.3-2.2,3.7-0.7,2.1-.3,6-0.3,8.6-0.1,5-.7,9.8,0,14.6a8.66,8.66,0,0,0,1.8,4c2.8,3,9.6,1.1,13.8,1.1a12.4,12.4,0,0,1,7.5,2.3c4.3,3.2,3.2,9.6,0,13.1a9,9,0,0,1-4,2.3,69,69,0,0,1-7.3.3c-9-.8-18.8-1.5-28-0.8-2.3.2-4.6-.2-7.1,0.1-3.7.5-9.8,1.2-13.9,0.7a8.9,8.9,0,0,1-4.5-2c-0.4-.3-0.6-0.7-1-1-1-.6-1.4-2-1.9-3.2-2.7-7,3.7-12.2,10.7-11.3,4.3,0.5,9.3.4,11.8-1.9s1.9-6.6,2.2-11.1c0.3-3.6,0-7.5.2-11a13.4,13.4,0,0,0,0-4c-0.3-1.3-1.2-2.1-1.8-3.1-2-3.7-4.7-7-6.7-10.6-3.7-6.6-7.7-12.7-11.7-19-2.1-3.3-3.8-6.9-6.1-10s-4.4-6.9-6.6-10.4a33.85,33.85,0,0,0-2.1-2.9,13.11,13.11,0,0,0-2.8-2,12.72,12.72,0,0,0-4.7-2.2c-7.5-1.6-17.3,2.2-21.2-3.8-2.4-3.8-1.7-10.2,1.6-12.6a12.73,12.73,0,0,1,5.4-1.7c4.1-.6,8.5.5,12.5,0.3,12.5-.5,24.6.8,36.5-0.4h0Z" transform="translate(0 0.02)"/>
  <path id="Shape-3" class="cls-2" d="M11.5,145.37a11.08,11.08,0,0,1,1.9.2c4.2,0,8.5.1,12.4,0.2,6.7,0.2,20.7-1.3,25.7,1.5,7,4,9.1,11.7,12.5,19.3,1.6,3.5,3.3,7.1,4.8,10.9,2.5,6.3,6,12.4,8,19.1,0.6,2,2.1,4.3,2.9,6.3,2.3,5.3,4.4,10.5,6.6,15.8,1.1,2.6,2.7,5.4,3.7,8,0.9,2.3,7.3,16.3,7.3,16.3s-0.1-4.3-.2-5.6a108.58,108.58,0,0,1,.4-11.4,100.9,100.9,0,0,0,0-11c0-3.3.3-6.8,0.1-10-0.1-2.7-.3-6.5-0.1-9.2,0.4-4.7.1-17.3,0.1-17.5-0.2-2.6.1-5.6-.1-8.2a7.69,7.69,0,0,0-1.4-4c-2.8-3.8-9.1-1.9-14.4-2.3a14.5,14.5,0,0,1-7.7-2.9,5.35,5.35,0,0,1-2.3-3c-2.1-9.4,5.1-12.9,14.2-12.2,1.8,0.1,3.3-.2,4.9.2a3.1,3.1,0,0,1,.7.2c1.8-.3,4.1.2,5.8,0.4,3.4,0.4,7.1,0,10.3.3a21.73,21.73,0,0,0,4.3-.3c0.6-.1,5.8.2,7.8,0,5-.5,10.2-1.4,15.3-0.5a9.08,9.08,0,0,1,6.6,5c2.3,5.6,0,9.4-3.5,11.9-4.9,3.5-15.4-.5-19.8,3.3a7,7,0,0,0-1.5,2.5c-0.5,1.5-.2,4.2-0.1,5.7,0.2,3-.3,5.9-0.1,9.3,0.1,1.2-.2,9.6,0,11.7,0.3,4.3-.3,8.5,0,12.9a95.53,95.53,0,0,1-.2,10.7c-0.2,2.7.3,4.8,0.1,7.6-0.4,5.9,0,12-.2,17.5-0.2,4.5.9,12.3-.5,16.1a14.62,14.62,0,0,0-.5,2,14.08,14.08,0,0,1-5.3,7.6c-3.4,2.7-9.5,3.6-15,2.1a16.16,16.16,0,0,1-9.4-7.5c-4.3-7.6-7.9-17.2-11.2-25.7-3-7.5-6.7-14.8-9.6-22.4-0.6-1.6-1.7-3.3-2.3-4.9-1.7-4.4-3.6-8.5-5.4-12.7s-3.3-8.3-5.1-12.3c-1-2.1-5.5-14.5-6.8-15-0.9,3,.1,6.9,0,9.8-0.4,5.7,0,12.8-.1,18.4-0.2,11.2-.5,21,0,32.3,0.2,5.6-1.4,13.3,1,17.5a1.69,1.69,0,0,0,.3.6c5.5,6.2,17.8-2.1,22.9,7.2,2.5,4.5-.1,10.3-3.7,11.9a16.1,16.1,0,0,1-7,.9c-1.2-.1-2.8.3-4,0.1-1.9-.3-3.8-0.1-5.9-0.4a75.18,75.18,0,0,0-11.8-.6c-4,0-7.3.1-11.2,0.1a31,31,0,0,1-4.3.2c-6.2-.7-15.5,2.7-19.2-2.2-1.5-2.1-3-5.7-1.7-9,0.7-1.7,1.1-3,2.3-4,1.6-1.4,4-2,6.6-2.3,1.7-.2,3.2.4,4.7,0.5,4.4,0.3,9.3-.7,10.7-3.7,0.6-1.2.4-2.5,0.6-4.3,0.5-4.1-.1-8.3.2-12.5,0.1-1.1-.1-4.7-0.1-5.7,0-5.9.3-8.8,0.1-11.7-0.5-6.7.6-13.2,0.1-19.7-0.2-2.4.1-4.6,0-6.8v-1.6c0-4.5.4-9.2,0-13.6-0.2-2.1.2-4.1-.4-6-2-6.9-18.8.6-22.2-6.3-0.7-1.4-1.8-2.6-2.1-4.4-1.1-5.4,3-9.1,6.7-10.2a12.42,12.42,0,0,1,3.8-.5h0Z" transform="translate(0 0.02)"/>
  <path id="Shape-4" class="cls-2" d="M276.6,257.17a8.86,8.86,0,0,1,2.5,6.2A8.85,8.85,0,0,1,264,269.71l-0.14-.14a8.87,8.87,0,1,1,12.7-12.4h0Zm-11.5.9a7.49,7.49,0,0,0-2.2,5.3,7.34,7.34,0,0,0,2.1,5.2,7.25,7.25,0,0,0,10.25.15l0.15-.15a7,7,0,0,0,2.2-5.1,7.24,7.24,0,0,0-2.1-5.3,7.36,7.36,0,0,0-10.4-.1h0Zm5.3,0.2c2.8,0,4.2.9,4.2,2.8a2.58,2.58,0,0,1-2.1,2.6l2.2,4.4H272l-1.9-4h-1.2v4h-2.4v-9.8h3.9Zm-1.5,4.3h1.2c1.4,0,2-.4,2-1.4s-0.7-1.5-2.1-1.5h-1v2.9h-0.1Z" transform="translate(0 0.02)"/>
</svg>
