<svg id="nickjr" width="164px" height="46px" viewBox="0 0 164 46" version="1.1" xmlns="http://www.w3.org/2000/svg" xmlns:xlink="http://www.w3.org/1999/xlink">
    <g id="Page-1" stroke="none" stroke-width="1" fill="none" fill-rule="evenodd">
        <g id="nickjr" fill-rule="nonzero" fill="#666666">
            <path d="M15.4,14.9 C11.2,14.9 7.3,16.6 4.5,19.4 C1.7,22.2 0,26.1 0,30.3 L0,44.4 L11.7,44.4 L11.7,38.2 L11.7,30.5 C11.7,28.8 12.1,27.4 12.8,26.3 C13.5,25.2 14.4,24.5 15.4,24.5 C16.4,24.5 17.3,25.2 18,26.3 C18.7,27.4 19.1,28.9 19.1,30.5 L19.1,44.4 L30.8,44.4 L30.8,30.3 C30.8,26.1 29.1,22.2 26.3,19.4 C23.6,16.6 19.7,14.9 15.4,14.9" id="_x33_41"></path>
            <path d="M43.5,11.1 C44.7,9.9 45.4,8.3 45.4,6.5 C45.4,4.7 44.7,3.1 43.5,1.9 C42.3,0.7 40.7,0 38.9,0 C37.1,0 35.5,0.7 34.3,1.9 C33.1,3.1 32.4,4.7 32.4,6.5 C32.4,8.3 33.1,9.9 34.3,11.1 L35.7,12.5 C38.1,14.9 38.3,15.5 36,17.8 L34.7,19.1 C33.6,20.2 33,21.7 33,23.3 L33,44.4 L44.8,44.4 L44.8,23.4 C44.8,21.8 44.1,20.3 43.1,19.2 L41.8,17.9 C39.5,15.6 39.7,15 42.1,12.6 L43.5,11.1 Z" id="_x33_43"></path>
            <path d="M64.4,35.3 C63.7,36.6 62.8,37.3 61.8,37.3 C60.8,37.3 59.9,36.5 59.2,35.3 C58.5,34 58.1,32.3 58.1,30.4 C58.1,28.5 58.5,26.8 59.2,25.5 C59.9,24.2 60.8,23.5 61.8,23.5 C62.8,23.5 63.7,24.3 64.4,25.5 C64.9,26.5 65.3,27.6 65.4,29 L77.1,29 C76.8,25.3 75.1,22 72.7,19.5 C69.9,16.7 66,15 61.8,15 C57.6,15 53.7,16.7 50.9,19.5 C48.1,22.3 46.4,26.2 46.4,30.4 C46.4,34.6 48.1,38.5 50.9,41.3 C53,43.4 56.8,45.8 61.8,45.8 C65.6,45.8 69.1,44.4 71.8,42.1 C73.8,40.4 76.7,37.1 77.2,31.8 L65.4,31.8 C65.3,33.1 64.9,34.3 64.4,35.3" id="_x33_45"></path>
            <path d="M108.2,42.4 C108.2,42 108.1,41.6 107.9,41.3 L101.5,31.6 L105.9,23.5 C107.5,20.7 106.6,17.1 103.8,15.5 C101,13.9 97.4,14.8 95.8,17.6 L90.5,27.1 L90.5,20.8 C90.5,17.6 87.9,14.9 84.6,14.9 C81.4,14.9 78.7,17.5 78.7,20.8 L78.7,44.5 L90.4,44.5 L90.4,35.2 L96.6,44.5 L106.1,44.5 L106.1,44.5 C107.2,44.4 108.2,43.5 108.2,42.4" id="_x33_47"></path>
            <path d="M132.8,33.8 C132.8,40.9 129.3,45.5 121,45.5 L120.7,45.5 C117.8,45.5 114.7,44.7 112.8,43.5 C109.5,41.4 107.3,37.9 109.5,34.2 C111.5,30.8 118.6,30.1 119.7,36.1 C120.1,38.2 121.2,37.9 121.2,36 L121.2,21.8 C121.2,17.6 123.8,14.9 127.1,14.9 C130.3,14.9 133,17.5 133,20.8 L132.8,33.8 Z M126.9,13.1 C130.1,13.1 132.7,10.5 132.7,7.3 C132.7,4.1 130.1,1.5 126.9,1.5 C123.7,1.5 121.1,4.1 121.1,7.3 C121.1,10.5 123.7,13.1 126.9,13.1 L126.9,13.1 Z" id="_x33_49"></path>
            <path d="M147.3,28.7 C147.3,27.6 148,25.6 149.3,25.1 C150.6,24.6 151.9,25.2 153.3,25.7 C158.2,27.6 161.9,25.1 162.5,21.9 C163.1,18.7 161,15.7 157.8,15.1 C153.9,14.4 151.2,15.6 148,18.1 L148,18.1 C147.8,18.3 147.2,18.8 147,19 C146.2,16.6 144,14.9 141.4,14.9 C138.2,14.9 135.5,17.5 135.5,20.7 L135.5,44.4 L147.2,44.4 L147.2,28.7 L147.3,28.7 Z" id="_x33_51"></path>
            <path d="M157.3,44.7 C160.5,44.7 163.1,42.1 163.1,38.9 C163.1,35.7 160.5,33.1 157.3,33.1 C154.1,33.1 151.5,35.7 151.5,38.9 C151.5,42.1 154.1,44.7 157.3,44.7" id="_x33_53"></path>
        </g>
    </g>
</svg>
