<svg id="trutv" xmlns="http://www.w3.org/2000/svg" viewBox="0 0 170.8 66.1">
  <defs>
    <style>
      .cls-1 {
        fill: #666;
      }
    </style>
  </defs>
  <title>tru-tv</title>
  <path id="Shape" class="cls-1" d="M34.9,27.4H25.6V64.9H8.5V27.4H0V14.2H8.5V0H25.7V14.2H35V27.4H34.9Z"/>
  <path id="Shape-2" class="cls-1" d="M123.8,13.4V64H107.4V57.8h-0.2a12.66,12.66,0,0,1-7.2,6.8,21.9,21.9,0,0,1-7.8,1.3,26.08,26.08,0,0,1-7.9-1.2,18.42,18.42,0,0,1-9.1-6.1,21.34,21.34,0,0,1-4.3-8.1,40.06,40.06,0,0,1-.9-9.8V13.4H87.4V38.1c0,3.3.4,5.7,1.2,7.3,1.4,2.9,4.1,4.3,8.1,4.3a8.64,8.64,0,0,0,6.9-3.1c2-2.4,3-5.7,3-10V13.5l17.2-.1h0Z"/>
  <path id="Shape-3" class="cls-1" d="M53.3,22.3h0.2a14.52,14.52,0,0,1,3.9-5c2.5-2,5.9-3,10-3.1V31.6c-4.3.2-7.5,0.9-9.4,2.2-2.4,1.6-3.7,4.4-3.7,8.4V65H37.2V14.4H53.3v7.9h0Z"/>
  <path id="Shape-4" class="cls-1" d="M149.2,22.9a21.6,21.6,0,1,0,21.6,21.6,21.6,21.6,0,0,0-21.6-21.6h0ZM160,56.5h-5.5L149,42.2h-5.6V56.5h-6V42.2H131V36.7h22.3l3.9,10.7,3.9-10.7h6.4L160,56.5h0Z"/>
</svg>
