<svg id="usa" xmlns="http://www.w3.org/2000/svg" viewBox="0 0 88.52 36.65">
  <defs>
    <style>
      .cls-1 {
        fill: #666;
      }
    </style>
  </defs>
  <title>usa</title>
  <path id="Shape" class="cls-1" d="M34.2,21.31c-0.5-.2-1-0.4-1.4-0.6a13.25,13.25,0,0,1-2.5-1.6,10.2,10.2,0,0,1-3-4.4,14.37,14.37,0,0,1-.7-5.5,12.11,12.11,0,0,1,1.6-5.6,13.1,13.1,0,0,1,3-3.6H20.8v18.7c0,1,0,2-.1,3-0.2,1.8-.8,3.9-2.5,4.8a5.1,5.1,0,0,1-2.7.6,4.7,4.7,0,0,1-2.6-.8c-1.5-1.1-1.9-3.2-2.1-5-0.1-1-.1-2-0.1-2.9V0H0V19a27.65,27.65,0,0,0,.5,6.4,16.73,16.73,0,0,0,2.1,5.2,10.65,10.65,0,0,0,4,3.6A15.35,15.35,0,0,0,12.2,36a29.38,29.38,0,0,0,5.9.2,17.66,17.66,0,0,0,5.5-1.3,12.3,12.3,0,0,0,4.4-3,13.14,13.14,0,0,0,2.6-4.4c0-.1.1-0.3,0.1-0.4a16.61,16.61,0,0,0,4.3,3.2,8.57,8.57,0,0,0,5.2,1,5.28,5.28,0,0,0,2.4-1.1A4.77,4.77,0,0,0,43.8,28a3.62,3.62,0,0,0-.3-2.3,3.86,3.86,0,0,0-1.5-1.6,10.76,10.76,0,0,0-2.9-1.3c-1.1-.4-2.8-0.9-3.2-1a5.85,5.85,0,0,1-1.7-.5h0Zm31.6,5.8a6.75,6.75,0,0,1-4.4-1.7,9.29,9.29,0,0,1-2.7-4.3,10,10,0,0,1,2.3-9.8,6.13,6.13,0,0,1,4.4-1.9,7.07,7.07,0,0,1,4.6,1.7,9.84,9.84,0,0,1,3.1,7.8,8.84,8.84,0,0,1-4,7.3,7,7,0,0,1-3.3.9h0Zm6.9-23.6A12.76,12.76,0,0,0,64.2,0a14.46,14.46,0,0,0-8.8,2.6,16.8,16.8,0,0,0-5.2,6.3,19.54,19.54,0,0,0-4.8-3.3,7,7,0,0,0-5.5-.2A3.94,3.94,0,0,0,38,7.11a4.51,4.51,0,0,0-.5,2.5,3.86,3.86,0,0,0,1.1,2.2,7.44,7.44,0,0,0,2.3,1.4,24.69,24.69,0,0,0,2.9,1l2.7,0.9a14.43,14.43,0,0,1,4.8,2.8c2.7,2.6,3.6,6.6,3.1,10.3a14.58,14.58,0,0,1-.7,3c-0.1.2-.2,0.5-0.3,0.7a0.35,0.35,0,0,1-.1.2l0.3,0.3a9,9,0,0,0,1,.9,16.94,16.94,0,0,0,4.1,2.4,14.44,14.44,0,0,0,9.4.3,12.15,12.15,0,0,0,4.6-2.8v3H83.1V0.71H72.8v2.8H72.7Z" transform="translate(0.02 0)"/>
  <path id="Shape-2" class="cls-1" d="M86.5,34.21h0.4l0.6,0.9,0.6-.9h0.4V36H88.2v-1.3l-0.6.9h0l-0.6-.9V36H86.7v-1.8H86.5Zm-1.3.3H84.6v-0.3h1.5v0.3H85.5V36H85.2v-1.5h0Z" transform="translate(0.02 0)"/>
</svg>
