<?xml version="1.0" encoding="iso-8859-1"?>
<!-- Generator: Adobe Illustrator 19.1.0, SVG Export Plug-In . SVG Version: 6.00 Build 0)  -->
<svg version="1.1" id="vh1" xmlns="http://www.w3.org/2000/svg" xmlns:xlink="http://www.w3.org/1999/xlink" x="0px" y="0px"
	 viewBox="0 0 364.5 142" style="enable-background:new 0 0 364.5 142;" xml:space="preserve">
<g>
	<path style="fill:#666666;" d="M257.5,46.594v-43.7c0-2.017-1.443-2.894-3.429-2.894h-35.35c-2.915,0-4.222,1.204-4.222,3.629
		v42.964c0,2.014-0.808,3.407-3.02,3.407H178.5V2.894c0-2.017-1.531-2.894-3.517-2.894H94.466c-2.316,0-3.54,1.391-3.969,3.022
		l-21.56,70.006c-0.665,2.249-1.82,2.14-2.443,0.039L45.174,4.1C44.237,1.328,43.352,0,40.61,0H2.333
		c-2.779,0-2.582,1.783-1.907,3.559L48.599,137.63c0.818,2.531,1.749,4.37,4.226,4.37h29.725c2.475,0,3.49-2.006,4.279-4.163
		L133.324,7.755c0.825-2.135,2.176-1.417,2.176,0.085v131.708c0,2.061,1.247,2.452,2.564,2.452h37.567c1.354,0,2.87-0.93,2.87-2.247
		V92h33.038c2.16,0,2.962,1.009,2.962,3.066v44.482c0,2.061,1.594,2.452,2.911,2.452h37.308c1.354,0,2.781-0.93,2.781-2.247V95.044
		c0-1.737,0.627-3.044,3.067-3.044h35.206c2.061,0,2.727-1.192,2.727-2.509V50h-37.942C257.816,50,257.5,48.436,257.5,46.594z"/>
	<path style="fill:#666666;" d="M361.765,0h-33.905c-2.774,0-4.109,1.36-6.986,3.479l-19.48,14.663
		c-2.004,1.608-2.893,2.509-2.893,4.654V50h21.039c1.947,0,2.961,0.839,2.961,2.738v86.81c0,2.061,1.287,2.452,2.604,2.452h37.308
		c1.354,0,2.088-0.93,2.088-2.247V2.894C364.5,0.877,363.75,0,361.765,0z"/>
</g>
</svg>
