<svg id="wetv" xmlns="http://www.w3.org/2000/svg" viewBox="0 0 495.7 344.7">
  <defs>
    <style>
      .cls-1 {
        fill: #666;
      }
    </style>
  </defs>
  <title>we-tv</title>
  <path id="Shape" class="cls-1" d="M64.1,267.1h49.7c11.6,0,12-.4,14-12L153,106.9l25.2,148.2c2,11.6,2.4,12,14,12h49.7c10.4,0,12.4-1.2,13.6-8L304.7,14.9a49.32,49.32,0,0,0,1.2-7.2c0-5.6-3.2-7.6-13.2-7.6H245.4c-11.6,0-12,.4-14,12l-20,153.6S198.8,87.9,194.8,64.2s-8.7-52.4-8.7-52.4c-2-11.2-2.4-11.6-14-11.6H133.7c-11.6,0-12,.4-14,11.6,0,0-4.7,28.7-8.7,52.4S94.4,165.7,94.4,165.7L74.4,12.1c-2-11.6-2.4-12-14-12H13.2C3.2,0.1,0,2.1,0,7.7a49.31,49.31,0,0,0,1.2,7.2L50.4,259.1c1.2,6.8,3.3,8,13.7,8h0Z" transform="translate(0 0)"/>
  <path id="Shape-2" class="cls-1" d="M439.8,63c12,0,13.2-1.2,13.2-13.2V13.3c0-12-1.2-13.2-13.2-13.2H332.1c-12,0-13.2,1.2-13.2,13.2V253.9c0,12,1.2,13.2,13.2,13.2H439.8c12,0,13.2-1.2,13.2-13.2V216.3c0-12-1.2-13.2-13.2-13.2H391V162.3h42.4c12,0,13.2-1.2,13.2-13.2v-34c0-12-1.2-13.2-13.2-13.2H391V63h48.8Z" transform="translate(0 0)"/>
  <path id="Shape-3" class="cls-1" d="M439.8,280.7H32.4c-12,0-13.2,1.2-13.2,13.2v37.6c0,12,1.2,13.2,13.2,13.2H439.8c12,0,13.2-1.2,13.2-13.2V293.9c0-12-1.2-13.2-13.2-13.2h0Zm3.9,20.8-9.6,33.2c-0.6,2.2-.9,2.4-3.1,2.4h-7.2c-2.2,0-2.5-.2-3.1-2.4l-7.6-26.4h-7.7v26.4c0,2.2-.2,2.4-2.4,2.4h-6.3c-2.2,0-2.4-.2-2.4-2.4V308.3h-6c-2.2,0-2.4-.2-2.4-2.4v-4.4c0-2.2.2-2.4,2.4-2.4h6v-8.3c0-2.2.2-2.4,2.4-2.4H403c2.2,0,2.4.2,2.4,2.4v8.3h14c2.2,0,2.5.2,3,2.4l5,21,5-21c0.5-2.2.8-2.4,3-2.4h6.5c2.3,0,2.4.2,1.8,2.4h0Z" transform="translate(0 0)"/>
  <path id="Shape-4" class="cls-1" d="M495.7,13.7a13.4,13.4,0,1,1,0-.4q0,0.2,0,.4h0ZM482.2,2.1a11.4,11.4,0,0,0-11.1,11.4,11.21,11.21,0,0,0,22.4.84q0-.47,0-0.94A11.35,11.35,0,0,0,482.2,2.1h0Zm5.3,17.6a1.33,1.33,0,0,1,.3.7,0.82,0.82,0,0,1-.84.8H485.7a0.94,0.94,0,0,1-1-.5l-4.2-5.6v5.1a0.93,0.93,0,0,1-1.1,1.1h-0.8a0.93,0.93,0,0,1-1.1-1.1V6.9a0.93,0.93,0,0,1,1.1-1.1h2a7.81,7.81,0,0,1,4.4.9,4.49,4.49,0,0,1-1.1,8h-0.2l3.8,5h0Zm-6.5-7c2.1,0,3.2-.8,3.2-2.2s-1-2-3.1-2h-0.6v4.2H481Z" transform="translate(0 0)"/>
</svg>
