<svg id="westminster" xmlns="http://www.w3.org/2000/svg" viewBox="0 0 1868.2 859.4">
  <defs>
    <style>
      .cls-1 {
        fill: #666;
      }
    </style>
  </defs>
  <title>westminster</title>
  <path class="cls-1" d="M934.1,859.4c-125.7,0-247.6-11.2-362.4-33.4-111-21.4-210.7-52.1-296.4-91.2-86-39.2-153.5-85-200.8-136.1C25,545.3,0,488.5,0,429.7s25.1-115.6,74.5-169c47.3-51,114.9-96.8,200.8-136.1C361,85.5,460.7,54.8,571.7,33.4,686.5,11.2,808.4,0,934.1,0s247.6,11.2,362.4,33.4c111,21.4,210.7,52.1,296.4,91.2,86,39.2,153.5,85,200.8,136.1,49.5,53.4,74.5,110.2,74.5,169s-25.1,115.6-74.5,169c-47.3,51-114.9,96.8-200.8,136.1-85.7,39.1-185.4,69.8-296.4,91.2C1181.7,848.2,1059.8,859.4,934.1,859.4Zm0-847.4C809.2,12,688,23.2,573.9,45.2,463.8,66.5,365,96.9,280.2,135.6c-84.5,38.6-150.8,83.4-197,133.3-47.3,51-71.3,105.2-71.3,160.8s24,109.8,71.3,160.8c46.2,49.9,112.5,94.7,197,133.3,84.8,38.7,183.6,69.1,293.7,90.4,114.1,22,235.2,33.2,360.2,33.2s246.1-11.2,360.2-33.2c110.1-21.2,208.9-51.7,293.7-90.4,84.5-38.6,150.8-83.4,197-133.3,47.3-51.1,71.3-105.2,71.3-160.8s-24-109.8-71.3-160.8c-46.2-49.9-112.5-94.7-197-133.3-84.8-38.7-183.6-69.1-293.7-90.4C1180.2,23.2,1059,12,934.1,12h0Z" transform="translate(0 0)"/>
  <path class="cls-1" d="M1046.4,392.4c-0.1.2-.1,0.3-0.2,0.5l0.4,0.2Z" transform="translate(0 0)"/>
  <path class="cls-1" d="M1523.6,660.9c-13.2-.5-50.7-2.7-47.7-2.8,7.1-.2-34.9-3.4-50-1,0.5-.6,1-1.3,1.5-1.9a68.7,68.7,0,0,0,4.5-6.5c0.7-1.1,1.4-2.1,2.2-3.2a8,8,0,0,0,1.1-2.1,3.93,3.93,0,0,0,.1-1.5,4.3,4.3,0,0,0-.2-1.2c-0.4-1.4-.9-2.6-1.3-3.8s-0.8-2.5-1.3-3.8c-1.8-5.1-4.5-9.8-6.9-14.4h0c-0.1-.3-0.2-0.5-0.3-0.8-0.8-2.2-2.1-5.3-3.5-8.7-0.1-.4-0.2-0.7-0.3-1.1-0.3-1.3-.8-2.6-1.2-3.9-1.8-5.1-4.3-9.8-6.1-14.6a31.51,31.51,0,0,1-2-7.1,46.73,46.73,0,0,0-2.2-8c-1.8-5-3.9-9.9-6-14.7-1.1-2.4-2.1-4.8-3.1-7.2-0.5-1.2-1-2.4-1.4-3.6s-0.7-2.5-1.1-3.7c-1.5-5-3-10-4.4-15.1l-2.3-7.6-0.6-1.8c0.5-.1.7-0.2,0.6-0.2v-0.1l-0.2-1-0.1-.5v-0.1c-0.3.1-.6,0.1-0.8,0.2l-0.1-.3v-0.1h-0.1c0.3-.1.8-0.3,0-0.1a53.31,53.31,0,0,0-3-7.5,15.63,15.63,0,0,0-2.5-3.6,3.6,3.6,0,0,0-1.2-.8,5.34,5.34,0,0,0-1.3-.3c-0.6-.1-1.3-0.3-1.9-0.4a112,112,0,0,1-15-4.4,57.83,57.83,0,0,1-7.2-3.1c-2.3-1.3-4.6-2.5-6.9-3.8-4.5-2.7-9.3-4.8-14-7.1s-9.5-4.7-14-7.1a81.25,81.25,0,0,1-12.9-8.3,44.61,44.61,0,0,1-10.1-11.1c-1.4-2.1-2.8-4.4-4.4-6.6a51.11,51.11,0,0,0-5.2-6.3,93.93,93.93,0,0,1-9.8-11.9,289,289,0,0,1-16.4-26.7l-3.8-6.9a39.88,39.88,0,0,1-2.6-7.1,129.05,129.05,0,0,1-2.9-15.3c-0.7-5.2-1.2-10.4-1.7-15.6s-0.8-10.5-1.5-15.8a59.16,59.16,0,0,0-2.1-7.8c-0.8-2.5-1.7-5-2.6-7.5-1.8-4.9-3.8-9.8-5.8-14.7s-4.2-9.7-6.4-14.5c-1.8-3.8-3.7-7.7-5.8-11.5-0.3-1.9-.6-3.7-0.8-5.5a58.49,58.49,0,0,1-.4-5.9,21.72,21.72,0,0,1,.7-5.7,41.16,41.16,0,0,0,1.2-5.9,5.38,5.38,0,0,1,.9-2.5,7,7,0,0,1,2-1.8,19.58,19.58,0,0,1,5.4-2.1c1.9-.5,3.9-0.9,5.8-1.2,7.9-1.3,15.8-2.4,23.7-3.4,15.8-2,31.7-3.6,47.6-4.5,3.9-.2,7.9-0.3,11.9-0.4l12-.4c8-.3,15.9-0.7,23.9-1.1s15.9-.9,23.9-1.4,15.9-.9,23.9-1.8,15.8-2.5,23.6-4,15.7-3.1,23.5-4.7l11.7-2.4c3.9-.9,7.8-1.6,11.7-2.4a208.7,208.7,0,0,0,23.1-6.5l11.3-4,1.4-.5a4.11,4.11,0,0,0,1.7-1.1,2.28,2.28,0,0,0,.6-1.2,2.75,2.75,0,0,0-.2-1.3,3.39,3.39,0,0,0-1.2-1.6,14.09,14.09,0,0,0-5.9-2.6,36.34,36.34,0,0,0-12.3-.4c-2,.3-3.9.8-5.9,1.1l-5.9,1.1c-7.9,1.5-15.7,2.9-23.6,4.2s-15.7,2.6-23.6,3.6c-15.8,1.8-31.7,3.2-47.6,4.3-7.9.5-15.9,0.9-23.8,1l-23.9.2c-15.9.1-31.9,0.3-47.9,1-4,.2-8,0.4-12,0.7s-7.8.4-11.8,0.4c-7.9,0-15.8-.2-23.8-0.5-4-.1-8-0.3-12-0.3a100.78,100.78,0,0,0-12.2.4c-7.8.9-15.4,1.9-23.2,3-8.8-3.6-17.5-7.1-26.4-10.6-4.6-1.7-9.1-3.5-13.7-5.2s-9.1-3.4-14-4.8a131.53,131.53,0,0,0-14.7-2.9c-4.8-.7-9.7-1.3-14.6-1.8q-14.7-1.5-29.4-1.8a242.38,242.38,0,0,0-29.5,1c-9.8,1-19.4,2.3-29.1,3.6-19.3,2.7-38.6,5.6-57.8,8.5-9.7,1.5-19.3,2.9-28.9,4.2-4.9.7-9.6,1.3-14.4,1.7l-14.5,1.2a511.44,511.44,0,0,1-58,1.7,209.75,209.75,0,0,1-28.6-2.7c-9.6-1.7-19.3-3.3-29-4.6-4.9-.6-9.8-1.1-14.6-1.6-2.4-.3-4.7-0.5-6.9-1-0.5-.1-1.1-0.3-1.6-0.4a6.58,6.58,0,0,1-1.5-.4,24.48,24.48,0,0,1-3.1-1.2c-4.3-1.9-8.6-4.2-13.3-6.2a43.14,43.14,0,0,0-15.4-3.9,55.27,55.27,0,0,0-15.5,2.3c-4.8,1.2-9.4,2.7-14,3.9-2.2.6-4.5,1.1-6.8,1.5s-4.5.6-7,.9c-4.8.5-9.6,1-14.3,1.2a110.41,110.41,0,0,1-28.1-2.2l-7.1-1.5-7.2-1.5-14.4-2.7q-14.4-2.7-28.8-5.1c-4.9-.8-9.7-1.6-14.5-2.4-2.5-.4-4.9-0.7-7.2-1.1s-4.7-.9-7.1-1.3c-4.8-.8-9.6-1.7-14.4-2.5l-14.4-2.5c-4.7-.8-9.5-1.7-14.2-2.7-2.4-.5-4.7-1-7-1.6a57.15,57.15,0,0,1-6.6-1.9,7.65,7.65,0,0,1-4.2-2.8,27.61,27.61,0,0,1-1.6-2.7,13.8,13.8,0,0,0-2.9-3.9,9.31,9.31,0,0,0-5.5-2.2h-3.9c-2.3,0-4.7-.2-7.1-0.4-4.8-.3-9.7-0.8-14.7-1-2.5-.1-5-0.2-7.6-0.1l-7.3.2c-4.9.1-9.8,0.3-14.7,0.7-2.5.1-5,.4-7.5,0.7-0.6.1-1.2,0.2-1.9,0.3a20.92,20.92,0,0,0-2.1.5,8.4,8.4,0,0,1-1.2.4,10.37,10.37,0,0,0-1,.4c-0.6.3-1.2,0.5-1.8,0.8a147.92,147.92,0,0,0-13.1,7.2c-4.2,2.5-8.4,5.1-12.5,7.7l-6.2,3.9-1.6,1a5.22,5.22,0,0,0-1.1.8,6.47,6.47,0,0,0-.9.8,19.76,19.76,0,0,0-2.6,3.5c-1.4,2.3-2.4,4.6-3.5,6.8a32.53,32.53,0,0,1-3.2,5.9,7.47,7.47,0,0,1-1.7,1.8,11,11,0,0,1-2.4.8c-2.1.4-4.5,0.7-6.8,0.9-4.7.4-9.5,0.6-14.5,0.9l-3.8.3c-0.6.1-1.2,0.2-1.9,0.3l-1.8.3a35.17,35.17,0,0,1-6.5,0c-4.7-.3-10-1-15.3-0.1-0.7.1-1.3,0.3-2,.4a3.55,3.55,0,0,0-1,.2l-0.9.2a9.29,9.29,0,0,1-2.9.5,15.14,15.14,0,0,1-3-.2c-1.1-.2-2.1-0.4-3.5-0.7a8.75,8.75,0,0,0-2.4-.3,5.2,5.2,0,0,0-3.1.7,6.53,6.53,0,0,0-2.3,2,8,8,0,0,0-1.3,2.1,30.12,30.12,0,0,0-1.4,23.5,73.27,73.27,0,0,0,2.9,7c1,2.3,2.1,4.5,3.2,6.7,2.2,4.4,4.6,8.7,6.9,13,0.6,1.1,1.1,2.1,1.8,3.3a35.3,35.3,0,0,0,2.1,3.2,17.55,17.55,0,0,0,2.4,3,22.54,22.54,0,0,0,3,2.4c1,0.7,2,1.5,3,2.3s2,1.6,3,2.3a37.71,37.71,0,0,0,6.4,3.9,37.12,37.12,0,0,0,7.1,2.4,61.68,61.68,0,0,0,7.3,1.2,29,29,0,0,1,3.4.7,3,3,0,0,1,1,.4l0.5,0.4c1.7,1.5,3.3,3.1,5,4.6l0.7,0.5a1.38,1.38,0,0,0,.4.3l0.4,0.3c0.6,0.3,1.1.6,1.6,0.9a24.08,24.08,0,0,0,3.3,1.5,0.35,0.35,0,0,1,.2.1,14.46,14.46,0,0,0,2.2.9,27.44,27.44,0,0,0,3.9.9,14.82,14.82,0,0,0,4.2-.2,13.18,13.18,0,0,0,3.8-1.6,16.61,16.61,0,0,1,3.1-1.4,12,12,0,0,1,3.2-.6h3.6c5-.2,9.7-1.1,14.3-0.9a40.77,40.77,0,0,1,6.9.9c1.1,0.2,2.2.5,3.4,0.8l3.6,0.9c2.4,0.5,4.9.9,7.4,1.2s5.1,0.3,7.5.4,4.9,0.1,7.3.2c1.2,0.1,2.4.1,3.6,0.2s2.4,0.2,3.7.2a73.12,73.12,0,0,0,14.9-1.3c4.8-.7,9.4-1.2,13.6,0,1,0.3,2.2.7,3.4,1.1a35.81,35.81,0,0,0,3.5,1.1c2.4,0.7,4.7,1.4,7.1,2,4.7,1.3,9.4,2.5,14,3.9,2.3,0.7,4.6,1.4,6.8,2.2s4.3,1.9,6.4,2.9c8.6,4.3,17.1,9.1,25.6,13.8s16.9,9.6,25.6,14.2A269.75,269.75,0,0,1,600,369.6a121,121,0,0,1,11.3,8.7,56.63,56.63,0,0,1,4.9,4.9,25.89,25.89,0,0,1,3.7,5.6c0.5,0.9.9,1.8,1.3,2.7,0.4,1.6.8,2.9,1.1,3.9a6,6,0,0,0,.9,1.5c0.6,1.7,1.1,3.4,1.6,5.1,1.3,4.6,2.5,9.3,4,14.1a44,44,0,0,0,3,7.2,41.52,41.52,0,0,0,4.4,6.3c3.2,3.9,6.5,7.5,10,11a166.16,166.16,0,0,0,22.6,19.2,67.29,67.29,0,0,0,6.3,4c2.2,1.2,4.4,2.4,6.5,3.5,0.8,0.5,1.6.9,2.3,1.3,2.3,4,1.9,9.5-1.2,20.6-4.9,17.5-11.2,42.6-15,54.1s-9.2,28-10.4,32.8a1.61,1.61,0,0,0,.1,1.4c-0.1.2-.1,0.5-0.2,0.7-0.1.6-.3,1.2-0.4,1.7l-0.5,1.7c-0.6,2.3-1.4,4.5-2.2,6.8-1.7,4.6-3.5,9.1-5.1,13.8a54.58,54.58,0,0,0-2.1,7.2c-0.5,2.4-.9,4.9-1.3,7.3a24.74,24.74,0,0,1-1.7,6.5,27.69,27.69,0,0,1-3.7,5.7c-3,3.9-5.8,7.9-8.6,11.9s-5.6,8-8.5,11.8l-2.2,2.8a28.51,28.51,0,0,1-2.2,2.4,11.07,11.07,0,0,1-5.8,1.8c-2.3.2-4.7,0.1-7.2,0.2a28.68,28.68,0,0,0-3.9.4,8.3,8.3,0,0,0-2.1.6,9.45,9.45,0,0,0-2,1.1,58.06,58.06,0,0,0-5.8,5c-1.8,1.8-3.5,3.6-5.2,5.4a65.73,65.73,0,0,0-4.8,5.7,57.47,57.47,0,0,0-4.2,6.3c-0.3.6-.6,1.2-0.9,1.9a4.88,4.88,0,0,0-.4,1.1c0,0.2-.1.4-0.1,0.6a3.08,3.08,0,0,0-.1,1,1.45,1.45,0,0,0,.2.7,13.21,13.21,0,0,0-.6,5.7c0.4,2.5,1.6-.5,3-2.9,0.3,0.2.7,0.3,1,.5a34.64,34.64,0,0,0,7.4,2.2h0.1a4.86,4.86,0,0,0-.5,2.9c0.4,1.6,2-.9,3.7-2.3,3.8,0.6,7.6,1,11.4,1.3,2.3,0.2,4.6.3,6.9,0.4,21.2,2.2,53.9,3.5,79.5-2.4,37.2-8.6,78.5-17.2-2.4-13.1-9.5.5-36.8,0.9-44.5,1a23.85,23.85,0,0,1,1.9-5.7,25.25,25.25,0,0,1,3.7-5.7c3.1-3.7,6.1-7.5,9.2-11.3l9.1-11.5,4.5-5.7a27.89,27.89,0,0,1,4.8-4.9,27.55,27.55,0,0,1,2.9-1.7c0.5-.2,1.1-0.5,1.6-0.7l0.9-.4,0.4-.2,0.5-.3a13.65,13.65,0,0,0,5.2-6.3,59.27,59.27,0,0,0,2.4-7.1l1.9-7c1.3-4.7,2.8-9.2,4.5-13.8,1.6-4.3,3.2-8.6,5-12.9l11.5,8.2,12.8,9.1,9.9,20.8,0.2,0.3,0.4,0.2L757,640.9l0.6,0.4,0.7-.1a82.75,82.75,0,0,0,8.4-1.6c1.4-.4,2.8-0.8,4.2-1.3a12.62,12.62,0,0,0,3.7-1.8c0.2,0,.4-0.1.6-0.1,11.1-4.1,6.5-3.5,2-5.1a4.57,4.57,0,0,0-.5-1.4,15.69,15.69,0,0,0-2.8-4,46.38,46.38,0,0,0-5.6-5.3l-0.8-5-0.5-3-0.5-2.9L764.4,598l-0.1-.6-0.4-.5L755.1,586l0.1,0.2-5.1-7.3-0.4-.5-0.6-.3-11.8-6.6-10.9-5.9-2.9-8,17.3-15c8.9-4.3,17.7-8.6,26.5-12.9l0.2-.1,0.2-.1c10.9-7.4,21.9-14.6,32.7-22l0.1-.1,0.1-.1,21.6-18,0.2-.1,0.1-.1,10.4-11.7,0.7-.5c1.1,0,2.2-.1,3.3-0.1a36.69,36.69,0,0,0,6.6.5,72.25,72.25,0,0,0,14-1.4,154.06,154.06,0,0,0,26.6-8.1c8.5-3.4,17-7.2,25.2-11.4s16.2-9,23.9-13.4a72.17,72.17,0,0,1,11.7-5.4l3-.9,1.5-.4,1.7-.4,6.6-1.6,26.6-6.3c4.4-1.1,8.9-2.1,13.3-3.2s8.9-1.9,13.3-2.7c8.7-1.7,17.5-2.8,26.3-3.9a83.54,83.54,0,0,0-1.2,9.9,80.1,80.1,0,0,0,0,12,89.81,89.81,0,0,0,4.6,23.5,87.18,87.18,0,0,0,10.8,21.3,96.5,96.5,0,0,0,16.2,17.6c12.3,10.1,24.3,20.4,36,31.2,5.8,5.4,11.6,10.9,17.2,16.5s11.2,11.3,16.4,17.2l-0.1-.1,9.8,17.3a6,6,0,0,0,.6,1.1l0.7,1,1.4,2.1,2.7,4.2,5.3,8.2,0.5,18.1-24.2,55.6-11,12.1-8.1,1.8c-1.4.3-2.8,0.7-4.2,1.1a17.24,17.24,0,0,0-2.1.7,10,10,0,0,0-2.1,1,19.52,19.52,0,0,0-3.3,3.1c-0.9,1.1-1.8,2.3-2.6,3.5a69.33,69.33,0,0,0-4.3,7.5l-0.1.2v0.2c-0.1,2-.2,4.1-0.4,6.1l-0.3,3a7.73,7.73,0,0,1-.2,1.5c-0.1.2-.1,0.5-0.2,0.7v0.8c0,0.1.1,0.2,0.1,0.3a7.91,7.91,0,0,0,.7,4c0.7,1.3,1.4-.9,2.5-2.8h0.7a7.24,7.24,0,0,0-.5.9l5.8-.1a8.37,8.37,0,0,0,.8,3.1c0.7,1.5,1.3-.9,2.3-3.1,19.5,1.8,44.3-.7,64.4-3.9,23.2-3.6,83.9-6.2,77.6-12.2s-66-4.7-77-4.1c-10.6.6-6.4-1.7-9.6,2.8a6.88,6.88,0,0,0,.3-2.4,15.46,15.46,0,0,0-.4-3.1,22.6,22.6,0,0,1-.6-5.7,11.75,11.75,0,0,1,.3-2.7,17.14,17.14,0,0,1,1-2.6,51.22,51.22,0,0,1,2.7-5.2c1.9-3.5,4-6.8,6.1-10.2l12.7-20.2c4.2-6.7,8.2-13.6,12.3-20.4,2-3.3,4.1-6.7,6.3-10,1.1-1.6,2.2-3.2,3.4-4.8,0.6-.8,1.2-1.5,1.8-2.3l1.8-2.4a110.4,110.4,0,0,0,6.7-10.1,36.9,36.9,0,0,0,4.6-11.4,12.22,12.22,0,0,0,.2-3.3c-0.1-.6-0.2-1.1-0.3-1.7a6.87,6.87,0,0,0-.3-0.8l-0.2-.7a26.79,26.79,0,0,1-.7-2.7,19.84,19.84,0,0,0-.5-3.1,7.53,7.53,0,0,0-1.8-3,22.83,22.83,0,0,0-2.2-2.2c-1.6-1.3-3.1-2.5-4.6-3.8a175.62,175.62,0,0,1-16.6-16.8,167.42,167.42,0,0,1-25.8-39.4,198.22,198.22,0,0,1-9.3-21.8,112.74,112.74,0,0,1-3.4-11.3,56.69,56.69,0,0,1-1-5.7,16.81,16.81,0,0,1,.1-5.5,44.4,44.4,0,0,1,4.3-10.7c1.7-3.2,3.5-6.4,5.4-9.4,1.4,1.2,2.7,2.5,4.1,3.8,2.4,2.3,4.8,4.7,7.4,7a53.71,53.71,0,0,0,8.3,6.4c0.8,0.5,1.6.9,2.3,1.3a22.5,22.5,0,0,1,2.1,1.2c1.4,0.8,2.8,1.8,4.2,2.7,11.1,7.4,22.1,15.5,33.6,22.8a87.29,87.29,0,0,0,9,5.1c3.2,1.4,6.3,2.8,9.4,4.1,6.3,2.7,12.6,5.2,18.9,7.6,3.1,1.2,6.3,2.4,9.5,3.6,1.6,0.6,3.2,1.2,4.8,1.7a36.55,36.55,0,0,1,4.6,1.8c6.2,2.7,12.2,5.6,18.3,8.6s12.2,6,18.2,9l9.1,4.6,4.5,2.3,2.3,1.1,2.1,1.2a62.39,62.39,0,0,1,7.8,6,94.52,94.52,0,0,1,7.4,6.8c4.7,4.8,9.3,9.7,13.7,14.8,2.1,2.5,4.3,5.1,6.3,7.8,1,1.4,2,2.7,2.9,4.1s1.7,2.8,2.6,4.3c3.4,5.8,6.7,11.7,9.8,17.7,1.6,3,3.1,6,4.4,9.1,0.6,1.6,1.3,3.1,1.8,4.7a21.24,21.24,0,0,1,1.1,4.7c0.1,3.4-.2,6.7-0.4,10.1s-0.6,6.6-1,9.8l-12.6,10a8.43,8.43,0,0,0-2.1,3.8,18.45,18.45,0,0,0-.6,4.1,75,75,0,0,0,.4,8.2c0,0.7.1,1.3,0.1,2a1.86,1.86,0,0,0,.2.7,2.2,2.2,0,0,0,.6.5,0.38,0.38,0,0,1,.2.2,0.76,0.76,0,0,0,.1.4,0.87,0.87,0,0,0,.4.7,0.9,0.9,0,0,0,.5.1c0.1,0,.2-0.1.3-0.1,0.3-.1.3-0.1,0.5,0.1a5.9,5.9,0,0,1,.4.8l0.4,0.9a43.5,43.5,0,0,1,2.3,7.8l0.1,0.5,0.4-.3c0.1-.1.2-0.1,0.3-0.2l0.3,0.1-0.2.2c75.3,2.7,75.1-10.4,105.4-12.2C1506,671,1554,662.2,1523.6,660.9ZM1387.9,519.8c-0.5.1-.3,0,0,0h0ZM1192.7,408.2c0.7-.7,1.3-1.5,2-2.2l-5.4,6.9c1.2-1.6,2.3-3.2,3.5-4.8ZM1167.4,444c0.3,0.4.5,0.9,0.9,1.5-0.4-.3-0.8-0.7-1.2-1C1167.2,444.3,1167.3,444.2,1167.4,444ZM526.7,201.1c4.8,1.1,9.6,2,14.4,2.9,8,1.4,15.9,2.8,23.9,4.3-0.9,12.7-6,42.7-10.1,58.8-1.1,4.4-2.6,9.5-4.4,14.9-0.9-.6-1.9-1.2-2.8-1.9-10.6-7.3-16.9-10.1-19.6-11.8a19.77,19.77,0,0,0,1.2-3.1,33.27,33.27,0,0,0,1.2-5.6c0.2-2,.3-3.7.5-5.3a63.67,63.67,0,0,0,1.1-6.3v-0.1c0-.1.1-0.2,0.1-0.3a34.94,34.94,0,0,1,1.5-3.4c0.6-1.1,1.4-2.2,2.2-3.5a27.85,27.85,0,0,0,2.8-5,6.46,6.46,0,0,0,.6-2.1,12.8,12.8,0,0,0,.7-3.9,9.3,9.3,0,0,0-.5-2.4,31.93,31.93,0,0,0-1.2-4,35.19,35.19,0,0,0-2.2-4.9,21.55,21.55,0,0,0-3.5-4.6,18.66,18.66,0,0,0-4.5-3.2c-1.5-.8-3-1.5-4.4-2.1l-1.2-.5c-0.4-.2-0.8-0.3-1.3-0.5a13.28,13.28,0,0,0-3-.6h-0.5c0-.1.1-0.1,0.1-0.2,0.9-2.5,0-4.6-1.1-8.1,0.9,0.3,1.9.5,2.8,0.8C521.9,200,524.3,200.6,526.7,201.1Zm5.8,124.2c-2.2-1-4.5-2-6.8-2.9-0.1,0-.2-0.1-0.3-0.1-0.5-2.8-1.2-5.5-1.9-8.2a71.11,71.11,0,0,1,13.5,2.2h0c-1.6,3.3-3.1,6.4-4.5,9h0ZM440,250h-0.8c-2.8.2-8.1,0.1-16.6-.1h-0.5l0.1-.1,0.2-.3,0.6-.9-0.3-.9a6.67,6.67,0,0,0-.9-2.1c0.4,0,.7.1,1,0.1,0.5,0.1,1,.3,1.5.4,0.9,0.2,1.9.3,2.9,0.5,3.9,0.6,7.8,1.3,11.6,2.1,0.5,0.1.9,0.3,1.4,0.4a1.85,1.85,0,0,1,.7.2c0.1,0.1.2,0.1,0.3,0.2a0.22,0.22,0,0,1,.2.2,1.07,1.07,0,0,1-.6.2c-0.3,0-.6.1-0.8,0.1h0Zm-32.3-12.1c0.2-.4.5-0.8,0.7-1.2l1.2-2c0.1-.1.2-0.1,0.3-0.2a16.11,16.11,0,0,1,3.3,1.6,4.3,4.3,0,0,1,.9,1,13.59,13.59,0,0,1,2.1,3.7c0.4,1.3.8,2.6,1.1,4,0.2,0.8.3,1.5,0.5,2.2-0.4.2-.8,0.4-1.3,0.6s-1,.5-1.5.7l-0.2.1h-0.2c0,0.1-.1.1-0.2,0.1a1.27,1.27,0,0,1-.6.1,7,7,0,0,1-5.1-2.5,8.38,8.38,0,0,1-1.8-4.9l0.4-2A4.94,4.94,0,0,1,407.7,237.9Zm13.6-11.5a41.59,41.59,0,0,1,9.3,1.2l-1.6.3a13.25,13.25,0,0,0-4.9,2.1,9.43,9.43,0,0,0-1,1,8.74,8.74,0,0,1-.8,1,5.53,5.53,0,0,1-4.7,1.6c-1.1-.4-2.1-0.7-2.7-0.9l-0.9-.3-0.3-.3a8.58,8.58,0,0,0-2-1.3c0.3-.6.7-1.3,1-1.9l-0.1.2A14.26,14.26,0,0,1,421.3,226.4Zm-11.5,8.1a0.35,0.35,0,0,0-.2.1l0.1-.1h0.1Zm31.6,15.2c0.1-.2-0.1-0.2-0.2-0.3a0.53,0.53,0,0,0-.3-0.2c-0.2-.1-0.5-0.2-0.7-0.3-0.5-.1-0.9-0.3-1.4-0.4,2.5,0.6,3.5,1,2.4,1.3A0.2,0.2,0,0,0,441.4,249.7Zm79.4,37.2a4.33,4.33,0,0,1,.1-0.5c0.1-.8.2-1.6,0.3-2.3,5.4,3.5,14.6,7,24.9,10.3-0.5,1.4-1.1,2.9-1.6,4.3C533.4,293.5,523,288.5,520.8,286.9ZM314.3,230a2.6,2.6,0,0,0-.4,1c-0.3,1.6,2.9,1.2,1.1,3.3,0,0-2.1,1.3-3,.6-0.6-.5-0.2-2.1.4-3.6a3.26,3.26,0,0,1,1.1-1.2,1.72,1.72,0,0,1,.8-0.1h0Zm74.1,80.4c-2.3.8-4.2,2.6-6.6,3.1a9.78,9.78,0,0,1-4.5.1h0.3l0.5-.1a4.64,4.64,0,0,0,1.9-.4,2.38,2.38,0,0,0,1.1-.6,5.74,5.74,0,0,0,.8-0.9,5.31,5.31,0,0,1,.9-1.1,2.65,2.65,0,0,0,.6-0.5c0.2-.2.4-0.5,0.6-0.7a5.58,5.58,0,0,0,.5-0.8,2.32,2.32,0,0,0,.4-1l0.2-.3-0.4-.3c-0.9-.5-1.7-1-2.6-1.5a6.21,6.21,0,0,0-3.2-.7c-1,0-1.9.1-2.8,0.1h-1.3c-0.3-.1-0.9-0.2-1.4-0.3a41.23,41.23,0,0,0-6-.4h-5.7c-0.2-.1-0.4-0.3-0.6-0.4a8.65,8.65,0,0,0-1.7-.7,23.25,23.25,0,0,0-3.6-.8,54.06,54.06,0,0,1-7.2-1.2,32.73,32.73,0,0,1-12.9-6c-1-.8-1.8-1.6-2.7-2.4a20.41,20.41,0,0,1-2.3-2.7c-0.7-1-1.3-2-2-3s-1.4-1.9-2.1-2.9-1.3-2-1.9-3-1.1-2.1-1.7-3.2c-0.7-1.3-1.3-2.6-2-3.8,1.6,1.3,4.5,3.7,7,5.7a13.14,13.14,0,0,1-3.3-7.5,9,9,0,0,0,.2-4.6c-0.8-3,.2-3.7-0.2-9.4s-4.3,2.1-9.6-4.5-3.5-10.1-1.3-12.5a1.56,1.56,0,0,1,2.7.3c1.1,2,2.4,2.3,2.2,5.7s1.1,3,4.5,4.9c7.9,4.5,4.7-1.8,9.3-7a16.76,16.76,0,0,1,2.9-2.9,3.76,3.76,0,0,1,.4-1.3c1-2.7-1.1-6.6-3.1-11.1,1.6-.1,3.2-0.1,4.8-0.1,0.3,1,.5,1.9.8,2.9l0.8,3c0.3,1,.7,2,1,2.9,0.1,0.5.3,0.9,0.4,1.4,0,0.2.1,0.5,0.1,0.7v0.8a5.3,5.3,0,0,1-.7,2.8,11,11,0,0,1-2.1,2.3,5.07,5.07,0,0,0-1.5,3,5.25,5.25,0,0,1,1.9-2.5,15.63,15.63,0,0,0,2.7-2,7.46,7.46,0,0,0,1.7-3.3l0.2-.9c0-.3.1-0.6,0.1-0.9a10.86,10.86,0,0,0,.1-1.8,13.55,13.55,0,0,0-2.1-6.6,8.64,8.64,0,0,0-1-1.6c1.4,0.1,2.9.2,4.4,0.4l4.9,11.2a2.27,2.27,0,0,0-.1.4,0.47,0.47,0,0,0,.9.3,31.49,31.49,0,0,0,.9-4.2,11,11,0,0,0-.2-4.4,5.64,5.64,0,0,0-1.1-2,9.43,9.43,0,0,0-1-1,30.24,30.24,0,0,0,4.2-.2l1.8-.3c0.5-.1,1.1-0.1,1.7-0.2l3.3-.3c4.1,0.4,8.2.6,12.5,0.7,1.9,0,3.7-.1,5.6-0.2l2.8-.3c0.9-.1,1.8-0.3,2.7-0.4,3.6-.4,7.3.1,11.1,0.1a15.75,15.75,0,0,0,5.7-.8,10.06,10.06,0,0,0,4.7-3.4c2.1-3.1,4.1-6.2,6.3-9.2a72.44,72.44,0,0,1,7.2-8.4c1.3-1.3,2.6-2.6,4-3.8a48.55,48.55,0,0,0,4.1-3.8,58.25,58.25,0,0,0,6.8-8.9,29.71,29.71,0,0,1,3.3-4.4,9,9,0,0,1,1-.9c0.4-.1.7-0.1,1-0.2,2.3-.3,4.7-0.5,7.1-0.7,4.8-.3,9.6-0.5,14.5-0.6l7.3-.2c2.3-.1,4.7,0,7.1.1s5,0.3,7.6.5c3.3,1.5,7.4,3.4,9.2,5.1,7.6,6.6-4.6,4.2-4.6,4.2-9.6-3.8-19.6.5-19.6,0.5s7.6,6.5,12.1,9.8a0.1,0.1,0,0,1,.1.1v0.3c0.2,0,.5.1,0.7,0.1,4,2,10.5-.5,15.9-1a9,9,0,0,1,1.6.3,21.33,21.33,0,0,1,8,3.9c1.2,1,2.3,2,3.6,2.9a5.61,5.61,0,0,0,2.3,1.2,4.49,4.49,0,0,0,2.6-.4c0.8-.3,1.4-0.6,2.1-0.8a4.42,4.42,0,0,1,2-.2,12.18,12.18,0,0,1,4,1.5,31.79,31.79,0,0,1,7.3,5.1,18,18,0,0,1,3.9,7.8,17.06,17.06,0,0,1,.8,4.3,8.15,8.15,0,0,1-.8,4.1,21.24,21.24,0,0,1-2.4,3.7c-0.9,1.2-1.9,2.5-2.7,3.8a27.81,27.81,0,0,0-2.2,4.2,24.74,24.74,0,0,0-1.5,4.6,76,76,0,0,0-1.4,9.2,19.11,19.11,0,0,1-2.8,8.1,10.92,10.92,0,0,1-1.3,1.7l-1.6,1.7-3,3.6a75.5,75.5,0,0,0-5.2,7.8q-2.4,3.9-5.1,7.5c-1.8,2.4-3.7,4.8-5.7,7a35,35,0,0,1-6.6,5.6,18.83,18.83,0,0,1-3.8,1.8,7.62,7.62,0,0,1-2,.6c-0.3.1-.6,0.1-1,0.2H484c-2.3.1-4.5-1.5-6.3-3.6a34,34,0,0,1-4.5-7.4c-0.6-1.3-1.2-2.7-1.8-4.1l-0.9-2.1a20.54,20.54,0,0,1-.8-2,12.53,12.53,0,0,1-.5-4c0-1.4.1-2.9,0.2-4.4,0.4-6,1.6-12,2.4-18.1s1.9-12.2,2.4-18.4a50.35,50.35,0,0,0-.1-9.5c-0.1-.4-0.1-0.8-0.2-1.2s-0.2-.9-0.3-1.3a6.77,6.77,0,0,0-1.2-2.4,14.81,14.81,0,0,0-3.8-3.3,58.84,58.84,0,0,0-8.5-3.9c-1.4-.6-2.8-1.1-4.1-1.8a12.11,12.11,0,0,1-3.5-2.4c-0.4-.4-0.8-1-1.2-1.5a1.42,1.42,0,0,1-.2-0.6c-0.3-1.1-.2-2.3-0.4-3.3a18.21,18.21,0,0,1-.1-3.3,24.36,24.36,0,0,1,1.4-6.5l0.1-.1,0.2-.2,0.4-.4,0.9-.9,0.9-.9,0.4-.5,0.2-.2,0.1-.1,0.1-.1v-0.1l0.1-.1,0.3-.7h-0.8a27.19,27.19,0,0,0-9,1.2c-0.2.1-.4,0.1-0.6,0.2s-0.2,0-.2.1c-11.5,3.5-24.7,12.9-33.2,21.7-11.2,11.4-11.8,13.8-18.8,17a9.92,9.92,0,0,0-2.3,1.3,7,7,0,0,0-2.5,2.1,3.45,3.45,0,0,0-.5,1.8,5.84,5.84,0,0,0,.4,1.8,21.38,21.38,0,0,0,1.7,3c0.7,0.9,1.2,1.8,2,2.7a50.51,50.51,0,0,0,4.5,4.7,19.14,19.14,0,0,1,3.8,4.8,16.85,16.85,0,0,1,1.1,2.7c0.3,1,.6,2.1.9,3.1a47.26,47.26,0,0,0,2.5,6.2c0.5,1,1,2,1.5,2.9a5.72,5.72,0,0,0,.4.7,3.11,3.11,0,0,0,.7.9,5.82,5.82,0,0,0,1.8,1.1,11.45,11.45,0,0,0,3.5.7c1.1,0.1,2.2.1,3.3,0.1,4.4,0,8.7-.4,12.8.2,1.1,0.2,2.2.3,3.3,0.4l1.6,0.1h0.1a0.53,0.53,0,0,0,.2.3c0.1,0.1.2,0.3,0.3,0.4a23.48,23.48,0,0,1-2.7.1c-2.2,0-4.4,0-6.6.2a18.82,18.82,0,0,0-3.3.5,7.56,7.56,0,0,0-3.3,1.5,13.09,13.09,0,0,0-1.2,1.3l-0.5.6a4.35,4.35,0,0,0-.6.7,12.69,12.69,0,0,0-1,1.2l-1,1.2c-1.3,1.7-2.8,3.3-4,5.2a16.92,16.92,0,0,0-1.7,2.9,25.52,25.52,0,0,1-1.3,2.9,22.69,22.69,0,0,1-4,4.8c-3,3-6.3,5.9-9.6,8.6l-0.7.6h-0.6A8.73,8.73,0,0,0,388.4,310.4Zm223.7,57.5h0Zm23.6,53.2a44.44,44.44,0,0,1-2.7-6.2,103.77,103.77,0,0,1-3.5-14.1,0.37,0.37,0,0,0-.1-0.3c1.7,0.7,3.5,1.4,5.2,2.1a32.9,32.9,0,0,0,2.3,8.4l0.6,1.2a3.69,3.69,0,0,0,.5,1.1c0.4,0.7.8,1.4,1.2,2a42.15,42.15,0,0,0,2.4,3.6c1.7,2.3,3.4,4.4,5.2,6.4,0.7,0.7,1.3,1.4,2,2.1-2.3.2-5.2,0.5-8.2,0.5-0.3-.4-0.7-0.8-1-1.2a63.09,63.09,0,0,1-3.9-5.6h0Zm34,33.8,0.2,0.2c-0.1-.1-0.2-0.1-0.3-0.2h0.1ZM580.9,686.5a42.05,42.05,0,0,1,3.9-5.8c1.4-1.8,3-3.6,4.6-5.4s3.3-3.5,5-5.1a43.64,43.64,0,0,1,5.3-4.5,5.23,5.23,0,0,1,1.2-.7,5.73,5.73,0,0,1,1.4-.4,16.86,16.86,0,0,1,3.3-.3c2.3,0,4.8,0,7.4-.2a19.79,19.79,0,0,0,4-.7,10.76,10.76,0,0,0,4-2,18.83,18.83,0,0,0,2.8-3,32.55,32.55,0,0,0,2.3-2.9c3-3.9,5.8-7.9,8.6-11.9s5.6-7.9,8.5-11.7a30.57,30.57,0,0,0,4.3-6.5,24.3,24.3,0,0,0,1.3-3.8c0.3-1.3.5-2.6,0.7-3.8,0.4-2.5.8-4.8,1.3-7.1a58.22,58.22,0,0,1,2-6.8c1.6-4.5,3.4-9,5.1-13.6,0.9-2.3,1.7-4.7,2.4-7.1l0.5-1.8c0.1-.6.3-1.2,0.4-1.8,0.1-.4.2-0.7,0.3-1.1,2.7,0.5,5.7,1.9,6.2,8.5,1,12.8,7.8,14.6,3.4,26.2s-9.8,12.4-14.2,24S645.3,639,645.2,653s-3.8,18.3-5,20.6c-0.3.5,0.5-.1,1.9-1.6a26,26,0,0,0-2.3,4,42.77,42.77,0,0,0-2.3,7.2c-0.1.5-.3,1-0.4,1.5a99.06,99.06,0,0,1-11,7.4,3.19,3.19,0,0,0-.3-1.4A7.07,7.07,0,0,0,624,688a1.79,1.79,0,0,0-.6-0.5,0.53,0.53,0,0,1-.4,0,4.06,4.06,0,0,1-.3-1l-0.1-1.7v-0.1a0.69,0.69,0,0,0-.8-0.5,5.83,5.83,0,0,0-1.8.8,4.36,4.36,0,0,0-1.4,1.8,4.12,4.12,0,0,0-.1,2.9,9.22,9.22,0,0,0,1,2,7.42,7.42,0,0,0,1.6,1.8c-1.5.2-3.1,0.2-4.7,0.3h-6.7L610,692l0.5-3c0.1-1,.4-1.8.5-2.7a26.25,26.25,0,0,1,.6-3V683a0.58,0.58,0,0,0-.56-0.6h0a4.56,4.56,0,0,0-3.5,2.3,8.75,8.75,0,0,0-1.1,3.8,11.37,11.37,0,0,0,.3,3.7,8.81,8.81,0,0,0,.5,1.5l-5.2-.3a106.27,106.27,0,0,1-11.5-1.4,56.29,56.29,0,0,0,3.6-4.8c1.1-1.6,2.2-3.2,3.4-4.7a34.84,34.84,0,0,0,2.9-3.2,7.71,7.71,0,0,1,1.9-1.4,9.52,9.52,0,0,1,3.7-1,17.78,17.78,0,0,0,4.8-1.2,12,12,0,0,0,4.1-2.8,0.44,0.44,0,0,0,.1-0.5,0.61,0.61,0,0,0-.7-0.3,32,32,0,0,1-4.2,1,30.14,30.14,0,0,1-4.3.1,12.69,12.69,0,0,0-5.2.9,14,14,0,0,0-2.4,1.5c-0.7.6-1.3,1.2-1.9,1.8a25.42,25.42,0,0,0-3.5,4.6,37,37,0,0,0-7.6,8.8,30.06,30.06,0,0,1-3.2-1.1c-0.3-.3-1.1-0.9-1.9-1.5,0-.1.1-0.3,0.1-0.4C580.4,687.5,580.6,687,580.9,686.5Zm101.8-59.2a9.86,9.86,0,0,1-3.8,4.8c-0.2.1-.5,0.3-0.7,0.4a38.32,38.32,0,0,0,4.1-6.1,43.6,43.6,0,0,0,2.7-5.9v0.2a64,64,0,0,1-2.3,6.6h0Zm9-27.6c-0.8,2.3-1.6,4.5-2.4,6.8a83.31,83.31,0,0,1,3.4-11.8c1.9-4.7,2.8-7.2,3.4-8.4l0.6,0.8c-1.7,4.1-3.4,8.3-5,12.6h0ZM837.3,474.2l9.2-6.2c-1.8,2.6-4.5,4.7-9.2,6.2h0Zm314,236.2a45.63,45.63,0,0,0,5.5-2.4c-4.2,2.3-9.9,4.2-15.8,6.1Zm2.3-254.8a53.85,53.85,0,0,0-4.9,12,21.1,21.1,0,0,0-.4,3.3c-2.7,6.2-5.3,12.1-7.4,16.2-3.7,7.2-.5,18.9-0.5,18.9s2.6-15.1,7.8-24.3a22.47,22.47,0,0,0,.9-2.6,19,19,0,0,0,.5,2.3,116.58,116.58,0,0,0,3.5,11.9,200,200,0,0,0,9.4,22.4c1.8,3.7,3.6,7.3,5.6,10.8s4.1,7.1,6.3,10.5a186.07,186.07,0,0,0,14.8,19.3,175.51,175.51,0,0,0,17.2,17.3c0.8,0.7,1.6,1.4,2.4,2s1.5,1.2,2.2,1.8,1.3,1.2,1.8,1.7a2.66,2.66,0,0,1,.5.6,0.53,0.53,0,0,1,.2.3c0.1,0.2.2,1.3,0.4,2.5a18.89,18.89,0,0,0,.9,3.4l0.3,0.8,0.1,0.2v0.2c0,0.3.1,0.5,0.1,0.8a6.88,6.88,0,0,1-.1,2,24,24,0,0,1-1.5,4.8c-0.7,1.6-1.5,3.3-2.4,4.9-0.1.3-.3,0.5-0.4,0.8-3.1.5-6.3,0.7-8.5,4.9-3.2,2.6-6.1,9.1-5.1,15.3-1.9,2.9-3.7,5.9-5.4,8.8l-2.5,4.4c-5.7,6.4-13.1,14.7-15.2,20-3.1,8.2-10.3,17.8-14.2,26s-3.8,10.9-4.9,17.7a33.79,33.79,0,0,1-3.5,10.6c-0.8.3-1.5,0.7-2.3,1-2.2.9-4.5,1.7-6.7,2.6l-0.5-5.4-0.7,5.9-7.5,3,1.1-7.6-3.7,8.5-9.2,1,1.1-7.2-4.7,7.6h0.1l-6.6.7-2,.1,3.1-12.6s10.6-6.6,14.6-8.5c0,0-13.2,4.8-15.7,6.3s-7.4,10.3-8.9,13.6c-0.9,2-2.3.8-3.6,2.2h-0.8a4.26,4.26,0,0,1,1.1-1.2c1.5-1-1.4-1.2-3.2-1.3,0.1-.9.2-1.9,0.3-2.8,0.2-2,.3-4,0.4-6,1-1.8,2-3.7,3-5.4l17.2-9.2-7,1.7-8,5.8-2,1.5,0.9-1.5c0.8-1.2,1.6-2.3,2.5-3.4a18.24,18.24,0,0,1,2.9-2.7,13.66,13.66,0,0,1,3.7-1.5c1.4-.4,2.7-0.8,4.1-1.1,2.7-.7,5.5-1.3,8.3-1.9l0.3-.1,0.2-.2,11.3-12.5h0.1l0.1-.2c2.5-4.5,4.8-9,7.1-13.6s4.5-9.2,6.6-13.8,4.3-9.3,6.3-14,3.9-9.5,5.6-14.3l0.2-.6v-0.3l-1.8-18.5v-0.3l-0.1-.3c-1.5-2.9-3.2-5.8-4.8-8.7l-2.4-4.4-1.2-2.2-0.6-1.1-0.5-1c-1.5-3-3-5.9-4.5-8.9l-4.5-8.9-0.1-.2-0.3-.3a403.85,403.85,0,0,0-32.9-35c-5.8-5.5-11.7-11-17.7-16.2-3-2.6-6.1-5.2-9.1-7.8l-9.1-7.6a82.1,82.1,0,0,1-25-36.5,96.1,96.1,0,0,1-4.7-21.9,105.62,105.62,0,0,1-.5-11.3c0-1.9.1-3.8,0.2-5.7,0.1-.9.1-1.9,0.2-2.8s0.2-1.9.3-2.7l-0.1.3c0.6-2,1.1-4.1,1.6-6.1l0.8-3.1,0.7-3.1c0.4-2,.9-4.1,1.3-6.2l1.2-6.3,0.2-.4-0.4-.2-0.6-.3c-0.1.1-.1,0.3-0.2,0.4l-16.9-9.6h0a1.47,1.47,0,0,0,.2-0.4l16.9,9.5v-0.1l-16.9-9.5c3.3-6,12.8-27.6,9-20.3-4.1,7.9-12.2,19.5-21.9,26.2l9.4-5h0c-7.7,4.7-18.6,11.1-35.2,15.2-18.1,4.5-24,5.7-46.3,10.7-2.7.6-11.2,5.9-16.1,11.2,0,0,32.5-10.3,57.2-12.3,1.4-.1,2.3-0.2,3-0.3-1.4,1.6-7.2,7.5-21.4,10.3-6.8,1.3-31,10.2-37.6,14.4-6.1,3.9-35.1,20.3-41.9,24.8-2,.9-4,1.9-6,2.8l-6.6,3a41,41,0,0,1-19.9-8.4C849.6,451,831,438,824,427.4c-6.8-10.3-12.3-16.1-21.2-16.8-1.1-.7-2.2-1.3-3.3-2a45.11,45.11,0,0,0-4.4-2.2c1.4,0.8,2.8,1.7,4.1,2.6s2.7,1.8,4,2.8c0.5,0.3.9,0.7,1.4,1,2.3,2.1,5.9,5.3,9.4,8.6,4.3,5.3,8.6,10.6,12.9,16l0.1,0.1,11.1,11.2,0.1,0.1,6.2,4.9,0.1,0.1,0.2,0.1a4,4,0,0,1,1.5,1.4,9.43,9.43,0,0,1,1,2.3,21.87,21.87,0,0,1,.4,2.7,10.86,10.86,0,0,1,.1,1.8l-16.9,11a0.1,0.1,0,0,1-.1-0.1l-0.1.2-0.5.4a8.33,8.33,0,0,0,.3-2.2c0.2-4.7-9.3-4-12.4-5.8,1.2,1.4,3,4.2,1.7,7.1-1.9,4.1-11.5-1.8-19.7-5.6-4.1-2,14.4,8.7,9.5,15.9s-17.4,16.7-30.4,24.1S758,514.8,751,518s-15.9,12.5-25.8,20.9-10,4.3-16,6.5-4.9,6.2-4.9,6.2,1.3,13.1,6.4,14,11.4,11.9,18.5,11.7a46.1,46.1,0,0,1,5.1.2h0s11,4.5,15.9,11.1,9.1,11.9,10,20.7a16.57,16.57,0,0,0,3,8.1l0.7,3.5a10.32,10.32,0,0,0-2.6.3,18,18,0,0,0-2.1.8c-0.7.2-1.3,0.5-2,.7a14.18,14.18,0,0,1-3.7.9,4.35,4.35,0,0,1-2.9-.7,11,11,0,0,1-1.4-1.1l-0.7-.7-0.8-.8c-0.5-.5-1-1.1-1.5-1.6a11.22,11.22,0,0,1-1.3-1.6c-0.9-1.2-1.9-2.3-2.9-3.5s-1.9-2.3-3-3.4a0.49,0.49,0,0,0-.8.5v0.1c0.9,3,2.1,5.8,3.2,8.6a12.68,12.68,0,0,0,1.2,2.3c0.4,0.7.8,1.4,1.2,2l0.6,1c0.3,0.4.5,0.7,0.8,1.1a13.28,13.28,0,0,0,2,2.2,10.52,10.52,0,0,0,3.1,1.8,11.8,11.8,0,0,0,3.6.6,20.83,20.83,0,0,0,5.6-1c0.8-.3,1.6-0.5,2.3-0.8a19,19,0,0,0,2.1-.9,6.81,6.81,0,0,0,2.3-3.2c1.5,1.2,2.9,2.5,4.3,3.8,0.6,1.7,1.1,3.5,1.6,4.9a13.43,13.43,0,0,1-2.4,1.2,31.92,31.92,0,0,1-3.7,1.3c-2.4.6-4.9,1.2-7.3,1.6l-21.9-13.2L726.1,604l-0.1-.2-0.2-.1-13.4-8.6-12.1-7.6a1.42,1.42,0,0,0,.2-0.6l0.3-.8-0.6-.7L682.5,564l-3-21.6a15.46,15.46,0,0,1,.8-4.7,18.47,18.47,0,0,1,2.1-4.5,14.56,14.56,0,0,1,3.4-3.6,8.65,8.65,0,0,1,1-.7,8.34,8.34,0,0,0,1.2-.8,18.39,18.39,0,0,0,2.2-1.7c5.6-4.7,10.7-9.8,15.9-14.9,10.2-10.2,20.3-20.6,30.2-31l7.7-5.2a56.46,56.46,0,0,1,27.8-3.3l11.2,1.7s-21.3-4-29.5-5.1l1.4-1-3.1-.2h-0.5v-0.2a2.27,2.27,0,0,1-.4.1l-5.3-.4h0.2c-4.8-1.5-9.7-3-14.6-4.3-2.4-.6-4.9-1.2-7.4-1.8-1.2-.3-2.6-0.5-3.7-0.8s-2.3-.7-3.5-1.1a141,141,0,0,1-13.7-6.3c-4.5-2.2-9.1-4.5-13.9-6.3l-3.6-1.2a34.55,34.55,0,0,1-3.4-1.4,59.81,59.81,0,0,1-6.4-3.8,82.87,82.87,0,0,1-11.5-9c-8.3-8.7-18.2-21.2-18.2-21.2a0.2,0.2,0,0,1-.1.2,15,15,0,0,1-1.1-2.2c-2-4.5-2.3-9.6-1.8-14.5a82,82,0,0,1,3.2-14.7c1.4-4.9,3.1-9.7,4.6-14.5a145.83,145.83,0,0,0,3.8-14.8,143,143,0,0,1,3.5-14.7c1.5-4.9,3.3-9.6,5.1-14.3,0.9-2.3,1.8-4.7,2.8-7s2-4.6,3.1-6.9c2.2-4.6,4.3-9.2,6.4-13.8l-0.9-.4c-2,4.7-4.3,9.2-6.6,13.7s-4.6,9.2-6.6,13.8l-3.2,7c-1,2.3-2,4.7-3,7.1s-1.8,4.8-2.6,7.3a48.19,48.19,0,0,1-2.7,7.2c-1.1,2.3-2.3,4.5-3.5,6.7a57.14,57.14,0,0,0-3,6.7c-1.6,4.5-3.1,9.3-4.7,14.2-2.3-2.5-6.3-3.9-9.9-5.8-6.2-3.2-17.7-7.6-22.5-9.5-2.2-.9-4.6-1.7-6.7-2.4a190.59,190.59,0,0,0-20.1-11.6c-4.3-2-8.6-4.2-13-6.3-2.2-1.1-4.4-2.1-6.6-3.1s-4.5-2-6.7-3l-2.2-1a76.55,76.55,0,0,0,5.9-10.9,155.24,155.24,0,0,0,17.4,6.7c20,6.4,45.4,12.8,25,6.9-14.2-4.1-20.3-20.8-24.4-23.2-1.1-.7-5.8-2.9-12-5.7,0.8-2.3,1.6-4.8,2.4-7.3,21,5.5,40.8,9.4,40.8,9.4a362.7,362.7,0,0,1-38.4-17.3c8.3-29,14.4-63.4,14.5-80.5,0.9,0.1,1.7.3,2.6,0.4,4.7,0.8,9.5,1.6,14.3,2.5,9.6,1.7,19.2,3.5,28.7,5.4,4.8,0.9,9.6,1.9,14.3,2.9l7.1,1.6,7.1,1.7a124.93,124.93,0,0,0,14.9,2.4,126.92,126.92,0,0,0,15.1.4c4.8-.1,9.5-0.5,14.1-0.9,3.9,1.4,6.1,3.1,5.1,5.3-7.2,15.3-1.5,2.2,13.1-8.6,4.1-1,8-2.2,11.8-3.1a51.76,51.76,0,0,1,6.6-1.4c1.1-.2,2.1-0.3,3.2-0.4a7.59,7.59,0,0,1,1.6-.1h1.5a35.5,35.5,0,0,1,12,3.3c4.1,1.8,8.3,4,13.1,6.2,1.3,0.5,2.5,1,3.9,1.5l1.1,0.3,1.1,0.3a11.7,11.7,0,0,0,2,.5,78,78,0,0,0,7.8,1.2c4.9,0.5,9.6,1,14.4,1.6s9.5,1.3,14.3,2.1l7.1,1.2,7.2,1.3a233.9,233.9,0,0,0,29.9,2.7c19.8,0.6,39.5-.5,59-2.1l14.6-1.4c5-.4,10-1.1,14.8-1.8,9.7-1.4,19.3-2.9,28.9-4.4,19.2-3,38.4-6.2,57.6-9.1,9.6-1.4,19.3-2.8,28.8-3.9a246.77,246.77,0,0,1,28.6-1.4c9.6,0.1,19.2.5,28.8,1.3,4.7,0.4,9.5.9,14.3,1.5a120.08,120.08,0,0,1,14,2.4c4.4,1.2,9,2.8,13.6,4.4s9.1,3.2,13.7,4.9c8,3,16,5.9,24.1,9l16.8,10.3c-1.9-3-6.6-6.4-11.3-9.2,7.4-1,15-2,22.5-2.8a113.38,113.38,0,0,1,11.7-.4l11.9,0.3c7.9,0.3,16,.5,24,0.4,4-.1,8.1-0.2,12.1-0.5s7.9-.6,11.9-0.8c15.9-.8,31.9-1,47.8-1.3l23.9-.4c8-.2,16-0.7,24-1.3q23.85-1.8,47.7-4.8c8-1.1,15.8-2.5,23.7-3.9s15.7-2.9,23.5-4.4l5.9-1.1c1.9-.4,3.9-0.8,5.8-1.1a31.18,31.18,0,0,1,11.4.2,12.06,12.06,0,0,1,4.9,2,1.62,1.62,0,0,1,.6.6,1.91,1.91,0,0,1-.8.4l-1.4.5-11.2,4.1a185.5,185.5,0,0,1-22.8,6.7l-23.4,4.9c-7.8,1.6-15.6,3.3-23.4,4.8s-15.6,3-23.5,4c-4,.5-7.9.8-11.9,1.1s-7.9.6-11.9,0.8c-8,.5-15.9.9-23.9,1.3s-15.9.7-23.9,1c-3.9.2-7.9,0.3-11.9,0.4s-8,.1-12,0.3c-16,.7-31.9,2.3-47.8,4.1-7.9.9-15.9,1.9-23.8,3.1a59.82,59.82,0,0,0-6.1,1.2,23.53,23.53,0,0,0-6.2,2.3,9.18,9.18,0,0,0-2.9,2.7,8.42,8.42,0,0,0-1.5,3.6,50.86,50.86,0,0,1-1.2,5.7,21.87,21.87,0,0,0-.9,6.6c0,2.1.2,4.2,0.4,6.2,0.4,4.1,1,8,1.5,11.9,0.2,1.9.4,3.9,0.5,5.7V312c0,4-.1,7.9-0.3,11.9-0.3,7.9-.8,15.9-1.8,23.6a67.34,67.34,0,0,1-2.3,11.2,49.53,49.53,0,0,1-4.5,10.3c-1.9,3.2-4.1,6.4-6.4,9.6s-4.7,6.3-7.2,9.3c-5,6-10.3,11.9-15.7,17.6l-0.2.2-0.2.2L1174,425.1c-4.7,6.4-9.3,13-13.7,19.8a72.62,72.62,0,0,0-6.7,10.7h0Zm230.2,219.5c-0.2-.3-0.3-0.6-0.6-1a1.79,1.79,0,0,0-.7-0.5,2.13,2.13,0,0,0-.8,0h-0.1c0.1,0,0-.1,0-0.2a0.85,0.85,0,0,0-.2-0.6,2.2,2.2,0,0,0-.6-0.5l-0.2-.1a0.37,0.37,0,0,1-.1-0.3,14.76,14.76,0,0,0-.1-2.1,73.21,73.21,0,0,1-.4-8.1c0.1-2.7.6-5.3,2.3-7.2l13-9.9,0.2-.2v-0.3c0.4-3.4.8-6.7,1.1-10.1s0.5-6.8.5-10.2a20.84,20.84,0,0,0-1.1-5.2c-0.5-1.6-1.2-3.2-1.8-4.8-1.3-3.2-2.8-6.3-4.3-9.3-3-6.1-6.3-12.1-9.6-18-0.8-1.4-1.6-2.9-2.6-4.4s-1.9-2.8-2.9-4.2c-2-2.7-4.1-5.4-6.3-8-4.4-5.3-8.9-10.3-13.7-15.2-2.4-2.4-4.8-4.8-7.4-7.1a65.21,65.21,0,0,0-8.1-6.4,17.6,17.6,0,0,0-2.3-1.4l-2.2-1.2-4.5-2.4-9-4.7c-6-3.2-12-6.3-18-9.4-0.3-.1-0.6-0.3-0.9-0.4-4.8-4.1-13.5-11.5-20.9-17.8-11.1-9.2-18.7-19.1-42.3-42.8s-7.6-32.9-8.4-63.9c-0.6-21.6-1.1-42.3-1.3-52.8,0.7-7.1,1.1-14.1,1.3-21.2,0.1-4,.2-8,0.2-12,0-2,0-4-.1-6s-0.3-4-.6-6c-0.2-1.2-.3-2.5-0.5-3.8q2.1,5.1,3.9,10.2c1.8,4.9,3.5,9.9,5.2,14.8s3.4,9.9,4.9,14.9c0.8,2.5,1.5,4.9,2.2,7.4,0.3,1.3.6,2.5,0.9,3.7a27.33,27.33,0,0,1,.6,3.4c0.1,1.1.1,2.4,0.2,3.7l0.1,3.9,0.2,7.9c0.2,5.3.4,10.6,0.9,16a140.42,140.42,0,0,0,2.3,16.4,44.44,44.44,0,0,0,3,8.9l3.6,7.2c2.5,4.7,4.9,9.5,7.7,14.1s5.6,9.2,8.8,13.7a100.6,100.6,0,0,0,10.8,13,37.25,37.25,0,0,1,4.5,5.1c1.5,1.9,2.9,4.1,4.6,6.3a59.47,59.47,0,0,0,5.7,6.7,51,51,0,0,0,6.7,5.6,84.11,84.11,0,0,0,14.6,8.1c2.5,1.1,5,2.2,7.4,3.2l7.3,3c4.9,2,9.8,3.9,14.8,5.7l7.5,2.6,7.4,2.8a116.53,116.53,0,0,0,15.2,4.8l1.9,0.5a3.12,3.12,0,0,1,.7.2,0.78,0.78,0,0,1,.4.3,13.94,13.94,0,0,1,1.7,3,47.75,47.75,0,0,1,2.2,6.7c-0.2.1-.5,0.1-0.7,0.2a0.49,0.49,0,0,1,.1.3v0.1l0.1,0.5,0.3,1v0.1c-0.2.1,0.2,0,.7-0.1v0.1c-1.1.3-.8,0.2,0,0.1l0.5,2.2,0.2,0.8a10.08,10.08,0,0,0-6.8-4.6c-6.1-.9-13.2-1.7-22.4-5.5l-13.4-5.8s-11.3-6.8,22.7,14.6c14.8,9.3,4.9,11.8,19.1,31.9,14.8,20.8,23.5,46.9,26.9,59s12.5,13.8,12.5,13.8l1,1.4a30.67,30.67,0,0,1,2,5c0.2,0.6.3,1.3,0.5,1.9a11.79,11.79,0,0,1,.4,2c0.2,1.3.6,2.7,0.7,3.8v0.6c0,0.2-.1.1-0.1,0.1a2.63,2.63,0,0,0-.8.8,28,28,0,0,0-2.4,3.3,9.92,9.92,0,0,0-1.1,1.7c-0.3.6-.6,1.1-0.9,1.7l-1.5,3.6c-0.5,1.2-1,2.5-1.6,3.7a7.37,7.37,0,0,0-2.6,1c-3.4,2.7-7.4,5.7-9.9,8.4s-3.4,5.2-5.9,6.2a8.53,8.53,0,0,0-3.1,2.1c-0.7.3-1.4,0.5-2.1,0.8l0.2-.2s-6.3-10.5-4.9-14.6,6.9-5.2,7.8-10.3l0.9-5.1a58.09,58.09,0,0,1-6.8,9.8c-3.4,3.6-6.5,1.7-5.4,6.2,1,4,2.9,13.3,3.4,16.3-0.3.2-.6,0.3-0.9,0.5a21.89,21.89,0,0,0-4.9,2.7,34.47,34.47,0,0,0-3.2,2,26.79,26.79,0,0,0-.7-2.7,25.31,25.31,0,0,0-.3-7.8c-0.2-3.3-.8-6.7-1-9.9a8.12,8.12,0,0,1,.8-4.2,4.61,4.61,0,0,1,.7-0.7l0.9-.7a14.3,14.3,0,0,1,2-1.4,17,17,0,0,0,4.1-3.1,29.45,29.45,0,0,0,3.1-4.1c-1.3,1.1-2.5,2.2-3.8,3.2a24.24,24.24,0,0,1-4.2,2.4,25.31,25.31,0,0,0-2.2,1.3l-1.1.8a5.24,5.24,0,0,0-1,1.1,5.58,5.58,0,0,0-1,2.7,12.21,12.21,0,0,0-.1,2.7,41.77,41.77,0,0,0,.7,5.1l0.9,4.9c0.3,1.8.6,3.6,0.8,5.5-0.3-.8-0.5-1.5-0.8-2.3Zm15.5,1.7a0.2,0.2,0,0,0,.2-0.1c0.7-.3,1.4-0.5,2.1-0.8a6.18,6.18,0,0,1-3.4,1.8,10.63,10.63,0,0,0,1.1-.9h0Zm-12.9,6.8c0.4-.3.9-0.5,1.3-0.8-0.5.4-.9,0.8-1.2,1a0.31,0.31,0,0,1-.1-0.2h0Z" transform="translate(0 0)"/>
  <path class="cls-1" d="M1386,684.2l0.1-.1H1386v0.1Z" transform="translate(0 0)"/>
  <path class="cls-1" d="M1022.6,329.2c-15.5,2.4-16.6,9.2-24.2,5.4l-7.5-3.9s2.7-.1,3.9-6.2-2.2-6.7-6.3-10.6-0.1-2,1.1-8.1-4.2-5.3-1.6-10.1,4-3.5,6.6-4.2-6.2-4.6-10.3-5.1-6.2-3.9-2.2-6,5.3-5.5-1.5-4.7-8.7,3.6-14.8,2.4-8.3-6.5-10.2-2.4,0.9,7.4-4.5,8.2-7.5-3.9-8.1,1.6,4.9,7.3-1.8,9.5-8.1,1.6-11.2,9.1,7.7,10.6-3.2,7.5-14.1,3.1-17.6-3.6,1.8-6.8-8.4-13.3-14.6-15.1-22.6-10.9,0.2,6.7-14.8,2.4-19.6-2.2-23.2-10.9-2.7-1.3-3.6-8.7-2.1-1.3-.9-7.4c1.9-6.2-2.2-8.1-2.2-8.1s-10.1,2.3-14.1,1-4.8-3.9-10.9-4.4-10.1.9-16.2,1.8-25.8-6.1-25.8-6.1l10.3,8.5-4.7,2.1a120.34,120.34,0,0,1,13.7,6.4c5.5,3.2,11,7.1,7.1,14.7s-1.8,8.8-9.2,9-4.2-6-7.4.2-3.9,7.5-13.4,4.4-10.2-2.4-14.4-8.4-5.7-11.3-9.8-11.9-15.7-5.7-12.2-3.1,8.9,5.2,8.4,9.9-3.2,5.5,4.3,9.3,11.6,3.1,15.1,9.1,13.1,11.1,4.3,10.7-14.4-10.4-13.6-3.7-0.6,4.7,1,14.1,2.1,4,2.4,16.1-0.2,16.9,4.6,22.2,11.1,11.2,4.3,9.3-19.1-8.3-13-5.1,4.2,7.3,14.5,13.8,14.1-1.7,17.6,3.6-1.6,6.9,3.7,10.7,10.3,5.8,16.9,1.6,7.2-6.9,14.1-4.4a9.4,9.4,0,0,1,2.2,1c-0.4-.9-0.5-2.9,2.4-6.5,6.5-8.3,10.1-1.6,9.8-11.1s-5.7-13.3,5.1-9.6,14.4,7,19,5.6c2.7-.9,5.2-1.5,6.8-1.9-2.8.4-7.8-.2-7.1-8.9,1-12.2-5.3-20.8,6.4-13.7s11.8,11.8,16.7,17.8,8.4,13.3,11.6,5.8-8.3-7.9.3-12.8,6.8,0.5,15.5-2.4,10.8-.3,12.7-3-18.9-1.5-18.4-6.9,8-5.6,3.1-8.9-13.4,3.7-12.2-3.7,5.9-5.6,14.7-4.4,16.2,0.9,19.8,8.3,1.7,12.1,11.1,11.9,6.8,2.5,19.6.8,16.3,2.9,16.3,2.9l-14.1,4.4a28.84,28.84,0,0,0,10.3,7.8c6.1,2.5,5.5,5.3,15.6,4.3s14.2,3,19.6,2.9-4.1-1.2-5.6-6.6-1.6-10.1,5.3-4.2c5.2,4.5,8.1,7.5,9.2,8.6-1.2-1.5-3.7-5.4,1.6-8.2l6.7-3.5s-1.4-3.3,4.7-.8l6.1,2.5a31.12,31.12,0,0,1-1.6-9.4c-0.1-5.4-4.2-5.3,2.5-6.1S1038.1,326.8,1022.6,329.2Z" transform="translate(0 0)"/>
  <path class="cls-1" d="M1007.3,360.6a6.13,6.13,0,0,1-.5-0.6A6.1,6.1,0,0,0,1007.3,360.6Z" transform="translate(0 0)"/>
  <path class="cls-1" d="M813.3,383.5c0.4,0.8,1,.7,0,0h0Z" transform="translate(0 0)"/>
  <path class="cls-1" d="M856.4,360a8,8,0,0,0,1.9-.4S857.6,359.7,856.4,360Z" transform="translate(0 0)"/>
  <path class="cls-1" d="M331.4,282.7c1.5,1-.6-0.8-3.4-3.1A17.21,17.21,0,0,0,331.4,282.7Z" transform="translate(0 0)"/>
  <path class="cls-1" d="M455.2,202.2a13.23,13.23,0,0,0,.9,4.3,9.26,9.26,0,0,0,2.6,3.6,27.73,27.73,0,0,0,7.5,4.2c1.3,0.6,2.6,1.1,3.9,1.6s2.6,1,3.8,1.6a28.46,28.46,0,0,1,6.5,4.9,25.6,25.6,0,0,1,4.7,6.6,12.88,12.88,0,0,1,1.5,7.6,7.59,7.59,0,0,1-.6,1.8,5.58,5.58,0,0,1-.5.8l-0.6.9a21,21,0,0,0-2.1,3.9,31.83,31.83,0,0,0-2.3,8.4,96.76,96.76,0,0,0-.7,17,27.88,27.88,0,0,1-.8,8.1c-0.3,1.3-.6,2.7-0.8,4.2a11.91,11.91,0,0,0,.1,4.6,10.58,10.58,0,0,0,2.2,4.2l0.8,0.8L482,292a19.2,19.2,0,0,1,1.4,1.5c0.4,0.5.8,1,1.3,1.6a1.75,1.75,0,0,0,.4.5,1.36,1.36,0,0,0,.8.6,2.49,2.49,0,0,0,.8.1,0.92,0.92,0,0,0,.6-0.1l0.6-.3c0.7-.4,1.2-0.7,1.8-1.1a21.87,21.87,0,0,0,1.9-1.1,4.25,4.25,0,0,0,1.7-2.2,4.94,4.94,0,0,0,0-2.7,22,22,0,0,0-1.7-4.1c-1.2-2.5-2.2-5-2-7.5a9.4,9.4,0,0,1,1.1-3.6,7.43,7.43,0,0,1,2.3-2.9c1.9-1.5,4.6-1.6,7.3-1.4,1.4,0.1,2.8.2,4.3,0.2a8.69,8.69,0,0,0,4.6-1.3,7.69,7.69,0,0,0,1.8-1.8l1.2-1.8a34.8,34.8,0,0,0,2.3-3.8,14.14,14.14,0,0,0,1.3-4.3c0.2-1.4.3-2.8,0.5-4.2l0.5-4.2a10.89,10.89,0,0,0-.3-4.7,3.46,3.46,0,0,0-2-2.1,7.92,7.92,0,0,0-2.4-.5,10.73,10.73,0,0,1-3.8-.7,6,6,0,0,1-2.5-2.5,14.74,14.74,0,0,1-1.3-3.7,31,31,0,0,1-.8-8.1v-2.2a4.17,4.17,0,0,0-.6-2.5,4.36,4.36,0,0,0-2.2-1.5,22.5,22.5,0,0,0-2.2-.5c-2.9-.5-5.7-0.6-8.4-1.1a10.55,10.55,0,0,1-1.9-.5,3.11,3.11,0,0,1-.6-0.4,0.28,0.28,0,0,1-.1-0.3,6.55,6.55,0,0,0,.2-2.3,2.42,2.42,0,0,0-.8-1.3,3.59,3.59,0,0,0-1-.7,16.93,16.93,0,0,0-4.2-1.3,16,16,0,0,0-4.4-.3,8.73,8.73,0,0,0-2.2.5c-0.8.3-1.4,0.7-2,.9a2.21,2.21,0,0,1-1.6,0,6.57,6.57,0,0,1-1.6-1.1c-4.5-3.4-9.3-6.4-14.1-9.4l-0.9-.6Z" transform="translate(0 0)"/>
  <path class="cls-1" d="M1016.4,389.3l-7.4,3.9A35.14,35.14,0,0,0,1016.4,389.3Z" transform="translate(0 0)"/>
  <path class="cls-1" d="M1187.8,380.1c14.4-15.9,25.3-37.1,27.1-49.3s2.9-37.1-.8-30.4c-8.4,15.1-28.1,52-41.4,67.2-8.4,9.5-2.9,4.3-12.8,12.7-8.8,7.4-5.6-15.6-6.8-26.7-2-18.3-3.1,18.3-8.1,39.2-3.9,16.2-16.7,34-22.4,45.6s-5.7,15.7-6.9,20.4c-1.2,5,5.9-11.6,5.9-11.6,12-24.6,20.6-30.7,32.5-41.2S1173.4,396,1187.8,380.1Z" transform="translate(0 0)"/>
  <path class="cls-1" d="M816.8,464.8a1.59,1.59,0,0,0,.9.9A6.05,6.05,0,0,0,816.8,464.8Z" transform="translate(0 0)"/>
  <path class="cls-1" d="M415.1,246c0.6-.3.6-4.4-1.4-6.6s-3.5-2-3.5-2c-1.2.9-1.6,4-.9,5.4C410.7,245.6,414.4,246.4,415.1,246Z" transform="translate(0 0)"/>
  <path class="cls-1" d="M1551.2,659.1a7.92,7.92,0,0,0-8,7.84q0,0.13,0,.26a8,8,0,0,0,7.9,8.1h0.1a7.92,7.92,0,0,0,8-7.84q0-.13,0-0.26a8,8,0,0,0-7.9-8.1h-0.1Zm-0.1,15a6.86,6.86,0,1,1,6.49-7.21q0,0.2,0,.41a6.65,6.65,0,0,1-6.5,6.8h0Z" transform="translate(0 0)"/>
  <path class="cls-1" d="M1552.6,667.6h0a2.46,2.46,0,0,0,1.8-2.3,2.27,2.27,0,0,0-.8-1.9,4.52,4.52,0,0,0-2.8-.7,18.36,18.36,0,0,0-2.6.2v9h1.4l0.1-3.8h1a1.65,1.65,0,0,1,1.9,1.6,7.7,7.7,0,0,0,.6,2.3h1.5a5.33,5.33,0,0,1-.6-2.2C1553.9,668.5,1553.4,667.7,1552.6,667.6Zm-2-.7h-1v-3a2.51,2.51,0,0,1,1-.1c1.6,0,2.2.8,2.2,1.6C1552.8,666.5,1551.8,666.9,1550.6,666.9Z" transform="translate(0 0)"/>
</svg>
