<svg id="Westminster-Yellow" xmlns="http://www.w3.org/2000/svg" viewBox="0 0 934.7 429.7">
  <defs>
    <style>
      .cls-1 {
        fill: #db9c22;
        stroke-width: 0.5px;
      }

      .cls-1, .cls-2 {
        stroke: #db9c22;
      }

      .cls-2 {
        fill: none;
        stroke-width: 6px;
      }
    </style>
  </defs>
  <title>westminster-alternate</title>
  <g id="Basic_outline" data-name="Basic outline">
    <path id="Shape" class="cls-1" d="M514.33,191.35l9.41,5.3,0.2,0.1-0.1.2h0l-0.6,3.15c-0.2,1.05-.45,2.1-0.65,3.1l-0.36,1.55-0.4,1.55c-0.25,1-.5,2-0.8,3l0-.15c0,0.4-.1.9-0.15,1.35s0,0.95-.1,1.4c0,1-.1,1.9-0.1,2.85a52.79,52.79,0,0,0,.25,5.65,48,48,0,0,0,2.35,10.95,41,41,0,0,0,12.51,18.25l4.55,3.8c1.5,1.3,3,2.6,4.55,3.9,3,2.6,6,5.35,8.85,8.1a202,202,0,0,1,16.46,17.5l0.15,0.15,0,0.1,2.25,4.45c0.75,1.5,1.5,3,2.25,4.45l0.25,0.5,0.3,0.55,0.6,1.1,1.2,2.2c0.8,1.45,1.65,2.9,2.4,4.35l0,0.15V301h0l0.9,9.25v0.15l-0.1.3h0c-0.85,2.4-1.8,4.8-2.8,7.15s-2,4.7-3.15,7l-3.3,6.9c-1.1,2.3-2.3,4.55-3.55,6.8l0,0.1h0L562,345l-0.1.1-0.15,0c-1.4.3-2.8,0.6-4.15,1-0.7.15-1.35,0.35-2,.55a6.83,6.83,0,0,0-1.85.75,9.12,9.12,0,0,0-1.45,1.35c-0.45.55-.85,1.1-1.25,1.7-0.75,1.15-1.45,2.4-2.1,3.65l0-.2c0,1-.1,2-0.2,3.1,0,0.5-.1,1-0.15,1.55,0,0.25-.1.5-0.15,0.8a1.46,1.46,0,0,1-.1.4v0.05h0v-0.1a0.18,0.18,0,0,0-.1-0.15,0.52,0.52,0,0,0,.2,0c0.1,0,.2,0,0.3,0h0.7c0.5,0,1,0,1.5-.1s1-.1,1.5-0.2a1.94,1.94,0,0,0,.75-0.1l0.15,0h0a0.15,0.15,0,0,0-.1,0l-0.15.15a0.44,0.44,0,0,0,0,.45,0.53,0.53,0,0,0,.35.3h-0.3l-0.1-1,11.11-.3H564c3.7-1.45,7.4-3,11.06-4.35a15.58,15.58,0,0,0,2.6-1.25c0.4-.25.8-0.45,1.15-0.7a4.47,4.47,0,0,0,.85-0.75,1.49,1.49,0,0,0,.15-0.8,6.33,6.33,0,0,0-.2-1.3,15.54,15.54,0,0,1-.4-3.2,4.85,4.85,0,0,1,0-.85,6.75,6.75,0,0,1,.15-0.9,12,12,0,0,1,.55-1.6c0.4-1,.9-1.85,1.35-2.75,1-1.8,2-3.5,3-5.25l6.15-10.2,6-10.3c1-1.7,2-3.45,3.15-5.15,0.55-.85,1.1-1.7,1.7-2.55,0.3-.4.6-0.85,0.9-1.25l0.85-1.15a41.23,41.23,0,0,0,3.1-4.8c0.45-.8.85-1.65,1.2-2.45a12,12,0,0,0,.75-2.4,3.44,3.44,0,0,0,0-1c0-.15,0-0.25,0-0.4v-0.1l0-.1-0.15-.4a9.43,9.43,0,0,1-.45-1.7c-0.1-.6-0.15-1.15-0.2-1.25a0.26,0.26,0,0,0-.1-0.15,1.33,1.33,0,0,0-.25-0.3c-0.25-.25-0.55-0.55-0.9-0.85s-0.7-.6-1.1-0.9-0.8-.65-1.2-1a87.77,87.77,0,0,1-8.6-8.65,93,93,0,0,1-7.4-9.65c-1.1-1.7-2.2-3.45-3.15-5.25s-1.9-3.55-2.8-5.4a100,100,0,0,1-4.7-11.2,58.27,58.27,0,0,1-1.75-5.95,22.5,22.5,0,0,1-.55-3.2c0-.55-0.1-1.15-0.1-1.75a9.55,9.55,0,0,1,.2-1.95,26.92,26.92,0,0,1,2.45-6c1-1.85,2-3.55,3.1-5.3,2.2-3.4,4.5-6.7,6.85-9.9l7-9.6,0.1-.1,0.1-.1c2.7-2.85,5.35-5.8,7.85-8.8q1.88-2.25,3.6-4.65c1.15-1.6,2.25-3.2,3.2-4.8a24.75,24.75,0,0,0,2.25-5.15,33.66,33.66,0,0,0,1.15-5.6c0.5-3.85.75-7.85,0.9-11.8,0.1-2,.15-3.95.15-5.95v-3c0-.9-0.15-1.9-0.25-2.85-0.25-2-.55-3.9-0.75-6a30.29,30.29,0,0,1-.2-3.1,10.93,10.93,0,0,1,.45-3.3,25.4,25.4,0,0,0,.6-2.85,4.21,4.21,0,0,1,.75-1.8,4.59,4.59,0,0,1,1.45-1.35,11.78,11.78,0,0,1,3.1-1.15,29.93,29.93,0,0,1,3-.6c4-.6,8-1.1,11.91-1.55,8-.9,15.91-1.7,23.91-2,2-.1,4-0.1,6-0.15s4-.1,6-0.2c4-.15,8-0.3,12-0.5s8-.4,12-0.65c2-.1,4-0.25,6-0.4s4-.3,6-0.55c4-.5,7.85-1.25,11.76-2s7.8-1.6,11.71-2.4L740.77,117a92.84,92.84,0,0,0,11.41-3.35l5.6-2,0.7-.25a1,1,0,0,0,.4-0.2h0a0.81,0.81,0,0,0-.3-0.3,6,6,0,0,0-2.45-1,15.61,15.61,0,0,0-5.7-.1c-1,.15-2,0.35-2.9.55l-3,.55c-3.9.75-7.85,1.5-11.76,2.2s-7.85,1.4-11.86,2q-11.93,1.5-23.86,2.4c-4,.3-8,0.55-12,0.65l-12,.2c-8,.15-16,0.25-23.91.65-2,.1-4,0.2-6,0.4s-4,.2-6,0.25c-4,.05-8,0-12-0.2l-6-.15a56.75,56.75,0,0,0-5.85.2c-4,.45-7.9.95-11.81,1.5h-0.3l-0.3-.1h0c-4.55-1.75-9.1-3.4-13.66-5.1-2.3-.85-4.55-1.65-6.85-2.45s-4.6-1.6-6.8-2.2a60.1,60.1,0,0,0-7-1.2c-2.4-.3-4.8-0.55-7.15-0.75-4.8-.4-9.61-0.6-14.41-0.65a123.52,123.52,0,0,0-14.31.7c-4.75.55-9.61,1.25-14.41,1.95-9.61,1.45-19.21,3.05-28.82,4.55-4.8.75-9.61,1.5-14.46,2.2-2.4.35-4.9,0.7-7.4,0.9l-7.3.7a263.43,263.43,0,0,1-29.52,1,117.07,117.07,0,0,1-15-1.35l-3.74-.5-3.55-.6c-2.4-.4-4.75-0.75-7.15-1.05s-4.75-.55-7.2-0.8a39.05,39.05,0,0,1-3.9-.6,5.85,5.85,0,0,1-1-.25l-0.55-.15-0.55-.15c-0.7-.25-1.3-0.5-2-0.75-2.4-1.1-4.5-2.2-6.55-3.1a17.77,17.77,0,0,0-6-1.65H370.8a3.8,3.8,0,0,0-.8,0,8.75,8.75,0,0,0-1.6.2,25.9,25.9,0,0,0-3.3.7c-2.25.55-4.6,1.3-7,1.85-1.25.3-2.5,0.55-3.75,0.8l-2,.3-1.85.2c-2.45.2-4.9,0.45-7.45,0.5a63.53,63.53,0,0,1-7.55-.2,62.53,62.53,0,0,1-7.45-1.2l-3.55-.85-3.55-.8c-2.35-.5-4.75-1-7.15-1.45-4.75-.95-9.56-1.85-14.36-2.7-2.4-.45-4.8-0.85-7.15-1.25-1.15-.2-2.4-0.35-3.6-0.6s-2.4-.45-3.6-0.65c-4.75-1-9.56-1.75-14.36-2.6-2.4-.45-4.8-0.9-7.2-1.45-1.2-.25-2.4-0.55-3.6-0.85a37.54,37.54,0,0,1-3.65-1.1c-0.3-.1-0.6-0.25-1-0.4a4.63,4.63,0,0,1-.5-0.25l-0.45-.3a6.72,6.72,0,0,1-1.6-1.55,32.45,32.45,0,0,0-1.85-2.85,1.63,1.63,0,0,0-.9-0.35h-1.75c-1.25-.05-2.5-0.15-3.7-0.25-2.45-.2-4.85-0.4-7.25-0.55-1.2,0-2.4-.1-3.55,0l-3.65.1c-2.45,0-4.85.15-7.25,0.3-1.2.1-2.4,0.2-3.55,0.35a16.15,16.15,0,0,0-1.65.3,6.07,6.07,0,0,0-.7.25c-0.25.1-.5,0.2-0.8,0.35a70.78,70.78,0,0,0-6.3,3.45c-2.1,1.2-4.15,2.5-6.2,3.75l-3.1,2-0.75.5a2,2,0,0,0-.5.45,8.21,8.21,0,0,0-1,1.25c-0.6,1-1.1,2-1.65,3.1a22.76,22.76,0,0,1-1.9,3.35,5.94,5.94,0,0,1-1.6,1.55,8.51,8.51,0,0,1-2.1.8,25.59,25.59,0,0,1-3.8.5c-2.45.2-4.9,0.25-7.3,0.4l-1.75.15c-0.3.05-.6,0.05-0.85,0.1l-0.9.15a17,17,0,0,1-3.9,0,30.5,30.5,0,0,0-7.05-.15c-0.55.1-1.1,0.2-1.65,0.35a9.23,9.23,0,0,1-2.05.3,15.22,15.22,0,0,1-3.85-.55,3.93,3.93,0,0,0-.7-0.1,0.86,0.86,0,0,0-.4,0,2,2,0,0,0-.7.9,14.74,14.74,0,0,0-1.1,3.15,13.31,13.31,0,0,0,.45,6.7,53.21,53.21,0,0,0,2.8,6.6c1.05,2.2,2.15,4.35,3.3,6.5,0.3,0.55.55,1.1,0.85,1.6a13,13,0,0,0,1,1.5c0.4,0.5.7,1,1.05,1.45s0.65,1,1,1.5a10.2,10.2,0,0,0,1.15,1.35c0.45,0.4.85,0.8,1.35,1.2a16.38,16.38,0,0,0,6.45,3,27.06,27.06,0,0,0,3.6.6,11.64,11.64,0,0,1,1.8.4,4.33,4.33,0,0,1,.85.35,4.14,4.14,0,0,1,.75.55c1,0.75,1.85,1.6,2.85,2.3a12.12,12.12,0,0,0,3.15,1.75,6.34,6.34,0,0,0,3.6.3c1.2-.25,2.15-1.15,3.3-1.55a6.77,6.77,0,0,1,1.8-.4c0.6-.05,1.2-0.05,1.8-0.1a71.78,71.78,0,0,1,7.3-.55,22.77,22.77,0,0,1,3.65.45c1.2,0.25,2.35.6,3.55,0.85a29.87,29.87,0,0,0,3.6.55c1.2,0.1,2.45.15,3.65,0.15,2.45,0,4.9,0,7.3.15a29,29,0,0,0,3.6-.2q1.8-.23,3.6-0.6c1.2-.2,2.4-0.4,3.65-0.5a12.23,12.23,0,0,1,3.8.3c0.65,0.15,1.2.35,1.75,0.5s1.15,0.3,1.75.5c1.15,0.3,2.35.6,3.55,0.85,2.35,0.55,4.75,1.1,7.15,1.7,1.2,0.3,2.35.6,3.6,1s2.4,0.9,3.55,1.35c2.3,1,4.5,2,6.8,3l6.75,2.95,3.35,1.5c1.1,0.5,2.2,1,3.3,1.55,2.2,1,4.35,2.15,6.5,3.15a86,86,0,0,1,12.86,7.75,54.32,54.32,0,0,1,5.9,4.95,32.12,32.12,0,0,1,2.75,3,14.85,14.85,0,0,1,2.15,3.75c1,2.6,1.1,5.2,1.55,7.65a51.86,51.86,0,0,0,1.75,7,22.22,22.22,0,0,0,1.35,3.1,24.27,24.27,0,0,0,2,2.8,68.53,68.53,0,0,0,4.8,5.3A84.13,84.13,0,0,0,335.65,228c1,0.65,2,1.3,3,1.9s2,1.15,3.15,1.75a13.13,13.13,0,0,1,1.7,1.05,6.47,6.47,0,0,1,.9.8,4.13,4.13,0,0,1,.7,1.1,5.37,5.37,0,0,1,.4,2.25,12.38,12.38,0,0,1-.2,2c-0.45,2.5-1.1,4.85-1.75,7.2s-1.3,4.7-2,7-1.35,4.65-2,7c-0.3,1.15-.6,2.35-0.85,3.5a35.5,35.5,0,0,1-1,3.6c-1.35,4.75-3,9.35-4.45,14-0.75,2.3-1.55,4.6-2.2,6.9-0.15.6-.3,1.15-0.45,1.7,0,0.3-.15.6-0.2,0.9l-0.25.9c-0.35,1.2-.75,2.4-1.2,3.55-0.85,2.3-1.75,4.55-2.55,6.8-0.4,1.15-.7,2.25-1,3.4s-0.45,2.3-.65,3.55c-0.1.6-.2,1.25-0.35,1.9a12.15,12.15,0,0,1-.65,1.9,15.28,15.28,0,0,1-2.15,3.25c-1.45,1.9-2.85,3.9-4.25,5.85s-2.8,4-4.3,6a16.27,16.27,0,0,1-1.15,1.45,9.42,9.42,0,0,1-1.4,1.5,5.39,5.39,0,0,1-2,1,9.91,9.91,0,0,1-2,.35c-1.3.1-2.55,0.1-3.7,0.1a8.44,8.44,0,0,0-1.65.15,2.87,2.87,0,0,0-.7.2,2.62,2.62,0,0,0-.6.35A21.83,21.83,0,0,0,297.2,335c-0.85.8-1.7,1.7-2.5,2.55s-1.6,1.8-2.3,2.7a21,21,0,0,0-2,2.9c-0.15.25-.25,0.5-0.35,0.7a0.93,0.93,0,0,0-.1.35s0,0.1,0,.15v0s0-.1,0-0.1l0.1,0.1a3.18,3.18,0,0,0,.6.35,15.47,15.47,0,0,0,3.25,1,55.18,55.18,0,0,0,7.1,1,69.32,69.32,0,0,0,7.2.2,24.65,24.65,0,0,0,3.45-.3c0.15,0,.25,0,0.4-0.1l0.4-.1a5.86,5.86,0,0,1,1-.25,2.24,2.24,0,0,1,.6,0h0.4a1.19,1.19,0,0,1,.6.2,1.24,1.24,0,0,1,.55.8c-0.2,0,.55,1-0.5-0.45-1.25-.1-0.55,0-0.7,0l0.15-.1c0.45-.3,1-0.7,1.45-1l0.7-.55c0.2-.2.4-0.35,0.6-0.55a5.43,5.43,0,0,0,1.45-2.75,21.38,21.38,0,0,1,1.15-3.6,14.5,14.5,0,0,1,2.1-3.25c1.55-1.85,3.1-3.75,4.6-5.65l4.55-5.7c0.75-1,1.5-1.9,2.3-2.85a15.57,15.57,0,0,1,2.7-2.75,15.06,15.06,0,0,1,1.7-1c0.55-.3,1.2-0.5,1.6-0.75a4.93,4.93,0,0,0,1.9-2.4,32,32,0,0,0,1.15-3.3l1-3.5c0.7-2.35,1.5-4.7,2.35-7s1.75-4.55,2.7-6.8h0l0.1,0.85-8.9-10.9h0l-0.1-.1-0.1-.3c-0.25-.9-0.45-1.8-0.7-2.7l-0.65-2.75c-0.2-.9-0.4-1.8-0.6-2.75L337,271.7v-1.1c0-.3,0-0.55,0-0.8a9,9,0,0,1,.3-1.6,11.07,11.07,0,0,1,1.3-3.1,10.37,10.37,0,0,1,2.3-2.6,6.07,6.07,0,0,1,.7-0.5l0.15-.1a0.19,0.19,0,0,0,.1-0.1l0.2-.15c0.3-.25.6-0.5,0.9-0.8,1.25-1.15,2.5-2.4,3.8-3.65l3.75-3.85,7.55-7.75c2.5-2.6,5.15-5.1,7.9-7.45l0.4-.35h0l2.2-1.15c0.75-.35,1.5-0.75,2.25-1.05l1.15-.5c0.35-.15.75-0.35,1.15-0.5a19,19,0,0,1,2.35-.9l0.3,1.15h0c-0.55.1-1,.2-1.6,0.25s-1,.15-1.6.2H373l-0.45-.05c-2.55-.25-5-0.7-7.5-1.1l-3.65-.65-0.9-.15-0.45-.1c-0.1,0-.4-0.1-0.55-0.1a21.07,21.07,0,0,1-2.1-.6,75.28,75.28,0,0,1-7.25-3.1c-2.3-1-4.55-2-6.7-2.8l-0.8-.25-0.85-.25-0.25-.05-0.3-.1a4.2,4.2,0,0,0-.6-0.2c-0.35-.15-0.75-0.3-1-0.45a33.33,33.33,0,0,1-3.75-2.1,52.49,52.49,0,0,1-6.45-4.95,67.52,67.52,0,0,1-5.7-5.65,34.38,34.38,0,0,1-2.6-3.2q-0.6-.83-1.2-1.8c-0.2-.3-0.4-0.65-0.6-1a1.85,1.85,0,0,1-.25-0.55l-0.3-.6a16.71,16.71,0,0,1-1.25-4.75,22.91,22.91,0,0,1,0-4.55,47.52,47.52,0,0,1,1.8-8.05c0.8-2.5,1.6-4.95,2.4-7.25a28.56,28.56,0,0,1,1.5-3.35c0.6-1.1,1.2-2.2,1.75-3.35a24.09,24.09,0,0,0,1.35-3.6c0.4-1.25.85-2.45,1.3-3.65s1-2.4,1.5-3.55l1.6-3.5c1-2.3,2.1-4.65,3.3-6.9s2.3-4.5,3.3-6.85l0.45,0.2c-1,2.3-2.1,4.6-3.2,6.9-0.55,1.15-1.1,2.3-1.55,3.45s-1,2.35-1.4,3.5c-0.9,2.35-1.8,4.7-2.55,7.15a71.45,71.45,0,0,0-1.75,7.35c-0.5,2.5-1.15,4.95-1.9,7.4s-1.6,4.8-2.3,7.25a41,41,0,0,0-1.6,7.35,14.29,14.29,0,0,0,.9,7.25,20.27,20.27,0,0,0,1.9,3.15c0.75,1,1.5,2,2.35,2.95a53.55,53.55,0,0,0,5.3,5.35,43.88,43.88,0,0,0,5.9,4.65,29.93,29.93,0,0,0,3.2,1.9,17.29,17.29,0,0,0,1.7.7l1.8,0.6c2.4,0.9,4.7,2.05,7,3.15a70.57,70.57,0,0,0,6.85,3.15c0.6,0.2,1.15.4,1.75,0.55s1.25,0.25,1.85.4l3.7,0.9c2.45,0.65,4.9,1.4,7.3,2.15h-0.1l3.05,0.2h0l1.55,0.1-1.25.9-2,1.4-1,.7-1,.7-4,2.75,0.1-.1q-7.5,7.88-15.21,15.6c-2.6,2.55-5.15,5.1-8,7.45a9.2,9.2,0,0,1-1.1.85,4.17,4.17,0,0,1-.6.4,4.33,4.33,0,0,0-.5.35,7.28,7.28,0,0,0-1.7,1.8,9.23,9.23,0,0,0-1,2.25,8.64,8.64,0,0,0-.4,2.45v-0.1l1.55,11-0.15-.35h0l9,10.85,0.3,0.35-0.15.4h0c-1,2.25-1.8,4.5-2.65,6.75s-1.6,4.55-2.25,6.9l-1,3.5a29.62,29.62,0,0,1-1.2,3.55,6.83,6.83,0,0,1-2.6,3.15l-0.25.15-0.2.1-0.45.2-0.8.35a13.78,13.78,0,0,0-1.45.85,14,14,0,0,0-2.4,2.45l-2.25,2.85-4.55,5.75c-1.55,1.9-3,3.8-4.6,5.65a12.63,12.63,0,0,0-1.85,2.85,15.49,15.49,0,0,0-1,3.35,7.87,7.87,0,0,1-1.9,3.6c-0.25.25-.5,0.45-0.75,0.7l-0.75.6c-0.5.35-1,.75-1.5,1.1l-0.25.15c-0.3,0,.25.25-1,0.15-1-1.4-.3-0.75-0.5-0.85a0.58,0.58,0,0,0,.3.4,0.39,0.39,0,0,0,.15,0h-0.1a1,1,0,0,0-.35,0,6.23,6.23,0,0,0-.8.2,5.28,5.28,0,0,1-1,.25,25,25,0,0,1-3.8.35,60.76,60.76,0,0,1-7.4-.2,61.66,61.66,0,0,1-7.35-1,17.34,17.34,0,0,1-3.7-1.1,3.34,3.34,0,0,1-1-.6,4.72,4.72,0,0,1-.5-0.5,2.12,2.12,0,0,1-.35-0.9,1.54,1.54,0,0,1,0-.5c0-.1,0-0.2,0-0.3a2.44,2.44,0,0,1,.2-0.55c0.15-.35.3-0.65,0.45-1a28.73,28.73,0,0,1,2.1-3.15,32.87,32.87,0,0,1,2.4-2.85c0.85-.9,1.7-1.8,2.6-2.7a29,29,0,0,1,2.9-2.5,4.73,4.73,0,0,1,1-.55,4.15,4.15,0,0,1,1-.3,14.35,14.35,0,0,1,2-.2c1.25,0,2.45,0,3.6-.1a5.54,5.54,0,0,0,2.9-.9,14.26,14.26,0,0,0,1.1-1.2l1.1-1.4c1.45-1.9,2.85-3.9,4.25-5.9s2.8-4,4.3-6a13.84,13.84,0,0,0,1.85-2.85,12.36,12.36,0,0,0,.85-3.25c0.2-1.2.4-2.45,0.65-3.65a27.27,27.27,0,0,1,1-3.6c0.8-2.35,1.7-4.6,2.55-6.9,0.4-1.15.8-2.25,1.1-3.4l0.25-.85c0-.25.15-0.55,0.2-0.85l0.45-1.8c0.65-2.4,1.45-4.7,2.2-7,1.5-4.65,3-9.25,4.35-13.9,0.3-1.15.6-2.3,0.9-3.5s0.55-2.4.9-3.6c0.6-2.35,1.3-4.7,2-7.05s1.3-4.7,2-7a59.09,59.09,0,0,0,1.65-7,10,10,0,0,0,.2-1.6,3.23,3.23,0,0,0-.2-1.3,2.29,2.29,0,0,0-.75-0.85c-0.4-.3-0.9-0.55-1.4-0.85-1-.55-2.15-1.15-3.25-1.75a33.67,33.67,0,0,1-3.15-2,83.11,83.11,0,0,1-11.31-9.6c-1.75-1.75-3.4-3.55-5-5.5a20.76,20.76,0,0,1-2.2-3.15,22,22,0,0,1-1.5-3.6c-0.75-2.4-1.35-4.75-2-7.05a35.83,35.83,0,0,0-2.45-6.6,12.94,12.94,0,0,0-1.85-2.8,28.32,28.32,0,0,0-2.45-2.45,60.51,60.51,0,0,0-5.65-4.35,135,135,0,0,0-12.36-7.45c-4.35-2.3-8.55-4.75-12.81-7.1s-8.5-4.75-12.81-6.9c-1-.5-2.15-1-3.2-1.45a33.82,33.82,0,0,0-3.4-1.1c-2.3-.7-4.65-1.3-7-2-1.2-.3-2.35-0.65-3.55-1a17.92,17.92,0,0,1-1.75-.55c-0.6-.2-1.2-0.4-1.7-0.55a16.4,16.4,0,0,0-6.8,0,36.6,36.6,0,0,1-7.45.65c-0.65,0-1.25-.05-1.85-0.1s-1.2-.05-1.8-0.1c-1.2,0-2.4,0-3.65-.1s-2.5,0-3.75-.2-2.5-.35-3.7-0.6l-1.8-.45c-0.6-.15-1.15-0.3-1.7-0.4a20.4,20.4,0,0,0-3.45-.45c-2.3-.1-4.65.35-7.15,0.45h-1.8a6,6,0,0,0-1.6.3,8.31,8.31,0,0,0-1.55.7,6.6,6.6,0,0,1-1.9.8,7.42,7.42,0,0,1-2.1.1,13.73,13.73,0,0,1-2-.45,12.81,12.81,0,0,1-3.35-1.85c-1-.75-1.9-1.6-2.85-2.3L181,152.3l-0.2-.15-0.15-.1a5.82,5.82,0,0,0-.75-0.3,14.53,14.53,0,0,0-1.7-.35,30.87,30.87,0,0,1-3.65-.6,18.58,18.58,0,0,1-3.6-1,18.87,18.87,0,0,1-3.2-2c-0.5-.35-1-0.75-1.5-1.15s-1-.8-1.5-1.15a11.28,11.28,0,0,1-1.5-1.2,8.78,8.78,0,0,1-1.2-1.5,17.64,17.64,0,0,1-1.05-1.6c-0.35-.6-0.6-1.1-0.9-1.65-1.15-2.15-2.35-4.3-3.45-6.5-0.55-1.1-1.1-2.2-1.6-3.35a36.62,36.62,0,0,1-1.45-3.5,15,15,0,0,1,.7-11.75,4,4,0,0,1,.65-1,3.27,3.27,0,0,1,1.15-1,2.6,2.6,0,0,1,1.55-.35,4.38,4.38,0,0,1,1.2.15l1.75,0.35a7.58,7.58,0,0,0,1.5.1,4.65,4.65,0,0,0,1.45-.25l0.45-.1a1.78,1.78,0,0,1,.5-0.1,7.08,7.08,0,0,0,1-.2,32.53,32.53,0,0,1,7.65.05,17.6,17.6,0,0,0,3.25,0l0.9-.15,1-.15,1.9-.15c2.5-.15,4.9-0.25,7.25-0.45,1.15-.1,2.35-0.25,3.4-0.45a5.49,5.49,0,0,0,1.2-.4,3.74,3.74,0,0,0,.85-0.9,16.26,16.26,0,0,0,1.6-3c0.55-1.1,1.05-2.25,1.75-3.4a9.88,9.88,0,0,1,1.3-1.75,3.24,3.24,0,0,1,.45-0.4,2.61,2.61,0,0,1,.55-0.4l0.8-.5L202.5,98c2.05-1.3,4.15-2.6,6.25-3.85a74,74,0,0,1,6.55-3.6c0.3-.15.6-0.25,0.9-0.4a5.19,5.19,0,0,1,.5-0.2,4.2,4.2,0,0,0,.6-0.2c0.4-.1.7-0.15,1.05-0.25l1-.15c1.25-.15,2.5-0.3,3.75-0.35,2.45-.2,4.9-0.3,7.35-0.35l3.65-.1c1.3-.05,2.55,0,3.8,0,2.5,0.1,5,.35,7.35.5,1.2,0.1,2.4.2,3.55,0.2h2a4.66,4.66,0,0,1,2.75,1.1A6.9,6.9,0,0,1,255,92.3a13.81,13.81,0,0,0,.8,1.35,3.83,3.83,0,0,0,2.1,1.4,28.6,28.6,0,0,0,3.3,1c1.15,0.3,2.3.55,3.5,0.8,2.35,0.5,4.75.95,7.1,1.35l7.2,1.25c2.4,0.4,4.8.85,7.2,1.25,1.2,0.2,2.4.45,3.55,0.65s2.35,0.35,3.6.55l7.25,1.2q7.2,1.2,14.41,2.55l7.2,1.35,3.6,0.75,3.55,0.75a55.26,55.26,0,0,0,14.06,1.1c2.35-.1,4.75-0.35,7.15-0.6,1.25-.15,2.35-0.25,3.5-0.45s2.3-.45,3.4-0.75c2.3-.6,4.6-1.35,7-1.95a27.66,27.66,0,0,1,7.73-1.1,21.59,21.59,0,0,1,7.7,2c2.35,1,4.5,2.15,6.65,3.1a12.25,12.25,0,0,0,1.55.6,3.29,3.29,0,0,0,.75.2c0.25,0.05.55,0.15,0.8,0.2,1.1,0.25,2.25.35,3.45,0.5,2.4,0.25,4.85.5,7.3,0.8,4.85,0.65,9.71,1.45,14.51,2.3a105,105,0,0,0,14.32,1.3,256,256,0,0,0,29-.85l7.25-.6c2.4-.2,4.75-0.5,7.2-0.85,4.8-.65,9.61-1.35,14.46-2.1,9.61-1.45,19.26-2.9,28.92-4.25,4.85-.65,9.66-1.3,14.56-1.8a121.32,121.32,0,0,1,14.76-.5q7.35,0.15,14.71.9c2.45,0.25,4.9.55,7.3,0.9a65.84,65.84,0,0,1,7.35,1.45c2.45,0.7,4.7,1.55,7,2.4s4.55,1.75,6.85,2.6c4.55,1.8,9,3.6,13.56,5.45h0l-0.65-.1c4-.6,7.9-1.1,11.91-1.55a50.45,50.45,0,0,1,6.1-.2c2,0,4,.1,6,0.15,4,0.15,8,.25,11.91.25,2,0,4-.1,5.9-0.2s4-.25,6-0.35c8-.35,16-0.45,24-0.5l12-.1c4-.05,8-0.25,11.91-0.5,8-.55,15.91-1.25,23.81-2.15,4-.5,7.85-1.15,11.81-1.8s7.85-1.35,11.81-2.1l3-.55c1-.15,2-0.4,3-0.55a18.19,18.19,0,0,1,6.15.2,7.05,7.05,0,0,1,3,1.3,1.7,1.7,0,0,1,.6.8,1.37,1.37,0,0,1,.1.65,1.14,1.14,0,0,1-.3.6,2.05,2.05,0,0,1-.85.55l-0.7.25-5.65,2a104.45,104.45,0,0,1-11.56,3.25c-2,.4-3.9.75-5.85,1.2l-5.85,1.2c-3.9.8-7.8,1.6-11.76,2.35s-7.85,1.5-11.81,2-8,.65-12,0.9-8,.5-12,0.7-8,.4-12,0.55l-6,.2c-2,0-4,.1-6,0.2-8,.45-15.91,1.25-23.81,2.25-4,.5-7.9,1-11.86,1.7a24.75,24.75,0,0,0-2.9.6,9.8,9.8,0,0,0-2.7,1,3.49,3.49,0,0,0-1,.9,2.69,2.69,0,0,0-.45,1.25,20.57,20.57,0,0,1-.6,3,10.85,10.85,0,0,0-.35,2.85,29.22,29.22,0,0,0,.2,3c0.25,2,.6,4,0.85,5.9a28.58,28.58,0,0,1,.3,3c0,1,0,2,0,3,0,2,0,4-.1,6-0.15,4-.35,8-0.8,12a34.72,34.72,0,0,1-1.15,6,25.06,25.06,0,0,1-2.35,5.6c-4.1,7-9.36,13-14.76,18.95h0c-4.65,6.45-9.46,12.8-13.66,19.45q-1.57,2.47-3,5.1a22.19,22.19,0,0,0-2.14,5.25,8.4,8.4,0,0,0,0,2.75,28.34,28.34,0,0,0,.5,2.85,56.37,56.37,0,0,0,1.7,5.65,99.07,99.07,0,0,0,4.65,10.9,83.71,83.71,0,0,0,12.91,19.7,87.81,87.81,0,0,0,8.3,8.4c0.75,0.65,1.5,1.25,2.3,1.9a11.42,11.42,0,0,1,1.1,1.1,3.77,3.77,0,0,1,.9,1.5,9.9,9.9,0,0,1,.25,1.55,13.4,13.4,0,0,0,.35,1.35L611,292a3.45,3.45,0,0,1,.15.4c0,0.3.1,0.55,0.15,0.85a6.11,6.11,0,0,1-.1,1.65,18.44,18.44,0,0,1-2.3,5.7,55.19,55.19,0,0,1-3.35,5l-0.9,1.2c-0.3.4-.6,0.75-0.9,1.15-0.6.8-1.15,1.6-1.7,2.4-1.1,1.65-2.15,3.35-3.15,5-2,3.4-4,6.85-6.15,10.2l-6.35,10.1c-1,1.7-2.1,3.35-3,5.1a25.59,25.59,0,0,0-1.35,2.6,8.57,8.57,0,0,0-.5,1.3,5.88,5.88,0,0,0-.15,1.35,11.28,11.28,0,0,0,.3,2.85,7.72,7.72,0,0,1,.2,1.55,2.88,2.88,0,0,1-.45,1.75,5.07,5.07,0,0,1-1.25,1.1,9.11,9.11,0,0,1-1.35.75,27.76,27.76,0,0,1-2.8,1.2l-11.21,4h-0.2l-11.11.3-0.1-1h0.7a0.45,0.45,0,0,1,.35.3,0.56,0.56,0,0,1,0,.45l-0.15.15s0,0-.1,0H553.8a3.89,3.89,0,0,1-.8.1c-0.5,0-1,.15-1.55.2s-1,.1-1.6.1a4.31,4.31,0,0,1-.8,0c-0.15,0-.3,0-0.45,0a1.87,1.87,0,0,1-.55-0.2,0.79,0.79,0,0,1-.3-0.45V358.9h0v-0.15c0-.1,0-0.25.1-0.35a3.86,3.86,0,0,0,.1-0.75l0.15-1.5c0.1-1,.15-2,0.2-3V353l0-.1a34.66,34.66,0,0,1,2.15-3.75c0.4-.6.85-1.2,1.3-1.75a9.76,9.76,0,0,1,1.65-1.55,5,5,0,0,1,1-.5,8.63,8.63,0,0,1,1-.35c0.7-.2,1.4-0.4,2.1-0.55,1.4-.35,2.8-0.65,4.2-1l-0.25.15,5.7-6.25h0l-0.1.15,12.26-28.1h0l0,0.2-0.25-9.25h0l0,0.2-2.7-4.15-1.35-2.1-0.7-1-0.35-.5a3,3,0,0,1-.3-0.55l-4.9-8.65h0c-2.6-3-5.4-5.8-8.2-8.6s-5.7-5.55-8.6-8.25c-5.85-5.4-11.86-10.55-18-15.6a48.26,48.26,0,0,1-8.1-8.8,43.58,43.58,0,0,1-5.4-10.65,44.88,44.88,0,0,1-2.3-11.75,40,40,0,0,1,0-6,39.56,39.56,0,0,1,.8-5.95h0l2.15-6,1.1-2.95c0.35-1,.7-2,1.1-3h0l0.1,0.35-9.41-5.3,0.1,0.1h0Z"/>
  </g>
  <g id="eye_ball" data-name="eye ball">
    <g id="Group">
      <path id="Shape-2" class="cls-1" d="M294.36,347.25a12.8,12.8,0,0,1,1.35.25c7,1.3,31.17,4,48.68,0,18.61-4.3,39.27-8.6-1.2-6.55-5.55.3-23.26,0.5-23.26,0.5s-6,4.85-9.51,6"/>
      <path id="Shape-3" class="cls-1" d="M294.36,347.25a12.8,12.8,0,0,1,1.35.25c7,1.3,31.17,4,48.68,0,18.61-4.3,39.27-8.6-1.2-6.55-5.55.3-23.26,0.5-23.26,0.5s-6,4.85-9.51,6"/>
      <path id="Shape-4" class="cls-1" d="M549.84,359.75c0.45,0.1,1,.15,1.4.25,10.06,1.45,23.91.1,35-1.65,11.61-1.8,42-3.1,38.82-6.1s-33-2.35-38.52-2-3-1-5,1.65-7.5,4.25-13,5.9"/>
      <path id="Shape-5" class="cls-1" d="M549.84,359.75c0.45,0.1,1,.15,1.4.25,10.06,1.45,23.91.1,35-1.65,11.61-1.8,42-3.1,38.82-6.1s-33-2.35-38.52-2-3-1-5,1.65-7.5,4.25-13,5.9"/>
      <path id="Shape-6" class="cls-1" d="M693.42,342c37.72,1.35,37.62-5.2,52.78-6.1,7.25-.45,31.27-4.85,16.06-5.5-6.6-.25-25.36-1.35-23.86-1.4,4.1-.1-24.26-2.2-27.36.2a48.25,48.25,0,0,0-5,4.2c-1.25,1.35-1.7,2.6-3,3.1-2.5,1.1-1,2-5.15,2.65-1.75.3-4.55,2.9-4.55,2.9"/>
      <path id="Shape-7" class="cls-1" d="M693.42,342c37.72,1.35,37.62-5.2,52.78-6.1,7.25-.45,31.27-4.85,16.06-5.5-6.6-.25-25.36-1.35-23.86-1.4,4.1-.1-24.26-2.2-27.36.2a48.25,48.25,0,0,0-5,4.2c-1.25,1.35-1.7,2.6-3,3.1-2.5,1.1-1,2-5.15,2.65-1.75.3-4.55,2.9-4.55,2.9"/>
      <path id="Shape-8" class="cls-1" d="M349.54,293.4l6.75,4.25,6.7,4.3,0.1,0,0,0.1,5.45,10.25-0.25-.3,11.41,6.9-0.65-.15a37.17,37.17,0,0,0,4-.85,16,16,0,0,0,1.85-.65,5.69,5.69,0,0,0,1.55-.85,0.41,0.41,0,0,0,.25-0.3h0v0h0v0a0.84,0.84,0,0,0-.1-0.25,6,6,0,0,0-1-1.4,23.89,23.89,0,0,0-3-2.6l-0.35-.25-0.1-.45-0.55-2.9-0.25-1.45-0.3-1.45-1.2-5.8,0.25,0.6-4.5-5.4,0,0,0,0-2.6-3.6,0.45,0.4-6-3.2-6-3.2-0.5-.25-0.2-.5-2-5.5-0.35-1,0.8-.65,9.66-8.3,0.15-.1,0.2-.1c4.45-2.2,9-4.35,13.41-6.5l-0.15.1c5.5-3.6,11-7.25,16.41-10.85l-0.1.1,11-8.85-0.15.15,5.4-5.85,0.1-.1,0.1-.1,9.36-6.05-0.5.8a6.55,6.55,0,0,0,0-1.4,10.93,10.93,0,0,0-.2-1.35,4.71,4.71,0,0,0-.5-1.15,2,2,0,0,0-.75-0.7l-0.1-.05,0-.05-3.1-2.45,0-.05h0l-5.55-5.6,0-.05h0c-2.65-3.3-5.35-6.6-8-9.9l0,0.05q-1.87-1.5-3.9-3c-0.65-.5-1.3-0.95-2-1.4s-1.35-.9-2-1.3a22.58,22.58,0,0,1,2.2,1.1c0.7,0.4,1.4.8,2.1,1.25,1.4,0.85,2.75,1.75,4.1,2.65h0l0,0.05c2.9,3.1,5.7,6.3,8.55,9.4l0-.05,5.8,5.3-0.1-.05,3.2,2.3-0.2-.1a4.21,4.21,0,0,1,1.6,1.35,5,5,0,0,1,.8,1.75c0.15,0.6.25,1.15,0.35,1.75a10.24,10.24,0,0,1,0,1.75l0,0.5-0.45.3-9.2,6.25,0.25-.2-5.25,5.95,0,0.05-0.1.05-10.81,9h0l0,0.05c-5.4,3.7-10.91,7.3-16.36,11l-0.07.2-0.1,0c-4.45,2.2-8.9,4.4-13.41,6.55l0.3-.2-9.61,8.3,0.45-1.65,2,5.5-0.7-.8,6,3.25,5.9,3.3,0.3,0.15,0.2,0.25,2.55,3.65,0-.1,4.4,5.45,0.2,0.25,0,0.3,1,5.85,0.25,1.45,0.25,1.5,0.45,3L384,310a25.44,25.44,0,0,1,3.2,3,7.85,7.85,0,0,1,1.4,2,2.63,2.63,0,0,1,.25.75,1.54,1.54,0,0,1,0,.5,0.63,0.63,0,0,1,0,.3v0.25a2.8,2.8,0,0,1-1,1.3,7.32,7.32,0,0,1-2.15,1.1c-0.7.25-1.4,0.45-2.1,0.65a41.43,41.43,0,0,1-4.2.8h-0.35l-0.3-.2-11.16-7.3-0.2-.1-0.1-.15-5-10.45,0.15,0.15L356,297.9l-6.4-4.55h0Z"/>
      <path id="Shape-9" class="cls-1" d="M415.52,236.55a7,7,0,0,0,1.55.45,9.22,9.22,0,0,0,1.65.15,18.31,18.31,0,0,0,3.3-.2,42.05,42.05,0,0,0,6.5-1.45q3.23-1,6.3-2.25c2.1-.85,4.15-1.75,6.2-2.7,4.1-1.9,8.15-3.9,12.11-6.05,2-1.05,4-2.2,5.9-3.3s3.9-2.3,6-3.45a39.38,39.38,0,0,1,6.6-2.9c0.6-.2,1.15-0.35,1.75-0.5a5.81,5.81,0,0,0,.9-0.2l0.85-.2,3.35-.7c4.5-.95,9-1.75,13.51-2.5,2.25-.4,4.5-0.8,6.75-1.15s4.6-.65,6.85-0.8a114.89,114.89,0,0,1,13.76-.3V209c-4.5.55-9,1.15-13.51,2-2.2.4-4.45,0.85-6.65,1.35s-4.45,1.05-6.65,1.6l-13.31,3.15-3.3.8-0.85.2-0.75.2-1.5.45a36.12,36.12,0,0,0-5.85,2.7c-3.85,2.2-7.85,4.6-12,6.7s-8.35,4-12.61,5.7a77.1,77.1,0,0,1-13.31,4,36.16,36.16,0,0,1-7,.7,20.27,20.27,0,0,1-3.5-.3,9.45,9.45,0,0,1-1.7-.45,6.26,6.26,0,0,1-1.65-.8l0.3-.5h0v0.05Z"/>
      <path id="Shape-10" class="cls-1" d="M614.33,145.2a66.58,66.58,0,0,1,3.65,7c1.1,2.4,2.15,4.8,3.2,7.25s2,4.9,2.9,7.35c0.45,1.25.9,2.5,1.3,3.75a29.59,29.59,0,0,1,1,3.9c0.35,2.65.5,5.25,0.75,7.9s0.5,5.2.85,7.8a64.51,64.51,0,0,0,1.45,7.65,19.94,19.94,0,0,0,1.3,3.55l1.9,3.45a144.48,144.48,0,0,0,8.2,13.35,47,47,0,0,0,4.9,6,25.56,25.56,0,0,1,2.6,3.15c0.8,1.1,1.5,2.25,2.2,3.3a26.51,26.51,0,0,0,2.3,3,26.78,26.78,0,0,0,2.75,2.55,40.65,40.65,0,0,0,6.45,4.15c2.25,1.2,4.65,2.4,7,3.55s4.75,2.2,7,3.55c1.15,0.65,2.3,1.25,3.45,1.9a28.93,28.93,0,0,0,3.6,1.55,56.06,56.06,0,0,0,7.5,2.2c0.3,0.05.65,0.15,1,.2a2.67,2.67,0,0,1,.65.15,1.8,1.8,0,0,1,.6.4,7.81,7.81,0,0,1,1.25,1.8,27.24,27.24,0,0,1,1.5,3.8l0.15,0.5,0,0.25,0,0.15c1.5-.35-2,0.6-1.7.45v-0.1l-0.15-.5,0-.25h0a0.25,0.25,0,0,0,0-.15c3.45-.9,1-0.15,1.75-0.35h0l0.6,1.9,1.15,3.8c0.7,2.55,1.45,5,2.2,7.55,0.2,0.6.35,1.25,0.55,1.85s0.45,1.2.7,1.8c0.5,1.2,1,2.4,1.55,3.6,1,2.4,2.1,4.85,3,7.35a23.35,23.35,0,0,1,1.1,4,15.74,15.74,0,0,0,1,3.55c0.9,2.4,2.15,4.75,3,7.3,0.2,0.65.45,1.3,0.6,2s0.3,1.2.5,1.8a24.07,24.07,0,0,0,1.55,3.5,56.18,56.18,0,0,1,3.45,7.2c0.25,0.65.4,1.25,0.65,1.9s0.45,1.2.65,1.9a2.15,2.15,0,0,1,.1.6,2,2,0,0,1,0,.75,4,4,0,0,1-.55,1c-0.4.55-.75,1-1.1,1.6a34.34,34.34,0,0,1-2.25,3.25,18.28,18.28,0,0,0-1.2,1.55,18.49,18.49,0,0,0-1,1.65,18.87,18.87,0,0,0-.85,1.75c-0.15.3-.25,0.6-0.4,0.9a2.2,2.2,0,0,1-.7.85,0.86,0.86,0,0,1-.6.1,1.79,1.79,0,0,1-.55-0.2c-0.3-.15-0.6-0.3-0.85-0.4a1.34,1.34,0,0,0-1.35.85c-0.35.55-.65,1.15-1,1.7-0.1.15-.15,0.3-0.25,0.45a1.61,1.61,0,0,0-.15.25,0.42,0.42,0,0,1-.35.2h-1a16.53,16.53,0,0,0-3.7,1.1,39.59,39.59,0,0,0-6.9,3.65l-0.2.15,0-.25a21.74,21.74,0,0,0-1.15-3.9l-0.2-.45a3,3,0,0,0-.2-0.4c-0.1-.1-0.1-0.1-0.25,0s-0.1,0-.15,0a0.45,0.45,0,0,1-.25,0,0.43,0.43,0,0,1-.2-0.35,0.38,0.38,0,0,1,0-.2,0.19,0.19,0,0,0-.1-0.1,1.1,1.1,0,0,1-.3-0.25,0.93,0.93,0,0,1-.1-0.35v-1a37.47,37.47,0,0,1-.2-4.1,9.22,9.22,0,0,1,.3-2,4.22,4.22,0,0,1,1-1.9h0l6.4-5-0.1.2c0.2-1.65.35-3.35,0.5-5a42.22,42.22,0,0,0,.2-5,10.61,10.61,0,0,0-.55-2.35c-0.25-.8-0.6-1.55-0.9-2.35-0.65-1.55-1.4-3-2.2-4.55-1.55-3-3.2-6-4.9-8.85-0.45-.75-0.85-1.45-1.3-2.15s-1-1.35-1.45-2c-1-1.35-2.1-2.65-3.15-3.9-2.2-2.55-4.5-5-6.85-7.4a47.29,47.29,0,0,0-3.7-3.4,31.2,31.2,0,0,0-3.9-3l-1-.6-1.15-.55L665,269.65l-4.55-2.3c-3-1.5-6-3-9.1-4.5s-6-3-9.15-4.3a18.3,18.3,0,0,0-2.3-.9c-0.8-.25-1.6-0.55-2.4-0.85-1.6-.6-3.2-1.2-4.75-1.8-3.15-1.2-6.3-2.45-9.46-3.8-1.55-.65-3.1-1.35-4.7-2.05a43.68,43.68,0,0,1-4.5-2.55c-5.75-3.65-11.26-7.7-16.81-11.4a24.72,24.72,0,0,0-2.1-1.35,11.25,11.25,0,0,0-1-.6c-0.35-.2-0.75-0.4-1.15-0.65a26.87,26.87,0,0,1-4.15-3.2c-1.3-1.15-2.5-2.35-3.7-3.5a27.34,27.34,0,0,0-3.7-3.2l1-1.65a34,34,0,0,1,4,3.4c1.25,1.15,2.45,2.3,3.7,3.4a30.75,30.75,0,0,0,3.9,2.95c0.35,0.2.65,0.35,1,.6s0.75,0.45,1.15.65c0.75,0.45,1.45.9,2.2,1.35,5.65,3.75,11.11,7.8,16.76,11.4a41.18,41.18,0,0,0,4.3,2.45c1.5,0.7,3,1.35,4.6,2,3.1,1.3,6.25,2.55,9.41,3.75,1.55,0.6,3.15,1.2,4.75,1.8l2.35,0.85c0.85,0.3,1.65.65,2.45,1,3.1,1.45,6.1,3,9.15,4.5s6,3.1,9,4.7l4.5,2.35,2.25,1.2,1.1,0.6a8.82,8.82,0,0,1,1.15.7,32.63,32.63,0,0,1,4,3.2c1.3,1.15,2.5,2.35,3.7,3.55,2.4,2.45,4.65,5,6.85,7.6,1.1,1.3,2.15,2.65,3.15,4,0.5,0.7,1,1.4,1.45,2.1s0.9,1.5,1.3,2.2c1.65,3,3.3,6,4.8,9,0.75,1.5,1.5,3,2.15,4.65,0.3,0.8.65,1.6,0.9,2.4a10.41,10.41,0,0,1,.55,2.6c0,1.7-.1,3.4-0.25,5.1s-0.35,3.35-.55,5v0.15l-0.1.1-6.5,5,0,0a5.45,5.45,0,0,0-1.2,3.65,36.59,36.59,0,0,0,.2,4,7.38,7.38,0,0,1,0,1,0.18,0.18,0,0,0,0,.15H691a1.1,1.1,0,0,1,.3.25,0.42,0.42,0,0,1,.1.3s0,0.1,0,.1h0a1.07,1.07,0,0,1,.4,0,0.9,0.9,0,0,1,.35.25c0.15,0.2.2,0.35,0.3,0.5l0.2,0.5a22.25,22.25,0,0,1,1.15,4l-0.4-.15c1.1-.75,2.25-1.4,3.4-2a29.68,29.68,0,0,1,3.6-1.7,16.45,16.45,0,0,1,3.85-1.2h1a0.26,0.26,0,0,1,.1-0.15,3,3,0,0,1,.2-0.4l0.45-.9a8.09,8.09,0,0,1,.5-0.9,3,3,0,0,1,.75-0.85,1.36,1.36,0,0,1,.6-0.3,1.65,1.65,0,0,1,.7,0,5.14,5.14,0,0,1,1,.4l0.3,0.1a0.18,0.18,0,0,0,.15,0,1.92,1.92,0,0,0,.4-0.55c0.1-.25.2-0.55,0.35-0.85,0.25-.65.5-1.25,0.8-1.85s0.65-1.2,1-1.8a14.77,14.77,0,0,0,.8-1.85l0.75-1.8c0.15-.3.3-0.55,0.45-0.85a5,5,0,0,1,.55-0.85,14,14,0,0,1,1.2-1.65,1.31,1.31,0,0,1,.4-0.4v-0.35a15.5,15.5,0,0,0-.35-1.9c0-.35-0.15-0.65-0.2-1a7.31,7.31,0,0,0-.25-1,45.4,45.4,0,0,0-3.45-7,24.22,24.22,0,0,1-1.7-3.65,17.15,17.15,0,0,1-.6-2c-0.15-.6-0.4-1.2-0.6-1.8-0.9-2.4-2.2-4.7-3.25-7.15a20.22,20.22,0,0,1-1.25-4,17.63,17.63,0,0,0-1.15-3.6c-1-2.4-2-4.8-3-7.2-0.55-1.2-1-2.4-1.6-3.65-0.25-.6-0.5-1.25-0.75-1.9s-0.4-1.3-.6-2c-0.7-2.55-1.35-5.1-2-7.65L695,261.8l-0.45-1.9v0a8.4,8.4,0,1,1,1.75-.45h0v0.3l0.1,0.5v0c0.35,0-3.2.8-1.7,0.4l0-.1V260.3l-0.1-.45a28.34,28.34,0,0,0-1.2-3.65,7,7,0,0,0-.85-1.5,0.39,0.39,0,0,0-.2-0.15,1.56,1.56,0,0,0-.35-0.1l-1-.25a58.31,58.31,0,0,1-7.6-2.4l-3.7-1.4-3.75-1.3c-2.5-.9-5-1.85-7.4-2.85l-3.65-1.5c-1.2-.5-2.45-1.05-3.7-1.6a42.08,42.08,0,0,1-7.3-4.05,25.51,25.51,0,0,1-3.35-2.8,29.74,29.74,0,0,1-2.85-3.35c-0.85-1.1-1.55-2.2-2.3-3.15a18.63,18.63,0,0,0-2.25-2.55,50.31,50.31,0,0,1-5.4-6.5c-1.6-2.25-3-4.55-4.4-6.85s-2.6-4.7-3.85-7l-1.8-3.6a22.21,22.21,0,0,1-1.5-4.45,70.16,70.16,0,0,1-1.15-8.2c-0.25-2.7-.35-5.35-0.45-8l-0.1-4-0.2-1.9c0-.65,0-1.3-0.1-1.85a13.65,13.65,0,0,0-.3-1.7c-0.15-.6-0.3-1.2-0.45-1.85-0.35-1.25-.7-2.45-1.1-3.7-0.75-2.5-1.6-5-2.45-7.45s-1.7-4.95-2.6-7.4-1.85-4.9-2.9-7.3v-0.3h0Z"/>
      <path id="Shape-11" class="cls-1" d="M226.12,99.1a10,10,0,0,0-1.15,4.3,5.35,5.35,0,0,0,1.4,4,6.06,6.06,0,0,0,1.75,1.2c0.65,0.35,1.35.6,2.05,0.9a29.45,29.45,0,0,1,4.25,1.95,7.41,7.41,0,0,1,1.9,1.65,3.39,3.39,0,0,1,.6,1.2c0.05,0.2.1,0.45,0.15,0.65s0.05,0.4.1,0.6a25.16,25.16,0,0,1,.05,4.75c-0.25,3.1-.75,6.15-1.2,9.2s-1,6-1.2,9c-0.05.75-.1,1.5-0.1,2.2a6.26,6.26,0,0,0,.25,2,10.26,10.26,0,0,0,.4,1l0.45,1c0.3,0.7.6,1.4,0.9,2a17,17,0,0,0,2.25,3.7,4.25,4.25,0,0,0,3.15,1.8h0.45a0.82,0.82,0,0,0,.5-0.1,3.81,3.81,0,0,0,1-.3,9.42,9.42,0,0,0,1.9-.9,17.51,17.51,0,0,0,3.3-2.8,37.88,37.88,0,0,0,2.85-3.5c0.85-1.2,1.75-2.45,2.55-3.75a37.75,37.75,0,0,1,2.6-3.9l1.5-1.8,0.8-.85a5.46,5.46,0,0,0,.65-0.85,9.55,9.55,0,0,0,1.4-4,38,38,0,0,1,.7-4.6,12.36,12.36,0,0,1,.75-2.3,13.9,13.9,0,0,1,1.1-2.1c0.4-.65.9-1.3,1.35-1.9a10.62,10.62,0,0,0,1.2-1.85,4.08,4.08,0,0,0,.4-2,8.53,8.53,0,0,0-.4-2.15,9,9,0,0,0-2-3.9,15.9,15.9,0,0,0-3.65-2.55,6.09,6.09,0,0,0-2-.75,2.21,2.21,0,0,0-1,.1c-0.35.1-.65,0.25-1,0.4a2.25,2.25,0,0,1-1.3.2,2.81,2.81,0,0,1-1.15-.6c-0.65-.45-1.2-1-1.8-1.45a10.67,10.67,0,0,0-4-1.95,12.13,12.13,0,0,0-4.45.05,16,16,0,0,1-4.65.25l0.05-.5a17,17,0,0,0,4.45-.55,12.9,12.9,0,0,1,4.85-.35,8.43,8.43,0,0,1,1.2.3,7.78,7.78,0,0,1,1.15.4,10.33,10.33,0,0,1,2.2,1.2c0.65,0.45,1.25.9,1.85,1.3,0.2,0.1.25,0.15,0.35,0.2a0.38,0.38,0,0,0,.2,0,0.1,0.1,0,0,0,.1,0,0.77,0.77,0,0,0,.3-0.15,9.72,9.72,0,0,1,1.2-.55,4.54,4.54,0,0,1,1.65-.2,6.65,6.65,0,0,1,1.5.3c0.25,0.1.45,0.15,0.65,0.25l0.6,0.25c0.7,0.3,1.45.65,2.2,1a9.34,9.34,0,0,1,2.25,1.6,10.77,10.77,0,0,1,1.75,2.3,17.59,17.59,0,0,1,1.1,2.45,12,12,0,0,1,.7,2.8,7.33,7.33,0,0,1-.5,3.4,13.92,13.92,0,0,1-1.4,2.5c-0.4.65-.8,1.2-1.1,1.75a17.46,17.46,0,0,0-.75,1.7,14.19,14.19,0,0,0-.4,1.7c-0.25,1.2-.25,2.6-0.45,4.3a16.64,16.64,0,0,1-.6,2.8,9.7,9.7,0,0,1-1.4,2.9,7.83,7.83,0,0,1-1,1.25l-0.15.15-0.1.1-0.2.2-0.35.35-1.35,1.5a30.27,30.27,0,0,0-2.45,3.5c-0.45.65-.85,1.35-1.35,2s-1,1.3-1.5,1.9a36.78,36.78,0,0,1-3.35,3.55,17.43,17.43,0,0,1-4.2,3,11,11,0,0,1-2.55.9c-0.45.1-.9,0.15-1.3,0.2h-1.4a5,5,0,0,1-2.65-1,8.4,8.4,0,0,1-1.7-1.85,25.88,25.88,0,0,1-2.25-4.15c-0.35-.7-0.6-1.4-1-2.1l-0.45-1a11.73,11.73,0,0,1-.5-1.1,15.38,15.38,0,0,1-.5-4.75,55.69,55.69,0,0,1,1.05-9.2c0.5-3,1.05-6,1.35-9.05a21.73,21.73,0,0,0,.1-4.4l-0.05-.55a1.19,1.19,0,0,0-.1-0.45,2.41,2.41,0,0,0-.4-0.8,5.41,5.41,0,0,0-1.45-1.35,29.87,29.87,0,0,0-4-2c-0.7-.3-1.4-0.65-2.1-1a12,12,0,0,1-1.05-.65,7.69,7.69,0,0,1-1-.85,6.31,6.31,0,0,1-1.2-2.2,6.83,6.83,0,0,1-.25-2.45,10.84,10.84,0,0,1,1.45-4.5L226,99h0Z"/>
      <path id="Shape-12" class="cls-1" d="M180.9,152.15c1.65,0.1,4.85.15,6.25,0.65s2.65-.3,4,0.3l1.3,0.6a4.21,4.21,0,0,1-1.1,1.05c-1,.8-0.55,1.25-2.35,1.45s-4.3-1.15-4.9-1.6-3.15-2.45-3.15-2.45H180.9Z"/>
      <path id="Shape-13" class="cls-1" d="M180.9,152.05h3a20.64,20.64,0,0,1,3,.2,2.44,2.44,0,0,1,.7.15h0.65c0.45,0,.9-0.05,1.4-0.05a3.11,3.11,0,0,1,1.6.35l1.3,0.75,0.2,0.15-0.1.15h0a1.16,1.16,0,0,1-.2.5c-0.1.15-.15,0.25-0.25,0.4a2.18,2.18,0,0,1-.3.35,1.33,1.33,0,0,1-.3.25,2.65,2.65,0,0,0-.45.55,2.87,2.87,0,0,1-.4.45,1.19,1.19,0,0,1-.55.3,2.32,2.32,0,0,1-1,.2l-0.25.05H188.2a6.78,6.78,0,0,1-1.8-.4,12.05,12.05,0,0,1-1.65-.75c-0.25-.15-0.5-0.3-0.8-0.45l-0.2-.15a0.69,0.69,0,0,1-.2-0.15l-0.35-.25c-0.85-.75-1.65-1.55-2.5-2.3l-0.3-.25h0.5v-0.05Zm0.7,0.25c0.8,0.5,1.55,1,2.35,1.5l0.35,0.25,0.15,0.1,0.15,0.1a3.06,3.06,0,0,0,.7.35,9.39,9.39,0,0,0,1.5.6,8,8,0,0,0,1.5.3,4.31,4.31,0,0,0,1.4-.15,0.71,0.71,0,0,0,.4-0.3,4.15,4.15,0,0,1,.65-0.7c0.15-.1.25-0.2,0.35-0.25a1.25,1.25,0,0,1,.35-0.2l0.35-.2a1.06,1.06,0,0,1,.35-0.15h0l0.1,0.35a11.54,11.54,0,0,1-1.4-.5,2.62,2.62,0,0,0-1.25-.1,12.69,12.69,0,0,1-1.5.15,2.27,2.27,0,0,1-.8-0.15,6.07,6.07,0,0,0-.7-0.25,17,17,0,0,0-2.85-.5c-0.65-.1-1.4-0.2-2.15-0.25h0Z"/>
      <path id="Shape-14" class="cls-1" d="M205.56,117.25a8.1,8.1,0,0,1,1.85,1.15A15.54,15.54,0,0,1,209,120a12.38,12.38,0,0,1,1.4,1.8,9.16,9.16,0,0,1,1.05,2.1l0.15,0.45-0.3.45-0.1.15h-0.05l-0.1.1-0.15.15c-0.1.1-.2,0.15-0.3,0.25a3.37,3.37,0,0,1-.55.35,2.9,2.9,0,0,1-1.05.35,3.58,3.58,0,0,1-1,.1h-0.65a2.44,2.44,0,0,1-.6,0,4.75,4.75,0,0,1-3.35-2.6,5.73,5.73,0,0,1-.3-3.85,6,6,0,0,1,.25-0.9,2.69,2.69,0,0,1,.5-0.8,2.63,2.63,0,0,1,.7-0.6,1.56,1.56,0,0,1,1-.2h0Zm0,0a0.92,0.92,0,0,0-.85.25,2.45,2.45,0,0,0-.6.65,2.3,2.3,0,0,0-.35.8l-0.15.9a4.42,4.42,0,0,0,.9,3.2,3.48,3.48,0,0,0,2.55,1.25,0.63,0.63,0,0,0,.3,0h0.3c0.25-.1.5-0.25,0.75-0.35s0.45-.2.65-0.3a0.85,0.85,0,0,1,.25-0.1l0.1-.05h0l-0.05.1-0.15,1c-0.1-.6-0.25-1.3-0.4-2s-0.35-1.35-.55-2a6.8,6.8,0,0,0-1.05-1.85,4.26,4.26,0,0,0-1.65-1.3h0v-0.2Z"/>
      <path id="Shape-15" class="cls-1" d="M168.39,113.1a7.86,7.86,0,0,1,2.15,2.65,6.77,6.77,0,0,1,1.05,3.3,5.43,5.43,0,0,1-.05.9c0,0.15-.05.3-0.05,0.45l-0.1.45a3.73,3.73,0,0,1-.85,1.65,7.82,7.82,0,0,1-1.35,1,2.63,2.63,0,0,0-1,1.25,2.54,2.54,0,0,1,.75-1.5A5.48,5.48,0,0,0,170,122.1a2.65,2.65,0,0,0,.35-1.4v-0.4c0-.1-0.05-0.25-0.05-0.35-0.05-.25-0.15-0.45-0.2-0.7-0.15-.45-0.35-1-0.5-1.45l-0.4-1.5a29.89,29.89,0,0,1-.85-3.2h0.05Z"/>
      <path id="Shape-16" class="cls-1" d="M291,103.5c0.9,12-8.1,54.6-16.46,64.4l-9-3.65c3.85-6.2,9.86-21.55,12.16-30.7s5.25-27.25,5.1-31.5l8.65,1.5"/>
      <path id="Shape-17" class="cls-1" d="M291,103.5c0.9,12-8.1,54.6-16.46,64.4l-9-3.65c3.85-6.2,9.86-21.55,12.16-30.7s5.25-27.25,5.1-31.5l8.65,1.5"/>
      <path id="Shape-18" class="cls-1" d="M294.36,347.25a20.28,20.28,0,0,1,1.35-4.5,13,13,0,0,1,2.6-4,9,9,0,0,1,1-.9,7,7,0,0,1,1.2-.75,6.35,6.35,0,0,1,2.6-.45,15.09,15.09,0,0,0,2.15,0,16,16,0,0,0,2.1-.5h0a0.31,0.31,0,0,1,.35.15,0.22,0.22,0,0,1,0,.25,6,6,0,0,1-2,1.4,8.9,8.9,0,0,1-2.4.6,4.77,4.77,0,0,0-1.85.5,5.29,5.29,0,0,0-1.45,1.2,31.1,31.1,0,0,0-2.6,3.45,38.63,38.63,0,0,1-2.9,3.65h-0.05Z"/>
      <path id="Shape-19" class="cls-1" d="M304.36,347.75a4.58,4.58,0,0,1-.8-1.65,5.68,5.68,0,0,1-.15-1.85,4.37,4.37,0,0,1,.55-1.9,2.28,2.28,0,0,1,1.75-1.15,0.29,0.29,0,0,1,.3.28s0,0,0,0v0.15c-0.15.65-.2,1-0.3,1.5a10.79,10.79,0,0,0-.25,1.35l-0.25,1.5c-0.1.55-.2,1.1-0.35,1.65h0a0.28,0.28,0,0,1-.34.2h0a0.27,0.27,0,0,0-.15-0.1h0Z"/>
      <path id="Shape-20" class="cls-1" d="M312.42,347.55a11,11,0,0,1-1.5-.7,3.07,3.07,0,0,1-1-1,4.61,4.61,0,0,1-.5-1,2.06,2.06,0,0,1,0-1.45,2.18,2.18,0,0,1,.7-0.9,2.92,2.92,0,0,1,.9-0.4,0.34,0.34,0,0,1,.4.25h0l0,0.85a2,2,0,0,0,.15.5,0.27,0.27,0,0,0,.2,0,0.9,0.9,0,0,1,.3.25,3.53,3.53,0,0,1,.9,1.35,2.09,2.09,0,0,1-.25,2,0.37,0.37,0,0,1-.45.2h0Z"/>
      <path id="Shape-21" class="cls-1" d="M383.4,311.3a3.57,3.57,0,0,1-1.4,2.6,9.48,9.48,0,0,1-1,.45c-0.35.15-.75,0.25-1.15,0.4a10.43,10.43,0,0,1-2.8.5,5.91,5.91,0,0,1-1.8-.3,5.26,5.26,0,0,1-1.55-.9,6.64,6.64,0,0,1-1-1.1l-0.4-.55-0.3-.5c-0.2-.3-0.4-0.65-0.6-1a6.34,6.34,0,0,1-.6-1.15c-0.55-1.4-1.15-2.8-1.6-4.3v0a0.24,0.24,0,0,1,.4-0.25c0.55,0.55,1,1.1,1.5,1.7s1,1.15,1.45,1.75c0.25,0.35.4,0.5,0.65,0.8s0.5,0.55.75,0.8l0.4,0.4,0.35,0.35a5.5,5.5,0,0,0,.7.55,2.17,2.17,0,0,0,1.45.35,7.1,7.1,0,0,0,1.85-.45c0.35-.1.65-0.25,1-0.35a9,9,0,0,1,1-.4,4.12,4.12,0,0,1,2.45,0,0.28,0.28,0,0,1,.2.34h0l0,0.25h0Z"/>
      <path id="Shape-22" class="cls-1" d="M693.12,341.4a39.37,39.37,0,0,0-.6-5L692.07,334a20.87,20.87,0,0,1-.35-2.55,6.1,6.1,0,0,1,0-1.35,2.79,2.79,0,0,1,.5-1.35,2.62,2.62,0,0,1,.5-0.55l0.55-.4a12.65,12.65,0,0,1,1.1-.65,12.12,12.12,0,0,0,2.1-1.2c0.65-.5,1.25-1,1.9-1.6a14.72,14.72,0,0,1-1.55,2,8.52,8.52,0,0,1-2,1.55,7.15,7.15,0,0,0-1,.7l-0.45.35a2.31,2.31,0,0,0-.35.35,4.06,4.06,0,0,0-.4,2.1c0.1,1.6.4,3.3,0.5,5a14,14,0,0,1,0,5h0v0Z"/>
      <path id="Shape-23" class="cls-1" d="M306.26,183.95c2.45,3.65,4.3,11.15,5.1,13.75s9,3.55,9.51,6-1.75-7.25-.65-12c1-4.1-2.7-5-5.8-6.65s-8.85-3.8-11.26-4.75-5.45-1.9-5.45-1.9l8.55,5.55h0Z"/>
      <path id="Shape-24" class="cls-1" d="M306.26,183.95c2.45,3.65,4.3,11.15,5.1,13.75s9,3.55,9.51,6-1.75-7.25-.65-12c1-4.1-2.7-5-5.8-6.65s-8.85-3.8-11.26-4.75-5.45-1.9-5.45-1.9l8.55,5.55h0Z"/>
      <path id="Shape-25" class="cls-1" d="M555,360.25l1.85-7.45s5.3-3.3,7.3-4.25c0,0-6.6,2.4-7.85,3.15s-3.7,5.15-4.45,6.8c-0.55,1.25-1.5,0-2.3,1.85l5.45-.1h0Z"/>
      <path id="Shape-26" class="cls-1" d="M555,360.25l1.85-7.45s5.3-3.3,7.3-4.25c0,0-6.6,2.4-7.85,3.15s-3.7,5.15-4.45,6.8c-0.55,1.25-1.5,0-2.3,1.85l5.45-.1h0Z"/>
      <path id="Shape-27" class="cls-1" d="M559.55,358.75l2.35-3.8-0.6,4-1.75-.25h0Z"/>
      <path id="Shape-28" class="cls-1" d="M559.55,358.75l2.35-3.8-0.6,4-1.75-.25h0Z"/>
      <path id="Shape-29" class="cls-1" d="M565.7,358.65l2.15-4.9-0.65,4.6-1.5.3h0Z"/>
      <path id="Shape-30" class="cls-1" d="M565.7,358.65l2.15-4.9-0.65,4.6-1.5.3h0Z"/>
      <path id="Shape-31" class="cls-1" d="M551.55,350.4l4-2.9,3.5-.85-9,4.8"/>
      <path id="Shape-32" class="cls-1" d="M551.55,350.4l4-2.9,3.5-.85-9,4.8"/>
      <path id="Shape-33" class="cls-1" d="M571,357l0.45-3.85,0.3,3.3"/>
      <path id="Shape-34" class="cls-1" d="M571,357l0.45-3.85,0.3,3.3"/>
      <path id="Shape-35" class="cls-1" d="M548,358.35a4.59,4.59,0,0,0,.2,3c0.45,0.9,1-1.6,2-2.3s-2.2-.65-2.2-0.65h0Z"/>
      <path id="Shape-36" class="cls-1" d="M548,358.35a4.59,4.59,0,0,0,.2,3c0.45,0.9,1-1.6,2-2.3s-2.2-.65-2.2-0.65h0Z"/>
      <path id="Shape-37" class="cls-1" d="M552.55,358.25a6.29,6.29,0,0,0,.3,3.6c0.5,1.1.9-2,2-2.75s-2.25-.85-2.25-0.85h0Z"/>
      <path id="Shape-38" class="cls-1" d="M552.55,358.25a6.29,6.29,0,0,0,.3,3.6c0.5,1.1.9-2,2-2.75s-2.25-.85-2.25-0.85h0Z"/>
      <path id="Shape-39" class="cls-1" d="M174.89,114c6.45,0.7,11.86,1.25,16.06.5s8.85,1.45,11.41-2.5a44.73,44.73,0,0,1,9.2-10.95c4.8-4.15,4.85-7.55,8.3-9.4,5.55-3,9.1-1.15,14.51-1.65s7.25,1.45,9.61.25,3.1,0.65,3.75.7-14.86.65-21.11,0.5c-8.6-.2-10.71.6-15.91,4.45-3.65,2.7-11.36,4.8-12.31,7s-3.4,8.85-7.4,9.25-8.85.55-12.06,1-9.31.85-10.61,0,6.6,0.85,6.6.85h0Z"/>
      <path id="Shape-40" class="cls-1" d="M174.94,113.75c3.7,0.4,7.4.8,11.11,0.85a25.3,25.3,0,0,0,2.75-.1l1.35-.15c0.45-.05.9-0.15,1.4-0.2a41.83,41.83,0,0,1,5.6.05,7.75,7.75,0,0,0,2.65-.4,4.64,4.64,0,0,0,2.1-1.55c1.05-1.5,2.05-3.1,3.15-4.6a37.15,37.15,0,0,1,3.65-4.25c0.65-.65,1.35-1.3,2.05-1.95a24.29,24.29,0,0,0,2.05-1.9,26.2,26.2,0,0,0,3.35-4.4,14.76,14.76,0,0,1,1.7-2.25,8.59,8.59,0,0,1,2.3-1.7,14.85,14.85,0,0,1,5.45-1.55,41.73,41.73,0,0,1,5.6.15,16.86,16.86,0,0,0,2.8-.05,17.5,17.5,0,0,1,2.8-.1,25.28,25.28,0,0,1,2.8.3,17.64,17.64,0,0,0,2.7.4,3.92,3.92,0,0,0,1.3-.2,8.47,8.47,0,0,1,1.35-.5,2.21,2.21,0,0,1,1.5.15,8.32,8.32,0,0,1,1.2.8,0.71,0.71,0,0,0,.2.1c0.3,0.9-.15.35,0,0.5H245.4l-2.8.1c-3.7.15-7.45,0.25-11.16,0.3s-7.45-.2-11.11.2a14.57,14.57,0,0,0-5.2,1.55,43.09,43.09,0,0,0-4.6,3.05c-3.2,2.05-6.8,3.2-10,5-0.4.25-.75,0.5-1.1,0.75a3.24,3.24,0,0,0-.4.45c-0.05.1-.1,0.15-0.15,0.25l-0.15.3c-0.35.85-.7,1.75-1.1,2.6a17.53,17.53,0,0,1-3.1,4.8,6.85,6.85,0,0,1-2.45,1.65,5.78,5.78,0,0,1-1.45.3l-1.4.15c-1.85.15-3.7,0.3-5.6,0.4s-3.7.25-5.55,0.5a52.71,52.71,0,0,1-5.6.4,1.7,1.7,0,0,0-.7.1,4.44,4.44,0,0,1-.7.15,0.78,0.78,0,0,1-.7-0.25,1.22,1.22,0,0,0-.65-0.55,3.19,3.19,0,0,1-1.35-.35,0.42,0.42,0,0,1-.15-0.15,0.13,0.13,0,0,1,.1-0.15l0.1-.05h1.05a26.8,26.8,0,0,1,2.8.35l2.7,0.6h0Zm-0.1.5c-0.9-.2-1.8-0.5-2.7-0.75a16.68,16.68,0,0,0-2.75-.5,3.3,3.3,0,0,0-.7,0h-0.45l0.1,0.1a3,3,0,0,0,1.35.35,25.77,25.77,0,0,0,2.8.1,51.77,51.77,0,0,0,5.55-.4c1.85-.2,3.7-0.35,5.55-0.5s3.7-.25,5.55-0.4l1.4-.15a6.41,6.41,0,0,0,1.35-.25,5.7,5.7,0,0,0,2.25-1.55,17.62,17.62,0,0,0,3-4.65c0.4-.85.75-1.7,1.1-2.55a4.13,4.13,0,0,1,.35-0.65,5,5,0,0,1,.5-0.55,5.94,5.94,0,0,1,1.15-.8c3.25-1.85,6.85-3,10-5a50.12,50.12,0,0,1,4.65-3.1,14.4,14.4,0,0,1,5.4-1.6,52.46,52.46,0,0,1,5.6-.2h5.6c3.7-.05,7.45-0.15,11.16-0.3l2.8-.1h2.4c0.15,0.15-.25-0.4.05,0.5a1.2,1.2,0,0,1-.45-0.15,4.78,4.78,0,0,0-1.1-.75,2,2,0,0,0-1.2-.1,6.53,6.53,0,0,0-1.25.5,3.55,3.55,0,0,1-1.45.25,16.44,16.44,0,0,1-2.8-.4,24.38,24.38,0,0,0-2.75-.3,17.09,17.09,0,0,0-2.75.1h-2.8c-1.85,0-3.7-.25-5.55-0.15a13.8,13.8,0,0,0-5.25,1.5,6.92,6.92,0,0,0-2.2,1.6,14.86,14.86,0,0,0-1.65,2.2,29.12,29.12,0,0,1-3.4,4.45,24.29,24.29,0,0,1-2.05,1.9c-0.7.6-1.35,1.25-2,1.9a36.23,36.23,0,0,0-3.6,4.2c-1.1,1.5-2.1,3-3.15,4.6a5,5,0,0,1-2.35,1.7,7.88,7.88,0,0,1-2.85.4,51.66,51.66,0,0,0-5.55-.05c-0.45.05-.9,0.15-1.35,0.2L189,115c-1,0-1.85.1-2.8,0.1-3.85-.05-7.55-0.45-11.31-0.85h0Z"/>
      <path id="Shape-41" class="cls-1" d="M323,204.9c-2.2,5.95,11.51,23,15.76,26.15s5.25,4.75,2.8,13.55-5.6,21.3-7.5,27-4.6,14-5.2,16.4,4.7-1,5.2,5.45,3.9,7.3,1.7,13.1-4.9,6.2-7.1,12-5.8.9-5.85,7.9-1.9,9.15-2.5,10.3,8.45-9,11.46-12.55,7.5-7,9.61-11c3.4-6.4,3.25-11,5.2-15.85l2-4.9-8.7-10.65-1.7-12.45a169.09,169.09,0,0,1,11.26-12.7c5.16-5.05,6-5.9,10.56-10.6s11.21-10.35,14.61-10.95a62.51,62.51,0,0,0-14.41-3.8c-6-.7-20.16-9.95-23.61-11.85S323,204.9,323,204.9h0Z"/>
      <path id="Shape-42" class="cls-1" d="M323,204.9c-2.2,5.95,11.51,23,15.76,26.15s5.25,4.75,2.8,13.55-5.6,21.3-7.5,27-4.6,14-5.2,16.4,4.7-1,5.2,5.45,3.9,7.3,1.7,13.1-4.9,6.2-7.1,12-5.8.9-5.85,7.9-1.9,9.15-2.5,10.3,8.45-9,11.46-12.55,7.5-7,9.61-11c3.4-6.4,3.25-11,5.2-15.85l2-4.9-8.7-10.65-1.7-12.45a169.09,169.09,0,0,1,11.26-12.7c5.16-5.05,6-5.9,10.56-10.6s11.21-10.35,14.61-10.95a62.51,62.51,0,0,0-14.41-3.8c-6-.7-20.16-9.95-23.61-11.85S323,204.9,323,204.9h0Z"/>
      <path id="Shape-43" class="cls-1" d="M401.21,205.3c4.7,0.2,7.5,3.15,11,8.45s12.81,11.8,15.56,14.1,8.3,4.75,13.36,4.25-9.71,4.3-12.91,5.25c-4.2,1.25-16.86,1-16.86,1,11.11-.8,12.56-3.85,13.66-8.25,0.9-3.55-5.45-6.5-13.51-15.15-2.75-3-10.31-9.7-10.31-9.7h0v0Z"/>
      <path id="Shape-44" class="cls-1" d="M401.21,205.3c4.7,0.2,7.5,3.15,11,8.45s12.81,11.8,15.56,14.1,8.3,4.75,13.36,4.25-9.71,4.3-12.91,5.25c-4.2,1.25-16.86,1-16.86,1,11.11-.8,12.56-3.85,13.66-8.25,0.9-3.55-5.45-6.5-13.51-15.15-2.75-3-10.31-9.7-10.31-9.7h0v0Z"/>
      <path id="Shape-45" class="cls-1" d="M417,125.55s-5,1.2-7,.5-2.4-2-5.45-2.2-5,.45-8.1.9-12.91-3-12.91-3l5.15,4.25-2.35,1a60.22,60.22,0,0,1,6.85,3.2c2.75,1.6,5.5,3.55,3.55,7.35s-0.9,4.4-4.6,4.5-2.1-3-3.7.1-2,3.75-6.7,2.2-5.1-1.2-7.2-4.2-2.85-5.65-4.9-6-7.85-2.85-6.1-1.55,4.45,2.6,4.2,4.95-1.6,2.75,2.15,4.65,5.8,1.55,7.55,4.55,6.55,5.55,2.15,5.35-7.2-5.2-6.8-1.85-0.3,2.35.5,7,1,2,1.2,8.05-0.1,8.45,2.3,11.1,5.55,5.6,2.15,4.65-9.56-4.15-6.5-2.55,2.1,3.65,7.25,6.9,7-.85,8.8,1.8-0.8,3.45,1.85,5.35,5.15,2.9,8.45.8,3.6-3.45,7-2.2-1,1.4,2.3-2.75,5-.8,4.9-5.55-2.85-6.65,2.55-4.8,7.2,3.5,9.51,2.8,4.35-1.15,4.35-1.15-5,1.8-4.5-4.25-2.65-10.4,3.2-6.85,5.9,5.9,8.35,8.9,4.2,6.65,5.8,2.9-4.15-3.95.15-6.4,3.4,0.25,7.75-1.2,5.4-.15,6.35-1.5-9.46-.75-9.2-3.45,4-2.8,1.55-4.45-6.7,1.85-6.1-1.85,3-2.8,7.35-2.2,8.1,0.45,9.91,4.15,0.85,6.05,5.55,6,3.4,1.25,9.81.4,8.15,1.45,8.15,1.45l-7,2.2a14.43,14.43,0,0,0,5.15,3.9c3,1.25,2.75,2.65,7.8,2.15s7.1,1.5,9.81,1.45-2-.6-2.8-3.3-0.8-5.05,2.65-2.1a47.32,47.32,0,0,1,4.85,4.6s-2.75-2.65.55-4.4l3.35-1.75s-0.7-1.65,2.35-.4l3,1.25a15.56,15.56,0,0,1-.8-4.7c0-2.7-2.1-2.65,1.25-3.05s5.65-3.85-2.1-2.65-8.3,4.6-12.11,2.7l-3.75-2s1.35,0,2-3.1-1.1-3.35-3.15-5.3,0-1,.55-4-2.1-2.65-.8-5.05,2-1.75,3.3-2.1-3.1-2.3-5.15-2.55-3.1-2-1.1-3,2.65-2.75-.75-2.35-4.35,1.8-7.4,1.2-4.15-3.25-5.1-1.2,0.45,3.7-2.25,4.1-3.75-2-4,.8,2.45,3.65-.9,4.75-4,.8-5.6,4.55,3.85,5.3-1.6,3.75-7,1.55-8.8-1.8,0.9-3.4-4.2-6.65-7.3-7.55-11.31-5.45,0.1,3.35-7.4,1.2-9.81-1.1-11.61-5.45-1.35-.65-1.8-4.35-1-.65-0.45-3.7c1-3.1-1.1-4-1.1-4H417Z"/>
      <path id="Shape-46" class="cls-1" d="M417,125.55s-5,1.2-7,.5-2.4-2-5.45-2.2-5,.45-8.1.9-12.91-3-12.91-3l5.15,4.25-2.35,1a60.22,60.22,0,0,1,6.85,3.2c2.75,1.6,5.5,3.55,3.55,7.35s-0.9,4.4-4.6,4.5-2.1-3-3.7.1-2,3.75-6.7,2.2-5.1-1.2-7.2-4.2-2.85-5.65-4.9-6-7.85-2.85-6.1-1.55,4.45,2.6,4.2,4.95-1.6,2.75,2.15,4.65,5.8,1.55,7.55,4.55,6.55,5.55,2.15,5.35-7.2-5.2-6.8-1.85-0.3,2.35.5,7,1,2,1.2,8.05-0.1,8.45,2.3,11.1,5.55,5.6,2.15,4.65-9.56-4.15-6.5-2.55,2.1,3.65,7.25,6.9,7-.85,8.8,1.8-0.8,3.45,1.85,5.35,5.15,2.9,8.45.8,3.6-3.45,7-2.2-1,1.4,2.3-2.75,5-.8,4.9-5.55-2.85-6.65,2.55-4.8,7.2,3.5,9.51,2.8,4.35-1.15,4.35-1.15-5,1.8-4.5-4.25-2.65-10.4,3.2-6.85,5.9,5.9,8.35,8.9,4.2,6.65,5.8,2.9-4.15-3.95.15-6.4,3.4,0.25,7.75-1.2,5.4-.15,6.35-1.5-9.46-.75-9.2-3.45,4-2.8,1.55-4.45-6.7,1.85-6.1-1.85,3-2.8,7.35-2.2,8.1,0.45,9.91,4.15,0.85,6.05,5.55,6,3.4,1.25,9.81.4,8.15,1.45,8.15,1.45l-7,2.2a14.43,14.43,0,0,0,5.15,3.9c3,1.25,2.75,2.65,7.8,2.15s7.1,1.5,9.81,1.45-2-.6-2.8-3.3-0.8-5.05,2.65-2.1a47.32,47.32,0,0,1,4.85,4.6s-2.75-2.65.55-4.4l3.35-1.75s-0.7-1.65,2.35-.4l3,1.25a15.56,15.56,0,0,1-.8-4.7c0-2.7-2.1-2.65,1.25-3.05s5.65-3.85-2.1-2.65-8.3,4.6-12.11,2.7l-3.75-2s1.35,0,2-3.1-1.1-3.35-3.15-5.3,0-1,.55-4-2.1-2.65-.8-5.05,2-1.75,3.3-2.1-3.1-2.3-5.15-2.55-3.1-2-1.1-3,2.65-2.75-.75-2.35-4.35,1.8-7.4,1.2-4.15-3.25-5.1-1.2,0.45,3.7-2.25,4.1-3.75-2-4,.8,2.45,3.65-.9,4.75-4,.8-5.6,4.55,3.85,5.3-1.6,3.75-7,1.55-8.8-1.8,0.9-3.4-4.2-6.65-7.3-7.55-11.31-5.45,0.1,3.35-7.4,1.2-9.81-1.1-11.61-5.45-1.35-.65-1.8-4.35-1-.65-0.45-3.7c1-3.1-1.1-4-1.1-4H417Z"/>
      <path id="Shape-47" class="cls-1" d="M160,136.5s7.45,6,5.8,4.85c-5.15-3.65-2.65-7.8-4-10.7-0.65-1.35-1.8,5.85-1.8,5.85h0Z"/>
      <path id="Shape-48" class="cls-1" d="M160,136.5s7.45,6,5.8,4.85c-5.15-3.65-2.65-7.8-4-10.7-0.65-1.35-1.8,5.85-1.8,5.85h0Z"/>
      <path id="Shape-49" class="cls-1" d="M228,101.15c0.3,3.65,2.05,4.55,8.25,6.85,5.6,2.1,9.36,8.85,7.05,12-3,4-2.7,10.85-2.6,15.25s-2.4,7.15.55,10.1,1.35,2.8,4.1,1.25c3.35-1.85-2.9-5.25-.3-10.1s8-.25,10.26-3.65,2-2.85,2.7-8.8-4.35-.2-6-6.65,2-7-4.9-7.65-0.7-2.15-5.2-3.45c-5.25-1.5-4.55,1.55-6.75-.25a83,83,0,0,0-7.16-4.9h0Z"/>
      <path id="Shape-50" class="cls-1" d="M228.37,101.65a4.73,4.73,0,0,0,.35,1.45,3.63,3.63,0,0,0,1.2,1.55,13.34,13.34,0,0,0,3.65,1.9l2,0.75a16.69,16.69,0,0,1,2,.8,12.6,12.6,0,0,1,3.5,2.55,14,14,0,0,1,2.55,3.55,7.2,7.2,0,0,1,.85,4.35,3.38,3.38,0,0,1-.35,1.15,4.4,4.4,0,0,1-.3.5l-0.3.45a10.08,10.08,0,0,0-.9,1.8,17.6,17.6,0,0,0-1,4,51.6,51.6,0,0,0-.3,8.35,10.86,10.86,0,0,1-.05,2.2,14.83,14.83,0,0,1-.35,2.15,9.12,9.12,0,0,0-.35,4,3.81,3.81,0,0,0,.85,1.6,2.31,2.31,0,0,0,.35.35l0.4,0.4c0.25,0.25.5,0.55,0.75,0.8s0.45,0.55.7,0.8l0.15,0.15h0c-0.1-.05-0.2,0-0.15,0l0.15-.1c0.25-.15.6-0.4,0.9-0.6s0.65-.35.85-0.5a1,1,0,0,0,.4-1.25,13.79,13.79,0,0,0-.8-1.85,8.91,8.91,0,0,1-1.1-4.35,5.37,5.37,0,0,1,.65-2.2,5,5,0,0,1,1.45-1.8,4.69,4.69,0,0,1,2.2-.9,10.88,10.88,0,0,1,2.2,0c0.7,0,1.4.1,2.05,0.1a3.08,3.08,0,0,0,1.7-.45,1.72,1.72,0,0,0,.6-0.6l0.6-.85a10.81,10.81,0,0,0,1.05-1.75,12.32,12.32,0,0,0,.8-4l0.25-2.1a4.47,4.47,0,0,0-.1-1.85,0.72,0.72,0,0,0-.4-0.45,2.16,2.16,0,0,0-.85-0.15,6.43,6.43,0,0,1-2.25-.45,3.73,3.73,0,0,1-1.7-1.7,8.83,8.83,0,0,1-.75-2.1,15.67,15.67,0,0,1-.4-4.3c0-.35.05-0.7,0.05-1.05a1.4,1.4,0,0,0-.15-0.75,1.32,1.32,0,0,0-.65-0.4c-0.3-.1-0.6-0.15-1-0.25-1.35-.25-2.75-0.3-4.2-0.55-0.35-.1-0.7-0.15-1.1-0.3a2.07,2.07,0,0,1-.55-0.35,0.9,0.9,0,0,1-.3-0.8c0-.25.1-0.45,0.1-0.6a0.6,0.6,0,0,0-.45-0.85,7.68,7.68,0,0,0-1.9-.6,6.81,6.81,0,0,0-2-.2,2.93,2.93,0,0,0-1,.2c-0.3.1-.6,0.25-1,0.4a2.48,2.48,0,0,1-.65.15,1.39,1.39,0,0,1-.65-0.15,4.16,4.16,0,0,1-.9-0.65,69.32,69.32,0,0,0-6.5-4.55h0Zm-0.2-.75c2.4,1.5,4.8,3,7.05,4.7a3.29,3.29,0,0,0,.8.55,1.11,1.11,0,0,0,.8,0c0.3-.1.6-0.3,1-0.45a4.37,4.37,0,0,1,1.1-.25,8,8,0,0,1,2.2.15,8.47,8.47,0,0,1,2.1.65,1.8,1.8,0,0,1,.5.35,1.21,1.21,0,0,1,.4.65,3.28,3.28,0,0,1-.1,1.15,0.14,0.14,0,0,0,.05.15,1.56,1.56,0,0,0,.3.2,5.28,5.28,0,0,0,1,.25c1.35,0.25,2.75.3,4.2,0.55a11.26,11.26,0,0,1,1.1.25,2.18,2.18,0,0,1,1.1.75,2.08,2.08,0,0,1,.23,1.2v1.1a15.47,15.47,0,0,0,.4,4.05,7.37,7.37,0,0,0,.65,1.85A3,3,0,0,0,254.3,120a5.37,5.37,0,0,0,1.9.35,4,4,0,0,1,1.2.25,1.73,1.73,0,0,1,1,1.05,5.44,5.44,0,0,1,.15,2.35l-0.25,2.1c-0.1.7-.15,1.4-0.25,2.1a7.07,7.07,0,0,1-.65,2.15,17.4,17.4,0,0,1-1.15,1.9l-0.6.9a3.85,3.85,0,0,1-.9.9,4.35,4.35,0,0,1-2.3.65,15.12,15.12,0,0,1-2.15-.1,5.22,5.22,0,0,0-3.65.7,3.71,3.71,0,0,0-1.15,1.45,4.7,4.7,0,0,0-.55,1.8,7.54,7.54,0,0,0,1,3.75,11,11,0,0,1,.85,2.05,2.47,2.47,0,0,1,0,1.35,2.13,2.13,0,0,1-.85,1.1,10.94,10.94,0,0,1-1,.55c-0.3.2-.55,0.35-0.9,0.55l-0.3.15a0.46,0.46,0,0,1-.3.05,1.24,1.24,0,0,1-.4-0.05,0.68,0.68,0,0,1-.4-0.3,0.88,0.88,0,0,1-.2-0.25l-0.65-.8a9.6,9.6,0,0,0-.7-0.75l-0.35-.35-0.4-.4a5.29,5.29,0,0,1-1.1-2.1,6,6,0,0,1-.05-2.3c0.1-.75.25-1.45,0.4-2.1a13.94,13.94,0,0,0,.4-4,48.36,48.36,0,0,1,.35-8.5,15.91,15.91,0,0,1,1.15-4.2,10.52,10.52,0,0,1,1.05-2l0.3-.45a2.79,2.79,0,0,0,.25-0.4,3.79,3.79,0,0,0,.3-0.9,6.44,6.44,0,0,0-.75-3.8,12.8,12.8,0,0,0-2.35-3.3,14.24,14.24,0,0,0-3.25-2.45c-0.6-.3-1.25-0.55-1.9-0.8s-1.3-.5-2-0.8a13.88,13.88,0,0,1-3.75-2.1,4.63,4.63,0,0,1-1.3-1.8,6.61,6.61,0,0,1-.45-2.15l-0.05-.5,0.45,0.3h0Z"/>
      <path id="Shape-51" class="cls-1" d="M260.49,141.85c9,6.15,42.47,12.7,42.47,12.7s-17.06-6.3-29-14.5c-7.75-5.35-11-5.9-10.56-6.8s-4.85,7.3-3,8.6h0Z"/>
      <path id="Shape-52" class="cls-1" d="M260.49,141.85c9,6.15,42.47,12.7,42.47,12.7s-17.06-6.3-29-14.5c-7.75-5.35-11-5.9-10.56-6.8s-4.85,7.3-3,8.6h0Z"/>
      <path id="Shape-53" class="cls-1" d="M260.39,143.25c-0.1.75,25,11.9,27,13.1s5.1,9.55,12.21,11.6c10.21,3-2.5-.25-12.51-3.45-9-2.85-9-4.3-18.41-6.4-8.9-2-7.35-.25-8.9-2s0.65-13.6.65-13.6"/>
      <path id="Shape-54" class="cls-1" d="M260.39,143.25c-0.1.75,25,11.9,27,13.1s5.1,9.55,12.21,11.6c10.21,3-2.5-.25-12.51-3.45-9-2.85-9-4.3-18.41-6.4-8.9-2-7.35-.25-8.9-2s0.65-13.6.65-13.6"/>
      <path id="Shape-55" class="cls-1" d="M352.69,116.5c-5.5,11.7,4.1-9.9,21.76-9.6,11.31,0.2-12.26,1.65-17.41,2.5s-25.46.7-21.71,1.45c7.4,1.45,18.86,2.5,17.36,5.65h0Z"/>
      <path id="Shape-56" class="cls-1" d="M352.69,116.5c-5.5,11.7,4.1-9.9,21.76-9.6,11.31,0.2-12.26,1.65-17.41,2.5s-25.46.7-21.71,1.45c7.4,1.45,18.86,2.5,17.36,5.65h0Z"/>
      <path id="Shape-57" class="cls-1" d="M513.22,192.15a3,3,0,0,0,1.65-.25c1.5-2.65,6.55-14.1,4.6-10.35-2.55,4.9-8.2,12.7-14.66,15"/>
      <path id="Shape-58" class="cls-1" d="M513.22,192.15a3,3,0,0,0,1.65-.25c1.5-2.65,6.55-14.1,4.6-10.35-2.55,4.9-8.2,12.7-14.66,15"/>
      <path id="Shape-59" class="cls-1" d="M596.22,118.1s9.15,4.2,11.26,7.55L593.37,117l2.85,1.1h0Z"/>
      <path id="Shape-60" class="cls-1" d="M596.22,118.1s9.15,4.2,11.26,7.55L593.37,117l2.85,1.1h0Z"/>
      <path id="Shape-61" class="cls-1" d="M577.76,228.5c-2.6,5.05-5,11.45-7,15.05s-0.25,9.45-.25,9.45,1.3-7.55,3.9-12.15c0.65-1.2,3.3-12.35,3.3-12.35h0Z"/>
      <path id="Shape-62" class="cls-1" d="M577.76,228.5c-2.6,5.05-5,11.45-7,15.05s-0.25,9.45-.25,9.45,1.3-7.55,3.9-12.15c0.65-1.2,3.3-12.35,3.3-12.35h0Z"/>
      <path id="Shape-63" class="cls-1" d="M615,168.55s0.35,14.55.75,30-7.55,20.1,4.2,32,15.61,16.8,21.16,21.4,12.36,10.5,12.36,10.5S629.61,252.4,624.3,250.1s-15.66-8.75-20.26-12-13.66-9-16.46-11.65a19.62,19.62,0,0,1-4-5.45s14.71-18.6,20.91-26.85,10.49-23.3,10.56-25.6h0Z"/>
      <path id="Shape-64" class="cls-1" d="M615,168.55s0.35,14.55.75,30-7.55,20.1,4.2,32,15.61,16.8,21.16,21.4,12.36,10.5,12.36,10.5S629.61,252.4,624.3,250.1s-15.66-8.75-20.26-12-13.66-9-16.46-11.65a19.62,19.62,0,0,1-4-5.45s14.71-18.6,20.91-26.85,10.49-23.3,10.56-25.6h0Z"/>
      <path id="Shape-65" class="cls-1" d="M268.49,111.95c-0.75-.8-1.65-1.7-2.65-2.7a11.71,11.71,0,0,1,1.45,3.75c1.15,4.55-1.9,5.1-3.8,9.7s-0.3,8.6-3.75,12.25-3.9,5.65-6.85,9.8-5.85,7.75-10.41,8.35-7.3-7.4-8.35-9.9,0.25-9.1,1.15-14.7,1.72-10.15,1.15-13.75-6.2-4.4-9.31-6.35-3.2-5.7-1.45-9.2c0-.15,1.85-1.45,1.9-1.6-6.45-.5-16,5.8-21.51,11.5s-5.9,6.9-9.41,8.5-2.45,3.1-.7,5.25,4.5,3.6,5.4,6.95a24.57,24.57,0,0,0,2.5,6.2c1.05,2,6.25.7,10.51,1.25s2.35,0,3.6,1.25-6.75-.35-8.55,1.75,0.35-.35-2.6,3.1-1.9,3.95-4.05,6.2a72.85,72.85,0,0,1-5.7,5.1s8.55-.75,13.61.25a66.86,66.86,0,0,0,13.76,1.35c5.2,0,8.3-1,12.26-.85s18,4.1,20.86,5.15a38.46,38.46,0,0,1,5.4,2.25,67.22,67.22,0,0,0-2.35-9.9c-1.85-6-.85-2.7,0-10.6,0.55-5.2,1.8-6.65,4-12.45s0.55-5.9,3-9.35c2.6-3.7,3.55-6,1-8.6h0Zm-43.37,2.25s-10.86-1.55-13.31,1.6c-2.1,2.75-5.45.3-6.15-.3,3.65,1.15,2.45,6.5,7.6,7.5,8.65,1.6,12.61,2.4-2.1,2-0.5,0-.15-0.1-3,0.5-2.3.5-5.45-2-5-3.85,0.8-3.3.35-2.2,1.3-3.85,1.1-1.9,1.85-3.4,1.85-3.4,3.45-2.7,8.15-.8,10.86-0.55s7.9,0.4,7.9.4h0Z"/>
      <path id="Shape-66" class="cls-1" d="M268.29,112.1l-2.65-2.7,0.35-.3a10.9,10.9,0,0,1,1.4,3.45,6.38,6.38,0,0,1,.1,3.75,12.19,12.19,0,0,1-2,3.2,15.1,15.1,0,0,0-1.8,3.15,16.43,16.43,0,0,0-1,3.5c-0.2,1.2-.25,2.45-0.45,3.65a9.87,9.87,0,0,1-1.15,3.55,10.92,10.92,0,0,1-1.1,1.55c-0.45.45-.85,0.9-1.25,1.35a24.69,24.69,0,0,0-2.15,3c-0.65,1-1.25,2.1-1.9,3.15s-1.35,2.1-2.05,3.05-1.45,2-2.25,2.95a15,15,0,0,1-5.9,4.5,11.12,11.12,0,0,1-1.85.45,4.32,4.32,0,0,1-2-.15,6.53,6.53,0,0,1-3-2.35,26.54,26.54,0,0,1-3.45-6.55l-0.35-.85a3.18,3.18,0,0,1-.3-0.9,12.25,12.25,0,0,1-.2-1.9,30,30,0,0,1,.25-3.7c0.3-2.45.7-4.9,1.1-7.3s0.8-4.85,1.1-7.3a27.18,27.18,0,0,0,.25-7.25,3.9,3.9,0,0,0-1.85-2.75,14.06,14.06,0,0,0-3.25-1.6c-1.15-.45-2.3-0.9-3.4-1.45a8,8,0,0,1-1.6-1,13.32,13.32,0,0,1-1.3-1.55,4.27,4.27,0,0,1-.9-1.85,7,7,0,0,1,0-2.05,9.41,9.41,0,0,1,1.35-3.7l-0.05.2a0.18,0.18,0,0,1,.05-0.15l0.05-.1,0.05-.05,0.05-.05h0.1l0.15-.1a1.09,1.09,0,0,0,.25-0.2l0.55-.35,0.55-.3,0.25-.15,0.15-.1h0.05l0.2,0.35a15,15,0,0,0-6.25,1.05,36.45,36.45,0,0,0-5.8,2.8,50.73,50.73,0,0,0-10.11,8c-1.5,1.55-3,3.15-4.45,4.7a14,14,0,0,1-2.45,2.1,13,13,0,0,1-1.4.85,12.72,12.72,0,0,0-1.4.8,3,3,0,0,0-1,1.1,1.51,1.51,0,0,0,.1,1.3,5.26,5.26,0,0,0,.9,1.25,12,12,0,0,0,1.1,1.15c0.75,0.7,1.6,1.4,2.35,2.2a11.18,11.18,0,0,1,2.1,2.7,8.94,8.94,0,0,1,.65,1.6c0.15,0.55.3,1,.45,1.55a14.6,14.6,0,0,0,1.15,2.9c0.25,0.45.5,1,.75,1.4,0.05,0.1.15,0.25,0.2,0.35a0.69,0.69,0,0,1,.15.2,2.19,2.19,0,0,0,.5.3,11.24,11.24,0,0,0,3,.35,41.26,41.26,0,0,1,6.55.15l1.6,0.2,0.8,0.1h0.25a0.56,0.56,0,0,1,.4.15,1.18,1.18,0,0,1,.25.25,0.18,0.18,0,0,1,.05.15,0.5,0.5,0,0,1,.05.15,0.88,0.88,0,0,0,.2.25c0.05,0.1.15,0.15,0.3,0.35a0.38,0.38,0,0,1,.1.25,0.74,0.74,0,0,1-.05.45,0.73,0.73,0,0,1-.4.4,3.08,3.08,0,0,1-.55.15h-4.9c-0.5.05-1.05,0.1-1.55,0.2a3.41,3.41,0,0,0-1.3.55,6,6,0,0,0-.5.55l-0.25.3-0.08.35a7.48,7.48,0,0,1-.55.65l-0.55.6a30.59,30.59,0,0,0-2,2.45,12,12,0,0,0-.8,1.35c-0.25.45-.45,1-0.75,1.45a11.87,11.87,0,0,1-2.15,2.55c-1.6,1.5-3.25,2.85-5,4.2h0l-0.2-.45c2.8-.2,5.6-0.3,8.4-0.25a39.68,39.68,0,0,1,4.2.35c0.7,0.1,1.4.25,2.05,0.4s1.35,0.25,2.05.35a66.55,66.55,0,0,0,8.3.75c1.4,0.05,2.8.1,4.2,0.05s2.8-.2,4.15-0.35,2.8-.35,4.2-0.45h2.1a15,15,0,0,1,2.1.25c2.8,0.5,5.5,1.15,8.2,1.85,5.4,1.45,10.86,2.8,16,5.3l-0.35.25h0c-0.35-2.2-.85-4.4-1.4-6.55-0.3-1.1-.6-2.15-0.9-3.2s-0.65-2.15-1-3.25a4.15,4.15,0,0,1-.1-1.75c0.1-.55.25-1.1,0.35-1.65,0.2-1.1.4-2.2,0.5-3.3s0.25-2.25.45-3.35a24,24,0,0,1,.9-3.25c0.8-2.1,1.75-4.15,2.55-6.2a25.84,25.84,0,0,0,1-3.15,22.68,22.68,0,0,0,.6-3.3,8.91,8.91,0,0,1,.45-1.65,7.29,7.29,0,0,1,.85-1.5c0.65-1,1.25-1.85,1.8-2.8a5.63,5.63,0,0,0,.85-3,3.73,3.73,0,0,0-1.35-2.9h0Zm0.35-.35a6,6,0,0,1,1,1.4,4,4,0,0,1,.5,1.7,6.79,6.79,0,0,1-.9,3.3c-1,2.05-2.8,3.65-3,5.85a22.29,22.29,0,0,1-1.7,6.5c-0.8,2.1-1.75,4.15-2.55,6.2a17.91,17.91,0,0,0-.9,3.2q-0.3,1.65-.45,3.3c-0.15,1.1-.3,2.25-0.5,3.35-0.1.55-.25,1.1-0.35,1.65a3.23,3.23,0,0,0,.1,1.55,29.22,29.22,0,0,0,1,3.2,24,24,0,0,1,.9,3.25,57.21,57.21,0,0,1,1.4,6.6h0l0,0.45-0.45-.2c-5-2.45-10.46-3.85-15.86-5.3-2.7-.7-5.4-1.35-8.15-1.85-0.7-.1-1.4-0.2-2.05-0.25s-1.4,0-2.05,0c-1.4.1-2.75,0.25-4.15,0.45a39.64,39.64,0,0,1-4.2.35c-1.4.05-2.8,0-4.2-.05a68.14,68.14,0,0,1-8.4-.75c-0.7-.1-1.4-0.25-2.1-0.35a14.66,14.66,0,0,0-2.05-.35,28.48,28.48,0,0,0-4.15-.3,77.33,77.33,0,0,0-8.35.25l-0.85.05,0.65-.5h0c1.65-1.35,3.3-2.8,4.8-4.3a11.35,11.35,0,0,0,2-2.4,12.74,12.74,0,0,0,.65-1.45,8.46,8.46,0,0,1,.85-1.45,27.38,27.38,0,0,1,2-2.6l0.5-.6a6.35,6.35,0,0,1,.5-0.6,2.18,2.18,0,0,1,.3-0.35l0.25-.3a6.55,6.55,0,0,1,.6-0.65A3.78,3.78,0,0,1,211,139a9.42,9.42,0,0,1,1.65-.25c1.1-.1,2.2-0.1,3.3-0.1a15.06,15.06,0,0,0,1.55,0l0.25-.05s-0.05,0-.1.15a0.54,0.54,0,0,0-.05.25,0.1,0.1,0,0,0,.05.1,1.37,1.37,0,0,1-.2-0.25,2.77,2.77,0,0,1-.3-0.4,0.38,0.38,0,0,1-.1-0.25h0a0.19,0.19,0,0,0,.1.1h-0.95a9.29,9.29,0,0,1-1.65-.2,45.27,45.27,0,0,0-6.4-.1h-1.65a5.73,5.73,0,0,1-1.75-.35,2.91,2.91,0,0,1-.9-0.55,1.56,1.56,0,0,1-.35-0.45,2.87,2.87,0,0,1-.2-0.35c-0.25-.45-0.5-1-0.75-1.45a23.62,23.62,0,0,1-1.25-3.1c-0.15-.5-0.3-1.05-0.45-1.55a8.43,8.43,0,0,0-.55-1.35,9.57,9.57,0,0,0-1.9-2.4,25.25,25.25,0,0,1-2.25-2.35c-0.4-.45-0.65-0.9-1-1.35a10.68,10.68,0,0,1-.85-1.5,2.92,2.92,0,0,1-.2-0.9,1.73,1.73,0,0,1,.25-0.9,3.34,3.34,0,0,1,1.3-1.1c0.5-.25,1-0.45,1.5-0.65a8,8,0,0,0,1.45-.75,14,14,0,0,0,2.42-2.2c1.5-1.55,2.9-3.2,4.4-4.75a53.75,53.75,0,0,1,10-8.2,35.16,35.16,0,0,1,5.8-2.95,15.41,15.41,0,0,1,6.4-1.25H228l-0.15.35h0L227.8,98v0l-0.05.05H227.7l-0.1.1-0.2.25-0.45.45-0.45.45-0.2.2-0.1.1-0.05.05h0l0.05-.1c0-.05.05-0.1,0.05-0.15V99.5l-0.05.15a11.56,11.56,0,0,0-.75,3.35,9.1,9.1,0,0,0,.05,1.65c0.1,0.5.05,1.1,0.2,1.65a3.22,3.22,0,0,0,.9,1.4,7.1,7.1,0,0,0,1.4,1c1.05,0.55,2.2,1,3.3,1.55a17.43,17.43,0,0,1,3.3,1.75,6,6,0,0,1,1.4,1.35,2.54,2.54,0,0,1,.45.9,6.66,6.66,0,0,1,.25,1,28.09,28.09,0,0,1-.25,7.4c-0.35,2.45-.75,4.85-1.15,7.3s-0.8,4.85-1.1,7.3a29.83,29.83,0,0,0-.25,3.65,10.93,10.93,0,0,0,.15,1.8,5.46,5.46,0,0,0,.25.85l0.35,0.85a25.66,25.66,0,0,0,3.4,6.45,6,6,0,0,0,2.75,2.15,3.26,3.26,0,0,0,1.7.15,11.27,11.27,0,0,0,1.75-.45,13.54,13.54,0,0,0,5.7-4.35c0.8-1,1.55-1.9,2.25-2.9s1.4-2,2.05-3.05,1.25-2.1,1.9-3.15a25.65,25.65,0,0,1,2.2-3,16.61,16.61,0,0,1,1.25-1.35,9.7,9.7,0,0,0,1-1.45,10,10,0,0,0,1.1-3.4c0.2-1.2.25-2.45,0.45-3.65a14.79,14.79,0,0,1,1-3.6,18.84,18.84,0,0,1,1.85-3.25,12.36,12.36,0,0,0,1.9-3,6.42,6.42,0,0,0-.1-3.5,11.49,11.49,0,0,0-1.35-3.35l-1.25-2,1.65,1.7,2.7,2.4h0v-0.05Z"/>
      <path id="Shape-67" class="cls-1" d="M225.07,114.45a44.6,44.6,0,0,0-5.15-.35,21.79,21.79,0,0,0-5.1.45,6.24,6.24,0,0,0-2.3,1,3.24,3.24,0,0,0-.45.4,2,2,0,0,1-.45.5,2.57,2.57,0,0,1-1.15.75,3.6,3.6,0,0,1-2.7-.1,7.15,7.15,0,0,1-2.3-1.35h0l-0.9-.85,1.1,0.4a4.6,4.6,0,0,1,1.35.8,5.8,5.8,0,0,1,1,1.2c0.55,0.85,1,1.75,1.45,2.55a6.41,6.41,0,0,0,.85,1.1,0.3,0.3,0,0,0,.3.15,0.5,0.5,0,0,1,.4.05,4.37,4.37,0,0,1,.4.5,2.51,2.51,0,0,0,.4.6,2.37,2.37,0,0,0,.6.35,6.46,6.46,0,0,0,1.4.4c1.9,0.45,3.85.8,5.75,1.3a3.68,3.68,0,0,1,.7.2l0.35,0.15a0.27,0.27,0,0,1,.15.1c0.05,0,.15,0,0.1.15a1.06,1.06,0,0,1-.35.15h-1.1c-1,.05-2,0-3,0H211a0.81,0.81,0,0,0-.35.2l-0.65.5a1.63,1.63,0,0,1-.7.2l-0.7.15a3.89,3.89,0,0,1-.8.1,5.34,5.34,0,0,1-3.05-1.05,5.93,5.93,0,0,1-1.15-1.1,4.72,4.72,0,0,1-.75-1.4,1.63,1.63,0,0,1,0-.85l0.2-.7,0.35-1.45a2.21,2.21,0,0,1,.25-0.75,2.83,2.83,0,0,1,.4-0.65c0.25-.4.5-0.85,0.75-1.25a26,26,0,0,0,1.4-2.6v-0.05h0.05a7.36,7.36,0,0,1,4.6-1.5,21.77,21.77,0,0,1,4.8.6,19.06,19.06,0,0,0,2.35.3l2.4,0.15c1.6,0.1,3.2.15,4.75,0.2l-0.05.4h0Zm0.05,0-4.8-.15-2.4-.15a19.85,19.85,0,0,1-2.4-.35,21.26,21.26,0,0,0-4.7-.6,7.13,7.13,0,0,0-4.35,1.35l0.05-.1c-0.45.85-1,1.75-1.4,2.6l-0.75,1.3c-0.1.2-.25,0.4-0.35,0.6a2.47,2.47,0,0,0-.2.65l-0.3,1.45-0.15.7a1.23,1.23,0,0,0,.05.6,4.37,4.37,0,0,0,4.25,2.55,4,4,0,0,0,.65-0.15l0.7-.15a1.82,1.82,0,0,1,.75-0.1c0.25,0.1.55,0.1,0.8,0.2a3,3,0,0,1,.4.2,0.85,0.85,0,0,0,.35,0h9.3a0.54,0.54,0,0,0,.3-0.1,0.11,0.11,0,0,0-.1-0.1,0.14,0.14,0,0,1-.15-0.1,0.93,0.93,0,0,0-.35-0.1,3.68,3.68,0,0,1-.7-0.2c-1.9-.4-3.85-0.75-5.8-1-0.5-.1-1-0.15-1.45-0.25a4.17,4.17,0,0,1-.75-0.2,5.57,5.57,0,0,1-.85-0.1,1.38,1.38,0,0,1-.75-0.4,0.75,0.75,0,0,1-.1-0.5,0.74,0.74,0,0,0-.15-0.4,7.14,7.14,0,0,1-.75-1.35c-0.45-.9-0.75-1.85-1.25-2.65a3.39,3.39,0,0,0-2.1-1.7l0.25-.45h0a6.23,6.23,0,0,0,2.08,1.25,3.46,3.46,0,0,0,2.35.1,3.13,3.13,0,0,0,1-.65,4.37,4.37,0,0,0,.4-0.5,4.71,4.71,0,0,1,.5-0.5,6.63,6.63,0,0,1,2.45-1,23.13,23.13,0,0,1,5.2-.45,44.69,44.69,0,0,1,5.2.4l0.05,0.55h0Z"/>
      <path id="Shape-68" class="cls-1" d="M318.82,213.95a52.37,52.37,0,0,0,8.7-.65s7.75,13.3,10.51,14.25-6-.6-6-0.6l-13.26-13h0Z"/>
      <path id="Shape-69" class="cls-1" d="M318.82,213.95a52.37,52.37,0,0,0,8.7-.65s7.75,13.3,10.51,14.25-6-.6-6-0.6l-13.26-13h0Z"/>
      <path id="Shape-70" class="cls-1" d="M166,113.9a29.93,29.93,0,0,1-7.45.3,1.71,1.71,0,0,0-1.45,1.3c-0.15.8,1.45,0.6,0.55,1.65,0,0-1.05.65-1.5,0.3-0.6-.5.85-3.2,0.85-3.2-1.45.35-1.7,1.7-2.45,3.55-1,2.35-.05,7.7,1,10.6s3.75,7.8,5.25,8.65,2.15-1.75,1.75-3.25,0.1-1.85-.1-4.7-2.15,1.05-4.8-2.25-1.75-5-.65-6.25a0.78,0.78,0,0,1,1.35.15c0.55,1,1.2,1.15,1.1,2.85s0.55,1.5,2.25,2.45c4,2.25,2.35-.9,4.65-3.5a8.38,8.38,0,0,1,1.45-1.45,1.88,1.88,0,0,1,.2-0.65c0.55-1.55-.85-3.9-2-6.55h0Z"/>
      <path id="Shape-71" class="cls-1" d="M166,113.9a29.93,29.93,0,0,1-7.45.3,1.71,1.71,0,0,0-1.45,1.3c-0.15.8,1.45,0.6,0.55,1.65,0,0-1.05.65-1.5,0.3-0.6-.5.85-3.2,0.85-3.2-1.45.35-1.7,1.7-2.45,3.55-1,2.35-.05,7.7,1,10.6s3.75,7.8,5.25,8.65,2.15-1.75,1.75-3.25,0.1-1.85-.1-4.7-2.15,1.05-4.8-2.25-1.75-5-.65-6.25a0.78,0.78,0,0,1,1.35.15c0.55,1,1.2,1.15,1.1,2.85s0.55,1.5,2.25,2.45c4,2.25,2.35-.9,4.65-3.5a8.38,8.38,0,0,1,1.45-1.45,1.88,1.88,0,0,1,.2-0.65c0.55-1.55-.85-3.9-2-6.55h0Z"/>
      <path id="Shape-72" class="cls-1" d="M601.62,302.6c3.8-2.9.1-.65,5.15-2.7,3.75-1.55,2.15-3.2,2.15-3.2s1.6,4.65-2.6,4.9-3.55,1-5,4.5a31.83,31.83,0,0,0-1.9,5.6c-1.3-3.45.35-7.65,2.25-9.1h0Z"/>
      <path id="Shape-73" class="cls-1" d="M601.62,302.6c3.8-2.9.1-.65,5.15-2.7,3.75-1.55,2.15-3.2,2.15-3.2s1.6,4.65-2.6,4.9-3.55,1-5,4.5a31.83,31.83,0,0,0-1.9,5.6c-1.3-3.45.35-7.65,2.25-9.1h0Z"/>
      <path id="Shape-74" class="cls-1" d="M608,299.4c-2.35,1.65-5.4-.25-7,4.55-0.35,1-1.5,6.6-2.8,9s-9.2,9.85-10.76,14-5.15,8.9-7.1,13-1.9,5.45-2.45,8.85-2,6.5-3.2,6.9S581.14,352,581,351s-0.3-9.45,3.9-15.6,8-15,10.66-18.5c0.65-.9.75-0.8,12.36-17.55h0Z"/>
      <path id="Shape-75" class="cls-1" d="M608,299.4c-2.35,1.65-5.4-.25-7,4.55-0.35,1-1.5,6.6-2.8,9s-9.2,9.85-10.76,14-5.15,8.9-7.1,13-1.9,5.45-2.45,8.85-2,6.5-3.2,6.9S581.14,352,581,351s-0.3-9.45,3.9-15.6,8-15,10.66-18.5c0.65-.9.75-0.8,12.36-17.55h0Z"/>
      <path id="Shape-76" class="cls-1" d="M367.25,288.8s5.5,2.25,8,5.55,4.55,6,5,10.35,3.45,5.75,4.55,8.1,1.45,6,3.1,5.4c7.1-2.65,1.35-1.4-.75-3.55s-3-.5-4.5-7.9-3.25-8.9-5.9-12.8-5-5.55-6.75-6.2a2.3,2.3,0,0,0-2.7,1"/>
      <path id="Shape-77" class="cls-1" d="M367.25,288.8s5.5,2.25,8,5.55,4.55,6,5,10.35,3.45,5.75,4.55,8.1,1.45,6,3.1,5.4c7.1-2.65,1.35-1.4-.75-3.55s-3-.5-4.5-7.9-3.25-8.9-5.9-12.8-5-5.55-6.75-6.2a2.3,2.3,0,0,0-2.7,1"/>
      <path id="Shape-78" class="cls-1" d="M289,343.3a8.07,8.07,0,0,0-.9,4.35c0.3,2,1.7-3,2.9-2.65s-2-1.7-2-1.7h0Z"/>
      <path id="Shape-79" class="cls-1" d="M289,343.3a8.07,8.07,0,0,0-.9,4.35c0.3,2,1.7-3,2.9-2.65s-2-1.7-2-1.7h0Z"/>
      <path id="Shape-80" class="cls-1" d="M294.56,346.45s-1.25,1.4-1,2.55,1.75-1.8,3-1.6-2-1-2-1h0Z"/>
      <path id="Shape-81" class="cls-1" d="M294.56,346.45s-1.25,1.4-1,2.55,1.75-1.8,3-1.6-2-1-2-1h0Z"/>
      <path id="Shape-82" class="cls-1" d="M292.21,346.45s2.45-5,6.8-7-1.85,3.4-1.85,3.4l-2.6,3.55h-2.35v0.05Z"/>
      <path id="Shape-83" class="cls-1" d="M292.21,346.45s2.45-5,6.8-7-1.85,3.4-1.85,3.4l-2.6,3.55h-2.35v0.05Z"/>
      <path id="Shape-84" class="cls-1" d="M514.23,191.55a60.85,60.85,0,0,1-18.61,8.2c-9,2.25-12,2.85-23.16,5.35-1.35.3-5.6,3-8,5.6,0,0,16.26-5.15,28.62-6.15,3.45-.25,1.65-0.35,1.65-0.35s-2.55,3.75-10.86,5.35c-3.4.65-15.51,5.1-18.81,7.2s-19.86,11.45-21.56,12.8a36,36,0,0,1-6.75,4.6s15-6.75,24.21-11.7a74.34,74.34,0,0,1,24-8.65c9.71-2,22.56-4.25,25.21-4.45s9.25-.65,9.25-0.65l4.3-11.85-9.41-5.3h0Z"/>
      <path id="Shape-85" class="cls-1" d="M514.23,191.55a60.85,60.85,0,0,1-18.61,8.2c-9,2.25-12,2.85-23.16,5.35-1.35.3-5.6,3-8,5.6,0,0,16.26-5.15,28.62-6.15,3.45-.25,1.65-0.35,1.65-0.35s-2.55,3.75-10.86,5.35c-3.4.65-15.51,5.1-18.81,7.2s-19.86,11.45-21.56,12.8a36,36,0,0,1-6.75,4.6s15-6.75,24.21-11.7a74.34,74.34,0,0,1,24-8.65c9.71-2,22.56-4.25,25.21-4.45s9.25-.65,9.25-0.65l4.3-11.85-9.41-5.3h0Z"/>
      <path id="Shape-86" class="cls-1" d="M171.94,114.4c3.05,1,4.1,2.25,2.85,6.55"/>
      <path id="Shape-87" class="cls-1" d="M172,114.15a8.59,8.59,0,0,1,2,.85,4,4,0,0,1,.85.75,2.82,2.82,0,0,1,.55,1,5.49,5.49,0,0,1,.1,2.2,15.73,15.73,0,0,1-.45,2.1,0.24,0.24,0,0,1-.45-0.15h0a14.37,14.37,0,0,0,.45-2,4.26,4.26,0,0,0-.1-1.95,2.61,2.61,0,0,0-1.2-1.45,7.67,7.67,0,0,0-1.85-.8,0.22,0.22,0,0,1-.16-0.27v0c-0.05-.2.1-0.25,0.25-0.25h0Z"/>
      <path id="Shape-88" class="cls-1" d="M700.63,337.9s-3.15-5.25-2.45-7.3,3.45-2.6,3.9-5.15l0.45-2.55a29,29,0,0,1-3.4,4.9c-1.7,1.8-3.25.85-2.7,3.1s1.7,7.8,1.75,8.55,2.45-1.55,2.45-1.55h0Z"/>
      <path id="Shape-89" class="cls-1" d="M700.63,337.9s-3.15-5.25-2.45-7.3,3.45-2.6,3.9-5.15l0.45-2.55a29,29,0,0,1-3.4,4.9c-1.7,1.8-3.25.85-2.7,3.1s1.7,7.8,1.75,8.55,2.45-1.55,2.45-1.55h0Z"/>
      <path id="Shape-90" class="cls-1" d="M680.31,257.2A42.31,42.31,0,0,0,691.52,260c3,0.45,4.65,4,5.25,7s7.1,20,8.2,23,6.45,14.5,8.1,19,3.8,9,3.8,9l-2.65-4s-4.6-.9-6.25-6.9-6-19.1-13.46-29.5c-7.1-10-2.15-11.3-9.56-16-17-10.7-11.36-7.3-11.36-7.3"/>
      <path id="Shape-91" class="cls-1" d="M680.31,257.2A42.31,42.31,0,0,0,691.52,260c3,0.45,4.65,4,5.25,7s7.1,20,8.2,23,6.45,14.5,8.1,19,3.8,9,3.8,9l-2.65-4s-4.6-.9-6.25-6.9-6-19.1-13.46-29.5c-7.1-10-2.15-11.3-9.56-16-17-10.7-11.36-7.3-11.36-7.3"/>
      <path id="Shape-92" class="cls-1" d="M205.66,115.75l-0.9,1.45a7.31,7.31,0,0,1,3.05,1.8c0.8,1.1,1.4.55,2.75,0.7s1.44-1.95,1.44-1.95l-4.35-1.4-2-.65h0v0.05Z"/>
      <path id="Shape-93" class="cls-1" d="M205.66,115.75l-0.9,1.45a7.31,7.31,0,0,1,3.05,1.8c0.8,1.1,1.4.55,2.75,0.7s1.44-1.95,1.44-1.95l-4.35-1.4-2-.65h0v0.05Z"/>
      <path id="Shape-94" class="cls-1" d="M561.15,223.6c6-12.3,10.31-15.35,16.26-20.6s9.66-5,16.86-12.95,12.66-18.55,13.56-24.65,1.45-18.55-.4-15.2c-4.2,7.55-14.06,26-20.71,33.6-4.2,4.75-1.45,2.15-6.4,6.35-4.4,3.7-2.8-7.8-3.4-13.35-1-9.15-1.55,9.15-4,19.6-2,8.1-8.35,17-11.21,22.8a33.43,33.43,0,0,0-3.45,10.2c-0.6,2.5,3-5.8,3-5.8h-0.06Z"/>
      <path id="Shape-95" class="cls-1" d="M561.15,223.6c6-12.3,10.31-15.35,16.26-20.6s9.66-5,16.86-12.95,12.66-18.55,13.56-24.65,1.45-18.55-.4-15.2c-4.2,7.55-14.06,26-20.71,33.6-4.2,4.75-1.45,2.15-6.4,6.35-4.4,3.7-2.8-7.8-3.4-13.35-1-9.15-1.55,9.15-4,19.6-2,8.1-8.35,17-11.21,22.8a33.43,33.43,0,0,0-3.45,10.2c-0.6,2.5,3-5.8,3-5.8h-0.06Z"/>
      <path id="Shape-96" class="cls-1" d="M408.67,232.4c0.55,1.5,6.75.65,6.65,3.35-0.15,4.95-7,9.35-9.91,11.7s-10,7.5-16,11.5a152.84,152.84,0,0,1-16.71,9.2c-2.7,1.3-8.4,6.2-10.41,7.9s-4.3,4.85,0,7.2,9.36,2.85,11.91,6.5a58.54,58.54,0,0,0-9.56-1c-3.55.1-6.7-5.4-9.25-5.85s-3.2-7-3.2-7-0.55-2,2.45-3.1,3,1,8-3.25,9.41-8.85,12.91-10.45,7.55-1.7,14.06-5.45,12.76-8.45,15.21-12.05-6.8-8.95-4.75-7.95c4.1,1.9,8.9,4.85,9.86,2.8s-1.3-4-1.3-4h0Z"/>
      <path id="Shape-97" class="cls-1" d="M408.67,232.4c0.55,1.5,6.75.65,6.65,3.35-0.15,4.95-7,9.35-9.91,11.7s-10,7.5-16,11.5a152.84,152.84,0,0,1-16.71,9.2c-2.7,1.3-8.4,6.2-10.41,7.9s-4.3,4.85,0,7.2,9.36,2.85,11.91,6.5a58.54,58.54,0,0,0-9.56-1c-3.55.1-6.7-5.4-9.25-5.85s-3.2-7-3.2-7-0.55-2,2.45-3.1,3,1,8-3.25,9.41-8.85,12.91-10.45,7.55-1.7,14.06-5.45,12.76-8.45,15.21-12.05-6.8-8.95-4.75-7.95c4.1,1.9,8.9,4.85,9.86,2.8s-1.3-4-1.3-4h0Z"/>
      <path id="Shape-98" class="cls-1" d="M367.9,239.85c5.15-3.45,12.51-4.65,18.11-3.8l5.6,0.85s-12.46-2.35-15.61-2.65-8.1,5.6-8.1,5.6h0Z"/>
      <path id="Shape-99" class="cls-1" d="M367.9,239.85c5.15-3.45,12.51-4.65,18.11-3.8l5.6,0.85s-12.46-2.35-15.61-2.65-8.1,5.6-8.1,5.6h0Z"/>
      <path id="Shape-100" class="cls-1" d="M254.94,105.3c-2-1.55-2.65-3.15-5.65-3.4s-7.35,1.9-9.61.25-6.05-4.9-6.05-4.9,5-2.15,9.81-.25c0,0,6.1,1.2,2.3-2.1-1.7-1.5-7.2-3.6-7.2-3.6s-6-.95,1-1.1,12.26,1.85,14,4.2,3.7-.4,4.4,2.75,1.75,4.5,1.15,6.2-4.15,1.95-4.15,1.95h0Z"/>
      <path id="Shape-101" class="cls-1" d="M254.94,105.3c-2-1.55-2.65-3.15-5.65-3.4s-7.35,1.9-9.61.25-6.05-4.9-6.05-4.9,5-2.15,9.81-.25c0,0,6.1,1.2,2.3-2.1-1.7-1.5-7.2-3.6-7.2-3.6s-6-.95,1-1.1,12.26,1.85,14,4.2,3.7-.4,4.4,2.75,1.75,4.5,1.15,6.2-4.15,1.95-4.15,1.95h0Z"/>
      <path id="Shape-102" class="cls-1" d="M207.71,123a3,3,0,0,1-2.9-1.6,2.73,2.73,0,0,1,.45-2.7,2.28,2.28,0,0,1,1.75,1c1,1.1,1,3.15.7,3.3h0Z"/>
    </g>
  </g>
  <ellipse id="Oval" class="cls-2" cx="467.35" cy="214.85" rx="464.35" ry="211.85"/>
  <path id="Shape-103" class="cls-1" d="M776.07,329.55a4,4,0,0,1,4,4v0.05a4,4,0,1,1-4.05-4h0.05Zm0,0.65a3.43,3.43,0,1,0,3.25,3.61q0-.08,0-0.16a3.29,3.29,0,0,0-3.13-3.45H776Zm-0.75,5.75h-0.7v-4.5a9.19,9.19,0,0,1,1.3-.1,2.26,2.26,0,0,1,1.4.35,1.19,1.19,0,0,1-.5,2h0a1.09,1.09,0,0,1,.75,1.1,2.66,2.66,0,0,0,.3,1.1h-0.75a3.86,3.86,0,0,1-.3-1.15,0.83,0.83,0,0,0-.84-0.82l-0.16,0h-0.5l0,1.9h0Zm0-2.5h0.5a0.89,0.89,0,0,0,1.1-.75,0.9,0.9,0,0,0-1-.82l-0.13,0a1.26,1.26,0,0,0-.5,0v1.5h0Z"/>
</svg>
