<svg id="ae" xmlns="http://www.w3.org/2000/svg" viewBox="0 0 190.6 99.4">
  <defs>
    <style>
      .ae-1 {
        fill: #666;
      }
    </style>
  </defs>
  <title>ae</title>
  <path id="Shape" class="ae-1" d="M103.4,14.3c-4.3,0-6.6,2.9-6.6,6.6,0,3,2.5,5.8,5.2,9.1,1.1-.7,3.3-2.3,3.3-2.3,2.6-1.8,4.6-4,4.6-6.9a6.14,6.14,0,0,0-6.5-6.5h0Z"/>
  <path id="Shape-2" class="ae-1" d="M98.1,56.8c-4.5,3.6-7.8,7.7-7.8,13.3,0,6.4,6.1,13.2,12.7,13.6a17.92,17.92,0,0,0,12.7-4.5L98.1,56.8h0Z"/>
  <path id="Shape-3" class="ae-1" d="M117,0c7.7,4,12.2,11.6,12.2,21,0,7.8-4,13.1-10.2,17.7,0,0-4.6,3.6-7.1,5.3l18.6,22.3,8.2-7.8h48.6V39.4H138.6V22.2h51.9V0.1L117,0h0Zm31.1,75.8-5.3,5.3,15,18.2h32.8V75.8H148.1ZM89.8,0l-50.4.1L0,99.4H33.3L39.9,81H71.1a37.08,37.08,0,0,1-1.7-11.5c0-13,9.2-21.4,17.8-27.2-4-4.7-9.9-11.8-9.9-21.5C77.4,11.4,81.9,3.9,89.8,0h0ZM44.9,58.8L56.5,24.4,67.7,58.8H44.9Z"/>
</svg>
