<svg id="carla-hall" xmlns="http://www.w3.org/2000/svg" viewBox="0 0 343.37 252.6">
  <defs>
    <style>
      .carla-hall-1 {
        fill: #666;
      }
    </style>
  </defs>
  <title>carla-hall</title>
  <path id="Shape" class="carla-hall-1" d="M339.6,58c-6-19.9-18.9-35.1-38.1-45.2C281.3,2.2,259.5,0,244.8,0c-2,0-4,0-5.9.1a168,168,0,0,0-36.2,5.1A173,173,0,0,0,166,20c-8.6,4.7-24.8,14.6-36.6,28-1,1.1-1.9,2.3-2.9,3.5A82.64,82.64,0,0,0,0,121.4c0,21.9,9.1,43.5,24.3,57.8,17.4,16.4,39.9,25.2,61.6,33.7l2.4,1c18.8,7.4,38.3,15.1,57.5,24.6,8,4,16.5,8.4,24.7,13.3a6,6,0,0,0,2.9.8c2.7,0,6.2-1.6,13.3-6.1l0.6-.4a5.92,5.92,0,0,0,.6-0.4l6.1-3.4c54.5-30.7,145.8-82,149.3-153.8A97.09,97.09,0,0,0,339.6,58h0Zm-5.1,30c-3.2,67-91.9,116.8-144.8,146.6l-6.1,3.4c-0.3.2-.9,0.5-1.6,1a66.08,66.08,0,0,1-8.1,4.6c-8-4.8-16.4-9.1-24.2-12.9-19.6-9.7-39.2-17.5-58.2-25l-2.4-1c-21-8.2-42.7-16.8-58.8-32C16.8,160,8.8,140.8,8.8,121.3A73.81,73.81,0,0,1,121.7,58.7a78.38,78.38,0,0,0-4.1,8.2c-0.8-.2-1.8-0.5-2.4-0.7h-0.1c-0.4-.1-0.9-0.2-1.2-0.3l-1.4-.3c-1.1-.2-2-0.4-3-0.6a55.79,55.79,0,0,0-9.1-.7,59.9,59.9,0,0,0,0,119.8,67.55,67.55,0,0,0,12.7-1.3,56.4,56.4,0,0,0,12-4c3.7-1.7,7.6-3.4,10.4-6.4a6.57,6.57,0,0,0,1.7-2.9,5.7,5.7,0,0,0-.5-3.4,4.36,4.36,0,0,0-1.3-1.4,4.51,4.51,0,0,0-5.3.4,40.68,40.68,0,0,1-13.5,7.1,45.33,45.33,0,0,1-9,2.1,56.48,56.48,0,0,1-7.1.5,50.8,50.8,0,1,1,0-101.6,51.65,51.65,0,0,1,14.1,2,47.68,47.68,0,0,0-1.7,7.8c-0.9,5.9-1.4,12.7,2.2,17.8a12,12,0,0,0,9.8,5.3,12.56,12.56,0,0,0,10.3-5.1c5.6-7.7,2.8-18.6-2.9-25.3a32.81,32.81,0,0,0-6.5-5.7c1-2.2,2-4.4,3.2-6.5,9.3,7.1,17.7,15.7,25.9,24.2l1.1,1.2c1.4,1.4,2.8,2.9,4.2,4.3,4.8,4.8,10.4,10.5,16.3,16,2,1.8,3.9,3.5,5.9,5.2V174a4.4,4.4,0,0,0,8.8,0V121.8a124.68,124.68,0,0,0,24.4,14.3,80.31,80.31,0,0,0,16.1,5,67.89,67.89,0,0,0,8.9,1.2V174a4.4,4.4,0,0,0,8.8,0V142.1c11.9-1,21-5.8,26.1-13.8,3.1-4.9,5.2-13.1,2.3-19.1a4.45,4.45,0,0,0-4-2.5,4.33,4.33,0,0,0-1.9.4,4.38,4.38,0,0,0-2.1,5.8c1.3,2.7.1,7.7-1.8,10.7-4.3,6.8-12.3,9-18.6,9.7V52.8a4.4,4.4,0,0,0-8.8,0h0v80.6a57.74,57.74,0,0,1-7.1-1,70,70,0,0,1-14.4-4.5c-9.1-3.8-18.3-9.5-27.8-17.3V52.8a4.4,4.4,0,0,0-8.8,0h0v50.3c-5.8-5.3-11.3-10.8-16-15.6-1.8-1.8-3.5-3.6-5.3-5.5l-0.1-.1c-8.5-8.8-17.3-17.8-27.3-25.3a34.46,34.46,0,0,1,2.3-2.8c8-9,20.4-18.5,34.2-26.1a155.21,155.21,0,0,1,34.8-13.9A162,162,0,0,1,239.4,9c1.9-.1,3.8-0.1,5.6-0.1,16.5,0,71.6,3.7,86.3,51.8A88.51,88.51,0,0,1,334.5,88h0ZM120.4,84.5a46.53,46.53,0,0,1,1.5-6.8,22.52,22.52,0,0,1,3.9,3.6c3.6,4.3,5.6,11.3,2.5,15.5a4.55,4.55,0,0,1-3.6,1.8,4.15,4.15,0,0,1-3.4-1.9c-2-2.8-1.6-7.7-.9-12.2h0Z"/>
  <path id="Path-4" class="carla-hall-1" d="M131.27,171.1l-13.67,5L133,167Z"/>
</svg>
