<svg id="cnbc" xmlns="http://www.w3.org/2000/svg" viewBox="0 0 175.72 129.11">
  <defs>
    <style>
      .cnbc-1 {
        fill: #666;
      }
    </style>
  </defs>
  <title>cnbc</title>
  <path id="Shape" class="cnbc-1" d="M30.82,109.31c-0.6-3.1-3.2-4-6.1-4.3-9.3-.9-11,6.1-11,9.1,0,5,1.5,9.2,10.6,9.2,1.7,0,6.3-1.7,6.3-4.6h13.2c-0.5,8.4-14.6,10.4-20.7,10.4-12.7,0-23.6-2.4-23.1-14.9,0.4-9,8.8-15.2,25.6-14.9,9.4,0.2,18.4,3.1,18.4,9.9l-13.2.1h0Z" transform="translate(0 0)"/>
  <path id="Shape-2" class="cnbc-1" d="M162.52,109.31c-0.6-3.1-3.2-4-6.1-4.3-9.3-.9-11,6.1-11,9.1,0,5,1.5,9.2,10.6,9.2,1.7,0,6.3-1.7,6.3-4.6h13.2c-0.5,8.4-14.6,10.4-20.7,10.4-12.7,0-23.6-2.4-23.1-14.9,0.4-9,8.8-15.2,25.6-14.9,9.4,0.2,18.4,3.1,18.4,9.9l-13.2.1h0Z" transform="translate(0 0)"/>
  <path id="Shape-3" class="cnbc-1" d="M46.42,100h17.1L78,120.41h0.1V100h11v28.4H72.72l-15.3-20.5h-0.1v20.5H46.42V100h0Z" transform="translate(0 0)"/>
  <path id="Shape-4" class="cnbc-1" d="M92.52,100h20.7c10,0,15.8,2.8,15.8,7,0,2.5-2.5,5.6-7.9,6.5v0.1c6.6,0.4,9,4.6,9,7.1,0,5-5.7,7.8-16.9,7.8H92.52V100h0Zm12,11h3.4c5.3,0,8.1-.4,8.1-2.6,0-2.4-2.3-3.1-7.1-3.1h-4.4V111h0Zm0,11.4h3.4c6.4,0,8.7-.7,8.7-2.9,0-2.4-3-3.2-7.7-3.2h-4.4v6.1h0Z" transform="translate(0 0)"/>
  <path id="Shape-5" class="cnbc-1" d="M146.92,56.41L98,89.11,114.52,50l7.8-18.2a18.12,18.12,0,0,1,15.6-9.7,17.8,17.8,0,0,1,15.2,8.4c3.6,5.4,3.8,14.2.2,19.6a24,24,0,0,1-6.4,6.3h0Z" transform="translate(0 0)"/>
  <path id="Shape-6" class="cnbc-1" d="M122.52,25.51l-24.2,57.1-1.1-6.2-7.3-46.8a7.18,7.18,0,0,1,3.2-6.9l3.5-2.1c0.2-.7-0.8-1-1.3-1.2l-6.8-.1a18,18,0,0,1,8.2-16.6c4.4-2.9,11.2-3.7,16.2-1.3a18.5,18.5,0,0,1,11,16.5,17.46,17.46,0,0,1-1.4,7.6h0Z" transform="translate(0 0)"/>
  <path id="Shape-7" class="cnbc-1" d="M76.12,82.91l-23.8-57.3c-2.6-6.1-1.5-14.2,2.9-19.2A17.74,17.74,0,0,1,73.32.81c5.8,1.4,11.1,6.9,12.6,12.8a19.75,19.75,0,0,1,.4,7.3l-10.2,62h0Z" transform="translate(0 0)"/>
  <path id="Shape-8" class="cnbc-1" d="M25.32,54.31a18.2,18.2,0,0,1-6.4-16.4,18.69,18.69,0,0,1,12.2-15.1,17.59,17.59,0,0,1,18,4.4,19.31,19.31,0,0,1,4.2,6.3l23,55.7-51-34.9h0Z" transform="translate(0 0)"/>
  <path id="Shape-9" class="cnbc-1" d="M20,95A17.51,17.51,0,0,1,5.72,85a19.51,19.51,0,0,1,1.8-19.5c4.4-5.3,10.9-8,17.3-6.7a18.44,18.44,0,0,1,6.9,2.9L81.22,95H20Z" transform="translate(0 0)"/>
  <path id="Shape-10" class="cnbc-1" d="M154.42,95a17.51,17.51,0,0,0,14.3-10,19.51,19.51,0,0,0-1.8-19.5c-4.4-5.3-10.9-8-17.3-6.7a18.44,18.44,0,0,0-6.9,2.9L93.22,95h61.2Z" transform="translate(0 0)"/>
</svg>
