
<svg width="180px" height="136px" viewBox="0 0 180 136" version="1.1" xmlns="http://www.w3.org/2000/svg" xmlns:xlink="http://www.w3.org/1999/xlink">
    <g id="Page-1" stroke="none" stroke-width="1" fill="none" fill-rule="evenodd">
        <g id="discovery-kids" fill-rule="nonzero" fill="#666666">
            <path d="M52.18,49.34 C58.5495066,39.1885887 56.385242,25.885581 47.1263247,18.276756 C37.8674074,10.667931 24.3971744,11.1227672 15.6726004,19.3388232 C6.94802638,27.5548792 5.68604746,40.9735774 12.7258112,50.672211 C19.7655749,60.3708447 32.9148152,63.3291438 43.43,57.58 L53.43,60.45 C53.5461075,60.4661532 53.6638925,60.4661532 53.78,60.45 C54.1752033,60.4531654 54.5486241,60.2692468 54.7870127,59.9540221 C55.0254014,59.6387975 55.1006732,59.2294037 54.99,58.85 L52.18,49.34 Z M43.07,39.12 L26.49,48.7 C25.6040153,49.2163165 24.5094127,49.2187807 23.6211122,48.7064586 C22.7328118,48.1941365 22.1867816,47.2454468 22.19,46.22 L22.19,27.05 C22.1867816,26.0245532 22.7328118,25.0758635 23.6211122,24.5635414 C24.5094127,24.0512193 25.6040153,24.0536835 26.49,24.57 L43.07,34.12 C43.9778599,34.6244435 44.5408996,35.5814082 44.5408996,36.62 C44.5408996,37.6585918 43.9778599,38.6155565 43.07,39.12 Z" id="Shape"></path>
            <path d="M9.86,130.28 C9.86,131.14 9.46,131.59 8.6,131.59 C8.24653015,131.627748 7.89547145,131.499908 7.64904626,131.243704 C7.40262108,130.9875 7.28853206,130.631734 7.34,130.28 L7.34,129.84 L7.34,129.84 C6.84016553,130.996513 5.65491354,131.70202 4.4,131.59 C2.07,131.59 0.03,129.89 0.03,126.29 C0.03,123.62 1.38,121.12 4.32,121.12 C5.42060841,121.062271 6.46723182,121.600862 7.06,122.53 L7.06,122.53 L7.06,118.76 C7.06,117.989563 7.68456277,117.365 8.455,117.365 C9.22543723,117.365 9.85,117.989563 9.85,118.76 L9.86,130.28 Z M5,129.42 C6.62,129.42 7.23,127.97 7.23,126.42 C7.23,124.99 6.69,123.31 5,123.33 C3.31,123.35 2.79,125.12 2.79,126.42 C2.78,128.03 3.51,129.38 4.99,129.42 L5,129.42 Z" id="Shape"></path>
            <path d="M12.75,117.3 C13.5508129,117.3 14.2,117.949187 14.2,118.75 C14.2,119.550813 13.5508129,120.2 12.75,120.2 C11.9491871,120.2 11.3,119.550813 11.3,118.75 C11.2973143,118.364619 11.4492192,117.994243 11.7217313,117.721731 C11.9942434,117.449219 12.364619,117.297314 12.75,117.3 Z M11.36,122.52 C11.3599999,122.023401 11.6249324,121.564524 12.0549999,121.316224 C12.4850674,121.067925 13.0149326,121.067925 13.4450001,121.316224 C13.8750676,121.564524 14.1400001,122.023401 14.14,122.52 L14.14,130.2 C14.14,130.967676 13.5176758,131.59 12.75,131.59 C11.9823242,131.59 11.36,130.967676 11.36,130.2 L11.36,122.52 Z" id="Shape"></path>
            <path d="M19.38,121.12 C21.49,121.12 23.63,121.96 23.63,123.24 C23.6464659,123.557909 23.5315604,123.868614 23.312208,124.099313 C23.0928556,124.330011 22.7883346,124.460426 22.47,124.46 C21.38,124.46 21.34,123.18 19.59,123.18 C18.59,123.18 17.99,123.45 17.99,124.04 C17.99,124.63 18.62,124.84 19.48,125.04 L20.64,125.31 C22.22,125.68 24.11,126.31 24.11,128.31 C24.11,130.58 21.92,131.63 19.82,131.63 C17.3,131.63 15.2,130.51 15.2,129.13 C15.1732924,128.820234 15.2826432,128.51417 15.4995947,128.291459 C15.7165461,128.068747 16.0196407,127.951416 16.33,127.97 C17.53,127.97 17.65,129.69 19.71,129.69 C20.71,129.69 21.33,129.25 21.33,128.69 C21.33,128.13 20.72,127.87 19.73,127.62 L18.09,127.22 C16.47,126.82 15.21,126.15 15.21,124.29 C15.21,121.97 17.46,121.12 19.38,121.12 Z" id="Shape"></path>
            <path d="M30.04,121.12 C32.36,121.12 34.1,122.44 34.1,123.73 C34.1104535,124.067439 33.9746393,124.392946 33.7274526,124.622887 C33.480266,124.852828 33.1458034,124.964788 32.81,124.93 C31.49,124.93 31.97,123.29 29.97,123.29 C28.88,123.29 27.61,124.03 27.61,126.55 C27.61,128.28 28.43,129.41 29.96,129.41 C31.9,129.41 31.48,127.62 32.96,127.62 C33.2568472,127.603685 33.547658,127.70822 33.7661838,127.909791 C33.9847095,128.111363 34.1123399,128.392803 34.12,128.69 C34.12,129.91 32.75,131.59 29.89,131.59 C26.46,131.59 24.84,129.47 24.84,126.59 C24.81,123.36 26.62,121.12 30.04,121.12 Z" id="Shape"></path>
            <path d="M39.89,121.12 C41.2952934,121.031679 42.6698169,121.557181 43.657767,122.560478 C44.6457171,123.563775 45.1499712,124.946235 45.04,126.35 C45.04,129.13 43.69,131.59 39.89,131.59 C36.09,131.59 34.74,129.13 34.74,126.35 C34.6300288,124.946235 35.1342829,123.563775 36.122233,122.560478 C37.1101831,121.557181 38.4847066,121.031679 39.89,121.12 Z M39.89,129.53 C41.55,129.53 42.26,128.04 42.26,126.35 C42.26,124.66 41.52,123.18 39.89,123.18 C38.26,123.18 37.53,124.53 37.53,126.35 C37.53,128.17 38.23,129.54 39.89,129.54 L39.89,129.53 Z" id="Shape"></path>
            <path d="M45.49,123.29 C45.4026993,123.061733 45.3455505,122.823052 45.32,122.58 C45.286039,122.202573 45.4134739,121.828413 45.6707469,121.550177 C45.92802,121.271941 46.2910729,121.115647 46.67,121.12 C47.3563382,121.11972 47.9431765,121.613677 48.06,122.29 L49.93,128.58 L49.93,128.58 L51.8,122.29 C51.9168235,121.613677 52.5036618,121.11972 53.19,121.12 C53.5670303,121.115912 53.9283364,121.270858 54.185267,121.54682 C54.4421975,121.822783 54.5709742,122.194222 54.54,122.57 C54.5124492,122.812705 54.4553599,123.051137 54.37,123.28 L51.74,130.6 C51.47,131.35 51.3,131.6 49.91,131.6 C48.52,131.6 48.35,131.35 48.08,130.6 L45.49,123.29 Z" id="Shape"></path>
            <path d="M57.66,126.89 C57.6177819,127.581049 57.8760473,128.256666 58.3684697,128.74334 C58.860892,129.230014 59.539494,129.480329 60.23,129.43 C62.33,129.43 62.33,128.06 63.45,128.06 C64.0400198,128.073598 64.523969,128.531621 64.57,129.12 C64.57,130.8 61.88,131.58 60.21,131.58 C56.32,131.58 54.85,128.95 54.85,126.58 C54.85,123.34 56.85,121.16 60.11,121.16 C61.3843625,121.075165 62.6382057,121.513717 63.5818771,122.374345 C64.5255485,123.234974 65.077419,124.443233 65.11,125.72 C65.11,126.72 64.82,126.92 63.89,126.92 L57.66,126.89 Z M62.54,125.29 C62.45154,124.053844 61.4292548,123.092461 60.19,123.08 C58.8998357,123.050679 57.7993646,124.008176 57.65,125.29 L62.54,125.29 Z" id="Shape"></path>
            <path d="M66.24,122.43 C66.24,121.734121 66.8041212,121.17 67.5,121.17 C68.1958788,121.17 68.76,121.734121 68.76,122.43 L68.76,123.5 L68.76,123.5 C69.09,122.34 69.76,121.14 71.07,121.14 C71.4530696,121.106846 71.832914,121.232701 72.1203984,121.488033 C72.4078828,121.743364 72.5776998,122.105695 72.59,122.49 C72.6269418,122.865201 72.495272,123.237421 72.2306206,123.505935 C71.9659693,123.77445 71.595697,123.9115 71.22,123.88 L70.72,123.88 C69.6,123.88 68.98,124.66 68.98,126.97 L68.98,130.21 C68.98,130.977676 68.3576758,131.6 67.59,131.6 C66.8223242,131.6 66.2,130.977676 66.2,130.21 L66.24,122.43 Z" id="Shape"></path>
            <path d="M77.89,128.68 L77.89,128.68 L79.59,122.37 C79.78,121.67 80.16,121.13 80.92,121.13 C81.6604633,121.089904 82.2965592,121.65038 82.35,122.39 C82.3301832,122.693085 82.2591792,122.990626 82.14,123.27 L78.92,132.4 C78.25,134.31 77.49,135.3 75.74,135.3 C74.5,135.3 73.99,134.69 73.99,134.02 C73.99,133.35 74.52,132.89 75.27,132.89 L75.57,132.89 C75.93,132.89 76.33,132.89 76.57,132.01 L73.67,123.76 C73.4895542,123.347053 73.3748334,122.908415 73.33,122.46 C73.3273115,122.103793 73.4676262,121.761394 73.7195101,121.50951 C73.971394,121.257626 74.3137925,121.117312 74.67,121.12 C75.3358987,121.084776 75.9342235,121.524105 76.1,122.17 L77.89,128.68 Z" id="Shape"></path>
            <path d="M87.36,118.77 C87.36,118.002324 87.9823242,117.38 88.75,117.38 C89.5176758,117.38 90.14,118.002324 90.14,118.77 L90.14,125.12 L93.23,121.69 C93.4953567,121.368162 93.8834702,121.172291 94.3,121.15 C95.0002242,121.164015 95.5734493,121.711184 95.62,122.41 C95.6343482,122.763197 95.4780834,123.101771 95.2,123.32 L93.14,125.47 L96.04,129.36 C96.22927,129.621855 96.3307863,129.936905 96.33,130.26 C96.3301813,130.994024 95.7438429,131.593688 95.01,131.61 C94.5045957,131.631445 94.0254683,131.384277 93.75,130.96 L91.12,127.24 L90.12,128.1 L90.12,130.21 C90.12,130.977676 89.4976758,131.6 88.73,131.6 C87.9623242,131.6 87.34,130.977676 87.34,130.21 L87.36,118.77 Z" id="Shape" stroke="#676767" stroke-width="1.00625527"></path>
            <path d="M98.7,129.02 C98.1168602,128.95567 97.6299475,128.546283 97.4664439,127.98285 C97.3029403,127.419417 97.4950688,126.812978 97.9531869,126.446484 C98.4113049,126.079989 99.0451272,126.025667 99.558927,126.308864 C100.072727,126.59206 100.365245,127.156962 100.3,127.74 C100.211039,128.534962 99.4951008,129.107713 98.7,129.02 L98.7,129.02 Z M100.87,123.12 C100.83516,123.629882 100.523327,124.07952 100.057994,124.290846 C99.5926608,124.502172 99.0488924,124.441097 98.6420344,124.131807 C98.2351763,123.822517 98.0308601,123.314906 98.11,122.81 L98.95,115.81 C99.0356041,115.045086 99.7250856,114.494396 100.49,114.58 C101.254914,114.665604 101.805604,115.355086 101.72,116.12 L100.87,123.12 Z" id="Shape" stroke="#676767" stroke-width="1.00625527"></path>
            <path d="M112.74,130.28 C112.74,131.14 112.34,131.59 111.48,131.59 C111.12653,131.627748 110.775471,131.499908 110.529046,131.243704 C110.282621,130.9875 110.168532,130.631734 110.22,130.28 L110.22,129.84 L110.22,129.84 C109.720166,130.996513 108.534914,131.70202 107.28,131.59 C104.96,131.59 102.92,129.89 102.92,126.29 C102.92,123.62 104.27,121.12 107.21,121.12 C108.313646,121.060718 109.363971,121.599249 109.96,122.53 L109.96,122.53 L109.96,118.76 C109.96,118.263401 110.224932,117.804524 110.655,117.556224 C111.085067,117.307925 111.614933,117.307925 112.045,117.556224 C112.475068,117.804524 112.74,118.263401 112.74,118.76 L112.74,130.28 Z M107.88,129.42 C109.5,129.42 110.11,127.97 110.11,126.42 C110.11,124.99 109.57,123.31 107.88,123.33 C106.19,123.35 105.67,125.12 105.67,126.42 C105.67,128.03 106.39,129.38 107.88,129.42 Z" id="Shape" stroke="#676767" stroke-width="1.00625527"></path>
            <path d="M117.49,121.38 C119.49,120.61 121.75,120.61 122.22,121.8 C122.354428,122.090364 122.361805,122.423606 122.240358,122.719634 C122.118911,123.015662 121.879621,123.247708 121.58,123.36 C120.58,123.76 120.07,122.58 118.43,123.22 C117.53,123.57 117.04,124.22 117.25,124.81 C117.46,125.4 118.13,125.32 119,125.19 L120.18,125.01 C121.79,124.77 123.79,124.71 124.5,126.52 C125.32,128.63 123.67,130.62 121.71,131.38 C119.37,132.3 117,132.01 116.5,130.74 C116.362623,130.462735 116.352002,130.139575 116.470878,129.853889 C116.589755,129.568203 116.826486,129.347968 117.12,129.25 C118.24,128.81 118.97,130.37 120.89,129.62 C121.81,129.26 122.24,128.41 122.03,127.88 C121.82,127.35 121.17,127.34 120.15,127.47 L118.48,127.69 C116.83,127.91 115.41,127.75 114.73,126 C113.91,123.89 115.7,122.12 117.49,121.38 Z" id="Shape" stroke="#676767" stroke-width="1.00625527"></path>
            <path d="M173.14,121.82 L172.67,121.82 C172.54853,121.82 172.436286,121.755196 172.375551,121.65 C172.314816,121.544804 172.314816,121.415196 172.375551,121.31 C172.436286,121.204804 172.54853,121.14 172.67,121.14 L174.57,121.14 C174.757777,121.14 174.91,121.292223 174.91,121.48 C174.91,121.667777 174.757777,121.82 174.57,121.82 L174.09,121.82 L174.09,123.82 C174.116559,123.998658 174.036103,124.176326 173.884311,124.274219 C173.732518,124.372112 173.537482,124.372112 173.385689,124.274219 C173.233897,124.176326 173.153441,123.998658 173.18,123.82 L173.14,121.82 Z M178.24,122.42 L178.24,122.42 L177.69,123.92 C177.59,124.19 177.45,124.32 177.24,124.32 C177.03,124.32 176.88,124.18 176.79,123.92 L176.24,122.42 L176.24,122.42 L176.24,123.83 C176.24,124.08129 176.03629,124.285 175.785,124.285 C175.53371,124.285 175.33,124.08129 175.33,123.83 L175.33,121.77 C175.305756,121.592172 175.36239,121.412829 175.484364,121.281175 C175.606337,121.149521 175.780842,121.079381 175.96,121.09 C176.332123,121.071113 176.668014,121.311628 176.77,121.67 L177.26,122.93 L177.75,121.67 C177.851986,121.311628 178.187877,121.071113 178.56,121.09 C178.738121,121.082962 178.910408,121.15419 179.031557,121.284954 C179.152707,121.415719 179.210595,121.592934 179.19,121.77 L179.19,123.83 C179.19,124.08129 178.98629,124.285 178.735,124.285 C178.48371,124.285 178.28,124.08129 178.28,123.83 L178.24,122.42 Z" id="Shape"></path>
            <path d="M129.57,122.4 C129.57,121.54 129.97,121.09 130.83,121.09 C131.18347,121.052252 131.534529,121.180092 131.780954,121.436296 C132.027379,121.6925 132.141468,122.048266 132.09,122.4 L132.09,122.84 L132.09,122.84 C132.586191,121.685067 133.767875,120.979283 135.02,121.09 C137.34,121.09 139.38,122.78 139.38,126.38 C139.38,129.04 138.03,131.54 135.1,131.54 C133.996621,131.610823 132.943724,131.069003 132.36,130.13 L132.36,130.13 L132.36,133.84 C132.36,134.607676 131.737676,135.23 130.97,135.23 C130.202324,135.23 129.58,134.607676 129.58,133.84 L129.57,122.4 Z M134.42,123.26 C132.8,123.26 132.19,124.71 132.19,126.26 C132.19,127.69 132.72,129.36 134.42,129.34 C136.12,129.32 136.63,127.55 136.63,126.26 C136.62,124.65 135.9,123.3 134.41,123.26 L134.42,123.26 Z" id="Shape" stroke="#676767"></path>
            <path d="M140.81,118.73 C140.81,117.962324 141.432324,117.34 142.2,117.34 C142.967676,117.34 143.59,117.962324 143.59,118.73 L143.59,130.12 C143.59,130.616599 143.325068,131.075476 142.895,131.323776 C142.464933,131.572075 141.935067,131.572075 141.505,131.323776 C141.074932,131.075476 140.81,130.616599 140.81,130.12 L140.81,118.73 Z" id="Shape" stroke="#676767"></path>
            <path d="M154.64,128.6 C154.677965,129.22774 154.775062,129.850498 154.93,130.46 C154.907122,130.769893 154.760868,131.057652 154.524013,131.258791 C154.287158,131.45993 153.979506,131.557631 153.67,131.53 C153.226777,131.573164 152.78729,131.417161 152.470475,131.10421 C152.153661,130.791259 151.992278,130.353719 152.03,129.91 C151.074102,130.997709 149.67666,131.593461 148.23,131.53 C146.583615,131.609462 145.181487,130.345761 145.09,128.7 C145.09,126.4 146.84,125.75 148.97,125.5 L150.66,125.31 C151.33,125.23 151.86,125.08 151.86,124.31 C151.86,123.54 151.04,123.17 150.11,123.17 C148.06,123.17 148,124.69 146.89,124.69 C146.590508,124.709099 146.296044,124.606117 146.073732,124.404529 C145.85142,124.202941 145.720206,123.919927 145.71,123.62 C145.71,122.52 147.27,121.11 150.12,121.11 C152.78,121.11 154.63,121.97 154.63,123.96 L154.64,128.6 Z M151.86,126.6 C151.504882,126.848166 151.091368,126.999788 150.66,127.04 L149.66,127.19 C148.5,127.36 147.87,127.72 147.87,128.56 C147.87,129.19 148.46,129.7 149.41,129.7 C150.000994,129.76418 150.593038,129.588651 151.05355,129.212724 C151.514062,128.836796 151.804563,128.291878 151.86,127.7 L151.86,126.6 Z" id="Shape" stroke="#676767"></path>
            <path d="M160.19,128.62 L160.19,128.62 L161.88,122.32 C162.07,121.62 162.45,121.08 163.21,121.08 C163.950463,121.039904 164.586559,121.60038 164.64,122.34 C164.618701,122.639634 164.547734,122.933643 164.43,123.21 L161.21,132.32 C160.54,134.22 159.78,135.21 158.03,135.21 C156.79,135.21 156.28,134.6 156.28,133.94 C156.28,133.28 156.81,132.82 157.55,132.82 L157.84,132.82 C158.2,132.82 158.6,132.82 158.84,131.94 L155.95,123.7 C155.770248,123.290306 155.655534,122.855069 155.61,122.41 C155.631792,121.679322 156.23919,121.103186 156.97,121.12 C157.622582,121.075347 158.217999,121.491722 158.4,122.12 L160.19,128.62 Z" id="Shape" stroke="#676767"></path>
            <path d="M167.38,128.3 C168.010961,128.3 168.579794,128.680082 168.821252,129.263014 C169.06271,129.845946 168.929243,130.51693 168.483087,130.963087 C168.03693,131.409243 167.365946,131.54271 166.783014,131.301252 C166.200082,131.059794 165.82,130.490961 165.82,129.86 C165.825456,129.000706 166.520706,128.305456 167.38,128.3 L167.38,128.3 Z M168.88,121.01 C168.871189,121.308002 168.844474,121.605204 168.8,121.9 L168.21,126.35 C168.13,126.9 167.87,127.05 167.37,127.05 C166.87,127.05 166.61,126.9 166.53,126.35 L165.94,121.9 C165.895526,121.605204 165.868811,121.308002 165.86,121.01 L165.86,118.8 C165.86,117.971573 166.531573,117.3 167.36,117.3 C168.188427,117.3 168.86,117.971573 168.86,118.8 L168.88,121.01 Z" id="Shape" stroke="#676767"></path>
            <path d="M44.57,33.78 L44.45,33.71 L44.45,39.49 L44.57,39.42 C45.5754883,38.8368154 46.1943961,37.762373 46.1943961,36.6 C46.1943961,35.437627 45.5754883,34.3631846 44.57,33.78 L44.57,33.78 Z" id="Shape"></path>
            <path d="M104.85,59.47 L119.98,44.34 C127.173509,37.1464911 127.173509,25.4835089 119.98,18.29 C112.786491,11.0964911 101.123509,11.0964911 93.93,18.29 L81.31,30.91 L81.31,18.42 C81.29192,9.29564332 74.5966441,1.55957826 65.5693078,0.232397044 C56.5419714,-1.09478417 47.9034429,4.38693517 45.26,13.12 C51.7265898,16.742627 56.4241022,22.8592697 58.2555959,30.041598 C60.0870897,37.2239263 58.8922173,44.8431272 54.95,51.12 L58.09,62 C58.2119628,62.4302305 58.1256423,62.8927439 57.8567043,63.2500192 C57.5877663,63.6072944 57.16718,63.8181902 56.72,63.82 C56.5845183,63.8187861 56.4498753,63.7985897 56.32,63.76 L45,60.49 L44.47,60.76 L44.47,87.97 C44.4423858,98.1430851 52.6669149,106.412386 62.84,106.44 C73.0130851,106.467614 81.2823858,98.2430851 81.31,88.07 L93.93,100.69 C101.123509,107.883509 112.786491,107.883509 119.98,100.69 C127.173509,93.4964911 127.173509,81.8335089 119.98,74.64 L104.85,59.47 Z" id="Shape"></path>
        </g>
    </g>
</svg>
