<svg id="glow" xmlns="http://www.w3.org/2000/svg" viewBox="0 0 418.6 257.2">
  <defs>
    <style>
      .glow-1 {
        fill: #fff;
      }
    </style>
  </defs>
  <title>glow</title>
  <path class="glow-1" d="M181.6,145.4L20.6,30.8,157.8,161.1l23.8-15.7" transform="translate(0)"/>
  <path class="glow-1" d="M225.1,124.7L331.4,60.4l-58.1,64.3H225.1Z" transform="translate(0)"/>
  <path class="glow-1" d="M218.2,124.7L259.6,0,187.3,142.2Z" transform="translate(0)"/>
  <path class="glow-1" d="M57.6,198.4h47.3v19.8c-3.8,23.3-21.3,39-51,39C19.2,257.2,0,232.9,0,203.9c0-27.8,19.8-53.3,53.8-53.3,29.3,0,48.4,17.3,50.3,37.9H70.7c-1-5.8-6.8-12.1-17.3-12.1-16.2,0-22.8,13.7-22.8,28,0,15.8,8.1,28.2,24.7,28.2,11.3,0,17.6-6.4,19.1-14.3H57.6V198.4h0Z" transform="translate(0)"/>
  <path class="glow-1" d="M164,228.7v25.8H107.5V153.3h30.1v75.5H164v-0.1Z" transform="translate(0)"/>
  <path class="glow-1" d="M161.8,203.9c0-27.9,20.1-53.3,54.8-53.3s54.9,25.4,54.9,53.3-20.1,53.3-54.9,53.3-54.8-25.4-54.8-53.3h0Zm79.2,0c0-13.4-9-25.9-24.4-25.9s-24.4,12.4-24.4,25.9,9.1,25.9,24.4,25.9S241,217.3,241,203.9h0Z" transform="translate(0)"/>
  <path class="glow-1" d="M339.1,199.4l-16.9,55.1H296L259.6,153.3h31.8l17.9,60.4,17.8-60.4h24l17.6,60.4,18.1-60.4h31.8L382.2,254.5H355.9l-16.8-55.1h0Z" transform="translate(0)"/>
</svg>
