<svg width="456px" height="57px" viewBox="0 0 456 57" version="1.1" xmlns="http://www.w3.org/2000/svg" xmlns:xlink="http://www.w3.org/1999/xlink">
    <!-- Generator: Sketch 43.2 (39069) - http://www.bohemiancoding.com/sketch -->
    <desc>Created with Sketch.</desc>
    <defs></defs>
    <g id="Page-1" stroke="none" stroke-width="1" fill="none" fill-rule="evenodd">
        <g id="hearst" fill-rule="nonzero" fill="#666667">
            <polygon id="Shape" points="50.52 0.84 30.05 0.84 30.05 19.15 20.47 19.15 20.47 0.84 0 0.84 0 55.15 20.47 55.15 20.47 34.85 30.05 34.85 30.05 55.15 50.52 55.15"></polygon>
            <polygon id="Shape" points="128.97 0.84 88.28 0.84 88.28 55.15 129.65 55.15 129.65 41.06 108.82 41.06 108.82 34.65 127.53 34.65 127.53 20.65 108.82 20.65 108.82 14.76 128.96 14.76"></polygon>
            <path d="M185,33.32 L190,11.85 L194.65,33.32 L185,33.32 Z M204.79,0.84 L177.16,0.84 L159.16,55.28 L179.79,55.28 L181.79,46.57 L197.59,46.57 L199.48,55.28 L221.91,55.28 L204.79,0.84 Z" id="Shape"></path>
            <path d="M273.63,23.31 C273.132598,23.3182428 272.635129,23.2982105 272.14,23.25 L272.14,13 C272.914594,12.9298205 273.692301,12.8997804 274.47,12.91 C279.07,12.91 281.1,14.36 281.1,17.74 C281.1,21.12 278.55,23.31 273.63,23.31 M279.41,0.84 L251.61,0.84 L251.61,55.15 L272.1,55.15 L272.1,35.49 C272.75,35.43 273.45,35.43 273.97,35.43 C278.89,35.43 279.57,37.75 280.39,43.6 L280.92,47.6 C281.285912,50.1451573 281.817034,52.6638105 282.51,55.14 L303.25,55.14 C302.36,51.14 301.67,47.9 301.36,45.48 L300.69,39.67 C299.69,31.84 297.96,28.5 290.69,27.28 C297.79,25.38 301.4,21.17 301.4,14.61 C301.4,3.74 294.4,0.8 279.45,0.8" id="Shape"></path>
            <path d="M358.36,0 C342.52,0 333.9,6.42 333.9,17.08 C333.9,24.69 337.99,28.98 346.74,31.77 C353.15,33.77 358.07,34.58 360.85,35.95 C362.23761,36.6805043 363.070373,38.1544553 362.98,39.72 C362.98,42.05 361.1,43.61 357.91,43.61 C354.37,43.61 352.71,41.91 352.71,38.2 L352.71,37.76 L333.16,37.76 C333.087154,38.4240477 333.057091,39.0920933 333.07,39.76 C333.07,50.13 341.52,56.14 357.45,56.14 C373.17,56.14 382.37,48.67 382.37,37.14 C382.37,27.27 376.37,23.81 363.73,20.44 C356.86,18.55 353.08,18.71 353.08,14.91 C353.08,12.91 354.83,11.29 357.61,11.29 C360.61,11.29 362.13,12.87 362.37,16.12 L380.37,16.12 L380.37,14.95 C380.37,5.36 372.76,0 358.37,0" id="Shape"></path>
            <polygon id="Shape" points="455.47 0.84 408.28 0.84 408.28 15.33 421.41 15.33 421.41 55.15 442.41 55.15 442.41 15.33 455.48 15.33"></polygon>
        </g>
    </g>
</svg>
