<svg xmlns="http://www.w3.org/2000/svg" viewBox="0 0 300 300"><defs><style>.logo_glow-1{fill:none;}.logo_glow-2{fill:#666;}</style></defs><title>logo</title><g id="glow"><g id="glow-logo"><path class="logo_glow-1" d="M155.23,185.4c-11,0-17.49,8.89-17.49,18.56s6.52,18.56,17.49,18.56,17.49-9,17.49-18.56S166.27,185.4,155.23,185.4Z"/><polygon class="logo_glow-2" points="130.15 162.04 14.76 79.91 113.09 173.29 130.15 162.04"/><polygon class="logo_glow-2" points="195.87 147 237.51 100.92 161.32 147 195.87 147"/><polygon class="logo_glow-2" points="186.05 57.84 134.23 159.75 156.38 147.21 186.05 57.84"/><path class="logo_glow-2" d="M41,215H53.32c-1.08,5-5.59,9.89-13.69,9.89-11.9,0-17.7-9.07-17.7-20.39,0-10.25,4.73-20.12,16.34-20.12,7.53,0,11.68,4.62,12.4,8.62H74.61c-1.36-15-15.05-27.2-36-27.2C14.19,165.8,0,184.06,0,204c0,20.78,13.67,38.19,38.54,38.19,21.29,0,33.46-11.26,36.46-28V200H41Z"/><polygon class="logo_glow-2" points="98 168 77 168 77 240 117 240 117 222 98 222 98 168"/><path class="logo_glow-2" d="M155.23,165.77C130.36,165.77,116,184,116,204s14.33,38.2,39.27,38.2S194.58,224,194.58,204,180.1,165.77,155.23,165.77Zm0,56.76c-11,0-17.49-8.89-17.49-18.56s6.45-18.56,17.49-18.56,17.49,9,17.49,18.56S166.2,222.53,155.23,222.53Z"/><polygon class="logo_glow-2" points="277.21 168 264.24 211.29 251.62 168 234.42 168 221.67 211.29 208.84 168 186.05 168 212.14 240 230.91 240 243.02 200.51 255.06 240 273.91 240 300 168 277.21 168"/></g></g></svg>