<svg xmlns="http://www.w3.org/2000/svg" viewBox="0 0 300 300"><defs><style>.logo_ae-1{fill:none;}.logo_ae-2{fill:#666;}</style></defs><title>logo</title><g id="ae"><g id="ae-logo"><polygon class="logo_ae-1" points="73.54 168 110.75 168 92.47 111.85 73.54 168"/><path class="logo_ae-2" d="M172.13,113.35c4.24-2.94,7.51-6.53,7.51-11.26A10,10,0,0,0,169,91.48c-7,0-10.78,4.73-10.78,10.77,0,4.9,4.08,9.47,8.49,14.85C168.53,116,172.13,113.35,172.13,113.35Z"/><path class="logo_ae-2" d="M147.64,182.56c0,10.45,10,21.55,20.73,22.2a29.25,29.25,0,0,0,20.73-7.34l-28.73-36.56C153,166.73,147.64,173.42,147.64,182.56Z"/><polygon class="logo_ae-2" points="241.99 195 233.33 202.97 257.81 232 300 232 300 195 241.99 195"/><path class="logo_ae-2" d="M300,132H219V104h81V68.3l-114.37-.16c12.57,6.53,22.71,18.93,22.71,34.28,0,12.73-5.13,21.38-15.25,28.89,0,0-6.81,5.88-10.9,8.65l30.71,38.59L226.64,168H300Z"/><path class="logo_ae-2" d="M146.82,68.14l-82.26,1L.25,232H54.6l10.78-28H116.3c-1.91-9-2.84-14.23-2.78-20.59,0-21.22,15-35.84,29.06-45.31-6.53-7.67-16.16-19.72-16.16-35.55C126.58,87.2,133.93,74.51,146.82,68.14ZM73.54,168l18.94-56.15L110.75,168Z"/></g></g></svg>