<svg xmlns="http://www.w3.org/2000/svg" viewBox="0 0 300 300"><defs><style>.logo_vh1-1{fill:#666;}</style></defs><title>logo</title><g id="vh1"><path id="vh1-logo" class="logo_vh1-1" d="M211.93,129.91v-36c0-1.66-1.19-2.38-2.82-2.38H180c-2.4,0-3.47,1-3.47,3v35.36c0,1.66-.67,2.8-2.49,2.8H146.91V93.95c0-1.66-1.26-2.38-2.89-2.38H77.75a3.16,3.16,0,0,0-3.27,2.49L56.74,151.67c-.55,1.85-1.5,1.76-2,0L37.18,94.94c-.77-2.28-1.5-3.37-3.76-3.37H1.92C-.37,91.56-.2,93,.35,94.49L40,204.84c.67,2.08,1.44,3.6,3.48,3.6H67.94c2,0,2.87-1.65,3.52-3.43L109.73,97.95c.68-1.76,1.79-1.17,1.79.07v108.4c0,1.7,1,2,2.11,2h30.92c1.11,0,2.36-.77,2.36-1.85v-39.3h27.19c1.78,0,2.44.83,2.44,2.52v36.61c0,1.7,1.31,2,2.4,2h30.71a2.16,2.16,0,0,0,2.29-1.85v-36.8c0-1.43.52-2.51,2.52-2.51h29c1.7,0,2.24-1,2.24-2.07v-32.5H214.45C212.19,132.72,211.93,131.43,211.93,129.91Zm85.81-38.35H269.84c-2.28,0-3.38,1.12-5.75,2.86l-16,12.07c-1.65,1.32-2.38,2.07-2.38,3.83v22.39H263c1.6,0,2.44.69,2.44,2.25v71.45c0,1.7,1.06,2,2.14,2h30.71a1.66,1.66,0,0,0,1.72-1.85V93.95C300,92.29,299.38,91.56,297.75,91.56Z"/></g></svg>