<svg xmlns="http://www.w3.org/2000/svg" viewBox="0 0 300 300"><defs><style>.logo_wetv-1{fill:none;}.logo_wetv-2{fill:#666;}</style></defs><title>logo</title><g id="wetv"><g id="wetv-logo"><path class="logo_wetv-1" d="M267.44,227h-3.93c-1.33,0-1.51,0-1.82,1.36l-3,12.66-3-12.64c-.3-1.33-.48-1.38-1.82-1.38H245v-5.21c0-1.33.23-1.79-1.1-1.79h-3.81c-1.33,0-1.08.46-1.08,1.79V227h-4c-1.33,0-1-.06-1,1.27v2.66c0,1.33-.33,1.07,1,1.07h4v16.36c0,1.33-.25,1.64,1.08,1.64h3.81c1.33,0,1.1-.31,1.1-1.64V232h5l4.6,16.26c.36,1.33.54,1.74,1.88,1.74h4.36c1.33,0,1.51-.21,1.88-1.54l5.81-20C268.89,227.08,268.83,227,267.44,227Z"/><path class="logo_wetv-1" d="M293,51.94c0-.85-.61-.94-1.88-.94H291v2h.1C292.37,53,293,52.79,293,51.94Z"/><path class="logo_wetv-1" d="M292,47.07a7,7,0,0,0-6.8,6.9A6.89,6.89,0,0,0,292,60.88c3.64.07,6-2.76,7-6.4v-.57A7,7,0,0,0,292,47.07Zm3,11.31V58h-1.05c-.25,1-.39.24-.51,0L291,54.94V58a.9.9,0,0,1-.54.82c-.08,0-.25.15-.33.15h-.48a.75.75,0,0,1-.66-.59,3.12,3.12,0,0,1,0-.38V50c0-.3.12-.76.43-.82.08,0,.15-.16.22-.16h1.21a5.69,5.69,0,0,1,2.66.7,3,3,0,0,1,.75,4c-.34.51-.84.3-1.41,1.3h-.12l2.3,2.87c.1.12.31.07.33.22S295,58.39,295,58.38Z"/><path class="logo_wetv-2" d="M38.79,207H68.87c7,0,7.26,0,8.47-7L92.6,110.38l15.25,89.52c1.21,7,1.45,7.09,8.47,7.09H146.4c6.29,0,7.5-.5,8.23-4.62L184.41,54.71a28.21,28.21,0,0,0,.73-4.23c0-3.39-1.94-4.47-8-4.47H148.52c-7,0-7.26.17-8.47,7.19l-12.1,92.92s-7.63-47.1-10-61.45S112.63,53,112.63,53c-1.21-6.78-1.45-7-8.47-7H80.92c-7,0-7.26.2-8.47,7,0,0-2.84,17.35-5.27,31.69s-10,61.42-10,61.42L45,53.2c-1.21-7-1.45-7.2-8.47-7.2H8c-6.05,0-8,1.14-8,4.53a29.38,29.38,0,0,0,.73,4.32L30.5,202.4C31.23,206.52,32.5,207,38.79,207Z"/><path class="logo_wetv-2" d="M266.17,46H201c-7.26,0-8,.59-8,7.85V199.46c0,7.26.73,7.54,8,7.54h65.18c7.26,0,7.83-.27,7.83-7.54V176.71c0-7.26-.57-7.71-7.83-7.71H237V144h25.3c7.26,0,7.7-.7,7.7-8V115.46c0-7.26-.44-8.46-7.7-8.46H237V84h29.17c7.26,0,7.83-.8,7.83-8.06V53.85C274,46.59,273.43,46,266.17,46Z"/><path class="logo_wetv-2" d="M266.17,216H19.61c-7.26,0-7.61.41-7.61,7.67v22.76c0,7.26.35,7.57,7.61,7.57H266.17c7.26,0,7.83-.31,7.83-7.57V223.67C274,216.41,273.43,216,266.17,216Zm2.36,12.36-5.81,20.14c-.36,1.33-.54,1.5-1.88,1.5h-4.36c-1.33,0-1.51-.41-1.88-1.74L250,232h-5v16.36c0,1.33.23,1.64-1.1,1.64h-3.81c-1.33,0-1.08-.31-1.08-1.64V232h-4c-1.33,0-1,.26-1-1.07v-2.66c0-1.33-.33-1.27,1-1.27h4v-5.21c0-1.33-.25-1.79,1.08-1.79h3.81c1.33,0,1.1.46,1.1,1.79V227h8.82c1.33,0,1.51,0,1.82,1.36l3,12.66,3-12.64c.3-1.33.48-1.38,1.82-1.38h3.93C268.83,227,268.89,227,268.53,228.36Z"/><path class="logo_wetv-2" d="M292,45.86a8.11,8.11,0,1,0,8,8.23v-.24A8.11,8.11,0,0,0,292,45.86Zm7,8.62c-1,3.64-3.42,6.46-7.06,6.4A6.85,6.85,0,0,1,285.19,54,6.9,6.9,0,0,1,299,53.91Z"/><path class="logo_wetv-2" d="M292.74,55h.12c.58-1,1.08-.72,1.41-1.22a3,3,0,0,0-.75-4,5.77,5.77,0,0,0-2.66-.78h-1.21c-.08,0-.15.14-.22.16-.3.06-.43.52-.43.82v8a3.12,3.12,0,0,0,0,.38.75.75,0,0,0,.66.59h.48c.08,0,.25-.14.33-.15A.9.9,0,0,0,291,58V54.94L293.44,58c.11.22.26,1,.51,0H295v.38s.36-.09.36-.36-.15-.09-.25-.21ZM291,53V51h.16c1.27,0,1.88.09,1.88.94S292.37,53,291.1,53Z"/></g></g></svg>