<svg xmlns="http://www.w3.org/2000/svg" viewBox="0 0 300 300"><defs><style>.logo_usa-1{fill:none;}.logo_usa-2{fill:#666;}</style></defs><title>logo</title><g id="usa"><g id="usa-logo"><path class="logo_usa-1" d="M237.63,125.64A24,24,0,0,0,222,119.88a20.77,20.77,0,0,0-14.91,6.44,33.89,33.89,0,0,0-7.79,33.21,31.49,31.49,0,0,0,9.15,14.57,22.88,22.88,0,0,0,14.91,5.76,23.72,23.72,0,0,0,11.18-3.05,30,30,0,0,0,13.56-24.74A33.35,33.35,0,0,0,237.63,125.64Z"/><path class="logo_usa-2" d="M247,100h-.22C239,93,228.72,88.29,218,88a49,49,0,0,0-29.82,8.78,56.89,56.89,0,0,0-17.62,21.34A66.25,66.25,0,0,0,154.26,107a23.72,23.72,0,0,0-18.64-.68,13.35,13.35,0,0,0-6.44,5.79,15.28,15.28,0,0,0-1.69,8.47,13.08,13.08,0,0,0,3.73,7.46,25.21,25.21,0,0,0,7.79,4.74,83.68,83.68,0,0,0,9.83,3.39L158,139.2a48.91,48.91,0,0,1,16.27,9.49c9.15,8.81,12.2,22.37,10.51,34.91a49.41,49.41,0,0,1-2.37,10.17c-.34.68-.68,1.69-1,2.37a1.19,1.19,0,0,1-.34.68l1,1a30.5,30.5,0,0,0,3.39,3.05,57.41,57.41,0,0,0,13.9,8.13,49.27,49.27,0,0,0,32,1c5.84-2,10.7-5.2,15.7-9.49V211h35V91H247Zm1.14,52.08a30,30,0,0,1-13.56,24.74,23.72,23.72,0,0,1-11.18,3.05h0a22.88,22.88,0,0,1-14.91-5.76,31.49,31.49,0,0,1-9.15-14.57,33.89,33.89,0,0,1,7.79-33.21A20.77,20.77,0,0,1,222,119.88a24,24,0,0,1,15.59,5.76A33.35,33.35,0,0,1,248.14,152.08Z"/><path class="logo_usa-2" d="M142.74,169.67a36.47,36.47,0,0,0-9.83-4.41c-3.73-1.36-9.64-3.05-11-3.39a22.56,22.56,0,0,1-5.91-1.69v0c-1-.68-3.24-1.36-4.59-2a44.35,44.35,0,0,1-8.4-5.42,34.49,34.49,0,0,1-10.13-14.91,48.69,48.69,0,0,1-2.35-18.64,41.1,41.1,0,0,1,5.43-19C98.59,95.57,102,92,106.13,88H71v63.4c0,3.39-.06,6.78-.39,10.17-.68,6.1-2.74,13.22-8.5,16.27a17.33,17.33,0,0,1-9.16,2,16,16,0,0,1-8.82-2.71c-5.08-3.73-6.27-10.84-6.95-16.95a96.74,96.74,0,0,1-.17-9.83V88H0v64.38a112.24,112.24,0,0,0,1.89,21.69,56.92,56.92,0,0,0,7.22,17.62,36.24,36.24,0,0,0,13.61,12.2,52.14,52.14,0,0,0,19,6.1,99.69,99.69,0,0,0,20,.68,59.89,59.89,0,0,0,18.65-4.41A41.7,41.7,0,0,0,95.29,196.1a44.53,44.53,0,0,0,8.81-14.91c0-.34.34-1,.34-1.36A56.29,56.29,0,0,0,119,190.68a29,29,0,0,0,17.62,3.39,17.89,17.89,0,0,0,8.13-3.73,16.17,16.17,0,0,0,4.07-7.46,12.27,12.27,0,0,0-1-7.79A13.08,13.08,0,0,0,142.74,169.67Z"/><polygon class="logo_usa-2" points="298.97 204 296.94 207.05 294.9 204 294 204 294 210 295 210 295 205.59 297 208.64 299 205.59 299 210 300 210 300 204 298.97 204"/><polygon class="logo_usa-2" points="287 205 289 205 289 204.91 289 204.95 289 210 290 210 290 205 292 205 292 204 287 204 287 205"/><rect class="logo_usa-2" x="293.55" y="203.9" width="0.68" height="0.03"/></g></g></svg>