<svg xmlns="http://www.w3.org/2000/svg" viewBox="0 0 300 300"><defs><style>.logo_hbo-1{fill:#666;}</style></defs><title>logo</title><g id="hbo"><g id="hbo-logo"><g id="path3"><path class="logo_hbo-1" d="M146.45,89.43c9.24,0,35.55,5,35.55,30.92,0,20.83-10,27-17.77,28.44-5.69,1.07,16.35,0,16.35,26.09,0,37-32,35.55-32,35.55H95.26v-121Zm-21.33,29.5V137.2h17.77s7.11-.85,7.11-9.6-7.11-8.67-7.11-8.67Zm0,44.57V182h17.77s7.11-.71,7.11-10c0-8.53-7.11-8.53-7.11-8.53ZM0,89.43v121H33.41V165.64H54.74v44.79H88.15v-121H54.74v45.64H33.41V89.43Z"/></g><g id="Oval"><path class="logo_hbo-1" d="M238.15,211.85A61.85,61.85,0,1,1,300,150,61.92,61.92,0,0,1,238.15,211.85Zm0-92.42A30.57,30.57,0,1,0,268.72,150,30.6,30.6,0,0,0,238.15,119.43Z"/></g><g id="Oval-2"><circle class="logo_hbo-1" cx="238.15" cy="150" r="24.88"/></g></g></g></svg>