<svg xmlns="http://www.w3.org/2000/svg" viewBox="0 0 300 300"><defs><style>.logo_trutv-1{fill:none;}.logo_trutv-2{fill:#666;}</style></defs><title>logo</title><g id="trutv"><g id="trutv-logo"><polygon class="logo_trutv-1" points="283.39 157 276.54 175.79 269.69 157 231 157 231 166 242 166 242 191 252 191 252 166 262.13 166 271.8 191 281.46 191 294.63 157 283.39 157"/><polygon class="logo_trutv-2" points="46 92 15 92 15 117 0 117 0 140 15 140 15 206 45 206 45 140 61.73 140 62 140 62 117 46 117 46 92"/><path class="logo_trutv-2" d="M188,156.38c0,7.55-1.93,13.35-5.44,17.56a15.34,15.34,0,0,1-12.2,5.44c-7,0-11.78-2.46-14.24-7.55-1.41-2.81-2.12-7-2.12-12.82V116H123v47.58a80.78,80.78,0,0,0,1.77,17.21A37.69,37.69,0,0,0,132.42,195a32.48,32.48,0,0,0,16,10.71,46,46,0,0,0,13.9,2.11,38.37,38.37,0,0,0,13.71-2.09A23.75,23.75,0,0,0,188.72,194H189v11h29V115.63l-30,.18Z"/><path class="logo_trutv-2" d="M94.4,131H94V117H66v89H96V166.21c0-7,2.28-11.94,6.49-14.75,3.34-2.28,8.51-3.51,16.51-3.86V117c-7,.18-13.27,1.8-17.66,5.31A29.71,29.71,0,0,0,94.4,131Z"/><path class="logo_trutv-2" d="M262.49,132.31a37.94,37.94,0,1,0,37.94,37.94A37.94,37.94,0,0,0,262.49,132.31Zm19,58.69H271.8l-9.66-25H252v25H242V166H231v-9h38.69l6.85,18.79L283.39,157h11.24Z"/></g></g></svg>