<svg xmlns="http://www.w3.org/2000/svg" viewBox="0 0 300 300"><defs><style>.logo_tbs-1{fill:none;}.logo_tbs-2{fill:#676767;}</style></defs><title>logo</title><g id="tbs"><g id="tbs-logo"><polygon class="logo_tbs-1" points="60 93 28 93 28 175.83 60 207.5 60 154 83 154 83 122 60 122 60 93"/><path class="logo_tbs-1" d="M121,123.59V93H91V208h27v-6.45a46.44,46.44,0,0,0,67.09-61.45C172,117.91,144,110.52,121,123.59Zm24.2,56.32a16.17,16.17,0,1,1,16.17-16.17A16.17,16.17,0,0,1,145.2,179.91Z"/><path class="logo_tbs-1" d="M240.14,148.82l-8.92-2c-4.65-1-3.93-7.86.81-7.86h40l-23.12-23H232.08C207.71,116,195,128.86,195,145.66v.24c0,18.66,17.25,24,37,28.4l8.77,2.4c4.65,1,3.78,8.3-1,8.3H193.37l23.32,23h22c23.75,0,39-11,39-30H278v-.63C278,159.57,262.6,153.81,240.14,148.82Z"/><path class="logo_tbs-2" d="M251.9,65H0V187.4L48.33,236H300V112.65ZM83,154H60v53.5L28,175.83V93H60v29H83Zm85.81,49.93A46.38,46.38,0,0,1,118,201.55V208H91V93h30v30.59c23-13.07,51-5.67,64.08,16.51A46.54,46.54,0,0,1,168.81,203.93ZM278,178h-.29c0,19-15.26,30-39,30h-22l-23.32-23h46.44c4.75,0,5.52-7.29.86-8.3L232,174.51c-19.77-4.37-37-10-37-28.62v-.24c0-16.79,12.71-29.66,37.08-29.66h16.79L272,139H232c-4.75,0-5.52,6.85-.86,7.86l9,2c22.45,5,37.86,10.74,37.86,28.54Z"/><circle class="logo_tbs-2" cx="145.2" cy="163.74" r="16.17"/></g></g></svg>