<svg xmlns="http://www.w3.org/2000/svg" viewBox="0 0 300 300"><defs><style>.logo_cinemax-1{fill:none;}.logo_cinemax-2{fill:#666;}</style></defs><title>logo</title><g id="cinemax"><g id="cinemax-logo"><path class="logo_cinemax-1" d="M34.61,182.26l22.08-2.72,1.53-10.23-15,1.84c-2,.23-3.76-.38-3.41-3l1.3-9.28c.38-3,2.88-3.72,5.48-4.06l13.88-1.69,1.46-10.24-24.42,3a7.71,7.71,0,0,0-6.82,5.79l-3.53,25.15C26.83,180.12,30.16,182.8,34.61,182.26Z"/><polygon class="logo_cinemax-1" points="87.63 175.75 90.23 157.58 100.77 174.14 111.28 172.83 116.45 136.26 104.72 137.68 102.23 155.12 92.11 139.22 81.03 140.56 75.89 177.17 87.63 175.75"/><polygon class="logo_cinemax-1" points="72.25 177.63 77.43 141.06 65.58 142.51 60.41 179.08 72.25 177.63"/><polygon class="logo_cinemax-1" points="145.16 168.66 146.54 158.61 127.99 160.87 128.56 156.89 145.85 154.78 147.08 145.96 129.83 148.11 130.37 144.39 148.92 142.13 150.34 132.09 120.17 135.8 115 172.37 145.16 168.66"/><path class="logo_cinemax-1" d="M160.42,166.82l2.53-18.13,6.29,12,.19,0,10-14-2.53,18.13,10.81-1.34,1-.11,11.92-1.46,2.49-5.14,12.38-1.53,1.19,4.68,9.47-1.15,3.14-.38,10.58-1.3L247,146l5.56,9.51,12.8-1.57-10.85-17.1,13.15-19.17L254,119.36l-6.13,9.51-5.1-8.09-12.8,1.57,10.39,15.76-11.85,17.29-8.85-31.7-11.73,1.46L189,161l4.83-34.23-13,1.61-9.39,13.76-5.79-11.92L154,131.66l-5.14,36.57Zm51.4-28.41,2,8.47-6.48.81Z"/><path class="logo_cinemax-1" d="M296.08,100.81l-.65.08-.15,1,.65-.08a1.05,1.05,0,0,0,.69-.31.65.65,0,0,0,.11-.38C296.7,100.81,296.47,100.77,296.08,100.81Z"/><path class="logo_cinemax-1" d="M295.7,98.12a4.19,4.19,0,0,0-2.76,1.57A4.43,4.43,0,0,0,292,103a3.24,3.24,0,0,0,3.83,3,4.13,4.13,0,0,0,2.76-1.57,4.34,4.34,0,0,0,.92-3.34A3.24,3.24,0,0,0,295.7,98.12Zm1.3,4.49.84,1.42-1.46.19L295.7,103l-.54.08-.23,1.38-1.42.19.65-4.72,1.84-.23c1.38-.15,2,.38,2.11,1.19A1.65,1.65,0,0,1,297,102.61Z"/><path class="logo_cinemax-2" d="M.07,202.39,278,166.89l9.58-68-278,35.5Zm165.6-72.14,5.79,11.92,9.39-13.76,13-1.61L189,161l18.86-35.88,11.73-1.46,8.85,31.7,11.85-17.29-10.39-15.76,12.8-1.57,5.1,8.09,6.13-9.51,13.72-1.69-13.15,19.17,10.85,17.1-12.8,1.57L247,146l-7.21,11-10.58,1.3-3.14.38-9.47,1.15-1.19-4.68L203,156.73l-2.49,5.14-11.92,1.46-1,.11-10.81,1.34,2.53-18.13-10,14-.19,0-6.29-12-2.53,18.13-11.58,1.42L154,131.66Zm-15.33,1.84-1.42,10-18.55,2.26-.54,3.72L147.08,146l-1.23,8.82-17.29,2.11-.57,4,18.55-2.26-1.38,10L115,172.37l5.17-36.57Zm-58.23,7.13,10.12,15.91,2.49-17.44,11.73-1.42-5.17,36.57-10.5,1.3L90.23,157.58l-2.61,18.17-11.73,1.42L81,140.56Zm-14.68,1.84-5.17,36.57-11.85,1.46,5.18-36.57Zm-50.25,35.8,3.53-25.15a7.71,7.71,0,0,1,6.82-5.79l24.42-3-1.46,10.24-13.88,1.69c-2.61.34-5.1,1.11-5.48,4.06l-1.3,9.28c-.35,2.57,1.42,3.18,3.41,3l15-1.84-1.53,10.23-22.08,2.72C30.16,182.8,26.83,180.12,27.17,176.86Z"/><polygon class="logo_cinemax-2" points="211.82 138.41 207.34 147.69 213.82 146.88 211.82 138.41"/><path class="logo_cinemax-2" d="M296,99.66l-1.84.23-.65,4.72,1.42-.19.23-1.38.54-.08.69,1.27,1.46-.19-.84-1.42a1.65,1.65,0,0,0,1.11-1.76C298,100,297.39,99.5,296,99.66Zm.61,1.88a1.05,1.05,0,0,1-.69.31l-.65.08.15-1,.65-.08c.38,0,.61,0,.65.35A.65.65,0,0,1,296.62,101.53Z"/><path class="logo_cinemax-2" d="M300,101h0v-.28h0c0-2-2.27-3.4-4.3-3.06a4.78,4.78,0,0,0-3.18,1.85,4.91,4.91,0,0,0-1,3.64.92.92,0,0,1,0,.22,3.74,3.74,0,0,0,4.29,3.1C298.5,106.1,300,103.66,300,101Zm-1.39,3.41a4.13,4.13,0,0,1-2.76,1.57,3.24,3.24,0,0,1-3.83-3,4.43,4.43,0,0,1,.92-3.34,4.19,4.19,0,0,1,2.76-1.57,3.24,3.24,0,0,1,3.83,3A4.34,4.34,0,0,1,298.61,104.41Z"/></g></g></svg>