<svg xmlns="http://www.w3.org/2000/svg" viewBox="0 0 300 300"><defs><style>.logo_yahoo-1{fill:none;}.logo_yahoo-2{fill:#666;}</style></defs><title>logo</title><g id="yahoo"><g id="yahoo-logo"><path class="logo_yahoo-1" d="M178.55,125h-.49c-10.63,0-20,7.43-20,25.11,0,15.66,7.54,24.93,20.52,24.93,11.84,0,20.61-8.15,20.61-25S190.4,125,178.55,125Z"/><path class="logo_yahoo-1" d="M58.82,157.46q9.73.37,19.47,0c-3.33-8.6-6.73-17.12-9.73-25.55C66.52,137.67,62.79,147.4,58.82,157.46Z"/><path class="logo_yahoo-1" d="M245.48,121.85c-11.76,0-25,6.41-25,27.91,0,20.69,12,28.39,25,28.39,12.25,0,25.23-6.81,25.23-28C270.71,130.69,260,121.85,245.48,121.85Z"/><path class="logo_yahoo-2" d="M296.18,116a8.56,8.56,0,0,0-1-.08c-2.19,0-4.38,1.3-4.38,4.62-1.3,16.55-2.68,33.1-4.87,48.92a5.18,5.18,0,0,1,3.41.57c2.51-16.06,8.52-40,10.06-46.81a14.19,14.19,0,0,0,.57-2.92C300.08,117.79,298.54,116.33,296.18,116Z"/><path class="logo_yahoo-2" d="M137,122.5c.41,8.52.65,17.12.73,25.64q-15.33.37-30.66,0c0-8.52.24-17.12.73-25.64a19.47,19.47,0,0,1-9.17,0c.81,18.33.73,36.67,0,54.92a19.47,19.47,0,0,1,9.17,0c-.49-8.52-.65-17-.73-25.55q15.33-.24,30.66,0,0,12.78-.73,25.55a19.47,19.47,0,0,1,9.17,0c-.73-18.25-.81-36.59,0-54.92A19.47,19.47,0,0,1,137,122.5Z"/><path class="logo_yahoo-2" d="M65.3,122.79C57.92,141.29,49.4,162,41.78,178h.08a15.9,15.9,0,0,1,9-.29c1.95-4.95,4.14-10.61,6.41-16.29,7.54-.24,15-.32,22.55-.07,2.11,5.35,4.3,10.67,6.33,16.11a18.38,18.38,0,0,1,9.17,0c-5.52-10.3-16.55-37-23.61-54.79A9.18,9.18,0,0,1,65.3,122.79Zm-6.49,34.67c4-10.06,7.71-19.79,9.73-25.55,3,8.44,6.41,17,9.73,25.55Q68.55,157.83,58.82,157.46Z"/><path class="logo_yahoo-2" d="M55.08,115.2a18.77,18.77,0,0,1-9.25,0c-2.6,4.87-12.17,20.52-18.33,30.58C21.34,135.48,14,123.63,9.17,115.2a16.76,16.76,0,0,1-9.17,0c7.54,11.28,19.55,32.86,23.61,39.91L23,184.56a37.68,37.68,0,0,1,4.38-.41,32.06,32.06,0,0,1,4.38.41l-.57-29.45C39,141.73,51.68,119.82,55.08,115.2Z"/><path class="logo_yahoo-2" d="M178.47,121.77c-19.39,0-29.61,12.33-29.61,28.31,0,17.44,11.11,28.15,29.61,28.15,20,0,29.69-12,29.69-27.91C208.16,132.48,196.48,121.77,178.47,121.77Zm.08,53.3c-13,0-20.52-9.3-20.52-25,0-17.69,9.41-25.11,20-25.11h.49c11.84,0,20.61,8.16,20.61,25S190.4,175.07,178.55,175.07Z"/><path class="logo_yahoo-2" d="M245.48,118.44c-19.31,0-34.15,11-34.15,31.4,0,16.79,9.82,31.64,34.32,31.64,20.69,0,34.23-11.36,34.23-31.31C279.88,131.34,267.3,118.44,245.48,118.44Zm0,59.71c-13,0-25-7.71-25-28.39,0-21.5,13.22-27.91,25-27.91,14.52,0,25.23,8.84,25.23,28.31C270.71,171.34,257.73,178.15,245.48,178.15Z"/><path class="logo_yahoo-2" d="M285.72,176c-2.92,0-4.3,2.19-4.3,4.54,0,2.76,2.19,4.22,4.95,4.22,2,0,4.14-1.22,4.14-4.46C290.51,177.66,288.48,176,285.72,176Z"/></g></g></svg>