<svg xmlns="http://www.w3.org/2000/svg" viewBox="0 0 300 300"><defs><style>.logo_cartoonnetwork-1{fill:none;}.logo_cartoonnetwork-2{fill:#666;}</style></defs><title>logo</title><g id="cartoonnetwork"><g id="cartoonnetwork-logo"><polygon class="logo_cartoonnetwork-1" points="26.52 227 29.73 227 28.07 221.36 26.52 227"/><path class="logo_cartoonnetwork-1" d="M50.05,222H46v3h4.05a1.5,1.5,0,1,0,0-3Z"/><path class="logo_cartoonnetwork-1" d="M260.59,222H257v3h3.59a1.5,1.5,0,1,0,0-3Z"/><circle class="logo_cartoonnetwork-1" cx="239.39" cy="225.42" r="3.4"/><circle class="logo_cartoonnetwork-1" cx="87.69" cy="225.42" r="3.4"/><path class="logo_cartoonnetwork-1" d="M108.11,222a3.49,3.49,0,0,0,0,7h.16a3.38,3.38,0,0,0,3.25-3.49A3.48,3.48,0,0,0,108.11,222Z"/><path class="logo_cartoonnetwork-2" d="M106.36,189a66.41,66.41,0,0,0,24.69-24.69L94.2,143.25a23.92,23.92,0,1,1,0-23.73l36.86-21.1A66.42,66.42,0,1,0,106.36,189Z"/><polygon class="logo_cartoonnetwork-2" points="196 141.98 239.2 195 281 195 281 68 239 68 239 120.78 196.7 68 154 68 154 195 196 195 196 141.98"/><polygon class="logo_cartoonnetwork-2" points="221.89 224.21 218.87 216.89 215.76 224.18 214.3 216 208.18 216 211.68 235 216.73 235 218.87 230.04 218.87 230.04 221.01 235 226.07 235 229.47 216 223.35 216 221.89 224.21"/><polygon class="logo_cartoonnetwork-2" points="188 222 194 222 194 235 201 235 201 222 206 222 206 216 188 216 188 222"/><path class="logo_cartoonnetwork-2" d="M239.39,216a9.53,9.53,0,1,0,9.53,9.53h0A9.53,9.53,0,0,0,239.39,216Zm0,12.84a3.4,3.4,0,1,1,3.4-3.4A3.4,3.4,0,0,1,239.39,228.83Z"/><polygon class="logo_cartoonnetwork-2" points="162 223.87 155.86 216 150 216 150 235 156 235 156 226.98 161.98 235 168 235 168 216 162 216 162 223.87"/><polygon class="logo_cartoonnetwork-2" points="170 235 186 235 186 230 176 230 176 228 185 228 185 223 176 223 176 222 186 222 186 216 170 216 170 235"/><path class="logo_cartoonnetwork-2" d="M261,216.16V216H251v19h6v-6h1.75l2.63,6h6.81l-3.6-6.25a6.88,6.88,0,0,0,3.3-5.95A6.69,6.69,0,0,0,261,216.16Zm-.41,8.84H257v-3h3.59a1.5,1.5,0,1,1,0,3Z"/><polygon class="logo_cartoonnetwork-2" points="280.63 216 276 222.31 276 216 270 216 270 235 276 235 276 227.76 280.63 235 288.41 235 281.31 225.21 288.41 216 280.63 216"/><path class="logo_cartoonnetwork-2" d="M23.5,216l-5.74,19h6.52l.88-3H31l1,3h6.42l-5.74-19Zm3,11,1.56-5.64L29.73,227Z"/><polygon class="logo_cartoonnetwork-2" points="59 222 65 222 65 235 72 235 72 222 77 222 77 216 59 216 59 222"/><path class="logo_cartoonnetwork-2" d="M9.3,221.53a4,4,0,0,1,3.31,1.85l5-2.82a9.53,9.53,0,1,0-8.27,14.3,9.65,9.65,0,0,0,8.27-4.77l-5-2.82a3.69,3.69,0,0,1-3.31,1.85,3.79,3.79,0,0,1,0-7.59Z"/><path class="logo_cartoonnetwork-2" d="M87.69,216a9.53,9.53,0,1,0,9.53,9.53A9.53,9.53,0,0,0,87.69,216Zm0,12.84a3.4,3.4,0,1,1,3.4-3.4A3.4,3.4,0,0,1,87.69,228.83Z"/><path class="logo_cartoonnetwork-2" d="M108.11,216h0a9.53,9.53,0,1,0,9.53,9.53A9.53,9.53,0,0,0,108.11,216Zm.16,13h-.16a3.48,3.48,0,0,1-3.4-3.49,3.4,3.4,0,1,1,6.81,0A3.36,3.36,0,0,1,108.26,229Z"/><polygon class="logo_cartoonnetwork-2" points="131 223.96 125.52 216 119 216 119 235 125 235 125 226.98 131.54 235 137 235 137 216 131 216 131 223.96"/><path class="logo_cartoonnetwork-2" d="M51,216.16V216H40v19h6v-6h2.2l2.63,6h6.81L54,228.75a6.68,6.68,0,0,0-3-12.59ZM50.05,225H46v-3h4.05a1.5,1.5,0,1,1,0,3Z"/><polygon class="logo_cartoonnetwork-2" points="57.64 222.8 57.64 222.79 57.63 222.79 57.64 222.8"/><polygon class="logo_cartoonnetwork-2" points="290 231 292 231 292 235 293 235 293 231 294 231 294 230 290 230 290 231"/><polygon class="logo_cartoonnetwork-2" points="298.32 230 297.35 233.89 296.48 230 295 230 295 235 296 235 296 230.38 296.87 235 297.84 235 299 230.38 299 235 300 235 300 230 298.32 230"/></g></g></svg>