<svg xmlns="http://www.w3.org/2000/svg" viewBox="0 0 300 300"><defs><style>.logo_crackle-1{fill:none;}.logo_crackle-2{fill:#666;}</style></defs><title>logo</title><g id="crackle"><g id="crackle-logo"><polygon class="logo_crackle-1" points="109.54 155 120.51 155 115.25 138.52 109.54 155"/><polygon class="logo_crackle-2" points="271 153 290 153 290 144 271 144 271 132 291 132 291 124 258 124 258 176 292 176 292 167 271 167 271 153"/><polygon class="logo_crackle-2" points="242 131 229 131 229 176 256 176 256 169 242 169 242 131"/><rect class="logo_crackle-2" x="183" y="131" width="13" height="45"/><path class="logo_crackle-2" d="M213,131l-12.5,16.47c-1.67,2.12-2.51,3-3,4.28a4.54,4.54,0,0,0-.39,1.81c0,1.73.72,2.63,2.45,5.19L211.26,176h15.06l-16.93-23.78L226.46,131Z"/><path class="logo_crackle-2" d="M144.9,136.2a23.59,23.59,0,0,0-7.8,17.88,22.2,22.2,0,0,0,9,18.27c6.74,5.18,14.28,5.23,17.1,5.23a45.91,45.91,0,0,0,14.14-2.37c1-.33,1.69-.72,2.69-1.11V161.21c-2,2-2.05,2.76-3,3.68-4.71,4.76-9.24,5.82-12.05,5.82a13.34,13.34,0,0,1-7.43-2.42c-6.35-4.4-6.67-12.84-6.67-14.73,0-4.59,1.43-10.27,4.91-13.76a13.83,13.83,0,0,1,9.44-3.68,16.68,16.68,0,0,1,11.92,5.23c1.36,1.45,2.81,3.48,3.15,3.87l0-12.39a46.06,46.06,0,0,0-16.62-3.45C160.36,129.38,152,129.66,144.9,136.2Z"/><path class="logo_crackle-2" d="M119.09,131c-5.9,0-8.66-.07-11.11,2a9.85,9.85,0,0,0-2.76,4.17c-.7,1.48-1.28,3-1.87,4.62l-10.3,29c-3.06-6.15-7.6-15.23-7.6-15.26a46.73,46.73,0,0,0,4.48-4.62,10.91,10.91,0,0,0,2.26-6.74,12.61,12.61,0,0,0-2.76-7.63c-4.29-5.26-11.08-5.36-12.95-5.44-1.53-.06-3.09,0-4.68,0H53v45H66V137.43a10.86,10.86,0,0,1,5-1.23,9,9,0,0,1,8.26,5.21,9.15,9.15,0,0,1,.66,3.2,8.78,8.78,0,0,1-2.61,6.1c-1.17,1.23-3.28,3-4,4.48a5,5,0,0,0-.39,1.92c0,1.53.53,2.62,1.73,5.26l4,8.66c.83,1.61,1.73,3.29,3.34,4.18,1.23.7,2.56.78,5.32.78h14.9l4.93-14h15.73l4.93,14h12.78l-15.7-45Zm-9.55,24,5.71-16.48L120.51,155Z"/><path class="logo_crackle-2" d="M9.16,129.69a27.82,27.82,0,0,0-9.16,21,26.14,26.14,0,0,0,10.53,21.47c7.94,6.07,16.76,6.15,20.08,6.15A52.54,52.54,0,0,0,47,175.52a24.32,24.32,0,0,0,3-1.31V159.06c-2,2.37-2.17,3.23-3.34,4.29-5.54,5.6-10.75,6.85-14.06,6.85a15.21,15.21,0,0,1-8.69-2.87c-7.46-5.15-7.81-15.06-7.81-17.29,0-5.37,1.69-12.08,5.79-16.15,3.93-3.93,9.34-4.32,11.09-4.32,2.87,0,8.35.78,13.67,6.15,1.59,1.7,3.34,4.09,3.34,4.54V125.79a51.13,51.13,0,0,0-19.18-4.09A31.08,31.08,0,0,0,9.16,129.69Z"/><polygon class="logo_crackle-2" points="298.68 126.17 299 125.44 299 124.26 298.68 126.17"/><polygon class="logo_crackle-2" points="298.46 126.25 298.55 126.45 298.64 126.25 298.47 126.25 298.46 126.25"/><polygon class="logo_crackle-2" points="299.53 124.25 299 125.44 299 126.25 300 126.25 300 124.25 299.53 124.25"/><polygon class="logo_crackle-2" points="298.66 126.25 298.68 126.17 298.64 126.25 298.66 126.25"/><polygon class="logo_crackle-2" points="297 124.25 297 124.26 298.46 126.25 297.61 124.25 297 124.25"/></g></g></svg>