<svg xmlns="http://www.w3.org/2000/svg" viewBox="0 0 300 300"><defs><style>.logo_tnt-1{fill:#666;}</style></defs><title>logo</title><g id="tnt"><g id="tnt-logo"><path class="logo_tnt-1" d="M97,105.2h29.71c7.43,0,11,2.16,14.86,8.15l30,47.2h1V105.2H292.81a149.71,149.71,0,0,0-285.86,0Z"/><path class="logo_tnt-1" d="M265.26,127v88.66h-30V127H201v88.66H181.15c-7.43,0-11-2.16-14.86-8.15l-38.58-58H127v66.13H98.24V127h-34v88.66H33.79V127H1.68A179.11,179.11,0,0,0,0,150a150,150,0,0,0,300,0,179.14,179.14,0,0,0-1.68-23Z"/></g></g></svg>