<svg width="233px" height="102px" viewBox="0 0 233 102" version="1.1" xmlns="http://www.w3.org/2000/svg" xmlns:xlink="http://www.w3.org/1999/xlink">
    <!-- Generator: Sketch 43.2 (39069) - http://www.bohemiancoding.com/sketch -->
    <desc>Created with Sketch.</desc>
    <defs></defs>
    <g id="Page-1" stroke="none" stroke-width="1" fill="none" fill-rule="evenodd">
        <g id="moet" fill-rule="nonzero" fill="#666666">
            <path d="M132.58,18.94 C132.187946,18.9360537 131.817122,19.1177575 131.58,19.43 C131.24,19.77 130.76,20.28 130.76,20.28 L130.45,19.93 C130.34,19.75 130.21,19.21 130.45,19.01 C130.52,18.95 130.45,18.9 130.45,18.9 C130.210244,18.9031492 129.989868,19.0323354 129.87,19.24 C129.750829,19.4097823 129.662793,19.5993994 129.61,19.8 C129.36837,19.7915849 129.133715,19.8818369 128.96,20.05 C128.729629,20.3286067 128.63116,20.6933062 128.69,21.05 C128.503944,21.1943148 128.344835,21.370351 128.22,21.57 C128.098487,21.8437899 128.098487,22.1562101 128.22,22.43 C128.22,22.49 128.31,22.51 128.34,22.43 C128.467115,22.1413925 128.745171,21.9482982 129.06,21.93 C129.52,21.93 129.69,22.03 129.68,22.16 C129.422767,22.6153808 128.960363,22.9174351 128.44,22.97 C128.038146,23.024546 127.64314,22.8309928 127.44,22.48 C127.281326,22.2482395 127.203957,21.9704159 127.22,21.69 C127.22,21.69 127.78,21.77 128.1,21.03 C128.35,20.45 128.19,20.03 127.96,19.93 C127.73,19.83 127.2,20.02 126.96,20.45 C126.6,21.17 126.88,21.54 126.88,21.54 C126.509538,22.0538499 125.831618,22.2410058 125.25,21.99 C124.25,21.64 124.74,19.78 124.74,19.78 C124.876599,19.7363561 125.023401,19.7363561 125.16,19.78 C125.3,19.86 125.34,20.21 125.47,20.5 C125.6,20.79 125.74,21.05 125.96,21.05 C126.18,21.05 126.37,20.54 126.4,20.15 C126.8,20.07 127.12,19.8 126.99,19.04 C126.99,19.04 127.47,18.52 127.4,18.17 C127.4,18.17 127.13,18.01 126.75,18.06 C126.436481,18.1156847 126.128583,18.1993526 125.83,18.31 C125.828944,18.1564002 125.866786,18.0050324 125.94,17.87 C126.23316,17.6389351 126.507367,17.3847913 126.76,17.11 C126.92,16.87 127.13,16.51 126.95,16.4 C126.72793,16.2804438 126.481917,16.2121068 126.23,16.2 C126.132378,16.0527343 125.993134,15.9378573 125.83,15.87 L125.83,15.87 C125.660273,15.8199953 125.479727,15.8199953 125.31,15.87 C125.102685,15.7196908 124.862873,15.6203402 124.61,15.58 C124.41,15.58 124.33,15.97 124.3,16.25 C124.33177,16.6418788 124.398707,17.030108 124.5,17.41 C124.475459,17.5626743 124.413633,17.7069365 124.32,17.83 C124.202638,17.5204266 124.044583,17.2278564 123.85,16.96 C123.716856,16.7611378 123.498817,16.6354881 123.26,16.62 C123.12,16.62 122.9,17.19 122.94,17.67 C122.534854,17.9361336 122.378919,18.4545136 122.57,18.9 C122.39,19.19 122.25,19.75 122.4,19.96 C122.55,20.17 122.92,20.02 123.31,19.81 C123.7,19.6 123.83,19.39 124,19.39 C124.17,19.39 124.35,19.63 124.35,19.63 C124.35,19.63 123.57,21.1 122.61,21.11 C122.213521,21.1527185 121.817493,21.0255536 121.52,20.76 C121.286798,20.5778429 121.132788,20.3128027 121.09,20.02 C121.518981,19.8371336 121.806192,19.425723 121.83,18.96 C121.923385,18.508221 121.639356,18.0644249 121.19,17.96 C120.714815,17.9887575 120.325778,18.3485117 120.26,18.82 C120.142541,19.2462333 120.30197,19.700605 120.66,19.96 C120.440607,20.5914396 119.800195,20.974844 119.14,20.87 C118.678356,20.8731335 118.231039,20.7098273 117.88,20.41 C117.459589,19.9430632 117.224796,19.3382931 117.22,18.71 C117.379263,18.6236335 117.558997,18.5821564 117.74,18.59 C117.93,18.59 118.09,18.98 118.38,19.22 C118.641355,19.5044631 118.996277,19.6854733 119.38,19.73 C119.56,19.73 119.72,18.93 119.59,18.54 C119.937358,18.166916 119.982883,17.6040594 119.7,17.18 C119.7,17.18 119.93,16.36 119.7,16.1 C119.64,16.03 119.39,15.97 118.96,16.19 C118.603451,16.4074474 118.268583,16.6585978 117.96,16.94 C117.96,16.94 117.85,16.62 117.96,16.48 C118.1826,16.1105356 118.379725,15.7263095 118.55,15.33 C118.65,15.04 118.75,14.62 118.5,14.57 C118.191378,14.5218254 117.875675,14.5492779 117.58,14.65 C117.412256,14.5119622 117.20647,14.4282524 116.99,14.41 L116.99,14.41 C116.775919,14.4256768 116.572564,14.5098237 116.41,14.65 C116.113773,14.5519296 115.798708,14.5245326 115.49,14.57 C115.24,14.57 115.34,15.04 115.44,15.33 C115.610415,15.7262436 115.807535,16.1104603 116.03,16.48 C116.12,16.62 116.03,16.94 116.03,16.94 C115.721495,16.6585026 115.386619,16.4073451 115.03,16.19 C114.6,15.98 114.35,16.03 114.29,16.1 C114.08,16.36 114.29,17.18 114.29,17.18 C114.007117,17.6040594 114.052642,18.166916 114.4,18.54 C114.26,18.94 114.4,19.72 114.61,19.73 C114.994253,19.6872344 115.349759,19.5059263 115.61,19.22 C115.9,18.98 116.05,18.63 116.25,18.59 C116.431003,18.5821564 116.610737,18.6236335 116.77,18.71 C116.767037,19.3368118 116.535983,19.9411077 116.12,20.41 C115.768054,20.7082714 115.321335,20.8713596 114.86,20.87 C114.200621,20.9706574 113.562698,20.5887431 113.34,19.96 C113.699346,19.7014116 113.862333,19.2482272 113.75,18.82 C113.684222,18.3485117 113.295185,17.9887575 112.82,17.96 C112.369842,18.0645441 112.082788,18.5061651 112.17,18.96 C112.193808,19.425723 112.481019,19.8371336 112.91,20.02 C112.869237,20.3135054 112.714815,20.5792545 112.48,20.76 C112.181875,21.0244476 111.786349,21.1514515 111.39,21.11 C110.39,21.11 109.65,19.63 109.65,19.63 C109.65,19.63 109.83,19.4 109.99,19.39 C110.15,19.38 110.39,19.65 110.68,19.81 C110.97,19.97 111.51,20.08 111.6,19.96 C111.69,19.84 111.6,19.19 111.42,18.9 C111.611081,18.4545136 111.455146,17.9361336 111.05,17.67 C111.05,17.19 110.87,16.67 110.73,16.62 C110.491634,16.6369701 110.2742,16.762271 110.14,16.96 C109.946493,17.2285321 109.788517,17.5209561 109.67,17.83 C109.581945,17.7048509 109.523785,17.5611629 109.5,17.41 C109.600269,17.0298842 109.667189,16.6417465 109.7,16.25 C109.7,15.96 109.6,15.56 109.39,15.58 C109.140412,15.6211203 108.904025,15.7204714 108.7,15.87 C108.530193,15.8205554 108.349807,15.8205554 108.18,15.87 L108.18,15.87 C108.021248,15.9358073 107.885542,16.0471562 107.79,16.19 C107.534782,16.2013 107.285339,16.2696406 107.06,16.39 C106.89,16.5 107.06,16.86 107.25,17.1 C107.503363,17.3740627 107.777512,17.6281513 108.07,17.86 C108.144481,17.9945363 108.182407,18.1462415 108.18,18.3 C107.881433,18.1893014 107.573531,18.1056322 107.26,18.05 C106.87,17.99 106.62,18.11 106.61,18.16 C106.54,18.51 107.02,19.02 107.02,19.02 C106.89,19.78 107.21,20.02 107.61,20.13 C107.61,20.53 107.9,21.03 108.05,21.03 C108.2,21.03 108.44,20.69 108.54,20.47 C108.64,20.25 108.71,19.83 108.85,19.75 C108.99,19.67 109.27,19.75 109.27,19.75 C109.27,19.75 109.76,21.61 108.76,21.96 C108.178382,22.2110058 107.500462,22.0238499 107.13,21.51 C107.13,21.51 107.41,21.14 107.05,20.42 C106.83,19.99 106.36,19.74 106.05,19.9 C105.74,20.06 105.66,20.41 105.91,21 C106.23,21.74 106.78,21.66 106.78,21.66 C106.796017,21.9435383 106.718746,22.2245216 106.56,22.46 C106.359672,22.8148431 105.964071,23.0126432 105.56,22.96 C105.039637,22.9074351 104.577233,22.6053808 104.32,22.15 C104.32,22.02 104.49,21.92 104.95,21.92 C105.264829,21.9382982 105.542885,22.1313925 105.67,22.42 C105.67,22.5 105.76,22.48 105.79,22.42 C105.912781,22.1464802 105.912781,21.8335198 105.79,21.56 C105.663877,21.3613275 105.504954,21.1854982 105.32,21.04 C105.37884,20.6833062 105.280371,20.3186067 105.05,20.04 C104.87566,19.8728184 104.641436,19.7827322 104.4,19.79 C104.347409,19.5893267 104.259357,19.399675 104.14,19.23 C104.021965,19.0253431 103.806163,18.8966191 103.57,18.89 C103.5,18.89 103.45,18.94 103.57,19 C103.82,19.2 103.7,19.74 103.57,19.92 L103.26,20.27 C103.26,20.27 102.78,19.76 102.44,19.42 C102.202878,19.1077575 101.832054,18.9260537 101.44,18.93 C101.122699,18.918427 100.83005,19.1003441 100.7,19.39 C101.031514,19.3359765 101.370257,19.4270364 101.63,19.64 C101.93,19.85 102.63,20.57 102.63,20.57 C102.56,21.57 102.89,22.32 103.88,22.42 L104.52,23.27 L129.62,23.27 L130.26,22.42 C131.26,22.32 131.58,21.58 131.51,20.57 C131.51,20.57 132.24,19.85 132.51,19.64 C132.770342,19.4282047 133.108554,19.3372877 133.44,19.39 C133.292942,19.0581844 132.936449,18.8716474 132.58,18.94 Z M103.94,21.37 C103.88,21.45 103.79,21.59 103.79,21.59 C103.79,21.59 104.04,22.08 103.95,22.12 C103.649505,22.1032768 103.368384,21.9663206 103.17,21.74 C102.949928,21.3594569 102.829538,20.9294928 102.82,20.49 C102.82,20.49 103.04,20.72 103.33,21.06 L103.5,21.26 C103.586598,21.1717086 103.698362,21.1123335 103.82,21.09 C103.946481,21.0764952 104.074268,21.0972174 104.19,21.15 C104.19,21.15 104,21.27 103.94,21.37 Z M109.27,19.55 C109.15,19.63 108.76,19.03 108.76,19.03 C108.633604,19.0182922 108.506396,19.0182922 108.38,19.03 C108.2173,19.062665 108.056947,19.1060938 107.9,19.16 C107.973563,18.9534503 108.10994,18.7751109 108.29,18.65 C108.387503,18.5868526 108.496083,18.5427421 108.61,18.52 C108.61,18.52 108.54,18.47 108.43,18.04 C108.339729,17.633073 108.319439,17.2137415 108.37,16.8 C108.653816,17.0928017 108.886993,17.4307396 109.06,17.8 C109.23,18.22 109.21,18.3 109.21,18.3 C109.314635,18.254716 109.426244,18.2276594 109.54,18.22 C109.760883,18.209803 109.978918,18.2731033 110.16,18.4 C109.997669,18.4395767 109.840088,18.496574 109.69,18.57 C109.578972,18.6331172 109.472088,18.7032599 109.37,18.78 C109.37,18.78 109.41,19.52 109.26,19.52 L109.27,19.55 Z M116.92,18.55 L116.92,18.55 C116.72,18.55 116.57,17.81 116.57,17.81 C116.437097,17.7627859 116.299717,17.7292785 116.16,17.71 C115.973488,17.6992587 115.786512,17.6992587 115.6,17.71 C115.744303,17.5162179 115.953885,17.3812328 116.19,17.33 C116.315708,17.3079555 116.444292,17.3079555 116.57,17.33 C116.57,17.33 116.57,17.33 116.57,16.88 C116.616,16.4550617 116.737935,16.0418371 116.93,15.66 L116.93,15.66 C117.121863,16.0419168 117.243787,16.4551042 117.29,16.88 L117.29,17.33 C117.41226,17.3069847 117.53774,17.3069847 117.66,17.33 C117.899938,17.3782368 118.111603,17.5181507 118.25,17.72 C118.060267,17.7057675 117.869733,17.7057675 117.68,17.72 C117.540875,17.7422968 117.403767,17.7757378 117.27,17.82 C117.27,17.82 117.12,18.48 116.91,18.47 L116.92,18.55 Z M124.47,18.88 C124.36952,18.8009983 124.262463,18.7307419 124.15,18.67 C123.999448,18.5951133 123.842061,18.5348373 123.68,18.49 C123.858549,18.3559976 124.076803,18.2855932 124.3,18.29 C124.414899,18.2891786 124.528233,18.3166535 124.63,18.37 C124.63,18.37 124.63,18.3 124.78,17.89 C124.953802,17.5211969 125.186894,17.1833833 125.47,16.89 C125.51998,17.3037626 125.499694,17.7229958 125.41,18.13 C125.383374,18.2991032 125.325741,18.4618333 125.24,18.61 C125.350372,18.6341433 125.455421,18.6781961 125.55,18.74 C125.738925,18.8555562 125.877981,19.0373982 125.94,19.25 C125.779734,19.1958363 125.616038,19.1524068 125.45,19.12 C125.32386,19.1036712 125.19614,19.1036712 125.07,19.12 C125.07,19.12 124.68,19.73 124.56,19.64 C124.44,19.55 124.46,18.81 124.46,18.81 L124.47,18.88 Z M130.66,21.78 C130.462658,22.0091309 130.18171,22.1496045 129.88,22.17 C129.79,22.17 130.04,21.63 130.04,21.63 C130.04,21.63 129.95,21.49 129.89,21.42 C129.810919,21.3388359 129.727461,21.2620548 129.64,21.19 C129.775174,21.1445717 129.917513,21.1242374 130.06,21.13 C130.175883,21.138429 130.283727,21.1923514 130.36,21.28 L130.51,21.1 L131.02,20.53 C130.991403,20.9438628 130.864564,21.3449473 130.65,21.7 L130.66,21.78 Z" id="Shape"></path>
            <path d="M52.58,77.6 L52.38,77.74 C52.331869,77.6637787 52.2499844,77.6153924 52.16,77.61 C52.16,77.61 52.08,77.61 51.99,77.71 C51.0105081,78.5425299 49.7546106,78.9778126 48.47,78.93 C47.2243192,79.0286321 45.9947412,78.5977844 45.0830672,77.743209 C44.1713931,76.8886335 43.6620295,75.6894502 43.68,74.44 C43.68,72.29 45.5,70.37 48.41,70.37 C49.2254857,70.3746194 50.0340432,70.5200921 50.8,70.8 C51.26,70.96 51.54,71.11 51.8,71.19 L51.93,71.19 C52.0144877,71.1928771 52.0942583,71.1510925 52.14,71.08 L52.34,71.2 L51.44,72.84 L51.25,72.72 C51.2628004,72.6742111 51.2628004,72.6257889 51.25,72.58 C51.2611199,72.5407728 51.2611199,72.4992272 51.25,72.46 C50.462159,71.7620532 49.4309739,71.4027553 48.38,71.46 C47.5101721,71.3882245 46.6510883,71.6912953 46.0188451,72.2929769 C45.3866018,72.8946585 45.0413736,73.7376854 45.07,74.61 C45.07,76.67 46.65,77.86 48.65,77.86 C49.6625381,77.8493611 50.6240582,77.4139558 51.3,76.66 C51.3566054,76.581168 51.3879851,76.4870289 51.39,76.39 C51.3879353,76.3345687 51.3667333,76.2815639 51.33,76.24 L51.53,76.11 L52.61,77.62" id="Shape"></path>
            <path d="M69.48,78.26 C69.48,78.48 69.48,78.64 69.75,78.64 L69.75,78.83 L67.92,78.83 L67.92,78.64 C68.21,78.64 68.2,78.48 68.2,78.26 L68.2,75.08 L62.82,75.08 L62.82,78.26 C62.82,78.48 62.82,78.64 63.1,78.64 L63.1,78.83 L61.27,78.83 L61.27,78.64 C61.56,78.64 61.54,78.48 61.54,78.26 L61.54,71.03 C61.54,70.81 61.54,70.65 61.27,70.65 L61.27,70.46 L63.1,70.46 L63.1,70.65 C62.81,70.65 62.82,70.81 62.82,71.03 L62.82,74.03 L68.2,74.03 L68.2,71.03 C68.2,70.81 68.2,70.65 67.92,70.65 L67.92,70.46 L69.75,70.46 L69.75,70.65 C69.46,70.65 69.48,70.81 69.48,71.03 L69.48,78.26" id="Shape"></path>
            <path d="M79.98,76.61 L79.44,77.88 C79.3442372,78.0675588 79.2704165,78.2655324 79.22,78.47 C79.22,78.58 79.31,78.65 79.43,78.65 L79.43,78.84 L77.66,78.84 L77.66,78.65 C77.92,78.65 77.92,78.65 78.23,77.9 L81.09,71.47 L81.52,70.47 L82.85,70.47 L83.31,71.47 L86.12,77.81 C86.46,78.56 86.51,78.61 86.72,78.61 L86.72,78.8 L84.72,78.8 L84.72,78.61 C84.89,78.61 84.99,78.53 84.99,78.39 C84.99,78.25 84.99,78.23 84.8,77.85 L84.25,76.58 L79.98,76.61 Z M80.48,75.61 L83.78,75.61 L82.13,71.85 L80.48,75.61 L80.48,75.61 Z" id="Shape"></path>
            <path d="M130.14,76.61 L129.6,77.88 C129.504479,78.0676651 129.430669,78.2656104 129.38,78.47 C129.38,78.58 129.47,78.65 129.59,78.65 L129.59,78.84 L127.82,78.84 L127.82,78.65 C128.07,78.65 128.07,78.65 128.39,77.9 L131.25,71.47 L131.68,70.47 L133.02,70.47 L133.47,71.47 L136.28,77.81 C136.62,78.56 136.65,78.61 136.89,78.61 L136.89,78.8 L134.89,78.8 L134.89,78.61 C135.06,78.61 135.15,78.53 135.16,78.39 C135.17,78.25 135.16,78.23 134.97,77.85 L134.42,76.58 L130.14,76.61 Z M130.64,75.61 L133.94,75.61 L132.29,71.85 L130.64,75.61 L130.64,75.61 Z" id="Shape"></path>
            <path d="M94.73,78.84 L94.73,78.65 C95.02,78.65 95.03,78.49 95.03,78.27 L95.03,71.03 C95.03,70.84 95.03,70.66 94.73,70.66 L94.73,70.46 L96.58,70.46 L99.33,76.13 L102.19,70.46 L104.19,70.46 L104.19,70.66 C103.94,70.66 103.9,70.91 103.9,71.03 L103.9,78.27 C103.9,78.49 103.9,78.65 104.23,78.65 L104.23,78.84 L102.28,78.84 L102.28,78.65 C102.6,78.65 102.62,78.49 102.62,78.27 L102.62,71.94 L102.62,71.94 L99.35,78.68 L96.12,71.94 L96.12,71.94 L96.12,78.27 C96.12,78.51 96.12,78.65 96.4,78.65 L96.4,78.84 L94.75,78.84" id="Shape"></path>
            <path d="M113.7,71.04 C113.7,70.82 113.7,70.66 113.42,70.66 L113.42,70.47 L118.13,70.47 C118.619616,70.4555325 119.109317,70.4957819 119.59,70.59 C120.614918,70.7611522 121.349674,71.6720783 121.3,72.71 C121.344457,73.6974305 120.75841,74.6045992 119.84,74.97 C119.304128,75.1428997 118.7429,75.2240411 118.18,75.21 L114.98,75.21 L114.98,78.27 C114.98,78.49 114.98,78.65 115.25,78.65 L115.25,78.84 L113.42,78.84 L113.42,78.65 C113.71,78.65 113.7,78.49 113.7,78.27 L113.7,71.04 L113.7,71.04 Z M114.98,74.13 L118.37,74.13 C119.68,74.13 119.98,73.47 119.98,72.76 C119.98,72.05 119.7,71.52 118.37,71.52 L114.98,71.52 L114.98,74.13 L114.98,74.13 Z" id="Shape"></path>
            <path d="M149.68,75.68 C149.35,75.68 149.16,75.68 149.16,75.97 L148.97,75.97 L148.97,74.37 L149.15,74.37 C149.15,74.72 149.41,74.67 149.68,74.67 L152.58,74.67 L152.58,75.28 L152.58,76.66 L152.58,77.44 C151.484839,78.4321477 150.057725,78.978019 148.58,78.97 C147.383567,79.0550689 146.204427,78.646888 145.316647,77.8403302 C144.428867,77.0337723 143.909766,75.8990843 143.88,74.7 C143.883652,73.5175691 144.372936,72.3885678 145.233264,71.5774012 C146.093592,70.7662345 147.249398,70.344151 148.43,70.41 C149.760966,70.4019952 151.066162,70.7768918 152.19,71.49 C152.267902,71.4990762 152.343376,71.4593532 152.38,71.39 L152.56,71.52 L151.62,72.95 L151.44,72.82 C151.452504,72.7983419 151.452504,72.7716581 151.44,72.75 C151.44,72.39 150.15,71.49 148.44,71.49 C147.564763,71.4061024 146.69678,71.7103861 146.065509,72.3224113 C145.434237,72.9344366 145.103233,73.7925857 145.16,74.67 C145.132168,75.5287317 145.459689,76.3609344 146.065327,76.9703579 C146.670966,77.5797814 147.501112,77.9124812 148.36,77.89 C149.451401,77.9549575 150.525854,77.5968066 151.36,76.89 L151.36,75.68 L149.68,75.68" id="Shape"></path>
            <path d="M168.68,76.74 L168.68,76.74 L168.68,71.04 C168.68,70.82 168.68,70.66 168.41,70.66 L168.41,70.47 L170.05,70.47 L170.05,70.66 C169.76,70.66 169.77,70.82 169.77,71.04 L169.77,78.27 L169.77,78.84 L168.84,78.84 L168.35,78.22 L162.94,71.78 L162.94,78.28 C162.94,78.5 162.94,78.66 163.24,78.66 L163.24,78.85 L161.58,78.85 L161.58,78.66 C161.85,78.66 161.88,78.5 161.88,78.28 L161.88,71.05 C161.88,70.83 161.88,70.67 161.58,70.67 L161.58,70.48 L163.42,70.48 L163.91,71.05 L168.69,76.75" id="Shape"></path>
            <path d="M179.4,71.04 C179.4,70.82 179.4,70.66 179.08,70.66 L179.08,70.47 L186.2,70.47 L186.2,71.89 L186.02,71.89 C186.02,71.62 185.88,71.53 185.42,71.53 L180.67,71.53 L180.67,74.05 L183.76,74.05 C184.12,74.05 184.38,74.05 184.38,73.7 L184.58,73.7 L184.58,75.48 L184.4,75.48 C184.4,75.16 184.24,75.11 183.81,75.11 L180.69,75.11 L180.69,77.81 L185.77,77.81 C186.2,77.81 186.39,77.81 186.39,77.45 L186.58,77.45 L186.58,78.86 L179.08,78.86 L179.08,78.67 C179.37,78.67 179.4,78.51 179.4,78.29 L179.4,71.06" id="Shape"></path>
            <polyline id="Shape" points="116.92 89.94 118.42 94.54 123.26 94.54 119.34 97.37 120.83 101.97 116.91 99.13 113 101.97 114.49 97.37 110.58 94.54 115.42 94.54 116.42 91.54 116.95 89.91"></polyline>
            <polyline id="Shape" points="64.73 24.39 68.88 24.39 68.88 25.15 65.61 25.15 65.61 26.19 68.42 26.19 68.42 26.95 65.61 26.95 65.61 28.9 64.73 28.9 64.73 24.39"></polyline>
            <path d="M73.53,24.28 C75.53,24.28 76.22,25.44 76.22,26.68 C76.22,27.62 75.67,29.01 73.53,29.01 C71.39,29.01 70.85,27.62 70.85,26.68 C70.85,25.45 71.55,24.28 73.53,24.28 Z M75.33,26.63 C75.33,25.55 74.55,25.04 73.53,25.04 C72.51,25.04 71.73,25.55 71.73,26.63 C71.73,27.9 72.73,28.25 73.53,28.25 C74.33,28.25 75.33,27.9 75.33,26.63 L75.33,26.63 Z" id="Shape"></path>
            <polyline id="Shape" points="78.57 24.39 79.5 24.39 82.52 27.64 82.52 24.39 83.36 24.39 83.36 28.9 82.55 28.9 79.42 25.52 79.42 28.9 78.57 28.9 78.57 24.39"></polyline>
            <path d="M86.01,24.37 L88.18,24.37 C89.61,24.37 90.75,24.97 90.75,26.6 C90.75,28.23 89.75,28.88 88.22,28.88 L86.01,28.88 L86.01,24.37 L86.01,24.37 Z M87.78,28.12 C89.28,28.12 89.86,27.66 89.86,26.61 C89.86,25.56 89.25,25.13 87.78,25.13 L86.89,25.13 L86.89,28.13 L87.78,28.13 L87.78,28.12 Z" id="Shape"></path>
            <path d="M93.1,24.37 L97.1,24.37 L97.1,25.13 L93.94,25.13 L93.94,26.13 L96.66,26.13 L96.66,26.89 L93.94,26.89 L93.94,28.08 L97.17,28.08 L97.17,28.84 L93.05,28.84 L93.05,24.37 L93.1,24.37 Z M95.1,23.16 L95.97,23.16 L94.97,24.05 L94.42,24.05 L95.09,23.16 L95.1,23.16 Z" id="Shape"></path>
            <polyline id="Shape" points="136.91 24.39 140.79 24.39 140.79 25.15 137.76 25.15 137.76 26.19 140.37 26.19 140.37 26.95 137.76 26.95 137.76 28.14 140.86 28.14 140.86 28.89 136.91 28.89 136.91 24.39"></polyline>
            <polyline id="Shape" points="143.14 24.39 144.04 24.39 146.93 27.64 146.93 24.39 147.74 24.39 147.74 28.89 146.97 28.89 143.96 25.52 143.96 28.89 143.14 28.89 143.14 24.39"></polyline>
            <path d="M152.98,24.93 C153.450597,24.8894303 153.884142,24.6582061 154.18,24.29 L154.58,24.29 L154.58,28.91 L153.83,28.91 L153.83,25.45 L152.94,25.45 L152.94,24.94" id="Shape"></path>
            <polyline id="Shape" points="159.92 25.1 157.16 25.1 157.16 24.39 160.92 24.39 160.92 24.79 158.74 28.89 157.82 28.89 159.92 25.1"></polyline>
            <path d="M164.92,24.37 L165.75,24.37 L165.75,27.24 L166.31,27.24 L166.31,27.92 L165.75,27.92 L165.75,28.92 L165,28.92 L165,27.92 L162.3,27.92 L162.3,27.24 L164.92,24.37 Z M165,25.21 L163.15,27.21 L165,27.21 L165,25.21 L165,25.21 Z" id="Shape"></path>
            <path d="M169.58,26.18 L170.21,26.18 C170.85,26.18 171.26,26.06 171.26,25.59 C171.26,25.12 170.83,24.99 170.26,24.99 C169.35,24.99 169.14,25.43 169.14,25.56 L168.39,25.56 C168.39,25.25 168.61,24.28 170.25,24.28 C171.42,24.28 172.06,24.78 172.06,25.56 C172.067808,25.9685317 171.826282,26.3407181 171.45,26.5 C171.898979,26.6712552 172.188681,27.1098315 172.17,27.59 C172.17,28.37 171.52,29.01 170.26,29.01 C168.6,29.01 168.32,28.01 168.26,27.58 L169.06,27.58 C169.12,27.92 169.45,28.3 170.16,28.3 C170.87,28.3 171.33,28.08 171.35,27.5 C171.35,27.21 171.13,26.89 170.35,26.89 L169.58,26.89 L169.58,26.18" id="Shape"></path>
            <path d="M31.83,57.37 C28.9,57.37 27.12,54.09 27.12,49.44 C27.12,44.79 28.9,41.51 31.83,41.51 C34.76,41.51 36.54,44.79 36.54,49.44 C36.54,54.09 34.76,57.37 31.83,57.37 Z M31.83,39.97 C27.25,39.97 23.55,44.2 23.55,49.41 C23.55,54.62 27.26,58.85 31.83,58.85 C36.4,58.85 40.12,54.62 40.12,49.41 C40.12,44.2 36.41,39.97 31.83,39.97 Z" id="Shape"></path>
            <path d="M72.89,40.37 L60.35,40.37 C60.2082453,40.3471671 60.0634326,40.3851458 59.9511286,40.4746083 C59.8388246,40.5640708 59.7694342,40.6967285 59.76,40.84 L59.05,44.27 L61.34,42.27 C61.4817375,42.1278387 61.6804717,42.0579137 61.88,42.08 L65.08,42.08 L65.08,56.73 L63.19,58.47 L70.08,58.47 L68.19,56.73 L68.19,42.06 L71.36,42.06 C71.5752573,42.0311049 71.7920562,42.1009215 71.95,42.25 L74.21,44.12 C74.21,43.98 73.55,41.12 73.48,40.82 C73.4485155,40.5306535 73.1895894,40.3208341 72.9,40.35 L72.89,40.37 Z" id="Shape"></path>
            <path d="M17.58,42.11 L19.38,40.37 L15.38,40.37 C14.9093028,40.3562864 14.4928155,40.6728167 14.38,41.13 C14.23,41.5 11.23,48.29 10.55,49.86 C10.29,49.26 6.93,41.72 6.65,41.12 C6.37,40.52 6.28,40.37 5.59,40.37 L1.4,40.37 C1.67,40.6 2.9,41.79 3.27,42.14 C3.27,42.63 2.06,55.71 1.98,56.76 L0.07,58.5 L5.83,58.5 L3.95,56.76 C3.95,56.49 4.95,45.46 4.95,44.98 C5.09,45.35 9.55,55.27 9.63,55.47 C9.67942734,55.6098659 9.81165741,55.703381 9.96,55.703381 C10.1083426,55.703381 10.2405727,55.6098659 10.29,55.47 C10.35,55.33 14.56,45.59 14.81,44.98 C14.87,45.49 15.75,56.28 15.81,56.74 L13.91,58.5 L20.79,58.5 L18.9,56.74 C18.9,56.34 17.73,42.98 17.65,42.13 L17.58,42.11 Z" id="Shape"></path>
            <path d="M52.81,56.79 L48.1,56.79 L48.1,49.89 L51.82,49.89 L53.67,51.39 L53.67,46.64 L51.83,48.15 L48.11,48.15 L48.11,42.06 L52.48,42.06 C52.6959756,42.038018 52.9126184,42.0948423 53.09,42.22 L55.44,43.93 L54.37,40.75 C54.27,40.43 54.16,40.34 53.69,40.34 L43.09,40.34 L44.98,42.06 L44.98,56.73 L43.09,58.47 L54.61,58.47 C54.8960831,58.509847 55.1667499,58.3294025 55.24,58.05 L56.35,54.59 C56.29,54.59 53.73,56.45 53.53,56.59 C53.311673,56.7443435 53.0467308,56.8185273 52.78,56.8 L52.81,56.79 Z M47.61,39.29 C48.3112983,39.2680736 48.864231,38.6856554 48.8497263,37.9841643 C48.8352216,37.2826732 48.2586866,36.7236089 47.5570813,36.7306904 C46.855476,36.7377718 46.2903427,37.3083591 46.29,38.01 C46.2952637,38.3547946 46.437302,38.6833714 46.684859,38.9234267 C46.932416,39.163482 47.2652067,39.2953453 47.61,39.29 Z M51.51,39.29 C52.2112983,39.2680736 52.764231,38.6856554 52.7497263,37.9841643 C52.7352216,37.2826732 52.1586866,36.7236089 51.4570813,36.7306904 C50.755476,36.7377718 50.1903427,37.3083591 50.19,38.01 C50.1952637,38.3547946 50.337302,38.6833714 50.584859,38.9234267 C50.832416,39.163482 51.1652067,39.2953453 51.51,39.29 L51.51,39.29 Z" id="Shape"></path>
            <path d="M129.85,40.37 L131.75,42.08 L131.75,48.03 L125.44,48.03 L125.44,42.07 L127.33,40.36 L120.47,40.36 L122.37,42.06 L122.37,56.73 L120.47,58.46 L127.33,58.46 L125.44,56.73 L125.44,49.81 L131.76,49.81 L131.76,56.72 L129.88,58.46 L136.72,58.46 L134.85,56.73 L134.85,42.06 L136.73,40.35 L129.85,40.37 Z" id="Shape"></path>
            <path d="M110.46,41.48 C113.52,41.48 114.58,44.95 114.8,46.1 C115.16,45.34 116.9,41.57 117.05,41.21 C116.81,41.28 115.78,41.55 115.23,41.66 C113.89457,40.5250673 112.192359,39.9138351 110.44,39.94 C105.87,39.94 102.15,44.17 102.15,49.38 C102.15,54.59 105.44,58.82 110.3,58.82 C114.04,58.82 116.23,56.54 116.3,54.34 C116.396582,53.3591477 115.851982,52.4272758 114.95,52.03 C114.75,54.3 113.48,57.3 110.43,57.3 C107.38,57.3 105.75,54.06 105.75,49.4 C105.75,44.74 107.53,41.47 110.46,41.47 L110.46,41.48 Z" id="Shape"></path>
            <path d="M205.41,57.37 C202.48,57.37 200.59,54.09 200.59,49.44 C200.59,44.79 202.47,41.51 205.41,41.51 C208.35,41.51 210.22,44.79 210.22,49.44 C210.22,54.09 208.34,57.37 205.41,57.37 Z M205.41,39.97 C200.84,39.97 197.13,44.2 197.13,49.41 C197.13,54.62 200.84,58.85 205.41,58.85 C209.98,58.85 213.7,54.62 213.7,49.41 C213.7,44.2 209.99,39.97 205.41,39.97 Z" id="Shape"></path>
            <path d="M87.14,57.12 C85.7573381,57.0871466 84.5270676,56.2340581 84.0115403,54.9506779 C83.496013,53.6672976 83.7942782,52.2002041 84.77,51.22 C86.0832261,53.1029546 87.5197022,54.8968793 89.07,56.59 C88.4922076,56.9513038 87.8212802,57.1355481 87.14,57.12 L87.14,57.12 Z M91.71,55.95 C92.6388793,54.9854339 93.173858,53.708618 93.21,52.37 C93.2642438,51.4029935 92.8559815,50.4677018 92.11,49.85 C91.9809305,49.7333444 91.8075813,49.6784552 91.6348909,49.6995618 C91.4622005,49.7206684 91.307174,49.8156924 91.21,49.96 C91.14,50.04 90.57,50.65 90.21,51.1 C91.0971908,51.4231253 91.6882609,52.2657995 91.69,53.21 C91.7315485,53.9059193 91.4940244,54.5897008 91.03,55.11 C90.03,54.11 85.09,48.69 85.09,46.24 C85.0484531,45.8067616 85.1829774,45.3750278 85.4632641,45.0420698 C85.7435508,44.7091118 86.1460222,44.502938 86.58,44.47 C87.0400761,44.4931235 87.4716495,44.6998317 87.7780431,45.0438196 C88.0844367,45.3878075 88.2400413,45.8403238 88.21,46.3 C88.2638308,47.3962431 87.6898914,48.4277828 86.73,48.96 C86.84,49.13 87.05,49.45 87.18,49.63 C88.11,49.2 90.28,48.34 90.28,46.28 C90.28,45.06 89.08,43.52 86.65,43.52 C85.03,43.52 82.85,44.8 82.85,46.98 C82.9761954,48.1883587 83.4290635,49.3395425 84.16,50.31 C83.1,50.92 81.16,52.31 81.16,54.61 C81.16,56.91 83.24,58.76 85.91,58.76 C87.3464949,58.8461851 88.7661176,58.4132002 89.91,57.54 C90.2749857,57.9351551 90.6622855,58.3090997 91.07,58.66 L94.69,58.66 C94.78,58.53 95.25,57.99 95.42,57.74 C93.48,57.9 92.72,57.07 91.68,55.95 L91.71,55.95 Z" id="Shape"></path>
            <path d="M144.82,51.07 L146.97,44 L149.18,51.08 L144.82,51.07 Z M149.02,40.35 L146.1,40.35 L140.94,56.73 L139.02,58.46 L144.88,58.46 L143.08,56.76 L144.37,52.45 L147.02,53.1 L149.6,52.45 L150.93,56.76 L149.2,58.46 L156.2,58.46 L154.27,56.73 L149.02,40.37 L149.02,40.35 Z" id="Shape"></path>
            <path d="M169.85,42.07 L169.85,51.07 C169.85,51.07 163.11,40.99 162.99,40.81 C162.765874,40.4823558 162.386262,40.2963457 161.99,40.32 L158.08,40.32 L159.96,42.04 L159.96,56.69 L158.07,58.44 L163.84,58.44 L161.94,56.69 L161.94,44.84 L171.07,58.59 C171.16754,58.739634 171.34905,58.8112068 171.522466,58.7684157 C171.695883,58.7256246 171.823264,58.577832 171.84,58.4 L171.84,42.07 L173.73,40.36 L167.96,40.36 L169.85,42.07 L169.85,42.07 Z" id="Shape"></path>
            <path d="M226.74,40.37 L228.64,42.08 L228.64,51.08 C228.64,51.08 221.9,41 221.78,40.82 C221.555874,40.4923558 221.176262,40.3063457 220.78,40.33 L216.88,40.33 L218.76,42.05 L218.76,56.7 L216.87,58.45 L222.58,58.45 L220.68,56.7 L220.68,44.84 L229.81,58.59 C229.917313,58.7307337 230.099893,58.791343 230.270064,58.7427228 C230.440234,58.6941026 230.563235,58.5461845 230.58,58.37 L230.58,42.07 L232.48,40.36 L226.74,40.37 Z" id="Shape"></path>
            <path d="M184.69,56.88 C183.907161,56.919342 183.122839,56.919342 182.34,56.88 L182.34,42.06 C182.96,42 184.34,42 184.6,42 C187.24,42 189.74,44.09 189.74,49.47 C189.74,54.85 187.44,56.91 184.74,56.91 L184.69,56.88 Z M187,40.73 C186.093407,40.4694093 185.153178,40.3447194 184.21,40.36 L177.32,40.36 L179.19,42.07 L179.19,56.79 L177.3,58.49 L184.3,58.49 C185.333729,58.5011197 186.363864,58.3664615 187.36,58.09 C190.914839,56.8353266 193.270175,53.4492793 193.21,49.68 C193.21,46.02 191.14,41.97 187.01,40.74 L187,40.73 Z" id="Shape"></path>
            <path d="M129.37,29.54 L104.43,29.54 C104.153858,29.54 103.93,29.3161424 103.93,29.04 C103.93,28.7638576 104.153858,28.54 104.43,28.54 L129.38,28.54 C129.656142,28.54 129.88,28.7638576 129.88,29.04 C129.88,29.3161424 129.656142,29.54 129.38,29.54 L129.38,29.54" id="Shape"></path>
            <path d="M129.37,24.74 L129.37,24.74 C129.646142,24.74 129.87,24.5161424 129.87,24.24 C129.87,23.9638576 129.646142,23.74 129.37,23.74 L104.43,23.74 C104.153858,23.74 103.93,23.9638576 103.93,24.24 C103.93,24.5161424 104.153858,24.74 104.43,24.74 L129.37,24.74" id="Shape"></path>
            <path d="M117.75,14.15 C117.999016,14.118627 118.250984,14.118627 118.5,14.15 C118.843599,13.0631772 118.843599,11.8968228 118.5,10.81 C118.982662,10.9739626 119.490386,11.0518136 120,11.04 L120.33,11.04 C121.27,11.04 122.72,11.04 123.47,12.1 C123.909113,12.92168 123.909113,13.90832 123.47,14.73 C123.271905,15.1378702 123.172561,15.5866298 123.18,16.04 C123.425894,16.1216086 123.641795,16.2748288 123.8,16.48 C123.780298,15.9126231 123.911422,15.3501703 124.18,14.85 C124.692869,13.8792279 124.674009,12.7136705 124.13,11.76 C123.13,10.27 121.35,10.37 120.2,10.34 L120.11,10.34 C119.345652,10.3677208 118.584502,10.2277784 117.88,9.93 L117.58,9.93 C118.153582,11.2629733 118.224636,12.7586553 117.78,14.14 L117.75,14.15 Z M110.05,16.5 C110.207774,16.2943811 110.423825,16.1410542 110.67,16.06 C110.676694,15.6067053 110.577388,15.158116 110.38,14.75 C109.937287,13.9292254 109.937287,12.9407746 110.38,12.12 C111.12,11.01 112.57,11.12 113.51,11.06 L113.84,11.06 C114.349587,11.0713997 114.85724,10.9935596 115.34,10.83 C114.997697,11.9170224 114.997697,13.0829776 115.34,14.17 C115.589016,14.138627 115.840984,14.138627 116.09,14.17 C115.645364,12.7886553 115.716418,11.2929733 116.29,9.96 L115.98,9.96 C115.275404,10.2574673 114.514324,10.3973969 113.75,10.37 L113.66,10.37 C112.51,10.37 110.73,10.3 109.73,11.79 C109.187854,12.7441799 109.169009,13.908779 109.68,14.88 C109.949486,15.3798274 110.080668,15.9425294 110.06,16.51 L110.05,16.5 Z" id="Shape"></path>
            <path d="M106.58,12.83 L106.58,12.83 C106.567633,12.5553296 106.668904,12.2876848 106.86,12.09 C105.597381,12.1464346 104.395901,12.6497096 103.47,13.51 C101.87,15.07 102.37,17.42 102.8,18.75 C102.824786,18.841655 102.854836,18.9318046 102.89,19.02 C102.967585,18.7293994 103.185211,18.496765 103.47,18.4 L103.36,18.05 C103.192554,17.4715507 103.108375,16.8721952 103.11,16.27 C103.152085,14.4027616 104.652893,12.8975527 106.52,12.85 L106.58,12.83 Z M130.39,13.5 C129.466687,12.6418862 128.269131,12.138771 127.01,12.08 C127.201096,12.2776848 127.302367,12.5453296 127.29,12.82 L127.34,12.82 C129.207107,12.8675527 130.707915,14.3727616 130.75,16.24 C130.750551,16.8421211 130.666393,17.441326 130.5,18.02 L130.39,18.38 C130.681752,18.4689547 130.905613,18.7041984 130.98,19 L131.07,18.73 C131.5,17.4 132,15.05 130.39,13.49 L130.39,13.5 Z" id="Shape"></path>
            <path d="M101.86,15.79 C101.86,16.2760106 101.466011,16.67 100.98,16.67 C100.493989,16.67 100.1,16.2760106 100.1,15.79 C100.1,15.3039894 100.493989,14.91 100.98,14.91 C101.466011,14.91 101.86,15.3039894 101.86,15.79 M102.12,17.79 C102.12,17.353695 101.766305,17 101.33,17 C100.893695,17 100.54,17.353695 100.54,17.79 C100.54,18.226305 100.893695,18.58 101.33,18.58 C101.766305,18.58 102.12,18.226305 102.12,17.79 M102.47,13.7 C102.47,13.2581722 102.111828,12.9 101.67,12.9 C101.228172,12.9 100.87,13.2581722 100.87,13.7 C100.87,14.1418278 101.228172,14.5 101.67,14.5 C102.111828,14.5 102.47,14.1418278 102.47,13.7 M103.79,12.25 C103.784495,11.837133 103.44631,11.5063714 103.033422,11.5100294 C102.620535,11.5136875 102.288263,11.8503892 102.290074,12.263289 C102.291885,12.6761887 102.627096,13.0099633 103.04,13.01 C103.240657,13.0100178 103.432954,12.929629 103.573897,12.7868064 C103.71484,12.6439839 103.792675,12.4506393 103.79,12.25 M105.46,11.43 C105.459972,11.1338385 105.281012,10.8670432 105.007,10.7546642 C104.732988,10.6422851 104.418233,10.7065956 104.210264,10.9174527 C104.002296,11.1283097 103.942333,11.4439217 104.05848,11.7163576 C104.174628,11.9887935 104.443866,12.164057 104.74,12.16 C104.932701,12.1600186 105.117368,12.0827905 105.252685,11.9455937 C105.388003,11.8083969 105.462676,11.6226826 105.46,11.43 M107.21,11.03 C107.21,10.6489235 106.901076,10.34 106.52,10.34 C106.138924,10.34 105.83,10.6489235 105.83,11.03 C105.83,11.4110765 106.138924,11.72 106.52,11.72 C106.901076,11.72 107.21,11.4110765 107.21,11.03" id="Shape"></path>
            <path d="M131.97,15.79 C131.97,16.2760106 132.363989,16.67 132.85,16.67 C133.336011,16.67 133.73,16.2760106 133.73,15.79 C133.73,15.3039894 133.336011,14.91 132.85,14.91 C132.363989,14.91 131.97,15.3039894 131.97,15.79 M131.7,17.79 C131.7,18.1135698 131.894914,18.4052788 132.193853,18.5291036 C132.492793,18.6529284 132.836887,18.5844838 133.065685,18.3556854 C133.294484,18.126887 133.362928,17.7827928 133.239104,17.4838533 C133.115279,17.1849137 132.82357,16.99 132.5,16.99 C132.058172,16.99 131.7,17.3481722 131.7,17.79 M131.35,13.7 C131.35,14.0235698 131.544914,14.3152788 131.843853,14.4391036 C132.142793,14.5629284 132.486887,14.4944838 132.715685,14.2656854 C132.944484,14.036887 133.012928,13.6927928 132.889104,13.3938533 C132.765279,13.0949137 132.47357,12.9 132.15,12.9 C131.708172,12.9 131.35,13.2581722 131.35,13.7 M130.04,12.25 C130.04,12.6642136 130.375786,13 130.79,13 C131.204214,13 131.54,12.6642136 131.54,12.25 C131.54,11.8357864 131.204214,11.5 130.79,11.5 C130.375786,11.5 130.04,11.8357864 130.04,12.25 M128.37,11.43 C128.370028,11.7261615 128.548988,11.9929568 128.823,12.1053358 C129.097012,12.2177149 129.411767,12.1534044 129.619736,11.9425473 C129.827704,11.7316903 129.887667,11.4160783 129.77152,11.1436424 C129.655372,10.8712065 129.386134,10.695943 129.09,10.7 C128.897299,10.6999814 128.712632,10.7772095 128.577315,10.9144063 C128.441997,11.0516031 128.367324,11.2373174 128.37,11.43 M126.58,11.07 C126.58,11.4510765 126.888924,11.76 127.27,11.76 C127.651076,11.76 127.96,11.4510765 127.96,11.07 C127.96,10.6889235 127.651076,10.38 127.27,10.38 C126.888924,10.38 126.58,10.6889235 126.58,11.07" id="Shape"></path>
            <path d="M114.58,9.88 C114.838201,9.87450512 115.043597,9.6617083 115.039953,9.4034749 C115.036309,9.1452415 114.82499,8.93832494 114.566737,8.94011772 C114.308484,8.9419105 114.100058,9.1517409 114.1,9.41 C114.099971,9.53640387 114.150859,9.65749102 114.241176,9.7459263 C114.331493,9.83436158 114.453625,9.88268945 114.58,9.88 L114.58,9.88 Z M108.58,15.53 C108.9032,15.4347928 109.135267,15.1515739 109.165075,14.8159643 C109.194884,14.4803546 109.016366,14.160668 108.715006,14.0099879 C108.413646,13.8593079 108.050786,13.9083056 107.800183,14.1335182 C107.549581,14.3587308 107.462246,14.714316 107.58,15.03 C107.726431,15.4368757 108.166641,15.6569803 108.58,15.53 L108.58,15.53 Z M108.87,12.89 C108.87,12.4371265 108.502873,12.07 108.05,12.07 C107.597127,12.07 107.23,12.4371265 107.23,12.89 C107.23,13.3428735 107.597127,13.71 108.05,13.71 C108.502873,13.71 108.87,13.3428735 108.87,12.89 L108.87,12.89 Z M109.53,11.14 C109.53,10.8245194 109.339959,10.5401031 109.048493,10.419374 C108.757027,10.2986448 108.421535,10.3653783 108.198457,10.5884567 C107.975378,10.8115351 107.908645,11.1470271 108.029374,11.4384931 C108.150103,11.7299591 108.434519,11.92 108.75,11.92 C109.180782,11.92 109.53,11.5707821 109.53,11.14 L109.53,11.14 Z M110.85,9.96 C110.849973,9.65574911 110.66614,9.38166052 110.384655,9.26618516 C110.10317,9.15070979 109.779812,9.21673084 109.566123,9.43330771 C109.352434,9.64988458 109.290759,9.97409928 109.410002,10.2540094 C109.529245,10.5339195 109.805776,10.7140567 110.11,10.71 C110.308005,10.7100181 110.497759,10.6306828 110.636827,10.4897355 C110.775895,10.3487882 110.852676,10.1579871 110.85,9.96 L110.85,9.96 Z M112.36,9.51 C112.359957,9.15784902 112.075428,8.87189207 111.723281,8.87008654 C111.371135,8.86828101 111.083688,9.15130533 111.080034,9.50343735 C111.07638,9.85556937 111.357892,10.1444976 111.71,10.15 C111.881465,10.1526795 112.046832,10.0864358 112.169027,9.96612089 C112.291222,9.84580597 112.360021,9.68148546 112.36,9.51 L112.36,9.51 Z M113.84,9.41 C113.84,9.08967485 113.580325,8.83 113.26,8.83 C112.939675,8.83 112.68,9.08967485 112.68,9.41 C112.68,9.73032515 112.939675,9.99 113.26,9.99 C113.580325,9.99 113.84,9.73032515 113.84,9.41 L113.84,9.41 Z" id="Shape"></path>
            <path d="M118.76,9.37 C118.755937,9.5650005 118.870273,9.74307156 119.049277,9.82052747 C119.228281,9.89798338 119.436356,9.85942179 119.575716,9.72296499 C119.715076,9.58650819 119.758009,9.37929103 119.684338,9.19869663 C119.610668,9.01810223 119.435043,8.90004233 119.24,8.9 C118.97876,8.8999433 118.765442,9.10881666 118.76,9.37 M125.3,15.5 C125.612854,15.629394 125.973065,15.5532152 126.206745,15.3082384 C126.440426,15.0632616 126.499527,14.6998576 126.355518,14.3934564 C126.21151,14.0870552 125.894002,13.9006575 125.556268,13.9242452 C125.218535,13.9478328 124.93002,14.1765556 124.83,14.5 C124.69971,14.9050394 124.905008,15.3418436 125.3,15.5 M125.01,12.86 C125.01,13.3128735 125.377127,13.68 125.83,13.68 C126.282873,13.68 126.65,13.3128735 126.65,12.86 C126.65,12.4071265 126.282873,12.04 125.83,12.04 C125.377127,12.04 125.01,12.4071265 125.01,12.86 M124.35,11.11 C124.35,11.5407821 124.699218,11.89 125.13,11.89 C125.560782,11.89 125.91,11.5407821 125.91,11.11 C125.91,10.6792179 125.560782,10.33 125.13,10.33 C124.699218,10.33 124.35,10.6792179 124.35,11.11 M123.03,9.94 C123.03,10.3542136 123.365786,10.69 123.78,10.69 C124.194214,10.69 124.53,10.3542136 124.53,9.94 C124.53,9.52578644 124.194214,9.19 123.78,9.19 C123.365786,9.19 123.03,9.52578644 123.03,9.94 M121.52,9.49 C121.52,9.84346224 121.806538,10.13 122.16,10.13 C122.513462,10.13 122.8,9.84346224 122.8,9.49 C122.8,9.13653776 122.513462,8.85 122.16,8.85 C121.806538,8.85 121.52,9.13653776 121.52,9.49 M120.03,9.39 C120.03,9.6245881 120.171312,9.83607715 120.388044,9.92585013 C120.604775,10.0156231 120.854243,9.96600077 121.020122,9.80012193 C121.186001,9.6342431 121.235623,9.38477476 121.14585,9.16804361 C121.056077,8.95131246 120.844588,8.81 120.61,8.81 C120.289675,8.81 120.03,9.06967485 120.03,9.39" id="Shape"></path>
            <path d="M117.53,11.86 C117.53,11.5175835 117.252417,11.24 116.91,11.24 C116.567583,11.24 116.29,11.5175835 116.29,11.86 C116.29,12.2024165 116.567583,12.48 116.91,12.48 C117.252417,12.48 117.53,12.2024165 117.53,11.86 M117.63,13.45 C117.63,13.0578778 117.312122,12.74 116.92,12.74 C116.527878,12.74 116.21,13.0578778 116.21,13.45 C116.21,13.8421222 116.527878,14.16 116.92,14.16 C117.312122,14.16 117.63,13.8421222 117.63,13.45 M117.42,10.45 C117.42,10.1738576 117.196142,9.95 116.92,9.95 C116.643858,9.95 116.42,10.1738576 116.42,10.45 C116.42,10.7261424 116.643858,10.95 116.92,10.95 C117.196142,10.95 117.42,10.7261424 117.42,10.45" id="Shape"></path>
            <polyline id="Shape" points="116.03 0 117.79 0 117.4 1.53 118.75 1.09 118.75 2.88 117.4 2.49 117.4 4.12 116.42 4.12 116.42 2.49 115.08 2.88 115.08 1.09 116.42 1.53 116.03 0"></polyline>
            <path d="M116.42,4.13 L116.42,6.19 C115.700545,6.21532432 114.984588,6.30230977 114.28,6.45 C114.397464,5.28459746 115.268769,4.33593373 116.42,4.12" id="Shape"></path>
            <path d="M117.4,4.13 C118.547977,4.34484355 119.418366,5.28844317 119.54,6.45 C118.835364,6.30259951 118.119432,6.21561709 117.4,6.19 L117.4,4.13" id="Shape"></path>
            <path d="M119.48,7.37 C119.199691,8.56289631 118.135388,9.40609603 116.91,9.40609603 C115.684612,9.40609603 114.620309,8.56289631 114.34,7.37 C116.032875,6.99555934 117.787125,6.99555934 119.48,7.37" id="Shape"></path>
            <path d="M104.58,25.21 L104.58,28.11 L129.16,28.11 L129.16,25.21 L104.58,25.21 Z M106.97,27.21 L105.32,27.21 L105.32,26.09 L106.97,26.09 L106.97,27.21 Z M109.66,27.36 L108.18,26.65 L109.66,25.94 L111.15,26.65 L109.66,27.36 Z M113.02,27.36 C112.607871,27.3328264 112.292885,26.9814863 112.31071,26.5688471 C112.328535,26.1562078 112.672645,25.8333391 113.085582,25.8418064 C113.49852,25.8502736 113.829105,26.1869769 113.83,26.6 C113.843737,26.8136601 113.769044,27.0235734 113.623431,27.1805327 C113.477818,27.337492 113.274089,27.4276962 113.06,27.43 L113.02,27.36 Z M118.52,27.16 L115.22,27.16 L115.22,26.04 L118.58,26.04 L118.52,27.16 Z M120.71,27.36 C120.297871,27.3328264 119.982885,26.9814863 120.00071,26.5688471 C120.018535,26.1562078 120.362645,25.8333391 120.775582,25.8418064 C121.18852,25.8502736 121.519105,26.1869769 121.52,26.6 C121.533674,26.8119554 121.460322,27.020321 121.316886,27.1769679 C121.17345,27.3336148 120.972337,27.4249946 120.76,27.43 L120.71,27.36 Z M124.09,27.36 L122.6,26.65 L124.09,25.94 L125.57,26.65 L124.09,27.36 Z M128.42,27.21 L126.76,27.21 L126.76,26.09 L128.42,26.09 L128.42,27.21 Z" id="Shape"></path>
        </g>
    </g>
</svg>
