<?xml version="1.0" encoding="iso-8859-1"?>
<!-- Generator: Adobe Illustrator 19.1.0, SVG Export Plug-In . SVG Version: 6.00 Build 0)  -->
<svg version="1.1" id="nick" xmlns="http://www.w3.org/2000/svg" xmlns:xlink="http://www.w3.org/1999/xlink" x="0px" y="0px"
	 viewBox="0 0 261.518 104.656" style="enable-background:new 0 0 261.518 104.656;" xml:space="preserve">
<path id="XMLID_9_" style="fill:#666666;" d="M35.273,34.084c-9.697-0.009-18.604,3.967-24.941,10.324
	C3.972,50.753,0,59.664,0,69.345v32.224h26.778V69.901c0.017-3.853,0.94-7.164,2.493-9.713c1.583-2.516,3.621-4.013,6.002-4.013
	c2.394,0,4.425,1.497,6.008,4.013c1.561,2.548,2.476,5.859,2.484,9.713v31.667h26.778V69.345
	c0.009-9.681-3.972-18.592-10.324-24.935C53.875,38.051,44.983,34.076,35.273,34.084"/>
<path id="XMLID_10_" style="fill:#666666;" d="M99.374,25.408c2.691-2.69,4.354-6.418,4.354-10.53c0-4.109-1.663-7.826-4.354-10.516
	C96.676,1.654,92.95,0,88.843,0c-4.107,0-7.824,1.654-10.524,4.361c-2.689,2.69-4.361,6.408-4.361,10.516
	c0,4.112,1.672,7.84,4.361,10.53l3.288,3.296c5.485,5.484,5.875,6.929,0.661,12.155l-2.984,2.983
	c-2.452,2.461-3.964,5.836-3.964,9.576v48.149h27.064V53.419c0-3.74-1.52-7.116-3.965-9.576l-2.992-2.983
	c-5.215-5.215-4.832-6.671,0.652-12.165"/>
<path id="XMLID_11_" style="fill:#666666;" d="M147.335,80.598c-1.579,2.916-3.614,4.635-6.002,4.651
	c-2.381-0.016-4.434-1.735-6.002-4.651c-1.561-2.942-2.484-6.746-2.491-11.207c0.007-4.471,0.93-8.276,2.491-11.224
	c1.568-2.913,3.621-4.628,6.002-4.643c2.388,0.015,4.424,1.729,6.002,4.643c1.161,2.199,1.964,4.858,2.301,7.913h26.81
	c-0.79-8.407-4.54-16.021-10.175-21.639c-6.345-6.361-15.244-10.333-24.938-10.324c-9.697-0.009-18.602,3.964-24.939,10.324
	c-6.367,6.343-10.339,15.255-10.332,24.95c-0.007,9.697,3.967,18.595,10.332,24.929c4.872,4.89,13.373,10.336,24.939,10.336
	c8.684,0,16.725-3.186,22.861-8.407c4.476-3.807,11.113-11.429,12.253-23.562h-26.81C149.299,75.757,148.495,78.419,147.335,80.598"
	/>
<path id="XMLID_12_" style="fill:#666666;" d="M247.781,96.885c0-0.891-0.259-1.735-0.705-2.434l-14.657-22.178l10.15-18.433
	c3.749-6.367,1.634-14.576-4.736-18.328c-6.367-3.752-14.584-1.642-18.333,4.733L207.379,61.91V47.464
	c0-7.399-6.005-13.389-13.399-13.389c-7.387,0-13.387,5.99-13.387,13.389v54.104h26.786V80.377l14.126,21.191l21.604-0.016
	C245.69,101.552,247.781,99.465,247.781,96.885"/>
<path id="XMLID_15_" style="fill:#666666;" d="M251.363,96.591h-1.788v-0.91h4.632v0.91h-1.78v4.977h-1.062 M255.481,95.581h0.175
	l2.853,3.194l2.839-3.194h0.169v5.987h-1.064v-3.711l-1.847,2.201h-0.195l-1.861-2.201v3.711h-1.071L255.481,95.581L255.481,95.581z
	"/>
</svg>
