<svg fill="#666" version="1.1" id="spotify-logo" xmlns="http://www.w3.org/2000/svg" xmlns:xlink="http://www.w3.org/1999/xlink" x="0px"
	 y="0px" viewBox="0 0 407.3 126.8" style="enable-background:new 0 0 407.3 126.8;" xml:space="preserve">
<g>
	<g>
		<path d="M63.4,0C28.4,0,0,28.4,0,63.4c0,35,28.4,63.4,63.4,63.4c35,0,63.4-28.4,63.4-63.4C126.8,28.4,98.4,0,63.4,0z
			 M92.5,91.5c-1.1,1.9-3.6,2.5-5.4,1.3c-14.9-9.1-33.6-11.2-55.7-6.1c-2.1,0.5-4.2-0.8-4.7-3c-0.5-2.1,0.8-4.2,3-4.7
			c24.2-5.5,44.9-3.1,61.6,7.1C93,87.2,93.6,89.6,92.5,91.5z M100.2,74.2c-1.4,2.3-4.5,3.1-6.8,1.6c-17-10.5-43-13.5-63.2-7.4
			c-2.6,0.8-5.4-0.7-6.2-3.3c-0.8-2.6,0.7-5.4,3.3-6.2c23-7,51.7-3.6,71.2,8.4C100.9,68.8,101.7,71.9,100.2,74.2z M100.9,56.2
			C80.5,44.1,46.8,43,27.3,48.9c-3.1,1-6.4-0.8-7.4-4c-0.9-3.1,0.8-6.4,4-7.4C46.2,30.7,83.4,32,107,46c2.8,1.7,3.7,5.3,2.1,8.1
			C107.4,57,103.7,57.9,100.9,56.2z"/>
	</g>
	<g>
		<path d="M169,58.5c-10.9-2.6-12.9-4.4-12.9-8.3c0-3.6,3.4-6.1,8.5-6.1c4.9,0,9.8,1.9,15,5.7c0.2,0.1,0.3,0.2,0.5,0.1
			c0.2,0,0.4-0.1,0.5-0.3l5.3-7.5c0.2-0.3,0.2-0.7-0.1-1c-6.1-4.9-13-7.3-21-7.3c-11.8,0-20.1,7.1-20.1,17.2
			c0,10.9,7.1,14.7,19.4,17.7c10.5,2.4,12.2,4.4,12.2,8c0,4-3.6,6.5-9.3,6.5c-6.4,0-11.6-2.2-17.4-7.2c-0.1-0.1-0.3-0.2-0.5-0.2
			c-0.2,0-0.4,0.1-0.5,0.3l-6,7.1c-0.3,0.3-0.2,0.7,0.1,1c6.8,6.1,15.1,9.3,24.1,9.3c12.7,0,21-7,21-17.7
			C187.8,66.8,182.4,61.8,169,58.5z"/>
		<path d="M218.6,47.7c-5.5,0-10.1,2.2-13.8,6.6v-5c0-0.4-0.3-0.7-0.7-0.7h-9.8c-0.4,0-0.7,0.3-0.7,0.7v55.7
			c0,0.4,0.3,0.7,0.7,0.7h9.8c0.4,0,0.7-0.3,0.7-0.7V87.5c3.7,4.2,8.3,6.2,13.8,6.2c10.3,0,20.6-7.9,20.6-23
			C239.3,55.6,228.9,47.7,218.6,47.7z M227.9,70.7c0,7.7-4.7,13.1-11.5,13.1c-6.7,0-11.8-5.6-11.8-13.1c0-7.4,5.1-13.1,11.8-13.1
			C223,57.7,227.9,63.2,227.9,70.7z"/>
		<path d="M264.4,47.7c-13.2,0-23.6,10.2-23.6,23.2c0,12.8,10.3,22.9,23.4,22.9c13.3,0,23.6-10.1,23.6-23.1
			C287.9,57.8,277.5,47.7,264.4,47.7z M264.4,83.9c-7,0-12.3-5.6-12.3-13.1c0-7.5,5.1-13,12.2-13c7.1,0,12.4,5.6,12.4,13.1
			C276.6,78.4,271.5,83.9,264.4,83.9z"/>
		<path d="M312.6,48.6h-10.8v-11c0-0.4-0.3-0.7-0.7-0.7h-9.8c-0.4,0-0.7,0.3-0.7,0.7v11h-4.7c-0.4,0-0.7,0.3-0.7,0.7
			v8.4c0,0.4,0.3,0.7,0.7,0.7h4.7v21.8c0,8.8,4.4,13.3,13,13.3c3.5,0,6.4-0.7,9.2-2.3c0.2-0.1,0.4-0.4,0.4-0.6v-8
			c0-0.2-0.1-0.5-0.3-0.6c-0.2-0.1-0.5-0.1-0.7,0c-1.9,1-3.7,1.4-5.8,1.4c-3.1,0-4.5-1.4-4.5-4.6V58.5h10.8c0.4,0,0.7-0.3,0.7-0.7
			v-8.4C313.3,49,313,48.6,312.6,48.6z"/>
		<path d="M349.9,48.7v-1.4c0-4,1.5-5.8,5-5.8c2,0,3.7,0.4,5.5,1c0.2,0.1,0.5,0,0.6-0.1c0.2-0.1,0.3-0.4,0.3-0.6v-8.3
			c0-0.3-0.2-0.6-0.5-0.7c-1.9-0.6-4.4-1.2-8.1-1.2c-9.1,0-13.8,5.1-13.8,14.7v2.1h-4.7c-0.4,0-0.7,0.3-0.7,0.7v8.5
			c0,0.4,0.3,0.7,0.7,0.7h4.7v33.6c0,0.4,0.3,0.7,0.7,0.7h9.8c0.4,0,0.7-0.3,0.7-0.7V58.5h9.2l14,33.6c-1.6,3.5-3.2,4.2-5.3,4.2
			c-1.7,0-3.5-0.5-5.4-1.5c-0.2-0.1-0.4-0.1-0.6-0.1c-0.2,0.1-0.3,0.2-0.4,0.4l-3.3,7.3c-0.2,0.3,0,0.7,0.3,0.9
			c3.5,1.9,6.6,2.7,10.5,2.7c7.2,0,11.2-3.4,14.8-12.4l17-43.9c0.1-0.2,0.1-0.5-0.1-0.7c-0.1-0.2-0.4-0.3-0.6-0.3h-10.2
			c-0.3,0-0.6,0.2-0.7,0.5L378.8,79l-11.5-29.9c-0.1-0.3-0.4-0.5-0.7-0.5H349.9z"/>
		<path d="M328.1,48.6h-9.8c-0.4,0-0.7,0.3-0.7,0.7v42.8c0,0.4,0.3,0.7,0.7,0.7h9.8c0.4,0,0.7-0.3,0.7-0.7V49.4
			C328.8,49,328.5,48.6,328.1,48.6z"/>
		<ellipse cx="323.3" cy="36.2" rx="7" ry="7"/>
	</g>
	<g>
		<path d="M400.4,92.9c-3.9,0-6.9-3.1-6.9-6.9c0-3.8,3.1-6.9,6.9-6.9c3.9,0,6.9,3.1,6.9,6.9
			C407.3,89.7,404.3,92.9,400.4,92.9z M400.4,79.7c-3.5,0-6.2,2.8-6.2,6.2c0,3.4,2.7,6.2,6.2,6.2c3.5,0,6.2-2.8,6.2-6.2
			C406.6,82.5,404,79.7,400.4,79.7z M402,86.7l2,2.7h-1.6l-1.8-2.5H399v2.5h-1.4v-7.2h3.2c1.7,0,2.8,0.9,2.8,2.3
			C403.6,85.6,403,86.4,402,86.7z M400.8,83.4H399v2.3h1.8c0.9,0,1.4-0.4,1.4-1.1C402.2,83.8,401.7,83.4,400.8,83.4z"/>
	</g>
</g>
</svg>
