
<svg id="spotify_brands" width="747px" height="127px" viewBox="0 0 747 127" version="1.1" xmlns="http://www.w3.org/2000/svg" xmlns:xlink="http://www.w3.org/1999/xlink">
    <g id="Page-1" stroke="none" stroke-width="1" fill="none" fill-rule="evenodd">
        <g fill-rule="nonzero" fill="#545454">
            <path d="M63.41,0 C28.389624,-2.14437957e-15 -9.92209558e-15,28.389624 -1.42108547e-14,63.41 C-1.84996139e-14,98.430376 28.389624,126.82 63.41,126.82 C98.430376,126.82 126.82,98.430376 126.82,63.41 C126.82,28.389624 98.430376,1.76965507e-14 63.41,0 Z M92.49,91.46 C91.3383565,93.3009697 88.9282415,93.886854 87.06,92.78 C72.17,83.68 53.43,81.62 31.36,86.67 C29.8888928,87.3027832 28.1821672,86.9971669 27.0220488,85.8932212 C25.8619304,84.7892754 25.4720527,83.0998054 26.0311043,81.5991281 C26.5901558,80.0984508 27.9903694,79.0758487 29.59,79 C53.75,73.43 74.47,75.81 91.18,86 C93.0353252,87.1562348 93.6187255,89.5878116 92.49,91.46 Z M100.25,74.19 C98.8033245,76.4915304 95.7828867,77.2155471 93.45,75.82 C76.45,65.35 50.45,62.31 30.26,68.43 C28.5353135,69.0862479 26.5886536,68.7265267 25.2123898,67.4972575 C23.836126,66.2679883 23.2597374,64.3741403 23.7178377,62.5865863 C24.1759379,60.7990324 25.592143,59.4158305 27.39,59 C50.39,52 79.05,55.4 98.62,67.42 C100.93186,68.8449905 101.659926,71.8689222 100.25,74.19 Z M100.92,56.19 C80.48,44.08 46.76,43 27.25,48.88 C25.2188493,49.5066882 23.0076342,48.9982917 21.4541472,47.5474335 C19.9006603,46.0965754 19.2425542,43.9252081 19.7291745,41.8560267 C20.2157949,39.7868452 21.7726983,38.1363934 23.81,37.53 C46.21,30.73 83.44,32 107,46 C109.776439,47.6884667 110.676826,51.2969419 109.019075,54.0918286 C107.361323,56.8867153 103.762995,57.8268346 100.95,56.2 L100.92,56.19 Z" id="Shape"></path>
            <path d="M169,58.54 C158.05,55.93 156.1,54.1 156.1,50.25 C156.1,46.61 159.53,44.16 164.62,44.16 C169.56,44.16 174.45,46.02 179.62,49.85 C179.775368,49.9638121 179.969858,50.0106336 180.16,49.98 C180.349383,49.9507223 180.518889,49.8461333 180.63,49.69 L186,42.15 C186.234062,41.8343188 186.171755,41.3892669 185.86,41.15 C179.939893,36.3185812 172.500239,33.7395012 164.86,33.87 C153.04,33.87 144.78,40.96 144.78,51.11 C144.78,61.99 151.9,65.85 164.21,68.82 C174.69,71.23 176.45,73.25 176.45,76.82 C176.45,80.82 172.87,83.31 167.12,83.31 C160.73,83.31 155.52,81.16 149.69,76.11 C149.541679,75.9874496 149.351932,75.9265876 149.16,75.94 C148.969709,75.9541037 148.793104,76.0442083 148.67,76.19 L142.67,83.32 C142.413845,83.615692 142.445148,84.0628785 142.74,84.32 C149.34603,90.309574 157.952962,93.6125241 166.87,93.58 C179.61,93.58 187.87,86.58 187.87,75.85 C187.8,66.82 182.36,61.78 169,58.54 Z" id="Shape"></path>
            <path d="M218.61,47.74 C213.2321,47.671196 208.132324,50.124862 204.83,54.37 L204.83,49.37 C204.83,48.972355 204.507645,48.65 204.11,48.65 L194.31,48.65 C193.912355,48.65 193.59,48.972355 193.59,49.37 L193.59,105.1 C193.59,105.497645 193.912355,105.82 194.31,105.82 L204.11,105.82 C204.507645,105.82 204.83,105.497645 204.83,105.1 L204.83,87.5 C208.250507,91.5473791 213.311765,93.8392698 218.61,93.74 C228.87,93.74 239.25,85.84 239.25,70.74 C239.25,55.64 228.87,47.74 218.61,47.74 Z M227.86,70.74 C227.86,78.43 223.12,83.79 216.34,83.79 C209.56,83.79 204.58,78.18 204.58,70.74 C204.58,63.3 209.64,57.69 216.34,57.69 C223.04,57.69 227.86,63.18 227.86,70.74 L227.86,70.74 Z" id="Shape"></path>
            <path d="M264.38,47.74 C251.17,47.74 240.82,57.91 240.82,70.9 C240.82,83.89 251.1,93.82 264.22,93.82 C277.34,93.82 287.86,83.68 287.86,70.74 C287.86,57.8 277.55,47.74 264.38,47.74 Z M264.38,83.87 C257.38,83.87 252.05,78.22 252.05,70.74 C252.05,63.26 257.16,57.74 264.21,57.74 C271.26,57.74 276.62,63.39 276.62,70.88 C276.62,78.37 271.48,83.87 264.38,83.87 Z" id="Shape"></path>
            <path d="M312.58,48.64 L301.79,48.64 L301.79,37.64 C301.79,37.242355 301.467645,36.92 301.07,36.92 L291.27,36.92 C290.872355,36.92 290.55,37.242355 290.55,37.64 L290.55,48.64 L285.84,48.64 C285.446266,48.6454691 285.129962,48.9662277 285.13,49.36 L285.13,57.79 C285.129962,58.1837723 285.446266,58.5045309 285.84,58.51 L290.55,58.51 L290.55,80.3 C290.55,89.11 294.93,93.58 303.55,93.58 C306.760113,93.6548109 309.931137,92.8637821 312.73,91.29 C312.953193,91.163544 313.090817,90.9265263 313.09,90.67 L313.09,82.67 C313.082365,82.4328277 312.958358,82.2146469 312.758491,82.0867321 C312.558625,81.9588172 312.308565,81.9375957 312.09,82.03 C310.314101,82.9519328 308.340924,83.428927 306.34,83.42 C303.19,83.42 301.79,81.99 301.79,78.79 L301.79,58.5 L312.58,58.5 C312.770956,58.5 312.954091,58.4241431 313.089117,58.2891169 C313.224143,58.1540907 313.3,57.9709559 313.3,57.78 L313.3,49.36 C313.3,49.1690441 313.224143,48.9859093 313.089117,48.8508831 C312.954091,48.7158569 312.770956,48.64 312.58,48.64 Z" id="Shape"></path>
            <path d="M349.91,48.68 L349.91,47.33 C349.91,43.33 351.44,41.57 354.91,41.57 C356.793499,41.586786 358.660312,41.9249767 360.43,42.57 C360.648082,42.6399908 360.886455,42.602047 361.072028,42.467803 C361.2576,42.333559 361.368232,42.1190318 361.37,41.89 L361.37,33.64 C361.370575,33.3227609 361.163446,33.0425277 360.86,32.95 C358.219434,32.1442442 355.470599,31.7496262 352.71,31.78 C343.66,31.78 338.87,36.88 338.87,46.52 L338.87,48.59 L334.16,48.59 C333.762355,48.59 333.44,48.912355 333.44,49.31 L333.44,57.78 C333.44,58.177645 333.762355,58.5 334.16,58.5 L338.87,58.5 L338.87,92.13 C338.869962,92.5237723 339.186266,92.8445309 339.58,92.85 L349.38,92.85 C349.570956,92.85 349.754091,92.7741431 349.889117,92.6391169 C350.024143,92.5040907 350.1,92.3209559 350.1,92.13 L350.1,58.5 L359.25,58.5 L373.25,92.12 C371.66,95.65 370.09,96.35 367.96,96.35 C366.056632,96.303492 364.195806,95.7772326 362.55,94.82 C362.37439,94.7275794 362.169018,94.7095643 361.98,94.77 C361.792061,94.836274 361.639995,94.9774779 361.56,95.16 L358.24,102.45 C358.078405,102.793043 358.214898,103.202522 358.55,103.38 C361.739962,105.16306 365.346146,106.067194 369,106 C376.24,106 380.24,102.63 383.77,93.56 L400.77,49.61 C400.864323,49.3865773 400.839831,49.1306813 400.704843,48.9292055 C400.569854,48.7277297 400.342506,48.6077472 400.1,48.61 L389.91,48.61 C389.604444,48.6095004 389.331852,48.8019187 389.23,49.09 L378.78,79 L367.33,49.14 C367.222824,48.8632294 366.956797,48.6805841 366.66,48.68 L349.91,48.68 Z" id="Shape"></path>
            <rect id="Rectangle-path" x="317.6" y="48.64" width="11.24" height="44.21" rx="0.72"></rect>
            <circle id="Oval" cx="323.27" cy="36.19" r="7.03"></circle>
            <path d="M400.4,92.89 C396.582103,92.8844668 393.49002,89.7878915 393.490029,85.9699904 C393.490038,82.1520893 396.582137,79.055529 400.400034,79.0500145 C404.217931,79.0444999 407.318962,82.1321149 407.33,85.95 C407.348867,87.794584 406.625129,89.5692589 405.321684,90.8745851 C404.018239,92.1799113 402.244609,92.9062072 400.4,92.89 Z M400.4,79.74 C397.873064,79.7156751 395.581756,81.2202149 394.599707,83.5486422 C393.617657,85.8770695 394.139432,88.56807 395.920545,90.3607302 C397.701659,92.1533904 400.389231,92.6925437 402.723956,91.7255608 C405.058681,90.7585779 406.577995,88.47704 406.57,85.95 C406.580643,84.3136039 405.940777,82.7400061 404.791171,81.5753977 C403.641566,80.4107893 402.076397,79.7505743 400.44,79.74 L400.4,79.74 Z M402,86.66 L404,89.39 L402.35,89.39 L400.59,86.88 L399,86.88 L399,89.39 L397.62,89.39 L397.62,82.15 L400.85,82.15 C402.53,82.15 403.64,83.01 403.64,84.46 C403.68918,85.4909789 403.002085,86.4126915 402,86.66 L402,86.66 Z M400.84,83.39 L399,83.39 L399,85.68 L400.8,85.68 C401.7,85.68 402.23,85.24 402.23,84.53 C402.23,83.82 401.7,83.39 400.8,83.39 L400.84,83.39 Z" id="Shape"></path>
            <path d="M431.6,61.61 L431.6,92.61 C431.6,92.9855536 431.295554,93.29 430.92,93.29 L424.35,93.29 C423.974446,93.29 423.67,92.9855536 423.67,92.61 L423.67,61.61 C423.67,61.2344464 423.365554,60.93 422.99,60.93 L417.07,60.93 C416.694446,60.93 416.39,60.6255536 416.39,60.25 L416.39,54.67 C416.39,54.2944464 416.694446,53.99 417.07,53.99 L423,53.99 C423.375554,53.99 423.68,53.6855536 423.68,53.31 L423.68,47.37 C423.637357,45.3903565 423.97689,43.4210654 424.68,41.57 C425.299085,39.9744215 426.246168,38.5265439 427.46,37.32 C428.62177,36.1829456 430.012717,35.3067849 431.54,34.75 C433.142743,34.1700885 434.835606,33.8789162 436.54,33.89 C437.596511,33.8643159 438.651913,33.9752339 439.68,34.22 C440.093333,34.3333333 440.426667,34.4333333 440.68,34.52 C440.951914,34.6145081 441.133066,34.8721465 441.13,35.16 L441.13,41.58 C440.776841,41.4291752 440.407862,41.3184818 440.03,41.25 C439.286904,41.1243249 438.533403,41.0707426 437.78,41.09 C437.077193,41.0983149 436.378279,41.1957595 435.7,41.38 C434.972393,41.5741919 434.291918,41.9144296 433.7,42.38 C433.039369,42.911877 432.520619,43.5989639 432.19,44.38 C431.774029,45.4462479 431.58007,46.5861809 431.62,47.73 L431.62,53.26 C431.62,53.6355536 431.924446,53.94 432.3,53.94 L440.42,53.94 C440.795554,53.94 441.1,54.2444464 441.1,54.62 L441.1,60.21 C441.1,60.5855536 440.795554,60.89 440.42,60.89 L432.3,60.89 C432.109056,60.884045 431.924414,60.9586839 431.791246,61.0956562 C431.658079,61.2326286 431.58867,61.4192995 431.6,61.61 L431.6,61.61 Z" id="Shape"></path>
            <path d="M460.43,52.77 C463.207511,52.7358744 465.962001,53.2772389 468.52,54.36 C470.911051,55.381773 473.076042,56.8670183 474.89,58.73 C476.711477,60.6181345 478.130193,62.8567799 479.06,65.31 C480.060833,67.9579932 480.559346,70.7693333 480.53,73.6 C480.556887,76.443477 480.058534,79.2674796 479.06,81.93 C478.137562,84.3987257 476.718282,86.6518739 474.89,88.55 C473.076213,90.4131849 470.911179,91.8984598 468.52,92.92 C463.338898,95.0422265 457.531102,95.0422265 452.35,92.92 C449.965116,91.8931984 447.806997,90.4046064 446,88.54 C444.171718,86.6418739 442.752438,84.3887257 441.83,81.92 C440.83191,79.2573583 440.333571,76.4334391 440.36,73.59 C440.331121,70.759372 440.829619,67.9481175 441.83,65.3 C442.761009,62.8503414 444.179662,60.6151983 446,58.73 C447.813958,56.8670183 449.978949,55.381773 452.37,54.36 C454.918801,53.2815731 457.662599,52.7403028 460.43,52.77 L460.43,52.77 Z M460.43,87.65 C462.027272,87.6579493 463.610561,87.352164 465.09,86.75 C466.574433,86.1401638 467.911066,85.2195236 469.01,84.05 C470.200867,82.7791608 471.119641,81.2784967 471.71,79.64 C472.397975,77.7155083 472.736628,75.6835922 472.71,73.64 C472.743857,71.5958633 472.40499,69.5626621 471.71,67.64 C471.112551,66.0168195 470.194292,64.5306004 469.01,63.27 C467.91046,62.1011824 466.573989,61.1806544 465.09,60.57 C462.102239,59.3722379 458.767761,59.3722379 455.78,60.57 C454.295863,61.1803822 452.959339,62.1009475 451.86,63.27 C450.675926,64.5307673 449.757696,66.0169396 449.16,67.64 C448.46501,69.5626621 448.126143,71.5958633 448.16,73.64 C448.133372,75.6835922 448.472025,77.7155083 449.16,79.64 C449.750359,81.2784967 450.669133,82.7791608 451.86,84.05 C452.958934,85.2195236 454.295567,86.1401638 455.78,86.75 C457.257014,87.3474571 458.836755,87.649816 460.43,87.64 L460.43,87.65 Z" id="Shape"></path>
            <path d="M508.05,61 C508.048871,61.1927037 507.964822,61.3755906 507.819322,61.501946 C507.673821,61.6283014 507.48096,61.6858893 507.29,61.66 C506.430142,61.5617094 505.565456,61.5116311 504.7,61.51 C501.829809,61.3843228 499.026234,62.3979229 496.9,64.33 C494.9,66.21 493.9,69.3 493.9,73.6 L493.9,92.6 C493.9,92.9755536 493.595554,93.28 493.22,93.28 L486.89,93.28 C486.709653,93.28 486.536692,93.2083573 486.409167,93.0808326 C486.281643,92.9533079 486.21,92.7803472 486.21,92.6 L486.21,54.67 C486.21,54.2944464 486.514446,53.99 486.89,53.99 L493.06,53.99 C493.240347,53.99 493.413308,54.0616427 493.540833,54.1891674 C493.668357,54.3166921 493.74,54.4896528 493.74,54.67 L493.74,58.3 C493.739038,58.5964954 493.933066,58.8583642 494.216995,58.9437738 C494.500924,59.0291833 494.807225,58.9178199 494.97,58.67 C495.342215,58.1224569 495.763991,57.6103007 496.23,57.14 C497.117046,56.2390589 498.127046,55.4680919 499.23,54.85 C500.225724,54.2936575 501.30192,53.8955665 502.42,53.67 C503.440019,53.4586542 504.478348,53.3481224 505.52,53.34 C506.02445,53.3377256 506.528614,53.3644363 507.03,53.42 C507.365989,53.4551508 507.699816,53.5085631 508.03,53.58 L508.05,61 Z" id="Shape"></path>
            <path d="M546.53,35.37 C549.043521,35.3262209 551.545096,35.7256606 553.92,36.55 C555.942888,37.2648846 557.802603,38.3766337 559.39,39.82 C560.877692,41.1987518 562.048024,42.8843038 562.82,44.76 C563.618388,46.7425931 564.01932,48.8627762 564,51 C564.086479,53.8204086 563.239295,56.5904562 561.59,58.88 C560.368501,60.5354635 558.775884,61.8814816 556.94,62.81 C556.699211,62.9275038 556.551577,63.1771619 556.564632,63.4447741 C556.577686,63.7123863 556.748917,63.9464899 557,64.04 C560.902115,65.547825 563.893197,68.7675718 565.11,72.77 C565.574799,74.293109 565.807411,75.8775667 565.8,77.47 C565.8213,79.6494286 565.374573,81.8080427 564.49,83.8 C563.639251,85.7131226 562.383731,87.418992 560.81,88.8 C559.152394,90.235019 557.23893,91.3444213 555.17,92.07 C552.834076,92.8844928 550.37362,93.2838515 547.9,93.25 L528.33,93.25 C527.954446,93.25 527.65,92.9455536 527.65,92.57 L527.65,36 C527.65,35.6244464 527.954446,35.32 528.33,35.32 L546.53,35.37 Z M545.63,60.69 C548.896667,60.69 551.43,59.8333333 553.23,58.12 C555.037852,56.3861267 556.020077,53.9633039 555.93,51.46 C556.042172,48.9399348 555.004961,46.5050628 553.11,44.84 C551.23,43.2066667 548.63,42.39 545.31,42.39 L536.31,42.39 C535.934446,42.39 535.63,42.6944464 535.63,43.07 L535.63,60 C535.63,60.3755536 535.934446,60.68 536.31,60.68 L545.63,60.69 Z M546.77,86.26 C549.609897,86.3988819 552.405544,85.5154858 554.65,83.77 C556.645867,82.1137329 557.75519,79.6214557 557.65,77.03 C557.737187,74.4868495 556.779615,72.0188424 555,70.2 C553.253333,68.4333333 550.613333,67.55 547.08,67.55 L536.34,67.55 C535.964446,67.55 535.66,67.8544464 535.66,68.23 L535.66,85.58 C535.66,85.9555536 535.964446,86.26 536.34,86.26 L546.77,86.26 Z" id="Shape"></path>
            <path d="M590.06,61 C590.058871,61.1927037 589.974822,61.3755906 589.829322,61.501946 C589.683821,61.6283014 589.49096,61.6858893 589.3,61.66 C588.440142,61.5617094 587.575456,61.5116311 586.71,61.51 C583.839809,61.3843228 581.036234,62.3979229 578.91,64.33 C576.91,66.21 575.91,69.3 575.91,73.6 L575.91,92.6 C575.91,92.9755536 575.605554,93.28 575.23,93.28 L568.9,93.28 C568.719653,93.28 568.546692,93.2083573 568.419167,93.0808326 C568.291643,92.9533079 568.22,92.7803472 568.22,92.6 L568.22,54.67 C568.22,54.2944464 568.524446,53.99 568.9,53.99 L575.07,53.99 C575.445554,53.99 575.75,54.2944464 575.75,54.67 L575.75,58.3 C575.749038,58.5964954 575.943066,58.8583642 576.226995,58.9437738 C576.510924,59.0291833 576.817225,58.9178199 576.98,58.67 C577.352215,58.1224569 577.773991,57.6103007 578.24,57.14 C579.127046,56.2390589 580.137046,55.4680919 581.24,54.85 C582.235724,54.2936575 583.31192,53.8955665 584.43,53.67 C585.450019,53.4586542 586.488348,53.3481224 587.53,53.34 C588.03445,53.3377256 588.538614,53.3644363 589.04,53.42 C589.375989,53.4551508 589.709816,53.5085631 590.04,53.58 L590.06,61 Z" id="Shape"></path>
            <path d="M591.69,82.74 C591.664134,81.1281584 591.970497,79.5282603 592.59,78.04 C593.15976,76.6939762 594.008418,75.4840416 595.08,74.49 C596.193398,73.4773296 597.480789,72.674404 598.88,72.12 C600.405229,71.5050524 601.995447,71.0655617 603.62,70.81 L614.24,69.26 C615.150675,69.2337955 616.015243,68.853529 616.65,68.2 C617.059855,67.6602278 617.274863,66.9975799 617.26,66.32 C617.282964,64.4717214 616.562319,62.6917267 615.26,61.38 C613.926667,59.9933333 611.763333,59.3 608.77,59.3 C606.45278,59.1506009 604.176725,59.96477 602.48,61.55 C601.147825,62.9180111 600.271134,64.6644062 599.97,66.55 C599.941303,66.7359615 599.836834,66.9017194 599.681449,67.0078359 C599.526064,67.1139525 599.333655,67.1509406 599.15,67.11 L593.15,65.7 C592.805406,65.6204349 592.579327,65.2900113 592.63,64.94 C592.882972,63.3465946 593.421615,61.8119692 594.22,60.41 C595.106987,58.8647263 596.28544,57.506279 597.69,56.41 C599.172973,55.260298 600.844525,54.3771504 602.63,53.8 C604.56617,53.164939 606.592379,52.8474997 608.63,52.86 C611.187387,52.7955233 613.735272,53.1953243 616.15,54.04 C618.040255,54.7207538 619.764799,55.7943339 621.21,57.19 C622.465496,58.4541818 623.419228,59.9856221 624,61.67 C624.602099,63.4305977 624.906273,65.2793046 624.9,67.14 L624.9,86.83 C624.896867,88.2224705 624.963618,89.6142209 625.1,91 C625.16,91.6 625.223333,92.1066667 625.29,92.52 C625.319337,92.7142701 625.261924,92.9116264 625.132955,93.0598443 C625.003987,93.2080622 624.81646,93.2922026 624.62,93.29 L618.47,93.29 C618.13899,93.294487 617.85432,93.0565539 617.8,92.73 C617.733333,92.3366667 617.673333,91.87 617.62,91.33 C617.54,90.51 617.5,89.3933333 617.5,87.98 C616.999934,88.7708723 616.42387,89.511048 615.78,90.19 C615.005445,91.0066762 614.128108,91.7193025 613.17,92.31 C612.039239,93.0051039 610.817625,93.5401909 609.54,93.9 C608.010436,94.3264095 606.427739,94.5318234 604.84,94.51 C602.982224,94.5325753 601.137852,94.1929119 599.41,93.51 C597.896125,92.9294781 596.500172,92.0790312 595.29,91 C594.156267,89.9567207 593.250623,88.6901802 592.63,87.28 C591.997683,85.8506348 591.677232,84.3029291 591.69,82.74 Z M605.9,88.05 C607.404885,88.0607209 608.903512,87.8552911 610.35,87.44 C611.681759,87.0515879 612.908836,86.3679792 613.94,85.44 C615.011386,84.4468646 615.836548,83.2176815 616.35,81.85 C616.990607,80.1131803 617.296004,78.2706226 617.25,76.42 L617.25,75.42 C617.249244,75.2226531 617.16279,75.0353693 617.013087,74.9067787 C616.863385,74.7781882 616.665202,74.7209767 616.47,74.75 L605.24,76.43 C603.733873,76.6469141 602.319609,77.2847192 601.16,78.27 C600.04865,79.2944453 599.451204,80.7605704 599.53,82.27 C599.532215,83.7824406 600.153795,85.2279754 601.25,86.27 C602.48628,87.4885591 604.176157,88.1340487 605.91,88.05 L605.9,88.05 Z" id="Shape"></path>
            <path d="M638.15,93.28 L631.82,93.28 C631.444446,93.28 631.14,92.9755536 631.14,92.6 L631.14,54.67 C631.14,54.2944464 631.444446,53.99 631.82,53.99 L638,53.99 C638.375554,53.99 638.68,54.2944464 638.68,54.67 L638.68,57.42 C638.676784,57.7049927 638.854217,57.9608263 639.122265,58.057684 C639.390313,58.1545417 639.690299,58.0712206 639.87,57.85 C640.978185,56.3872544 642.417604,55.2083022 644.07,54.41 C646.15864,53.396868 648.448621,52.8670962 650.77,52.86 C652.877332,52.8036206 654.972883,53.1920643 656.92,54 C658.619879,54.7398735 660.128256,55.8583298 661.33,57.27 C662.531299,58.7190987 663.41991,60.4009915 663.94,62.21 C664.524897,64.2002824 664.814649,66.2656052 664.8,68.34 L664.8,92.61 C664.8,92.9855536 664.495554,93.29 664.12,93.29 L657.8,93.29 C657.424446,93.29 657.12,92.9855536 657.12,92.61 L657.12,69.67 C657.127463,68.3764215 656.976336,67.0868053 656.67,65.83 C656.39345,64.6810252 655.863907,63.6082731 655.12,62.69 C654.348222,61.7665867 653.367925,61.0399328 652.26,60.57 C650.899505,60.0155146 649.438602,59.7498958 647.97,59.79 C646.587761,59.7599245 645.217736,60.0544797 643.97,60.65 C642.850588,61.2059972 641.872518,62.009656 641.11,63 C640.326517,64.0238457 639.746089,65.1880952 639.4,66.43 C639.012185,67.7857205 638.820242,69.1899349 638.83,70.6 L638.83,92.6 C638.83,92.9755536 638.525554,93.28 638.15,93.28 L638.15,93.28 Z" id="Shape"></path>
            <path d="M702.13,87.32 C701.110071,89.3315243 699.574442,91.0362457 697.68,92.26 C695.388868,93.7131693 692.711331,94.4383357 690,94.34 C687.32803,94.3854994 684.678762,93.8426725 682.24,92.75 C679.996267,91.7213933 678.003434,90.2165308 676.4,88.34 C674.750849,86.389595 673.488346,84.1428818 672.68,81.72 C671.788159,79.0756319 671.345371,76.3006013 671.37,73.51 C671.356534,70.8246645 671.813435,68.157716 672.72,65.63 C673.571374,63.2368018 674.859898,61.0225753 676.52,59.1 C678.156173,57.221074 680.156514,55.6936031 682.4,54.61 C684.771332,53.4766773 687.371992,52.9052167 690,52.94 C691.555592,52.9166489 693.106943,53.1084646 694.61,53.51 C695.804669,53.8441551 696.945999,54.3458018 698,55 C698.921623,55.5753949 699.748164,56.2906063 700.45,57.12 C701.092477,57.8425148 701.615705,58.6628015 702,59.55 L702,34.82 C702,34.4444464 702.304446,34.14 702.68,34.14 L708.93,34.14 C709.305554,34.14 709.61,34.4444464 709.61,34.82 L709.61,86 C709.61,87.9066667 709.663333,89.5133333 709.77,90.82 C709.83,91.54 709.88,92.11 709.92,92.53 C709.939908,92.7194757 709.878209,92.9084665 709.750338,93.0496977 C709.622466,93.1909289 709.440516,93.271043 709.25,93.27 L703.14,93.27 C702.80899,93.274487 702.52432,93.0365539 702.47,92.71 C702.403333,92.31 702.343333,91.8 702.29,91.18 C702.21,90.2266667 702.17,89.15 702.17,87.95 L702.13,87.32 Z M679.13,73.52 C679.113536,75.4148454 679.376359,77.3017765 679.91,79.12 C680.375633,80.7307837 681.138785,82.2401286 682.16,83.57 C683.120227,84.8076204 684.347377,85.8125839 685.75,86.51 C687.277702,87.2424291 688.956169,87.6055261 690.65,87.57 C692.295905,87.5938935 693.92284,87.2163348 695.39,86.47 C696.790233,85.7424307 698.015271,84.7187227 698.98,83.47 C700.018648,82.1379084 700.795668,80.6211927 701.27,79 C701.801186,77.1675717 702.063918,75.2678151 702.05,73.36 C702.05,69.2733333 701.05,65.98 699.05,63.48 C697.050359,60.9687039 693.966664,59.5700677 690.76,59.72 C689.11206,59.6930117 687.47892,60.0346726 685.98,60.72 C684.55457,61.3856147 683.296926,62.3630235 682.3,63.58 C681.258246,64.8930266 680.477524,66.3933697 680,68 C679.442393,69.7829862 679.165747,71.6419094 679.18,73.51 L679.13,73.52 Z" id="Shape"></path>
            <path d="M722.72,80.88 C722.900586,80.8187627 723.098833,80.838623 723.263683,80.934466 C723.428533,81.030309 723.543873,81.1927668 723.58,81.38 C723.942862,83.1018211 724.838523,84.6657303 726.14,85.85 C727.935579,87.372779 730.250001,88.1430586 732.6,88 C734.402222,88.1299567 736.187305,87.576581 737.6,86.45 C738.685977,85.5364311 739.312029,84.189137 739.31,82.77 C739.33824,81.5644743 738.863649,80.401546 738,79.56 C736.946514,78.5949515 735.644131,77.9437599 734.24,77.68 L727.54,76.21 C724.763163,75.7378209 722.220841,74.3594117 720.31,72.29 C718.593448,70.3253083 717.676364,67.7881633 717.74,65.18 C717.732326,63.5230673 718.108847,61.8869098 718.84,60.4 C719.576247,58.8878478 720.594483,57.5301999 721.84,56.4 C723.138784,55.2260716 724.648936,54.3098 726.29,53.7 C728.023343,53.0364357 729.863985,52.6974593 731.72,52.7 C734.019707,52.6340365 736.309908,53.0213999 738.46,53.84 C740.107547,54.4916478 741.617304,55.4483923 742.91,56.66 C743.964112,57.6564877 744.834117,58.8311642 745.48,60.13 C745.869745,60.9327854 746.203865,61.7614038 746.48,62.61 C746.587937,62.9544392 746.407949,63.3231957 746.07,63.45 L740.57,65.5 C740.395234,65.5659594 740.200866,65.5559638 740.033788,65.4724247 C739.866709,65.3888856 739.742092,65.2393887 739.69,65.06 C739.59,64.7133333 739.46,64.32 739.3,63.88 C738.99924,63.1091365 738.558493,62.4005512 738,61.79 C737.311089,61.0313271 736.47382,60.4220948 735.54,60 C734.330296,59.4729682 733.018926,59.2202562 731.7,59.26 C729.984866,59.1980955 728.308522,59.7794656 727,60.89 C725.88926,61.7714858 725.229356,63.1022907 725.2,64.52 C725.2,67.0266667 726.696667,68.6066667 729.69,69.26 L736,70.65 C739.091289,71.1453649 741.941476,72.6212918 744.13,74.86 C746.946616,78.0860553 747.672848,82.6376224 746,86.58 C745.368306,88.0426296 744.465791,89.3726507 743.34,90.5 C742.07206,91.7626246 740.55711,92.7498951 738.89,93.4 C736.858098,94.1763068 734.694578,94.5499131 732.52,94.5 C730.135797,94.5627153 727.761101,94.1759791 725.52,93.36 C723.756569,92.6997827 722.12452,91.7313889 720.7,90.5 C718.636652,88.7033549 717.197432,86.2976513 716.59,83.63 C716.527055,83.3024623 716.714611,82.9785024 717.03,82.87 L722.72,80.88 Z" id="Shape"></path>
        </g>
    </g>
</svg>
