<svg id="syfy" xmlns="http://www.w3.org/2000/svg" viewBox="0 0 139.1 75.01">
  <defs>
    <style>
      .syfy-1 {
        fill: #666;
      }
    </style>
  </defs>
  <title>syfy</title>
  <path id="Shape" class="syfy-1" d="M101.4,20.4h-12V19.1a9.74,9.74,0,0,1,.2-2.4,15.46,15.46,0,0,1,.4-1.5,2.5,2.5,0,0,1,1.2-1.3A9.23,9.23,0,0,1,95.94,13h8.2V0h-8.2a23.22,23.22,0,0,0-10.2,2.1,15,15,0,0,0-5.3,4.2,17.72,17.72,0,0,0-3.5,7.4,24.53,24.53,0,0,0-.5,5.5v35.4h13.1V32.9h12l-0.1-12.5" transform="translate(0 0.02)"/>
  <path id="Shape-2" class="syfy-1" d="M121.5,75c11.5,0,17.6-8.4,17.6-16.3V20.5H126.8v19a4.41,4.41,0,0,1-1,3.1,5.13,5.13,0,0,1-4.1,1.8c-2.1,0-3.5-.7-4.2-1.8a5.49,5.49,0,0,1-.9-3.1v-19H104.1V39.8c0,8.1,6,16.3,16,16.3A16.58,16.58,0,0,0,125.94,55l0.9-.4v3.8a4.66,4.66,0,0,1-.6,2.5A4.37,4.37,0,0,1,122,63a5.13,5.13,0,0,1-4.1-1.8,4.19,4.19,0,0,1-.9-2l-12.6-.1,0.3,2A17.11,17.11,0,0,0,121.5,75" transform="translate(0 0.02)"/>
  <path id="Shape-3" class="syfy-1" d="M56.1,75c11.5,0,17.6-8.4,17.6-16.3V20.5H61.4v19a4.55,4.55,0,0,1-1,3.1,5.13,5.13,0,0,1-4.1,1.8c-2.1,0-3.5-.7-4.2-1.8a5.49,5.49,0,0,1-.9-3.1v-19H38.7V39.8c0,8.1,6,16.3,16,16.3A16.58,16.58,0,0,0,60.5,55l0.9-.4v3.8a4.66,4.66,0,0,1-.6,2.5A4.37,4.37,0,0,1,56.6,63a5.13,5.13,0,0,1-4.1-1.8,4.19,4.19,0,0,1-.9-2L39,59.1l0.3,2A17.11,17.11,0,0,0,56.1,75" transform="translate(0 0.02)"/>
  <path id="Shape-4" class="syfy-1" d="M0,38.5a13.92,13.92,0,0,1,.1-1.7H12.5v0.8A7,7,0,0,0,15,42.8,7,7,0,0,0,18.94,44c2.6,0,5.1-1.6,5.1-4.1v-0.2c-0.1-1.9-1.3-3-3.1-3.8-1.6-.7-4.3-1.9-7.2-3.3a53.15,53.15,0,0,1-8.6-5.2c-3.6-2.9-5.2-6.5-5-11.6a15.63,15.63,0,0,1,5.6-11.2A18.33,18.33,0,0,1,18.2.3a17.93,17.93,0,0,1,14,6.2,17.86,17.86,0,0,1,4.1,10.7v0.5H23.5A8,8,0,0,0,22,13.9a5.1,5.1,0,0,0-3.9-1.7,6.13,6.13,0,0,0-3.1.9A3.32,3.32,0,0,0,13.3,16c0,1.4.6,2.5,2.5,3.4S23,22.7,23.7,23c7.7,3,12.5,7.8,13.1,15.2v0.5a17.56,17.56,0,0,1-3.6,10.5,17.85,17.85,0,0,1-14.2,7C6.1,56,0,46.8,0,38.5" transform="translate(0 0.02)"/>
</svg>
