<svg id="tbs" xmlns="http://www.w3.org/2000/svg" viewBox="0 0 625.3 356.8">
  <defs>
    <style>
      .tbs-1 {
        fill: #676767;
      }
    </style>
  </defs>
  <title>tbs</title>
  <path id="_Compound_Path_" data-name=" Compound Path " class="tbs-1" d="M524.8,0H0V256.3L100.5,356.8H625.3V100.5ZM173.1,185.2H124.7v113l-66-66V58.7h66v60.4h48.4v66.1h0Zm129.3,119a96.67,96.67,0,0,1-56.9-18.4v12.4h-56V58.7H253v64.6a97.17,97.17,0,1,1,49.4,180.9h0Zm276.2-68.4c0,38.7-31.8,62.4-81.3,62.4H451.4l-48.6-48.7h96.8c9.9,0,11.5-14.3,1.8-16.4L482.9,229c-41.2-9.1-77.6-20.3-77.6-59.2v-0.5c0-35,27.4-62.1,78.2-62.1h35l48.2,48.2H483.4c-9.9,0-11.5,14.3-1.8,16.4l18.5,4.1c46.8,10.4,78.7,22.4,78.7,59.5v0.4h-0.2Z"/>
  <circle id="_Path_" data-name=" Path " class="tbs-1" cx="302.4" cy="207" r="33.7"/>
</svg>
