<svg id="yahoo" xmlns="http://www.w3.org/2000/svg" viewBox="0 0 369.8 85.8">
  <defs>
    <style>
      .yahoo-1 {
        fill: #666;
      }
    </style>
  </defs>
  <title>yahoo</title>
  <path id="Shape" class="yahoo-1" d="M365.1,1h0a10.53,10.53,0,0,0-1.2-.1c-2.7,0-5.4,1.6-5.4,5.7-1.6,20.4-3.3,40.8-6,60.3h0a6.39,6.39,0,0,1,4.2.7h0c3.1-19.8,10.5-49.3,12.4-57.7a17.49,17.49,0,0,0,.7-3.6c0.1-3.1-1.8-4.9-4.7-5.3h0Z"/>
  <path id="Shape-2" class="yahoo-1" d="M168.9,9c0.5,10.5.8,21.1,0.9,31.6q-18.9.45-37.8,0c0-10.5.3-21.1,0.9-31.6a24,24,0,0,1-11.3,0c1,22.6.9,45.2,0,67.7a24,24,0,0,1,11.3,0h0c-0.6-10.5-.8-21-0.9-31.5q18.9-.3,37.8,0,0,15.75-.9,31.5h0a24,24,0,0,1,11.3,0c-0.9-22.5-1-45.1,0-67.7a24,24,0,0,1-11.3,0h0Z"/>
  <path id="Shape-3" class="yahoo-1" d="M88.4,9h0a11.31,11.31,0,0,1-7.9,0h0c-9.1,22.8-19.6,48.5-29,67.7h0.1a22.9,22.9,0,0,1,11.1,0h0c2.4-6.1,5.1-12.9,7.9-19.9h0c9.3-.3,18.5-0.3,27.8,0h0c2.6,6.6,5.3,13.2,7.8,19.9h0a22.66,22.66,0,0,1,11.3,0h0C110.7,64,97.1,30.9,88.4,9h0ZM84.5,20.6c3.7,10.4,7.9,20.9,12,31.5h0q-12,.45-24,0h0c4.9-12.4,9.5-24.4,12-31.5h0Z"/>
  <path id="Shape-4" class="yahoo-1" d="M67.9,0h0A23.14,23.14,0,0,1,56.5,0c-3.2,6-15,25.3-22.6,37.7C26.3,25,17.2,10.4,11.3,0,6.6,1,4.7,1.1,0,0,9.3,13.9,24.1,40.5,29.1,49.2L28.4,85.5a46.44,46.44,0,0,1,5.4-.5,39.52,39.52,0,0,1,5.4.5L38.5,49.2C48.1,32.7,63.7,5.7,67.9,0h0Z"/>
  <path id="Shape-5" class="yahoo-1" d="M220,8.1c-23.9,0-36.5,15.2-36.5,34.9,0,21.5,13.7,34.7,36.5,34.7,24.6,0,36.6-14.8,36.6-34.4,0-22-14.4-35.2-36.6-35.2h0Zm0.1,65.7c-16,0-25.3-11.4-25.3-30.7,0-21.8,11.6-30.6,24.7-30.9h0.6c14.6,0,25.4,10,25.4,30.8s-10.8,30.8-25.4,30.8h0Z"/>
  <path id="Shape-6" class="yahoo-1" d="M302.6,4c-23.8,0-42.1,13.5-42.1,38.7,0,20.7,12.1,39,42.3,39,25.5,0,42.2-14,42.2-38.6C345,19.9,329.5,4,302.6,4h0ZM271.8,42.6c0-26.5,16.3-34.4,30.8-34.4,17.9,0,31.1,10.9,31.1,34.9,0,26.1-16,34.5-31.1,34.5-16,0-30.8-9.5-30.8-35h0Z"/>
  <path id="Shape-7" class="yahoo-1" d="M352.2,75c-3.6,0-5.3,2.7-5.3,5.6,0,3.4,2.7,5.2,6.1,5.2,2.5,0,5.1-1.5,5.1-5.5,0-3.3-2.5-5.3-5.9-5.3h0Z"/>
</svg>
