<?xml version="1.0" encoding="UTF-8" standalone="no"?>
<svg width="75px" height="75px" viewBox="0 0 75 75" version="1.1" xmlns="http://www.w3.org/2000/svg" xmlns:xlink="http://www.w3.org/1999/xlink" xmlns:sketch="http://www.bohemiancoding.com/sketch/ns">
    <!-- Generator: Sketch 3.5.1 (25234) - http://www.bohemiancoding.com/sketch -->
    <title>facebook-icon-circle</title>
    <desc>Created with Sketch.</desc>
    <defs></defs>
    <g id="Page-1" stroke="none" stroke-width="1" fill="none" fill-rule="evenodd" sketch:type="MSPage">
        <g id="facebook-icon-circle" sketch:type="MSLayerGroup" transform="translate(2.000000, 2.000000)">
            <circle id="Oval" stroke="#F12D5C" stroke-width="5" sketch:type="MSShapeGroup" cx="35.5" cy="35.5" r="35"></circle>
            <path d="M47.6,11.3 L41.3,11.3 C34.2,11.3 29.7,16 29.7,23.2 L29.7,28.7 L23.4,28.7 C22.9,28.7 22.4,29.1 22.4,29.7 L22.4,37.7 C22.4,38.2 22.8,38.7 23.4,38.7 L29.7,38.7 L29.7,58.8 C29.7,59.3 30.1,59.8 30.7,59.8 L39,59.8 C39.5,59.8 40,59.4 40,58.8 L40,38.6 L47.4,38.6 C47.9,38.6 48.4,38.2 48.4,37.6 L48.4,29.6 C48.4,29.3 48.3,29.1 48.1,28.9 C47.9,28.7 47.7,28.6 47.4,28.6 L40,28.6 L40,24 C40,21.8 40.5,20.6 43.5,20.6 L47.7,20.6 C48.2,20.6 48.7,20.2 48.7,19.6 L48.7,12.2 C48.6,11.7 48.1,11.3 47.6,11.3 L47.6,11.3 Z" id="Shape" fill="#F12D5C" sketch:type="MSShapeGroup"></path>
        </g>
    </g>
</svg>