<svg width="0" height="0" style="position:absolute"><symbol viewBox="0 0 75 75" id="glow-icon-close"><title>close-icon-circle</title><g transform="translate(2 2)" stroke="#F12D5C" stroke-width="5" fill="none" fill-rule="evenodd"><circle cx="35.5" cy="35.5" r="35"/><path d="M48.2 22.5L22.8 48m25.4.7L22.8 23.3"/></g></symbol><symbol viewBox="0 0 75 75" id="glow-icon-email"><title>email-icon-circle</title><g transform="translate(2 2)" stroke="#F12D5C" fill="none" fill-rule="evenodd"><circle stroke-width="5" cx="35.5" cy="35.5" r="35"/><g transform="translate(12 20)"><path d="M45.3 28.8H2.7c-1.2 0-2.2-1-2.2-2.2V3C.5 1.8 1.5.8 2.7.8h42.6c1.2 0 2.2 1 2.2 2.2v23.6c0 1.2-1 2.2-2.2 2.2z" stroke-width="2.436"/><path d="M1.5 1.8l20.6 16.1c1.4.8 3.1.8 4.5 0L47.2 1.8" stroke-width="2.436"/><path d="M3 25.6L16.1 14M44 25.6L31.3 14.3" stroke-width="2"/></g></g></symbol><symbol viewBox="0 0 75 75" id="glow-icon-facebook"><title>facebook-icon-circle</title><g transform="translate(2 2)" fill="none" fill-rule="evenodd"><circle stroke="#F12D5C" stroke-width="5" cx="35.5" cy="35.5" r="35"/><path d="M47.6 11.3h-6.3c-7.1 0-11.6 4.7-11.6 11.9v5.5h-6.3c-.5 0-1 .4-1 1v8c0 .5.4 1 1 1h6.3v20.1c0 .5.4 1 1 1H39c.5 0 1-.4 1-1V38.6h7.4c.5 0 1-.4 1-1v-8c0-.3-.1-.5-.3-.7-.2-.2-.4-.3-.7-.3H40V24c0-2.2.5-3.4 3.5-3.4h4.2c.5 0 1-.4 1-1v-7.4c-.1-.5-.6-.9-1.1-.9z" fill="#F12D5C"/></g></symbol><symbol viewBox="0 0 75 75" id="glow-icon-info"><title>info-icon-circle</title><g transform="translate(2 2)" fill="none" fill-rule="evenodd"><circle stroke="#F12D5C" stroke-width="5" cx="35.5" cy="35.5" r="35"/><path d="M30.5 27.2h11.8l-5.8 23.3c-.1.2-.1.4-.1.6v.5c0 .7.2 1.3.6 1.7.4.4 1 .6 1.8.6.5 0 1-.1 1.5-.2s1.1-.4 1.7-.6l.1.1c-1.2 1.2-2.4 2.1-3.7 2.7-1.3.6-2.7.9-4.1.9-1.8 0-3.3-.5-4.4-1.4-1.1-.9-1.6-2.2-1.6-3.9 0-.3 0-.6.1-.9 0-.3.1-.7.2-1.1l4-16c.2-.5.3-1 .3-1.4.1-.4.1-.7.1-1.1 0-.7-.2-1.4-.5-1.9-.4-.5-1-1.1-1.9-1.7v-.2h-.1zm9.1-4.7c-1.4 0-2.5-.4-3.4-1.3-.9-.8-1.3-1.9-1.3-3.3 0-1.5.5-2.7 1.5-3.7s2.3-1.5 3.7-1.5c1.4 0 2.5.4 3.4 1.3.9.9 1.3 2 1.3 3.3 0 1.4-.5 2.6-1.5 3.6-1 1.1-2.3 1.6-3.7 1.6z" fill="#F12D5C"/></g></symbol><symbol viewBox="0 0 75 75" id="glow-icon-instagram"><title>instagram-icon-circle</title><g transform="translate(2 2)" fill="none" fill-rule="evenodd"><circle stroke="#F12D5C" stroke-width="5" cx="35.5" cy="35.5" r="35"/><path d="M21.4 16.5h28.2c2.7 0 4.9 2 4.9 4.9v28.2c0 2.9-2.2 4.9-4.9 4.9H21.4c-2.7 0-4.9-2-4.9-4.9V21.4c0-2.9 2.2-4.9 4.9-4.9zm22.7 4.3c-.9 0-1.7.8-1.7 1.7v4.1c0 .9.8 1.7 1.7 1.7h4.3c.9 0 1.7-.8 1.7-1.7v-4.1c0-.9-.8-1.7-1.7-1.7h-4.3zm6 11.8h-3.3c.3 1 .5 2.1.5 3.3 0 6.3-5.3 11.4-11.8 11.4-6.5 0-11.8-5.1-11.8-11.4 0-1.1.2-2.2.5-3.3h-3.5v16c0 .8.7 1.5 1.5 1.5h26.4c.8 0 1.5-.7 1.5-1.5v-16zM35.5 28c-4.2 0-7.6 3.3-7.6 7.4 0 4.1 3.4 7.4 7.6 7.4 4.2 0 7.6-3.3 7.6-7.4 0-4.1-3.4-7.4-7.6-7.4z" fill="#F12D5C"/></g></symbol><symbol viewBox="0 0 75 75" id="glow-icon-more"><title>more-icon-circle</title><g transform="translate(2 2)" stroke="#F12D5C" stroke-width="5" fill="none" fill-rule="evenodd"><circle cx="35.5" cy="35.5" r="35"/><path d="M35.3 17.6v36m18.5-17.5h-36"/></g></symbol><symbol viewBox="0 0 75 75" id="glow-icon-phone"><title>phone-icon-circle</title><g transform="translate(2 2)" stroke="#F12D5C" fill="none" fill-rule="evenodd"><path d="M44.4 59.5H26.5c-2.2 0-4-1.8-4-4V18.6c0-2.2 1.8-4 4-4h17.9c2.2 0 4 1.8 4 4v36.9c0 2.2-1.8 4-4 4z" stroke-width="3.04"/><circle stroke-width="2" cx="35.5" cy="53.8" r="2"/><path d="M30.2 18.6h10-10zm-7.8 4.1h26v26.1h-26V22.7z" stroke-width="2"/><circle stroke-width="5" cx="35.5" cy="35.5" r="35"/></g></symbol><symbol viewBox="0 0 75 75" id="glow-icon-twitter"><title>twitter-icon-circle</title><g transform="translate(2 2)" fill="none" fill-rule="evenodd"><circle stroke="#F12D5C" stroke-width="5" cx="35.5" cy="35.5" r="35"/><path d="M57.6 22.1c-1.6.7-3.3 1.2-5.1 1.4 1.8-1.1 3.2-2.8 3.9-4.9-1.7 1-3.6 1.8-5.6 2.2-1.6-1.7-3.9-2.8-6.5-2.8-4.9 0-8.9 4-8.9 8.9 0 .7.1 1.4.2 2-7.4-.4-13.9-3.9-18.3-9.3-.8 1.3-1.2 2.8-1.2 4.5 0 3.1 1.6 5.8 3.9 7.4-1.5 0-2.8-.4-4-1.1v.1c0 4.3 3.1 7.9 7.1 8.7-.7.2-1.5.3-2.3.3-.6 0-1.1-.1-1.7-.2 1.1 3.5 4.4 6.1 8.3 6.2-3 2.4-6.9 3.8-11 3.8-.7 0-1.4 0-2.1-.1 3.9 2.5 8.6 4 13.6 4 16.3 0 25.2-13.5 25.2-25.2v-1.1c1.8-1.5 3.3-3 4.5-4.8z" fill="#F12D5C"/></g></symbol></svg>