<svg xmlns="http://www.w3.org/2000/svg" viewBox="0 0 300 300"><defs><style>.cls-1{fill:#666;}</style></defs><title>logo</title><g id="syfy"><path id="syfy-logo" class="cls-1" d="M218.69,113.13H192.81v-2.8a21,21,0,0,1,.43-5.18,33.34,33.34,0,0,1,.86-3.24,5.39,5.39,0,0,1,2.59-2.8,19.91,19.91,0,0,1,10.22-1.94H224.6v-28H206.92a50.08,50.08,0,0,0-22,4.53,32.35,32.35,0,0,0-11.43,9.06,38.22,38.22,0,0,0-7.55,16,52.9,52.9,0,0,0-1.08,11.86v76.35h28.25v-46.8H219l-.22-27M262,230.88c24.8,0,38-18.12,38-35.15V113.34H273.47v41a9.51,9.51,0,0,1-2.16,6.69,11.06,11.06,0,0,1-8.84,3.88c-4.53,0-7.55-1.51-9.06-3.88a11.84,11.84,0,0,1-1.94-6.69v-41h-27V155c0,17.47,12.94,35.15,34.51,35.15a35.76,35.76,0,0,0,12.6-2.37l1.94-.86v8.2a10.05,10.05,0,0,1-1.29,5.39,9.42,9.42,0,0,1-9.14,4.53,11.06,11.06,0,0,1-8.84-3.88,9,9,0,0,1-1.94-4.31l-27.17-.22.65,4.31a36.9,36.9,0,0,0,36.23,30m-141,0c24.8,0,38-18.12,38-35.15V113.34H132.42v41a9.81,9.81,0,0,1-2.16,6.69,11.06,11.06,0,0,1-8.84,3.88c-4.53,0-7.55-1.51-9.06-3.88a11.84,11.84,0,0,1-1.94-6.69v-41h-27V155c0,17.47,12.94,35.15,34.51,35.15a35.76,35.76,0,0,0,12.51-2.37l1.94-.86v8.2a10.05,10.05,0,0,1-1.29,5.39,9.42,9.42,0,0,1-9.06,4.53,11.06,11.06,0,0,1-8.84-3.88,9,9,0,0,1-1.94-4.31l-27.17-.22.65,4.31a36.9,36.9,0,0,0,36.23,30M0,152.16a30,30,0,0,1,.22-3.67H27v1.73a15.1,15.1,0,0,0,5.39,11.21,15.1,15.1,0,0,0,8.5,2.59c5.61,0,11-3.45,11-8.84v-.43c-.22-4.1-2.8-6.47-6.69-8.2-3.45-1.51-9.27-4.1-15.53-7.12a114.63,114.63,0,0,1-18.55-11.21C3.32,122-.13,114.21.3,103.21A33.71,33.71,0,0,1,12.38,79.05a39.53,39.53,0,0,1,26.87-9.27,37.67,37.67,0,0,1,39,36.45v1.08H50.68a17.25,17.25,0,0,0-3.24-8.2A11,11,0,0,0,39,95.44a13.22,13.22,0,0,0-6.69,1.94,7.16,7.16,0,0,0-3.67,6.25c0,3,1.29,5.39,5.39,7.33s15.53,7.12,17,7.76c16.61,6.47,27,16.82,28.25,32.78v1.08a37.87,37.87,0,0,1-7.76,22.65A38.5,38.5,0,0,1,41,190.34c-27.82-.43-41-20.27-41-38.17"/></g></svg>