<svg xmlns="http://www.w3.org/2000/svg" viewBox="0 0 300 300"><defs><style>.cls-1{fill:#676767;}</style></defs><title>logo</title><g id="historychannel"><g id="historychannel-logo"><polygon class="cls-1" points="247.08 51.06 273.67 29.07 168.45 29.07 196.52 51.92 196.52 99.25 196.52 99.25 123.85 99.25 123.73 52.17 151.55 29.07 151.68 29.07 46.58 29.07 46.58 29.07 73.29 50.81 73.29 215.9 46.58 237.89 46.58 237.89 151.55 237.89 123.73 215.03 123.73 140.87 123.85 140.87 196.89 140.87 196.89 215.03 168.57 237.89 219.88 237.89 219.88 237.89 273.67 237.89 247.08 215.9 247.08 51.06"/><polygon class="cls-1" points="30.19 189.69 30.19 233.66 52.55 212.3 30.19 189.69"/><polygon class="cls-1" points="0 262.48 20.62 242.73 20.62 180 0 159.13 0 262.48"/><polygon class="cls-1" points="278.63 251.3 27.2 251.3 7.83 270.93 300 270.93 278.63 251.3"/></g></g></svg>