<svg xmlns="http://www.w3.org/2000/svg" viewBox="0 0 300 300"><defs><style>.cls-1{fill:none;}.cls-2{fill:#666;}</style></defs><title>logo</title><g id="carlahall"><g id="carlahall-logo"><path class="cls-1" d="M106,124.14a3.62,3.62,0,0,0,3,1.66,4,4,0,0,0,3.15-1.57c2.71-3.67,1-9.79-2.18-13.54a19.62,19.62,0,0,0-3.41-3.15,40.51,40.51,0,0,0-1.31,5.94C104.58,117.41,104.23,121.69,106,124.14Z"/><path class="cls-1" d="M214.05,47.43c-1.57,0-3.24,0-4.89.09a141.6,141.6,0,0,0-30,4.19,135.69,135.69,0,0,0-30.42,12.14c-12.06,6.64-22.92,14.94-29.9,22.8a30.54,30.54,0,0,0-2.05,2.45c8.74,6.55,16.33,14.42,23.76,22.1l-.09.09c1.57,1.66,2.7,3.23,4.27,4.81,4.11,4.19,8.25,9,13.25,13.63V85.78a3.52,3.52,0,1,1,7,0v50.5c10,6.81,17.1,11.79,25.06,15.11a68.1,68.1,0,0,0,13.35,3.93,43.41,43.41,0,0,0,5.6.87V85.78a4,4,0,0,1,8,0v70.33c5-.61,12.93-2.53,16.69-8.47,1.66-2.62,3.14-7,2-9.35a3.82,3.82,0,0,1,1.81-5.07,3.54,3.54,0,0,1,1.6-.35,3.72,3.72,0,0,1,3.38,2.18c2.54,5.24.48,12.41-2.23,16.69-4.46,7-13.25,11.18-23.25,12.06v27.87a4,4,0,0,1-8,0V164a75.86,75.86,0,0,1-7.68-1,69.31,69.31,0,0,1-14-4.37C179.79,155.22,173,151,165,146.07v45.61a3.52,3.52,0,1,1-7,0V139.6c0-1.49-2.73-3-4.47-4.54-5.16-4.81-9.37-9.79-13.56-14-1.22-1.22-2.45-2.53-3.67-3.76l-1-1c-7.16-7.43-14.5-14.94-22.63-21.14-1,1.83-1.92,3.76-2.8,5.68a28.6,28.6,0,0,1,5.68,5c5,5.85,7.43,15.38,2.53,22.1a11,11,0,0,1-9,4.46,10.48,10.48,0,0,1-8.56-4.63c-3.15-4.46-2.71-10.4-1.92-15.55a41.63,41.63,0,0,1,1.49-6.81,45.15,45.15,0,0,0-12.32-1.75,44.38,44.38,0,0,0,0,88.77,49.32,49.32,0,0,0,6.2-.44,39.6,39.6,0,0,0,7.86-1.83,35.55,35.55,0,0,0,11.8-6.2,3.94,3.94,0,0,1,4.63-.35,3.82,3.82,0,0,1,1.13,1.22,5,5,0,0,1,.44,3,5.75,5.75,0,0,1-1.49,2.53c-2.45,2.62-5.85,4.11-9.09,5.59a49.3,49.3,0,0,1-10.48,3.5,59,59,0,0,1-11.1,1.14,52.32,52.32,0,1,1,0-104.64,48.75,48.75,0,0,1,7.95.64c.88.17,1.66.41,2.62.59l1.22.39c.26.09.7-1.48,1.05.52h.09a10.54,10.54,0,0,1,2.1.36,72.7,72.7,0,0,1,3.58-7.42A64.49,64.49,0,0,0,7.69,145.63c0,17,7,33.81,18.78,44.91,14.07,13.28,33,20.79,51.37,28l2.1.87c16.6,6.55,33.73,13.37,50.85,21.84,6.82,3.32,14.15,7.08,21.14,11.27a57.7,57.7,0,0,0,7.08-4c.61-.44,1.13-.7,1.4-.87l5.33-3c46.22-26,123.72-69.55,126.51-128.08a77.34,77.34,0,0,0-2.8-23.85C276.61,50.66,228.47,47.43,214.05,47.43Z"/><path class="cls-2" d="M296.71,90.33c-5.24-17.39-16.51-30.67-33.29-39.49-17.65-9.26-36.69-11.18-49.54-11.18-1.75,0-3.49,0-5.16.09A146.76,146.76,0,0,0,177.1,44.2,151.19,151.19,0,0,0,145,57.13c-7.51,4.11-21.67,12.76-32,24.46-.88,1-1.66,2-2.53,3.06A72.2,72.2,0,0,0,0,145.72c0,19.13,7.95,38,21.23,50.5,15.2,14.33,34.86,22,53.82,29.44l2.1.87C93.57,233,110.61,239.73,127.38,248c7,3.49,14.42,7.34,21.58,11.62a5.24,5.24,0,0,0,2.53.7c2.36,0,5.42-1.4,11.62-5.33l.53-.35a4.87,4.87,0,0,0,.52-.35l5.33-3C217.11,224.53,296.88,179.71,299.94,117A84.87,84.87,0,0,0,296.71,90.33Zm-186.8,20.36c3.15,3.76,4.89,9.87,2.18,13.54a4,4,0,0,1-3.15,1.57,3.62,3.62,0,0,1-3-1.66c-1.75-2.45-1.4-6.73-.79-10.66a40.51,40.51,0,0,1,1.31-5.94A19.62,19.62,0,0,1,109.91,110.68Zm182.34,5.85c-2.8,58.54-80.29,102-126.51,128.08l-5.33,3c-.26.17-.79.44-1.4.87a57.7,57.7,0,0,1-7.08,4c-7-4.19-14.33-8-21.14-11.27-17.12-8.47-34.25-15.29-50.85-21.84l-2.1-.87c-18.35-7.16-37.31-14.68-51.37-28-11.79-11.1-18.78-27.87-18.78-44.91a64.49,64.49,0,0,1,98.64-54.69,72.7,72.7,0,0,0-3.58,7.42,10.54,10.54,0,0,0-2.1-.36h-.09c-.35-2-.79-.43-1.05-.52l-1.22-.39c-1-.17-1.75-.41-2.62-.59a48.75,48.75,0,0,0-7.95-.64,52.32,52.32,0,1,0,0,104.64,59,59,0,0,0,11.1-1.14,49.3,49.3,0,0,0,10.48-3.5c3.23-1.49,6.64-3,9.09-5.59a5.75,5.75,0,0,0,1.49-2.53,5,5,0,0,0-.44-3,3.82,3.82,0,0,0-1.13-1.22,3.94,3.94,0,0,0-4.63.35,35.55,35.55,0,0,1-11.8,6.2A39.6,39.6,0,0,1,94,191.94a49.32,49.32,0,0,1-6.2.44,44.38,44.38,0,0,1,0-88.77,45.15,45.15,0,0,1,12.32,1.75,41.63,41.63,0,0,0-1.49,6.81c-.79,5.15-1.22,11.1,1.92,15.55a10.48,10.48,0,0,0,8.56,4.63,11,11,0,0,0,9-4.46c4.89-6.73,2.45-16.25-2.53-22.1a28.6,28.6,0,0,0-5.68-5c.87-1.92,1.75-3.84,2.8-5.68,8.12,6.2,15.46,13.72,22.63,21.14l1,1c1.22,1.22,2.45,2.53,3.67,3.76,4.19,4.19,8.4,9.17,13.56,14,1.75,1.57,4.47,3.06,4.47,4.54v52.07a3.52,3.52,0,1,0,7,0V146.07c8,5,14.79,9.15,22.34,12.49a69.31,69.31,0,0,0,14,4.37,75.86,75.86,0,0,0,7.68,1v27.7a4,4,0,0,0,8,0V163.8c10-.87,18.8-5.07,23.25-12.06,2.71-4.28,4.77-11.45,2.23-16.69a3.72,3.72,0,0,0-3.38-2.18,3.54,3.54,0,0,0-1.6.35,3.82,3.82,0,0,0-1.81,5.07c1.14,2.36-.35,6.73-2,9.35-3.76,5.94-11.69,7.86-16.69,8.47V85.78a4,4,0,0,0-8,0V156.2a43.41,43.41,0,0,1-5.6-.87,68.1,68.1,0,0,1-13.35-3.93c-8-3.32-15.06-8.3-25.06-15.11V85.78a3.52,3.52,0,1,0-7,0v43.95c-5-4.63-9.15-9.44-13.25-13.63-1.57-1.57-2.7-3.15-4.27-4.81l.09-.09c-7.43-7.69-15-15.55-23.76-22.1a30.54,30.54,0,0,1,2.05-2.45c7-7.86,17.85-16.16,29.9-22.8a135.69,135.69,0,0,1,30.42-12.14,141.6,141.6,0,0,1,30-4.19c1.66-.09,3.32-.09,4.89-.09,14.42,0,62.56,3.23,75.4,45.26A77.34,77.34,0,0,1,292.25,116.54Zm-189.5,77,13.45-8-1.51,3.58Z"/><polygon class="cls-2" points="116.2 185.56 102.75 193.51 114.69 189.14 116.2 185.56"/></g></g></svg>